<?xml version="1.0" encoding="utf-8"?>
<!-- Generator: Adobe Illustrator 15.1.0, SVG Export Plug-In  -->
<!DOCTYPE svg PUBLIC "-//W3C//DTD SVG 1.1//EN" "http://www.w3.org/Graphics/SVG/1.1/DTD/svg11.dtd" [
	<!ENTITY ns_flows "http://ns.adobe.com/Flows/1.0/">
]>
<svg version="1.1"
	 xmlns="http://www.w3.org/2000/svg" xmlns:xlink="http://www.w3.org/1999/xlink" xmlns:a="http://ns.adobe.com/AdobeSVGViewerExtensions/3.0/"
	 x="0px" y="0px" width="56px" height="79px" viewBox="-0.062 -0.771 56 79"
	 overflow="visible" enable-background="new -0.062 -0.771 56 79" xml:space="preserve">
<defs>
</defs>
<path fill="#2D2221" d="M48.363,46.356l2.015,0.392l1.947,0.111l0.255-0.146l1.784,0.285l0.364,0.071l0.003,0.007l0.102,0.212
	l0.401,1.079l-0.254,0.147l0.129,1.434l0.549,0.957l-6.401,2.594l-0.053,0.541l-0.449,0.257l-3.226-0.628l-7.239,4.271
	c0.16,0.4,0.103,0.748-0.219,0.934l-0.35,0.199c-0.093,0.055-0.208,0.087-0.332,0.107c-0.053,0.08-0.118,0.152-0.212,0.207
	l-0.35,0.199c-0.312,0.181-0.804,0.165-1.336,0.005L15.528,71.367c0.094,0.243,0.05,0.452-0.173,0.579l-7.518,4.318
	c0.125,0.314,0.069,0.585-0.219,0.751c-0.043,0.024-0.104,0.039-0.155,0.058c-0.035,0.031-0.06,0.064-0.104,0.09
	c-0.684,0.393-2.358,0.061-3.74-0.743c-1.383-0.803-1.95-1.771-1.267-2.164c0.044-0.025,0.103-0.04,0.156-0.059
	c0.033-0.031,0.059-0.063,0.104-0.09c0.288-0.164,0.76-0.194,1.304-0.121l7.517-4.317c0.223-0.129,0.584-0.152,1.008-0.097
	l20.863-11.667c-0.209-0.438-0.167-0.828,0.181-1.027l0.347-0.199c0.096-0.057,0.211-0.085,0.336-0.107
	c0.051-0.079,0.115-0.153,0.212-0.208l0.347-0.199c0.357-0.205,0.95-0.162,1.564,0.068l7.197-4.023l-1.071-1.868l0.448-0.256
	l0.903-0.012L48.363,46.356z"/>
<ellipse fill="#C3C3C2" cx="4.996" cy="13.765" rx="1.483" ry="0.843"/>
<ellipse fill="#B1B3B1" cx="4.996" cy="13.9" rx="1.927" ry="1.096"/>
<ellipse fill="#838382" cx="4.993" cy="75.816" rx="3.305" ry="1.879"/>
<ellipse fill="#BFC0BF" cx="4.993" cy="75.419" rx="3.305" ry="1.88"/>
<path fill="#90918F" d="M7.584,62.837v12.582c0,0.635-0.708,1.172-1.696,1.379c-0.122-4.655-0.211-9.308-0.271-13.961H7.584z"/>
<path fill="#A0A1A0" d="M5.617,62.837c0.06,4.653,0.148,9.306,0.271,13.961c-0.28,0.057-0.578,0.094-0.894,0.094
	c-1.429,0-2.589-0.66-2.589-1.474V62.837H5.617z"/>
<ellipse fill="#BFC0BF" cx="4.995" cy="62.837" rx="2.589" ry="1.472"/>
<path fill="#90918F" d="M6.081,13.765h0.397l0.566,49.073c0,0.516-0.595,0.95-1.414,1.102C5.392,47.215,5.54,30.489,6.081,13.765z"
	/>
<path fill="#A0A1A0" d="M3.513,13.765h2.568c-0.541,16.724-0.689,33.45-0.45,50.174c-0.201,0.039-0.413,0.064-0.637,0.064
	c-1.132,0-2.049-0.522-2.049-1.166L3.513,13.765z"/>
<polygon fill="#838382" points="9.336,13.397 9.336,14.078 5.325,16.395 5.296,13.229 "/>
<polygon fill="#8E8F8D" points="5.296,13.229 5.325,16.395 5.308,16.405 0.655,13.719 0.655,13.036 "/>
<polygon fill="#90918F" points="8.755,12.646 9.336,13.397 5.312,15.72 5.197,12.498 "/>
<polygon fill="#A0A1A0" points="0.655,13.036 1.234,12.333 5.197,12.498 5.312,15.72 5.308,15.723 "/>
<polygon fill="#A0A1A0" points="5.265,14.66 8.755,12.646 9.989,4.337 5.354,7.014 "/>
<polygon fill="#ABA233" points="5.658,13.801 8.567,12.122 9.597,5.195 5.731,7.427 "/>
<polygon fill="#958E27" points="8.173,12.122 9.166,5.444 9.597,5.195 8.567,12.122 5.658,13.801 5.66,13.573 "/>
<polygon fill="#9A9A99" points="5.354,7.014 9.989,4.337 4.636,1.246 0,3.923 "/>
<polygon fill="#8A8A89" points="6.812,1.709 9.319,4.309 5.312,6.624 5.077,1.636 "/>
<polygon fill="#ACAEAC" points="0.671,3.95 3.178,1.558 5.077,1.636 5.312,6.624 5.306,6.626 "/>
<polygon fill="#7F8181" points="5.116,1.251 5.125,2.683 5.125,2.683 3.178,1.558 3.178,1.171 "/>
<polygon fill="#6E6D6D" points="6.812,1.322 6.812,1.709 5.125,2.683 5.116,1.251 "/>
<polygon fill="#9A9A99" points="5.314,0.21 6.812,1.322 5.148,2.282 5.005,0.006 "/>
<polygon fill="#ACAEAC" points="3.178,1.171 4.675,0.183 4.996,0 5.005,0.006 5.148,2.282 5.125,2.294 "/>
<polygon fill="#BFC0BF" points="0,3.923 1.234,12.333 5.265,14.66 5.354,7.014 "/>
<polygon fill="#CCC241" points="0.447,4.819 1.477,11.826 4.832,13.765 4.906,7.394 "/>
<polygon fill="#BCB238" points="0.875,5.066 1.868,11.826 4.835,13.539 4.832,13.765 1.477,11.826 0.447,4.819 "/>
<path fill="#6C6B6C" d="M7.551,30.154c0,0.733-0.796,1.194-1.882,1.189l0.047-3.076C6.778,28.68,7.551,29.434,7.551,30.154z"/>
<path fill="#838382" d="M4.906,28.028c0.284,0.054,0.553,0.14,0.81,0.239l-0.047,3.076c-0.242,0-0.495-0.019-0.763-0.068
	c-1.461-0.277-2.645-1.23-2.645-2.127C2.262,28.252,3.445,27.749,4.906,28.028z"/>
<polygon fill="#919292" points="2.262,28.62 5.699,29.274 5.692,29.8 2.262,29.147 "/>
<polygon fill="#6C6B6C" points="7.551,29.626 7.551,30.154 5.692,29.8 5.699,29.274 "/>
<path fill="#90918F" d="M7.551,29.626c0,0.731-0.791,1.191-1.874,1.188l0.047-3.073C6.782,28.155,7.551,28.906,7.551,29.626z"/>
<path fill="#A0A1A0" d="M4.906,27.498c0.287,0.054,0.558,0.142,0.817,0.243l-0.047,3.073c-0.244,0-0.5-0.017-0.771-0.067
	c-1.461-0.278-2.645-1.231-2.645-2.127C2.262,27.722,3.445,27.222,4.906,27.498z"/>
<path fill="#6C6B6C" d="M7.551,28.795c0,0.728-0.785,1.187-1.86,1.189l0.045-3.069C6.788,27.331,7.551,28.078,7.551,28.795z"/>
<path fill="#838382" d="M4.906,26.669c0.291,0.055,0.567,0.144,0.829,0.247L5.69,29.984c-0.25,0-0.51-0.016-0.784-0.069
	c-1.461-0.278-2.645-1.229-2.645-2.127C2.262,26.893,3.445,26.391,4.906,26.669z"/>
<polygon fill="#6C6B6C" points="7.551,28.267 7.551,28.795 5.713,28.445 5.721,27.918 "/>
<polygon fill="#919292" points="2.262,27.26 5.721,27.918 5.713,28.445 2.262,27.789 "/>
<path fill="#90918F" d="M7.551,28.267c0,0.725-0.781,1.184-1.853,1.188l0.045-3.065C6.793,26.805,7.551,27.551,7.551,28.267z"/>
<path fill="#A0A1A0" d="M4.906,26.14c0.294,0.056,0.572,0.144,0.837,0.25l-0.045,3.065c-0.252,0.001-0.514-0.016-0.792-0.069
	c-1.461-0.276-2.645-1.229-2.645-2.126C2.262,26.364,3.445,25.862,4.906,26.14z"/>
</svg>
