<?xml version="1.0" encoding="utf-8"?>
<!-- Generator: Adobe Illustrator 15.1.0, SVG Export Plug-In  -->
<!DOCTYPE svg PUBLIC "-//W3C//DTD SVG 1.1//EN" "http://www.w3.org/Graphics/SVG/1.1/DTD/svg11.dtd" [
	<!ENTITY ns_flows "http://ns.adobe.com/Flows/1.0/">
]>
<svg version="1.1"
	 xmlns="http://www.w3.org/2000/svg" xmlns:xlink="http://www.w3.org/1999/xlink" xmlns:a="http://ns.adobe.com/AdobeSVGViewerExtensions/3.0/"
	 x="0px" y="0px" width="170px" height="154px" viewBox="-0.737 -0.623 170 154"
	 overflow="visible" enable-background="new -0.737 -0.623 170 154" xml:space="preserve">
<defs>
</defs>
<path fill="#221B1A" d="M139.545,35.104c-3.967-2.607-8.281-5.098-12.914-7.457L85.846,4.1L0.004,49.496l-0.002,4.166l16.842,9.723
	l2.381,1.375c5.322,3.43,8.648,8.275,8.648,13.652c0,5.365-3.311,10.201-8.611,13.631L0.135,99.039L0,103.162l75.689,43.697
	l10.158,5.863l40.758-23.531c4.65-2.367,8.98-4.865,12.959-7.48c18.725-12.312,29.693-27.225,29.693-43.299
	C169.258,62.334,158.281,47.418,139.545,35.104"/>
<path fill="#55534F" d="M139.545,30.98c-3.967-2.607-8.281-5.098-12.914-7.457L85.734,0L0.005,49.496l16.839,9.768l2.381,1.375
	c5.322,3.428,8.648,8.273,8.648,13.65c0,5.365-3.311,10.201-8.611,13.631l-2.479,1.43L0.135,99.039l75.555,43.697l10.178,5.805
	l40.738-23.473c4.65-2.367,8.98-4.865,12.959-7.48c18.725-12.312,29.693-27.225,29.693-43.299
	C169.258,58.211,158.281,43.295,139.545,30.98"/>
<path fill="#FFFFFF" d="M12.941,96.287l9.979-5.744c5.301-3.428,9.857-9.654,9.75-16.258c-0.113-6.896-3.428-12.131-8.75-15.561
	l-0.498-0.336L3.671,47.391l-3.667,2.105l16.84,9.768l2.381,1.375c5.322,3.428,8.648,8.273,8.648,13.65
	c0,5.365-3.311,10.201-8.611,13.629l-2.479,1.434L0.135,99.039l3.743,2.18L12.941,96.287z"/>
<path fill="#FFFFFF" d="M139.545,30.98c-3.967-2.607-8.281-5.098-12.914-7.457L85.734,0l-3.758,2.174l36.654,21.35
	c4.633,2.359,8.887,4.941,12.914,7.457c20.93,13.07,32.713,27.23,32.713,43.309c0,16.074-11.141,30.479-32.693,43.299
	c-4.092,2.434-8.309,5.113-12.959,7.48l-36.406,21.363l3.668,2.109l40.738-23.473c4.65-2.367,8.98-4.865,12.959-7.48
	c18.725-12.312,29.693-27.225,29.693-43.299C169.258,58.211,158.281,43.295,139.545,30.98"/>
<path fill="#FFFFFF" d="M49.699,30.98c20.93,13.07,44.715,27.23,44.715,43.309c0,16.074-23.143,30.479-44.695,43.299
	c-2.783,1.654-5.51,3.451-8.504,5.158l3.76,2.213c4.533-2.576,8.824-4.803,12.744-7.371C85.926,99.1,99.414,90.363,99.414,74.289
	c0-16.078-13.492-24.814-41.715-43.309c-3.916-2.568-8.168-5.029-12.73-7.361l-3.861,2.23C44.104,27.531,46.961,29.27,49.699,30.98"
	/>
<polygon fill="#3F3B36" points="0,103.162 85.848,152.723 85.848,148.602 0.135,99.041 "/>
</svg>
