<?xml version="1.0" encoding="utf-8"?>
<!-- Generator: Adobe Illustrator 15.1.0, SVG Export Plug-In  -->
<!DOCTYPE svg PUBLIC "-//W3C//DTD SVG 1.1//EN" "http://www.w3.org/Graphics/SVG/1.1/DTD/svg11.dtd" [
	<!ENTITY ns_flows "http://ns.adobe.com/Flows/1.0/">
]>
<svg version="1.1"
	 xmlns="http://www.w3.org/2000/svg" xmlns:xlink="http://www.w3.org/1999/xlink" xmlns:a="http://ns.adobe.com/AdobeSVGViewerExtensions/3.0/"
	 x="0px" y="0px" width="32px" height="39px" viewBox="-0.533 -0.043 32 39"
	 overflow="visible" enable-background="new -0.533 -0.043 32 39" xml:space="preserve">
<defs>
</defs>
<path fill="#2D2222" d="M18.551,32.12l0.007-0.002l0.218-0.012L18.551,32.12 M23.569,32.243l0.868-0.275l0.006,0.001l-0.771,0.243
	L23.569,32.243 M30.12,29.18c-0.608-0.074-1.368-0.051-1.776,0.051l-0.033,0.006l-0.75,0.201c-0.125,0.041-0.178,0.086-0.188,0.132
	c-0.094,0.042-0.135,0.087-0.115,0.134c-0.479,0.16-0.835,0.404-0.835,0.404l-1.095,0.365l-1.346,0.09l-1.33,0.096l-1.594,0.271
	l-2.963,0.977l-0.6,0.191L15.1,32.991l-1.443,0.535l0.018,0.07l0.002,0.029l0.068,0.012l0.037,0.001l-2.846,0.731l-0.07,0.058
	l0.213-0.015l2.945-0.754l0.043,0.002l0.076-0.01l0.263-0.084l0.106-0.01l0.501-0.152l0.048-0.014l-6.358,2.117l-0.499,0.166
	l-0.028,0.008l0.011,0.021l-0.513,0.17l-0.125,0.043c0,0,0.288,0.354,0.528,0.553c0.021,0.02,0.069,0.033,0.135,0.041
	c0.379,0.047,1.357-0.066,1.408-0.119l0.041-0.014l0.083-0.027l0.208-0.07l0.125-0.041l0.007-0.002l0.052-0.041
	c0.002-0.073,0.008-0.227,0.02-0.346l0.057-0.002l0.068-0.023l0.015-0.005c0.026,0.006,0.058,0.011,0.092,0.015
	c0.333,0.041,0.939,0.012,1.038-0.033l0.054-0.014l0.087-0.02l0.16-0.037l0.252-0.059l0.008-0.002l0.1-0.041
	c0.06-0.047,0.16-0.123,0.27-0.205l0.081-0.006l0.033-0.008h0.006l0.566-0.131l3.473-0.812l3.947-1.282l0.147-0.007l0.401-0.111
	l0.253-0.094l1.495-0.473l-0.228,0.752l-0.215,0.413l0.336,0.069l0.006,0.001l0.018,0.002l0.068-0.004l0.036,0.001l0.007-0.002
	l0.316-0.016l0.073-0.016l0.051-0.072l0.029,0.003l0.253-0.042l0.295-0.412L24.32,32.6l0.401-0.436l0.557-0.191l0.019-0.002
	l3.638-1.236l0.159-0.053l-0.186-0.267l-0.195-0.087l-0.122-0.051l-0.515,0.023c0.542-0.117,1.018-0.268,1.184-0.322
	c0.325-0.021,0.614-0.061,0.802-0.123c0.118-0.039,0.177-0.083,0.185-0.125c0.142-0.053,0.371-0.148,0.393-0.174
	C31.02,29.43,30.787,29.262,30.12,29.18"/>
<polygon fill="#974223" points="11.596,16.827 1.307,28.877 0,28.133 0,21.93 10.291,16.082 "/>
<polygon fill="#88250E" points="11.596,23.029 1.307,28.877 1.307,22.676 11.596,16.827 "/>
<polygon fill="#634E48" points="6.686,18.259 4.42,19.909 4.133,19.745 4.133,19.382 6.398,18.095 "/>
<polygon fill="#4D3833" points="6.686,18.621 4.42,19.909 4.42,19.547 6.686,18.259 "/>
<polygon fill="#634E48" points="4.459,20.418 4.73,19.364 4.443,19.201 4.133,19.382 4.172,20.255 "/>
<polygon fill="#4D3833" points="4.77,20.236 4.73,19.364 4.418,19.548 4.459,20.418 "/>
<polygon fill="#D07125" points="6.379,19.173 6.221,19.249 6.227,19.381 5.969,19.471 5.936,19.57 5.777,19.619 5.715,19.774 
	5.416,19.859 5.383,19.747 5.051,19.83 5.051,18.271 5.197,17.997 6.17,17.185 6.379,17.287 "/>
<polygon fill="#D88338" points="4.867,19.721 4.965,19.824 5.051,19.83 5.051,18.271 4.805,18.125 "/>
<polygon fill="#D07125" points="4.775,18.297 4.822,18.125 5.197,17.997 5.051,18.271 4.922,18.208 4.922,19.084 4.775,19.173 "/>
<polygon fill="#D88338" points="4.775,18.297 4.822,18.125 5.197,17.997 4.775,17.755 4.453,17.571 4.551,18.167 4.551,19.043 
	4.662,19.173 4.775,19.173 "/>
<polygon fill="#C6CA95" points="7.311,37.092 11.1,34.927 10.996,33.419 9.363,34.666 7.311,36.338 "/>
<path fill="#241C1D" d="M7.183,36.278l2.103-1.713l1.821-1.39l0.126,1.823l-4.05,2.313V36.278z M10.885,33.664l-1.441,1.101
	l-2.006,1.634v0.474l3.529-2.017L10.885,33.664z"/>
<polygon fill="#343031" points="9.176,38.222 12.965,36.057 12.861,34.551 11.229,35.796 9.176,37.469 "/>
<path fill="#241C1D" d="M9.049,37.409l2.104-1.713l1.82-1.389l0.125,1.822l-4.049,2.313V37.409z M12.751,34.795l-1.441,1.1
	L9.304,37.53v0.473l3.529-2.017L12.751,34.795z"/>
<polygon fill="#464445" points="9.176,38.222 7.311,37.125 7.311,36.373 9.176,37.469 "/>
<path fill="#241C1D" d="M7.183,37.198V36.15l2.121,1.247v1.048L7.183,37.198z M7.438,36.595v0.458L9.049,38v-0.458L7.438,36.595z"/>
<polygon fill="#464445" points="11.229,35.796 9.123,34.826 7.311,36.373 9.176,37.469 "/>
<path fill="#241C1D" d="M7.092,36.392l2.012-1.716l2.364,1.09l-2.28,1.858L7.092,36.392z M9.145,34.976l-1.615,1.378l1.635,0.961
	l1.826-1.488L9.145,34.976z"/>
<polygon fill="#231C1D" points="13.014,36.188 9.162,38.321 9.162,38.221 13.002,36.027 "/>
<polyline fill="#231C1D" points="9.162,38.221 7.273,37.116 7.273,37.215 9.162,38.321 "/>
<polygon fill="#C6CA95" points="3.66,34.879 7.451,32.715 7.348,31.208 5.713,32.454 3.66,34.126 "/>
<path fill="#241C1D" d="M3.533,34.065l2.104-1.713l1.821-1.39l0.125,1.823l-4.05,2.312V34.065z M7.236,31.452l-1.442,1.1
	l-2.006,1.634v0.474l3.53-2.016L7.236,31.452z"/>
<polygon fill="#343031" points="5.525,36.009 9.316,33.845 9.213,32.338 7.578,33.583 5.525,35.256 "/>
<path fill="#241C1D" d="M5.398,35.196l2.104-1.713l1.821-1.389l0.125,1.823l-4.05,2.312V35.196z M9.102,32.583l-1.442,1.1
	l-2.006,1.635v0.473l3.53-2.016L9.102,32.583z"/>
<polygon fill="#464445" points="5.525,36.009 3.66,34.913 3.66,34.16 5.525,35.256 "/>
<path fill="#241C1D" d="M3.533,34.985v-1.048l2.12,1.247v1.048L3.533,34.985z M3.788,34.382v0.458l1.61,0.947v-0.458L3.788,34.382z"
	/>
<polygon fill="#464445" points="7.578,33.583 5.473,32.613 3.66,34.16 5.525,35.256 "/>
<path fill="#241C1D" d="M3.441,34.179l2.012-1.716l2.364,1.09l-2.28,1.858L3.441,34.179z M5.494,32.763l-1.615,1.378l1.635,0.961
	l1.826-1.488L5.494,32.763z"/>
<polygon fill="#231C1D" points="9.363,33.976 5.512,36.108 5.512,36.007 9.354,33.814 "/>
<polyline fill="#231C1D" points="5.512,36.007 3.625,34.903 3.625,35.002 5.512,36.108 "/>
<polygon fill="#6F534C" points="6.461,17.662 5.416,18.266 5.062,5.25 6.906,4.835 7.006,10.472 "/>
<polygon fill="#6F534C" points="5.416,18.266 4.463,17.72 4.236,10.216 4.111,9.285 3.963,5.953 4.318,5.661 5.129,5.321 "/>
<polygon fill="#A0A4A5" points="12.625,9.286 11.598,10.222 11.008,19.84 12.625,19.02 "/>
<polygon fill="#6F534C" points="5.994,4.715 4.307,5.624 3.963,5.953 4.24,5.693 5.129,5.321 7.082,6.414 9.025,5.262 6.557,4.568 
	"/>
<polygon fill="#A1A6A7" points="8.492,5.869 6.736,6.887 6.822,5.574 8.408,4.495 "/>
<polygon fill="#A0A4A5" points="9.467,5.605 11.045,6.871 11.045,5.776 9.467,4.928 "/>
<polygon fill="#565656" points="9.713,17.628 7.746,18.711 7.746,34.034 9.713,32.953 "/>
<polyline fill="#878786" points="7.746,34.034 5.146,32.527 5.146,17.203 7.746,18.711 "/>
<polygon fill="#565656" points="12.975,19.513 11.008,20.593 11.008,35.917 12.975,34.836 "/>
<polygon fill="#1D160B" points="11.008,19.84 5.146,16.45 5.146,17.203 11.008,20.593 "/>
<polygon fill="#1D160B" points="11.008,19.84 12.975,18.759 12.975,19.513 11.008,20.593 "/>
<path fill="#80807F" d="M7.766,20.228c-1.738,2.011-2.619,12.19-2.619,12.19V17.203l2.6,1.509L7.766,20.228z"/>
<polyline fill="#878786" points="11.008,35.917 8.408,34.411 8.408,20.592 7.533,20.098 7.533,18.587 8.408,19.087 11.008,20.593 
	"/>
<polygon fill="#878786" points="8.408,20.582 7.533,20.082 7.533,18.587 7.533,20.082 "/>
<polygon fill="#5D4B37" points="8.345,20.692 8.471,20.471 7.661,20.008 7.661,18.587 7.406,18.587 7.406,20.156 "/>
<polygon fill="#D1C0AC" points="8.73,18.522 7.533,17.794 7.533,18.587 8.73,19.315 "/>
<path fill="#5D4B37" d="M7.279,18.73v-1.389l1.705,1.038v1.389L7.279,18.73z M7.789,18.248v0.197l0.686,0.417v-0.197L7.789,18.248z"
	/>
<rect x="9.178" y="3.934" fill="#E29148" width="1.26" height="7.361"/>
<rect x="7.225" y="4.367" fill="#EBA15C" width="1.953" height="7.126"/>
<path fill="#1E150B" d="M6.299,2.395c0,0-0.098-0.822,0-1.053c0.1-0.231,0.285-0.592,0.748-0.91c0.463-0.316,1.164-0.43,1.164-0.43
	s0.811-0.03,1.229,0.151c0.479,0.207,0.885,0.395,1.201,0.885c0.033,0.05,0.16,0.203,0.381,0.91
	c0.291,0.933-0.584,2.619-0.584,2.619V4.071L6.299,2.395z"/>
<path fill="#F0B57E" d="M6.299,2.395c0,0-0.127,2.866,1.65,3.464c1.258,0.423,1.988-1.611,2.141-1.688L9.861,3.934
	c0,0,0.654,0.746,0.924-0.319s-0.201-0.944-0.27-0.952C10.344,2.645,9.98,2.937,9.98,2.937L9.963,3.196L9.896,3.19L9.783,2.663
	c0,0-0.391-1.88-2.039-0.652c-0.42,0.312-0.545-0.106-0.809-0.3C6.533,1.412,6.299,2.395,6.299,2.395z"/>
<polygon fill="#E2E7E9" points="5.129,5.321 6.818,6.266 7.756,8.338 8.826,7.418 11.672,9.049 11.008,19.84 5.146,16.45 "/>
<polygon fill="#6F534C" points="11.428,6.667 9.271,7.916 11.656,9.286 12.67,10.508 14.553,9.413 13.227,7.844 "/>
<polygon fill="#830423" points="8.574,8.316 7.713,9.183 6.906,8.293 7.713,7.774 "/>
<polygon fill="#830423" points="8.34,16.9 7.713,17.342 7.168,16.228 7.168,9.367 7.746,8.921 8.34,10.039 "/>
<polygon fill="#4D3833" points="12.975,11.546 11.176,11.546 11.176,22.324 12.975,21.348 "/>
<polygon fill="#6F534C" points="6.455,19.937 4.885,18.994 5.123,5.311 6.514,6.078 "/>
<polygon fill="#D2D6D8" points="6.514,6.078 6.832,8.467 7.713,7.774 6.822,5.574 "/>
<polygon fill="#D8DDDF" points="11.549,6.681 8.682,8.921 7.805,7.812 11.045,5.776 "/>
<polygon fill="#644A44" points="6.557,4.568 5.994,4.715 4.307,5.624 3.963,5.953 4.318,5.661 5.129,5.321 "/>
<rect x="-0.298" y="12.534" transform="matrix(-0.023 0.9997 -0.9997 -0.023 17.7781 7.9452)" fill="#241C1D" width="10.61" height="0.25"/>
<polygon fill="#D07125" points="14.002,23.656 13.844,23.732 13.85,23.865 13.592,23.955 13.559,24.052 13.398,24.101 
	13.336,24.255 13.039,24.342 13.006,24.229 12.672,24.313 12.672,22.754 12.818,22.48 13.793,21.668 14.002,21.77 "/>
<polygon fill="#D88338" points="12.488,24.203 12.586,24.308 12.672,24.313 12.672,22.754 12.428,22.608 "/>
<polygon fill="#D07125" points="12.398,22.78 12.445,22.608 12.818,22.48 12.672,22.754 12.545,22.691 12.545,23.567 12.398,23.656 
	"/>
<polygon fill="#D88338" points="12.398,22.78 12.445,22.608 12.818,22.48 12.398,22.238 12.074,22.053 12.174,22.649 12.174,23.527 
	12.285,23.656 12.398,23.656 "/>
<polygon fill="#6F534C" points="14.021,22.005 12.977,22.61 12.604,10.546 14.553,9.413 14.566,14.816 "/>
<polygon fill="#644A44" points="12.977,22.61 12.023,22.066 11.797,14.56 11.672,13.628 11.484,11.855 11.176,22.324 9.271,21.277 
	9.467,7.916 11.656,9.286 12.67,10.508 "/>
</svg>
