<?xml version="1.0" encoding="utf-8"?>
<!-- Generator: Adobe Illustrator 15.1.0, SVG Export Plug-In  -->
<!DOCTYPE svg PUBLIC "-//W3C//DTD SVG 1.1//EN" "http://www.w3.org/Graphics/SVG/1.1/DTD/svg11.dtd" [
	<!ENTITY ns_flows "http://ns.adobe.com/Flows/1.0/">
]>
<svg version="1.1"
	 xmlns="http://www.w3.org/2000/svg" xmlns:xlink="http://www.w3.org/1999/xlink" xmlns:a="http://ns.adobe.com/AdobeSVGViewerExtensions/3.0/"
	 x="0px" y="0px" width="567px" height="357px" viewBox="-0.806 -0.136 567 357"
	 overflow="visible" enable-background="new -0.806 -0.136 567 357" xml:space="preserve">
<defs>
</defs>
<polyline fill="#050000" points="388.186,246.514 369.344,245.592 368.25,351.786 465.379,356.534 474.302,353.193 541.88,327.869 
	554.835,328.499 563.021,325.43 538.281,298.803 565.938,288.438 554.885,276.761 536.49,275.01 521.422,280.661 516.112,274.952 
	409.785,269.754 388.186,246.514 "/>
<polygon fill="#763828" points="183.209,48.8 208.976,34.086 194.896,28.194 169.128,42.906 "/>
<polygon fill="#5D271A" points="182.621,44.425 175.578,41.479 193.006,31.531 202.526,35.516 195.482,39.535 193.006,38.497 "/>
<polygon fill="#3D130C" points="182.621,44.425 193.006,38.497 195.482,39.535 185.098,45.464 "/>
<polygon fill="#632C1D" points="208.976,82.031 208.976,34.086 183.209,48.8 183.209,96.743 "/>
<polygon fill="#7F3C2D" points="169.128,42.906 169.128,90.851 183.209,96.743 183.209,48.8 "/>
<rect x="168.564" y="64.071" transform="matrix(0.9258 0.3781 -0.3781 0.9258 37.55 -61.8096)" fill="#6E3638" width="15.21" height="1.286"/>
<rect x="168.565" y="69.275" transform="matrix(0.9259 0.3779 -0.3779 0.9259 39.4827 -61.3866)" fill="#6E3638" width="15.209" height="1.286"/>
<rect x="195.451" y="41.98" fill="#3F1316" width="1.285" height="37.392"/>
<rect x="170.634" y="44.425" fill="#6E3638" width="1.285" height="54.376"/>
<polygon fill="#15242E" points="119.573,208.5 243.783,280.421 346.567,221.08 346.567,211.026 222.359,149.157 119.573,198.447 "/>
<polygon fill="#632C1D" points="346.567,221.08 243.783,280.421 243.783,270.369 346.567,211.026 "/>
<polygon fill="#F0F0E7" points="119.573,198.447 243.783,270.369 346.567,211.026 346.567,132.674 222.359,101.459 119.573,120.095 
	"/>
<polygon fill="#D3CF9C" points="346.567,211.026 243.783,270.369 243.783,192.016 346.567,132.674 "/>
<polygon fill="#F6F6F6" points="110.64,117.091 244.626,194.677 355.501,130.659 355.501,121.422 110.64,107.853 "/>
<polygon fill="#C6C6C6" points="110.64,107.853 244.626,185.436 355.501,121.422 221.515,43.837 "/>
<polygon fill="#15242E" points="117.174,108.215 244.008,181.658 348.969,121.056 348.969,119.083 117.174,106.239 "/>
<polygon fill="#E7E8E7" points="133.103,145.527 150.743,196.513 151.895,196.111 151.895,155.307 134.255,145.123 "/>
<polygon fill="#FDFEFF" points="133.103,186.329 150.743,196.513 150.743,155.709 133.103,145.527 "/>
<polygon fill="#DBDBDB" points="137.489,150.609 137.489,184.243 148.55,190.625 148.55,192.696 135.296,185.046 135.296,149.343 
	"/>
<polygon fill="#C0BBDC" points="137.41,150.328 148.625,156.803 148.625,190.911 137.41,184.436 "/>
<polygon fill="#CECECD" points="150.743,155.709 151.895,155.307 134.255,145.123 133.103,145.527 "/>
<polygon fill="#C4C4C4" points="148.625,190.625 148.625,192.696 135.296,185.046 137.489,184.243 "/>
<polygon fill="#E0E0E0" points="148.55,163.55 148.55,164.585 137.489,158.201 137.489,157.166 "/>
<polygon fill="#E0E0E0" points="143.415,154.029 142.62,153.571 142.62,187.203 143.415,187.668 "/>
<polygon fill="#FFFFFF" points="148.897,164.067 148.897,165.102 137.265,158.399 137.265,157.365 "/>
<polygon fill="#E0E0E0" points="148.55,182.691 148.55,183.726 137.489,177.341 137.489,176.302 "/>
<polygon fill="#FFFFFF" points="148.897,183.209 148.897,184.243 137.265,177.539 137.265,176.504 "/>
<polygon fill="#E0E0E0" points="148.55,173.829 148.55,174.865 137.489,168.481 137.489,167.444 "/>
<polygon fill="#FFFFFF" points="148.897,174.348 148.897,175.383 137.265,168.68 137.265,167.645 "/>
<polygon fill="#FFFFFF" points="143.189,153.8 142.396,153.339 142.396,187.403 143.189,187.866 "/>
<polygon fill="#E7E8E7" points="200.153,181.541 217.793,232.529 218.947,232.125 218.947,191.319 201.307,181.138 "/>
<polygon fill="#FDFEFF" points="200.153,222.341 217.793,232.529 217.793,191.726 200.153,181.541 "/>
<polygon fill="#DBDBDB" points="204.542,186.623 204.542,220.255 215.6,226.641 215.6,228.711 202.349,221.06 202.349,185.359 "/>
<polygon fill="#C0BBDC" points="204.464,186.341 215.681,192.817 215.681,226.922 204.464,220.449 "/>
<polygon fill="#CECECD" points="217.793,191.726 218.947,191.319 201.307,181.138 200.153,181.541 "/>
<polygon fill="#C4C4C4" points="215.681,226.641 215.681,228.711 202.349,221.06 204.542,220.255 "/>
<polygon fill="#E0E0E0" points="215.6,199.563 215.6,200.599 204.542,194.214 204.542,193.179 "/>
<polygon fill="#E0E0E0" points="210.469,190.043 209.673,189.585 209.673,223.215 210.469,223.682 "/>
<polygon fill="#FFFFFF" points="215.949,200.08 215.949,201.115 204.318,194.413 204.318,193.38 "/>
<polygon fill="#E0E0E0" points="215.6,218.7 215.6,219.74 204.542,213.354 204.542,212.318 "/>
<polygon fill="#FFFFFF" points="215.949,219.218 215.949,220.255 204.318,213.554 204.318,212.518 "/>
<polygon fill="#E0E0E0" points="215.6,209.842 215.6,210.878 204.542,204.491 204.542,203.461 "/>
<polygon fill="#FFFFFF" points="215.949,210.36 215.949,211.397 204.318,204.693 204.318,203.657 "/>
<polygon fill="#FFFFFF" points="210.246,189.813 209.448,189.354 209.448,223.415 210.246,223.881 "/>
<polygon fill="#E0E0E0" points="355.501,62.468 244.626,126.485 244.626,135.724 355.501,71.707 "/>
<polygon fill="#7A3A34" points="222.133,45.64 348.969,119.083 233.07,64.767 "/>
<polygon fill="#994E46" points="117.174,106.239 222.133,45.64 233.07,64.767 "/>
<polygon fill="#8D4640" points="233.07,64.767 244.008,179.684 117.174,106.239 "/>
<polygon fill="#73342D" points="348.969,119.083 244.008,179.684 233.07,64.767 "/>
<polygon fill="#58241E" points="348.969,60.131 244.008,120.73 244.008,122.704 348.969,62.106 "/>
<polygon fill="#15242E" points="222.133,45.821 348.969,119.266 233.07,64.947 "/>
<polygon fill="#15242E" points="117.174,106.422 222.133,45.821 233.07,64.947 "/>
<polygon fill="#2F4D5F" points="348.969,119.266 244.011,179.865 233.07,64.947 "/>
<g>
	<defs>
		<polygon id="SVGID_14_" points="348.969,119.031 244.011,179.63 233.07,64.712 		"/>
	</defs>
	<clipPath id="SVGID_16_">
		<use xlink:href="#SVGID_14_"  overflow="visible"/>
	</clipPath>
	<g clip-path="url(#SVGID_16_)">
		<g>
			<g>
				
					<rect x="248.138" y="13.593" transform="matrix(0.4993 0.8664 -0.8664 0.4993 186.8393 -179.5558)" fill="#1E3442" width="1.285" height="116.583"/>
			</g>
		</g>
		<g>
			<g>
				
					<rect x="252.517" y="19.992" transform="matrix(0.4993 0.8664 -0.8664 0.4993 202.3173 -175.673)" fill="#1E3442" width="1.285" height="134.453"/>
			</g>
		</g>
		<g>
			<g>
				
					<rect x="269.386" y="13.205" transform="matrix(0.5006 0.8657 -0.8657 0.5006 216.8549 -186.4616)" fill="#1E3442" width="1.284" height="163.012"/>
			</g>
		</g>
		<g>
			<g>
				
					<rect x="272.289" y="54.82" transform="matrix(0.4993 0.8664 -0.8664 0.4993 231.9935 -181.3747)" fill="#552427" width="1.285" height="110.45"/>
			</g>
		</g>
		<g>
			<g>
				
					<rect x="289.232" y="46.327" transform="matrix(0.4993 0.8664 -0.8664 0.4993 247.019 -192.274)" fill="#552427" width="1.285" height="142.538"/>
			</g>
		</g>
		<g>
			<g>
				
					<rect x="304.675" y="11.907" transform="matrix(0.4988 0.8667 -0.8667 0.4988 261.5587 -201.8727)" fill="#552427" width="1.284" height="226.596"/>
			</g>
		</g>
		<g>
			<g>
				
					<rect x="305.34" y="16.497" transform="matrix(0.5048 0.8632 -0.8632 0.5048 272.7448 -194.5973)" fill="#552427" width="1.285" height="247.854"/>
			</g>
		</g>
	</g>
</g>
<g>
	<defs>
		<polygon id="SVGID_12_" points="233.075,65.044 222.133,45.821 348.969,119.266 		"/>
	</defs>
	<clipPath id="SVGID_18_">
		<use xlink:href="#SVGID_12_"  overflow="visible"/>
	</clipPath>
	<g clip-path="url(#SVGID_18_)">
		<g>
			<g>
				
					<rect x="214.995" y="69.363" transform="matrix(0.8664 0.4994 -0.4994 0.8664 68.5149 -116.0423)" fill="#1E3442" width="72.199" height="1.285"/>
			</g>
		</g>
		<g>
			<g>
				
					<rect x="206.146" y="70.382" transform="matrix(0.8669 0.4986 -0.4986 0.8669 69.3897 -117.7769)" fill="#1E3442" width="98.106" height="1.284"/>
			</g>
		</g>
		<g>
			<g>
				
					<rect x="201.151" y="71.985" transform="matrix(0.8657 0.5006 -0.5006 0.8657 71.5302 -121.3474)" fill="#1E3442" width="121.505" height="1.285"/>
			</g>
		</g>
		<g>
			<g>
				
					<rect x="211.648" y="78.129" transform="matrix(0.8648 0.5021 -0.5021 0.8648 76.7695 -127.6015)" fill="#1E3442" width="127.422" height="1.285"/>
			</g>
		</g>
		<g>
			<g>
				
					<rect x="185.212" y="54.217" transform="matrix(0.866 0.5 -0.5 0.866 60.0802 -114.4945)" fill="#72393B" width="116.937" height="1.285"/>
			</g>
		</g>
		<g>
			<g>
				
					<rect x="178.214" y="48.028" transform="matrix(0.866 0.5 -0.5 0.866 56.8094 -114.6756)" fill="#72393B" width="128.357" height="1.284"/>
			</g>
		</g>
		<g>
			<g>
				
					<rect x="170.416" y="42.537" transform="matrix(0.8651 0.5017 -0.5017 0.8651 54.3717 -115.7756)" fill="#72393B" width="143.954" height="1.286"/>
			</g>
		</g>
		<g>
			<g>
				
					<rect x="182.748" y="42.522" transform="matrix(0.8676 0.4972 -0.4972 0.8676 54.8059 -119.5195)" fill="#72393B" width="138.218" height="1.284"/>
			</g>
		</g>
		<g>
			<g>
				
					<rect x="177.258" y="37.112" transform="matrix(0.8666 0.4991 -0.4991 0.8666 52.4425 -120.6257)" fill="#72393B" width="149.068" height="1.285"/>
			</g>
		</g>
		<g>
			<g>
				
					<rect x="198.179" y="61.432" transform="matrix(0.8664 0.4994 -0.4994 0.8664 62.3056 -108.7031)" fill="#1E3442" width="72.2" height="1.285"/>
			</g>
		</g>
		<g>
			<g>
				
					<rect x="180.611" y="53.407" transform="matrix(0.8663 0.4995 -0.4995 0.8663 55.9615 -101.0136)" fill="#1E3442" width="72.198" height="1.285"/>
			</g>
		</g>
	</g>
</g>
<rect x="223.916" y="58.523" transform="matrix(0.4509 0.8926 -0.8926 0.4509 183.0139 -163.711)" fill="#1E3442" width="1.284" height="16.721"/>
<rect x="214.941" y="51.448" transform="matrix(0.4898 0.8718 -0.8718 0.4898 169.4611 -153.1458)" fill="#1E3442" width="1.286" height="33.545"/>
<rect x="206.003" y="44.537" transform="matrix(0.4971 0.8677 -0.8677 0.4971 164.5838 -144.1418)" fill="#1E3442" width="1.285" height="50.762"/>
<rect x="197.079" y="37.639" transform="matrix(0.4888 0.8724 -0.8724 0.4888 163.5421 -135.881)" fill="#1E3442" width="1.285" height="67.949"/>
<rect x="188.117" y="30.519" transform="matrix(0.4959 0.8684 -0.8684 0.4959 158.5146 -127.1349)" fill="#1E3442" width="1.286" height="84.887"/>
<rect x="178.649" y="23.219" transform="matrix(0.4938 0.8695 -0.8695 0.4938 155.6507 -118.125)" fill="#1E3442" width="1.285" height="102.838"/>
<rect x="170.634" y="17.09" transform="matrix(0.4909 0.8712 -0.8712 0.4909 153.7845 -110.3089)" fill="#1E3442" width="1.285" height="118.677"/>
<polygon fill="#46728A" points="233.155,64.947 244.096,179.863 117.257,106.422 "/>
<g>
	<defs>
		<polygon id="SVGID_10_" points="233.07,64.947 244.011,179.863 117.174,106.422 		"/>
	</defs>
	<clipPath id="SVGID_20_">
		<use xlink:href="#SVGID_10_"  overflow="visible"/>
	</clipPath>
	<g clip-path="url(#SVGID_20_)">
		<g>
			<g>
				
					<rect x="173.397" y="74.902" transform="matrix(0.866 0.5 -0.5 0.866 67.946 -102.4893)" fill="#1E3442" width="103.649" height="1.285"/>
			</g>
		</g>
		<g>
			<g>
				
					<rect x="154.345" y="84.638" transform="matrix(0.866 0.5 -0.5 0.866 71.5435 -96.438)" fill="#1E3442" width="122.756" height="1.285"/>
			</g>
		</g>
		<g>
			<g>
				
					<rect x="40.073" y="92.762" transform="matrix(0.866 0.5 -0.5 0.866 73.9598 -89.2063)" fill="#1E3442" width="326.727" height="1.285"/>
			</g>
		</g>
		<g>
			<g>
				
					<rect x="27.717" y="110.057" transform="matrix(0.866 0.5 -0.5 0.866 83.0885 -88.6873)" fill="#1E3442" width="358.638" height="1.285"/>
			</g>
		</g>
		<g>
			<g>
				
					<rect x="5.923" y="125.393" transform="matrix(0.8651 0.5017 -0.5017 0.8651 91.1676 -86.8568)" fill="#1E3442" width="402.222" height="1.285"/>
			</g>
		</g>
		<g>
			<g>
				
					<rect x="-12.5" y="125.441" transform="matrix(0.8676 0.4972 -0.4972 0.8676 86.599 -73.1037)" fill="#1E3442" width="386.18" height="1.285"/>
			</g>
		</g>
		<g>
			<g>
				
					<rect x="-27.47" y="140.551" transform="matrix(0.8665 0.4991 -0.4991 0.8665 94.5948 -71.3822)" fill="#1E3442" width="416.494" height="1.285"/>
			</g>
		</g>
	</g>
</g>
<polygon fill="#9C9181" points="279.32,302.878 233.01,329.436 230.872,328.178 277.178,301.619 "/>
<polygon fill="#9C9181" points="279.32,288.007 233.01,314.564 230.872,313.305 277.178,286.747 "/>
<polygon fill="#BBBCBB" points="230.872,313.305 233.01,314.564 233.01,329.436 230.872,328.178 "/>
<polygon fill="#60371A" points="230.872,313.305 230.872,312.612 233.01,313.871 233.01,314.564 "/>
<polygon fill="#1E3442" points="279.32,277.169 233.01,313.871 230.289,312.279 276.595,275.575 "/>
<polygon fill="#DAD9D8" points="279.32,277.859 279.32,302.878 233.01,329.436 233.01,314.564 "/>
<polygon fill="#15242E" points="279.32,277.859 279.32,277.169 233.01,313.871 233.01,314.564 "/>
<polygon fill="#15242E" points="244.001,280.47 368.209,352.39 470.992,293.047 470.992,282.994 346.784,221.125 244.001,270.417 
	"/>
<polygon fill="#CECECD" points="230.872,328.226 277.179,354.784 325.065,327.137 325.065,324.769 278.759,300.583 "/>
<polygon fill="#EBECEC" points="230.872,325.858 277.179,352.414 325.065,324.769 278.759,298.21 "/>
<polygon fill="#CECECD" points="237.009,325.781 276.828,348.616 321.818,322.823 321.818,319.725 282,299.653 "/>
<polygon fill="#EBECEC" points="237.009,322.657 276.828,345.495 321.818,319.7 282,296.863 "/>
<polygon fill="#9C9181" points="230.872,328.226 277.179,354.784 279.32,353.524 233.011,326.967 "/>
<polygon fill="#9C9181" points="230.872,313.354 277.179,339.913 279.32,338.654 233.011,312.095 "/>
<polygon fill="#1E3442" points="229.663,312.661 276.554,339.555 279.32,337.961 232.43,311.071 "/>
<polygon fill="#1E3442" points="470.992,293.047 368.209,352.39 368.209,342.337 470.992,282.994 "/>
<polygon fill="#F0F0E7" points="244.001,270.417 368.209,342.337 470.992,282.994 470.992,142.844 346.784,111.633 244.001,130.267 
	"/>
<polygon fill="#E5E4DD" points="470.992,282.994 368.209,342.337 368.209,202.189 470.992,142.844 "/>
<polygon fill="#F6F6F6" points="235.067,130.109 369.053,207.694 479.928,143.679 479.928,134.439 235.067,120.869 "/>
<polygon fill="#C6C6C6" points="235.067,120.869 369.053,198.454 479.928,134.439 345.941,56.854 "/>
<polygon fill="#1E3442" points="241.6,121.232 368.435,194.675 473.394,134.076 473.394,132.103 241.6,119.257 "/>
<polygon fill="#E7E8E7" points="260.527,236.766 278.166,287.758 279.32,287.353 279.32,246.547 261.68,236.365 "/>
<polygon fill="#FDFEFF" points="260.527,277.571 278.166,287.758 278.166,246.953 260.527,236.766 "/>
<polygon fill="#DBDBDB" points="264.913,241.85 264.913,275.485 275.973,281.869 275.973,283.939 262.721,276.289 262.721,240.585 
	"/>
<polygon fill="#C0BBDC" points="264.834,241.568 276.051,248.043 276.051,282.152 264.834,275.676 "/>
<polygon fill="#CECECD" points="278.166,246.953 279.32,246.547 261.68,236.365 260.527,236.766 "/>
<polygon fill="#C4C4C4" points="276.051,281.869 276.051,283.939 262.721,276.289 264.913,275.485 "/>
<polygon fill="#E0E0E0" points="275.973,254.792 275.973,255.827 264.913,249.441 264.913,248.406 "/>
<polygon fill="#E0E0E0" points="270.842,245.27 270.047,244.811 270.047,278.443 270.842,278.911 "/>
<polygon fill="#FFFFFF" points="276.321,255.309 276.321,256.344 264.688,249.64 264.688,248.608 "/>
<polygon fill="#E0E0E0" points="275.973,273.932 275.973,274.967 264.913,268.581 264.913,267.547 "/>
<polygon fill="#FFFFFF" points="276.321,274.449 276.321,275.485 264.688,268.781 264.688,267.747 "/>
<polygon fill="#E0E0E0" points="275.973,265.071 275.973,266.105 264.913,259.721 264.913,258.685 "/>
<polygon fill="#FFFFFF" points="276.321,265.589 276.321,266.622 264.688,259.921 264.688,258.885 "/>
<polygon fill="#FFFFFF" points="270.615,245.042 269.822,244.583 269.822,278.644 270.615,279.109 "/>
<polygon fill="#D0D0D0" points="229.292,281.008 276.97,308.353 325.724,280.203 325.724,267.49 278.049,241.79 229.292,277.52 "/>
<polygon fill="#15242E" points="228.253,278.315 276.93,306.244 326.724,268.075 326.724,265.616 278.049,240.147 228.253,275.858 
	"/>
<polygon fill="#8D4640" points="228.253,275.858 276.93,303.785 326.724,265.616 278.049,237.688 "/>
<polygon fill="#E5E7E7" points="229.292,278.899 229.292,281.008 276.97,308.353 276.97,306.244 "/>
<polygon fill="#BBBCBB" points="279.32,338.654 277.179,339.913 277.179,354.784 279.32,353.524 "/>
<polygon fill="#E4E4E4" points="230.872,313.354 230.872,328.226 277.179,354.784 277.179,339.913 "/>
<polygon fill="#60371A" points="279.32,338.654 279.32,337.961 276.554,339.555 276.554,340.248 "/>
<polygon fill="#15242E" points="229.663,313.354 229.663,312.661 276.554,339.555 276.554,340.248 "/>
<polygon fill="#15242E" points="326.724,265.616 276.93,303.785 276.93,306.244 326.724,268.075 "/>
<g>
	<defs>
		<polygon id="SVGID_8_" points="228.253,275.858 276.93,303.785 326.724,265.616 278.049,237.688 		"/>
	</defs>
	<use xlink:href="#SVGID_8_"  overflow="visible" fill="#1E3442"/>
	<clipPath id="SVGID_22_">
		<use xlink:href="#SVGID_8_"  overflow="visible"/>
	</clipPath>
	<g clip-path="url(#SVGID_22_)">
		<g>
			<g>
				
					<rect x="272.97" y="230.632" transform="matrix(0.6143 0.7891 -0.7891 0.6143 342.7919 -99.9346)" fill="#15242E" width="1.285" height="140.042"/>
			</g>
		</g>
		<g>
			<g>
				
					<rect x="266.996" y="224.662" transform="matrix(0.6143 0.7891 -0.7891 0.6143 335.7755 -97.5232)" fill="#15242E" width="1.285" height="140.04"/>
			</g>
		</g>
		<g>
			<g>
				
					<rect x="260.589" y="218.662" transform="matrix(0.6147 0.7887 -0.7887 0.6147 328.3403 -94.8224)" fill="#15242E" width="1.285" height="140.042"/>
			</g>
		</g>
		<g>
			<g>
				
					<rect x="259.275" y="208.882" transform="matrix(0.6143 0.7891 -0.7891 0.6143 320.344 -97.5184)" fill="#15242E" width="1.285" height="140.038"/>
			</g>
		</g>
		<g>
			<g>
				
					<rect x="246.468" y="207.842" transform="matrix(0.6143 0.7891 -0.7891 0.6143 314.5831 -87.8129)" fill="#15242E" width="1.285" height="140.039"/>
			</g>
		</g>
		<g>
			<g>
				
					<rect x="235.936" y="205.052" transform="matrix(0.6147 0.7887 -0.7887 0.6147 308.106 -80.6217)" fill="#15242E" width="1.285" height="140.039"/>
			</g>
		</g>
	</g>
</g>
<polygon fill="#E7E8E7" points="330.856,277.571 348.496,308.27 349.65,307.866 349.65,287.353 332.01,277.169 "/>
<polygon fill="#FDFEFF" points="330.856,298.085 348.496,308.27 348.496,287.758 330.856,277.571 "/>
<polygon fill="#DBDBDB" points="335.244,282.657 335.244,295.997 346.304,302.381 346.304,304.451 333.049,296.8 333.049,281.39 "/>
<polygon fill="#C0BBDC" points="335.244,282.657 346.304,289.039 346.304,302.381 335.244,295.997 "/>
<polygon fill="#CECECD" points="348.496,287.758 349.65,287.353 332.01,277.169 330.856,277.571 "/>
<polygon fill="#C4C4C4" points="346.304,302.381 346.304,304.451 333.049,296.8 335.244,295.997 "/>
<polygon fill="#E0E0E0" points="346.304,295.596 346.304,296.632 335.244,290.248 335.244,289.212 "/>
<polygon fill="#E0E0E0" points="341.171,286.074 340.376,285.616 340.376,298.957 341.171,299.423 "/>
<polygon fill="#FFFFFF" points="346.651,296.114 346.651,297.148 335.02,290.447 335.02,289.414 "/>
<polygon fill="#FFFFFF" points="340.947,285.847 340.151,285.387 340.151,299.157 340.947,299.622 "/>
<polygon fill="#E7E8E7" points="330.856,187.259 348.496,238.245 349.65,237.84 349.65,197.037 332.01,186.854 "/>
<polygon fill="#FDFEFF" points="330.856,228.06 348.496,238.245 348.496,197.438 330.856,187.259 "/>
<polygon fill="#DBDBDB" points="335.244,192.338 335.244,225.971 346.304,232.358 346.304,234.428 333.049,226.775 333.049,191.073 
	"/>
<polygon fill="#C0BBDC" points="335.164,192.059 346.382,198.532 346.382,232.641 335.164,226.165 "/>
<polygon fill="#CECECD" points="348.496,197.438 349.65,197.037 332.01,186.854 330.856,187.259 "/>
<polygon fill="#C4C4C4" points="346.382,232.358 346.382,234.428 333.049,226.775 335.244,225.971 "/>
<polygon fill="#E0E0E0" points="346.304,205.28 346.304,206.314 335.244,199.931 335.244,198.895 "/>
<polygon fill="#E0E0E0" points="341.171,195.76 340.376,195.3 340.376,228.932 341.171,229.398 "/>
<polygon fill="#FFFFFF" points="346.651,205.797 346.651,206.833 335.02,200.128 335.02,199.098 "/>
<polygon fill="#E0E0E0" points="346.304,224.418 346.304,225.457 335.244,219.069 335.244,218.034 "/>
<polygon fill="#FFFFFF" points="346.651,224.938 346.651,225.971 335.02,219.271 335.02,218.235 "/>
<polygon fill="#E0E0E0" points="346.304,215.56 346.304,216.596 335.244,210.208 335.244,209.172 "/>
<polygon fill="#FFFFFF" points="346.651,216.076 346.651,217.112 335.02,210.41 335.02,209.375 "/>
<polygon fill="#FFFFFF" points="340.947,195.529 340.151,195.071 340.151,229.132 340.947,229.598 "/>
<polygon fill="#E7E8E7" points="260.527,146.452 278.166,197.438 279.32,197.037 279.32,156.233 261.68,146.048 "/>
<polygon fill="#FDFEFF" points="260.527,187.259 278.166,197.438 278.166,156.637 260.527,146.452 "/>
<polygon fill="#DBDBDB" points="264.913,151.538 264.913,185.169 275.973,191.554 275.973,193.622 262.721,185.974 262.721,150.269 
	"/>
<polygon fill="#C0BBDC" points="264.834,151.253 276.051,157.726 276.051,191.838 264.834,185.359 "/>
<polygon fill="#CECECD" points="278.166,156.637 279.32,156.233 261.68,146.048 260.527,146.452 "/>
<polygon fill="#C4C4C4" points="276.051,191.554 276.051,193.622 262.721,185.974 264.913,185.169 "/>
<polygon fill="#E0E0E0" points="275.973,164.472 275.973,165.51 264.913,159.127 264.913,158.089 "/>
<polygon fill="#E0E0E0" points="270.842,154.956 270.047,154.498 270.047,188.128 270.842,188.593 "/>
<polygon fill="#FFFFFF" points="276.321,164.992 276.321,166.026 264.688,159.326 264.688,158.29 "/>
<polygon fill="#E0E0E0" points="275.973,183.616 275.973,184.649 264.913,178.266 264.913,177.23 "/>
<polygon fill="#FFFFFF" points="276.321,184.133 276.321,185.169 264.688,178.466 264.688,177.431 "/>
<polygon fill="#E0E0E0" points="275.973,174.753 275.973,175.79 264.913,169.406 264.913,168.371 "/>
<polygon fill="#FFFFFF" points="276.321,175.272 276.321,176.308 264.688,169.604 264.688,168.57 "/>
<polygon fill="#FFFFFF" points="270.615,154.724 269.822,154.266 269.822,188.328 270.615,188.794 "/>
<polygon fill="#E7E8E7" points="450.661,239.162 433.021,290.152 431.865,289.748 431.865,248.944 449.507,238.76 "/>
<polygon fill="#FDFEFF" points="450.661,279.968 433.021,290.152 433.021,249.346 450.661,239.162 "/>
<polygon fill="#DBDBDB" points="446.272,244.247 446.272,277.879 435.213,284.265 435.213,286.333 448.465,278.683 448.465,242.981 
	"/>
<polygon fill="#C0BBDC" points="446.352,243.965 435.135,250.441 435.135,284.548 446.352,278.07 "/>
<polygon fill="#CECECD" points="433.021,249.346 431.865,248.944 449.507,238.76 450.661,239.162 "/>
<polygon fill="#C4C4C4" points="435.135,284.265 435.135,286.333 448.465,278.683 446.272,277.879 "/>
<polygon fill="#E0E0E0" points="435.213,257.188 435.213,258.223 446.272,251.836 446.272,250.801 "/>
<polygon fill="#E0E0E0" points="440.345,247.667 441.142,247.207 441.142,280.839 440.345,281.305 "/>
<polygon fill="#FFFFFF" points="434.863,257.704 434.863,258.739 446.496,252.036 446.496,251.001 "/>
<polygon fill="#E0E0E0" points="435.213,276.325 435.213,277.362 446.272,270.978 446.272,269.941 "/>
<polygon fill="#FFFFFF" points="434.863,276.844 434.863,277.879 446.496,271.176 446.496,270.143 "/>
<polygon fill="#E0E0E0" points="435.213,267.466 435.213,268.501 446.272,262.118 446.272,261.083 "/>
<polygon fill="#FFFFFF" points="434.863,267.983 434.863,269.019 446.496,262.317 446.496,261.282 "/>
<polygon fill="#FFFFFF" points="440.568,247.436 441.365,246.979 441.365,281.041 440.568,281.506 "/>
<polygon fill="#E7E8E7" points="410.672,260.64 393.033,311.625 391.879,311.225 391.879,270.42 409.518,260.236 "/>
<polygon fill="#FDFEFF" points="410.672,301.443 393.033,311.625 393.033,270.821 410.672,260.64 "/>
<polygon fill="#DBDBDB" points="406.283,265.722 406.283,299.354 395.226,305.739 395.226,307.808 408.477,300.158 408.477,264.456 
	"/>
<polygon fill="#C0BBDC" points="406.362,265.441 395.147,271.913 395.147,306.021 406.362,299.548 "/>
<polygon fill="#CECECD" points="393.033,270.821 391.879,270.42 409.518,260.236 410.672,260.64 "/>
<polygon fill="#C4C4C4" points="395.147,305.739 395.147,307.808 408.477,300.158 406.283,299.354 "/>
<polygon fill="#E0E0E0" points="395.226,278.662 395.226,279.697 406.283,273.312 406.283,272.276 "/>
<polygon fill="#E0E0E0" points="400.357,269.141 401.151,268.682 401.151,302.315 400.357,302.781 "/>
<polygon fill="#FFFFFF" points="394.877,279.179 394.877,280.215 406.508,273.511 406.508,272.475 "/>
<polygon fill="#E0E0E0" points="395.226,297.8 395.226,298.836 406.283,292.452 406.283,291.416 "/>
<polygon fill="#FFFFFF" points="394.877,298.321 394.877,299.354 406.508,292.651 406.508,291.616 "/>
<polygon fill="#E0E0E0" points="395.226,288.941 395.226,289.977 406.283,283.593 406.283,282.558 "/>
<polygon fill="#FFFFFF" points="394.877,289.459 394.877,290.496 406.508,283.793 406.508,282.758 "/>
<polygon fill="#FFFFFF" points="400.583,268.911 401.376,268.454 401.376,302.516 400.583,302.981 "/>
<polygon fill="#E7E8E7" points="456.476,162.037 425.367,220.809 424.215,220.404 424.215,179.6 455.323,161.634 "/>
<polygon fill="#FDFEFF" points="456.476,202.84 425.367,220.809 425.367,180.004 456.476,162.037 "/>
<polygon fill="#DBDBDB" points="452.089,167.12 452.089,200.754 427.562,214.919 427.562,216.99 454.281,201.557 454.281,165.856 
	"/>
<polygon fill="#C0BBDC" points="452.168,166.84 427.482,181.094 427.482,215.204 452.168,200.943 "/>
<polygon fill="#CECECD" points="425.367,180.004 424.215,179.6 455.323,161.634 456.476,162.037 "/>
<polygon fill="#C4C4C4" points="427.482,214.919 427.482,216.99 454.281,201.557 452.089,200.754 "/>
<polygon fill="#E7E8E7" points="415.893,185.525 384.781,244.295 383.629,243.893 383.629,203.086 414.737,185.121 "/>
<polygon fill="#FDFEFF" points="415.893,226.327 384.781,244.295 384.781,203.486 415.893,185.525 "/>
<polygon fill="#DBDBDB" points="411.503,190.606 411.503,224.239 386.975,238.406 386.975,240.477 413.698,225.044 413.698,189.339 
	"/>
<polygon fill="#C0BBDC" points="411.582,190.325 386.896,204.579 386.896,238.688 411.582,224.429 "/>
<polygon fill="#CECECD" points="384.781,203.486 383.629,203.086 414.737,185.121 415.893,185.525 "/>
<polygon fill="#C4C4C4" points="386.896,238.406 386.896,240.477 413.698,225.044 411.503,224.239 "/>
<polygon fill="#E0E0E0" points="479.928,134.439 369.053,198.454 369.053,207.694 479.928,143.679 "/>
<polygon fill="#15242E" points="346.56,58.658 473.394,132.103 357.497,77.782 "/>
<polygon fill="#15242E" points="241.6,119.257 346.56,58.658 357.497,77.782 "/>
<polygon fill="#1E3442" points="473.394,132.103 368.435,192.7 368.435,194.675 473.394,134.076 "/>
<polygon fill="#C0B6B2" points="289.516,301.11 295.076,297.899 306.774,304.652 306.774,311.071 "/>
<polygon fill="#756764" points="306.774,291.145 306.774,304.652 295.076,297.899 "/>
<polygon fill="#2F4D5F" points="473.394,132.103 368.435,192.7 357.497,77.782 "/>
<g>
	<defs>
		<polygon id="SVGID_6_" points="473.394,131.866 368.435,192.467 357.497,77.547 		"/>
	</defs>
	<clipPath id="SVGID_24_">
		<use xlink:href="#SVGID_6_"  overflow="visible"/>
	</clipPath>
	<g clip-path="url(#SVGID_24_)">
		<g>
			<g>
				
					<rect x="372.565" y="26.428" transform="matrix(0.4993 0.8664 -0.8664 0.4993 260.2578 -280.9346)" fill="#1E3442" width="1.285" height="116.586"/>
			</g>
		</g>
		<g>
			<g>
				
					<rect x="376.946" y="32.826" transform="matrix(0.4993 0.8664 -0.8664 0.4993 275.7351 -277.054)" fill="#1E3442" width="1.285" height="134.454"/>
			</g>
		</g>
		<g>
			<g>
				
					<rect x="393.812" y="26.039" transform="matrix(0.5004 0.8658 -0.8658 0.5004 290.1859 -287.7865)" fill="#1E3442" width="1.284" height="163.014"/>
			</g>
		</g>
		<g>
			<g>
				
					<rect x="396.717" y="67.658" transform="matrix(0.4999 0.8661 -0.8661 0.4999 305.1469 -282.6929)" fill="#1E3442" width="1.285" height="110.448"/>
			</g>
		</g>
		<g>
			<g>
				
					<rect x="413.657" y="59.163" transform="matrix(0.4999 0.8661 -0.8661 0.4999 320.1576 -293.5885)" fill="#1E3442" width="1.285" height="142.539"/>
			</g>
		</g>
		<g>
			<g>
				
					<rect x="429.104" y="24.743" transform="matrix(0.4982 0.8671 -0.8671 0.4982 335.344 -303.3488)" fill="#1E3442" width="1.284" height="226.596"/>
			</g>
		</g>
		<g>
			<g>
				
					<rect x="429.767" y="29.332" transform="matrix(0.5052 0.863 -0.863 0.5052 345.2346 -295.6125)" fill="#1E3442" width="1.285" height="247.857"/>
			</g>
		</g>
	</g>
</g>
<g>
	<defs>
		<polygon id="SVGID_4_" points="357.502,77.88 346.56,58.658 473.394,132.103 		"/>
	</defs>
	<clipPath id="SVGID_26_">
		<use xlink:href="#SVGID_4_"  overflow="visible"/>
	</clipPath>
	<g clip-path="url(#SVGID_26_)">
		<g>
			<g>
				
					<rect x="339.423" y="82.2" transform="matrix(0.8664 0.4994 -0.4994 0.8664 91.5621 -176.4768)" fill="#1E3442" width="72.197" height="1.285"/>
			</g>
		</g>
		<g>
			<g>
				
					<rect x="330.568" y="83.22" transform="matrix(0.8668 0.4986 -0.4986 0.8668 92.3624 -178.1066)" fill="#1E3442" width="98.108" height="1.284"/>
			</g>
		</g>
		<g>
			<g>
				
					<rect x="325.577" y="84.823" transform="matrix(0.8657 0.5006 -0.5006 0.8657 94.6703 -181.9106)" fill="#1E3442" width="121.505" height="1.284"/>
			</g>
		</g>
		<g>
			<g>
				
					<rect x="336.072" y="90.965" transform="matrix(0.8648 0.5021 -0.5021 0.8648 100.03 -188.3329)" fill="#1E3442" width="127.425" height="1.286"/>
			</g>
		</g>
		<g>
			<g>
				
					<rect x="309.639" y="67.053" transform="matrix(0.866 0.5 -0.5 0.866 83.1651 -174.9849)" fill="#72393B" width="116.937" height="1.285"/>
			</g>
		</g>
		<g>
			<g>
				
					<rect x="302.642" y="60.864" transform="matrix(0.866 0.5 -0.5 0.866 79.9034 -175.1764)" fill="#72393B" width="128.358" height="1.285"/>
			</g>
		</g>
		<g>
			<g>
				
					<rect x="294.842" y="55.375" transform="matrix(0.8651 0.5017 -0.5017 0.8651 77.6013 -176.4634)" fill="#72393B" width="143.956" height="1.285"/>
			</g>
		</g>
		<g>
			<g>
				
					<rect x="307.174" y="55.359" transform="matrix(0.8676 0.4972 -0.4972 0.8676 77.658 -179.6856)" fill="#72393B" width="138.219" height="1.285"/>
			</g>
		</g>
		<g>
			<g>
				
					<rect x="301.684" y="49.949" transform="matrix(0.8665 0.4991 -0.4991 0.8665 75.4589 -181.0189)" fill="#72393B" width="149.068" height="1.285"/>
			</g>
		</g>
		<g>
			<g>
				
					<rect x="322.608" y="74.268" transform="matrix(0.8664 0.4994 -0.4994 0.8664 85.3504 -169.1354)" fill="#1E3442" width="72.197" height="1.285"/>
			</g>
		</g>
		<g>
			<g>
				
					<rect x="305.035" y="66.243" transform="matrix(0.8664 0.4994 -0.4994 0.8664 78.9897 -161.427)" fill="#1E3442" width="72.2" height="1.285"/>
			</g>
		</g>
	</g>
</g>
<rect x="348.342" y="71.359" transform="matrix(0.4515 0.8923 -0.8923 0.4515 262.5637 -267.6661)" fill="#1E3442" width="1.285" height="16.722"/>
<rect x="339.368" y="64.287" transform="matrix(0.4898 0.8718 -0.8718 0.4898 244.1329 -255.0742)" fill="#1E3442" width="1.286" height="33.545"/>
<rect x="330.429" y="57.374" transform="matrix(0.4971 0.8677 -0.8677 0.4971 238.2922 -245.6495)" fill="#1E3442" width="1.285" height="50.759"/>
<rect x="321.505" y="50.475" transform="matrix(0.4887 0.8725 -0.8725 0.4887 238.4026 -237.8821)" fill="#1E3442" width="1.285" height="67.949"/>
<rect x="312.544" y="43.357" transform="matrix(0.4955 0.8686 -0.8686 0.4955 232.5335 -228.7525)" fill="#1E3442" width="1.285" height="84.884"/>
<rect x="303.078" y="36.057" transform="matrix(0.4927 0.8702 -0.8702 0.4927 230.1992 -219.9209)" fill="#1E3442" width="1.284" height="102.835"/>
<rect x="295.06" y="29.925" transform="matrix(0.4915 0.8709 -0.8709 0.4915 228.1137 -212.1329)" fill="#1E3442" width="1.286" height="118.677"/>
<polygon fill="#46728A" points="357.582,77.782 368.522,192.7 241.686,119.257 "/>
<g>
	<defs>
		<polygon id="SVGID_2_" points="357.497,77.782 368.435,192.7 241.6,119.257 		"/>
	</defs>
	<clipPath id="SVGID_28_">
		<use xlink:href="#SVGID_2_"  overflow="visible"/>
	</clipPath>
	<g clip-path="url(#SVGID_28_)">
		<g>
			<g>
				
					<rect x="297.825" y="87.739" transform="matrix(0.866 0.5 -0.5 0.866 91.0382 -162.9879)" fill="#1E3442" width="103.652" height="1.285"/>
			</g>
		</g>
		<g>
			<g>
				
					<rect x="278.773" y="97.472" transform="matrix(0.866 0.5 -0.5 0.866 94.626 -156.9283)" fill="#1E3442" width="122.758" height="1.285"/>
			</g>
		</g>
		<g>
			<g>
				
					<rect x="164.5" y="105.597" transform="matrix(0.866 0.5 -0.5 0.866 97.0444 -149.6982)" fill="#1E3442" width="326.729" height="1.285"/>
			</g>
		</g>
		<g>
			<g>
				
					<rect x="152.144" y="122.892" transform="matrix(0.866 0.5 -0.5 0.866 106.1743 -149.18)" fill="#1E3442" width="358.637" height="1.285"/>
			</g>
		</g>
		<g>
			<g>
				
					<rect x="130.351" y="138.228" transform="matrix(0.8651 0.5017 -0.5017 0.8651 114.3993 -147.5478)" fill="#1E3442" width="402.217" height="1.286"/>
			</g>
		</g>
		<g>
			<g>
				
					<rect x="111.927" y="138.276" transform="matrix(0.8676 0.4972 -0.4972 0.8676 109.454 -133.275)" fill="#1E3442" width="386.183" height="1.285"/>
			</g>
		</g>
		<g>
			<g>
				
					<rect x="96.958" y="153.387" transform="matrix(0.8665 0.4991 -0.4991 0.8665 117.6079 -131.7715)" fill="#1E3442" width="416.493" height="1.285"/>
			</g>
		</g>
	</g>
</g>
<rect x="195.45" y="33.354" transform="matrix(0.4777 0.8785 -0.8785 0.4777 144.6077 -147.1935)" fill="#391318" width="1.284" height="29.327"/>
<rect x="168.564" y="51.501" transform="matrix(0.9258 0.3781 -0.3781 0.9258 32.7971 -62.7429)" fill="#6E3638" width="15.21" height="1.285"/>
<rect x="195.45" y="39.638" transform="matrix(0.4774 0.8787 -0.8787 0.4774 150.1999 -143.9282)" fill="#391318" width="1.285" height="29.326"/>
<rect x="168.564" y="57.784" transform="matrix(0.9258 0.3781 -0.3781 0.9258 35.1655 -62.268)" fill="#6E3638" width="15.21" height="1.286"/>
</svg>
