<?xml version="1.0" encoding="utf-8"?>
<!-- Generator: Adobe Illustrator 15.1.0, SVG Export Plug-In  -->
<!DOCTYPE svg PUBLIC "-//W3C//DTD SVG 1.1//EN" "http://www.w3.org/Graphics/SVG/1.1/DTD/svg11.dtd" [
	<!ENTITY ns_flows "http://ns.adobe.com/Flows/1.0/">
]>
<svg version="1.1"
	 xmlns="http://www.w3.org/2000/svg" xmlns:xlink="http://www.w3.org/1999/xlink" xmlns:a="http://ns.adobe.com/AdobeSVGViewerExtensions/3.0/"
	 x="0px" y="0px" width="567px" height="623px" viewBox="-31.652 -75.318 567 623"
	 overflow="visible" enable-background="new -31.652 -75.318 567 623" xml:space="preserve">
<defs>
</defs>
<polygon fill="#7D7772" points="490.152,140.325 565.369,184.47 262.873,358.358 0,206.215 302.629,32.011 "/>
<polygon fill="#7F8282" points="329.314,233.653 291.457,255.399 109.006,150.243 109.006,148.45 "/>
<polygon fill="#CCC5AA" points="329.314,231.861 291.457,253.606 109.006,148.45 146.67,126.706 "/>
<g enable-background="new    ">
	<defs>
		<polygon id="SVGID_8_" enable-background="new    " points="124.344,174.837 206.115,114.684 423.947,141.423 342.174,201.576 		
			"/>
	</defs>
	<clipPath id="SVGID_10_">
		<use xlink:href="#SVGID_8_"  overflow="visible"/>
	</clipPath>
	<g clip-path="url(#SVGID_10_)">
		<g>
			<g>
				<polyline fill="#2D2222" points="240.434,183.53 235.07,187.477 238.033,188.792 243.252,188.49 248.619,184.542 
					243.396,184.847 240.434,183.53 				"/>
			</g>
		</g>
		<g>
			<g>
				<polyline fill="#2D2222" points="161.021,148.409 155.654,152.357 158.615,153.673 163.838,153.369 169.203,149.423 
					163.98,149.728 161.021,148.409 				"/>
			</g>
		</g>
		<g>
			<g>
				<polyline fill="#2D2222" points="310.109,127.449 178.443,135.039 175.199,137.426 178.672,138.927 164.311,149.492 
					167.682,149.295 180.625,139.774 258.734,173.569 243.727,184.61 247.098,184.414 262.027,173.432 390.502,166.024 
					393.746,163.639 310.109,127.449 				"/>
			</g>
		</g>
	</g>
</g>
<polygon fill="#A9A9A9" points="159.211,148.049 146.67,155.29 159.211,162.657 171.893,155.353 "/>
<g enable-background="new    ">
	<defs>
		<polygon id="SVGID_6_" enable-background="new    " points="159.018,176.931 189.166,154.755 225.381,159.2 195.234,181.377 		"/>
	</defs>
	<clipPath id="SVGID_12_">
		<use xlink:href="#SVGID_6_"  overflow="visible"/>
	</clipPath>
	<g clip-path="url(#SVGID_12_)">
		<g>
			<g>
				<path fill="#2D2222" d="M223.227,158.936l-17.965,1.076l-2.986,2.197l-15.418,1.087l-5.35,3.935l-0.918-0.782l-0.836,0.161
					l-2.963-0.51l-3.312,0.292l-0.1-0.003l-0.027,0.013l-0.021,0.001l0.006,0.004c-0.055,0.032-0.031,0.101,0.066,0.168
					c0.088,0.057,0.203,0.099,0.303,0.111c0.027,0.003,0.051,0.004,0.076,0.003l0.016,0.009l2.588-0.313l2.357,0.416l-1.107,0.212
					l2.324,0.86l-0.078,0.556l-1.037,0.764c0,0-5.535,1.017-6.322,1.995c-0.512,0.636-0.088,1.066,0.707,1.164
					c0.432,0.053,0.971,0.008,1.531-0.155l-3.92,2.883l8.51,3.994l-0.025,0.02l1.768,0.549l17.961-1.074l25.938-19.079l-3.287,0.197
					L223.227,158.936"/>
			</g>
		</g>
	</g>
</g>
<g enable-background="new    ">
	<defs>
		<polygon id="SVGID_4_" enable-background="new    " points="219.49,209.376 249.637,187.199 285.852,191.646 255.705,213.821 		
			"/>
	</defs>
	<clipPath id="SVGID_14_">
		<use xlink:href="#SVGID_4_"  overflow="visible"/>
	</clipPath>
	<g clip-path="url(#SVGID_14_)">
		<g>
			<g>
				<path fill="#2D2222" d="M283.697,191.381l-17.961,1.073l-2.99,2.2l-15.414,1.084l-5.35,3.935l-0.916-0.782l-0.838,0.161
					l-2.967-0.508l-3.307,0.29l-0.102-0.003l-0.031,0.016l-0.02,0.001l0.008,0.001c-0.055,0.032-0.031,0.1,0.066,0.167
					c0.084,0.059,0.199,0.1,0.299,0.111c0.027,0.004,0.055,0.005,0.08,0.004l0.012,0.011l2.592-0.315l2.357,0.416l-1.107,0.212
					l2.324,0.86l-0.078,0.556l-1.037,0.764c0,0-5.535,1.017-6.322,1.995c-0.51,0.635-0.088,1.066,0.709,1.164
					c0.43,0.053,0.969,0.008,1.529-0.155l-3.922,2.885l8.512,3.992l-0.025,0.02l1.764,0.552l17.965-1.077l25.939-19.08l-3.287,0.198
					L283.697,191.381"/>
			</g>
		</g>
	</g>
</g>
<polygon fill="#7F8282" points="490.152,140.325 389.615,198.373 194.848,85.923 295.697,28.057 "/>
<polygon fill="#CCC5AA" points="490.152,138.273 389.615,196.319 194.848,83.87 295.697,26.003 "/>
<polygon fill="#A9A9A9" points="279.398,218.323 266.859,225.564 279.398,232.932 292.078,225.627 "/>
<polygon fill="#D2D3D3" points="274.918,212.847 274.918,225.604 279.412,228.243 279.412,215.486 "/>
<polygon fill="#A9A9A9" points="279.412,210.253 274.918,212.847 279.412,215.486 283.955,212.869 "/>
<polygon fill="#EEEEED" points="283.955,225.627 283.955,212.869 279.412,215.486 279.412,228.243 "/>
<polygon fill="#BFC0BF" points="276.52,173.77 276.52,213.02 279.42,214.724 279.42,175.474 "/>
<polygon fill="#DADAD9" points="282.354,213.034 282.354,173.782 279.42,175.474 279.42,214.724 "/>
<polygon fill="#D2D3D3" points="154.73,142.573 154.73,155.331 159.225,157.97 159.225,145.212 "/>
<polygon fill="#A9A9A9" points="159.225,139.978 154.73,142.573 159.225,145.212 163.768,142.595 "/>
<polygon fill="#EEEEED" points="163.768,155.353 163.768,142.595 159.225,145.212 159.225,157.97 "/>
<polygon fill="#BFC0BF" points="156.332,103.494 156.332,142.745 159.234,144.449 159.234,105.198 "/>
<polygon fill="#DADAD9" points="162.166,142.761 162.166,103.509 159.234,105.198 159.234,144.449 "/>
<polygon fill="#FFFFFF" points="465.041,125.854 389.518,169.402 263.963,96.805 339.393,53.257 "/>
<polygon fill="#CCC5AA" points="465.041,72.597 389.518,116.146 263.963,43.548 339.393,0 "/>
<polygon fill="#BCB59B" points="273.268,45.712 269.205,43.362 339.693,2.636 459.434,71.817 455.363,74.164 339.693,7.333 "/>
<polygon fill="#F0EDEB" points="273.268,45.712 339.693,7.333 455.363,74.164 388.852,112.544 "/>
<polygon fill="#E9E3C8" points="263.963,43.548 263.963,96.805 389.518,169.402 389.518,116.146 "/>
<polygon fill="#F5F0D4" points="465.041,125.854 465.041,72.597 389.518,116.146 389.518,169.402 "/>
<polygon fill="#B8A6A0" points="319.025,113.811 319.027,84.667 321.189,85.923 321.186,113.811 381.992,148.916 381.994,150.167 
	"/>
<polygon fill="#D3D0E1" points="321.189,85.923 381.896,121.18 381.992,148.916 321.186,113.811 "/>
<line fill="#FFFFFF" x1="364.6" y1="125.828" x2="389.518" y2="111.332"/>
<polygon fill="#C7B8B4" points="278.066,104.275 278.525,60.488 280.805,61.844 280.348,105.595 "/>
<polygon fill="#EAE8F0" points="303.305,118.868 280.348,102.995 280.805,61.844 303.801,75.514 "/>
<polygon fill="#D3C8C5" points="278.066,104.275 280.348,102.995 303.318,116.366 303.305,118.868 "/>
<polygon fill="#D3D0E1" points="303.318,113.273 283.18,101.485 283.414,66.399 303.77,78.212 "/>
<polygon fill="#FFFFFF" points="303.547,95.366 301.711,94.592 301.711,98.556 303.494,99.508 "/>
<polygon fill="#D9ECD5" points="296.221,88.591 290.068,85.79 289.52,89.624 295.121,91.604 "/>
<polygon fill="#241C1D" points="296.104,88.634 294.178,83.356 290.135,85.896 290.002,85.684 294.307,82.98 296.338,88.548 "/>
<polygon fill="#737373" points="451.082,86.996 452.826,85.979 452.826,107.781 437.59,116.807 437.59,114.719 451.082,106.711 "/>
<polygon fill="#D4D4D4" points="449.91,87.679 451.082,86.996 451.082,106.711 437.59,114.719 437.59,113.019 449.91,105.694 "/>
<polygon fill="#ABABAB" points="449.553,87.886 449.91,87.679 449.91,105.694 437.59,113.019 437.59,112.555 449.553,105.438 "/>
<polygon fill="#B9C8D9" points="449.553,87.886 449.553,105.438 437.59,112.555 437.59,95.004 "/>
<polyline fill="#D4D4D4" points="451.418,96.517 437.926,104.524 437.926,102.823 450.246,95.499 "/>
<polyline fill="#ABABAB" points="449.91,95.695 437.926,102.823 437.926,102.36 449.889,95.243 "/>
<polyline fill="#D4D4D4" points="451.082,91.211 437.59,99.218 437.59,97.518 449.91,90.193 "/>
<polyline fill="#ABABAB" points="449.91,90.193 437.59,97.518 437.59,97.055 449.553,89.938 "/>
<polyline fill="#D4D4D4" points="451.082,101.933 437.59,109.94 437.59,108.24 449.91,100.915 "/>
<polyline fill="#ABABAB" points="449.91,100.915 437.59,108.24 437.59,107.777 449.553,100.659 "/>
<polyline fill="#D4D4D4" points="447.082,89.214 447.107,108.923 445.637,108.066 445.613,90.193 "/>
<polyline fill="#ABABAB" points="445.613,90.193 445.637,108.066 445.236,107.833 445.215,90.415 "/>
<polyline fill="#D4D4D4" points="442.492,92.132 442.516,111.884 441.045,111.028 441.023,92.989 "/>
<polyline fill="#ABABAB" points="441.023,92.989 441.045,111.028 440.646,110.798 440.623,93.241 "/>
<polygon fill="#383838" points="452.826,107.781 451.082,106.711 451.082,86.996 452.826,85.979 "/>
<polygon fill="#D4D4D4" points="439.885,106.902 447.527,102.302 447.365,104.097 439.885,108.603 "/>
<polygon fill="#D4D4D4" points="439.84,103.409 447.318,98.906 447.527,97.083 439.625,101.833 "/>
<polygon fill="#D4D4D4" points="447.527,91.58 439.625,96.332 439.537,98.084 447.781,93.133 "/>
<polygon fill="#ADADAD" points="422.479,63.179 422.479,58.225 414.805,62.577 414.805,67.53 "/>
<polygon fill="#8F8F8F" points="407.297,58.225 407.297,63.179 414.805,67.53 414.805,62.577 "/>
<polygon fill="#BDBDBD" points="422.479,58.225 414.889,55.095 414.805,62.577 "/>
<polygon fill="#ABABAB" points="407.297,58.225 414.889,55.095 414.805,62.577 "/>
<polygon fill="#9E9E9E" points="414.818,53.907 414.889,55.095 407.297,58.225 "/>
<polygon fill="#545454" points="422.479,58.225 414.889,55.095 414.818,53.907 "/>
<polygon fill="#ADADAD" points="431.826,68.779 431.826,63.827 424.154,68.177 424.154,73.132 "/>
<polygon fill="#8F8F8F" points="416.645,63.827 416.645,68.779 424.154,73.132 424.154,68.177 "/>
<polygon fill="#BDBDBD" points="431.826,63.827 424.236,60.694 424.154,68.177 "/>
<polygon fill="#ABABAB" points="416.645,63.827 424.236,60.694 424.154,68.177 "/>
<polygon fill="#9E9E9E" points="424.166,59.507 424.236,60.694 416.645,63.827 "/>
<polygon fill="#545454" points="431.826,63.827 424.236,60.694 424.166,59.507 "/>
<polygon fill="#B0B0A6" points="430.113,80.822 440.125,75.042 440.125,70.254 430.113,76.037 "/>
<polygon fill="#E2E1DC" points="422.527,76.599 430.113,80.822 430.113,76.037 422.527,71.812 "/>
<polygon fill="#958581" points="422.523,71.812 430.109,76.037 440.129,70.25 432.545,66.026 "/>
<ellipse fill="#AFAFAB" cx="432.624" cy="70.254" rx="4.772" ry="1.987"/>
<ellipse fill="#E2E1DC" cx="432.626" cy="70.254" rx="1.2" ry="0.499"/>
<rect x="427.852" y="70.129" fill="#E2E1DC" width="9.545" height="0.25"/>
<rect x="432.281" y="67.024" transform="matrix(0.5145 0.8575 -0.8575 0.5145 270.1195 -336.7095)" fill="#E2E1DC" width="0.251" height="6.325"/>
<rect x="429.55" y="69.915" transform="matrix(0.8162 0.5777 -0.5777 0.8162 119.9584 -237.0556)" fill="#E2E1DC" width="6.133" height="0.25"/>
<rect x="435.098" y="72.243" transform="matrix(0.4674 0.8841 -0.8841 0.4674 299.5765 -343.947)" fill="#E2E1DC" width="0.251" height="8.793"/>
<polygon fill="#A9A9A9" points="490.152,138.273 490.152,140.325 389.615,198.373 389.615,196.319 "/>
<polygon fill="#A9A9A9" points="329.314,231.861 329.314,233.653 291.457,255.399 291.457,253.606 "/>
<polygon fill="#7F8282" points="228.059,291.417 190.201,313.165 7.75,208.008 7.75,206.215 "/>
<polygon fill="#BFC0BF" points="228.059,289.625 190.201,311.373 7.75,206.215 45.416,184.47 "/>
<polygon fill="#91AC52" points="20.475,206.653 46.621,191.858 214.98,288.892 214.98,290.546 "/>
<polygon fill="#91AC52" points="20.475,208.308 46.621,193.512 214.98,290.546 189.008,305.341 "/>
<polygon fill="#91AC52" points="20.475,208.308 20.475,206.653 46.621,191.858 46.621,193.512 "/>
<polygon fill="#BA3732" points="241.238,153.037 256.828,143.95 243.615,215.628 241.238,214.707 "/>
<polygon fill="#E9504B" points="243.615,153.958 259.205,144.87 259.205,206.54 243.615,215.628 "/>
<polygon fill="#FFFFFF" points="245.719,167.046 256.828,160.569 256.828,204.518 245.719,210.993 "/>
<polygon fill="#BA3732" points="187.025,121.698 202.613,112.611 189.402,184.288 187.025,183.368 "/>
<polygon fill="#E9504B" points="189.402,122.619 204.99,113.532 204.99,175.201 189.402,184.288 "/>
<polygon fill="#FFFFFF" points="191.504,135.707 202.613,129.231 202.613,173.179 191.504,179.654 "/>
<g enable-background="new    ">
	<defs>
		<polygon id="SVGID_2_" enable-background="new    " points="25.057,213.459 70.807,179.805 92.357,182.45 46.607,216.104 		"/>
	</defs>
	<clipPath id="SVGID_16_">
		<use xlink:href="#SVGID_2_"  overflow="visible"/>
	</clipPath>
	<g clip-path="url(#SVGID_16_)">
		<g>
			<g>
				<polyline fill="#2D2222" points="92.357,182.45 64.977,184.093 25.057,213.459 52.805,211.546 92.357,182.45 				"/>
			</g>
		</g>
	</g>
</g>
<path fill="#C2C2C1" d="M129.047,248.851c-0.291,0.22-0.568,0.502-0.787,0.756c-0.6-0.094-1.238-0.183-1.85-0.237
	c-1.117-0.096-2.312-0.129-2.486-0.136c-0.006-0.002-0.02-0.004-0.02-0.004l0.008,0.006l-0.057-0.004c0,0,0.83,0.385,0.883,0.867
	c0.041,0.379,0.01,0.754,0.117,1.02c-0.412-0.014-0.826-0.021-1.211-0.022c-1.279-0.001-2.578,0.062-2.762,0.07
	c-0.008-0.001-0.021,0-0.021,0h0.012c-0.012,0.003-0.062,0.003-0.062,0.003s1.234,0.273,1.746,0.693
	c0.381,0.316,0.686,0.646,1.031,0.871c-0.27,0.007-0.535,0.012-0.787,0.023c-1.252,0.051-2.535,0.162-2.84,0.188h-0.021h0.014
	c-0.039,0.004-0.062,0.006-0.062,0.006s1.434,0.203,2.188,0.574c0.676,0.333,1.246,0.691,1.818,0.878
	c-0.682,0.15-1.402,0.323-1.992,0.494c-0.941,0.276-1.77,0.582-1.887,0.624c-0.004,0.003-0.016,0.004-0.016,0.004l0.01-0.001
	c-0.006,0.002-0.039,0.013-0.039,0.013s1.443-0.142,2.643-0.061c0.512,0.031,0.998,0.07,1.461,0.104
	c-0.15,0.259-0.273,0.561-0.443,0.867c-0.285,0.511-1.328,1.044-1.328,1.044s0.023-0.004,0.059-0.011l-0.006,0.006
	c0,0,0.012-0.008,0.014-0.006c0.293-0.057,1.514-0.279,2.652-0.547c0.312-0.071,0.641-0.158,0.969-0.246
	c-0.283,0.293-0.158,0.782-0.184,1.283c-0.025,0.492-0.824,1.037-0.824,1.037s0.045-0.012,0.055-0.014l-0.008,0.005
	c0,0,0.014-0.004,0.016-0.007c0.172-0.037,1.361-0.306,2.469-0.625c0.334-0.097,0.682-0.209,1.027-0.322
	c0.17,0.255,0.572,0.576,0.912,0.914c0.434,0.432,0.094,0.971,0.094,0.971s0.041-0.014,0.049-0.017l-0.004,0.004
	c0,0,0.01-0.006,0.012-0.004c0.148-0.05,1.152-0.376,2.023-0.738c0.582-0.246,1.164-0.542,1.656-0.82
	c0.326,0.112,0.662,0.22,0.98,0.301c0.65,0.161,1.328,0.263,1.428,0.277l0.01,0.005l-0.008-0.005
	c0.01,0.001,0.035,0.005,0.035,0.005s-0.555-0.42-0.697-0.891c-0.064-0.216-0.115-0.421-0.17-0.616l6.076,0.402
	c0,0-2.969-0.571-4.037-0.702c-0.047-0.007-0.121-0.014-0.172-0.017c-0.256-0.138-0.639-0.37-0.881-0.642
	c0.338-0.025,0.666-0.048,0.953-0.065c1.912-0.123,10.371-0.487,10.371-0.487s-5.436-0.224-9.475-0.108
	c0.947-0.162,1.781-0.316,2.328-0.433c1.336-0.284,5.072-1.327,5.072-1.327l-6.691,1.069c-0.004-0.002-0.008-0.002-0.012-0.004
	c0.27-0.168,0.48-0.334,0.592-0.493c0.066-0.096,0.084-0.179,0.076-0.257c0.576-0.209,1.098-0.404,1.404-0.52
	c1.164-0.029,2.012-0.048,2.012-0.048s-1.869-0.141-4.09-0.233c1.025-0.494,2.051-1.016,2.051-1.016l-1.551,0.496
	c-0.326-0.063-0.902-0.172-1.543-0.287c1.111-0.344,2.346-0.756,2.346-0.756l-2.742,0.467c-0.098-0.112-0.246-0.211-0.424-0.305
	c0.387-0.137,0.799-0.283,1.186-0.427c2.209-0.059,4.414-0.109,4.414-0.109s-1.57-0.121-3.533-0.214
	c0.336-0.127,0.566-0.213,0.566-0.213l-0.848,0.197c-0.389-0.017-0.781-0.032-1.191-0.049c0.242-0.11,0.389-0.24,0.379-0.39
	c-0.004-0.07-0.098-0.134-0.158-0.202c0.15-0.073,0.293-0.144,0.43-0.215c1.311-0.37,2.959-0.891,2.959-0.891l-4.119,0.687
	c-0.215-0.075-0.473-0.138-0.748-0.195c1.213-0.408,3.139-1.138,3.139-1.138l-4.16,0.975c-0.236-0.028-0.459-0.064-0.711-0.078
	c0,0-0.008,0.003-0.008,0c0.336-0.117,0.627-0.225,0.85-0.313c1.031-0.41,3.707-1.771,3.707-1.771l-6.033,1.93
	c0.07-0.205,0.162-0.347,0.162-0.347s-0.021,0.006-0.025,0.007l0.004-0.002l-0.008,0.005c-0.08,0.023-0.689,0.217-1.238,0.462
	c-0.162,0.074-0.334,0.161-0.498,0.253c-0.158-0.261-0.455-0.591-0.725-0.938c-0.344-0.446-0.281-0.948-0.281-0.948
	s-0.02,0.012-0.025,0.012l0.002-0.004l-0.004,0.008C129.938,248.294,129.453,248.549,129.047,248.851z M131.832,254.298
	c-0.283-0.021-0.566-0.041-0.848-0.061c0.309-0.021,0.613-0.046,0.916-0.066C131.861,254.211,131.857,254.257,131.832,254.298z
	 M131.225,254.759l-1.215,0.47c0.186-0.218,0.098-0.421-0.271-0.569L131.225,254.759z M135.994,253.974L135,254.29
	c-0.096-0.077-0.189-0.152-0.283-0.219c0.273-0.007,0.543-0.036,0.803-0.081C135.674,253.985,135.83,253.979,135.994,253.974z
	 M129.887,255.884c0.689-0.268,1.594-0.625,2.172-0.889c0.078,0.054,0.182,0.101,0.293,0.146l-2.301,0.736
	c-0.016-0.003-0.025-0.004-0.045-0.004C129.967,255.87,129.926,255.883,129.887,255.884z M136.754,251.765L136,251.941
	c-0.223-0.06-0.455-0.108-0.701-0.135C135.75,251.794,136.24,251.778,136.754,251.765z M137.387,253.528
	c-0.219-0.008-0.436-0.017-0.654-0.021c0.236-0.171,0.355-0.356,0.383-0.544l1.682,0.112L137.387,253.528z M140.273,253.854
	l-1.342,0.312c-0.238-0.164-0.773-0.221-1.514-0.146c0.07-0.03,0.137-0.062,0.211-0.096
	C138.541,253.9,139.469,253.877,140.273,253.854z M128.404,255.978l0.006-0.002h0.002
	C128.412,255.976,128.406,255.976,128.404,255.978z M127.709,252.784c0.143-0.034,0.26-0.08,0.391-0.119
	c0.062-0.006,0.133-0.011,0.184-0.028c0.062-0.021,0.086-0.037,0.094-0.055c0.008-0.002,0.016-0.002,0.021-0.007l1.672,0.245
	l-0.982,0.313c-0.205-0.16-0.6-0.289-1.236-0.34C127.816,252.79,127.756,252.788,127.709,252.784z"/>
<path fill="#415920" d="M119.703,246.849c0,0,1.217,2.021,1.455,2.723c0.404,1.188,0.734,4.835,0.734,4.835l-1.303-0.02
	L119.703,246.849z"/>
<path fill="#557329" d="M117.752,247.637c0,0,1.482,1.868,1.848,2.532c0.619,1.131,1.777,4.689,1.777,4.689l-1.062,0.117
	L117.752,247.637z"/>
<path fill="#5F7D2A" d="M126.896,248.777c0,0-2.15,1.513-2.756,2.081c-1.037,0.975-3.531,4.178-3.531,4.178l0.979,0.314
	L126.896,248.777z"/>
<path fill="#5F7D2A" d="M125.754,252.031c0,0-1.57,0.521-1.992,0.747c-0.717,0.393-2.311,1.82-2.311,1.82l0.875,0.334
	L125.754,252.031z"/>
<path fill="#415920" d="M124.611,248.15c0,0,1.221,1.831,1.459,2.463c0.406,1.076,0.744,4.364,0.744,4.364l-1.303-0.017
	L124.611,248.15z"/>
<path fill="#415920" d="M130.762,245.694c0,0,1.209,2.442,1.445,3.289c0.4,1.44,0.717,5.853,0.717,5.853l-1.303-0.019
	L130.762,245.694z"/>
<path fill="#697B27" d="M125.982,250.327c0,0-0.109,0.457-0.641,0.805c-0.637,0.418-1.379,0.804-1.354,1.031
	c0.049,0.423,0.902,0.809,1.912,0.86s1.789-0.246,1.744-0.67c-0.027-0.237-0.361-0.889-0.811-1.343
	C126.48,250.659,125.982,250.327,125.982,250.327z"/>
<path fill="#697B27" d="M126.004,250.336c0,0,0.076,0.601-0.121,0.958c-0.232,0.43-0.492,0.829-0.514,1.055
	c-0.051,0.416-0.041,0.629,0.229,0.653c0.268,0.025,0.141-0.086,0.318-0.566c0.084-0.228,0.453-0.866,0.395-1.302
	C126.264,250.795,126.004,250.336,126.004,250.336z"/>
<path fill="#697B27" d="M113.391,252.508c0,0,1.1,0.188,2.189,0.128c1.305-0.074,2.592-0.213,3.098-0.082
	c0.924,0.242,1.305,0.834,0.848,1.325c-0.455,0.49-1.578,0.69-2.502,0.45c-0.521-0.138-1.803-0.631-2.568-1.072
	C113.859,252.909,113.391,252.508,113.391,252.508z"/>
<path fill="#697B27" d="M113.404,252.523c0,0,1.309,0.347,2.23,0.446c1.1,0.116,2.148,0.205,2.674,0.312
	c0.965,0.195,1.439,0.312,1.342,0.447c-0.1,0.136-0.275,0.02-1.461-0.15c-0.561-0.08-2.211-0.246-3.16-0.499
	C114.291,252.883,113.404,252.523,113.404,252.523z"/>
<path fill="#697B27" d="M116.793,251.281c0,0,0.973,0.327,2.057,0.414c1.297,0.104,2.611,0.141,3.035,0.336
	c0.783,0.356,0.869,0.98,0.191,1.394c-0.674,0.413-1.855,0.457-2.635,0.101c-0.438-0.2-1.445-0.848-1.977-1.38
	C117.055,251.731,116.793,251.281,116.793,251.281z"/>
<path fill="#697B27" d="M116.799,251.296c0,0,1.1,0.512,1.945,0.729c1.01,0.259,1.982,0.485,2.439,0.66
	c0.838,0.316,1.244,0.492,1.084,0.61c-0.16,0.119-0.275-0.017-1.342-0.339c-0.504-0.153-2.021-0.533-2.822-0.904
	C117.484,251.761,116.799,251.296,116.799,251.296z"/>
<path fill="#697B27" d="M120.957,250.716c0,0,0.873,0.4,1.924,0.567c1.254,0.2,2.545,0.337,2.912,0.563
	c0.676,0.412,0.592,1.037-0.191,1.395c-0.777,0.357-1.957,0.312-2.635-0.1c-0.379-0.233-1.199-0.951-1.578-1.517
	C121.096,251.184,120.957,250.716,120.957,250.716z"/>
<path fill="#697B27" d="M120.957,250.733c0,0,0.951,0.59,1.727,0.869c0.932,0.333,1.832,0.633,2.234,0.84
	c0.746,0.377,1.1,0.581,0.908,0.687c-0.188,0.104-0.266-0.037-1.234-0.438c-0.457-0.188-1.857-0.682-2.547-1.11
	C121.512,251.245,120.957,250.733,120.957,250.733z"/>
<path fill="#697B27" d="M138.836,252.507c0,0-1.098,0.189-2.186,0.127c-1.305-0.072-2.596-0.213-3.098-0.08
	c-0.928,0.242-1.309,0.834-0.85,1.324c0.457,0.489,1.576,0.691,2.502,0.449c0.52-0.136,1.803-0.629,2.568-1.072
	C138.367,252.909,138.836,252.507,138.836,252.507z"/>
<path fill="#697B27" d="M138.824,252.521c0,0-1.309,0.349-2.229,0.448c-1.102,0.116-2.15,0.205-2.676,0.312
	c-0.963,0.195-1.439,0.31-1.34,0.447c0.098,0.136,0.271,0.019,1.459-0.151c0.561-0.08,2.211-0.245,3.16-0.499
	C137.938,252.882,138.824,252.521,138.824,252.521z"/>
<path fill="#697B27" d="M135.436,251.279c0,0-0.973,0.329-2.057,0.415c-1.297,0.102-2.611,0.139-3.035,0.334
	c-0.781,0.357-0.869,0.982-0.191,1.396c0.674,0.411,1.854,0.457,2.635,0.101c0.439-0.202,1.445-0.848,1.975-1.38
	C135.172,251.731,135.436,251.279,135.436,251.279z"/>
<path fill="#697B27" d="M135.432,251.296c0,0-1.102,0.512-1.945,0.729c-1.012,0.259-1.982,0.486-2.439,0.659
	c-0.842,0.318-1.246,0.494-1.086,0.611c0.16,0.12,0.273-0.017,1.342-0.338c0.504-0.154,2.023-0.533,2.82-0.904
	C134.744,251.761,135.432,251.296,135.432,251.296z"/>
<path fill="#697B27" d="M131.754,250.716c0,0-0.873,0.4-1.924,0.567c-1.254,0.2-2.547,0.337-2.914,0.563
	c-0.674,0.412-0.59,1.037,0.193,1.395c0.777,0.357,1.957,0.312,2.633-0.1c0.379-0.233,1.199-0.951,1.58-1.517
	C131.615,251.184,131.754,250.716,131.754,250.716z"/>
<path fill="#697B27" d="M131.752,250.733c0,0-0.951,0.59-1.727,0.869c-0.93,0.333-1.828,0.633-2.234,0.84
	c-0.744,0.377-1.098,0.581-0.908,0.687c0.189,0.104,0.268-0.037,1.234-0.438c0.459-0.188,1.859-0.682,2.547-1.11
	C131.199,251.245,131.752,250.733,131.752,250.733z"/>
<path fill="#557329" d="M128.783,248.069c0,0,1.482,1.866,1.846,2.53c0.621,1.132,1.779,4.69,1.779,4.69l-1.064,0.117
	L128.783,248.069z"/>
<path fill="#5F7D2A" d="M131.818,249.35c0,0-2.15,1.516-2.758,2.086c-1.035,0.972-3.529,4.176-3.529,4.176l0.977,0.313
	L131.818,249.35z"/>
<path fill="#FDCD00" d="M130.256,250.194c0.141,0.746,0.926,1.58,1.752,1.871c0.828,0.288,1.383-0.083,1.24-0.828
	s-0.926-1.58-1.754-1.87C130.668,249.08,130.113,249.45,130.256,250.194z"/>
<path fill="#512B10" d="M131.361,250.579c0.037,0.194,0.242,0.414,0.457,0.488c0.215,0.078,0.361-0.021,0.324-0.215
	c-0.037-0.195-0.242-0.413-0.457-0.487C131.469,250.288,131.322,250.386,131.361,250.579z"/>
<path fill="#FDCD00" d="M129.1,252.481c0.141,0.746,0.924,1.583,1.752,1.871c0.826,0.289,1.381-0.082,1.24-0.827
	c-0.143-0.744-0.928-1.581-1.754-1.869C129.512,251.367,128.957,251.738,129.1,252.481z"/>
<path fill="#512B10" d="M130.205,252.867c0.035,0.194,0.24,0.414,0.455,0.489c0.217,0.076,0.363-0.021,0.324-0.217
	c-0.035-0.195-0.24-0.412-0.457-0.487C130.311,252.575,130.166,252.674,130.205,252.867z"/>
<path fill="#FDCD00" d="M126.418,252.308c0.613,0.449,1.758,0.526,2.559,0.176c0.803-0.352,0.957-1.001,0.346-1.451
	c-0.611-0.446-1.756-0.525-2.557-0.174C125.963,251.211,125.809,251.861,126.418,252.308z"/>
<path fill="#512B10" d="M127.492,251.838c0.158,0.116,0.459,0.137,0.668,0.046c0.209-0.094,0.25-0.261,0.09-0.379
	c-0.16-0.117-0.459-0.139-0.668-0.046C127.371,251.55,127.332,251.719,127.492,251.838z"/>
<path fill="#FDCD00" d="M123.791,252.736c0.613,0.449,1.758,0.526,2.559,0.176s0.957-1.001,0.346-1.45
	c-0.611-0.447-1.756-0.526-2.557-0.176C123.334,251.64,123.182,252.288,123.791,252.736z"/>
<path fill="#512B10" d="M124.865,252.266c0.158,0.117,0.457,0.138,0.668,0.046c0.209-0.092,0.248-0.261,0.09-0.379
	c-0.16-0.117-0.461-0.138-0.668-0.045C124.744,251.979,124.705,252.148,124.865,252.266z"/>
<path fill="#FDCD00" d="M119.084,252.761c0.754,0.089,1.789-0.406,2.312-1.106c0.523-0.701,0.338-1.343-0.412-1.433
	c-0.754-0.088-1.789,0.406-2.312,1.105C118.146,252.031,118.332,252.67,119.084,252.761z"/>
<path fill="#512B10" d="M119.785,251.823c0.195,0.023,0.467-0.107,0.605-0.29c0.137-0.184,0.088-0.351-0.109-0.372
	c-0.197-0.025-0.469,0.104-0.604,0.288C119.541,251.632,119.588,251.799,119.785,251.823z"/>
<path fill="#FDCD00" d="M121.553,254.462c0.754,0.091,1.789-0.404,2.312-1.105c0.525-0.699,0.34-1.342-0.414-1.432
	c-0.752-0.089-1.787,0.407-2.311,1.106C120.617,253.733,120.801,254.373,121.553,254.462z"/>
<path fill="#512B10" d="M122.256,253.525c0.195,0.023,0.467-0.106,0.604-0.289c0.137-0.184,0.088-0.351-0.107-0.373
	c-0.197-0.025-0.469,0.106-0.605,0.289C122.01,253.336,122.059,253.503,122.256,253.525z"/>
<path fill="#65832B" d="M135.531,245.079c0,0-2.508,3.595-3.279,5.967c-0.385,1.184-0.717,4.827-0.717,4.827h1.129
	c0,0,0.451-3.171,0.869-4.743C133.832,250.005,135.531,245.079,135.531,245.079z"/>
<ellipse fill="#68842B" cx="131.843" cy="255.777" rx="0.821" ry="0.489"/>
<path fill="#5F7D2A" d="M137.928,249.207c0,0-2.15,1.517-2.758,2.085c-1.035,0.973-3.531,4.177-3.531,4.177l0.979,0.313
	L137.928,249.207z"/>
<path fill="#68842B" d="M126.047,247.892c0,0,2.23,1.937,2.836,2.646c1.031,1.212,3.369,5.133,3.369,5.133l-1.186,0.28
	L126.047,247.892z"/>
<path fill="#68842B" d="M126.713,251.982c0,0,1.57,0.828,1.98,1.149c0.695,0.554,2.162,2.436,2.162,2.436l-0.963,0.265
	L126.713,251.982z"/>
<path fill="#65832B" d="M124.5,246.652c0,0-2.508,2.923-3.277,4.858c-0.385,0.963-0.719,3.93-0.719,3.93h1.129
	c0,0,0.451-2.582,0.869-3.863C122.801,250.663,124.5,246.652,124.5,246.652z"/>
<path fill="#68842B" d="M115.018,247.461c0,0,2.229,1.936,2.834,2.646c1.031,1.213,3.371,5.134,3.371,5.134l-1.188,0.281
	L115.018,247.461z"/>
<path fill="#557329" d="M122.674,248.212c0,0,1.48,1.867,1.846,2.531c0.621,1.132,1.779,4.689,1.779,4.689l-1.064,0.118
	L122.674,248.212z"/>
<path fill="#65832B" d="M129.422,247.107c0,0-2.508,2.964-3.279,4.924c-0.385,0.978-0.717,3.983-0.717,3.983h1.129
	c0,0,0.451-2.616,0.869-3.914C127.723,251.171,129.422,247.107,129.422,247.107z"/>
<path fill="#68842B" d="M119.938,248.034c0,0,2.23,1.938,2.836,2.647c1.031,1.213,3.369,5.133,3.369,5.133l-1.186,0.28
	L119.938,248.034z"/>
<path fill="#849926" d="M126.615,260.446c0,0,0.111-0.864,0.643-1.522c0.637-0.79,1.379-1.516,1.354-1.948
	c-0.049-0.797-0.902-1.524-1.912-1.621c-1.008-0.1-1.789,0.465-1.744,1.264c0.029,0.446,0.359,1.68,0.811,2.534
	C126.119,259.819,126.615,260.446,126.615,260.446z"/>
<path fill="#697B27" d="M126.598,260.428c0,0-0.078-1.134,0.117-1.81c0.234-0.808,0.492-1.565,0.518-1.991
	c0.047-0.782,0.039-1.187-0.23-1.232c-0.27-0.048-0.143,0.162-0.318,1.07c-0.084,0.428-0.451,1.635-0.395,2.456
	C126.334,259.562,126.598,260.428,126.598,260.428z"/>
<path fill="#849926" d="M139.207,256.326c0,0-1.096-0.356-2.186-0.24c-1.305,0.14-2.596,0.401-3.098,0.154
	c-0.926-0.458-1.307-1.579-0.85-2.504c0.455-0.926,1.576-1.305,2.504-0.849c0.518,0.257,1.801,1.188,2.566,2.025
	C138.738,255.567,139.207,256.326,139.207,256.326z"/>
<path fill="#697B27" d="M139.195,256.298c0,0-1.309-0.657-2.23-0.843c-1.1-0.219-2.148-0.391-2.674-0.593
	c-0.963-0.368-1.439-0.585-1.342-0.843c0.1-0.257,0.275-0.038,1.461,0.283c0.561,0.151,2.211,0.463,3.162,0.942
	C138.309,255.618,139.195,256.298,139.195,256.298z"/>
<path fill="#849926" d="M135.807,258.646c0,0-0.973-0.62-2.055-0.783c-1.297-0.193-2.613-0.264-3.037-0.631
	c-0.781-0.677-0.867-1.854-0.191-2.637c0.674-0.779,1.855-0.865,2.637-0.191c0.438,0.38,1.443,1.604,1.973,2.607
	C135.545,257.792,135.807,258.646,135.807,258.646z"/>
<path fill="#697B27" d="M135.803,258.615c0,0-1.102-0.966-1.947-1.377c-1.008-0.489-1.98-0.919-2.438-1.247
	c-0.842-0.599-1.246-0.93-1.086-1.154c0.16-0.224,0.273,0.032,1.342,0.642c0.504,0.289,2.023,1.005,2.82,1.709
	C135.113,257.736,135.803,258.615,135.803,258.615z"/>
<path fill="#849926" d="M131.643,259.711c0,0-0.873-0.756-1.922-1.071c-1.256-0.379-2.547-0.638-2.914-1.062
	c-0.674-0.782-0.592-1.961,0.189-2.636c0.779-0.675,1.961-0.591,2.637,0.188c0.379,0.44,1.197,1.796,1.578,2.864
	C131.506,258.828,131.643,259.711,131.643,259.711z"/>
<path fill="#697B27" d="M131.643,259.68c0,0-0.951-1.115-1.729-1.643c-0.928-0.63-1.83-1.195-2.232-1.586
	c-0.746-0.713-1.1-1.099-0.91-1.297c0.191-0.199,0.268,0.07,1.236,0.827c0.457,0.358,1.859,1.286,2.547,2.096
	C131.088,258.709,131.643,259.68,131.643,259.68z"/>
<path fill="#849926" d="M113.764,256.328c0,0,1.098-0.357,2.188-0.241c1.303,0.141,2.594,0.403,3.096,0.153
	c0.926-0.457,1.307-1.577,0.85-2.504c-0.455-0.924-1.576-1.304-2.504-0.849c-0.52,0.258-1.801,1.189-2.566,2.027
	C114.232,255.569,113.764,256.328,113.764,256.328z"/>
<path fill="#697B27" d="M113.775,256.299c0,0,1.309-0.657,2.23-0.842c1.1-0.221,2.15-0.392,2.674-0.594
	c0.963-0.367,1.439-0.586,1.342-0.843c-0.098-0.258-0.275-0.039-1.461,0.283c-0.559,0.153-2.211,0.463-3.162,0.944
	C114.664,255.62,113.775,256.299,113.775,256.299z"/>
<path fill="#849926" d="M117.164,258.648c0,0,0.973-0.621,2.055-0.786c1.299-0.192,2.613-0.263,3.039-0.631
	c0.779-0.675,0.865-1.854,0.189-2.636c-0.674-0.78-1.855-0.866-2.637-0.189c-0.438,0.379-1.443,1.602-1.975,2.605
	C117.426,257.794,117.164,258.648,117.164,258.648z"/>
<path fill="#697B27" d="M117.168,258.616c0,0,1.102-0.966,1.947-1.376c1.008-0.49,1.982-0.919,2.438-1.247
	c0.84-0.599,1.246-0.931,1.086-1.153c-0.16-0.225-0.273,0.031-1.342,0.64c-0.504,0.29-2.023,1.007-2.82,1.71
	C117.857,257.736,117.168,258.616,117.168,258.616z"/>
<path fill="#849926" d="M120.846,259.711c0,0,0.875-0.756,1.922-1.071c1.258-0.379,2.547-0.638,2.914-1.062
	c0.678-0.782,0.592-1.961-0.189-2.636c-0.779-0.675-1.961-0.591-2.637,0.188c-0.377,0.44-1.197,1.796-1.578,2.864
	C120.984,258.828,120.846,259.711,120.846,259.711z"/>
<path fill="#697B27" d="M120.846,259.68c0,0,0.951-1.115,1.729-1.643c0.928-0.63,1.83-1.195,2.234-1.586
	c0.744-0.713,1.098-1.099,0.908-1.297c-0.191-0.199-0.268,0.07-1.236,0.827c-0.455,0.358-1.855,1.286-2.547,2.096
	C121.4,258.709,120.846,259.68,120.846,259.68z"/>
<path fill="#C2C2C1" d="M109.24,237.082c-0.289,0.221-0.568,0.501-0.787,0.756c-0.598-0.095-1.238-0.182-1.85-0.237
	c-1.117-0.098-2.311-0.131-2.488-0.136c-0.002-0.002-0.016-0.004-0.016-0.004l0.008,0.005c-0.01,0-0.059-0.003-0.059-0.003
	s0.83,0.384,0.885,0.866c0.041,0.379,0.008,0.754,0.115,1.02c-0.412-0.013-0.824-0.021-1.211-0.022
	c-1.279-0.001-2.578,0.062-2.764,0.07c-0.004-0.001-0.02,0-0.02,0h0.012c-0.01,0.003-0.064,0.003-0.064,0.003
	s1.238,0.274,1.75,0.694c0.381,0.316,0.684,0.646,1.029,0.871c-0.268,0.007-0.535,0.013-0.785,0.022
	c-1.254,0.053-2.537,0.162-2.842,0.188h-0.02h0.01c-0.037,0.005-0.061,0.007-0.061,0.007s1.436,0.204,2.189,0.573
	c0.676,0.335,1.246,0.691,1.816,0.877c-0.682,0.151-1.402,0.325-1.99,0.496c-0.941,0.275-1.771,0.583-1.889,0.624
	c-0.004,0.002-0.016,0.005-0.016,0.005l0.012-0.003c-0.008,0.003-0.041,0.014-0.041,0.014s1.445-0.143,2.643-0.061
	c0.512,0.03,0.996,0.07,1.461,0.104c-0.152,0.259-0.271,0.56-0.441,0.867c-0.285,0.51-1.328,1.042-1.328,1.042
	s0.021-0.001,0.059-0.009l-0.01,0.005c0,0,0.012-0.008,0.018-0.005c0.289-0.058,1.514-0.279,2.65-0.548
	c0.312-0.072,0.641-0.158,0.969-0.246c-0.281,0.294-0.158,0.782-0.184,1.283c-0.023,0.492-0.824,1.037-0.824,1.037
	s0.047-0.01,0.055-0.014l-0.006,0.006c0,0,0.012-0.005,0.016-0.008c0.17-0.036,1.359-0.307,2.467-0.623
	c0.336-0.097,0.682-0.211,1.029-0.324c0.17,0.257,0.57,0.576,0.91,0.915c0.434,0.431,0.094,0.97,0.094,0.97s0.043-0.014,0.051-0.015
	l-0.006,0.004c0,0,0.01-0.007,0.012-0.004c0.148-0.051,1.154-0.378,2.023-0.741c0.58-0.246,1.166-0.541,1.654-0.817
	c0.326,0.112,0.664,0.218,0.984,0.3c0.648,0.16,1.326,0.263,1.426,0.275l0.01,0.006l-0.006-0.006
	c0.008,0.002,0.033,0.006,0.033,0.006s-0.555-0.419-0.697-0.89c-0.066-0.216-0.115-0.421-0.168-0.616l6.074,0.4
	c0,0-2.967-0.57-4.037-0.7c-0.045-0.008-0.121-0.015-0.172-0.017c-0.256-0.138-0.637-0.37-0.879-0.643
	c0.338-0.024,0.666-0.048,0.951-0.066c1.912-0.121,10.371-0.485,10.371-0.485s-5.434-0.223-9.475-0.108
	c0.947-0.164,1.781-0.317,2.328-0.434c1.336-0.284,5.074-1.326,5.074-1.326l-6.693,1.068c-0.004-0.002-0.006-0.002-0.01-0.004
	c0.27-0.168,0.479-0.334,0.588-0.493c0.068-0.097,0.086-0.179,0.08-0.257c0.574-0.209,1.094-0.402,1.402-0.519
	c1.166-0.029,2.014-0.05,2.014-0.05s-1.871-0.139-4.092-0.23c1.027-0.495,2.049-1.017,2.049-1.017l-1.547,0.496
	c-0.328-0.062-0.902-0.173-1.543-0.287c1.109-0.345,2.344-0.757,2.344-0.757l-2.742,0.467c-0.1-0.11-0.246-0.21-0.424-0.304
	c0.389-0.138,0.799-0.285,1.184-0.427c2.211-0.059,4.418-0.108,4.418-0.108s-1.572-0.123-3.533-0.216
	c0.332-0.126,0.566-0.213,0.566-0.213l-0.848,0.197c-0.391-0.015-0.783-0.031-1.193-0.048c0.244-0.11,0.391-0.242,0.379-0.391
	c-0.004-0.07-0.098-0.134-0.158-0.201c0.152-0.075,0.295-0.146,0.432-0.216c1.309-0.371,2.959-0.889,2.959-0.889l-4.121,0.685
	c-0.215-0.075-0.473-0.138-0.75-0.196c1.213-0.408,3.141-1.137,3.141-1.137l-4.162,0.975c-0.232-0.026-0.457-0.063-0.709-0.076
	h-0.008c0.336-0.119,0.629-0.227,0.85-0.316c1.029-0.409,3.709-1.77,3.709-1.77l-6.035,1.93c0.07-0.205,0.164-0.348,0.164-0.348
	l-0.025,0.008l0.002-0.003l-0.008,0.006c-0.078,0.023-0.688,0.219-1.236,0.462c-0.164,0.074-0.336,0.161-0.5,0.252
	c-0.158-0.258-0.455-0.59-0.725-0.938c-0.344-0.445-0.281-0.947-0.281-0.947s-0.02,0.012-0.023,0.014l0.002-0.006l-0.004,0.008
	C110.133,236.524,109.645,236.781,109.24,237.082z M112.025,242.528c-0.283-0.021-0.564-0.041-0.846-0.059
	c0.307-0.023,0.613-0.046,0.914-0.067C112.055,242.44,112.051,242.486,112.025,242.528z M111.42,242.99l-1.215,0.471
	c0.186-0.22,0.098-0.421-0.275-0.571L111.42,242.99z M116.189,242.204l-0.994,0.316c-0.096-0.076-0.191-0.151-0.285-0.218
	c0.275-0.009,0.545-0.036,0.801-0.082C115.867,242.216,116.023,242.211,116.189,242.204z M110.08,244.115
	c0.691-0.267,1.596-0.625,2.17-0.89c0.08,0.054,0.182,0.102,0.293,0.146l-2.297,0.735c-0.018-0.002-0.025-0.002-0.047-0.004
	C110.162,244.101,110.121,244.113,110.08,244.115z M116.947,239.995l-0.754,0.179c-0.223-0.062-0.455-0.108-0.699-0.137
	C115.943,240.024,116.434,240.009,116.947,239.995z M117.58,241.759c-0.217-0.007-0.436-0.016-0.654-0.022
	c0.236-0.169,0.354-0.354,0.383-0.542l1.682,0.112L117.58,241.759z M120.467,242.086l-1.342,0.312
	c-0.236-0.165-0.771-0.221-1.514-0.146c0.072-0.031,0.137-0.062,0.209-0.095C118.736,242.132,119.664,242.106,120.467,242.086z
	 M108.598,244.209c0,0,0.002-0.002,0.006-0.002h0.004C108.607,244.207,108.6,244.207,108.598,244.209z M107.902,241.015
	c0.143-0.033,0.26-0.079,0.393-0.118c0.061-0.007,0.133-0.011,0.18-0.029c0.066-0.022,0.09-0.035,0.094-0.055
	c0.012-0.002,0.018-0.002,0.023-0.006l1.674,0.244l-0.986,0.314c-0.201-0.161-0.598-0.29-1.234-0.342
	C108.008,241.021,107.947,241.02,107.902,241.015z"/>
<path fill="#415920" d="M99.898,235.08c0,0,1.215,2.021,1.453,2.723c0.404,1.188,0.736,4.833,0.736,4.833l-1.303-0.018
	L99.898,235.08z"/>
<path fill="#557329" d="M97.947,235.868c0,0,1.482,1.868,1.844,2.531c0.621,1.132,1.779,4.69,1.779,4.69l-1.062,0.117
	L97.947,235.868z"/>
<path fill="#5F7D2A" d="M107.092,237.007c0,0-2.15,1.515-2.758,2.083c-1.037,0.976-3.529,4.178-3.529,4.178l0.977,0.314
	L107.092,237.007z"/>
<path fill="#5F7D2A" d="M105.949,240.262c0,0-1.57,0.521-1.992,0.749c-0.719,0.392-2.311,1.818-2.311,1.818l0.873,0.334
	L105.949,240.262z"/>
<path fill="#415920" d="M104.807,236.382c0,0,1.217,1.83,1.459,2.463c0.406,1.074,0.744,4.364,0.744,4.364l-1.305-0.018
	L104.807,236.382z"/>
<path fill="#415920" d="M110.957,233.924c0,0,1.207,2.444,1.443,3.291c0.398,1.439,0.719,5.851,0.719,5.851l-1.305-0.017
	L110.957,233.924z"/>
<path fill="#697B27" d="M106.178,238.558c0,0-0.113,0.457-0.643,0.806c-0.637,0.419-1.379,0.802-1.352,1.031
	c0.047,0.421,0.9,0.808,1.91,0.858c1.008,0.054,1.789-0.245,1.744-0.669c-0.029-0.235-0.359-0.889-0.811-1.342
	C106.674,238.89,106.178,238.558,106.178,238.558z"/>
<path fill="#697B27" d="M106.197,238.567c0,0,0.076,0.6-0.119,0.958c-0.234,0.429-0.494,0.828-0.518,1.055
	c-0.047,0.414-0.039,0.627,0.23,0.651c0.27,0.025,0.143-0.083,0.318-0.565c0.084-0.226,0.451-0.866,0.395-1.301
	C106.459,239.027,106.197,238.567,106.197,238.567z"/>
<path fill="#697B27" d="M93.586,240.74c0,0,1.098,0.188,2.186,0.126c1.305-0.074,2.596-0.213,3.1-0.082
	c0.926,0.243,1.307,0.835,0.848,1.327c-0.455,0.488-1.576,0.688-2.502,0.449c-0.52-0.137-1.801-0.632-2.566-1.073
	C94.055,241.14,93.586,240.74,93.586,240.74z"/>
<path fill="#697B27" d="M93.598,240.754c0,0,1.309,0.347,2.229,0.445c1.104,0.116,2.15,0.208,2.676,0.313
	c0.963,0.195,1.439,0.312,1.342,0.448c-0.1,0.136-0.273,0.021-1.459-0.15c-0.562-0.081-2.213-0.245-3.162-0.499
	C94.484,241.115,93.598,240.754,93.598,240.754z"/>
<path fill="#697B27" d="M96.986,239.512c0,0,0.973,0.328,2.057,0.416c1.297,0.101,2.611,0.138,3.035,0.333
	c0.781,0.357,0.869,0.981,0.191,1.396c-0.674,0.413-1.854,0.457-2.635,0.101c-0.439-0.2-1.445-0.849-1.975-1.38
	C97.25,239.962,96.986,239.512,96.986,239.512z"/>
<path fill="#697B27" d="M96.99,239.527c0,0,1.102,0.511,1.947,0.729c1.01,0.258,1.98,0.485,2.439,0.658
	c0.84,0.316,1.244,0.493,1.084,0.612c-0.158,0.118-0.273-0.017-1.342-0.341c-0.502-0.152-2.023-0.53-2.82-0.903
	C97.68,239.992,96.99,239.527,96.99,239.527z"/>
<path fill="#697B27" d="M101.15,238.948c0,0,0.873,0.398,1.922,0.566c1.256,0.2,2.547,0.338,2.914,0.562
	c0.676,0.413,0.592,1.038-0.189,1.395c-0.779,0.357-1.961,0.312-2.637-0.099c-0.377-0.233-1.197-0.952-1.578-1.517
	C101.287,239.415,101.15,238.948,101.15,238.948z"/>
<path fill="#697B27" d="M101.152,238.965c0,0,0.949,0.59,1.727,0.868c0.928,0.334,1.828,0.632,2.234,0.841
	c0.744,0.376,1.098,0.579,0.908,0.688c-0.191,0.104-0.268-0.038-1.236-0.44c-0.457-0.189-1.857-0.681-2.545-1.109
	C101.705,239.478,101.152,238.965,101.152,238.965z"/>
<path fill="#697B27" d="M119.031,240.737c0,0-1.1,0.19-2.189,0.128c-1.303-0.073-2.592-0.213-3.098-0.081
	c-0.924,0.243-1.305,0.835-0.848,1.324c0.455,0.49,1.578,0.691,2.502,0.449c0.521-0.134,1.803-0.629,2.568-1.071
	C118.562,241.14,119.031,240.737,119.031,240.737z"/>
<path fill="#697B27" d="M119.018,240.753c0,0-1.309,0.348-2.229,0.446c-1.102,0.116-2.15,0.208-2.676,0.313
	c-0.963,0.195-1.439,0.311-1.34,0.448c0.098,0.134,0.273,0.018,1.459-0.152c0.561-0.079,2.213-0.243,3.16-0.498
	C118.131,241.112,119.018,240.753,119.018,240.753z"/>
<path fill="#697B27" d="M115.629,239.511c0,0-0.973,0.329-2.055,0.414c-1.299,0.103-2.613,0.141-3.037,0.334
	c-0.781,0.357-0.867,0.982-0.191,1.397c0.674,0.411,1.855,0.457,2.635,0.101c0.439-0.202,1.445-0.849,1.977-1.38
	C115.367,239.962,115.629,239.511,115.629,239.511z"/>
<path fill="#697B27" d="M115.625,239.527c0,0-1.102,0.511-1.945,0.728c-1.01,0.26-1.984,0.487-2.439,0.66
	c-0.84,0.316-1.246,0.493-1.086,0.61c0.16,0.119,0.275-0.017,1.342-0.339c0.504-0.153,2.023-0.53,2.822-0.903
	C114.938,239.992,115.625,239.527,115.625,239.527z"/>
<path fill="#697B27" d="M111.947,238.948c0,0-0.873,0.398-1.922,0.566c-1.258,0.2-2.547,0.338-2.914,0.562
	c-0.676,0.413-0.594,1.038,0.189,1.395c0.779,0.357,1.961,0.312,2.637-0.099c0.379-0.233,1.197-0.952,1.578-1.517
	C111.809,239.415,111.947,238.948,111.947,238.948z"/>
<path fill="#697B27" d="M111.947,238.965c0,0-0.951,0.59-1.729,0.868c-0.93,0.334-1.83,0.632-2.232,0.841
	c-0.746,0.376-1.102,0.579-0.91,0.688c0.191,0.104,0.268-0.038,1.236-0.44c0.455-0.189,1.857-0.681,2.547-1.109
	C111.393,239.478,111.947,238.965,111.947,238.965z"/>
<path fill="#557329" d="M108.979,236.3c0,0,1.48,1.866,1.844,2.53c0.619,1.132,1.777,4.69,1.777,4.69l-1.061,0.117L108.979,236.3z"
	/>
<path fill="#5F7D2A" d="M112.014,237.58c0,0-2.152,1.517-2.758,2.086c-1.037,0.972-3.531,4.178-3.531,4.178l0.977,0.313
	L112.014,237.58z"/>
<path fill="#FDCD00" d="M110.449,238.425c0.141,0.745,0.926,1.582,1.754,1.87c0.826,0.289,1.381-0.08,1.24-0.825
	c-0.143-0.746-0.928-1.582-1.754-1.871C110.861,237.311,110.309,237.682,110.449,238.425z"/>
<path fill="#512B10" d="M111.555,238.811c0.037,0.193,0.24,0.414,0.457,0.488c0.217,0.078,0.361-0.021,0.324-0.216
	c-0.035-0.195-0.242-0.413-0.459-0.488C111.662,238.52,111.518,238.616,111.555,238.811z"/>
<path fill="#FDCD00" d="M109.291,240.713c0.143,0.745,0.928,1.581,1.754,1.87c0.826,0.29,1.383-0.081,1.242-0.826
	c-0.143-0.745-0.93-1.582-1.756-1.871C109.705,239.599,109.148,239.97,109.291,240.713z"/>
<path fill="#512B10" d="M110.396,241.099c0.039,0.193,0.242,0.413,0.459,0.488c0.217,0.076,0.361-0.021,0.324-0.217
	s-0.242-0.412-0.459-0.487C110.506,240.807,110.361,240.903,110.396,241.099z"/>
<path fill="#FDCD00" d="M106.613,240.54c0.611,0.447,1.758,0.525,2.559,0.175c0.801-0.353,0.955-1,0.344-1.45
	c-0.609-0.449-1.754-0.527-2.557-0.175C106.156,239.441,106.004,240.091,106.613,240.54z"/>
<path fill="#512B10" d="M107.688,240.069c0.158,0.116,0.457,0.136,0.668,0.046c0.209-0.094,0.248-0.263,0.088-0.379
	c-0.158-0.118-0.459-0.138-0.666-0.046C107.564,239.782,107.525,239.949,107.688,240.069z"/>
<path fill="#FDCD00" d="M103.986,240.967c0.609,0.448,1.754,0.526,2.559,0.176c0.801-0.351,0.955-1.001,0.344-1.45
	c-0.611-0.447-1.756-0.526-2.559-0.176C103.529,239.87,103.375,240.52,103.986,240.967z"/>
<path fill="#512B10" d="M105.059,240.498c0.158,0.115,0.457,0.136,0.668,0.046c0.211-0.094,0.25-0.262,0.09-0.379
	c-0.162-0.119-0.459-0.14-0.668-0.047C104.938,240.209,104.898,240.378,105.059,240.498z"/>
<path fill="#FDCD00" d="M99.277,240.991c0.754,0.089,1.789-0.405,2.312-1.105c0.525-0.702,0.34-1.344-0.412-1.433
	c-0.754-0.088-1.787,0.405-2.312,1.104C98.342,240.261,98.527,240.902,99.277,240.991z"/>
<path fill="#512B10" d="M99.98,240.054c0.195,0.023,0.467-0.107,0.604-0.289c0.137-0.185,0.09-0.352-0.107-0.373
	c-0.197-0.025-0.469,0.104-0.605,0.288C99.734,239.862,99.783,240.031,99.98,240.054z"/>
<path fill="#FDCD00" d="M101.746,242.694c0.754,0.089,1.787-0.406,2.312-1.107c0.525-0.699,0.338-1.342-0.412-1.431
	c-0.752-0.089-1.787,0.405-2.312,1.104C100.809,241.965,100.994,242.604,101.746,242.694z"/>
<path fill="#512B10" d="M102.449,241.757c0.195,0.022,0.465-0.107,0.604-0.288c0.139-0.185,0.088-0.353-0.109-0.374
	c-0.195-0.025-0.467,0.104-0.602,0.288C102.203,241.565,102.25,241.733,102.449,241.757z"/>
<path fill="#65832B" d="M115.725,233.311c0,0-2.506,3.593-3.279,5.967c-0.383,1.184-0.717,4.825-0.717,4.825h1.129
	c0,0,0.451-3.169,0.869-4.741C114.025,238.236,115.725,233.311,115.725,233.311z"/>
<ellipse fill="#68842B" cx="112.036" cy="244.007" rx="0.821" ry="0.491"/>
<path fill="#5F7D2A" d="M118.121,237.438c0,0-2.15,1.517-2.758,2.086c-1.035,0.973-3.529,4.176-3.529,4.176l0.977,0.313
	L118.121,237.438z"/>
<path fill="#68842B" d="M106.24,236.123c0,0,2.229,1.938,2.836,2.646c1.033,1.212,3.369,5.133,3.369,5.133l-1.186,0.28
	L106.24,236.123z"/>
<path fill="#68842B" d="M106.906,240.215c0,0,1.57,0.826,1.979,1.148c0.697,0.552,2.162,2.436,2.162,2.436l-0.961,0.263
	L106.906,240.215z"/>
<path fill="#65832B" d="M104.693,234.882c0,0-2.506,2.925-3.277,4.859c-0.385,0.963-0.717,3.93-0.717,3.93h1.127
	c0,0,0.451-2.581,0.871-3.862C102.996,238.895,104.693,234.882,104.693,234.882z"/>
<path fill="#68842B" d="M95.211,235.691c0,0,2.229,1.937,2.836,2.646c1.031,1.212,3.369,5.133,3.369,5.133l-1.188,0.282
	L95.211,235.691z"/>
<path fill="#557329" d="M102.869,236.442c0,0,1.48,1.868,1.844,2.531c0.619,1.133,1.777,4.689,1.777,4.689l-1.061,0.119
	L102.869,236.442z"/>
<path fill="#65832B" d="M109.615,235.338c0,0-2.506,2.965-3.279,4.924c-0.383,0.979-0.717,3.983-0.717,3.983h1.129
	c0,0,0.451-2.615,0.869-3.913C107.916,239.402,109.615,235.338,109.615,235.338z"/>
<path fill="#68842B" d="M100.131,236.266c0,0,2.229,1.937,2.836,2.647c1.033,1.212,3.369,5.131,3.369,5.131l-1.186,0.282
	L100.131,236.266z"/>
<path fill="#849926" d="M106.811,248.678c0,0,0.111-0.865,0.641-1.523c0.637-0.789,1.381-1.515,1.354-1.947
	c-0.049-0.798-0.9-1.525-1.912-1.621c-1.008-0.1-1.789,0.464-1.744,1.263c0.029,0.446,0.361,1.68,0.812,2.535
	C106.312,248.05,106.811,248.678,106.811,248.678z"/>
<path fill="#697B27" d="M106.789,248.659c0,0-0.074-1.135,0.121-1.811c0.232-0.809,0.492-1.564,0.516-1.991
	c0.049-0.782,0.039-1.187-0.229-1.232c-0.27-0.047-0.143,0.162-0.32,1.07c-0.082,0.429-0.451,1.637-0.395,2.457
	C106.529,247.794,106.789,248.659,106.789,248.659z"/>
<path fill="#849926" d="M119.4,244.558c0,0-1.098-0.357-2.186-0.24c-1.305,0.14-2.594,0.401-3.098,0.152
	c-0.926-0.457-1.307-1.577-0.85-2.503c0.457-0.925,1.578-1.306,2.502-0.849c0.521,0.257,1.803,1.188,2.57,2.026
	C118.934,243.799,119.4,244.558,119.4,244.558z"/>
<path fill="#697B27" d="M119.391,244.528c0,0-1.311-0.655-2.23-0.842c-1.102-0.221-2.15-0.392-2.676-0.593
	c-0.963-0.368-1.439-0.586-1.34-0.844c0.098-0.257,0.273-0.039,1.459,0.283c0.561,0.152,2.211,0.463,3.16,0.942
	C118.502,243.849,119.391,244.528,119.391,244.528z"/>
<path fill="#849926" d="M116,246.877c0,0-0.971-0.62-2.057-0.783c-1.297-0.194-2.611-0.265-3.035-0.632
	c-0.781-0.677-0.869-1.855-0.189-2.637c0.672-0.779,1.852-0.864,2.633-0.191c0.439,0.381,1.445,1.604,1.977,2.607
	C115.738,246.023,116,246.877,116,246.877z"/>
<path fill="#697B27" d="M115.996,246.847c0,0-1.102-0.967-1.945-1.377c-1.012-0.49-1.982-0.92-2.439-1.246
	c-0.84-0.6-1.246-0.932-1.086-1.154c0.16-0.225,0.275,0.031,1.342,0.642c0.506,0.288,2.023,1.004,2.822,1.708
	C115.309,245.966,115.996,246.847,115.996,246.847z"/>
<path fill="#849926" d="M111.836,247.941c0,0-0.873-0.755-1.922-1.071c-1.256-0.379-2.547-0.639-2.914-1.062
	c-0.676-0.782-0.592-1.961,0.191-2.635c0.779-0.675,1.959-0.591,2.635,0.188c0.379,0.441,1.199,1.796,1.58,2.864
	C111.699,247.061,111.836,247.941,111.836,247.941z"/>
<path fill="#697B27" d="M111.836,247.91c0,0-0.949-1.115-1.727-1.641c-0.93-0.632-1.83-1.196-2.234-1.587
	c-0.746-0.713-1.1-1.099-0.908-1.297c0.189-0.199,0.266,0.069,1.234,0.827c0.457,0.358,1.857,1.285,2.545,2.096
	C111.283,246.94,111.836,247.91,111.836,247.91z"/>
<path fill="#849926" d="M93.957,244.559c0,0,1.098-0.356,2.188-0.241c1.305,0.141,2.594,0.402,3.098,0.154
	c0.926-0.457,1.307-1.577,0.848-2.503c-0.455-0.925-1.576-1.306-2.502-0.851c-0.52,0.259-1.803,1.189-2.568,2.027
	C94.426,243.8,93.957,244.559,93.957,244.559z"/>
<path fill="#697B27" d="M93.971,244.529c0,0,1.307-0.656,2.229-0.84c1.1-0.221,2.148-0.392,2.674-0.595
	c0.965-0.367,1.439-0.587,1.342-0.843c-0.1-0.258-0.273-0.039-1.461,0.282c-0.561,0.152-2.211,0.464-3.16,0.943
	C94.855,243.851,93.971,244.529,93.971,244.529z"/>
<path fill="#849926" d="M97.357,246.878c0,0,0.973-0.621,2.057-0.783c1.297-0.192,2.611-0.263,3.035-0.633
	c0.783-0.676,0.869-1.854,0.193-2.636c-0.676-0.78-1.855-0.865-2.637-0.19c-0.438,0.381-1.445,1.604-1.975,2.607
	C97.621,246.025,97.357,246.878,97.357,246.878z"/>
<path fill="#697B27" d="M97.363,246.847c0,0,1.1-0.965,1.945-1.376c1.01-0.489,1.982-0.918,2.439-1.246
	c0.838-0.6,1.246-0.931,1.084-1.155c-0.16-0.223-0.273,0.033-1.342,0.642c-0.502,0.289-2.021,1.005-2.82,1.708
	C98.049,245.967,97.363,246.847,97.363,246.847z"/>
<path fill="#849926" d="M101.041,247.941c0,0,0.871-0.755,1.922-1.071c1.256-0.379,2.547-0.639,2.914-1.062
	c0.674-0.782,0.592-1.961-0.191-2.635c-0.779-0.675-1.959-0.591-2.635,0.188c-0.379,0.441-1.199,1.796-1.58,2.864
	C101.178,247.061,101.041,247.941,101.041,247.941z"/>
<path fill="#697B27" d="M101.041,247.91c0,0,0.951-1.115,1.729-1.641c0.928-0.632,1.828-1.196,2.232-1.587
	c0.746-0.713,1.1-1.099,0.908-1.297c-0.189-0.199-0.268,0.069-1.234,0.827c-0.457,0.358-1.859,1.285-2.547,2.096
	C101.596,246.94,101.041,247.91,101.041,247.91z"/>
<path fill="#C2C2C1" d="M88.65,225.503c-0.291,0.221-0.568,0.501-0.787,0.756c-0.6-0.094-1.238-0.183-1.852-0.237
	c-1.115-0.097-2.309-0.131-2.486-0.136c-0.004-0.002-0.018-0.004-0.018-0.004l0.008,0.005l-0.059-0.003c0,0,0.832,0.386,0.885,0.868
	c0.041,0.378,0.01,0.752,0.115,1.019c-0.41-0.014-0.824-0.021-1.211-0.022c-1.277-0.002-2.578,0.062-2.762,0.071
	c-0.006-0.003-0.02,0-0.02,0h0.01c-0.008,0.002-0.062,0.002-0.062,0.002s1.236,0.273,1.748,0.693
	c0.381,0.317,0.686,0.646,1.031,0.871c-0.27,0.007-0.535,0.013-0.787,0.022c-1.252,0.053-2.537,0.163-2.842,0.188h-0.02l0.012-0.001
	c-0.037,0.005-0.061,0.007-0.061,0.007s1.434,0.204,2.188,0.573c0.678,0.335,1.248,0.692,1.816,0.877
	c-0.68,0.152-1.402,0.325-1.99,0.496c-0.941,0.275-1.771,0.583-1.889,0.625c-0.002,0.001-0.014,0.004-0.014,0.004l0.01-0.003
	c-0.008,0.003-0.039,0.015-0.039,0.015s1.443-0.144,2.643-0.062c0.512,0.031,0.996,0.07,1.459,0.104
	c-0.15,0.259-0.271,0.561-0.441,0.867c-0.285,0.512-1.326,1.043-1.326,1.043s0.021-0.002,0.057-0.01l-0.008,0.005
	c0,0,0.012-0.007,0.018-0.005c0.289-0.058,1.512-0.279,2.648-0.548c0.314-0.071,0.641-0.156,0.969-0.244
	c-0.281,0.292-0.158,0.78-0.182,1.283c-0.025,0.492-0.826,1.036-0.826,1.036s0.049-0.011,0.055-0.014l-0.006,0.005
	c0,0,0.014-0.005,0.018-0.006c0.17-0.038,1.359-0.308,2.465-0.625c0.336-0.097,0.684-0.211,1.029-0.324
	c0.17,0.256,0.57,0.578,0.912,0.916c0.434,0.431,0.094,0.971,0.094,0.971s0.041-0.015,0.049-0.017l-0.004,0.004
	c0,0,0.01-0.007,0.01-0.004c0.15-0.051,1.154-0.376,2.023-0.74c0.582-0.247,1.168-0.542,1.656-0.818
	c0.326,0.111,0.662,0.218,0.984,0.3c0.646,0.16,1.326,0.263,1.426,0.276l0.01,0.007l-0.008-0.007
	c0.008,0.003,0.035,0.007,0.035,0.007s-0.555-0.421-0.697-0.892c-0.066-0.216-0.115-0.421-0.17-0.616l6.076,0.401
	c0,0-2.969-0.57-4.037-0.701c-0.045-0.008-0.123-0.013-0.172-0.018c-0.256-0.137-0.639-0.369-0.881-0.641
	c0.338-0.025,0.668-0.049,0.953-0.066c1.912-0.122,10.371-0.486,10.371-0.486s-5.436-0.223-9.477-0.108
	c0.947-0.163,1.781-0.317,2.33-0.432c1.334-0.286,5.072-1.328,5.072-1.328l-6.691,1.07c-0.006-0.003-0.008-0.003-0.012-0.004
	c0.271-0.169,0.48-0.334,0.59-0.494c0.066-0.097,0.084-0.179,0.078-0.256c0.576-0.209,1.096-0.404,1.402-0.521
	c1.168-0.029,2.014-0.049,2.014-0.049s-1.871-0.14-4.092-0.231c1.027-0.495,2.051-1.017,2.051-1.017l-1.549,0.496
	c-0.328-0.062-0.902-0.171-1.543-0.287c1.109-0.344,2.344-0.755,2.344-0.755l-2.742,0.467c-0.098-0.112-0.246-0.213-0.422-0.306
	c0.387-0.136,0.799-0.285,1.184-0.427c2.211-0.059,4.418-0.108,4.418-0.108s-1.574-0.123-3.533-0.215
	c0.332-0.127,0.564-0.213,0.564-0.213l-0.848,0.198c-0.391-0.018-0.783-0.033-1.191-0.05c0.242-0.11,0.389-0.241,0.379-0.391
	c-0.004-0.07-0.1-0.133-0.16-0.201c0.154-0.074,0.295-0.145,0.432-0.215c1.311-0.372,2.959-0.89,2.959-0.89l-4.121,0.685
	c-0.215-0.074-0.471-0.137-0.748-0.195c1.213-0.408,3.141-1.137,3.141-1.137l-4.162,0.974c-0.234-0.026-0.457-0.063-0.709-0.076
	c0,0-0.006,0.001-0.01,0c0.338-0.117,0.629-0.225,0.85-0.315c1.031-0.409,3.709-1.77,3.709-1.77l-6.035,1.931
	c0.072-0.207,0.166-0.35,0.166-0.35l-0.027,0.008l0.004-0.003l-0.008,0.008c-0.078,0.021-0.688,0.217-1.238,0.462
	c-0.164,0.073-0.334,0.159-0.498,0.251c-0.158-0.259-0.457-0.589-0.727-0.938c-0.344-0.445-0.279-0.946-0.279-0.946
	s-0.021,0.01-0.025,0.012l0.002-0.004l-0.004,0.006C89.541,224.945,89.055,225.201,88.65,225.503z M91.434,230.949
	c-0.281-0.021-0.564-0.04-0.844-0.06c0.305-0.021,0.611-0.045,0.912-0.066C91.465,230.861,91.461,230.908,91.434,230.949z
	 M90.828,231.411l-1.215,0.471c0.186-0.22,0.1-0.421-0.273-0.57L90.828,231.411z M95.598,230.627l-0.992,0.315
	c-0.098-0.077-0.193-0.152-0.287-0.219c0.275-0.008,0.545-0.036,0.803-0.082C95.277,230.637,95.432,230.632,95.598,230.627z
	 M89.49,232.536c0.689-0.267,1.594-0.625,2.17-0.89c0.08,0.054,0.182,0.102,0.293,0.146l-2.297,0.736
	c-0.018-0.001-0.027-0.003-0.049-0.005C89.57,232.523,89.529,232.534,89.49,232.536z M96.357,228.417l-0.754,0.178
	c-0.223-0.061-0.455-0.108-0.699-0.137C95.352,228.445,95.842,228.432,96.357,228.417z M96.99,230.182
	c-0.219-0.008-0.436-0.017-0.654-0.023c0.236-0.17,0.354-0.355,0.381-0.543l1.684,0.112L96.99,230.182z M99.875,230.507l-1.34,0.312
	c-0.238-0.163-0.773-0.221-1.514-0.146c0.07-0.032,0.135-0.062,0.209-0.097C98.145,230.553,99.074,230.528,99.875,230.507z
	 M88.006,232.63c0.002-0.002,0.004-0.002,0.004-0.002h0.006C88.016,232.628,88.008,232.628,88.006,232.63z M87.312,229.437
	c0.143-0.034,0.258-0.08,0.393-0.119c0.061-0.006,0.131-0.011,0.18-0.027c0.064-0.023,0.09-0.037,0.094-0.057
	c0.012-0.001,0.016-0.001,0.023-0.006l1.672,0.246l-0.984,0.312c-0.203-0.161-0.598-0.288-1.234-0.342
	C87.418,229.442,87.357,229.44,87.312,229.437z"/>
<path fill="#415920" d="M79.307,223.502c0,0,1.217,2.021,1.455,2.722c0.402,1.188,0.734,4.834,0.734,4.834l-1.303-0.018
	L79.307,223.502z"/>
<path fill="#557329" d="M77.357,224.29c0,0,1.48,1.867,1.844,2.53c0.619,1.132,1.777,4.69,1.777,4.69l-1.062,0.117L77.357,224.29z"
	/>
<path fill="#5F7D2A" d="M86.5,225.429c0,0-2.15,1.514-2.758,2.082c-1.035,0.976-3.529,4.179-3.529,4.179l0.977,0.313L86.5,225.429z"
	/>
<path fill="#5F7D2A" d="M85.359,228.683c0,0-1.572,0.521-1.992,0.749c-0.721,0.392-2.312,1.818-2.312,1.818l0.873,0.336
	L85.359,228.683z"/>
<path fill="#415920" d="M84.215,224.803c0,0,1.219,1.83,1.457,2.463c0.408,1.075,0.746,4.364,0.746,4.364l-1.303-0.018
	L84.215,224.803z"/>
<path fill="#415920" d="M90.365,222.345c0,0,1.209,2.445,1.445,3.291c0.398,1.439,0.717,5.852,0.717,5.852l-1.303-0.018
	L90.365,222.345z"/>
<path fill="#697B27" d="M85.588,226.979c0,0-0.113,0.457-0.645,0.805c-0.635,0.418-1.379,0.803-1.352,1.031
	c0.047,0.422,0.902,0.809,1.91,0.859c1.01,0.053,1.791-0.246,1.744-0.668c-0.027-0.237-0.357-0.891-0.811-1.344
	C86.082,227.312,85.588,226.979,85.588,226.979z"/>
<path fill="#697B27" d="M85.605,226.988c0,0,0.078,0.602-0.117,0.958c-0.236,0.429-0.494,0.828-0.518,1.056
	c-0.047,0.414-0.039,0.626,0.23,0.651s0.141-0.084,0.318-0.566c0.082-0.226,0.451-0.865,0.393-1.301
	C85.867,227.448,85.605,226.988,85.605,226.988z"/>
<path fill="#697B27" d="M72.996,229.16c0,0,1.096,0.188,2.186,0.127c1.305-0.072,2.594-0.213,3.098-0.08
	c0.926,0.241,1.307,0.833,0.85,1.325c-0.457,0.489-1.576,0.689-2.504,0.449c-0.52-0.137-1.801-0.631-2.566-1.073
	C73.465,229.562,72.996,229.16,72.996,229.16z"/>
<path fill="#697B27" d="M73.008,229.176c0,0,1.309,0.348,2.229,0.445c1.102,0.116,2.15,0.206,2.674,0.314
	c0.965,0.194,1.441,0.31,1.342,0.446c-0.098,0.136-0.273,0.021-1.459-0.15c-0.562-0.079-2.211-0.245-3.162-0.499
	C73.895,229.535,73.008,229.176,73.008,229.176z"/>
<path fill="#697B27" d="M76.395,227.933c0,0,0.975,0.328,2.057,0.416c1.297,0.102,2.611,0.139,3.037,0.334
	c0.781,0.357,0.867,0.98,0.191,1.394c-0.674,0.414-1.855,0.458-2.637,0.102c-0.438-0.2-1.445-0.849-1.975-1.379
	C76.658,228.384,76.395,227.933,76.395,227.933z"/>
<path fill="#697B27" d="M76.4,227.948c0,0,1.102,0.513,1.947,0.729c1.008,0.259,1.98,0.485,2.438,0.659
	c0.84,0.316,1.246,0.492,1.084,0.611c-0.158,0.119-0.273-0.017-1.34-0.34c-0.504-0.151-2.023-0.532-2.82-0.904
	C77.088,228.413,76.4,227.948,76.4,227.948z"/>
<path fill="#697B27" d="M80.561,227.368c0,0,0.871,0.401,1.922,0.567c1.256,0.2,2.547,0.338,2.914,0.563
	c0.674,0.412,0.592,1.037-0.191,1.394c-0.777,0.357-1.959,0.312-2.635-0.099c-0.379-0.233-1.197-0.95-1.578-1.517
	C80.697,227.836,80.561,227.368,80.561,227.368z"/>
<path fill="#697B27" d="M80.561,227.386c0,0,0.951,0.59,1.729,0.869c0.928,0.333,1.828,0.631,2.232,0.84
	c0.746,0.377,1.1,0.58,0.91,0.688c-0.191,0.104-0.268-0.039-1.236-0.438c-0.457-0.19-1.859-0.683-2.547-1.111
	C81.115,227.898,80.561,227.386,80.561,227.386z"/>
<path fill="#697B27" d="M98.439,229.159c0,0-1.098,0.189-2.188,0.127c-1.303-0.071-2.594-0.213-3.098-0.079
	c-0.926,0.241-1.305,0.833-0.85,1.324c0.457,0.488,1.578,0.69,2.504,0.448c0.52-0.135,1.801-0.629,2.568-1.072
	C97.971,229.562,98.439,229.159,98.439,229.159z"/>
<path fill="#697B27" d="M98.428,229.174c0,0-1.309,0.35-2.23,0.447c-1.102,0.116-2.15,0.206-2.676,0.314
	c-0.961,0.194-1.439,0.308-1.34,0.446c0.098,0.135,0.275,0.018,1.461-0.152c0.559-0.079,2.211-0.243,3.16-0.498
	C97.539,229.533,98.428,229.174,98.428,229.174z"/>
<path fill="#697B27" d="M95.039,227.932c0,0-0.973,0.329-2.057,0.414c-1.299,0.103-2.613,0.141-3.037,0.336
	c-0.779,0.356-0.865,0.98-0.189,1.395c0.674,0.412,1.855,0.458,2.635,0.102c0.438-0.202,1.443-0.849,1.975-1.38
	C94.777,228.384,95.039,227.932,95.039,227.932z"/>
<path fill="#697B27" d="M95.035,227.948c0,0-1.104,0.513-1.947,0.729c-1.01,0.258-1.982,0.485-2.438,0.658
	c-0.842,0.317-1.246,0.493-1.088,0.61c0.16,0.12,0.275-0.015,1.342-0.338c0.506-0.154,2.023-0.532,2.822-0.904
	C94.346,228.413,95.035,227.948,95.035,227.948z"/>
<path fill="#697B27" d="M91.357,227.368c0,0-0.875,0.401-1.924,0.567c-1.256,0.2-2.545,0.338-2.912,0.563
	c-0.678,0.412-0.594,1.037,0.189,1.394c0.779,0.357,1.959,0.312,2.637-0.099c0.377-0.233,1.197-0.95,1.576-1.517
	C91.219,227.836,91.357,227.368,91.357,227.368z"/>
<path fill="#697B27" d="M91.355,227.386c0,0-0.949,0.59-1.727,0.869c-0.93,0.333-1.83,0.631-2.234,0.84
	c-0.746,0.377-1.1,0.58-0.908,0.688c0.189,0.104,0.266-0.039,1.236-0.438c0.455-0.19,1.855-0.683,2.545-1.111
	C90.803,227.898,91.355,227.386,91.355,227.386z"/>
<path fill="#557329" d="M88.387,224.722c0,0,1.482,1.866,1.844,2.531c0.621,1.131,1.779,4.689,1.779,4.689l-1.062,0.118
	L88.387,224.722z"/>
<path fill="#5F7D2A" d="M91.422,226.002c0,0-2.15,1.516-2.758,2.085c-1.037,0.974-3.529,4.178-3.529,4.178l0.977,0.312
	L91.422,226.002z"/>
<path fill="#FDCD00" d="M89.859,226.846c0.141,0.746,0.926,1.582,1.752,1.87c0.826,0.291,1.381-0.08,1.24-0.826
	c-0.143-0.745-0.928-1.581-1.754-1.87C90.27,225.731,89.717,226.103,89.859,226.846z"/>
<path fill="#512B10" d="M90.963,227.231c0.039,0.193,0.242,0.414,0.459,0.488c0.217,0.079,0.359-0.021,0.324-0.216
	c-0.037-0.193-0.242-0.412-0.459-0.487C91.072,226.94,90.926,227.037,90.963,227.231z"/>
<path fill="#FDCD00" d="M88.701,229.134c0.141,0.745,0.926,1.582,1.752,1.87c0.828,0.29,1.383-0.08,1.242-0.826
	c-0.143-0.745-0.928-1.581-1.754-1.87C89.113,228.02,88.559,228.391,88.701,229.134z"/>
<path fill="#512B10" d="M89.807,229.52c0.037,0.195,0.242,0.413,0.457,0.488c0.217,0.078,0.361-0.021,0.326-0.216
	c-0.039-0.195-0.244-0.413-0.459-0.488C89.916,229.228,89.77,229.325,89.807,229.52z"/>
<path fill="#FDCD00" d="M86.023,228.961c0.611,0.447,1.756,0.525,2.557,0.175c0.801-0.352,0.955-1,0.346-1.45
	c-0.611-0.448-1.754-0.526-2.559-0.175C85.566,227.862,85.412,228.513,86.023,228.961z"/>
<path fill="#512B10" d="M87.096,228.49c0.158,0.116,0.457,0.137,0.668,0.045c0.209-0.093,0.25-0.261,0.09-0.378
	s-0.459-0.138-0.668-0.046C86.975,228.202,86.934,228.37,87.096,228.49z"/>
<path fill="#FDCD00" d="M83.395,229.388c0.611,0.448,1.756,0.527,2.559,0.178c0.801-0.351,0.955-1.001,0.344-1.45
	c-0.609-0.449-1.756-0.528-2.557-0.176C82.939,228.291,82.785,228.94,83.395,229.388z"/>
<path fill="#512B10" d="M84.469,228.919c0.156,0.115,0.457,0.138,0.666,0.046c0.211-0.092,0.25-0.263,0.09-0.379
	c-0.16-0.117-0.457-0.138-0.668-0.046S84.307,228.8,84.469,228.919z"/>
<path fill="#FDCD00" d="M78.686,229.412c0.754,0.09,1.789-0.405,2.314-1.105s0.338-1.342-0.414-1.433
	c-0.754-0.088-1.787,0.407-2.311,1.105C77.75,228.683,77.936,229.323,78.686,229.412z"/>
<path fill="#512B10" d="M79.389,228.475c0.195,0.024,0.467-0.106,0.604-0.289c0.139-0.183,0.09-0.35-0.107-0.371
	c-0.197-0.026-0.467,0.103-0.604,0.286C79.143,228.284,79.191,228.451,79.389,228.475z"/>
<path fill="#FDCD00" d="M81.156,231.115c0.754,0.09,1.787-0.404,2.312-1.106c0.523-0.7,0.338-1.342-0.412-1.432
	c-0.754-0.089-1.789,0.406-2.314,1.105C80.219,230.386,80.404,231.025,81.156,231.115z"/>
<path fill="#512B10" d="M81.857,230.178c0.195,0.023,0.467-0.106,0.605-0.288c0.137-0.185,0.088-0.352-0.109-0.375
	c-0.197-0.024-0.469,0.106-0.604,0.29C81.613,229.987,81.66,230.154,81.857,230.178z"/>
<path fill="#65832B" d="M95.133,221.731c0,0-2.506,3.594-3.277,5.967c-0.385,1.184-0.717,4.825-0.717,4.825h1.127
	c0,0,0.451-3.169,0.871-4.741C93.436,226.657,95.133,221.731,95.133,221.731z"/>
<ellipse fill="#68842B" cx="91.445" cy="232.429" rx="0.82" ry="0.49"/>
<path fill="#5F7D2A" d="M97.531,225.86c0,0-2.15,1.515-2.758,2.084c-1.037,0.973-3.529,4.176-3.529,4.176l0.977,0.313L97.531,225.86
	z"/>
<path fill="#68842B" d="M85.65,224.544c0,0,2.229,1.938,2.836,2.647c1.031,1.211,3.369,5.132,3.369,5.132l-1.188,0.28L85.65,224.544
	z"/>
<path fill="#68842B" d="M86.314,228.636c0,0,1.572,0.826,1.98,1.148c0.697,0.553,2.162,2.436,2.162,2.436l-0.963,0.264
	L86.314,228.636z"/>
<path fill="#65832B" d="M84.104,223.303c0,0-2.508,2.925-3.279,4.859c-0.385,0.965-0.717,3.93-0.717,3.93h1.129
	c0,0,0.451-2.581,0.869-3.862C82.404,227.315,84.104,223.303,84.104,223.303z"/>
<path fill="#68842B" d="M74.619,224.112c0,0,2.229,1.937,2.836,2.646c1.031,1.213,3.369,5.133,3.369,5.133l-1.188,0.282
	L74.619,224.112z"/>
<path fill="#557329" d="M82.277,224.865c0,0,1.482,1.866,1.846,2.53c0.619,1.132,1.777,4.69,1.777,4.69l-1.062,0.116L82.277,224.865
	z"/>
<path fill="#65832B" d="M89.023,223.759c0,0-2.506,2.965-3.277,4.924c-0.385,0.979-0.717,3.984-0.717,3.984h1.127
	c0,0,0.451-2.616,0.871-3.914C87.326,227.823,89.023,223.759,89.023,223.759z"/>
<path fill="#68842B" d="M79.541,224.687c0,0,2.229,1.938,2.836,2.647c1.031,1.212,3.369,5.132,3.369,5.132l-1.188,0.282
	L79.541,224.687z"/>
<path fill="#849926" d="M86.219,237.099c0,0,0.111-0.865,0.643-1.523c0.635-0.789,1.379-1.515,1.354-1.947
	c-0.049-0.796-0.902-1.525-1.912-1.621c-1.01-0.1-1.787,0.465-1.744,1.264c0.027,0.445,0.361,1.679,0.811,2.534
	C85.723,236.472,86.219,237.099,86.219,237.099z"/>
<path fill="#697B27" d="M86.199,237.08c0,0-0.076-1.134,0.119-1.81c0.234-0.809,0.494-1.565,0.516-1.992
	c0.051-0.782,0.041-1.187-0.229-1.232c-0.268-0.047-0.141,0.163-0.318,1.07c-0.084,0.429-0.453,1.637-0.395,2.457
	C85.939,236.215,86.199,237.08,86.199,237.08z"/>
<path fill="#849926" d="M98.811,232.979c0,0-1.098-0.355-2.188-0.24c-1.305,0.14-2.592,0.401-3.098,0.152
	c-0.924-0.457-1.305-1.576-0.85-2.503c0.457-0.925,1.58-1.305,2.504-0.848c0.52,0.256,1.803,1.188,2.568,2.025
	C98.342,232.22,98.811,232.979,98.811,232.979z"/>
<path fill="#697B27" d="M98.797,232.949c0,0-1.307-0.655-2.229-0.842c-1.1-0.22-2.15-0.392-2.674-0.593
	c-0.965-0.368-1.439-0.586-1.342-0.844c0.1-0.256,0.275-0.039,1.461,0.283c0.561,0.152,2.209,0.463,3.16,0.944
	C97.91,232.271,98.797,232.949,98.797,232.949z"/>
<path fill="#849926" d="M95.41,235.299c0,0-0.973-0.621-2.057-0.784c-1.297-0.194-2.611-0.265-3.037-0.632
	c-0.781-0.676-0.867-1.854-0.189-2.637c0.674-0.779,1.854-0.864,2.635-0.189c0.438,0.379,1.445,1.603,1.977,2.605
	C95.148,234.444,95.41,235.299,95.41,235.299z"/>
<path fill="#697B27" d="M95.404,235.268c0,0-1.1-0.965-1.945-1.377c-1.01-0.488-1.982-0.919-2.439-1.246
	c-0.838-0.6-1.246-0.93-1.084-1.154c0.16-0.225,0.275,0.031,1.34,0.642c0.506,0.288,2.023,1.004,2.822,1.708
	C94.717,234.388,95.404,235.268,95.404,235.268z"/>
<path fill="#849926" d="M91.244,236.362c0,0-0.871-0.755-1.922-1.071c-1.256-0.378-2.547-0.638-2.914-1.062
	c-0.674-0.783-0.592-1.96,0.191-2.635c0.779-0.676,1.959-0.592,2.637,0.188c0.379,0.441,1.197,1.796,1.578,2.864
	C91.107,235.481,91.244,236.362,91.244,236.362z"/>
<path fill="#697B27" d="M91.244,236.332c0,0-0.949-1.116-1.727-1.642c-0.93-0.63-1.83-1.196-2.232-1.587
	c-0.746-0.713-1.102-1.099-0.908-1.297c0.188-0.199,0.266,0.071,1.232,0.827c0.457,0.358,1.859,1.286,2.547,2.096
	C90.691,235.361,91.244,236.332,91.244,236.332z"/>
<path fill="#849926" d="M73.367,232.979c0,0,1.096-0.356,2.186-0.239c1.305,0.139,2.596,0.401,3.098,0.152
	c0.928-0.457,1.309-1.577,0.85-2.503c-0.457-0.925-1.578-1.304-2.502-0.85c-0.52,0.259-1.803,1.189-2.568,2.027
	C73.836,232.221,73.367,232.979,73.367,232.979z"/>
<path fill="#697B27" d="M73.379,232.951c0,0,1.309-0.657,2.229-0.841c1.102-0.221,2.15-0.392,2.676-0.595
	c0.963-0.367,1.439-0.587,1.34-0.842c-0.098-0.259-0.271-0.04-1.461,0.283c-0.559,0.151-2.209,0.462-3.158,0.942
	C74.266,232.273,73.379,232.951,73.379,232.951z"/>
<path fill="#849926" d="M76.766,235.3c0,0,0.973-0.621,2.059-0.785c1.297-0.191,2.611-0.262,3.035-0.631
	c0.781-0.676,0.867-1.855,0.191-2.636c-0.676-0.779-1.855-0.866-2.637-0.19c-0.438,0.38-1.443,1.603-1.973,2.607
	C77.029,234.446,76.766,235.3,76.766,235.3z"/>
<path fill="#697B27" d="M76.771,235.27c0,0,1.102-0.967,1.945-1.378c1.01-0.489,1.982-0.918,2.439-1.246
	c0.84-0.6,1.246-0.931,1.086-1.154s-0.275,0.032-1.342,0.641c-0.504,0.289-2.023,1.006-2.822,1.709
	C77.459,234.388,76.771,235.27,76.771,235.27z"/>
<path fill="#849926" d="M80.449,236.362c0,0,0.873-0.755,1.922-1.071c1.256-0.378,2.549-0.638,2.914-1.062
	c0.676-0.783,0.592-1.96-0.191-2.635c-0.779-0.676-1.959-0.592-2.633,0.188c-0.381,0.441-1.201,1.796-1.58,2.864
	C80.586,235.481,80.449,236.362,80.449,236.362z"/>
<path fill="#697B27" d="M80.451,236.332c0,0,0.949-1.116,1.727-1.642c0.928-0.63,1.828-1.196,2.234-1.587
	c0.744-0.713,1.098-1.099,0.906-1.297c-0.189-0.199-0.266,0.071-1.234,0.827c-0.457,0.358-1.857,1.286-2.545,2.096
	C81.004,235.361,80.451,236.332,80.451,236.332z"/>
<path fill="#C2C2C1" d="M66.301,213.118c-0.289,0.219-0.568,0.501-0.787,0.756c-0.6-0.095-1.238-0.183-1.85-0.238
	c-1.115-0.096-2.311-0.129-2.486-0.134c-0.006-0.003-0.02-0.006-0.02-0.006l0.01,0.006c-0.01,0-0.061-0.003-0.061-0.003
	s0.834,0.385,0.885,0.866c0.043,0.38,0.01,0.753,0.119,1.021c-0.414-0.013-0.826-0.022-1.213-0.023
	c-1.277-0.001-2.576,0.062-2.762,0.07c-0.006-0.001-0.021,0-0.021,0h0.01c-0.008,0.003-0.061,0.003-0.061,0.003
	s1.236,0.273,1.746,0.694c0.381,0.316,0.688,0.645,1.031,0.872c-0.268,0.006-0.535,0.011-0.785,0.021
	c-1.254,0.052-2.539,0.163-2.842,0.188h-0.02l0.01-0.001c-0.037,0.005-0.059,0.008-0.059,0.008s1.432,0.202,2.186,0.572
	c0.678,0.334,1.248,0.691,1.818,0.878c-0.68,0.15-1.4,0.323-1.99,0.494c-0.941,0.276-1.771,0.582-1.887,0.625
	c-0.006,0.002-0.018,0.004-0.018,0.004l0.01-0.002c-0.006,0.002-0.039,0.014-0.039,0.014s1.445-0.143,2.643-0.062
	c0.512,0.032,0.998,0.07,1.463,0.104c-0.154,0.258-0.273,0.561-0.445,0.868c-0.283,0.509-1.326,1.042-1.326,1.042
	s0.021-0.004,0.059-0.009l-0.01,0.004c0,0,0.014-0.007,0.018-0.004c0.291-0.059,1.512-0.281,2.65-0.549
	c0.314-0.071,0.641-0.158,0.967-0.245c-0.281,0.294-0.156,0.782-0.182,1.282c-0.025,0.493-0.824,1.038-0.824,1.038
	s0.047-0.012,0.057-0.014l-0.008,0.004c0,0,0.012-0.004,0.016-0.006c0.17-0.038,1.359-0.308,2.467-0.625
	c0.336-0.098,0.682-0.21,1.029-0.323c0.17,0.255,0.57,0.576,0.91,0.914c0.436,0.433,0.096,0.971,0.096,0.971
	s0.041-0.014,0.049-0.017l-0.004,0.005c0,0,0.008-0.006,0.012-0.005c0.146-0.049,1.15-0.375,2.023-0.738
	c0.58-0.246,1.164-0.542,1.654-0.819c0.326,0.112,0.662,0.219,0.982,0.3c0.648,0.161,1.326,0.263,1.426,0.277l0.012,0.005
	l-0.008-0.005c0.008,0.001,0.035,0.005,0.035,0.005s-0.557-0.42-0.699-0.891c-0.064-0.214-0.115-0.421-0.17-0.616l6.076,0.402
	c0,0-2.967-0.571-4.035-0.702c-0.047-0.007-0.123-0.013-0.174-0.017c-0.256-0.137-0.637-0.369-0.879-0.642
	c0.338-0.023,0.666-0.048,0.951-0.065c1.914-0.123,10.371-0.486,10.371-0.486s-5.434-0.225-9.475-0.109
	c0.947-0.162,1.781-0.316,2.328-0.432c1.336-0.284,5.074-1.328,5.074-1.328l-6.693,1.069c-0.004-0.001-0.006-0.001-0.01-0.003
	c0.27-0.168,0.479-0.335,0.588-0.494c0.068-0.096,0.084-0.178,0.078-0.256c0.576-0.21,1.096-0.404,1.404-0.519
	c1.166-0.031,2.014-0.05,2.014-0.05s-1.871-0.14-4.09-0.232c1.023-0.495,2.049-1.016,2.049-1.016l-1.549,0.497
	c-0.33-0.065-0.902-0.173-1.545-0.289c1.111-0.343,2.346-0.756,2.346-0.756l-2.744,0.467c-0.098-0.111-0.242-0.211-0.422-0.304
	c0.387-0.138,0.799-0.284,1.186-0.428c2.209-0.059,4.416-0.108,4.416-0.108s-1.572-0.122-3.533-0.215
	c0.334-0.127,0.564-0.212,0.564-0.212l-0.846,0.196c-0.391-0.017-0.783-0.03-1.193-0.048c0.244-0.11,0.391-0.241,0.379-0.391
	c-0.002-0.07-0.098-0.133-0.158-0.202c0.152-0.074,0.293-0.144,0.432-0.215c1.311-0.37,2.957-0.89,2.957-0.89l-4.119,0.686
	c-0.215-0.074-0.471-0.137-0.75-0.196c1.215-0.407,3.141-1.136,3.141-1.136l-4.16,0.974c-0.234-0.027-0.459-0.062-0.711-0.077
	c0,0-0.006,0.003-0.008,0c0.338-0.117,0.627-0.225,0.85-0.314c1.029-0.41,3.707-1.77,3.707-1.77l-6.033,1.93
	c0.072-0.206,0.164-0.348,0.164-0.348s-0.021,0.006-0.025,0.007l0.004-0.002l-0.01,0.005c-0.078,0.023-0.688,0.217-1.238,0.462
	c-0.164,0.075-0.334,0.162-0.498,0.252c-0.158-0.259-0.455-0.589-0.725-0.938c-0.344-0.444-0.281-0.947-0.281-0.947
	s-0.018,0.012-0.023,0.013v-0.004l-0.004,0.007C67.191,212.561,66.707,212.815,66.301,213.118z M69.086,218.564
	c-0.283-0.021-0.564-0.041-0.846-0.06c0.307-0.022,0.613-0.047,0.914-0.067C69.115,218.478,69.111,218.523,69.086,218.564z
	 M68.479,219.025l-1.213,0.47c0.186-0.218,0.098-0.42-0.275-0.569L68.479,219.025z M73.248,218.24l-0.992,0.317
	c-0.096-0.078-0.191-0.151-0.285-0.218c0.275-0.008,0.545-0.037,0.803-0.083C72.93,218.252,73.084,218.245,73.248,218.24z
	 M67.141,220.15c0.691-0.267,1.596-0.623,2.17-0.889c0.082,0.054,0.184,0.101,0.295,0.146l-2.299,0.735
	c-0.018-0.001-0.025-0.003-0.047-0.003C67.223,220.137,67.182,220.149,67.141,220.15z M74.008,216.032l-0.752,0.176
	c-0.225-0.06-0.455-0.107-0.701-0.135C73.002,216.061,73.496,216.046,74.008,216.032z M74.643,217.795
	c-0.219-0.008-0.438-0.017-0.656-0.021c0.236-0.171,0.355-0.356,0.385-0.544l1.682,0.112L74.643,217.795z M77.527,218.121
	l-1.342,0.314c-0.236-0.166-0.773-0.221-1.514-0.147c0.072-0.031,0.139-0.062,0.211-0.096
	C75.795,218.167,76.725,218.143,77.527,218.121z M65.658,220.245c0.002-0.003,0.004-0.002,0.006-0.003l0.004,0.001
	C65.668,220.243,65.662,220.243,65.658,220.245z M64.963,217.053c0.145-0.036,0.26-0.081,0.393-0.12
	c0.062-0.007,0.133-0.01,0.18-0.029c0.066-0.021,0.09-0.037,0.096-0.055c0.01-0.002,0.016-0.002,0.021-0.005l1.672,0.243
	l-0.984,0.315c-0.203-0.162-0.596-0.291-1.232-0.342C65.068,217.058,65.01,217.055,64.963,217.053z"/>
<path fill="#415920" d="M56.957,211.116c0,0,1.217,2.021,1.455,2.722c0.404,1.189,0.736,4.835,0.736,4.835l-1.303-0.02
	L56.957,211.116z"/>
<path fill="#557329" d="M55.008,211.903c0,0,1.48,1.868,1.844,2.532c0.621,1.131,1.781,4.689,1.781,4.689l-1.064,0.118
	L55.008,211.903z"/>
<path fill="#5F7D2A" d="M64.152,213.044c0,0-2.152,1.514-2.758,2.083c-1.037,0.974-3.531,4.177-3.531,4.177l0.979,0.314
	L64.152,213.044z"/>
<path fill="#5F7D2A" d="M63.01,216.299c0,0-1.572,0.521-1.992,0.747c-0.719,0.392-2.312,1.819-2.312,1.819l0.875,0.335
	L63.01,216.299z"/>
<path fill="#415920" d="M61.865,212.417c0,0,1.221,1.831,1.461,2.463c0.404,1.077,0.742,4.365,0.742,4.365l-1.303-0.018
	L61.865,212.417z"/>
<path fill="#415920" d="M68.016,209.961c0,0,1.209,2.442,1.445,3.289c0.4,1.44,0.717,5.853,0.717,5.853l-1.303-0.017L68.016,209.961
	z"/>
<path fill="#697B27" d="M63.238,214.595c0,0-0.111,0.456-0.643,0.805c-0.637,0.418-1.379,0.803-1.352,1.032
	c0.047,0.421,0.9,0.807,1.912,0.858c1.006,0.052,1.787-0.246,1.742-0.67c-0.029-0.236-0.359-0.889-0.811-1.342
	C63.734,214.926,63.238,214.595,63.238,214.595z"/>
<path fill="#697B27" d="M63.258,214.603c0,0,0.076,0.602-0.119,0.959c-0.234,0.429-0.492,0.828-0.518,1.055
	c-0.047,0.415-0.039,0.627,0.23,0.653c0.27,0.024,0.143-0.087,0.32-0.567c0.082-0.227,0.451-0.866,0.395-1.3
	C63.52,215.062,63.258,214.603,63.258,214.603z"/>
<path fill="#697B27" d="M50.646,216.774c0,0,1.098,0.188,2.188,0.128c1.303-0.074,2.594-0.213,3.098-0.082
	c0.926,0.242,1.307,0.836,0.848,1.325c-0.455,0.49-1.576,0.69-2.502,0.45c-0.52-0.138-1.801-0.631-2.568-1.072
	C51.115,217.178,50.646,216.774,50.646,216.774z"/>
<path fill="#697B27" d="M50.658,216.79c0,0,1.311,0.347,2.23,0.446c1.102,0.116,2.15,0.206,2.676,0.312
	c0.961,0.196,1.439,0.312,1.34,0.447c-0.098,0.136-0.273,0.021-1.461-0.149c-0.559-0.081-2.211-0.246-3.16-0.5
	C51.547,217.149,50.658,216.79,50.658,216.79z"/>
<path fill="#697B27" d="M54.047,215.549c0,0,0.973,0.328,2.057,0.413c1.299,0.104,2.613,0.141,3.037,0.336
	c0.779,0.358,0.865,0.98,0.189,1.394c-0.674,0.413-1.855,0.458-2.635,0.101c-0.438-0.2-1.443-0.848-1.975-1.379
	C54.309,215.998,54.047,215.549,54.047,215.549z"/>
<path fill="#697B27" d="M54.051,215.562c0,0,1.104,0.513,1.947,0.729c1.008,0.259,1.982,0.486,2.438,0.66
	c0.842,0.317,1.246,0.492,1.088,0.612c-0.16,0.117-0.275-0.019-1.342-0.341c-0.506-0.152-2.023-0.532-2.822-0.904
	C54.74,216.028,54.051,215.562,54.051,215.562z"/>
<path fill="#697B27" d="M58.211,214.983c0,0,0.875,0.399,1.922,0.566c1.258,0.202,2.547,0.338,2.914,0.563
	c0.678,0.414,0.594,1.037-0.189,1.395c-0.779,0.357-1.961,0.312-2.637-0.1c-0.377-0.233-1.197-0.95-1.578-1.517
	C58.35,215.45,58.211,214.983,58.211,214.983z"/>
<path fill="#697B27" d="M58.211,215.002c0,0,0.951,0.589,1.729,0.868c0.928,0.332,1.83,0.632,2.234,0.839
	c0.744,0.378,1.098,0.581,0.908,0.687c-0.191,0.106-0.268-0.037-1.236-0.438c-0.455-0.188-1.855-0.681-2.547-1.111
	C58.766,215.513,58.211,215.002,58.211,215.002z"/>
<path fill="#697B27" d="M76.09,216.774c0,0-1.096,0.188-2.186,0.128c-1.305-0.074-2.594-0.213-3.098-0.082
	c-0.926,0.242-1.307,0.836-0.85,1.325c0.457,0.488,1.578,0.69,2.504,0.449c0.52-0.137,1.801-0.63,2.566-1.073
	C75.621,217.178,76.09,216.774,76.09,216.774z"/>
<path fill="#697B27" d="M76.078,216.788c0,0-1.309,0.349-2.229,0.448c-1.102,0.116-2.15,0.206-2.674,0.312
	c-0.965,0.196-1.441,0.31-1.342,0.447c0.098,0.136,0.273,0.019,1.459-0.151c0.562-0.08,2.211-0.244,3.162-0.498
	C75.191,217.148,76.078,216.788,76.078,216.788z"/>
<path fill="#697B27" d="M72.689,215.546c0,0-0.973,0.331-2.055,0.415c-1.297,0.104-2.611,0.14-3.037,0.334
	c-0.781,0.358-0.867,0.982-0.191,1.396c0.674,0.411,1.855,0.458,2.637,0.101c0.438-0.201,1.445-0.848,1.975-1.38
	C72.428,215.998,72.689,215.546,72.689,215.546z"/>
<path fill="#697B27" d="M72.686,215.562c0,0-1.1,0.513-1.947,0.729c-1.008,0.259-1.98,0.487-2.438,0.659
	c-0.84,0.319-1.246,0.494-1.084,0.611c0.158,0.12,0.273-0.016,1.34-0.338c0.504-0.154,2.023-0.532,2.82-0.904
	C71.996,216.028,72.686,215.562,72.686,215.562z"/>
<path fill="#697B27" d="M69.008,214.983c0,0-0.873,0.399-1.922,0.566c-1.256,0.202-2.547,0.338-2.914,0.563
	c-0.676,0.414-0.592,1.037,0.189,1.395c0.779,0.357,1.961,0.312,2.637-0.1c0.379-0.233,1.197-0.95,1.578-1.517
	C68.871,215.45,69.008,214.983,69.008,214.983z"/>
<path fill="#697B27" d="M69.008,215.002c0,0-0.951,0.589-1.729,0.868c-0.928,0.332-1.83,0.632-2.234,0.839
	c-0.744,0.378-1.098,0.581-0.908,0.687c0.191,0.106,0.268-0.037,1.236-0.438c0.457-0.188,1.857-0.681,2.547-1.111
	C68.453,215.513,69.008,215.002,69.008,215.002z"/>
<path fill="#557329" d="M66.037,212.336c0,0,1.482,1.866,1.846,2.53c0.621,1.132,1.779,4.69,1.779,4.69l-1.062,0.118L66.037,212.336
	z"/>
<path fill="#5F7D2A" d="M69.072,213.616c0,0-2.15,1.517-2.758,2.086c-1.035,0.973-3.529,4.176-3.529,4.176l0.979,0.314
	L69.072,213.616z"/>
<path fill="#FDCD00" d="M67.51,214.461c0.143,0.746,0.926,1.581,1.754,1.871c0.824,0.288,1.381-0.082,1.24-0.827
	c-0.143-0.746-0.928-1.581-1.756-1.871C67.924,213.347,67.367,213.719,67.51,214.461z"/>
<path fill="#512B10" d="M68.615,214.847c0.037,0.193,0.242,0.414,0.457,0.489c0.217,0.076,0.363-0.021,0.324-0.218
	c-0.037-0.194-0.242-0.411-0.457-0.486C68.723,214.557,68.578,214.652,68.615,214.847z"/>
<path fill="#FDCD00" d="M66.354,216.749c0.143,0.745,0.926,1.583,1.752,1.869c0.826,0.29,1.383-0.081,1.24-0.826
	c-0.143-0.743-0.926-1.581-1.754-1.869C66.766,215.636,66.211,216.005,66.354,216.749z"/>
<path fill="#512B10" d="M67.457,217.134c0.039,0.194,0.242,0.415,0.459,0.489c0.217,0.077,0.361-0.021,0.324-0.216
	s-0.242-0.414-0.457-0.488C67.566,216.844,67.42,216.94,67.457,217.134z"/>
<path fill="#FDCD00" d="M63.674,216.575c0.611,0.448,1.756,0.525,2.559,0.175c0.801-0.351,0.957-1.001,0.346-1.45
	c-0.611-0.447-1.756-0.525-2.559-0.175C63.217,215.478,63.062,216.128,63.674,216.575z"/>
<path fill="#512B10" d="M64.746,216.104c0.16,0.116,0.459,0.137,0.67,0.046c0.209-0.093,0.248-0.261,0.09-0.379
	c-0.162-0.117-0.461-0.138-0.668-0.044C64.627,215.817,64.586,215.986,64.746,216.104z"/>
<path fill="#FDCD00" d="M61.047,217.003c0.611,0.448,1.756,0.528,2.557,0.176c0.803-0.351,0.955-1.001,0.348-1.449
	c-0.613-0.447-1.756-0.527-2.561-0.177C60.59,215.906,60.436,216.557,61.047,217.003z"/>
<path fill="#512B10" d="M62.119,216.532c0.158,0.117,0.459,0.138,0.668,0.047c0.209-0.093,0.25-0.262,0.09-0.379
	s-0.459-0.139-0.666-0.046C61.998,216.245,61.957,216.415,62.119,216.532z"/>
<path fill="#FDCD00" d="M56.34,217.027c0.752,0.089,1.785-0.406,2.311-1.106c0.525-0.701,0.34-1.343-0.414-1.431
	c-0.75-0.09-1.785,0.405-2.311,1.104C55.4,216.298,55.586,216.937,56.34,217.027z"/>
<path fill="#512B10" d="M57.041,216.09c0.195,0.023,0.467-0.106,0.602-0.29c0.141-0.184,0.09-0.351-0.105-0.372
	c-0.197-0.024-0.469,0.104-0.604,0.288C56.795,215.899,56.844,216.065,57.041,216.09z"/>
<path fill="#FDCD00" d="M58.807,218.729c0.754,0.09,1.789-0.405,2.314-1.105c0.523-0.7,0.338-1.342-0.414-1.433
	c-0.754-0.089-1.789,0.407-2.312,1.107C57.869,218,58.055,218.64,58.807,218.729z"/>
<path fill="#512B10" d="M59.51,217.792c0.195,0.023,0.467-0.105,0.604-0.289c0.139-0.184,0.09-0.351-0.109-0.373
	c-0.197-0.023-0.467,0.106-0.602,0.289C59.264,217.603,59.312,217.77,59.51,217.792z"/>
<path fill="#65832B" d="M72.785,209.347c0,0-2.508,3.594-3.277,5.968c-0.385,1.182-0.719,4.825-0.719,4.825h1.129
	c0,0,0.451-3.17,0.869-4.741C71.086,214.273,72.785,209.347,72.785,209.347z"/>
<ellipse fill="#68842B" cx="69.098" cy="220.044" rx="0.82" ry="0.49"/>
<path fill="#5F7D2A" d="M75.182,213.474c0,0-2.15,1.517-2.758,2.087c-1.033,0.972-3.529,4.176-3.529,4.176l0.979,0.312
	L75.182,213.474z"/>
<path fill="#68842B" d="M63.301,212.158c0,0,2.23,1.937,2.836,2.648c1.031,1.21,3.371,5.131,3.371,5.131l-1.188,0.281
	L63.301,212.158z"/>
<path fill="#68842B" d="M63.967,216.25c0,0,1.57,0.827,1.979,1.149c0.697,0.552,2.162,2.437,2.162,2.437l-0.961,0.263L63.967,216.25
	z"/>
<path fill="#65832B" d="M61.756,210.919c0,0-2.508,2.925-3.279,4.858c-0.385,0.963-0.717,3.93-0.717,3.93h1.127
	c0,0,0.453-2.582,0.871-3.862C60.057,214.932,61.756,210.919,61.756,210.919z"/>
<path fill="#68842B" d="M52.27,211.728c0,0,2.232,1.936,2.836,2.646c1.033,1.213,3.371,5.133,3.371,5.133l-1.188,0.281
	L52.27,211.728z"/>
<path fill="#557329" d="M59.928,212.479c0,0,1.482,1.868,1.846,2.532c0.621,1.131,1.779,4.688,1.779,4.688l-1.062,0.118
	L59.928,212.479z"/>
<path fill="#65832B" d="M66.676,211.374c0,0-2.508,2.964-3.277,4.925c-0.385,0.979-0.719,3.983-0.719,3.983h1.129
	c0,0,0.453-2.617,0.869-3.915C64.977,215.439,66.676,211.374,66.676,211.374z"/>
<path fill="#68842B" d="M57.191,212.303c0,0,2.23,1.936,2.836,2.646c1.031,1.213,3.371,5.132,3.371,5.132l-1.188,0.282
	L57.191,212.303z"/>
<path fill="#849926" d="M63.871,224.715c0,0,0.111-0.866,0.643-1.524c0.635-0.788,1.377-1.516,1.352-1.947
	c-0.049-0.798-0.9-1.524-1.912-1.622c-1.008-0.1-1.787,0.465-1.742,1.265c0.027,0.446,0.359,1.68,0.809,2.534
	C63.373,224.087,63.871,224.715,63.871,224.715z"/>
<path fill="#697B27" d="M63.852,224.694c0,0-0.078-1.133,0.119-1.809c0.234-0.809,0.492-1.566,0.518-1.991
	c0.047-0.783,0.039-1.188-0.23-1.233s-0.143,0.162-0.32,1.07c-0.082,0.428-0.453,1.635-0.395,2.458
	C63.59,223.829,63.852,224.694,63.852,224.694z"/>
<path fill="#849926" d="M76.463,220.594c0,0-1.1-0.357-2.189-0.241c-1.303,0.14-2.592,0.402-3.096,0.154
	c-0.926-0.458-1.307-1.578-0.85-2.504s1.578-1.305,2.504-0.849c0.52,0.257,1.801,1.189,2.566,2.025
	C75.994,219.836,76.463,220.594,76.463,220.594z"/>
<path fill="#697B27" d="M76.449,220.564c0,0-1.309-0.656-2.229-0.843c-1.102-0.219-2.15-0.39-2.676-0.592
	c-0.963-0.369-1.439-0.586-1.34-0.844c0.098-0.257,0.273-0.038,1.459,0.283c0.561,0.152,2.213,0.463,3.162,0.943
	C75.562,219.886,76.449,220.564,76.449,220.564z"/>
<path fill="#849926" d="M73.061,222.913c0,0-0.971-0.621-2.055-0.784c-1.299-0.193-2.613-0.264-3.037-0.631
	c-0.779-0.677-0.867-1.855-0.189-2.637c0.672-0.779,1.854-0.865,2.635-0.19c0.438,0.379,1.443,1.604,1.975,2.606
	C72.799,222.061,73.061,222.913,73.061,222.913z"/>
<path fill="#697B27" d="M73.057,222.882c0,0-1.102-0.965-1.945-1.377c-1.01-0.488-1.982-0.918-2.439-1.246
	c-0.84-0.6-1.244-0.931-1.086-1.154c0.16-0.225,0.275,0.031,1.342,0.641c0.504,0.289,2.023,1.007,2.822,1.709
	C72.369,222.003,73.057,222.882,73.057,222.882z"/>
<path fill="#849926" d="M68.898,223.978c0,0-0.875-0.756-1.922-1.071c-1.258-0.379-2.549-0.637-2.914-1.062
	c-0.678-0.783-0.594-1.962,0.189-2.637c0.779-0.674,1.961-0.59,2.635,0.19c0.379,0.438,1.199,1.794,1.578,2.862
	C68.758,223.095,68.898,223.978,68.898,223.978z"/>
<path fill="#697B27" d="M68.896,223.946c0,0-0.951-1.114-1.727-1.643c-0.93-0.629-1.83-1.195-2.234-1.584
	c-0.744-0.715-1.098-1.1-0.908-1.299c0.191-0.199,0.266,0.07,1.236,0.828c0.455,0.357,1.855,1.285,2.545,2.096
	C68.344,222.976,68.896,223.946,68.896,223.946z"/>
<path fill="#849926" d="M51.018,220.595c0,0,1.098-0.357,2.186-0.241c1.305,0.14,2.596,0.403,3.1,0.154
	c0.926-0.458,1.307-1.576,0.848-2.505c-0.455-0.924-1.576-1.304-2.502-0.847c-0.52,0.256-1.801,1.188-2.566,2.025
	C51.486,219.836,51.018,220.595,51.018,220.595z"/>
<path fill="#697B27" d="M51.029,220.565c0,0,1.311-0.657,2.229-0.841c1.104-0.222,2.15-0.392,2.676-0.595
	c0.963-0.367,1.441-0.586,1.342-0.842c-0.1-0.257-0.273-0.039-1.459,0.283c-0.562,0.152-2.213,0.463-3.162,0.943
	C51.916,219.887,51.029,220.565,51.029,220.565z"/>
<path fill="#849926" d="M54.418,222.915c0,0,0.973-0.621,2.057-0.785c1.297-0.193,2.611-0.264,3.035-0.631
	c0.781-0.676,0.869-1.854,0.191-2.637c-0.672-0.779-1.854-0.864-2.635-0.189c-0.439,0.38-1.445,1.602-1.975,2.605
	C54.682,222.062,54.418,222.915,54.418,222.915z"/>
<path fill="#697B27" d="M54.424,222.884c0,0,1.1-0.967,1.945-1.377c1.01-0.49,1.98-0.919,2.439-1.246
	c0.84-0.6,1.244-0.932,1.084-1.154c-0.158-0.225-0.273,0.031-1.342,0.642c-0.502,0.288-2.023,1.005-2.82,1.709
	C55.111,222.003,54.424,222.884,54.424,222.884z"/>
<path fill="#849926" d="M58.102,223.978c0,0,0.871-0.756,1.922-1.071c1.254-0.379,2.547-0.637,2.914-1.062
	c0.674-0.783,0.59-1.962-0.191-2.637c-0.777-0.674-1.959-0.59-2.635,0.19c-0.379,0.438-1.199,1.794-1.578,2.862
	C58.238,223.095,58.102,223.978,58.102,223.978z"/>
<path fill="#697B27" d="M58.102,223.946c0,0,0.951-1.114,1.727-1.643c0.93-0.629,1.83-1.195,2.234-1.584
	c0.744-0.715,1.1-1.1,0.908-1.299c-0.189-0.199-0.266,0.07-1.234,0.828c-0.459,0.357-1.859,1.285-2.547,2.096
	C58.656,222.976,58.102,223.946,58.102,223.946z"/>
<polygon fill="#FFFFFF" points="428.59,177.237 459.666,195.179 456.975,196.732 425.898,178.79 "/>
<polygon fill="#FFFFFF" points="398.986,194.328 430.061,212.271 427.371,213.823 396.295,195.883 "/>
<polygon fill="#FFFFFF" points="458.193,160.145 489.271,178.087 486.578,179.641 455.502,161.698 "/>
<polygon fill="#FFFFFF" points="487.799,143.054 518.873,160.995 516.184,162.549 485.105,144.607 "/>
<polygon fill="#FFFFFF" points="218.791,257.702 217.85,250.132 230.963,250.675 227.461,252.698 248.961,265.112 243.797,268.095 
	222.295,255.679 "/>
<polygon fill="#FFFFFF" points="175.514,230.865 174.57,223.292 187.686,223.837 184.182,225.86 205.682,238.273 200.52,241.255 
	179.016,228.841 "/>
<polygon fill="#FFFFFF" points="302.959,173.767 303.9,181.338 290.789,180.795 294.291,178.771 272.789,166.357 277.953,163.375 
	299.457,175.79 "/>
<polygon fill="#FFFFFF" points="346.238,200.604 347.18,208.178 334.064,207.632 337.57,205.611 316.068,193.195 321.232,190.215 
	342.734,202.628 "/>
<polygon fill="#FFFFFF" points="131.979,205.527 131.037,197.957 144.15,198.499 140.646,200.523 162.148,212.937 156.984,215.919 
	135.482,203.504 "/>
<polygon fill="#FFFFFF" points="88.699,178.69 87.758,171.118 100.873,171.661 97.367,173.686 118.869,186.099 113.705,189.081 
	92.205,176.666 "/>
<polygon fill="#CCC5AA" points="154.025,107.329 279.576,179.13 394.27,113.338 394.27,105.623 268.719,39.78 154.025,99.612 "/>
<polygon fill="#2F4D5F" points="154.025,99.612 279.576,171.412 394.27,105.623 268.719,33.821 "/>
<polygon fill="#F5F0D4" points="154.025,99.612 154.025,107.329 279.576,179.13 279.576,171.412 "/>
<polygon fill="#CCC5AA" points="228.059,168.392 241.238,160.141 241.238,176.561 "/>
<polygon fill="#AB111A" points="230.191,185.645 229.08,182.125 226.188,179.252 225.602,179.981 224.121,181.816 227.418,183.407 
	228.721,186.595 229.668,187.356 "/>
<polygon fill="#FFFFFF" points="222.146,179.582 219.27,181.597 220.086,182.257 222.125,180.507 224.895,180.857 225.602,179.981 
	"/>
<ellipse transform="matrix(-0.7664 -0.6424 0.6424 -0.7664 271.2278 462.3984)" fill="#5A5959" cx="219.694" cy="181.88" rx="0.524" ry="0.215"/>
<path fill="#777D5A" d="M226.82,198.604c-0.082,0-0.162-0.006-0.244-0.019c-1.146-0.167-2.098-1.494-2.422-3.38
	c-0.545-3.173,3.355-7.883,3.521-8.082l0.32-0.383l0.768,0.641l-0.32,0.384c-0.037,0.045-3.77,4.553-3.303,7.271
	c0.281,1.642,1.016,2.479,1.58,2.561c0.451,0.066,0.752-0.39,0.891-0.668c0.182-0.365,0.365-0.816,0.543-1.301
	c-0.297,0.266-0.621,0.41-0.965,0.282c-0.576-0.217-0.721-0.972-0.529-2.783c0.252-2.416,1.723-4.123,1.785-4.194l0.496-0.567
	l0.596,1.224l0.605,0.021l-0.018,0.499c0,0.033-0.01,0.256-0.043,0.599l0.367,0.754l-0.045,0.177
	c-0.039,0.157-0.975,3.877-1.896,5.734C228.113,198.166,227.508,198.604,226.82,198.604z M228.738,190.232
	c-0.404,0.642-0.951,1.715-1.084,2.998c-0.086,0.825-0.082,1.287-0.057,1.542c0.094-0.101,0.217-0.25,0.375-0.475
	c0.689-0.973,0.971-2.488,1.082-3.415L228.738,190.232z"/>
<polygon fill="#524A46" points="228.059,168.392 241.238,176.561 241.238,214.643 228.059,206.474 "/>
<polygon fill="#B5B5B5" points="230.359,172.557 230.359,181.087 240.023,186.902 240.023,187.444 229.92,181.365 229.92,172.292 
	"/>
<polygon fill="#777D5A" points="230.359,172.557 240.023,178.37 240.023,186.902 230.359,181.087 "/>
<ellipse transform="matrix(-0.9621 -0.2725 0.2725 -0.9621 402.4899 428.6815)" fill="#777D5A" cx="231.018" cy="186.387" rx="1.098" ry="0.805"/>
<ellipse transform="matrix(-0.962 -0.273 0.273 -0.962 401.6019 434.3928)" fill="#C98D6E" cx="231.018" cy="189.261" rx="1.098" ry="0.805"/>
<ellipse transform="matrix(-0.962 -0.273 0.273 -0.962 400.7591 440.4513)" fill="#7E4681" cx="231.018" cy="192.349" rx="1.098" ry="0.805"/>
<path fill="#BFC0BF" d="M236.436,189.386c-0.021,0-0.043-0.006-0.062-0.018l-3.516-2.041c-0.059-0.034-0.08-0.11-0.045-0.171
	c0.035-0.059,0.111-0.081,0.172-0.045l3.516,2.041c0.059,0.035,0.078,0.111,0.045,0.171
	C236.521,189.363,236.479,189.386,236.436,189.386z"/>
<path fill="#BFC0BF" d="M236.436,192.259c-0.021,0-0.043-0.006-0.062-0.018l-3.516-2.042c-0.059-0.034-0.08-0.11-0.045-0.171
	c0.035-0.06,0.111-0.08,0.172-0.045l3.516,2.042c0.059,0.035,0.078,0.111,0.045,0.171
	C236.521,192.236,236.479,192.259,236.436,192.259z"/>
<path fill="#BFC0BF" d="M236.436,195.346c-0.021,0-0.043-0.006-0.062-0.018l-3.516-2.042c-0.059-0.034-0.08-0.11-0.045-0.171
	c0.035-0.059,0.111-0.081,0.172-0.045l3.516,2.042c0.059,0.035,0.078,0.111,0.045,0.171
	C236.521,195.323,236.479,195.346,236.436,195.346z"/>
<polygon fill="#6E6E6E" points="230.723,193.895 230.723,194.716 238.857,199.428 238.857,199.637 230.359,194.716 230.359,193.684 
	"/>
<polygon fill="#E8E8E8" points="230.723,193.895 238.857,198.604 238.857,199.428 230.723,194.716 "/>
<polygon fill="#CCC5AA" points="173.846,137.053 187.025,128.803 187.025,145.222 "/>
<polygon fill="#AB111A" points="175.979,154.307 174.865,150.786 171.975,147.912 171.387,148.642 169.906,150.478 173.203,152.069 
	174.508,155.255 175.453,156.019 "/>
<polygon fill="#FFFFFF" points="167.934,148.243 165.055,150.258 165.873,150.917 167.91,149.167 170.68,149.52 171.387,148.642 "/>
<path fill="#5A5959" d="M165.08,150.204c-0.078,0.09,0.041,0.315,0.262,0.503c0.223,0.185,0.465,0.263,0.541,0.171
	c0.074-0.088-0.043-0.313-0.266-0.5C165.396,150.191,165.154,150.113,165.08,150.204z"/>
<path fill="#777D5A" d="M172.605,167.264c-0.08,0-0.162-0.006-0.244-0.018c-1.146-0.168-2.096-1.494-2.42-3.38
	c-0.545-3.174,3.354-7.882,3.52-8.081l0.322-0.383l0.766,0.641l-0.32,0.384c-0.037,0.045-3.77,4.551-3.301,7.271
	c0.281,1.642,1.016,2.478,1.578,2.56c0.451,0.062,0.754-0.391,0.893-0.668c0.18-0.364,0.363-0.814,0.543-1.299
	c-0.299,0.266-0.621,0.41-0.965,0.281c-0.576-0.217-0.721-0.972-0.531-2.783c0.252-2.418,1.725-4.123,1.787-4.194l0.496-0.567
	l0.594,1.223l0.607,0.021l-0.018,0.499c0,0.033-0.01,0.257-0.043,0.601l0.365,0.753l-0.043,0.177
	c-0.039,0.157-0.977,3.877-1.898,5.733C173.9,166.827,173.295,167.264,172.605,167.264z M174.525,158.895
	c-0.406,0.642-0.951,1.714-1.084,2.998c-0.088,0.824-0.082,1.287-0.057,1.541c0.094-0.1,0.217-0.25,0.375-0.475
	c0.688-0.972,0.971-2.486,1.082-3.413L174.525,158.895z"/>
<polygon fill="#524A46" points="173.846,137.053 187.025,145.222 187.025,183.304 173.846,175.136 "/>
<polygon fill="#B5B5B5" points="176.145,141.219 176.145,149.749 185.811,155.562 185.811,156.106 175.705,150.027 175.705,140.953 
	"/>
<polygon fill="#777D5A" points="176.145,141.219 185.811,147.032 185.811,155.562 176.145,149.749 "/>
<ellipse transform="matrix(-0.9621 -0.2727 0.2727 -0.9621 304.6193 352.439)" fill="#777D5A" cx="176.804" cy="155.049" rx="1.099" ry="0.805"/>
<ellipse transform="matrix(-0.9623 -0.2719 0.2719 -0.9623 304.0068 357.9675)" fill="#C98D6E" cx="176.804" cy="157.922" rx="1.099" ry="0.805"/>
<ellipse transform="matrix(-0.9624 -0.2715 0.2715 -0.9624 303.2541 363.9719)" fill="#7E4681" cx="176.804" cy="161.009" rx="1.099" ry="0.805"/>
<path fill="#BFC0BF" d="M182.221,158.048c-0.021,0-0.043-0.006-0.062-0.018l-3.514-2.043c-0.059-0.034-0.08-0.11-0.045-0.171
	c0.035-0.06,0.111-0.08,0.172-0.045l3.514,2.043c0.059,0.035,0.078,0.111,0.045,0.171
	C182.307,158.025,182.264,158.048,182.221,158.048z"/>
<path fill="#BFC0BF" d="M182.221,160.919c-0.021,0-0.043-0.006-0.062-0.018l-3.514-2.041c-0.059-0.034-0.08-0.11-0.045-0.171
	c0.035-0.06,0.111-0.08,0.172-0.045l3.514,2.041c0.059,0.035,0.078,0.111,0.045,0.171
	C182.307,160.896,182.264,160.919,182.221,160.919z"/>
<path fill="#BFC0BF" d="M182.221,164.007c-0.021,0-0.043-0.006-0.062-0.018l-3.514-2.041c-0.059-0.034-0.08-0.11-0.045-0.171
	c0.035-0.06,0.111-0.08,0.172-0.045l3.514,2.041c0.059,0.035,0.078,0.111,0.045,0.171
	C182.307,163.984,182.264,164.007,182.221,164.007z"/>
<polygon fill="#6E6E6E" points="176.508,162.554 176.508,163.378 184.645,168.09 184.645,168.299 176.145,163.378 176.145,162.345 
	"/>
<polygon fill="#E8E8E8" points="176.508,162.554 184.645,167.266 184.645,168.09 176.508,163.378 "/>
<polygon fill="#BA3732" points="24.232,116.194 48.006,102.337 27.857,212.521 24.232,210.236 "/>
<polygon fill="#E9504B" points="27.857,117.599 51.631,103.741 51.631,197.782 27.857,212.521 "/>
<polygon fill="#DF443E" points="46.621,112.632 48.006,111.825 48.006,178.845 31.064,188.719 31.064,187.248 46.621,178.182 "/>
<polygon fill="#FFFFFF" points="46.621,112.632 46.621,178.182 31.064,187.248 31.064,121.701 "/>
<polygon fill="#E9504B" points="48.006,102.337 51.631,103.741 27.857,117.599 24.232,116.194 "/>
</svg>
