<?xml version="1.0" encoding="utf-8"?>
<!-- Generator: Adobe Illustrator 15.1.0, SVG Export Plug-In  -->
<!DOCTYPE svg PUBLIC "-//W3C//DTD SVG 1.1//EN" "http://www.w3.org/Graphics/SVG/1.1/DTD/svg11.dtd" [
	<!ENTITY ns_flows "http://ns.adobe.com/Flows/1.0/">
]>
<svg version="1.1"
	 xmlns="http://www.w3.org/2000/svg" xmlns:xlink="http://www.w3.org/1999/xlink" xmlns:a="http://ns.adobe.com/AdobeSVGViewerExtensions/3.0/"
	 x="0px" y="0px" width="314px" height="203px" viewBox="-0.142 -0.609 314 203"
	 overflow="visible" enable-background="new -0.142 -0.609 314 203" xml:space="preserve">
<defs>
</defs>
<path fill="#2D2221" d="M94.6,127.955l194.646-11.143L94.939,127.986l-0.014-0.018L94.6,127.955 M289.246,116.812l-63.51-2.418
	L30.971,125.223l-0.424,0.32h-0.012L7.386,111.602l9.811,4.277l-7.955,5.852l37.955,16.148l9.333,12.667l-0.029,0.021l3.691,1.607
	l3.802,2.452l20.432,12.918l0.771,0.334l2.926,1.279l0.029-0.023l43.749,32.641l151.68-27.373l29.088-21.398l0.672-0.494
	l0.355-0.262L289.246,116.812"/>
<polygon fill="#E9E3C8" points="131.9,146.594 185.074,77.242 234.852,87.225 234.852,142.406 131.9,201.775 "/>
<polygon fill="#CCC5AA" points="210.42,111.17 221.928,104.496 221.928,95.582 210.42,102.258 "/>
<polygon fill="#FCFCFD" points="210.398,110.582 221.359,104.211 221.359,95.91 210.398,102.281 "/>
<polygon fill="#DADAD9" points="210.398,110.074 220.955,103.941 220.955,96.145 210.42,102.258 "/>
<polygon fill="#EBF6FC" points="210.398,109.869 220.812,103.82 220.812,96.227 210.42,102.258 "/>
<polygon fill="#DADAD9" points="217.963,97.869 218.428,97.598 218.428,105.186 217.963,105.484 "/>
<polygon fill="#FCFCFD" points="218.084,97.801 218.551,97.527 218.551,105.34 218.084,105.637 "/>
<polygon fill="#DADAD9" points="213.369,100.543 213.836,100.271 213.836,107.857 213.369,108.156 "/>
<polygon fill="#FCFCFD" points="213.49,100.473 213.957,100.201 213.957,108.01 213.49,108.309 "/>
<polygon fill="#DADAD9" points="210.398,105.869 213.49,104.064 213.49,103.576 210.398,105.381 "/>
<polygon fill="#DADAD9" points="213.957,103.82 217.963,101.506 217.963,101.018 213.957,103.334 "/>
<polygon fill="#FCFCFD" points="210.398,106.014 220.955,99.922 220.955,99.434 210.398,105.529 "/>
<polygon fill="#CCC5AA" points="210.398,110.582 210.42,111.17 221.928,104.496 221.359,104.211 "/>
<polygon fill="#CCC5AA" points="196.969,118.375 208.477,111.699 208.477,102.787 196.969,109.463 "/>
<polygon fill="#FCFCFD" points="196.947,117.785 207.908,111.418 207.908,103.115 196.947,109.484 "/>
<polygon fill="#DADAD9" points="196.947,117.279 207.504,111.146 207.504,103.35 196.969,109.463 "/>
<polygon fill="#EBF6FC" points="196.947,117.074 207.359,111.025 207.359,103.432 196.969,109.463 "/>
<polygon fill="#DADAD9" points="204.51,105.074 204.977,104.803 204.977,112.391 204.51,112.688 "/>
<polygon fill="#FCFCFD" points="204.633,105.006 205.098,104.734 205.098,112.543 204.633,112.842 "/>
<polygon fill="#DADAD9" points="199.916,107.748 200.383,107.475 200.383,115.062 199.916,115.361 "/>
<polygon fill="#FCFCFD" points="200.039,107.678 200.504,107.406 200.504,115.215 200.039,115.514 "/>
<polygon fill="#DADAD9" points="196.947,113.072 200.039,111.27 200.039,110.783 196.947,112.586 "/>
<polygon fill="#DADAD9" points="200.504,111.025 204.51,108.711 204.51,108.223 200.504,110.539 "/>
<polygon fill="#FCFCFD" points="196.947,113.221 207.504,107.127 207.504,106.639 196.947,112.734 "/>
<polygon fill="#CCC5AA" points="196.947,117.785 196.969,118.375 208.477,111.699 207.908,111.418 "/>
<polygon fill="#CCC5AA" points="182.457,126.369 193.965,119.693 193.965,110.783 182.457,117.457 "/>
<polygon fill="#FCFCFD" points="182.436,125.781 193.396,119.412 193.396,111.109 182.436,117.48 "/>
<polygon fill="#DADAD9" points="182.436,125.273 192.99,119.141 192.99,111.344 182.457,117.457 "/>
<polygon fill="#EBF6FC" points="182.436,125.068 192.848,119.02 192.848,111.424 182.457,117.457 "/>
<polygon fill="#DADAD9" points="190,113.068 190.465,112.797 190.465,120.385 190,120.684 "/>
<polygon fill="#FCFCFD" points="190.121,113 190.586,112.729 190.586,120.537 190.121,120.836 "/>
<polygon fill="#DADAD9" points="185.404,115.742 185.871,115.469 185.871,123.057 185.404,123.355 "/>
<polygon fill="#FCFCFD" points="185.527,115.672 185.992,115.4 185.992,123.209 185.527,123.508 "/>
<polygon fill="#DADAD9" points="182.436,121.068 185.527,119.264 185.527,118.775 182.436,120.582 "/>
<polygon fill="#DADAD9" points="185.992,119.02 190,116.705 190,116.217 185.992,118.533 "/>
<polygon fill="#FCFCFD" points="182.436,121.215 192.99,115.121 192.99,114.633 182.436,120.729 "/>
<polygon fill="#CCC5AA" points="182.436,125.781 182.457,126.369 193.965,119.693 193.396,119.412 "/>
<polygon fill="#CCC5AA" points="167.045,134.951 178.553,128.277 178.553,119.363 167.045,126.039 "/>
<polygon fill="#FCFCFD" points="167.025,134.363 177.984,127.992 177.984,119.691 167.025,126.062 "/>
<polygon fill="#DADAD9" points="167.025,133.855 177.582,127.723 177.582,119.926 167.045,126.039 "/>
<polygon fill="#EBF6FC" points="167.025,133.65 177.438,127.602 177.438,120.008 167.045,126.039 "/>
<polygon fill="#DADAD9" points="174.588,121.65 175.055,121.379 175.055,128.967 174.588,129.266 "/>
<polygon fill="#FCFCFD" points="174.711,121.582 175.176,121.309 175.176,129.119 174.711,129.418 "/>
<polygon fill="#DADAD9" points="169.994,124.324 170.461,124.053 170.461,131.639 169.994,131.938 "/>
<polygon fill="#FCFCFD" points="170.117,124.254 170.582,123.982 170.582,131.791 170.117,132.09 "/>
<polygon fill="#DADAD9" points="167.025,129.648 170.117,127.846 170.117,127.359 167.025,129.162 "/>
<polygon fill="#DADAD9" points="170.582,127.602 174.588,125.287 174.588,124.799 170.582,127.115 "/>
<polygon fill="#FCFCFD" points="167.025,129.795 177.582,123.703 177.582,123.215 167.025,129.309 "/>
<polygon fill="#CCC5AA" points="167.025,134.363 167.045,134.951 178.553,128.277 177.984,127.992 "/>
<polygon fill="#CCC5AA" points="150.006,144.725 161.514,138.049 161.514,129.137 150.006,135.811 "/>
<polygon fill="#FCFCFD" points="149.986,144.135 160.945,137.766 160.945,129.463 149.986,135.834 "/>
<polygon fill="#DADAD9" points="149.986,143.629 160.541,137.496 160.541,129.699 150.006,135.811 "/>
<polygon fill="#EBF6FC" points="149.986,143.422 160.398,137.373 160.398,129.779 150.006,135.811 "/>
<polygon fill="#DADAD9" points="157.549,131.424 158.016,131.152 158.016,138.738 157.549,139.037 "/>
<polygon fill="#FCFCFD" points="157.67,131.354 158.137,131.082 158.137,138.893 157.67,139.191 "/>
<polygon fill="#DADAD9" points="152.955,134.098 153.422,133.824 153.422,141.41 152.955,141.711 "/>
<polygon fill="#FCFCFD" points="153.076,134.027 153.543,133.756 153.543,141.562 153.076,141.863 "/>
<polygon fill="#DADAD9" points="149.986,139.422 153.076,137.619 153.076,137.131 149.986,138.936 "/>
<polygon fill="#DADAD9" points="153.543,137.373 157.549,135.061 157.549,134.572 153.543,136.889 "/>
<polygon fill="#FCFCFD" points="149.986,139.568 160.541,133.475 160.541,132.988 149.986,139.082 "/>
<polygon fill="#CCC5AA" points="149.986,144.135 150.006,144.725 161.514,138.049 160.945,137.766 "/>
<polygon fill="#339F8A" points="53.389,0 185.98,75.844 234.852,86.42 102.494,11.59 "/>
<polygon fill="#156A5B" points="234.852,86.42 185.092,75.424 185.074,77.242 234.836,88.238 "/>
<polygon fill="#67C1AD" points="53.389,0 185.092,75.477 131.703,146.014 0,69.879 "/>
<polygon fill="#156A5B" points="131.686,147.84 185.074,77.25 185.092,75.424 131.703,146.014 "/>
<polygon fill="#156A5B" points="0,69.879 131.703,146.014 131.686,147.84 0,71.777 "/>
<polygon fill="#E9E3C8" points="227.686,146.438 200.213,162.287 196.779,164.258 193.352,166.236 193.352,130.588 227.686,110.781 
	"/>
<polygon fill="#A7A9AB" points="196.779,132.574 224.23,116.719 224.23,148.4 196.779,164.258 "/>
<polygon fill="#868789" points="196.779,164.258 224.23,148.416 224.23,147.916 196.779,163.758 "/>
<polygon fill="#ABA48B" points="223.365,148.881 224.23,148.416 224.23,116.719 223.365,117.184 "/>
<polygon fill="#E8E8E5" points="196.779,134.584 223.365,119.193 223.365,117.184 196.779,132.574 "/>
<path fill="#241C1D" d="M196.654,134.801v-2.299l0.062-0.036l26.773-15.499v2.299l-0.062,0.036L196.654,134.801z M196.904,132.646
	v1.721l26.336-15.246V117.4L196.904,132.646z"/>
<polygon fill="#E8E8E5" points="196.779,136.559 223.365,121.168 223.365,119.158 196.779,134.549 "/>
<path fill="#CCC5AA" d="M196.654,136.775v-2.299l0.062-0.036l26.773-15.499v2.299l-0.062,0.036L196.654,136.775z M196.904,134.621
	v1.721l26.336-15.246v-1.721L196.904,134.621z"/>
<polygon fill="#E8E8E5" points="196.779,138.537 223.365,123.146 223.365,121.137 196.779,136.529 "/>
<path fill="#BCB59B" d="M196.654,138.754v-2.297l0.062-0.036l26.773-15.501v2.299l-0.062,0.036L196.654,138.754z M196.904,136.602
	v1.719l26.336-15.246v-1.721L196.904,136.602z"/>
<polygon fill="#E8E8E5" points="196.779,140.488 223.365,125.098 223.365,123.088 196.779,138.479 "/>
<path fill="#CCC5AA" d="M196.654,140.705v-2.299l0.062-0.036l26.773-15.499v2.299l-0.062,0.036L196.654,140.705z M196.904,138.551
	v1.721l26.336-15.246v-1.721L196.904,138.551z"/>
<polygon fill="#E8E8E5" points="196.779,142.479 223.365,127.086 223.365,125.078 196.779,140.469 "/>
<path fill="#ABA48B" d="M196.654,142.695v-2.299l0.062-0.036l26.773-15.499v2.297l-0.062,0.036L196.654,142.695z M196.904,140.541
	v1.721l26.336-15.248v-1.719L196.904,140.541z"/>
<polygon fill="#E8E8E5" points="196.779,144.459 223.365,129.066 223.365,127.057 196.779,142.449 "/>
<path fill="#CCC5AA" d="M196.654,144.676v-2.299l0.062-0.036l26.773-15.501v2.299l-0.062,0.036L196.654,144.676z M196.904,142.521
	v1.721l26.336-15.248v-1.721L196.904,142.521z"/>
<polygon fill="#E8E8E5" points="196.779,146.438 223.365,131.045 223.365,129.035 196.779,144.428 "/>
<path fill="#ABA48B" d="M196.654,146.654v-2.299l0.062-0.036l26.773-15.501v2.299l-0.062,0.036L196.654,146.654z M196.904,144.5
	v1.721l26.336-15.248v-1.721L196.904,144.5z"/>
<polygon fill="#E8E8E5" points="196.779,148.416 223.365,133.025 223.365,131.016 196.779,146.408 "/>
<path fill="#CCC5AA" d="M196.654,148.633v-2.297l0.062-0.036l26.773-15.501v2.299l-0.062,0.036L196.654,148.633z M196.904,146.48
	v1.719l26.336-15.246v-1.721L196.904,146.48z"/>
<polygon fill="#E8E8E5" points="196.779,150.396 223.365,135.004 223.365,132.994 196.779,148.387 "/>
<path fill="#ABA48B" d="M196.654,150.613v-2.299l0.062-0.036l26.773-15.501v2.299l-0.062,0.036L196.654,150.613z M196.904,148.459
	v1.721l26.336-15.248v-1.721L196.904,148.459z"/>
<polygon fill="#E8E8E5" points="196.779,152.375 223.365,136.982 223.365,134.975 196.779,150.365 "/>
<path fill="#CCC5AA" d="M196.654,152.592v-2.299l0.062-0.036l26.773-15.499v2.297l-0.062,0.036L196.654,152.592z M196.904,150.438
	v1.721l26.336-15.248v-1.719L196.904,150.438z"/>
<polygon fill="#E8E8E5" points="196.779,154.385 223.365,138.992 223.365,136.982 196.779,152.375 "/>
<path fill="#ABA48B" d="M196.654,154.602v-2.299l0.062-0.036l26.773-15.501v2.299l-0.062,0.036L196.654,154.602z M196.904,152.447
	v1.721l26.336-15.248v-1.721L196.904,152.447z"/>
<polygon fill="#BCB59B" points="208.803,146.988 211.094,145.684 211.094,145.133 208.803,146.438 "/>
<path fill="#CCC5AA" d="M208.678,147.203v-0.838l2.541-1.447v0.838L208.678,147.203z M208.928,146.51v0.264l2.041-1.162v-0.264
	L208.928,146.51z"/>
<polygon fill="#4F4F52" points="196.779,154.387 223.365,139.045 223.365,148.416 196.779,163.758 "/>
<g>
	<defs>
		<rect id="SVGID_12_" x="196.779" y="144.566" width="26.586" height="19.174"/>
	</defs>
	<clipPath id="SVGID_14_">
		<use xlink:href="#SVGID_12_"  overflow="visible"/>
	</clipPath>
	<g clip-path="url(#SVGID_14_)">
		<g>
			<path fill="#959798" d="M196.779,154.371c18.941-8.865,18.635-9.553,20.182-9.789c2.014-0.307,6.404,3.818,6.404,3.818
				l-26.586,15.34V154.371z"/>
		</g>
	</g>
</g>
<g>
	<defs>
		<rect id="SVGID_10_" x="205.35" y="117.184" width="18.016" height="21.861"/>
	</defs>
	<use xlink:href="#SVGID_10_"  overflow="visible" fill="#E8E8E5"/>
	<clipPath id="SVGID_16_">
		<use xlink:href="#SVGID_10_"  overflow="visible"/>
	</clipPath>
	<g clip-path="url(#SVGID_16_)">
		<g>
			<path fill="#959798" d="M219.52,122.371c3.42,2.264,3.846,16.674,3.846,16.674v-21.861l-18.016,10.424
				C205.35,127.607,216.648,120.469,219.52,122.371"/>
		</g>
	</g>
</g>
<g>
	<defs>
		<rect id="SVGID_8_" x="196.779" y="124.283" width="14.314" height="30.102"/>
	</defs>
	<clipPath id="SVGID_18_">
		<use xlink:href="#SVGID_8_"  overflow="visible"/>
	</clipPath>
	<g clip-path="url(#SVGID_18_)">
		<g>
			<path fill="#959798" d="M199.662,133.557c-2.379,2.34-2.883,20.828-2.883,20.828v-21.811l14.314-8.291
				C211.094,124.283,202.248,131.016,199.662,133.557"/>
		</g>
	</g>
</g>
<polygon fill="#E9E3C8" points="173.092,178.076 145.619,193.924 142.186,195.895 138.758,197.875 138.758,162.227 173.092,142.42 
	"/>
<polygon fill="#A7A9AB" points="142.186,164.213 169.637,148.355 169.637,180.039 142.186,195.895 "/>
<polygon fill="#868789" points="142.186,195.895 169.637,180.055 169.637,179.555 142.186,195.396 "/>
<polygon fill="#6E7283" points="168.771,180.52 169.637,180.055 169.637,148.355 168.771,148.822 "/>
<polygon fill="#E8E8E5" points="142.186,166.223 168.771,150.83 168.771,148.822 142.186,164.213 "/>
<path fill="#241C1D" d="M142.061,166.439v-2.299l0.062-0.036l26.773-15.499v2.297l-0.062,0.036L142.061,166.439z M142.311,164.285
	v1.721l26.336-15.248v-1.719L142.311,164.285z"/>
<polygon fill="#E8E8E5" points="142.186,168.197 168.771,152.805 168.771,150.795 142.186,166.188 "/>
<path fill="#ABA48B" d="M142.061,168.414v-2.27l0.062-0.036l26.773-15.499v2.268l-0.062,0.036L142.061,168.414z M142.311,166.289
	v1.691l26.336-15.248v-1.689L142.311,166.289z"/>
<polygon fill="#E8E8E5" points="142.186,170.176 168.771,154.785 168.771,152.775 142.186,168.166 "/>
<path fill="#ABA48B" d="M142.061,170.393v-2.299l0.062-0.036l26.773-15.499v2.299l-0.062,0.036L142.061,170.393z M142.311,168.238
	v1.721l26.336-15.246v-1.721L142.311,168.238z"/>
<polygon fill="#E8E8E5" points="142.186,172.125 168.771,156.734 168.771,154.725 142.186,170.117 "/>
<path fill="#ABA48B" d="M142.061,172.342v-2.266l0.062-0.036l26.773-15.501v2.268l-0.062,0.036L142.061,172.342z M142.311,170.221
	v1.688l26.336-15.246v-1.689L142.311,170.221z"/>
<polygon fill="#E8E8E5" points="142.186,174.117 168.771,158.725 168.771,156.717 142.186,172.107 "/>
<path fill="#ABA48B" d="M142.061,174.334v-2.299l0.062-0.036l26.773-15.499v2.297l-0.062,0.036L142.061,174.334z M142.311,172.18
	v1.721l26.336-15.248v-1.719L142.311,172.18z"/>
<polygon fill="#E8E8E5" points="142.186,176.096 168.771,160.703 168.771,158.695 142.186,174.088 "/>
<path fill="#ABA48B" d="M142.061,176.312v-2.268l0.062-0.036l26.773-15.501v2.268l-0.062,0.036L142.061,176.312z M142.311,174.189
	v1.689l26.336-15.248v-1.689L142.311,174.189z"/>
<polygon fill="#E8E8E5" points="142.186,178.076 168.771,162.684 168.771,160.674 142.186,176.066 "/>
<path fill="#ABA48B" d="M142.061,178.293v-2.299l0.062-0.036l26.773-15.501v2.299l-0.062,0.036L142.061,178.293z M142.311,176.139
	v1.721l26.336-15.248v-1.721L142.311,176.139z"/>
<polygon fill="#E8E8E5" points="142.186,180.055 168.771,164.664 168.771,162.654 142.186,178.045 "/>
<path fill="#ABA48B" d="M142.061,180.271v-2.27l0.062-0.036l26.773-15.499v2.27l-0.062,0.036L142.061,180.271z M142.311,178.146
	v1.691l26.336-15.246V162.9L142.311,178.146z"/>
<polygon fill="#E8E8E5" points="142.186,182.033 168.771,166.643 168.771,164.633 142.186,180.023 "/>
<path fill="#ABA48B" d="M142.061,182.25v-2.299l0.062-0.036l26.773-15.499v2.299l-0.062,0.036L142.061,182.25z M142.311,180.096
	v1.721l26.336-15.246v-1.721L142.311,180.096z"/>
<polygon fill="#E8E8E5" points="142.186,184.014 168.771,168.621 168.771,166.611 142.186,182.004 "/>
<path fill="#ABA48B" d="M142.061,184.23v-2.299l0.062-0.036l26.773-15.501v2.299l-0.062,0.036L142.061,184.23z M142.311,182.076
	v1.721l26.336-15.248v-1.721L142.311,182.076z"/>
<polygon fill="#E8E8E5" points="142.186,186.021 168.771,170.631 168.771,168.621 142.186,184.014 "/>
<path fill="#ABA48B" d="M142.061,186.238v-2.297l0.062-0.036l26.773-15.501v2.299l-0.062,0.036L142.061,186.238z M142.311,184.086
	v1.719l26.336-15.246v-1.721L142.311,184.086z"/>
<polygon fill="#CCC5AA" points="154.211,178.627 156.5,177.32 156.5,176.771 154.211,178.076 "/>
<path fill="#ABA48B" d="M154.086,178.842v-0.838l2.539-1.447v0.836L154.086,178.842z M154.336,178.148v0.264l2.039-1.164v-0.262
	L154.336,178.148z"/>
<polygon fill="#4F4F52" points="142.186,186.025 168.771,170.682 168.771,180.055 142.186,195.396 "/>
<g>
	<defs>
		<rect id="SVGID_6_" x="142.186" y="176.203" width="26.586" height="19.176"/>
	</defs>
	<clipPath id="SVGID_20_">
		<use xlink:href="#SVGID_6_"  overflow="visible"/>
	</clipPath>
	<g clip-path="url(#SVGID_20_)">
		<g>
			<path fill="#959798" d="M142.186,186.008c18.941-8.863,18.635-9.551,20.182-9.787c2.014-0.307,6.404,3.816,6.404,3.816
				l-26.586,15.342V186.008z"/>
		</g>
	</g>
</g>
<g>
	<defs>
		<rect id="SVGID_4_" x="150.756" y="148.822" width="18.016" height="21.859"/>
	</defs>
	<clipPath id="SVGID_22_">
		<use xlink:href="#SVGID_4_"  overflow="visible"/>
	</clipPath>
	<g clip-path="url(#SVGID_22_)">
		<g>
			<path fill="#959798" d="M164.926,154.01c3.42,2.264,3.846,16.672,3.846,16.672v-21.859l-18.016,10.424
				C150.756,159.246,162.055,152.107,164.926,154.01"/>
		</g>
	</g>
</g>
<g>
	<defs>
		<rect id="SVGID_2_" x="142.186" y="155.922" width="14.314" height="30.1"/>
	</defs>
	<clipPath id="SVGID_24_">
		<use xlink:href="#SVGID_2_"  overflow="visible"/>
	</clipPath>
	<g clip-path="url(#SVGID_24_)">
		<g>
			<path fill="#959798" d="M145.068,165.195c-2.379,2.34-2.883,20.826-2.883,20.826v-21.809l14.314-8.291
				C156.5,155.922,147.654,162.654,145.068,165.195"/>
		</g>
	</g>
</g>
<polygon fill="#F5F0D4" points="0,70.537 131.9,146.744 131.9,201.775 0,125.568 "/>
<polygon fill="#CCC5AA" points="125.637,159.516 114.129,152.842 114.129,143.93 125.637,150.604 "/>
<polygon fill="#FCFCFD" points="125.656,158.928 114.697,152.559 114.697,144.256 125.656,150.627 "/>
<polygon fill="#DADAD9" points="125.656,158.422 115.102,152.289 115.102,144.492 125.637,150.604 "/>
<polygon fill="#EBF6FC" points="125.656,158.215 115.244,152.168 115.244,144.572 125.637,150.604 "/>
<polygon fill="#DADAD9" points="118.094,146.217 117.627,145.945 117.627,153.533 118.094,153.832 "/>
<polygon fill="#FCFCFD" points="117.973,146.146 117.506,145.875 117.506,153.686 117.973,153.984 "/>
<polygon fill="#DADAD9" points="122.688,148.891 122.221,148.617 122.221,156.203 122.688,156.504 "/>
<polygon fill="#FCFCFD" points="122.566,148.82 122.1,148.549 122.1,156.357 122.566,156.656 "/>
<polygon fill="#DADAD9" points="125.656,154.215 122.566,152.41 122.566,151.924 125.656,153.729 "/>
<polygon fill="#DADAD9" points="122.1,152.168 118.094,149.854 118.094,149.365 122.1,151.682 "/>
<polygon fill="#FCFCFD" points="125.656,154.361 115.102,148.268 115.102,147.781 125.656,153.875 "/>
<polygon fill="#CCC5AA" points="125.656,158.928 125.637,159.516 114.129,152.842 114.697,152.559 "/>
<polygon fill="#CCC5AA" points="109.102,150.211 97.594,143.537 97.594,134.625 109.102,141.299 "/>
<polygon fill="#FCFCFD" points="109.123,149.623 98.162,143.254 98.162,134.953 109.123,141.322 "/>
<polygon fill="#DADAD9" points="109.123,149.115 98.566,142.984 98.566,135.188 109.102,141.299 "/>
<polygon fill="#EBF6FC" points="109.123,148.912 98.709,142.863 98.709,135.268 109.102,141.299 "/>
<polygon fill="#DADAD9" points="101.559,136.912 101.094,136.639 101.094,144.229 101.559,144.527 "/>
<polygon fill="#FCFCFD" points="101.438,136.844 100.971,136.57 100.971,144.381 101.438,144.68 "/>
<polygon fill="#DADAD9" points="106.152,139.586 105.686,139.312 105.686,146.898 106.152,147.199 "/>
<polygon fill="#FCFCFD" points="106.031,139.514 105.564,139.242 105.564,147.053 106.031,147.352 "/>
<polygon fill="#DADAD9" points="109.123,144.91 106.031,143.105 106.031,142.619 109.123,144.424 "/>
<polygon fill="#DADAD9" points="105.564,142.863 101.559,140.549 101.559,140.061 105.564,142.377 "/>
<polygon fill="#FCFCFD" points="109.123,145.057 98.566,138.963 98.566,138.477 109.123,144.57 "/>
<polygon fill="#CCC5AA" points="109.123,149.623 109.102,150.211 97.594,143.537 98.162,143.254 "/>
<polygon fill="#CCC5AA" points="93.027,140.035 81.52,133.361 81.52,124.449 93.027,131.123 "/>
<polygon fill="#FCFCFD" points="93.049,139.447 82.088,133.076 82.088,124.775 93.049,131.145 "/>
<polygon fill="#DADAD9" points="93.049,138.939 82.492,132.807 82.492,125.01 93.027,131.123 "/>
<polygon fill="#EBF6FC" points="93.049,138.734 82.635,132.686 82.635,125.092 93.027,131.123 "/>
<polygon fill="#DADAD9" points="85.484,126.734 85.018,126.463 85.018,134.051 85.484,134.35 "/>
<polygon fill="#FCFCFD" points="85.363,126.664 84.896,126.393 84.896,134.203 85.363,134.502 "/>
<polygon fill="#DADAD9" points="90.078,129.408 89.611,129.135 89.611,136.723 90.078,137.021 "/>
<polygon fill="#FCFCFD" points="89.957,129.338 89.49,129.066 89.49,136.875 89.957,137.174 "/>
<polygon fill="#DADAD9" points="93.049,134.732 89.957,132.93 89.957,132.441 93.049,134.246 "/>
<polygon fill="#DADAD9" points="89.49,132.686 85.484,130.371 85.484,129.883 89.49,132.199 "/>
<polygon fill="#FCFCFD" points="93.049,134.879 82.492,128.787 82.492,128.299 93.049,134.393 "/>
<polygon fill="#CCC5AA" points="93.049,139.447 93.027,140.035 81.52,133.361 82.088,133.076 "/>
<polygon fill="#CCC5AA" points="74.793,129.402 63.285,122.729 63.285,113.816 74.793,120.49 "/>
<polygon fill="#FCFCFD" points="74.814,128.814 63.854,122.445 63.854,114.143 74.814,120.514 "/>
<polygon fill="#DADAD9" points="74.814,128.307 64.26,122.174 64.26,114.379 74.793,120.49 "/>
<polygon fill="#EBF6FC" points="74.814,128.102 64.402,122.053 64.402,114.459 74.793,120.49 "/>
<polygon fill="#DADAD9" points="67.252,116.104 66.785,115.83 66.785,123.418 67.252,123.717 "/>
<polygon fill="#FCFCFD" points="67.129,116.033 66.664,115.762 66.664,123.572 67.129,123.871 "/>
<polygon fill="#DADAD9" points="71.846,118.777 71.379,118.504 71.379,126.09 71.846,126.391 "/>
<polygon fill="#FCFCFD" points="71.723,118.705 71.258,118.436 71.258,126.244 71.723,126.541 "/>
<polygon fill="#DADAD9" points="74.814,124.102 71.723,122.297 71.723,121.811 74.814,123.615 "/>
<polygon fill="#DADAD9" points="71.258,122.053 67.252,119.74 67.252,119.252 71.258,121.566 "/>
<polygon fill="#FCFCFD" points="74.814,124.248 64.26,118.154 64.26,117.668 74.814,123.762 "/>
<polygon fill="#CCC5AA" points="74.814,128.814 74.793,129.402 63.285,122.729 63.854,122.445 "/>
<polygon fill="#CCC5AA" points="59.131,120.48 47.623,113.807 47.623,104.895 59.131,111.568 "/>
<polygon fill="#FCFCFD" points="59.152,119.893 48.191,113.523 48.191,105.223 59.152,111.592 "/>
<polygon fill="#DADAD9" points="59.152,119.385 48.596,113.252 48.596,105.457 59.131,111.568 "/>
<polygon fill="#EBF6FC" points="59.152,119.182 48.738,113.133 48.738,105.537 59.131,111.568 "/>
<polygon fill="#DADAD9" points="51.588,107.182 51.123,106.908 51.123,114.498 51.588,114.795 "/>
<polygon fill="#FCFCFD" points="51.467,107.111 51,106.84 51,114.65 51.467,114.947 "/>
<polygon fill="#DADAD9" points="56.184,109.855 55.717,109.582 55.717,117.168 56.184,117.469 "/>
<polygon fill="#FCFCFD" points="56.061,109.783 55.596,109.512 55.596,117.32 56.061,117.621 "/>
<polygon fill="#DADAD9" points="59.152,115.18 56.061,113.375 56.061,112.889 59.152,114.693 "/>
<polygon fill="#DADAD9" points="55.596,113.133 51.588,110.816 51.588,110.33 55.596,112.646 "/>
<polygon fill="#FCFCFD" points="59.152,115.326 48.596,109.232 48.596,108.746 59.152,114.84 "/>
<polygon fill="#CCC5AA" points="59.152,119.893 59.131,120.48 47.623,113.807 48.191,113.523 "/>
<polygon fill="#CCC5AA" points="42.67,111.631 31.162,104.957 31.162,96.045 42.67,102.719 "/>
<polygon fill="#FCFCFD" points="42.691,111.043 31.73,104.674 31.73,96.371 42.691,102.742 "/>
<polygon fill="#DADAD9" points="42.691,110.535 32.135,104.402 32.135,96.607 42.67,102.719 "/>
<polygon fill="#EBF6FC" points="42.691,110.33 32.277,104.281 32.277,96.688 42.67,102.719 "/>
<polygon fill="#DADAD9" points="35.127,98.332 34.66,98.061 34.66,105.646 35.127,105.945 "/>
<polygon fill="#FCFCFD" points="35.006,98.262 34.539,97.99 34.539,105.799 35.006,106.1 "/>
<polygon fill="#DADAD9" points="39.721,101.006 39.256,100.732 39.256,108.318 39.721,108.619 "/>
<polygon fill="#FCFCFD" points="39.6,100.936 39.135,100.664 39.135,108.471 39.6,108.771 "/>
<polygon fill="#DADAD9" points="42.691,106.33 39.6,104.525 39.6,104.039 42.691,105.842 "/>
<polygon fill="#DADAD9" points="39.135,104.281 35.127,101.969 35.127,101.48 39.135,103.797 "/>
<polygon fill="#FCFCFD" points="42.691,106.477 32.135,100.383 32.135,99.895 42.691,105.99 "/>
<polygon fill="#CCC5AA" points="42.691,111.043 42.67,111.631 31.162,104.957 31.73,104.674 "/>
<polygon fill="#CCC5AA" points="25.502,102.006 13.994,95.332 13.994,86.42 25.502,93.094 "/>
<polygon fill="#FCFCFD" points="25.523,101.418 14.564,95.049 14.564,86.746 25.523,93.117 "/>
<polygon fill="#DADAD9" points="25.523,100.91 14.969,94.777 14.969,86.982 25.502,93.094 "/>
<polygon fill="#EBF6FC" points="25.523,100.705 15.111,94.658 15.111,87.062 25.502,93.094 "/>
<polygon fill="#DADAD9" points="17.961,88.707 17.494,88.434 17.494,96.021 17.961,96.32 "/>
<polygon fill="#FCFCFD" points="17.838,88.637 17.373,88.365 17.373,96.176 17.838,96.473 "/>
<polygon fill="#DADAD9" points="22.555,91.379 22.088,91.107 22.088,98.693 22.555,98.994 "/>
<polygon fill="#FCFCFD" points="22.432,91.309 21.967,91.037 21.967,98.846 22.432,99.146 "/>
<polygon fill="#DADAD9" points="25.523,96.705 22.432,94.9 22.432,94.414 25.523,96.219 "/>
<polygon fill="#DADAD9" points="21.967,94.658 17.961,92.342 17.961,91.855 21.967,94.17 "/>
<polygon fill="#FCFCFD" points="25.523,96.852 14.969,90.758 14.969,90.271 25.523,96.365 "/>
<polygon fill="#CCC5AA" points="25.523,101.418 25.502,102.006 13.994,95.332 14.564,95.049 "/>
</svg>
