<?xml version="1.0" encoding="utf-8"?>
<!-- Generator: Adobe Illustrator 15.1.0, SVG Export Plug-In  -->
<!DOCTYPE svg PUBLIC "-//W3C//DTD SVG 1.1//EN" "http://www.w3.org/Graphics/SVG/1.1/DTD/svg11.dtd" [
	<!ENTITY ns_flows "http://ns.adobe.com/Flows/1.0/">
]>
<svg version="1.1"
	 xmlns="http://www.w3.org/2000/svg" xmlns:xlink="http://www.w3.org/1999/xlink" xmlns:a="http://ns.adobe.com/AdobeSVGViewerExtensions/3.0/"
	 x="0px" y="0px" width="145px" height="113px" viewBox="-0.938 -0.079 145 113"
	 overflow="visible" enable-background="new -0.938 -0.079 145 113" xml:space="preserve">
<defs>
</defs>
<path fill="#343231" d="M74.342,88.969c-0.645,1.183-1.232,2.29-1.494,2.857c-0.704,1.506-1.244,3.8-2.788,5.163
	c-2.55,2.258-5.578,3.787-7.047,4.573c-2.401,1.285-6.036,2.771-8.114,3.616c-0.865,0.354-3.475,1.405-3.475,1.405
	c-1.439,0.743-1.248,2.221,0.436,3.305c0.012,0.009,0.027,0.015,0.043,0.023c0.012,0.009,0.021,0.02,0.032,0.024
	c1.296,0.834,3.086,1.183,4.504,0.964c0.427-0.065,0.819-0.175,1.155-0.348c0.181-0.092,0.334-0.201,0.466-0.318
	c0.649-0.436,1.809-1.208,2.346-1.514c2.82-1.6,6.863-3.434,9.91-4.896c1.484-0.713,7.456-2.834,9.074-3.267
	c3.282-0.885,7.95-0.853,10.656-1.221c0.032-0.007,0.084-0.015,0.128-0.025c0.28,0.272,0.605,0.53,0.972,0.767
	c5.569,3.585,19.062,1.862,30.146-3.844c8.81-4.531,13.421-10.211,12.158-14.155c9.353-5.507,12.835-12.212,7.675-15.53
	c-3.277-2.111-9.319-2.366-15.992-1.066c-0.413-0.459-0.887-0.899-1.493-1.288c-6.769-4.36-23.19-2.263-36.674,4.678
	C73.831,75.633,68.358,84.486,74.342,88.969z M81.761,91.432c2.683,0.28,5.74,0.2,9.007-0.229c-0.86,1.127-1.445,2.223-1.752,3.268
	c-0.776,0.161-2.407,0.453-3.104,0.497c-0.005,0.004-0.019,0.004-0.025,0.006c-1.18,0.072-2.987,0.027-3.8-0.589
	c-0.499-0.429-0.545-1.125-0.503-1.66c0.004-0.021,0.007-0.054,0.01-0.078C81.618,92.327,81.672,91.884,81.761,91.432z"/>
<path fill="#673A11" d="M38.583,65.147c0,0,2.243,2.703,2.988,3.374c1.213,1.091,3.683,2.561,5.116,3.352
	c0.048,0.028,0.114,0.066,0.163,0.091c1.159,0.636,2.777,1.397,4.335,1.503c2.338,0.16,4.562-1.136,5.774-2.082
	c0.009-0.006,0.02-0.016,0.026-0.023c0.708-0.562,1.978-2.126,2.493-2.841c1.205-1.674,2.863-7.735,2.863-7.735h8.83h5.262
	l-4.66,11.67c0,0-0.385,0.634-0.552,0.81c-2.271,2.354-7.685,5.674-9.48,9.017c-0.879,1.641-3.001,8.304-3.113,10.162
	c-0.233,3.82-0.792,8.77-0.456,12.583c0.062,0.726,0.452,2.416,0.682,3.37c0.109,0.226,0.169,0.457,0.169,0.694
	c0,0.43-0.203,0.836-0.543,1.213c-1.138,1.262-3.966,2.159-7.295,2.159c-4.33,0-7.842-1.512-7.842-3.373
	c0,0,0.643-3.048,0.849-4.064c0.5-2.434,1.354-6.704,1.25-9.862c-0.063-1.931,0-5.809-2.099-10.161
	c-1.264-2.629-5.745-5.578-8.289-7.761c-2.678-2.294-11.764-11.07-11.764-11.07L38.583,65.147z"/>
<path fill="#45250C" d="M46.656,71.964c1.16,0.636,2.779,1.397,4.335,1.503c2.342,0.16,4.565-1.136,5.778-2.082
	c0.005-0.006,0.015-0.016,0.023-0.023v0.99c-5.44,0,0,5.441-2.72,8.162c0-4.565-5.726-5.311-7.579-8.641
	C46.542,71.901,46.611,71.939,46.656,71.964z"/>
<path fill="#673A11" d="M38.39,65.147c0,0,2.242,2.703,2.987,3.374c1.217,1.091,3.688,2.561,5.117,3.352
	c1.854,3.33,7.579,4.076,7.579,8.641c2.72-2.721-2.721-8.162,2.72-8.162v-0.99c0.707-0.562,1.977-2.126,2.496-2.841
	c1.205-1.674,2.863-7.735,2.863-7.735h8.827c-12.034,13.588-14.483,32.691-16.906,49.651c1.128-1.13,2.729-0.844,4.212-0.132
	c-1.133,1.262-3.962,2.159-7.294,2.159c-4.331,0-7.841-1.512-7.841-3.373c0,0,0.645-3.048,0.852-4.064
	c0.498-2.434,1.348-6.704,1.247-9.862c-0.065-1.931,0-5.809-2.099-10.161c-1.263-2.629-5.741-5.578-8.29-7.761
	c-2.675-2.294-11.764-11.07-11.764-11.07L38.39,65.147z"/>
<path fill="#45250C" d="M54.073,110.437c2.423-16.96,4.872-36.063,16.906-49.651h5.264l-4.659,11.67c0,0-0.385,0.634-0.554,0.81
	c-2.272,2.354-7.687,5.674-9.481,9.017c-0.88,1.641-2.998,8.304-3.112,10.162c-0.235,3.82-0.794,8.77-0.456,12.583
	c0.064,0.726,0.452,2.416,0.681,3.37c0.11,0.226,0.169,0.457,0.169,0.694c0,0.43-0.205,0.836-0.545,1.213
	C56.802,109.593,55.201,109.307,54.073,110.437z"/>
<path fill="#542E0D" d="M46.986,85.947c0.23,2.566,0.517,4.64,0.637,4.627c0.121-0.021,0.027-2.104-0.203-4.658
	c-0.232-2.574-0.517-4.645-0.637-4.625C46.664,81.296,46.754,83.379,46.986,85.947z"/>
<path fill="#542E0D" d="M57.82,79.208c-0.573,2.514-0.939,4.571-0.823,4.598c0.117,0.019,0.673-1.989,1.245-4.49
	c0.57-2.52,0.939-4.579,0.817-4.596C58.945,74.687,58.39,76.697,57.82,79.208z"/>
<path fill="#542E0D" d="M50.86,83.04c0.011,1.564,0.075,2.821,0.15,2.821c0.073,0,0.12-1.264,0.11-2.816
	c-0.011-1.568-0.077-2.828-0.148-2.821C50.898,80.225,50.848,81.483,50.86,83.04z"/>
<path fill="#542E0D" d="M42.403,77.875c0.478,1.488,0.92,2.669,0.989,2.646c0.066-0.021-0.263-1.243-0.734-2.718
	c-0.481-1.496-0.922-2.674-0.988-2.648C41.598,75.178,41.927,76.393,42.403,77.875z"/>
<line fill="#673A11" x1="56.77" y1="70.317" x2="71.584" y2="72.456"/>
<ellipse fill="#542E0D" cx="30.549" cy="65.147" rx="7.84" ry="3.374"/>
<path fill="#542E0D" d="M62.152,60.786c0,1.671,3.153,3.032,7.045,3.032c3.891,0,7.046-1.36,7.046-3.032
	c0-1.674-3.155-3.035-7.046-3.035C65.306,57.751,62.152,59.112,62.152,60.786z"/>
<path fill="#758827" d="M73.206,29.863c0.093,0.558,0.326,0.976,0.527,0.946c0.202-0.034,0.293-0.51,0.202-1.067
	c-0.09-0.551-0.327-0.978-0.526-0.94C73.206,28.833,73.115,29.305,73.206,29.863z"/>
<path fill="#758827" d="M48.2,47.367c0,14.327,11.612,25.94,25.939,25.94c14.325,0,25.937-11.613,25.937-25.94
	c0-14.323-11.611-25.938-25.937-25.938C59.812,21.429,48.2,33.043,48.2,47.367z"/>
<path fill="#859A26" d="M48.736,49.054c0,12.592,10.21,22.801,22.803,22.801c12.596,0,22.805-10.209,22.805-22.801
	c0-12.597-10.209-22.809-22.805-22.809C58.946,26.245,48.736,36.457,48.736,49.054z"/>
<path fill="#758827" d="M71.079,59.149c-0.04,0.561,0.09,1.024,0.29,1.044c0.203,0.019,0.405-0.425,0.447-0.985
	c0.043-0.559-0.086-1.028-0.291-1.044C71.323,58.147,71.126,58.592,71.079,59.149z"/>
<path fill="#758827" d="M71.984,43.151c0.055,0.56,0.266,0.997,0.467,0.976c0.205-0.023,0.32-0.487,0.27-1.05
	c-0.06-0.56-0.266-0.998-0.471-0.973C72.046,42.122,71.928,42.596,71.984,43.151z"/>
<path fill="#758827" d="M74.209,30.844c0.053,0.56,0.266,0.998,0.466,0.973c0.203-0.015,0.319-0.486,0.267-1.042
	c-0.055-0.561-0.264-0.998-0.467-0.979C74.271,29.815,74.153,30.285,74.209,30.844z"/>
<path fill="#758827" d="M79.468,50.855c0.094,0.558,0.335,0.979,0.536,0.943c0.202-0.036,0.287-0.508,0.191-1.061
	c-0.095-0.558-0.335-0.978-0.533-0.943C79.459,49.83,79.372,50.305,79.468,50.855z"/>
<path fill="#758827" d="M82.393,37.344c0.094,0.559,0.331,0.978,0.533,0.942c0.203-0.034,0.286-0.51,0.191-1.06
	c-0.096-0.557-0.332-0.978-0.531-0.943C82.383,36.318,82.3,36.793,82.393,37.344z"/>
<path fill="#758827" d="M79.893,65.152c-0.213,0.526-0.229,1.01-0.042,1.084c0.19,0.08,0.515-0.281,0.725-0.804
	c0.21-0.521,0.231-1.004,0.043-1.083C80.43,64.273,80.102,64.638,79.893,65.152z"/>
<path fill="#758827" d="M88.823,53.556c-0.125,0.549-0.063,1.031,0.134,1.076c0.201,0.043,0.462-0.362,0.585-0.91
	c0.125-0.55,0.068-1.028-0.132-1.073C89.211,52.606,88.949,53.013,88.823,53.556z"/>
<path fill="#758827" d="M63.522,51.594c-0.043,0.561,0.085,1.028,0.289,1.041c0.205,0.016,0.4-0.426,0.446-0.986
	c0.042-0.558-0.086-1.026-0.289-1.039C63.764,50.59,63.566,51.031,63.522,51.594z"/>
<path fill="#758827" d="M65.233,35.237c-0.046,0.561,0.085,1.031,0.288,1.044c0.203,0.016,0.401-0.427,0.445-0.988
	c0.041-0.558-0.086-1.026-0.287-1.039C65.473,34.236,65.275,34.679,65.233,35.237z"/>
<ellipse transform="matrix(-0.9971 -0.0761 0.0761 -0.9971 105.2896 92.2744)" fill="#758827" cx="54.404" cy="44.13" rx="0.369" ry="1.014"/>
<ellipse transform="matrix(-0.9972 -0.0742 0.0742 -0.9972 119.5242 135.0243)" fill="#758827" cx="62.269" cy="65.293" rx="0.369" ry="1.016"/>
<path fill="#51702B" d="M96.112,42.258c0.235,0.507,0.572,0.855,0.755,0.768c0.187-0.08,0.149-0.566-0.08-1.073
	c-0.229-0.514-0.57-0.859-0.754-0.774C95.848,41.26,95.881,41.743,96.112,42.258z"/>
<path fill="#51702B" d="M90.927,64.182c-0.153,0.535-0.118,1.021,0.075,1.077c0.195,0.056,0.479-0.334,0.639-0.875
	c0.154-0.538,0.12-1.021-0.076-1.077C91.369,63.248,91.084,63.641,90.927,64.182z"/>
<path fill="#51702B" d="M97.478,49.692c-0.149,0.539-0.118,1.023,0.075,1.078c0.197,0.056,0.48-0.332,0.637-0.873
	c0.155-0.537,0.123-1.024-0.074-1.079C97.92,48.759,97.639,49.153,97.478,49.692z"/>
<path fill="#51702B" d="M85.933,28.582c0.511,0.24,0.989,0.284,1.078,0.102c0.087-0.179-0.251-0.523-0.753-0.771
	c-0.512-0.241-0.991-0.288-1.079-0.105C85.088,27.994,85.428,28.341,85.933,28.582z"/>
<path fill="#51702B" d="M64.061,26.575c0.498-0.267,0.823-0.623,0.724-0.805c-0.091-0.175-0.572-0.112-1.069,0.151
	c-0.496,0.26-0.818,0.623-0.725,0.802C63.087,26.899,63.562,26.837,64.061,26.575z"/>
<path fill="#758827" d="M55.86,8.435c0.091,0.557,0.325,0.974,0.526,0.945c0.203-0.034,0.293-0.51,0.203-1.064
	c-0.092-0.553-0.326-0.979-0.527-0.941C55.86,7.404,55.771,7.877,55.86,8.435z"/>
<circle fill="#758827" cx="56.792" cy="25.94" r="25.94"/>
<path fill="#859A26" d="M31.393,27.626c0,12.592,10.207,22.802,22.799,22.802c12.599,0,22.805-10.209,22.805-22.802
	c0-12.597-10.206-22.809-22.805-22.809C41.6,4.817,31.393,15.03,31.393,27.626z"/>
<path fill="#758827" d="M53.735,37.72c-0.041,0.561,0.086,1.027,0.291,1.045c0.2,0.018,0.401-0.426,0.445-0.987
	c0.042-0.558-0.089-1.028-0.29-1.042C53.978,36.72,53.778,37.166,53.735,37.72z"/>
<path fill="#758827" d="M54.639,21.723c0.053,0.56,0.265,0.998,0.468,0.978c0.202-0.025,0.322-0.49,0.266-1.052
	c-0.057-0.561-0.266-0.996-0.469-0.973C54.702,20.696,54.582,21.169,54.639,21.723z"/>
<path fill="#758827" d="M56.86,9.416c0.058,0.561,0.265,0.999,0.466,0.975c0.203-0.016,0.326-0.486,0.268-1.044
	c-0.055-0.561-0.261-0.997-0.465-0.978C56.924,8.387,56.807,8.857,56.86,9.416z"/>
<path fill="#758827" d="M62.119,29.426c0.096,0.558,0.336,0.979,0.537,0.944c0.202-0.035,0.288-0.511,0.191-1.061
	c-0.096-0.558-0.333-0.977-0.531-0.944C62.115,28.402,62.029,28.878,62.119,29.426z"/>
<path fill="#758827" d="M65.046,15.916c0.094,0.557,0.331,0.978,0.533,0.943c0.201-0.033,0.286-0.51,0.194-1.059
	c-0.096-0.559-0.332-0.979-0.534-0.944C65.037,14.891,64.951,15.366,65.046,15.916z"/>
<path fill="#758827" d="M62.545,43.725c-0.21,0.526-0.229,1.011-0.04,1.083c0.188,0.081,0.513-0.282,0.725-0.804
	c0.208-0.521,0.229-1.003,0.043-1.083C63.082,42.846,62.757,43.209,62.545,43.725z"/>
<path fill="#758827" d="M71.479,32.129c-0.126,0.547-0.068,1.032,0.129,1.076c0.204,0.041,0.462-0.362,0.587-0.911
	c0.125-0.55,0.067-1.028-0.129-1.073C71.864,31.178,71.604,31.585,71.479,32.129z"/>
<path fill="#758827" d="M46.176,30.167c-0.043,0.56,0.087,1.027,0.293,1.041c0.201,0.016,0.4-0.424,0.443-0.986
	c0.045-0.56-0.088-1.027-0.287-1.039C46.42,29.161,46.22,29.605,46.176,30.167z"/>
<path fill="#758827" d="M47.887,13.809c-0.043,0.562,0.083,1.031,0.289,1.044c0.203,0.016,0.4-0.429,0.446-0.988
	c0.043-0.559-0.087-1.027-0.29-1.039C48.127,12.809,47.928,13.251,47.887,13.809z"/>
<path fill="#758827" d="M36.691,22.674c-0.046,0.56,0.086,1.026,0.287,1.039c0.201,0.02,0.401-0.422,0.445-0.982
	c0.043-0.561-0.084-1.028-0.285-1.042C36.932,21.672,36.734,22.114,36.691,22.674z"/>
<path fill="#758827" d="M44.553,43.836c-0.041,0.563,0.086,1.028,0.295,1.042c0.201,0.016,0.398-0.422,0.445-0.985
	c0.043-0.561-0.089-1.025-0.292-1.04C44.799,42.838,44.598,43.276,44.553,43.836z"/>
<path fill="#51702B" d="M78.768,20.831c0.232,0.507,0.571,0.855,0.756,0.768c0.184-0.082,0.148-0.566-0.082-1.074
	c-0.229-0.515-0.568-0.86-0.756-0.775C78.501,19.831,78.538,20.317,78.768,20.831z"/>
<path fill="#51702B" d="M73.581,42.753c-0.152,0.536-0.118,1.021,0.076,1.078c0.193,0.058,0.478-0.334,0.635-0.873
	c0.153-0.54,0.122-1.024-0.073-1.079C74.021,41.819,73.74,42.213,73.581,42.753z"/>
<path fill="#51702B" d="M80.133,28.264c-0.15,0.539-0.119,1.022,0.076,1.08c0.192,0.054,0.481-0.333,0.636-0.875
	c0.155-0.537,0.121-1.021-0.073-1.078C80.575,27.332,80.291,27.726,80.133,28.264z"/>
<path fill="#51702B" d="M68.589,7.155c0.505,0.239,0.985,0.284,1.075,0.1c0.084-0.18-0.25-0.522-0.753-0.769
	c-0.509-0.243-0.99-0.29-1.079-0.107C67.742,6.565,68.08,6.913,68.589,7.155z"/>
<path fill="#51702B" d="M46.717,5.148c0.496-0.268,0.818-0.625,0.722-0.806c-0.095-0.176-0.573-0.112-1.066,0.151
	c-0.501,0.26-0.824,0.622-0.729,0.801C45.738,5.469,46.217,5.409,46.717,5.148z"/>
<path fill="#758827" d="M30.424,20.193c0.112,0.678,0.396,1.184,0.643,1.151c0.247-0.042,0.354-0.623,0.247-1.295
	c-0.109-0.675-0.396-1.192-0.642-1.149C30.424,18.937,30.316,19.51,30.424,20.193z"/>
<path fill="#758827" d="M0,41.485c0,17.431,14.131,31.557,31.56,31.557c17.427,0,31.56-14.126,31.56-31.557
	c0-17.423-14.133-31.555-31.56-31.555C14.131,9.931,0,24.062,0,41.485z"/>
<path fill="#859A26" d="M0.654,43.539c0,15.318,12.421,27.74,27.742,27.74c15.322,0,27.743-12.422,27.743-27.74
	c0-15.326-12.421-27.749-27.743-27.749C13.075,15.791,0.654,28.213,0.654,43.539z"/>
<path fill="#758827" d="M27.838,55.819c-0.051,0.685,0.107,1.25,0.353,1.27c0.25,0.024,0.488-0.514,0.545-1.198
	c0.049-0.679-0.107-1.248-0.354-1.269C28.134,54.602,27.893,55.142,27.838,55.819z"/>
<path fill="#758827" d="M28.938,36.355c0.066,0.682,0.324,1.21,0.568,1.191c0.246-0.028,0.392-0.597,0.326-1.279
	c-0.07-0.682-0.322-1.214-0.568-1.181C29.015,35.106,28.871,35.683,28.938,36.355z"/>
<path fill="#758827" d="M31.643,21.383c0.066,0.68,0.319,1.214,0.568,1.187c0.246-0.017,0.389-0.591,0.325-1.269
	c-0.067-0.683-0.325-1.214-0.567-1.187C31.718,20.134,31.578,20.708,31.643,21.383z"/>
<path fill="#758827" d="M38.041,45.732c0.116,0.675,0.41,1.188,0.652,1.146c0.246-0.042,0.35-0.622,0.233-1.293
	c-0.115-0.675-0.408-1.187-0.651-1.145C38.03,44.479,37.931,45.056,38.041,45.732z"/>
<path fill="#758827" d="M41.6,29.292c0.118,0.682,0.404,1.19,0.649,1.148c0.249-0.042,0.351-0.62,0.234-1.289
	c-0.114-0.681-0.403-1.192-0.649-1.146C41.59,28.046,41.486,28.623,41.6,29.292z"/>
<path fill="#758827" d="M38.56,63.123c-0.259,0.644-0.279,1.231-0.051,1.321c0.228,0.096,0.628-0.345,0.882-0.978
	c0.252-0.634,0.277-1.222,0.051-1.318C39.21,62.056,38.814,62.502,38.56,63.123z"/>
<path fill="#758827" d="M49.427,49.017c-0.155,0.666-0.083,1.254,0.159,1.31c0.241,0.049,0.562-0.438,0.713-1.111
	c0.153-0.667,0.082-1.251-0.16-1.304C49.896,47.862,49.576,48.356,49.427,49.017z"/>
<path fill="#758827" d="M18.643,46.632c-0.054,0.678,0.105,1.244,0.35,1.265c0.251,0.017,0.496-0.517,0.548-1.199
	c0.05-0.681-0.106-1.251-0.35-1.267C18.934,45.407,18.696,45.946,18.643,46.632z"/>
<path fill="#758827" d="M20.723,26.728c-0.054,0.686,0.104,1.256,0.354,1.27c0.245,0.024,0.487-0.518,0.544-1.198
	c0.049-0.684-0.109-1.25-0.354-1.268C21.019,25.515,20.774,26.05,20.723,26.728z"/>
<path fill="#758827" d="M7.102,37.518c-0.054,0.68,0.106,1.248,0.353,1.263c0.245,0.02,0.49-0.516,0.545-1.201
	c0.05-0.682-0.112-1.249-0.355-1.262C7.398,36.297,7.152,36.831,7.102,37.518z"/>
<path fill="#758827" d="M16.672,63.261c-0.054,0.682,0.105,1.251,0.353,1.27c0.247,0.013,0.488-0.519,0.544-1.2
	c0.049-0.684-0.108-1.252-0.352-1.266C16.963,62.044,16.725,62.582,16.672,63.261z"/>
<path fill="#51702B" d="M58.293,35.269c0.286,0.616,0.698,1.042,0.921,0.935c0.223-0.095,0.181-0.684-0.1-1.303
	c-0.284-0.626-0.695-1.048-0.921-0.944C57.969,34.056,58.013,34.644,58.293,35.269z"/>
<path fill="#51702B" d="M51.983,61.938c-0.188,0.659-0.144,1.246,0.09,1.315c0.237,0.065,0.583-0.405,0.775-1.06
	c0.192-0.658,0.149-1.249-0.088-1.315C52.519,60.808,52.173,61.284,51.983,61.938z"/>
<path fill="#51702B" d="M59.954,44.315c-0.186,0.656-0.146,1.245,0.093,1.312c0.238,0.067,0.582-0.403,0.774-1.063
	c0.188-0.651,0.146-1.245-0.091-1.312C60.491,43.179,60.145,43.656,59.954,44.315z"/>
<path fill="#51702B" d="M45.91,18.631c0.618,0.292,1.2,0.348,1.309,0.128c0.104-0.224-0.307-0.64-0.919-0.941
	c-0.616-0.295-1.203-0.353-1.31-0.127C44.883,17.914,45.293,18.338,45.91,18.631z"/>
<path fill="#51702B" d="M19.299,16.192c0.603-0.324,0.996-0.757,0.879-0.982c-0.111-0.212-0.694-0.131-1.296,0.185
	c-0.606,0.317-1.004,0.752-0.888,0.976C18.111,16.582,18.692,16.508,19.299,16.192z"/>
</svg>
