<?xml version="1.0" encoding="utf-8"?>
<!-- Generator: Adobe Illustrator 15.1.0, SVG Export Plug-In  -->
<!DOCTYPE svg PUBLIC "-//W3C//DTD SVG 1.1//EN" "http://www.w3.org/Graphics/SVG/1.1/DTD/svg11.dtd" [
	<!ENTITY ns_flows "http://ns.adobe.com/Flows/1.0/">
]>
<svg version="1.1"
	 xmlns="http://www.w3.org/2000/svg" xmlns:xlink="http://www.w3.org/1999/xlink" xmlns:a="http://ns.adobe.com/AdobeSVGViewerExtensions/3.0/"
	 x="0px" y="0px" width="91px" height="83px" viewBox="-0.178 -0.576 91 83"
	 overflow="visible" enable-background="new -0.178 -0.576 91 83" xml:space="preserve">
<defs>
</defs>
<path fill="#3F3E3C" d="M55.486,45.927l0.029,0.108l-0.173,0.101l0.487,1.839h0.006l9.654,0.804l0.183-0.106l0.516,0.043
	l0.422-0.243l0.156-0.488l7.512,0.619l5.161,1.855L35.12,76.045l0.345,1.386l0.002,0.012l-0.347-1.398l-5.136,2.024l-0.327,0.189
	l0.565,2.28h0.013l3.407,0.283l0.327-0.189l3.593-3.015l44.482-25.684l3.298,3.061l1.073,4.338l-0.844,0.089l-0.423,0.242
	l0.074,0.298l-0.183,0.105l1.392,5.574v0.004l3.189,0.281l0.171-0.099l0.188,0.016l0.42-0.242l-0.488-1.961l-0.979-3.923
	l-0.549-0.317l-0.097-0.008l0.041-0.024l-1.108-4.485l0.003-0.002l-0.006-0.004l-1.281-5.188l1.19-0.688l-0.347-1.396l-2.095-0.172
	l-1.415,0.815l-8.787-0.724l-0.006-0.003l-0.003,0.002l-7.771-0.641l-0.042,0.023l-0.014-0.055l-0.551-0.317l-6.795-0.565
	l-3.394-0.283L55.486,45.927z M81.605,49.208l-0.931,0.537l-2.218-0.796L81.605,49.208z M84.27,50.65l0.478,1.93l-1.466-1.36
	L84.27,50.65z"/>
<polygon fill="#ABA233" points="14.008,16.277 14.008,16.854 3.654,22.823 3.654,19.294 "/>
<polygon fill="#CCC241" points="3.654,19.294 3.654,22.823 3.647,22.828 0.202,20.875 0.202,20.299 "/>
<polygon fill="#CCC241" points="10.563,14.325 11.54,14.325 14.008,16.277 3.654,22.248 3.654,18.309 "/>
<polygon fill="#CCC241" points="0.202,20.299 3.654,18.309 3.654,22.248 3.647,22.25 "/>
<polygon fill="#666667" points="36.179,79.482 36.179,79.955 32.528,82.063 32.528,79.33 "/>
<polygon fill="#838382" points="32.528,79.33 32.528,82.063 32.515,82.072 28.281,79.628 28.281,79.154 "/>
<polygon fill="#90918F" points="32.515,81.598 36.179,79.482 34.648,73.114 32.404,74.41 "/>
<polygon fill="#90918F" points="34.648,1.499 34.648,73.114 32.404,74.41 32.384,74.398 32.384,1.404 "/>
<polygon fill="#A0A1A0" points="29.812,1.298 32.384,1.404 32.384,74.398 29.812,72.913 "/>
<polygon fill="#ACAEAC" points="32.404,2.794 34.648,1.499 32.057,0 29.812,1.298 "/>
<polygon fill="#A0A1A0" points="29.812,72.913 28.281,79.154 32.515,81.598 32.404,74.41 "/>
<polygon fill="#90918F" points="21.952,10.288 31.841,8.514 31.841,7.905 20.387,8.785 20.387,9.394 "/>
<polygon fill="#ACAEAC" points="21.952,9.68 31.841,7.905 30.276,7.009 20.387,8.785 "/>
<polygon fill="#90918F" points="13.627,15.106 31.841,4.576 31.841,3.967 12.062,13.603 12.062,14.21 "/>
<polygon fill="#ACAEAC" points="13.627,14.497 31.841,3.967 30.276,3.071 12.062,13.603 "/>
<polygon fill="#90918F" points="14.561,15.662 14.561,16.27 3.64,22.565 3.64,18.843 "/>
<polygon fill="#A2A2A2" points="3.64,18.843 3.64,22.565 3.633,22.57 0,20.512 0,19.903 "/>
<polygon fill="#ACAEAC" points="10.928,13.603 11.958,13.603 14.561,15.662 3.64,21.958 3.64,17.805 "/>
<polygon fill="#ACAEAC" points="0,19.903 3.64,17.805 3.64,21.958 3.633,21.962 "/>
<polygon fill="#7A7A7A" points="1.609,19.581 2.76,19.09 3.633,21.962 0,19.903 "/>
<polygon fill="#6B6B6B" points="13.522,14.499 14.561,15.662 3.633,21.962 2.76,19.09 "/>
<polygon fill="#BCBCBC" points="3.174,20.477 13.522,14.499 11.958,13.603 1.609,19.581 "/>
<polygon fill="#CCC241" points="50.665,16.277 50.665,16.854 61.019,22.823 61.019,19.294 "/>
<polygon fill="#ABA233" points="61.019,19.294 61.019,22.823 61.025,22.828 64.471,20.875 64.471,20.299 "/>
<polygon fill="#CCC241" points="54.109,14.325 53.133,14.325 50.665,16.277 61.019,22.248 61.019,18.309 "/>
<polygon fill="#CCC241" points="64.471,20.299 61.019,18.309 61.019,22.248 61.025,22.25 "/>
<polygon fill="#ACAEAC" points="42.721,10.288 32.831,8.514 32.831,7.905 44.286,8.785 44.286,9.394 "/>
<polygon fill="#A0A1A0" points="42.721,9.68 32.831,7.905 34.396,7.009 44.286,8.785 "/>
<polygon fill="#ACAEAC" points="51.046,15.106 32.831,4.576 32.831,3.967 52.611,13.603 52.611,14.21 "/>
<polygon fill="#A0A1A0" points="51.046,14.497 32.831,3.967 34.396,3.071 52.611,13.603 "/>
<polygon fill="#A2A2A2" points="50.112,15.662 50.112,16.27 61.033,22.565 61.033,18.843 "/>
<polygon fill="#90918F" points="61.033,18.843 61.033,22.565 61.04,22.57 64.674,20.512 64.674,19.903 "/>
<polygon fill="#ACAEAC" points="53.745,13.603 52.714,13.603 50.112,15.662 61.033,21.958 61.033,17.805 "/>
<polygon fill="#ACAEAC" points="64.674,19.903 61.033,17.805 61.033,21.958 61.04,21.962 "/>
<polygon fill="#6B6B6B" points="63.063,19.581 61.913,19.09 61.04,21.962 64.674,19.903 "/>
<polygon fill="#7A7A7A" points="51.15,14.499 50.112,15.662 61.04,21.962 61.913,19.09 "/>
<polygon fill="#BCBCBC" points="61.498,20.477 51.15,14.499 52.714,13.603 63.063,19.581 "/>
</svg>
