<?xml version="1.0" encoding="utf-8"?>
<!-- Generator: Adobe Illustrator 15.1.0, SVG Export Plug-In  -->
<!DOCTYPE svg PUBLIC "-//W3C//DTD SVG 1.1//EN" "http://www.w3.org/Graphics/SVG/1.1/DTD/svg11.dtd" [
	<!ENTITY ns_flows "http://ns.adobe.com/Flows/1.0/">
]>
<svg version="1.1"
	 xmlns="http://www.w3.org/2000/svg" xmlns:xlink="http://www.w3.org/1999/xlink" xmlns:a="http://ns.adobe.com/AdobeSVGViewerExtensions/3.0/"
	 x="0px" y="0px" width="78px" height="54px" viewBox="-0.615 -0.097 78 54"
	 overflow="visible" enable-background="new -0.615 -0.097 78 54" xml:space="preserve">
<defs>
</defs>
<path fill="#2C2122" d="M3.9,29.354l-0.012-0.005l0.137-0.087L3.9,29.354 M24.516,25.509l11.195-1.512L24.516,25.509 M60.871,22.16
	l-24.844,1.555l-12.734,1.663c-9.705,0.989-17.146,2.295-17.146,2.295l-2.064,1.54l-1.297,0.078L1.727,30.07l0.76,0.338
	l-0.012,0.008l3.318,1.454l8.322,3.669l0.023-0.016l-0.023,0.016l0.061-0.002l0.127,0.055l6.164-0.325l-0.078,0.058l2.252,0.921
	l0.039-0.015c0.27,0.092,0.602,0.163,0.979,0.21c0.525,0.064,1.137,0.081,1.785,0.041c2.26-0.135,4.77-0.708,5.873-1.82
	c0.418-0.413,0.188-0.782-0.439-1.028l-1.432-0.529l0.248,0.021c0.055,0.005,0.105,0.011,0.158,0.018
	c2.596,0.318,1.896,1.42,1.896,1.42l0.58-0.035l19.684,2.416l5.311-3.907l0.293-0.02l-0.008,0.013l1.924,0.869l0.035-0.012
	c0.264,0.092,0.592,0.161,0.963,0.207c0.529,0.065,1.146,0.081,1.803,0.042c2.252-0.137,4.758-0.706,5.873-1.82
	c0.416-0.41,0.188-0.783-0.443-1.025l0.004-0.004l-0.867-0.363c0.07,0.007,0.139,0.015,0.205,0.022
	c1.553,0.19,1.967,0.839,1.611,1.101l2.006-0.159l3.756-0.29l1.029-0.758l-0.283-0.105l-0.266-0.127l2.168-1.651L67.07,24.598
	L60.871,22.16"/>
<polygon fill="#D6D7D7" points="69.945,13.292 45.852,7.82 45.852,0 54.844,4.642 "/>
<polygon fill="#BA3732" points="69.701,13.466 45.607,7.991 45.607,0.171 54.6,4.813 "/>
<polygon fill="#241C1D" points="59.662,32.974 56.725,31.212 56.246,23.952 61.104,21.282 64.09,22.938 "/>
<path fill="#342F30" d="M65.83,25.638c-0.289-2.643-2.889-3.847-4.984-2.422c-2.17,1.475-3.467,4.569-2.977,7.183
	c0.486,2.61,2.83,3.397,4.744,2.279C64.572,31.533,66.211,29.096,65.83,25.638"/>
<path fill="#241C1D" d="M60.863,33.297L60.863,33.297c-1.568,0-2.791-1.129-3.117-2.876c-0.498-2.654,0.805-5.797,3.029-7.309
	c0.604-0.41,1.277-0.627,1.951-0.627c1.699,0,3.025,1.291,3.227,3.139c0.4,3.635-1.43,6.082-3.277,7.162
	C62.104,33.12,61.477,33.297,60.863,33.297z M62.727,22.735c-0.623,0-1.25,0.202-1.811,0.584c-2.148,1.459-3.404,4.493-2.924,7.056
	c0.307,1.648,1.406,2.672,2.871,2.672l0,0c0.57,0,1.152-0.165,1.688-0.478c2.305-1.346,3.484-3.933,3.154-6.918
	C65.518,23.935,64.293,22.735,62.727,22.735z"/>
<path fill="#A39E93" d="M64.854,26.425c-0.213-1.914-2.096-2.789-3.615-1.752c-1.574,1.068-2.516,3.312-2.16,5.205
	c0.354,1.895,2.113,2.559,3.439,1.652C63.84,30.626,65.127,28.935,64.854,26.425"/>
<path fill="#241C1D" d="M61.264,32.056L61.264,32.056c-1.141,0-2.068-0.866-2.309-2.155c-0.363-1.936,0.588-4.229,2.213-5.331
	c0.443-0.303,0.939-0.463,1.436-0.463c1.248,0,2.223,0.948,2.373,2.305c0.33,3.014-1.561,4.656-2.389,5.223
	C62.184,31.91,61.725,32.056,61.264,32.056z M62.604,24.356c-0.445,0-0.893,0.146-1.295,0.42c-1.549,1.051-2.455,3.233-2.107,5.078
	c0.217,1.167,1.047,1.951,2.062,1.951l0,0c0.412,0,0.82-0.131,1.184-0.379c0.791-0.54,2.596-2.109,2.281-4.988
	C64.592,25.213,63.719,24.356,62.604,24.356z"/>
<path fill="#241C1D" d="M62.613,27.894c-0.033-0.293-0.322-0.428-0.555-0.27c-0.24,0.164-0.385,0.509-0.332,0.799
	c0.055,0.291,0.324,0.393,0.529,0.254C62.459,28.538,62.656,28.279,62.613,27.894"/>
<path fill="#464446" d="M62.062,28.863L62.062,28.863c-0.229,0-0.412-0.168-0.459-0.417c-0.061-0.337,0.104-0.734,0.385-0.926
	c0.084-0.058,0.182-0.089,0.279-0.089c0.242,0,0.439,0.188,0.469,0.448c0.059,0.52-0.268,0.803-0.41,0.9
	C62.246,28.834,62.154,28.863,62.062,28.863z M62.268,27.682c-0.047,0-0.096,0.016-0.139,0.046
	c-0.201,0.137-0.324,0.433-0.279,0.673c0.023,0.129,0.107,0.213,0.213,0.213l0,0c0.041,0,0.084-0.014,0.123-0.04
	c0.131-0.089,0.344-0.295,0.303-0.666C62.475,27.774,62.383,27.682,62.268,27.682z"/>
<path fill="#241C1D" d="M61.654,27.57c-0.012-0.12-0.127-0.173-0.223-0.109c-0.096,0.068-0.154,0.204-0.131,0.321
	c0.021,0.113,0.129,0.155,0.213,0.1C61.592,27.827,61.672,27.724,61.654,27.57"/>
<path fill="#464446" d="M61.436,28.031c-0.127,0-0.232-0.093-0.258-0.226c-0.031-0.16,0.045-0.349,0.182-0.446
	c0.18-0.122,0.4-0.002,0.42,0.199c0.02,0.17-0.051,0.326-0.193,0.426C61.537,28.016,61.486,28.031,61.436,28.031z"/>
<path fill="#241C1D" d="M62.758,27.175c-0.016-0.116-0.129-0.17-0.223-0.104c-0.096,0.062-0.152,0.202-0.133,0.317
	c0.021,0.116,0.131,0.156,0.211,0.101C62.695,27.435,62.773,27.33,62.758,27.175"/>
<path fill="#464446" d="M62.537,27.638c-0.127,0-0.232-0.093-0.258-0.228c-0.029-0.167,0.053-0.357,0.188-0.445
	c0.045-0.03,0.098-0.048,0.152-0.048c0.133,0,0.244,0.102,0.262,0.241c0.02,0.18-0.057,0.341-0.199,0.435
	C62.641,27.622,62.588,27.638,62.537,27.638z"/>
<path fill="#241C1D" d="M62.973,28.427c-0.012-0.118-0.129-0.172-0.223-0.106c-0.096,0.063-0.154,0.202-0.131,0.319
	c0.021,0.115,0.129,0.156,0.211,0.1C62.91,28.685,62.99,28.579,62.973,28.427"/>
<path fill="#464446" d="M62.752,28.89L62.752,28.89c-0.125,0-0.23-0.094-0.256-0.228c-0.033-0.165,0.045-0.353,0.184-0.446
	c0.047-0.031,0.1-0.049,0.156-0.049c0.137,0,0.246,0.104,0.262,0.247c0.02,0.17-0.055,0.331-0.197,0.429
	C62.855,28.873,62.805,28.89,62.752,28.89z"/>
<path fill="#241C1D" d="M61.875,28.917c-0.012-0.116-0.127-0.172-0.223-0.107c-0.096,0.066-0.152,0.203-0.131,0.318
	c0.021,0.116,0.131,0.158,0.211,0.102C61.814,29.175,61.893,29.071,61.875,28.917"/>
<path fill="#464446" d="M61.656,29.38c-0.127,0-0.232-0.095-0.258-0.229c-0.031-0.162,0.047-0.349,0.182-0.443
	c0.174-0.118,0.398-0.002,0.42,0.197c0.02,0.173-0.055,0.334-0.199,0.429C61.76,29.363,61.709,29.38,61.656,29.38z"/>
<polygon fill="#241C1D" points="27.812,52.012 24.504,50.231 24.396,42.989 28.986,40.411 32.244,41.976 "/>
<path fill="#342F30" d="M33.982,44.676c-0.291-2.641-2.889-3.849-4.986-2.42c-2.168,1.474-3.465,4.569-2.977,7.183
	c0.486,2.611,2.832,3.397,4.746,2.277C32.723,50.57,34.361,48.136,33.982,44.676"/>
<path fill="#241C1D" d="M29.014,52.337L29.014,52.337c-1.568-0.001-2.793-1.129-3.117-2.876c-0.496-2.655,0.807-5.797,3.029-7.309
	c0.604-0.411,1.279-0.629,1.953-0.629c1.697,0,3.023,1.291,3.227,3.139c0.338,3.085-0.887,5.763-3.277,7.161
	C30.256,52.159,29.627,52.337,29.014,52.337z M30.879,41.773c-0.623,0-1.25,0.203-1.812,0.586c-2.146,1.459-3.404,4.492-2.924,7.056
	c0.307,1.647,1.406,2.671,2.871,2.672l0,0c0.57,0,1.154-0.166,1.689-0.479c2.303-1.349,3.482-3.935,3.154-6.919
	C33.668,42.973,32.443,41.773,30.879,41.773z"/>
<path fill="#A39E93" d="M33.004,45.465c-0.211-1.915-2.096-2.79-3.615-1.755c-1.572,1.069-2.514,3.312-2.16,5.207
	c0.355,1.895,2.115,2.559,3.441,1.653C31.992,49.665,33.277,47.972,33.004,45.465"/>
<path fill="#241C1D" d="M29.418,51.096L29.418,51.096c-1.143,0-2.07-0.866-2.312-2.155c-0.361-1.938,0.59-4.23,2.213-5.334
	c0.443-0.302,0.939-0.461,1.436-0.461c1.248,0,2.225,0.948,2.373,2.306c0.33,3.013-1.559,4.656-2.387,5.223
	C30.336,50.949,29.879,51.096,29.418,51.096z M30.754,43.396c-0.445,0-0.893,0.145-1.295,0.418
	c-1.547,1.051-2.451,3.235-2.107,5.081c0.219,1.167,1.049,1.951,2.066,1.951l0,0c0.41,0,0.818-0.131,1.182-0.379
	c0.789-0.541,2.594-2.109,2.279-4.988C32.744,44.252,31.869,43.396,30.754,43.396z"/>
<path fill="#241C1D" d="M30.764,46.933c-0.031-0.295-0.32-0.43-0.553-0.271c-0.24,0.165-0.387,0.511-0.332,0.799
	c0.053,0.293,0.324,0.393,0.527,0.255C30.607,47.577,30.807,47.317,30.764,46.933"/>
<path fill="#464446" d="M30.213,47.902L30.213,47.902c-0.229-0.001-0.412-0.169-0.457-0.419c-0.062-0.333,0.102-0.73,0.385-0.925
	c0.084-0.059,0.182-0.089,0.279-0.089c0.244,0,0.439,0.189,0.469,0.45c0.057,0.516-0.27,0.801-0.412,0.898
	C30.396,47.873,30.307,47.902,30.213,47.902z M30.42,46.72c-0.047,0-0.096,0.016-0.139,0.046c-0.201,0.139-0.324,0.434-0.279,0.672
	c0.033,0.184,0.201,0.27,0.334,0.175c0.131-0.09,0.344-0.297,0.303-0.666C30.625,46.812,30.535,46.72,30.42,46.72z"/>
<path fill="#241C1D" d="M29.807,46.607c-0.014-0.118-0.129-0.171-0.223-0.106c-0.096,0.063-0.154,0.203-0.133,0.319
	c0.021,0.115,0.129,0.155,0.211,0.101C29.742,46.865,29.822,46.762,29.807,46.607"/>
<path fill="#464446" d="M29.584,47.07L29.584,47.07c-0.125,0-0.23-0.094-0.256-0.228c-0.031-0.163,0.051-0.355,0.188-0.446
	c0.158-0.108,0.393-0.003,0.414,0.196c0.02,0.175-0.053,0.331-0.197,0.431C29.688,47.055,29.637,47.07,29.584,47.07z"/>
<path fill="#241C1D" d="M30.908,46.215c-0.012-0.118-0.129-0.171-0.223-0.108c-0.096,0.066-0.152,0.203-0.131,0.32
	c0.021,0.115,0.129,0.156,0.211,0.1C30.846,46.472,30.926,46.367,30.908,46.215"/>
<path fill="#464446" d="M30.688,46.677L30.688,46.677c-0.125,0-0.23-0.094-0.256-0.228c-0.029-0.164,0.047-0.352,0.182-0.445
	c0.174-0.115,0.4-0.001,0.42,0.198c0.02,0.17-0.055,0.33-0.197,0.428C30.791,46.66,30.74,46.677,30.688,46.677z"/>
<path fill="#241C1D" d="M31.125,47.466c-0.016-0.119-0.129-0.172-0.223-0.108c-0.096,0.065-0.152,0.203-0.131,0.32
	c0.021,0.114,0.127,0.155,0.209,0.102C31.061,47.722,31.141,47.62,31.125,47.466"/>
<path fill="#464446" d="M30.904,47.928c-0.125,0-0.23-0.094-0.256-0.227c-0.031-0.166,0.047-0.354,0.184-0.447
	c0.164-0.113,0.391-0.004,0.416,0.195c0.018,0.174-0.053,0.329-0.195,0.432C31.006,47.912,30.955,47.928,30.904,47.928z"/>
<path fill="#241C1D" d="M30.027,47.955c-0.014-0.118-0.129-0.172-0.221-0.108c-0.098,0.066-0.156,0.204-0.133,0.32
	c0.02,0.116,0.129,0.157,0.211,0.104C29.965,48.214,30.043,48.108,30.027,47.955"/>
<path fill="#464446" d="M29.809,48.419c-0.129,0-0.236-0.095-0.258-0.231c-0.033-0.16,0.045-0.349,0.186-0.444
	c0.162-0.11,0.393-0.002,0.414,0.197c0.02,0.176-0.053,0.332-0.193,0.433C29.91,48.403,29.859,48.419,29.809,48.419z"/>
<polygon fill="#BFD0AB" points="48.832,17.476 49.773,25.241 36.889,32.581 36.742,31.427 40.697,22.413 "/>
<polygon fill="#E9504B" points="61.344,8.942 39.902,21.616 24.369,12.759 45.852,0 "/>
<path fill="#992A29" d="M48.832,17.476l-8.135,4.938l-3.955,9.014l0.146,1.155l12.885-7.341L48.832,17.476z M68.625,13.39
	l-6.646-3.322l-11.768,6.828l1.277,7.438l17.234-10.11L68.625,13.39z M61.344,8.942l8.602,4.35l0.109,8.709l-4.094,2.715
	c0-0.886-1.352-2.67-3.203-2.488c-2.031,0.193-5.387,1.492-5.432,8.602L34.254,44.255c0,0-0.783-3.417-3.789-3.283
	c-2.207,0.102-5.639,3.111-5.879,9.025l-5.494,3.045l-0.096-8.635l15.895-10.902l4.604-10.921l0.408-0.968L61.344,8.942z"/>
<polygon fill="#BACDA3" points="38.738,22.269 34.312,32.283 15.793,21.639 24.434,13.65 "/>
<polygon fill="#D5D100" points="39.494,22.584 34.891,33.505 18.996,44.407 34.965,33.312 "/>
<polygon fill="#C6C42F" points="18.412,45.134 18.412,48.038 13.77,45.644 13.842,44.119 "/>
<polygon fill="#C6C42F" points="5.709,39.325 5.637,40.488 1.645,38.82 1.5,35.261 "/>
<polygon fill="#99CF9F" points="13.77,45.644 18.412,48.038 18.412,45.134 13.842,44.119 "/>
<path fill="#878887" d="M18.537,48.243l-4.896-2.525l0.084-1.753l4.812,1.068V48.243z M13.898,45.569l4.389,2.264v-2.599
	l-4.328-0.961L13.898,45.569z"/>
<path fill="#BA3732" d="M18.996,44.407L1.209,33.881l0.057,8.843l17.826,10.318L18.996,44.407z M18.412,48.038L18.412,48.038
	L18.412,48.038L18.412,48.038L18.412,48.038z"/>
<path fill="#E9504B" d="M34.312,32.283l4.426-10.015L24.434,13.65l-8.641,7.988L34.312,32.283z M1.209,33.881
	c0,0,5.352-6.146,13.258-12.188l9.902-8.935l15.533,8.857l-0.408,0.968l-4.529,10.728L18.996,44.407L1.209,33.881z"/>
<polygon fill="#E2E3E3" points="19.752,52.58 0.52,41.441 0.109,39.502 1.248,38.843 1.23,39.29 19.752,50.054 "/>
<polygon fill="#FCFCFD" points="18.855,52.964 0.109,42.029 0.109,39.502 18.881,50.331 "/>
<path fill="#D6D7D7" d="M23.951,47.679l-5.061,2.695l-0.035,2.59l4.775-2.722c0,0-0.051-0.509,0.027-1.284
	C23.732,48.238,23.951,47.679,23.951,47.679"/>
<polygon fill="#E2E3E3" points="23.391,47.305 23.951,47.679 18.936,50.374 18.588,49.813 "/>
<polygon fill="#BEE1DC" points="34.52,31.853 16.488,21.478 24.771,13.854 38.711,22.284 "/>
<polygon fill="#ACD1C8" points="40.697,22.413 36.742,31.427 36.816,32.411 49.504,25.188 48.559,17.626 "/>
<polygon fill="#E2E3E3" points="70.426,18.864 70,18.595 70.01,19.12 66.92,21.216 66.895,23.671 67.242,23.864 70.836,19.07 "/>
<polygon fill="#D6D7D7" points="70.836,19.07 67.242,21.42 67.242,23.864 70.836,21.513 "/>
<polygon fill="#FCCF6B" points="21.977,44.29 19.629,45.729 19.629,46.904 21.977,45.463 "/>
<path fill="#878887" d="M19.379,47.352V45.59l2.848-1.746v1.759L19.379,47.352z M19.879,45.869v0.588l1.848-1.134v-0.587
	L19.879,45.869z"/>
<polygon fill="#AF1027" points="69.691,13.565 69.945,13.44 69.959,19.171 68.73,19.972 "/>
<path fill="#241C1D" d="M68.564,20.229l1.014-6.746l0.492-0.242l0.014,5.998L68.564,20.229z M69.805,13.648l-0.91,6.066l0.939-0.611
	l-0.014-5.463L69.805,13.648z"/>
<g>
	<defs>
		<rect id="SVGID_6_" x="35.938" y="16.761" width="15.262" height="24.897"/>
	</defs>
	<clipPath id="SVGID_8_">
		<use xlink:href="#SVGID_6_"  overflow="visible"/>
	</clipPath>
	<g clip-path="url(#SVGID_8_)">
		<g>
			<path fill="#241C1D" d="M36.926,41.824l-1.094-9.778l4.408-10.102l0.035-0.021l8.916-5.329l2.119,16.871l-0.072,0.042
				L36.926,41.824z M36.088,32.085l1.045,9.331l13.908-8.083l-2.049-16.328l-8.555,5.113L36.088,32.085z"/>
		</g>
	</g>
</g>
<g>
	<defs>
		<rect id="SVGID_4_" x="48.787" y="25.704" width="1.264" height="1.041"/>
	</defs>
	<clipPath id="SVGID_10_">
		<use xlink:href="#SVGID_4_"  overflow="visible"/>
	</clipPath>
	<g clip-path="url(#SVGID_10_)">
		<g>
			<path fill="#241C1D" d="M48.748,26.888l-0.072-0.618l1.385-0.722l0.104,0.807L48.748,26.888z M48.943,26.412l0.016,0.128
				l0.932-0.35l-0.033-0.256L48.943,26.412z"/>
		</g>
	</g>
</g>
<g>
	<defs>
		<rect id="SVGID_2_" x="34.461" y="30.517" width="22.004" height="13.441"/>
	</defs>
	<clipPath id="SVGID_12_">
		<use xlink:href="#SVGID_2_"  overflow="visible"/>
	</clipPath>
	<g clip-path="url(#SVGID_12_)">
		<g>
			<polygon fill="#CAC6BF" points="56.465,31.276 34.766,43.958 34.461,43.29 56.449,30.517 			"/>
		</g>
	</g>
</g>
<polygon fill="#FCCF6B" points="57.742,26.032 32.85,40.628 32.576,40.34 57.756,25.651 "/>
<polygon fill="#701E1D" points="57.742,26.032 32.85,40.628 32.576,40.34 57.756,25.651 "/>
<polygon fill="#FFFFFF" points="1.721,36.117 5.68,38.476 5.68,40.425 1.721,38.107 "/>
<polygon fill="#FFFFFF" points="14.672,43.644 18.631,46.001 18.631,47.951 14.672,45.634 "/>
<polygon fill="#F5A524" points="0.5,40.767 1.898,41.626 1.898,42.325 0.5,41.467 "/>
<polygon fill="#E1D5C6" points="2.398,43.219 0,41.746 0,39.872 2.398,41.347 "/>
<polygon fill="#F5A524" points="17.213,50.395 18.611,51.255 18.611,51.954 17.213,51.095 "/>
<polygon fill="#E1D5C6" points="19.111,52.849 16.713,51.374 16.713,49.5 19.111,50.976 "/>
<polygon fill="#D6D7D7" points="68.625,13.39 68.723,14.223 51.488,24.333 50.201,16.764 61.979,10.067 "/>
<polygon fill="#ACD1C8" points="68.125,13.146 68.186,14.026 51.385,23.861 50.201,16.764 61.979,10.067 "/>
<path fill="#D8ECEC" d="M13.645,44.495c-0.104,0.848-0.627,1.275-1.17,0.957l-5.275-3.099c-0.543-0.318-0.898-1.264-0.797-2.111
	l0.084-0.672c0.104-0.849,0.627-1.276,1.17-0.958l5.275,3.098c0.543,0.319,0.898,1.264,0.797,2.112L13.645,44.495z"/>
<path fill="#E1D5C6" d="M12.832,46.058c-0.209,0-0.414-0.059-0.611-0.174l-5.275-3.1c-0.719-0.422-1.166-1.54-1.039-2.602
	l0.084-0.675c0.109-0.896,0.635-1.501,1.309-1.501c0.207,0,0.414,0.059,0.609,0.174l5.275,3.098
	c0.721,0.424,1.168,1.543,1.041,2.604l-0.084,0.675C14.031,45.454,13.506,46.058,12.832,46.058z M7.299,39.007
	c-0.084,0-0.262,0.184-0.316,0.624l-0.084,0.674c-0.082,0.69,0.225,1.424,0.553,1.617l5.277,3.1
	c0.039,0.023,0.076,0.036,0.104,0.036c0.084,0,0.262-0.183,0.316-0.623l0.084-0.674c0.082-0.691-0.225-1.426-0.555-1.62
	l-5.275-3.097C7.363,39.021,7.326,39.007,7.299,39.007z"/>
<rect x="6.512" y="40.895" transform="matrix(0.8708 0.4916 -0.4916 0.8708 21.6543 0.387)" fill="#E1D5C6" width="7.157" height="1.001"/>
<rect x="6.538" y="40.479" transform="matrix(0.8707 0.4917 -0.4917 0.8707 21.4584 0.3228)" fill="#E1D5C6" width="7.155" height="1.001"/>
<rect x="6.702" y="40.161" transform="matrix(0.8707 0.4918 -0.4918 0.8707 21.3101 0.2638)" fill="#E1D5C6" width="6.902" height="1.001"/>
<rect x="6.464" y="41.26" transform="matrix(0.8709 0.4915 -0.4915 0.8709 21.8224 0.4567)" fill="#E1D5C6" width="7.157" height="1.001"/>
<rect x="6.44" y="41.577" transform="matrix(0.8707 0.4918 -0.4918 0.8707 21.9907 0.5142)" fill="#E1D5C6" width="7.156" height="1.001"/>
<rect x="6.306" y="41.895" transform="matrix(0.8707 0.4918 -0.4918 0.8707 22.1365 0.5781)" fill="#E1D5C6" width="7.326" height="1.001"/>
<rect x="6.488" y="42.286" transform="matrix(0.8706 0.4919 -0.4919 0.8706 22.351 0.5833)" fill="#E1D5C6" width="7.156" height="1.001"/>
<rect x="6.44" y="42.628" transform="matrix(0.8707 0.4917 -0.4917 0.8707 22.5027 0.6486)" fill="#E1D5C6" width="7.155" height="1.001"/>
<rect x="6.391" y="42.969" transform="matrix(0.8707 0.4918 -0.4918 0.8707 22.6693 0.7183)" fill="#E1D5C6" width="7.156" height="1.001"/>
</svg>
