<?xml version="1.0" encoding="utf-8"?>
<!-- Generator: Adobe Illustrator 15.1.0, SVG Export Plug-In  -->
<!DOCTYPE svg PUBLIC "-//W3C//DTD SVG 1.1//EN" "http://www.w3.org/Graphics/SVG/1.1/DTD/svg11.dtd" [
	<!ENTITY ns_flows "http://ns.adobe.com/Flows/1.0/">
]>
<svg version="1.1"
	 xmlns="http://www.w3.org/2000/svg" xmlns:xlink="http://www.w3.org/1999/xlink" xmlns:a="http://ns.adobe.com/AdobeSVGViewerExtensions/3.0/"
	 x="0px" y="0px" width="183px" height="131px" viewBox="-0.307 -0.995 183 131"
	 overflow="visible" enable-background="new -0.307 -0.995 183 131" xml:space="preserve">
<defs>
</defs>
<path fill="#42403F" d="M163.054,120.043l1.133-0.714l1.191-0.196l-1.142,0.714L163.054,120.043 M166.802,118.221l-0.784-0.055
	l3.419-2.162l0.782,0.055l-2.836,1.827l-0.064,0.01L166.802,118.221 M120.651,69.849c-3.951,0.192-10.655,0.987-20.152,3.667
	l-1.046,0.649L81.046,85.884l11.589,7.339c1.085-0.534,3.654-1.653,6.365-1.785c1.018-0.049,1.946,0.05,2.759,0.298l0.665,0.204
	l-5.07,0.641c-1.692,0.23-3.492,0.815-4.932,1.597c-3.745,2.038-5.093,3.953-3.61,5.115c0.483,0.378,1.409,0.551,2.576,0.494
	c0.211-0.011,0.43-0.028,0.655-0.054l0.536-0.062l-0.015,0.016l5.524-0.788l1.577-0.965l26.589,17.333l-1.978,1.233l2.854,1.737
	c1.195-0.607,4.244-1.995,7.431-2.15c0.483-0.024,0.944-0.015,1.387,0.022l1.522,0.126l-4.783,0.605
	c-1.691,0.227-3.479,0.808-4.924,1.595c-3.747,2.04-5.1,3.952-3.612,5.116c0.486,0.374,1.404,0.548,2.564,0.492
	c0.212-0.011,0.435-0.029,0.662-0.055l0.518-0.058l-0.018,0.017l5.554-0.793l0.829-0.513l0.331,0.194
	c2.772,1.634,4.034,1.812,4.37,1.828l0.176-0.028l27.552-3.719l2.753-1.715l-0.027-0.044l-0.987,0.128l0.961-0.599l0.565-0.435
	l0.041,0.057l1.907-1.194l-2.062-1.373l0.772-0.486c1.279-1.412,0.902-5.433,0.763-6.637l-0.027-0.225l0.65-0.058
	c0.353-0.033,0.713-0.073,1.076-0.126c0.841-0.125,1.359-0.267,1.553-0.328l6.4-3.996l-0.015-0.002l-1.129,0.165l0.007,0.002
	l-2.519,0.371l-5.991,3.741l3.805-4.268l-26.109,3.736l1.131-0.395l-0.125-0.09l0.785-0.116l24.667-3.519l0.121-0.136l0.143,0.023
	l1.068-0.679l-50.398-32.711C126.123,69.954,124.215,69.676,120.651,69.849"/>
<path fill="#42403F" d="M165.378,119.133l-1.191,0.196l-1.133,0.714l1.183-0.196L165.378,119.133 M169.437,116.003l-3.419,2.162
	l0.784,0.055l0.517-0.325l0.064-0.01l2.836-1.827L169.437,116.003 M174.454,105.705l1.594-1.789l1.209,0.193l-0.329,0.048
	L174.454,105.705 M93.416,93.289c1.014-0.482,3.129-1.372,5.223-1.474c0.524-0.025,1.032,0.001,1.501,0.076l-3.183,0.403
	l0.001,0.016C95.75,92.514,94.544,92.851,93.416,93.289 M92.635,93.224l-11.589-7.339l18.407-11.719l1.046-0.649
	c9.497-2.68,16.201-3.475,20.152-3.667c3.563-0.173,5.472,0.104,5.817,0.162l50.398,32.711l-1.068,0.679l-0.143-0.023l-0.121,0.136
	l-24.667,3.519l-0.785,0.116l0.125,0.09l-1.131,0.395l26.109-3.736l-3.805,4.268l5.991-3.741l2.519-0.371l-0.007-0.002l1.129-0.165
	l0.015,0.002l-6.4,3.996c-0.193,0.061-0.712,0.203-1.553,0.328c-0.363,0.053-0.724,0.093-1.076,0.126l-0.65,0.058l0.027,0.225
	c0.14,1.205,0.517,5.226-0.763,6.637l-0.772,0.486l2.062,1.373l-1.907,1.194l-0.041-0.057l-0.565,0.435l-0.961,0.599l0.987-0.128
	l0.027,0.044l-2.753,1.715l-27.552,3.719l-0.176,0.028c-0.336-0.017-1.598-0.194-4.37-1.828l-0.331-0.194l-0.829,0.513l-5.554,0.793
	l0.018-0.017l-0.518,0.058c-0.228,0.025-0.45,0.044-0.662,0.055c-1.16,0.056-2.078-0.118-2.564-0.492
	c-1.487-1.165-0.135-3.077,3.612-5.116c1.444-0.787,3.232-1.368,4.924-1.595l4.783-0.605l-1.522-0.126
	c-0.442-0.037-0.903-0.046-1.387-0.022c-3.187,0.155-6.235,1.543-7.431,2.15l-2.854-1.737l1.978-1.233L99.666,97.935L98.089,98.9
	l-5.524,0.788l0.015-0.016l-0.536,0.062c-0.226,0.025-0.444,0.043-0.655,0.054c-1.167,0.057-2.093-0.116-2.576-0.494
	c-1.482-1.162-0.135-3.077,3.61-5.115c1.439-0.781,3.239-1.366,4.932-1.597l5.07-0.641l-0.665-0.204
	c-0.812-0.249-1.741-0.348-2.759-0.298C96.289,91.571,93.72,92.69,92.635,93.224 M121.013,69.473
	c-4.114,0.2-11.09,1.023-20.943,3.815l-0.155,0.047l-19.99,12.708l12.282,7.78c-0.172,0.083-0.337,0.172-0.496,0.257
	c-4.006,2.18-5.433,4.233-3.819,5.495c0.575,0.452,1.688,0.66,3.133,0.59c0.098-0.005,0.2-0.012,0.302-0.019l-0.055,0.064
	l7.24-1.034l0.873-0.534l25.754,16.777l-1.99,1.239l3.299,2.016c-3.539,2.052-4.747,3.961-3.213,5.158
	c0.566,0.444,1.662,0.662,3.069,0.594c0.124-0.007,0.249-0.015,0.376-0.025l-0.047,0.063l7.232-1.033l0.161-0.102
	c2.066,1.188,3.634,1.764,4.66,1.714c0.196-0.009,0.352-0.04,0.467-0.071l27.969-3.777l3.053-1.905l0.39-0.08l-0.077-0.116
	l0.372-0.247l-0.486,0.065l-0.136-0.209l2.79-1.738l-2.069-1.372l0.48-0.305l0.064-0.051c1.289-1.364,1.071-4.915,0.88-6.598
	c0.194-0.021,0.39-0.047,0.583-0.077c1.395-0.203,2.13-0.465,2.203-0.491l7.026-4.362l-0.564-0.25l-1.854,0.274l-2.855-0.49
	l1.068-0.679l-50.654-32.871l-0.087-0.032C127.169,69.648,125.177,69.27,121.013,69.473"/>
<polygon fill="#979290" points="141.6,70.514 141.262,71.196 146.332,71.876 146.842,71.308 "/>
<polygon fill="#575656" points="144.445,83.698 145.008,83.947 148.639,70.552 148.074,70.302 144.445,72.554 "/>
<path fill="#F2D03C" d="M145.008,83.947c0,0,1.096-0.212,2.211-0.896c1.119-0.686,1.42-1.356,1.42-1.356V70.552
	c0,0-0.365,0.715-1.775,1.566c-1.408,0.853-1.855,0.688-1.855,0.688V83.947z"/>
<polygon fill="#F2D03C" points="157.67,112.345 162.432,109.597 162.432,103.702 157.539,100.82 157.67,105.414 "/>
<polygon fill="#231C1D" points="123.893,129.148 129.518,125.79 129.699,112.116 121.898,107.247 116.359,110.204 "/>
<path fill="#343031" d="M113.406,115.3c0.494-4.99,4.91-7.264,8.473-4.572c3.686,2.785,5.893,8.627,5.062,13.561
	s-4.814,6.416-8.066,4.305C115.545,126.427,112.76,121.83,113.406,115.3z"/>
<path fill="#241C1D" d="M121.85,129.651c-1.029,0-2.082-0.329-3.043-0.954c-4.031-2.622-6.098-7.635-5.525-13.41
	c0.34-3.432,2.561-5.828,5.398-5.828c1.129,0,2.262,0.404,3.273,1.169c3.75,2.833,5.947,8.715,5.111,13.681
	C126.518,127.555,124.471,129.651,121.85,129.651z M118.68,109.709c-2.705,0-4.822,2.304-5.148,5.604
	c-0.562,5.68,1.461,10.605,5.412,13.176c0.92,0.598,1.926,0.913,2.906,0.913c2.531,0,4.436-1.967,4.969-5.134
	c0.82-4.881-1.336-10.659-5.016-13.44C120.834,110.096,119.754,109.709,118.68,109.709z"/>
<path fill="#A39F93" d="M115.07,116.786c0.357-3.613,3.557-5.264,6.143-3.312c2.674,2.019,4.273,6.256,3.67,9.833
	c-0.602,3.577-3.59,4.83-5.848,3.119C116.787,124.72,114.6,121.523,115.07,116.786z"/>
<path fill="#241C1D" d="M121.168,127.309c-0.77,0-1.533-0.271-2.209-0.782c-1.393-1.058-4.572-4.126-4.014-9.753
	c0.248-2.504,1.871-4.253,3.947-4.253c0.826,0,1.654,0.295,2.395,0.854c2.73,2.061,4.328,6.34,3.719,9.953
	C124.605,125.709,123.062,127.309,121.168,127.309z M118.893,112.771c-1.943,0-3.463,1.656-3.697,4.028
	c-0.547,5.501,2.555,8.496,3.916,9.528c0.631,0.479,1.342,0.731,2.057,0.731c1.768,0,3.213-1.516,3.592-3.771
	c0.596-3.529-0.963-7.704-3.623-9.713C120.439,113.048,119.664,112.771,118.893,112.771z"/>
<path fill="#F3F6FB" d="M116.146,117.519c0.268-2.691,2.65-3.92,4.576-2.47c1.988,1.506,3.18,4.658,2.73,7.322
	c-0.447,2.659-2.676,3.595-4.354,2.319C117.428,123.421,115.799,121.04,116.146,117.519z"/>
<path fill="#241C1D" d="M120.686,125.38c-0.58,0-1.154-0.204-1.662-0.59c-1.041-0.79-3.416-3.082-3.002-7.284
	c0.188-1.883,1.41-3.197,2.975-3.197c0.621,0,1.244,0.222,1.801,0.641c2.039,1.544,3.234,4.744,2.779,7.442
	C123.275,124.179,122.113,125.38,120.686,125.38z M118.996,114.559c-1.432,0-2.551,1.222-2.725,2.973
	c-0.402,4.075,1.896,6.295,2.904,7.06c0.463,0.353,0.984,0.539,1.51,0.539c1.303,0,2.365-1.117,2.645-2.779
	c0.439-2.614-0.713-5.71-2.684-7.202C120.135,114.763,119.562,114.559,118.996,114.559z"/>
<path fill="#231C1D" d="M118.875,119.56c0.057-0.555,0.545-0.808,0.941-0.506c0.412,0.307,0.654,0.959,0.564,1.506
	c-0.092,0.55-0.551,0.74-0.896,0.479C119.139,120.775,118.805,120.286,118.875,119.56z"/>
<path fill="#464445" d="M119.811,121.279c-0.141,0-0.279-0.049-0.402-0.142c-0.227-0.173-0.746-0.674-0.658-1.59
	c0.045-0.44,0.336-0.748,0.709-0.748c0.15,0,0.301,0.054,0.434,0.154c0.445,0.332,0.709,1.031,0.611,1.626
	C120.434,120.998,120.156,121.279,119.811,121.279z M119.459,119.05c-0.24,0-0.428,0.215-0.459,0.522
	c-0.078,0.79,0.365,1.219,0.561,1.366c0.078,0.06,0.164,0.091,0.25,0.091c0.223,0,0.396-0.192,0.447-0.49
	c0.082-0.5-0.145-1.108-0.516-1.385C119.652,119.086,119.555,119.05,119.459,119.05z"/>
<path fill="#231C1D" d="M120.506,118.946c0.02-0.223,0.219-0.322,0.375-0.201c0.166,0.121,0.264,0.383,0.227,0.602
	c-0.037,0.22-0.221,0.299-0.361,0.191C120.611,119.433,120.479,119.235,120.506,118.946z"/>
<path fill="#464445" d="M120.879,119.711c-0.074,0-0.146-0.025-0.209-0.073c-0.1-0.079-0.326-0.303-0.289-0.703
	c0.02-0.212,0.168-0.366,0.357-0.366c0.076,0,0.152,0.026,0.219,0.078c0.199,0.146,0.318,0.456,0.273,0.721
	C121.195,119.572,121.055,119.711,120.879,119.711z M120.738,118.818c-0.057,0-0.102,0.057-0.107,0.139
	c-0.027,0.279,0.125,0.431,0.191,0.482c0.064,0.051,0.143-0.004,0.162-0.113c0.029-0.173-0.051-0.388-0.178-0.48
	C120.781,118.827,120.76,118.818,120.738,118.818z"/>
<path fill="#231C1D" d="M118.631,118.205c0.02-0.224,0.219-0.326,0.377-0.204c0.164,0.123,0.262,0.385,0.225,0.602
	c-0.037,0.221-0.219,0.297-0.357,0.193C118.734,118.69,118.602,118.497,118.631,118.205z"/>
<path fill="#464445" d="M119.004,118.967c-0.072,0-0.143-0.024-0.203-0.07c-0.217-0.162-0.322-0.418-0.295-0.704
	c0.02-0.213,0.17-0.368,0.359-0.368c0.076,0,0.152,0.026,0.219,0.078c0.199,0.148,0.316,0.46,0.271,0.722
	C119.32,118.828,119.18,118.967,119.004,118.967z M118.865,118.074c-0.059,0-0.104,0.059-0.109,0.142
	c-0.027,0.271,0.109,0.417,0.193,0.48c0.066,0.047,0.141-0.005,0.16-0.114c0.029-0.171-0.051-0.387-0.178-0.481
	C118.908,118.083,118.887,118.074,118.865,118.074z"/>
<path fill="#231C1D" d="M118.264,120.564c0.023-0.22,0.217-0.323,0.375-0.2c0.166,0.119,0.266,0.383,0.227,0.603
	c-0.037,0.216-0.221,0.296-0.357,0.19C118.369,121.05,118.234,120.856,118.264,120.564z"/>
<path fill="#464445" d="M118.637,121.328c-0.074,0-0.145-0.024-0.205-0.072c-0.127-0.097-0.332-0.318-0.293-0.704
	c0.023-0.212,0.174-0.365,0.357-0.365c0.076,0,0.152,0.027,0.219,0.079c0.201,0.145,0.32,0.456,0.273,0.723
	C118.953,121.191,118.812,121.328,118.637,121.328z M118.496,120.437c-0.055,0-0.1,0.06-0.107,0.142
	c-0.027,0.265,0.111,0.415,0.195,0.48c0.057,0.043,0.135,0.018,0.158-0.113c0.031-0.173-0.049-0.388-0.176-0.479
	C118.539,120.445,118.518,120.437,118.496,120.437z"/>
<path fill="#231C1D" d="M120.127,121.49c0.023-0.22,0.219-0.319,0.379-0.204c0.164,0.125,0.264,0.387,0.225,0.607
	c-0.037,0.219-0.221,0.292-0.357,0.189C120.234,121.979,120.1,121.782,120.127,121.49z"/>
<path fill="#464445" d="M120.504,122.254c-0.074,0-0.145-0.024-0.207-0.071c-0.1-0.075-0.332-0.296-0.295-0.704
	c0.023-0.213,0.176-0.366,0.363-0.366c0.074,0,0.148,0.025,0.213,0.072c0.207,0.158,0.322,0.465,0.275,0.73
	C120.818,122.117,120.678,122.254,120.504,122.254z M120.365,121.362c-0.059,0-0.105,0.059-0.113,0.142
	c-0.027,0.28,0.127,0.429,0.195,0.479c0.068,0.051,0.141-0.001,0.16-0.109c0.029-0.172-0.049-0.39-0.178-0.487
	C120.41,121.371,120.387,121.362,120.365,121.362z"/>
<polygon fill="#231C1D" points="39.098,78.136 44.723,74.774 44.904,61.101 37.1,56.231 31.564,59.188 "/>
<path fill="#343031" d="M28.609,64.286c0.494-4.986,4.908-7.261,8.473-4.572c3.688,2.785,5.891,8.629,5.062,13.562
	c-0.83,4.932-4.814,6.415-8.066,4.304C30.746,75.415,27.963,70.815,28.609,64.286z"/>
<path fill="#241C1D" d="M37.053,78.638c-1.029,0-2.082-0.33-3.043-0.953c-4.031-2.619-6.098-7.633-5.525-13.41
	c0.34-3.432,2.561-5.827,5.398-5.827c1.131,0,2.262,0.403,3.273,1.167c3.748,2.83,5.945,8.713,5.111,13.682
	C41.721,76.541,39.674,78.638,37.053,78.638z M33.883,58.697c-2.705,0-4.822,2.304-5.148,5.601
	c-0.564,5.684,1.459,10.609,5.412,13.176c0.92,0.598,1.926,0.914,2.906,0.914c2.531,0,4.436-1.967,4.969-5.133
	c0.82-4.885-1.336-10.662-5.016-13.441C36.037,59.083,34.959,58.697,33.883,58.697z"/>
<path fill="#A39F93" d="M30.271,65.773c0.357-3.616,3.562-5.266,6.146-3.312c2.674,2.016,4.271,6.252,3.67,9.83
	c-0.604,3.578-3.594,4.832-5.848,3.12C31.99,73.706,29.805,70.511,30.271,65.773z"/>
<path fill="#241C1D" d="M36.371,76.294c-0.77,0-1.533-0.27-2.207-0.782c-1.393-1.056-4.572-4.12-4.018-9.751
	c0.248-2.505,1.871-4.255,3.949-4.255c0.828,0,1.656,0.296,2.396,0.856c2.729,2.057,4.326,6.334,3.719,9.95
	C39.809,74.694,38.266,76.294,36.371,76.294z M34.096,61.756c-1.943,0-3.465,1.657-3.699,4.03c-0.543,5.504,2.561,8.496,3.92,9.526
	c0.629,0.479,1.34,0.731,2.055,0.731c1.768,0,3.213-1.516,3.594-3.773c0.594-3.531-0.963-7.705-3.623-9.709
	C35.645,62.034,34.869,61.756,34.096,61.756z"/>
<path fill="#F3F6FB" d="M31.35,66.503c0.266-2.69,2.65-3.918,4.572-2.465c1.992,1.5,3.18,4.654,2.732,7.316
	c-0.447,2.663-2.672,3.598-4.354,2.324C32.629,72.406,31,70.026,31.35,66.503z"/>
<path fill="#241C1D" d="M35.887,74.366c-0.578,0-1.154-0.203-1.662-0.588c-1.041-0.793-3.416-3.088-3-7.287
	c0.186-1.882,1.408-3.195,2.971-3.195c0.623,0,1.246,0.222,1.801,0.643c2.041,1.535,3.236,4.732,2.781,7.437
	C38.477,73.165,37.314,74.366,35.887,74.366z M34.195,63.546c-1.43,0-2.549,1.221-2.721,2.969c-0.404,4.074,1.895,6.298,2.902,7.064
	c0.463,0.352,0.986,0.537,1.51,0.537c1.303,0,2.365-1.118,2.645-2.782c0.439-2.619-0.715-5.712-2.686-7.196
	C35.334,63.751,34.764,63.546,34.195,63.546z"/>
<path fill="#231C1D" d="M34.078,68.546c0.055-0.556,0.549-0.807,0.943-0.506c0.41,0.307,0.654,0.959,0.564,1.507
	c-0.096,0.546-0.555,0.741-0.9,0.478C34.344,69.765,34.004,69.273,34.078,68.546z"/>
<path fill="#464445" d="M35.012,70.266c-0.141,0-0.281-0.049-0.402-0.142c-0.229-0.174-0.75-0.676-0.656-1.591
	c0.043-0.433,0.342-0.747,0.711-0.747c0.15,0,0.301,0.054,0.434,0.154c0.445,0.334,0.709,1.033,0.611,1.627
	C35.635,69.985,35.355,70.266,35.012,70.266z M34.664,68.036c-0.242,0-0.432,0.215-0.461,0.521
	c-0.082,0.789,0.363,1.219,0.559,1.367c0.078,0.06,0.164,0.091,0.25,0.091c0.219,0,0.4-0.196,0.451-0.49
	c0.082-0.499-0.145-1.107-0.516-1.386C34.857,68.072,34.76,68.036,34.664,68.036z"/>
<path fill="#231C1D" d="M35.709,67.933c0.02-0.219,0.217-0.322,0.377-0.202c0.164,0.12,0.262,0.384,0.225,0.603
	c-0.037,0.217-0.221,0.297-0.359,0.191C35.812,68.423,35.68,68.222,35.709,67.933z"/>
<path fill="#464445" d="M36.08,68.696c-0.072,0-0.143-0.025-0.205-0.072c-0.211-0.154-0.32-0.418-0.291-0.704
	c0.02-0.211,0.17-0.365,0.359-0.365c0.076,0,0.15,0.026,0.217,0.075c0.201,0.146,0.318,0.459,0.273,0.725
	C36.398,68.558,36.256,68.696,36.08,68.696z M35.943,67.805c-0.059,0-0.104,0.058-0.109,0.14c-0.031,0.293,0.139,0.441,0.191,0.479
	c0.076,0.059,0.145-0.001,0.162-0.111c0.029-0.172-0.049-0.389-0.176-0.48C35.988,67.813,35.965,67.805,35.943,67.805z"/>
<path fill="#231C1D" d="M33.834,67.188c0.023-0.218,0.219-0.319,0.375-0.199c0.164,0.122,0.264,0.384,0.227,0.601
	c-0.037,0.221-0.219,0.297-0.359,0.189C33.939,67.677,33.805,67.478,33.834,67.188z"/>
<path fill="#464445" d="M34.209,67.952c-0.074,0-0.146-0.026-0.209-0.074c-0.211-0.156-0.318-0.42-0.291-0.703
	c0.023-0.211,0.174-0.363,0.359-0.363c0.076,0,0.15,0.027,0.217,0.078c0.199,0.148,0.318,0.459,0.273,0.721
	C34.523,67.813,34.385,67.952,34.209,67.952z M34.068,67.062c-0.057,0-0.102,0.058-0.109,0.139
	c-0.029,0.281,0.125,0.428,0.191,0.479c0.074,0.056,0.143,0,0.162-0.11c0.029-0.171-0.051-0.386-0.178-0.479
	C34.111,67.071,34.09,67.062,34.068,67.062z"/>
<path fill="#231C1D" d="M33.467,69.55c0.021-0.22,0.219-0.321,0.379-0.201c0.162,0.123,0.26,0.384,0.221,0.603
	c-0.035,0.22-0.217,0.298-0.357,0.192C33.572,70.04,33.438,69.84,33.467,69.55z"/>
<path fill="#464445" d="M33.84,70.315c-0.072,0-0.145-0.025-0.207-0.072c-0.211-0.16-0.318-0.424-0.291-0.706
	c0.021-0.211,0.172-0.364,0.359-0.364c0.078,0,0.152,0.025,0.219,0.076c0.201,0.151,0.316,0.463,0.27,0.725
	C34.156,70.177,34.016,70.315,33.84,70.315z M33.701,69.423c-0.057,0-0.102,0.057-0.109,0.139c-0.029,0.281,0.125,0.432,0.193,0.482
	c0.066,0.051,0.141-0.004,0.158-0.112c0.029-0.173-0.047-0.388-0.174-0.483C33.748,69.432,33.725,69.423,33.701,69.423z"/>
<path fill="#231C1D" d="M35.332,70.479c0.021-0.223,0.219-0.325,0.377-0.206c0.164,0.124,0.262,0.384,0.225,0.603
	c-0.037,0.224-0.221,0.297-0.359,0.193C35.438,70.963,35.305,70.769,35.332,70.479z"/>
<path fill="#464445" d="M35.705,71.241c-0.072,0-0.145-0.025-0.205-0.072c-0.213-0.165-0.318-0.42-0.293-0.701
	c0.021-0.215,0.172-0.369,0.361-0.369c0.076,0,0.15,0.025,0.215,0.075c0.203,0.153,0.318,0.458,0.273,0.724
	C36.023,71.103,35.881,71.241,35.705,71.241z M35.568,70.349c-0.059,0-0.104,0.059-0.111,0.143
	c-0.025,0.266,0.109,0.414,0.193,0.479c0.062,0.046,0.143-0.003,0.16-0.115c0.029-0.173-0.049-0.386-0.178-0.482
	C35.611,70.356,35.59,70.349,35.568,70.349z"/>
<path fill="#F2D03C" d="M142.785,107.882L122.68,95.665l-3.059-11.201l22.145-13.229l3.682,11.522c0,0,10.826,12.656,12.098,16.982
	L142.785,107.882z"/>
<path fill="#D5B62A" d="M0,15.492l0.422,31.56l27.574,15.78c0,0,0.658-8.961,8.91-4.833c6.617,3.307,7.379,14.504,7.379,14.504
	l61.592,35.89v3.307l7.354,4.104c0,0,0.484-8.019,6.902-6.901c7.426,1.294,8.789,14.585,8.535,15.347
	c-0.254,0.765,8.766,2.269,8.766,2.269l5.461-3.345l-0.109-15.291L122.68,95.665l-3.059-11.201L0,15.492z"/>
<polygon fill="#575656" points="137.725,117.529 137.812,122.454 142.535,119.81 142.498,114.879 "/>
<path fill="#241C1D" d="M137.691,122.665l-0.094-5.209l0.066-0.036l4.957-2.753l0.039,5.216L137.691,122.665z M137.852,117.603
	l0.082,4.641l4.477-2.507l-0.035-4.646L137.852,117.603z"/>
<polygon fill="#575656" points="157.611,106.409 157.686,111.332 162.361,108.63 162.336,103.655 "/>
<path fill="#241C1D" d="M157.564,111.547l-0.08-5.209l0.064-0.037l4.91-2.862l0.027,5.264l-0.062,0.036L157.564,111.547z
	 M157.736,106.48l0.07,4.637l4.43-2.56l-0.025-4.686L157.736,106.48z"/>
<polygon fill="#99B4DE" points="157.611,106.409 157.652,110.949 161.947,108.517 161.92,103.808 "/>
<path fill="#241C1D" d="M157.529,111.162l-0.043-4.823l4.557-2.752l0.029,5.002L157.529,111.162z M157.736,106.479l0.039,4.257
	l4.047-2.292l-0.025-4.416L157.736,106.479z"/>
<polygon fill="#99B4DE" points="137.848,117.593 137.889,122.135 142.182,119.702 142.158,114.993 "/>
<path fill="#241C1D" d="M137.766,122.349l-0.043-4.826l0.061-0.037l4.498-2.713l0.025,5.002L137.766,122.349z M137.973,117.663
	l0.039,4.258l4.045-2.291l-0.023-4.416L137.973,117.663z"/>
<path fill="#F2D03C" d="M108.424,113.229c0,0-0.256-15.273,11.453-10.438c11.707,4.837,17.783,14.714,17.783,14.714l5.188-2.92
	c0,0-18.896-14.338-25.516-13.574C110.715,101.776,108.424,106.101,108.424,113.229z"/>
<polygon fill="#ECEDED" points="157.545,99.739 157.67,112.345 142.875,120.726 142.785,107.882 "/>
<path fill="#241C1D" d="M142.752,120.939l-0.092-13.131l0.064-0.036l14.943-8.244l0.127,12.889l-0.064,0.036L142.752,120.939z
	 M142.91,107.955l0.088,12.557l14.547-8.239l-0.123-12.322L142.91,107.955z"/>
<polygon fill="#D5B62A" points="119.523,79.925 120.658,73.234 136.074,66.773 141.742,68.589 141.766,71.234 119.523,84.497 "/>
<path fill="#F2D03C" d="M119.562,82.109c0,0,7.838-14.245,22.18-13.521L23.926,0.116c0,0-12.471-2.291-23.926,13.49v1.886
	l119.621,68.972L119.562,82.109z"/>
<polygon fill="#575656" points="143.953,120.114 156.592,112.911 156.592,101.011 143.895,107.982 "/>
<path fill="#241C1D" d="M143.828,120.329l-0.059-12.421l0.064-0.035l12.883-7.073v12.184l-0.062,0.036L143.828,120.329z
	 M144.02,108.057l0.057,11.843l12.391-7.061v-11.617L144.02,108.057z"/>
<polygon fill="#575656" points="137.889,127.991 138.416,128.446 163.471,109.212 162.449,108.306 162.521,108.895 137.889,122.853 
	128.592,122.588 "/>
<path fill="#241C1D" d="M138.412,128.607l-0.605-0.521l-9.703-5.637l9.754,0.277l24.529-13.899l-0.102-0.834l1.381,1.226
	l-0.119,0.093L138.412,128.607z M129.08,122.727l8.871,5.156l0.469,0.402l24.854-19.08l-0.66-0.587l0.043,0.344l-0.074,0.041
	l-24.662,13.976L129.08,122.727z"/>
<polygon fill="#575656" points="138.416,128.446 163.432,114.274 163.432,109.134 138.416,123.306 "/>
<path fill="#241C1D" d="M138.291,128.661v-5.429l0.062-0.035l25.203-14.278v5.429l-0.064,0.035L138.291,128.661z M138.541,123.379
	v4.853l24.766-14.03v-4.853L138.541,123.379z"/>
<path fill="#575656" d="M128.705,124.516c9.297,5.175,9.807,3.901,9.807,3.901l-0.096-5.111l-9.824-0.718L128.705,124.516z"/>
<path fill="#241C1D" d="M138.049,128.681L138.049,128.681c-0.967,0-3.383-0.704-9.404-4.056l-0.061-0.033l-0.125-2.139l0.143,0.01
	l9.938,0.727l0.098,5.25l-0.01,0.023C138.607,128.515,138.506,128.681,138.049,128.681z M128.826,124.439
	c6.244,3.472,8.457,3.991,9.223,3.991l0,0c0.211,0,0.303-0.04,0.336-0.062l-0.092-4.947l-9.568-0.699L128.826,124.439z"/>
<path fill="#D4D1E7" d="M123.594,95.479c0,0,9.865-4.178,13.539-6.296c3.674-2.123,7.729-5.982,7.729-5.982l-3.457-10.929
	l-20.859,12.242L123.594,95.479z"/>
<path fill="#F5F0D4" d="M123.527,95.002c0,0,9.4-3.847,13.074-5.971c3.678-2.121,7.73-5.982,7.73-5.982l-3.309-10.456
	l-20.479,11.922L123.527,95.002z"/>
<path fill="#B69829" d="M108.9,110.659l-3.482-2.151l-0.23-31.862l14.201,8.049l2.787,10.477l-0.254,7.371l-0.688-0.325
	c-0.967-0.458-2.051-0.69-3.215-0.69c-2.633,0-5.1,1.191-6.375,2.373c-1.754,1.626-2.6,6.001-2.609,6.045L108.9,110.659z
	 M106.414,107.947l1.793,1.108c0.332-1.389,1.207-4.453,2.758-5.89c1.732-1.604,4.5-2.64,7.055-2.64c1.047,0,2.037,0.168,2.955,0.5
	l0.197-5.742l-2.643-9.928l-12.33-6.988L106.414,107.947z"/>
<polygon fill="#B69829" points="118.529,85.167 121.195,94.833 121.137,96.929 106.234,88.124 106.146,78.147 "/>
<polygon fill="#F5F0D4" points="118.529,85.167 121.195,94.833 121.072,96.476 106.537,87.897 106.504,78.337 "/>
<polygon fill="#F5F0D4" points="1.434,30.271 102.971,88.935 102.971,76.806 1.434,18.14 "/>
<polygon fill="#B69829" points="1.736,19.425 102.971,77.995 102.471,76.464 1.236,17.894 "/>
<polygon fill="#B69829" points="1.736,30.459 102.971,89.031 102.971,87.842 1.736,29.269 "/>
<polygon fill="#B69829" points="46.666,67.795 102.971,100.52 102.971,99.327 46.666,66.603 "/>
<polygon fill="#B69829" points="2.227,42.55 27.998,57.59 27.998,56.401 2.227,41.361 "/>
<polygon fill="#B69829" points="1.736,23.958 102.971,82.53 102.971,82.249 1.736,23.679 "/>
<polygon fill="#B69829" points="1.736,33.784 102.971,92.358 102.971,92.075 1.736,33.501 "/>
<polygon fill="#B69829" points="101.896,88.37 102.971,89.006 102.971,76.806 101.896,76.238 "/>
<polygon fill="#B69829" points="91.012,82.097 92.088,82.729 92.088,70.534 91.012,69.966 "/>
<polygon fill="#B69829" points="80.129,75.822 81.203,76.46 81.203,64.261 80.129,63.694 "/>
<polygon fill="#B69829" points="69.244,69.55 70.322,70.183 70.322,57.987 69.244,57.421 "/>
<polygon fill="#B69829" points="58.324,63.05 59.4,63.684 59.4,51.487 58.324,50.921 "/>
<polygon fill="#B69829" points="47.518,56.854 48.594,57.487 48.594,45.29 47.518,44.724 "/>
<polygon fill="#B69829" points="36.625,50.532 37.699,51.165 37.699,38.97 36.625,38.402 "/>
<polygon fill="#B69829" points="25.713,44.259 26.789,44.892 26.789,32.694 25.713,32.13 "/>
<polygon fill="#B69829" points="14.906,38.108 15.984,38.741 15.984,26.546 14.906,25.979 "/>
<polygon fill="#B69829" points="4.098,31.837 5.174,32.47 5.174,20.271 4.098,19.704 "/>
<polygon fill="#B69829" points="0.623,29.794 1.697,30.429 1.697,18.232 0.623,17.666 "/>
<polygon fill="#979290" points="119.807,97.593 119.084,97.831 120.031,101.292 120.658,101.462 "/>
<polygon fill="#575656" points="115.879,99.229 116.441,99.478 120.07,86.082 119.508,85.83 115.879,88.085 "/>
<path fill="#F2D03C" d="M116.441,99.478c0,0,1.094-0.211,2.209-0.893c1.119-0.686,1.42-1.357,1.42-1.357V86.082
	c0,0-0.367,0.712-1.773,1.565c-1.406,0.85-1.855,0.687-1.855,0.687V99.478z"/>
<polygon fill="#979290" points="119.693,84.401 119.014,84.06 118.107,86.78 118.674,87.291 "/>
</svg>
