<?xml version="1.0" encoding="utf-8"?>
<!-- Generator: Adobe Illustrator 15.1.0, SVG Export Plug-In  -->
<!DOCTYPE svg PUBLIC "-//W3C//DTD SVG 1.1//EN" "http://www.w3.org/Graphics/SVG/1.1/DTD/svg11.dtd" [
	<!ENTITY ns_flows "http://ns.adobe.com/Flows/1.0/">
]>
<svg version="1.1"
	 xmlns="http://www.w3.org/2000/svg" xmlns:xlink="http://www.w3.org/1999/xlink" xmlns:a="http://ns.adobe.com/AdobeSVGViewerExtensions/3.0/"
	 x="0px" y="0px" width="259px" height="110px" viewBox="-0.713 -0.822 259 110"
	 overflow="visible" enable-background="new -0.713 -0.822 259 110" xml:space="preserve">
<defs>
</defs>
<path fill="#221B1A" d="M194.568,89.9c-1.918,1.178-3.871,2.309-5.862,3.385c-17.707,9.564-38.259,15.039-60.183,15.039
	c-21.998,0-42.615-5.514-60.363-15.141c-1.879-1.018-3.725-2.086-5.536-3.195L0,53.672L0.002,49.5L85.646,4.125l5.014,2.898
	c0.488,0.301,0.998,0.594,1.523,0.881c8.437,4.613,21.572,7.582,36.34,7.582c15.647,0,29.463-3.332,37.795-8.422
	c0.008,0.014,0.015,0.025,0.021,0.039l-37.815,21.809l42.981-24.789L257.313,49.5l0.007,4.162L194.568,89.9z"/>
<path fill="#55534F" d="M194.568,85.816c-1.918,1.176-3.871,2.309-5.862,3.385c-17.707,9.562-38.259,15.039-60.183,15.039
	c-21.998,0-42.615-5.516-60.363-15.141c-1.879-1.02-3.725-2.088-5.536-3.197L0.002,49.5l18.999-10.945L85.73,0l4.93,2.939
	c0.488,0.299,0.998,0.592,1.523,0.881c8.437,4.611,21.572,7.58,36.34,7.58c15.647,0,29.463-3.332,37.795-8.42
	c0.008,0.012,0.015,0.025,0.021,0.037l-37.815,21.811L171.584,0l85.729,49.5L194.568,85.816z"/>
<path fill="#FFFFFF" d="M68.119,84.6c17.748,9.625,38.365,16.141,60.363,16.141c21.922,0,42.475-6.477,60.182-16.039
	c1.992-1.076,3.943-2.209,5.861-3.385l59.121-33.922l3.666,2.105l-62.745,36.316c-1.918,1.178-3.87,2.309-5.862,3.385
	c-17.707,9.564-38.258,15.039-60.182,15.039c-21.998,0-42.615-5.516-60.363-15.141c-1.879-1.02-3.725-2.086-5.537-3.197L0.002,49.5
	l3.666-2.105l58.914,34.008C64.395,82.512,66.24,83.58,68.119,84.6"/>
<path fill="#FFFFFF" d="M128.5,11.387c15.373,0,28.795-3.098,43.084-11.387l3.756,2.178c-13.982,8.369-29.903,12.709-46.807,12.709
	c-16.871,0-32.245-4.34-46.56-12.709L85.73,0C100.035,8.289,113.174,11.387,128.5,11.387"/>
<path fill="#FFFFFF" d="M62.582,34.102c1.812,1.109,3.658,2.178,5.537,3.199c17.748,9.623,38.365,20.139,60.363,20.139
	c21.922,0,42.475-10.477,60.182-20.039c1.992-1.076,3.943-2.209,5.861-3.385l17.916-10.346l3.918,2.262l-21.792,12.584
	c-1.918,1.178-3.87,2.309-5.862,3.385c-17.707,9.564-38.259,19.039-60.182,19.039c-21.998,0-42.615-9.516-60.363-19.139
	c-1.879-1.021-3.724-2.088-5.537-3.199L40.76,25.98l3.875-2.24L62.582,34.102z"/>
</svg>
