<?xml version="1.0" encoding="utf-8"?>
<!-- Generator: Adobe Illustrator 15.1.0, SVG Export Plug-In  -->
<!DOCTYPE svg PUBLIC "-//W3C//DTD SVG 1.1//EN" "http://www.w3.org/Graphics/SVG/1.1/DTD/svg11.dtd" [
	<!ENTITY ns_flows "http://ns.adobe.com/Flows/1.0/">
]>
<svg version="1.1"
	 xmlns="http://www.w3.org/2000/svg" xmlns:xlink="http://www.w3.org/1999/xlink" xmlns:a="http://ns.adobe.com/AdobeSVGViewerExtensions/3.0/"
	 x="0px" y="0px" width="74px" height="76px" viewBox="-0.494 -0.735 74 76"
	 overflow="visible" enable-background="new -0.494 -0.735 74 76" xml:space="preserve">
<defs>
</defs>
<ellipse fill="#BFC0BF" cx="14.258" cy="73.276" rx="2.037" ry="1.171"/>
<path fill="#343231" d="M55.926,43.875l11.447-1.676l1.523,0.73l1.414-0.773c0.498-0.273,1.332-0.233,1.865,0.09
	c0.535,0.324,0.559,0.809,0.061,1.082l-1.172,0.643l1.467,0.703l-2.441,5.994l-0.055,0.03l-0.275,0.671l-7.986,4.375L50.27,57.393
	l-1.973-0.946l-31.732,17.39c-0.498,0.273-1.336,0.233-1.869-0.092c-0.531-0.322-0.559-0.807-0.059-1.08l31.492-17.258l-1.018-0.486
	l2.498-5.969l0.047-0.023l0.283-0.676L55.926,43.875z"/>
<rect x="12.221" y="1.076" fill="#BFC0BF" width="4.074" height="72.2"/>
<polygon fill="#B6B6B5" points="9.465,30.83 19.156,31.57 27.564,23.17 27.564,12.811 19.156,3.127 9.465,2.389 0.951,10.781 
	0.951,21.139 "/>
<polygon fill="#D1D2D1" points="8.512,31.84 18.205,32.58 26.611,24.18 26.611,13.821 18.205,4.136 8.512,3.398 0,11.789 0,22.146 
	"/>
<polygon fill="#D50D18" points="9.256,29.693 17.447,30.318 24.551,23.218 24.551,14.468 17.447,6.283 9.256,5.66 2.064,12.75 
	2.064,21.502 "/>
<path fill="#FFFFFF" d="M4.803,18.854l0.908-0.081c0.029,0.424,0.123,0.738,0.277,0.943c0.154,0.204,0.373,0.312,0.654,0.326
	c0.299,0.013,0.529-0.064,0.691-0.232c0.16-0.169,0.246-0.372,0.26-0.606c0.01-0.151-0.014-0.281-0.072-0.39
	s-0.162-0.206-0.316-0.292c-0.107-0.058-0.348-0.161-0.727-0.312c-0.486-0.193-0.824-0.419-1.01-0.68
	c-0.262-0.363-0.377-0.797-0.348-1.302c0.018-0.326,0.102-0.627,0.25-0.904s0.354-0.484,0.611-0.621
	c0.256-0.137,0.562-0.196,0.916-0.18c0.576,0.025,0.998,0.22,1.27,0.585c0.271,0.364,0.396,0.84,0.379,1.427L7.615,16.55
	c-0.02-0.329-0.09-0.569-0.213-0.72c-0.123-0.148-0.314-0.229-0.576-0.241c-0.268-0.012-0.484,0.056-0.645,0.202
	c-0.105,0.094-0.16,0.225-0.17,0.39c-0.01,0.15,0.029,0.282,0.115,0.394c0.109,0.143,0.385,0.298,0.826,0.466
	c0.443,0.169,0.768,0.337,0.975,0.505c0.207,0.167,0.363,0.392,0.471,0.672c0.105,0.28,0.146,0.621,0.123,1.025
	C8.5,19.607,8.408,19.947,8.244,20.26c-0.164,0.312-0.385,0.541-0.662,0.684c-0.275,0.144-0.613,0.206-1.012,0.188
	c-0.58-0.026-1.016-0.232-1.305-0.62S4.822,19.572,4.803,18.854z"/>
<path fill="#FFFFFF" d="M10.227,21.185l0.307-5.305l-1.361-0.062l0.061-1.081l3.648,0.166l-0.062,1.081l-1.359-0.062l-0.305,5.305
	L10.227,21.185z"/>
<path fill="#FFFFFF" d="M12.99,18.147c0.037-0.65,0.137-1.192,0.303-1.628c0.123-0.32,0.283-0.605,0.479-0.856
	c0.195-0.25,0.404-0.432,0.625-0.547c0.297-0.156,0.631-0.225,1.004-0.208c0.678,0.031,1.201,0.347,1.574,0.948
	c0.373,0.603,0.529,1.423,0.469,2.463c-0.059,1.03-0.309,1.828-0.744,2.392s-0.992,0.83-1.666,0.8
	c-0.684-0.031-1.207-0.345-1.578-0.943C13.086,19.971,12.932,19.163,12.99,18.147z M13.947,18.147
	c-0.041,0.724,0.047,1.276,0.264,1.659c0.219,0.386,0.514,0.586,0.883,0.603s0.684-0.154,0.941-0.515
	c0.258-0.359,0.41-0.908,0.451-1.649c0.043-0.731-0.041-1.283-0.252-1.652c-0.209-0.372-0.506-0.564-0.887-0.582
	c-0.383-0.018-0.701,0.15-0.955,0.504C14.137,16.868,13.99,17.413,13.947,18.147z"/>
<path fill="#FFFFFF" d="M17.982,21.536l0.367-6.386l1.488,0.067c0.564,0.025,0.93,0.074,1.098,0.146
	c0.256,0.107,0.465,0.327,0.625,0.655c0.158,0.329,0.223,0.747,0.193,1.255c-0.021,0.392-0.092,0.72-0.211,0.981
	c-0.117,0.263-0.26,0.467-0.426,0.611c-0.166,0.146-0.332,0.239-0.498,0.282c-0.225,0.05-0.547,0.066-0.965,0.048l-0.605-0.027
	l-0.139,2.408L17.982,21.536z M19.215,16.273l-0.104,1.812l0.508,0.022c0.365,0.017,0.611-0.005,0.738-0.066
	s0.229-0.161,0.307-0.301c0.08-0.14,0.123-0.303,0.135-0.491c0.014-0.232-0.025-0.427-0.115-0.582
	c-0.09-0.156-0.207-0.255-0.355-0.3c-0.109-0.034-0.33-0.059-0.664-0.073L19.215,16.273z"/>
<ellipse fill="#CECDCD" cx="14.31" cy="1.172" rx="2.036" ry="1.171"/>
</svg>
