<?xml version="1.0" encoding="utf-8"?>
<!-- Generator: Adobe Illustrator 15.1.0, SVG Export Plug-In  -->
<!DOCTYPE svg PUBLIC "-//W3C//DTD SVG 1.1//EN" "http://www.w3.org/Graphics/SVG/1.1/DTD/svg11.dtd" [
	<!ENTITY ns_flows "http://ns.adobe.com/Flows/1.0/">
]>
<svg version="1.1"
	 xmlns="http://www.w3.org/2000/svg" xmlns:xlink="http://www.w3.org/1999/xlink" xmlns:a="http://ns.adobe.com/AdobeSVGViewerExtensions/3.0/"
	 x="0px" y="0px" width="95px" height="61px" viewBox="-0.643 -0.395 95 61"
	 overflow="visible" enable-background="new -0.643 -0.395 95 61" xml:space="preserve">
<defs>
</defs>
<path fill="#2E2C2B" d="M42.678,35.531l-0.24-0.062l-0.547-0.213l1.154-0.093l0.266,0.085l0.467,0.21l-0.031,0.002l0.354,0.132
	l3.127,1.355l-0.559,0.327l-0.488-0.173l-3.078-1.343l0.338-0.277L42.678,35.531 M57.432,43.359l-0.984-0.426l0.365-4.855
	l-3.275-1.402l1.086-0.098l0.221,0.075l3.65,1.56l-0.656-0.021L57.432,43.359 M36.039,32.659l-0.188-0.071l-1.166-0.508l1.148-0.066
	l0.191,0.068l1.18,0.513L36.039,32.659 M51.904,29.346l-21.088,1.301l-5.127,3.68l2.33,1.186c0.916-0.222,2.627-0.504,4.352-0.293
	c0.098,0.013,0.195,0.026,0.295,0.042c0.123,0.021,0.188,0.029,0.242,0.039l1.346,0.25l-3.994,0.149
	c-1.236,0.057-2.348,0.326-3.064,0.742c-1.879,1.102-1.873,2.252,0.025,3.077c0.42,0.18,0.959,0.31,1.553,0.383
	c0.43,0.053,0.885,0.075,1.344,0.063l0.404-0.01l4.348-0.327c0.039-0.015,0.105-0.042,0.186-0.088l0.389-0.222l17.053,7.335
	c1.121-0.412,3.271-0.908,5.623-0.619l0.158,0.022c0.34,0.045,0.672,0.114,0.992,0.202l0.889,0.25l-4.834,0.18l-0.08,0.003
	c-1.23,0.057-2.348,0.326-3.057,0.742c-1.891,1.104-1.881,2.252,0.018,3.076c0.424,0.181,0.967,0.313,1.561,0.386
	c0.426,0.053,0.881,0.074,1.336,0.061l0.402-0.009l4.357-0.326c0.059-0.022,0.17-0.076,0.344-0.188l0.359-0.245l0.9,0.367
	l-0.135,0.094l-0.012,0.009l3.035,1.282l0.162-0.126l1.039,0.007l-0.287,0.225l23.77-1.508l0.969-0.726l-0.857-0.365l2.568-1.904
	l-22.732,1.509l-3.131,2.247l-0.666-0.279l0.107-0.101l2.719-1.993l-2.941-1.527l0.854-0.194l2.953,1.506l23.119-1.513
	c-0.244-0.599-1.555-2.878-8.092-5.851l-6.275-4.504l-6.547-2.993l-7.691,0.488L51.904,29.346"/>
<path fill="#2E2C2B" d="M43.045,35.163l-1.154,0.093l0.547,0.213l0.24,0.062l0.762-0.05l-0.338,0.277l3.078,1.343l0.488,0.173
	l0.559-0.327L44.1,35.592l-0.354-0.132l0.031-0.002l-0.467-0.21L43.045,35.163 M54.623,36.578l-1.086,0.098l3.275,1.402
	l-0.365,4.855l0.984,0.426l0.406-5.168l0.656,0.021l-3.65-1.56L54.623,36.578 M35.834,32.014l-1.148,0.066l1.166,0.508l0.188,0.071
	l1.166-0.064l-1.18-0.513L35.834,32.014 M55.336,46.358c0.539-0.067,1.148-0.104,1.793-0.066L55.336,46.358 M28.02,35.512
	l-2.33-1.186l5.127-3.68l21.088-1.301l11.488,4.991l7.691-0.488l6.547,2.993l6.275,4.504c6.537,2.973,7.848,5.252,8.092,5.851
	l-23.119,1.513l-2.953-1.506l-0.854,0.194l2.941,1.527l-2.719,1.993l-0.107,0.101l0.666,0.279l3.131-2.247l22.732-1.509
	l-2.568,1.904l0.857,0.365l-0.969,0.726l-23.77,1.508l0.287-0.225l-1.039-0.007l-0.162,0.126l-3.035-1.282l0.012-0.009l0.135-0.094
	l-0.9-0.367l-0.359,0.245c-0.174,0.112-0.285,0.166-0.344,0.188l-4.357,0.326l-0.402,0.009c-0.455,0.014-0.91-0.008-1.336-0.061
	c-0.594-0.072-1.137-0.205-1.561-0.386c-1.898-0.824-1.908-1.973-0.018-3.076c0.709-0.416,1.826-0.686,3.057-0.742l0.08-0.003
	l4.834-0.18l-0.889-0.25c-0.32-0.088-0.652-0.157-0.992-0.202l-0.158-0.022c-2.352-0.289-4.502,0.207-5.623,0.619l-17.053-7.335
	l-0.389,0.222c-0.08,0.046-0.146,0.073-0.186,0.088l-4.348,0.327l-0.404,0.01c-0.459,0.012-0.914-0.011-1.344-0.063
	c-0.594-0.073-1.133-0.203-1.553-0.383c-1.898-0.825-1.904-1.976-0.025-3.077c0.717-0.416,1.828-0.686,3.064-0.742l3.994-0.149
	l-1.346-0.25c-0.055-0.01-0.119-0.018-0.242-0.039c-0.1-0.016-0.197-0.029-0.295-0.042C30.646,35.008,28.936,35.29,28.02,35.512
	 M52.381,28.989l-22.229,1.368l-5.6,4.021l2.867,1.457c-0.408,0.132-0.773,0.288-1.08,0.465c-2.471,1.438-1.576,2.715,0.068,3.431
	c0.518,0.223,1.186,0.389,1.945,0.482c0.4,0.049,0.826,0.078,1.246,0.084l-0.002,0.059l5.547-0.417l0.178-0.027l0.123-0.027
	l16.512,7.103c-0.23,0.093-0.447,0.195-0.635,0.306c-2.465,1.442-1.58,2.718,0.07,3.43c0.523,0.227,1.207,0.393,1.961,0.485
	c0.396,0.049,0.811,0.076,1.23,0.082l-0.004,0.058l5.555-0.416l0.176-0.023l0.166-0.045l2.709,1.139l-0.291,0.221l0.711-0.039
	l0.289,0.116l-0.234,0.179l0.574-0.036l0.338,0.143l0.234-0.18l24.906-1.579l1.436-1.085l-0.848-0.363l2.576-1.91l0.197-0.012
	l-0.027-0.113l0.322-0.237l-0.377,0.025c-0.234-0.633-1.518-2.932-8.219-5.967l-5.918-4.262l0.168-0.012l-7.451-3.4l-7.699,0.487
	L52.381,28.989"/>
<polygon fill="#FFFBE1" points="19.111,0 42.408,13.687 24.52,24.028 1.223,10.341 "/>
<polygon fill="#D9D3BD" points="19.023,0.976 42.32,14.663 42.43,13.921 19.111,0 0.248,10.873 1.135,11.315 "/>
<polygon fill="#E9E3C8" points="1.912,16.936 19.023,7.094 19.023,0.976 1.912,10.818 "/>
<polyline fill="#E9E3C8" points="19.023,0.976 41.811,14.274 36.135,16.936 19.023,7.094 "/>
<path fill="#3AAE99" d="M59.533,49.445L80.26,37.175c0,0-3.607-6.932-15.449-14.205L53.271,12.558L35.168,22.881l5.836,13.857
	L59.533,49.445z"/>
<path fill="#231C1D" d="M49.539,60.176l4.24-2.677c0.732-1.009-0.621-8.645-0.621-8.645l-5.127-3.574l-4.182,2.011L49.539,60.176z"
	/>
<path fill="#343031" d="M41.617,50.757c0.373-3.391,3.709-4.938,6.4-3.107c2.787,1.893,4.451,5.867,3.824,9.223
	c-0.627,3.354-3.635,4.363-6.092,2.926C43.234,58.326,41.129,55.199,41.617,50.757z"/>
<path fill="#241C1D" d="M47.998,60.559c-0.781,0-1.58-0.226-2.311-0.653c-3.061-1.79-4.627-5.215-4.193-9.162
	c0.258-2.353,1.947-3.996,4.107-3.996c0.857,0,1.719,0.276,2.486,0.799c2.846,1.932,4.512,5.951,3.877,9.35
	C51.549,59.121,49.992,60.559,47.998,60.559z M45.602,46.997c-2.027,0-3.615,1.552-3.859,3.773c-0.424,3.847,1.1,7.181,4.072,8.92
	c0.691,0.404,1.447,0.618,2.184,0.618c1.896,0,3.322-1.325,3.721-3.46c0.619-3.306-1.004-7.216-3.771-9.096
	C47.221,47.258,46.408,46.997,45.602,46.997z"/>
<path fill="#A39F93" d="M42.875,51.772c0.27-2.461,2.688-3.582,4.641-2.256c2.02,1.373,3.227,4.256,2.773,6.688
	c-0.453,2.431-2.715,3.285-4.418,2.121C44.172,57.163,42.521,54.991,42.875,51.772z"/>
<path fill="#241C1D" d="M47.48,58.965c-0.586,0-1.166-0.186-1.68-0.536c-1.057-0.724-3.473-2.822-3.049-6.67
	c0.188-1.726,1.428-2.931,3.012-2.931c0.629,0,1.26,0.202,1.822,0.585c2.072,1.409,3.287,4.339,2.826,6.813
	C50.107,57.864,48.93,58.965,47.48,58.965z M45.764,49.078c-1.453,0-2.59,1.113-2.764,2.708c-0.408,3.714,1.922,5.738,2.941,6.436
	c0.473,0.322,1.004,0.493,1.539,0.493c1.324,0,2.404-1.019,2.686-2.533c0.445-2.385-0.725-5.205-2.721-6.562
	C46.924,49.266,46.342,49.078,45.764,49.078z"/>
<path fill="#231C1D" d="M45.75,53.655c0.041-0.377,0.412-0.55,0.711-0.345c0.311,0.21,0.496,0.653,0.426,1.024
	c-0.07,0.375-0.418,0.504-0.678,0.326C45.947,54.483,45.695,54.148,45.75,53.655z"/>
<path fill="#464445" d="M46.455,54.865c-0.109,0-0.221-0.035-0.316-0.101c-0.178-0.121-0.584-0.473-0.512-1.123
	c0.033-0.314,0.271-0.543,0.564-0.543c0.119,0,0.236,0.037,0.34,0.108c0.352,0.238,0.559,0.733,0.479,1.151
	C46.953,54.661,46.73,54.865,46.455,54.865z M46.191,53.349c-0.166,0-0.297,0.132-0.316,0.32c-0.057,0.516,0.264,0.793,0.404,0.889
	c0.195,0.134,0.438,0.011,0.484-0.246c0.061-0.32-0.102-0.715-0.373-0.897C46.328,53.371,46.26,53.349,46.191,53.349z"/>
<path fill="#231C1D" d="M46.979,53.237c0.018-0.15,0.166-0.219,0.287-0.136c0.123,0.083,0.197,0.26,0.168,0.408
	c-0.025,0.148-0.166,0.202-0.27,0.13C47.061,53.569,46.959,53.435,46.979,53.237z"/>
<path fill="#464445" d="M47.264,53.797c-0.061,0-0.119-0.02-0.17-0.055c-0.17-0.115-0.26-0.309-0.238-0.518
	C46.873,53.06,47,52.94,47.156,52.94c0.062,0,0.125,0.021,0.18,0.058c0.168,0.112,0.26,0.338,0.221,0.536
	C47.531,53.688,47.41,53.797,47.264,53.797z"/>
<path fill="#231C1D" d="M45.562,52.733c0.02-0.15,0.168-0.222,0.287-0.139c0.123,0.084,0.197,0.261,0.17,0.411
	c-0.027,0.147-0.166,0.199-0.271,0.129C45.645,53.065,45.543,52.931,45.562,52.733z"/>
<path fill="#464445" d="M45.848,53.291c-0.059,0-0.117-0.019-0.168-0.053c-0.172-0.114-0.262-0.308-0.24-0.518
	c0.029-0.236,0.297-0.359,0.482-0.229c0.164,0.112,0.258,0.338,0.221,0.536C46.115,53.183,45.992,53.291,45.848,53.291z"/>
<path fill="#231C1D" d="M45.287,54.339c0.016-0.15,0.166-0.219,0.285-0.138c0.123,0.083,0.197,0.261,0.17,0.409
	c-0.027,0.15-0.168,0.203-0.271,0.131S45.266,54.538,45.287,54.339z"/>
<path fill="#464445" d="M45.57,54.898c-0.061,0-0.119-0.02-0.17-0.055c-0.174-0.12-0.26-0.31-0.236-0.519
	c0.016-0.164,0.143-0.283,0.301-0.283c0.062,0,0.125,0.02,0.178,0.056c0.166,0.111,0.26,0.337,0.223,0.535
	C45.838,54.789,45.715,54.898,45.57,54.898z"/>
<path fill="#231C1D" d="M46.695,54.97c0.016-0.15,0.166-0.22,0.285-0.139c0.123,0.084,0.197,0.261,0.17,0.411
	c-0.027,0.149-0.166,0.2-0.271,0.13C46.775,55.299,46.676,55.167,46.695,54.97z"/>
<path fill="#464445" d="M46.979,55.528c-0.059,0-0.117-0.019-0.168-0.052c-0.174-0.123-0.26-0.312-0.238-0.52
	c0.016-0.165,0.145-0.285,0.301-0.285c0.062,0,0.125,0.02,0.178,0.056c0.166,0.113,0.26,0.339,0.223,0.537
	C47.244,55.422,47.127,55.528,46.979,55.528z"/>
<path fill="#231C1D" d="M12.023,37.847l4.24-2.679c0.73-1.01-0.621-8.646-0.621-8.646l-5.127-3.573L6.334,24.96L12.023,37.847z"/>
<path fill="#343031" d="M4.102,28.427c0.373-3.395,3.707-4.94,6.4-3.109c2.785,1.894,4.451,5.867,3.824,9.223
	c-0.627,3.354-3.637,4.362-6.094,2.926C5.717,35.993,3.613,32.866,4.102,28.427z"/>
<path fill="#241C1D" d="M10.48,38.227c-0.781,0-1.58-0.226-2.311-0.653c-3.059-1.79-4.627-5.215-4.191-9.16
	c0.258-2.354,1.947-3.999,4.105-3.999c0.859,0,1.719,0.276,2.488,0.8c2.846,1.935,4.512,5.953,3.877,9.35
	C14.033,36.788,12.475,38.227,10.48,38.227z M8.084,24.664c-2.027,0-3.613,1.553-3.857,3.776c-0.424,3.845,1.098,7.178,4.07,8.918
	c0.691,0.404,1.447,0.618,2.184,0.618c1.898,0,3.324-1.326,3.723-3.46c0.617-3.304-1.004-7.214-3.771-9.096
	C9.703,24.926,8.893,24.664,8.084,24.664z"/>
<path fill="#A39F93" d="M5.359,29.438c0.27-2.461,2.689-3.58,4.641-2.254c2.02,1.371,3.227,4.254,2.773,6.688
	c-0.455,2.43-2.715,3.285-4.42,2.121C6.656,34.833,5.004,32.658,5.359,29.438z"/>
<path fill="#241C1D" d="M9.963,36.633c-0.584,0-1.166-0.186-1.68-0.536c-1.059-0.724-3.473-2.821-3.047-6.672
	c0.188-1.725,1.426-2.929,3.012-2.929c0.629,0,1.26,0.202,1.822,0.585c2.072,1.407,3.287,4.336,2.826,6.813
	C12.59,35.532,11.412,36.633,9.963,36.633z M8.248,26.746c-1.453,0-2.59,1.112-2.764,2.706c-0.41,3.716,1.92,5.74,2.939,6.438
	c0.473,0.322,1.006,0.493,1.539,0.493c1.324,0,2.404-1.019,2.688-2.534c0.445-2.386-0.725-5.206-2.721-6.561
	C9.408,26.934,8.826,26.746,8.248,26.746z"/>
<path fill="#231C1D" d="M8.232,31.322c0.043-0.375,0.414-0.548,0.713-0.345c0.311,0.211,0.496,0.654,0.426,1.025
	c-0.07,0.375-0.418,0.504-0.678,0.326S8.18,31.817,8.232,31.322z"/>
<path fill="#464445" d="M8.939,32.533c-0.109,0-0.221-0.035-0.316-0.101c-0.178-0.122-0.584-0.475-0.514-1.124
	c0.035-0.314,0.275-0.542,0.568-0.542c0.117,0,0.234,0.037,0.338,0.107c0.352,0.239,0.559,0.734,0.479,1.152
	C9.438,32.329,9.215,32.533,8.939,32.533z M8.678,31.017c-0.168,0-0.299,0.132-0.32,0.32c-0.055,0.514,0.266,0.793,0.406,0.889
	c0.193,0.134,0.438,0.012,0.484-0.246c0.061-0.32-0.102-0.715-0.373-0.898C8.814,31.039,8.744,31.017,8.678,31.017z"/>
<path fill="#231C1D" d="M9.465,30.905c0.016-0.148,0.164-0.219,0.285-0.138c0.123,0.085,0.197,0.263,0.168,0.411
	c-0.027,0.15-0.166,0.201-0.27,0.129C9.543,31.237,9.443,31.104,9.465,30.905z"/>
<path fill="#464445" d="M9.748,31.465c-0.061,0-0.119-0.019-0.17-0.055c-0.174-0.115-0.26-0.305-0.236-0.519
	c0.021-0.229,0.285-0.356,0.479-0.228c0.168,0.115,0.26,0.342,0.221,0.539C10.014,31.359,9.895,31.465,9.748,31.465z"/>
<path fill="#231C1D" d="M8.049,30.399c0.016-0.15,0.164-0.217,0.285-0.139c0.121,0.086,0.197,0.263,0.168,0.411
	c-0.027,0.15-0.166,0.203-0.27,0.132C8.129,30.731,8.027,30.599,8.049,30.399z"/>
<path fill="#464445" d="M8.33,30.96c-0.059,0-0.117-0.019-0.168-0.054c-0.174-0.121-0.26-0.311-0.236-0.521
	c0.016-0.164,0.143-0.283,0.301-0.283c0.061,0,0.121,0.019,0.176,0.053c0.17,0.12,0.262,0.347,0.223,0.541
	C8.598,30.851,8.477,30.96,8.33,30.96z"/>
<path fill="#231C1D" d="M7.771,32.007c0.016-0.15,0.164-0.219,0.285-0.14c0.123,0.087,0.197,0.263,0.17,0.411
	c-0.027,0.15-0.168,0.203-0.271,0.13C7.85,32.339,7.75,32.204,7.771,32.007z"/>
<path fill="#464445" d="M8.055,32.565c-0.061,0-0.119-0.019-0.172-0.056c-0.168-0.11-0.258-0.305-0.234-0.517
	c0.023-0.229,0.285-0.355,0.477-0.23c0.168,0.118,0.262,0.344,0.225,0.538C8.322,32.457,8.201,32.565,8.055,32.565z"/>
<path fill="#231C1D" d="M9.18,32.638c0.016-0.152,0.166-0.219,0.285-0.139c0.123,0.082,0.199,0.26,0.17,0.409
	c-0.029,0.151-0.166,0.203-0.27,0.13C9.26,32.968,9.158,32.834,9.18,32.638z"/>
<path fill="#464445" d="M9.465,33.196c-0.061,0-0.119-0.02-0.172-0.057c-0.17-0.113-0.26-0.307-0.236-0.516
	c0.021-0.229,0.285-0.359,0.479-0.229c0.166,0.11,0.262,0.341,0.223,0.537C9.727,33.09,9.609,33.196,9.465,33.196z"/>
<polygon fill="#EAE7D3" points="7.408,14.938 17.316,20.683 19.312,19.528 9.402,13.786 "/>
<polygon fill="#8B7954" points="7.408,14.938 17.289,20.728 17.27,23.03 7.391,17.245 "/>
<path fill="#241C1D" d="M17.27,23.28c-0.043,0-0.086-0.012-0.125-0.034l-9.879-5.785c-0.078-0.045-0.125-0.128-0.125-0.218
	l0.018-2.307c0.002-0.089,0.049-0.171,0.127-0.216c0.078-0.044,0.172-0.042,0.25,0.002l9.881,5.789
	c0.076,0.045,0.125,0.129,0.123,0.218l-0.02,2.303c0,0.09-0.049,0.172-0.127,0.216C17.355,23.27,17.312,23.28,17.27,23.28z
	 M7.643,17.103l9.381,5.494l0.016-1.727l-9.383-5.497L7.643,17.103z"/>
<polygon fill="#D9D3BD" points="17.25,22.321 19.312,22.321 19.312,19.528 17.338,20.747 "/>
<polygon fill="#D9D3BD" points="1.223,10.341 24.52,24.118 23.545,24.562 0.248,10.873 "/>
<path fill="#1A7766" d="M0.248,10.873l23.297,13.688l1.152-7.716l10.443,6.062l5.752,13.629l18.611,12.936l-0.113,10.063
	l-6.398-3.551c-0.279-6.895-4.279-10.4-6.854-10.518c-3.504-0.158-4.416,3.824-4.416,3.824L14.832,33.647
	c-0.053-8.287-4.219-9.529-6.588-9.758c-2.154-0.209-3.506,1.646-3.857,2.463L0,23.355L0.248,10.873z"/>
<polygon fill="#3AAE99" points="34.398,23.587 39.008,34.093 38.924,35.242 24.133,26.821 25.236,18.009 "/>
<polygon fill="#ACD1C8" points="34.346,23.64 38.949,34.136 38.883,34.868 24.488,26.601 25.541,18.287 "/>
<polygon fill="#1A7766" points="41.811,35.644 63.619,23.073 53.07,13.39 36.232,22.906 "/>
<polygon fill="#BEE1DC" points="41.766,35.431 63.178,23.073 52.85,13.616 36.357,22.919 "/>
<polygon fill="#EAE7D3" points="19.998,7.226 29.906,12.968 31.902,11.814 21.992,6.073 "/>
<polygon fill="#D9D3BD" points="19.998,7.226 29.881,13.014 29.861,15.317 19.979,9.529 "/>
<polygon fill="#D9D3BD" points="29.84,14.608 31.902,14.608 31.902,11.814 29.928,13.034 "/>
<polygon fill="#3AAE99" points="24.697,16.846 35.262,22.931 53.365,12.607 42.971,6.187 "/>
<polygon fill="#339F8A" points="80.26,37.175 59.59,49.476 59.391,59.536 80.18,47.546 "/>
<polygon fill="#E2E3E3" points="58.789,59.753 81.004,46.889 81.477,44.649 80.16,43.89 80.182,44.402 58.789,56.836 "/>
<polygon fill="#FDFDFE" points="59.826,60.194 81.477,47.567 81.477,44.649 59.797,57.155 "/>
<path fill="#D6D6D6" d="M53.939,54.091l5.846,3.113l0.041,2.99l-5.516-3.143c0,0,0.062-0.587-0.031-1.48
	C54.193,54.737,53.939,54.091,53.939,54.091z"/>
<polygon fill="#E2E3E3" points="54.588,53.661 53.939,54.091 59.736,57.204 60.137,56.558 "/>
<ellipse fill="#FFFFFF" cx="77.719" cy="42.128" rx="1.396" ry="2.758"/>
<ellipse fill="#FFFFFF" cx="74.816" cy="45.152" rx="0.842" ry="1.663"/>
<ellipse fill="#FFFFFF" cx="65.24" cy="50.672" rx="0.842" ry="1.662"/>
<ellipse fill="#FFFFFF" cx="62.158" cy="51.337" rx="1.396" ry="2.76"/>
<ellipse fill="#F1EB2E" cx="57.503" cy="52.3" rx="0.532" ry="1.564"/>
<path fill="#ECEDED" d="M57.502,54.364c-0.76,0-1.031-1.112-1.031-2.064c0-0.951,0.271-2.062,1.031-2.062
	c0.764,0,1.033,1.111,1.033,2.062C58.535,53.252,58.266,54.364,57.502,54.364z M57.504,51.798c-0.02,0.146-0.033,0.314-0.033,0.502
	s0.014,0.356,0.033,0.503c0.02-0.146,0.031-0.315,0.031-0.503S57.523,51.944,57.504,51.798z"/>
<path fill="#ECEDED" d="M38.701,47.232l-16.982-9.794l2.877-20.972l10.561,6.396l4.904,11.439L38.701,47.232z M22.801,36.907
	l15.066,8.69l1.172-11.141l-4.676-10.904l-8.984-5.441L22.801,36.907z"/>
<polygon fill="#ECEDED" points="27.369,30.451 23.666,28.449 23.666,26.959 27.369,28.961 "/>
<polygon fill="#DBDCDB" points="66.381,47.812 73.795,43.524 73.795,44.321 66.381,48.609 "/>
<polygon fill="#C4C5C4" points="65.881,49.477 65.881,47.523 74.295,42.658 74.295,44.609 "/>
<polygon fill="#DBDCDB" points="64.301,47.071 75.674,40.681 75.674,41.872 64.301,48.261 "/>
<path fill="#C4C5C4" d="M63.801,49.115v-2.337l12.373-6.952v2.339L63.801,49.115z M64.801,47.364v0.042l10.373-5.871L64.801,47.364z
	"/>
<polygon fill="#DBDCDB" points="66.381,49.031 73.795,44.744 73.795,45.541 66.381,49.831 "/>
<polygon fill="#C4C5C4" points="65.881,50.698 65.881,48.743 74.295,43.878 74.295,45.829 "/>
<polygon fill="#DBDCDB" points="66.381,50.217 73.795,45.927 73.795,46.726 66.381,51.015 "/>
<polygon fill="#C4C5C4" points="65.881,51.882 65.881,49.929 74.295,45.06 74.295,47.014 "/>
<polygon fill="#DBDCDB" points="66.369,51.458 73.783,47.169 73.783,47.968 66.369,52.257 "/>
<polygon fill="#C4C5C4" points="65.869,53.124 65.869,51.17 74.283,46.302 74.283,48.256 "/>
<ellipse fill="#DBDCDB" cx="69.828" cy="45.994" rx="1.152" ry="1.44"/>
<path fill="#FCFDFD" d="M69.826,47.935c-0.91,0-1.65-0.87-1.65-1.94c0-1.069,0.74-1.939,1.65-1.939c0.912,0,1.654,0.87,1.654,1.939
	C71.48,47.064,70.738,47.935,69.826,47.935z M69.826,45.055c-0.352,0-0.65,0.431-0.65,0.939c0,0.51,0.299,0.94,0.65,0.94
	c0.355,0,0.654-0.431,0.654-0.94C70.48,45.485,70.182,45.055,69.826,45.055z"/>
<ellipse fill="#DBDCDB" cx="69.85" cy="45.972" rx="0.555" ry="0.533"/>
<ellipse fill="#FCFDFD" cx="69.85" cy="45.973" rx="1.055" ry="1.032"/>
<ellipse fill="#DBDCDB" cx="69.85" cy="46.017" rx="0.287" ry="0.844"/>
<path fill="#FCFDFD" d="M69.85,47.36c-0.484,0-0.787-0.515-0.787-1.344c0-0.828,0.303-1.342,0.787-1.342
	c0.486,0,0.787,0.514,0.787,1.342C70.637,46.846,70.336,47.36,69.85,47.36z"/>
<ellipse fill="#DBDCDB" cx="69.872" cy="45.551" rx="0.532" ry="0.245"/>
<path fill="#FCFDFD" d="M69.873,46.296c-0.607,0-1.033-0.307-1.033-0.745c0-0.438,0.426-0.743,1.033-0.743s1.031,0.306,1.031,0.743
	C70.904,45.989,70.48,46.296,69.873,46.296z"/>
</svg>
