<?xml version="1.0" encoding="utf-8"?>
<!-- Generator: Adobe Illustrator 15.1.0, SVG Export Plug-In  -->
<!DOCTYPE svg PUBLIC "-//W3C//DTD SVG 1.1//EN" "http://www.w3.org/Graphics/SVG/1.1/DTD/svg11.dtd" [
	<!ENTITY ns_flows "http://ns.adobe.com/Flows/1.0/">
]>
<svg version="1.1"
	 xmlns="http://www.w3.org/2000/svg" xmlns:xlink="http://www.w3.org/1999/xlink" xmlns:a="http://ns.adobe.com/AdobeSVGViewerExtensions/3.0/"
	 x="0px" y="0px" width="121px" height="112px" viewBox="-0.739 -0.083 121 112"
	 overflow="visible" enable-background="new -0.739 -0.083 121 112" xml:space="preserve">
<defs>
</defs>
<path fill="#343231" d="M76.96,72.603c0.977-1.066,2.294-2.061,3.967-2.917c7.08-3.629,17.64-3.455,23.584,0.384
	c3.186,2.061,4.381,4.76,3.721,7.383c3.019,0.418,5.818,1.325,7.998,2.735c5.94,3.84,5.018,9.894-2.065,13.521
	c-1.094,0.562-2.276,1.019-3.504,1.4c0.858,3.159-1.12,6.585-5.771,8.968c-7.082,3.63-17.642,3.455-23.585-0.384
	c-0.544-0.354-1.009-0.73-1.439-1.113c-6.073,2.863-14.409,3.076-20.308,0.709l-12.453,6.389c-0.122,0.061-0.261,0.108-0.398,0.151
	c-1.179,0.361-2.971,0.059-4.248-0.768c-1.426-0.922-1.661-2.144-0.523-2.726l12.58-6.461c-2.99-3.578-1.6-8.085,3.795-11.124
	c-0.403-0.21-0.797-0.438-1.167-0.673c-5.938-3.843-5.018-9.898,2.069-13.526C64.333,71.928,71.259,71.301,76.96,72.603z"/>
<path fill="#45250C" d="M38.606,83.582H48.71l0.015,24.818H48.47c-2.477-8.569-5.361-16.635-9.861-22.719L38.606,83.582z"/>
<polyline fill="#45250C" points="38.608,85.681 38.177,59.642 48.281,59.642 48.725,108.4 "/>
<path fill="#673A11" d="M38.608,85.681c4.5,6.084,7.385,14.15,9.861,22.719h-9.829L38.608,85.681z"/>
<path fill="#45250C" d="M48.758,108.393c0,0.204-0.038,0.394-0.089,0.579c-0.228-0.792-0.456-1.577-0.692-2.37
	C48.465,107.123,48.758,107.734,48.758,108.393z"/>
<path fill="#673A11" d="M43.715,105.019c1.8,0,3.371,0.638,4.262,1.583c0.236,0.793,0.465,1.579,0.692,2.37
	c-0.414,1.589-2.469,2.796-4.954,2.796c-2.784,0-5.042-1.51-5.042-3.375C38.673,106.529,40.931,105.019,43.715,105.019z"/>
<path fill="#542E0D" d="M44.89,105.604c0.013,1.562,0.079,2.82,0.153,2.82c0.072,0,0.123-1.264,0.112-2.816
	c-0.012-1.567-0.08-2.827-0.152-2.821C44.929,102.787,44.878,104.047,44.89,105.604z"/>
<path fill="#542E0D" d="M41.115,96.86c0.018,2.577,0.13,4.665,0.251,4.665c0.119-0.012,0.202-2.094,0.188-4.66
	c-0.022-2.582-0.135-4.67-0.255-4.66C41.18,92.201,41.095,94.283,41.115,96.86z"/>
<path fill="#2F1308" d="M46.392,93.698c0.012,1.562,0.08,2.823,0.154,2.823c0.07-0.006,0.122-1.265,0.113-2.823
	c-0.014-1.555-0.081-2.82-0.156-2.815C46.433,90.883,46.38,92.143,46.392,93.698z"/>
<path fill="#758827" d="M43.331,53.358c0.076,0.453,0.267,0.79,0.428,0.766c0.162-0.026,0.237-0.411,0.162-0.86
	c-0.072-0.448-0.262-0.792-0.424-0.761C43.331,52.524,43.258,52.908,43.331,53.358z"/>
<circle fill="#758827" cx="44.087" cy="67.529" r="20.998"/>
<path fill="#859A26" d="M23.524,68.895c0,10.194,8.264,18.458,18.458,18.458c10.197,0,18.46-8.264,18.46-18.458
	c0-10.198-8.263-18.463-18.46-18.463C31.788,50.432,23.524,58.697,23.524,68.895z"/>
<ellipse transform="matrix(-0.9969 -0.0791 0.0791 -0.9969 77.5878 157.2557)" fill="#758827" cx="41.91" cy="77.091" rx="0.299" ry="0.823"/>
<path fill="#758827" d="M42.345,64.116c0.041,0.454,0.213,0.808,0.376,0.792c0.166-0.019,0.261-0.396,0.218-0.851
	c-0.048-0.455-0.215-0.808-0.378-0.789C42.394,63.284,42.299,63.666,42.345,64.116z"/>
<path fill="#758827" d="M44.142,54.153c0.047,0.456,0.216,0.808,0.381,0.79c0.162-0.013,0.26-0.393,0.213-0.845
	c-0.043-0.454-0.213-0.808-0.378-0.791C44.192,53.322,44.097,53.702,44.142,54.153z"/>
<path fill="#758827" d="M48.401,70.352c0.076,0.453,0.27,0.793,0.434,0.764c0.161-0.027,0.23-0.412,0.156-0.859
	c-0.08-0.451-0.271-0.791-0.435-0.761C48.395,69.522,48.327,69.907,48.401,70.352z"/>
<path fill="#758827" d="M50.768,59.416c0.077,0.452,0.269,0.792,0.434,0.763c0.165-0.026,0.233-0.411,0.154-0.858
	c-0.075-0.452-0.269-0.792-0.432-0.761C50.76,58.585,50.692,58.97,50.768,59.416z"/>
<path fill="#758827" d="M48.746,81.928c-0.173,0.425-0.187,0.816-0.034,0.876c0.152,0.065,0.416-0.227,0.587-0.65
	c0.17-0.423,0.186-0.813,0.032-0.875C49.177,81.216,48.916,81.511,48.746,81.928z"/>
<path fill="#758827" d="M55.978,72.539c-0.104,0.445-0.057,0.834,0.107,0.873c0.158,0.034,0.371-0.293,0.473-0.74
	c0.099-0.443,0.051-0.832-0.107-0.868C56.289,71.769,56.076,72.099,55.978,72.539z"/>
<path fill="#758827" d="M35.492,70.951c-0.034,0.455,0.071,0.831,0.237,0.842c0.163,0.013,0.326-0.342,0.361-0.797
	c0.032-0.454-0.072-0.832-0.233-0.843C35.688,70.138,35.527,70.497,35.492,70.951z"/>
<ellipse transform="matrix(-0.9972 -0.0752 0.0752 -0.9972 69.901 118.0997)" fill="#758827" cx="37.174" cy="57.734" rx="0.299" ry="0.824"/>
<ellipse transform="matrix(-0.9972 -0.0754 0.0754 -0.9972 51.2438 131.7521)" fill="#758827" cx="28.11" cy="64.908" rx="0.298" ry="0.822"/>
<path fill="#758827" d="M34.181,82.019c-0.035,0.454,0.07,0.831,0.236,0.841c0.164,0.014,0.323-0.342,0.361-0.796
	c0.032-0.455-0.072-0.833-0.234-0.843C34.376,81.208,34.215,81.563,34.181,82.019z"/>
<path fill="#51702B" d="M61.874,63.393c0.192,0.412,0.463,0.693,0.611,0.622c0.151-0.063,0.122-0.457-0.062-0.868
	c-0.187-0.418-0.464-0.698-0.613-0.628C61.66,62.585,61.688,62.976,61.874,63.393z"/>
<path fill="#51702B" d="M57.678,81.138c-0.122,0.436-0.098,0.828,0.062,0.875c0.156,0.045,0.385-0.272,0.512-0.707
	c0.128-0.439,0.1-0.829-0.06-0.874C58.033,80.385,57.806,80.704,57.678,81.138z"/>
<path fill="#51702B" d="M62.979,69.41c-0.123,0.438-0.096,0.829,0.063,0.875c0.157,0.045,0.389-0.269,0.517-0.707
	c0.121-0.437,0.097-0.83-0.062-0.875C63.338,68.655,63.108,68.975,62.979,69.41z"/>
<path fill="#51702B" d="M53.634,52.324c0.414,0.192,0.803,0.23,0.871,0.081c0.072-0.146-0.201-0.424-0.609-0.624
	c-0.41-0.198-0.801-0.234-0.872-0.085C52.952,51.845,53.226,52.127,53.634,52.324z"/>
<path fill="#51702B" d="M35.93,50.698c0.399-0.215,0.665-0.503,0.586-0.651c-0.074-0.144-0.46-0.091-0.866,0.121
	c-0.401,0.211-0.664,0.503-0.59,0.648C35.139,50.959,35.527,50.91,35.93,50.698z"/>
<path fill="#758827" d="M20.243,33.536c0.074,0.452,0.264,0.789,0.429,0.764c0.165-0.026,0.235-0.412,0.165-0.859
	c-0.075-0.449-0.268-0.792-0.43-0.763C20.243,32.702,20.172,33.084,20.243,33.536z"/>
<circle fill="#758827" cx="20.999" cy="47.706" r="20.999"/>
<path fill="#859A26" d="M0.437,49.072c0,10.193,8.265,18.457,18.46,18.457c10.194,0,18.459-8.264,18.459-18.457
	c0-10.199-8.265-18.463-18.459-18.463C8.701,30.608,0.437,38.873,0.437,49.072z"/>
<ellipse transform="matrix(-0.9968 -0.0794 0.0794 -0.9968 33.0378 115.8491)" fill="#758827" cx="18.822" cy="57.268" rx="0.298" ry="0.823"/>
<path fill="#758827" d="M19.253,44.292c0.047,0.455,0.217,0.808,0.379,0.792c0.165-0.018,0.264-0.396,0.216-0.849
	c-0.042-0.455-0.213-0.808-0.378-0.79C19.307,43.46,19.209,43.843,19.253,44.292z"/>
<path fill="#758827" d="M21.054,34.33c0.045,0.454,0.213,0.808,0.377,0.789c0.166-0.013,0.261-0.394,0.218-0.845
	c-0.044-0.453-0.21-0.808-0.377-0.792C21.105,33.499,21.013,33.879,21.054,34.33z"/>
<path fill="#758827" d="M25.312,50.531c0.077,0.45,0.27,0.791,0.433,0.761c0.165-0.025,0.234-0.411,0.154-0.857
	c-0.072-0.453-0.269-0.792-0.43-0.764C25.305,49.699,25.235,50.084,25.312,50.531z"/>
<path fill="#758827" d="M27.681,39.592c0.076,0.453,0.271,0.792,0.432,0.763c0.162-0.028,0.232-0.412,0.157-0.858
	c-0.08-0.452-0.271-0.792-0.433-0.763C27.674,38.762,27.605,39.147,27.681,39.592z"/>
<path fill="#758827" d="M25.655,62.104c-0.17,0.427-0.186,0.816-0.031,0.878c0.153,0.063,0.414-0.229,0.584-0.651
	c0.171-0.423,0.186-0.813,0.037-0.877C26.09,61.392,25.827,61.688,25.655,62.104z"/>
<path fill="#758827" d="M32.887,52.716c-0.103,0.444-0.054,0.834,0.104,0.872c0.166,0.034,0.378-0.292,0.478-0.739
	c0.102-0.443,0.056-0.832-0.107-0.868C33.2,51.944,32.987,52.275,32.887,52.716z"/>
<path fill="#758827" d="M12.405,51.127c-0.036,0.455,0.068,0.833,0.233,0.843c0.165,0.014,0.325-0.343,0.361-0.796
	c0.037-0.454-0.07-0.832-0.236-0.843C12.602,50.315,12.441,50.674,12.405,51.127z"/>
<ellipse transform="matrix(-0.9974 -0.0726 0.0726 -0.9974 25.3819 76.7429)" fill="#758827" cx="14.086" cy="37.91" rx="0.299" ry="0.825"/>
<path fill="#758827" d="M4.728,45.062c-0.037,0.455,0.067,0.832,0.233,0.842c0.165,0.013,0.324-0.342,0.361-0.797
	c0.032-0.454-0.071-0.83-0.235-0.842C4.924,44.253,4.759,44.608,4.728,45.062z"/>
<ellipse transform="matrix(-0.9971 -0.0764 0.0764 -0.9971 17.9947 125.1233)" fill="#758827" cx="11.39" cy="62.218" rx="0.297" ry="0.822"/>
<path fill="#51702B" d="M38.788,43.569c0.188,0.412,0.463,0.694,0.613,0.623c0.146-0.064,0.119-0.458-0.07-0.87
	c-0.186-0.417-0.459-0.696-0.611-0.627C38.573,42.762,38.602,43.153,38.788,43.569z"/>
<path fill="#51702B" d="M34.591,61.314c-0.126,0.437-0.098,0.831,0.06,0.875c0.16,0.044,0.389-0.272,0.517-0.707
	c0.123-0.44,0.098-0.829-0.059-0.874C34.948,60.562,34.718,60.88,34.591,61.314z"/>
<ellipse transform="matrix(-0.9606 -0.2781 0.2781 -0.9606 64.9664 108.5552)" fill="#51702B" cx="40.181" cy="49.671" rx="0.299" ry="0.824"/>
<path fill="#51702B" d="M30.549,32.499c0.409,0.195,0.798,0.231,0.872,0.083c0.068-0.145-0.206-0.425-0.611-0.625
	c-0.414-0.195-0.804-0.232-0.875-0.083C29.863,32.022,30.14,32.304,30.549,32.499z"/>
<path fill="#51702B" d="M12.84,30.874c0.403-0.215,0.665-0.502,0.587-0.652c-0.076-0.143-0.465-0.089-0.864,0.124
	c-0.402,0.21-0.666,0.5-0.588,0.648C12.052,31.137,12.437,31.087,12.84,30.874z"/>
<path fill="#758827" d="M67.4,33.536c0.075,0.452,0.266,0.789,0.429,0.764c0.16-0.026,0.237-0.412,0.16-0.859
	c-0.072-0.449-0.263-0.792-0.424-0.763C67.4,32.702,67.327,33.084,67.4,33.536z"/>
<path fill="#758827" d="M47.157,47.706c0,11.599,9.402,20.997,20.996,20.997c11.6,0,21-9.398,21-20.997
	c0-11.596-9.4-20.998-21-20.998C56.56,26.708,47.157,36.11,47.157,47.706z"/>
<path fill="#859A26" d="M47.594,49.072c0,10.193,8.264,18.457,18.458,18.457c10.195,0,18.461-8.264,18.461-18.457
	c0-10.199-8.266-18.463-18.461-18.463C55.857,30.608,47.594,38.873,47.594,49.072z"/>
<path fill="#758827" d="M65.68,57.244c-0.033,0.454,0.07,0.83,0.236,0.844c0.161,0.015,0.327-0.342,0.361-0.797
	c0.033-0.454-0.072-0.833-0.237-0.845C65.876,56.432,65.716,56.794,65.68,57.244z"/>
<path fill="#758827" d="M66.411,44.292c0.045,0.455,0.215,0.808,0.378,0.792c0.166-0.018,0.261-0.396,0.218-0.849
	c-0.048-0.455-0.215-0.808-0.377-0.79C66.462,43.46,66.367,43.843,66.411,44.292z"/>
<path fill="#758827" d="M68.211,34.33c0.045,0.454,0.216,0.808,0.379,0.789c0.163-0.013,0.261-0.394,0.213-0.845
	c-0.042-0.453-0.213-0.808-0.376-0.792C68.261,33.499,68.166,33.879,68.211,34.33z"/>
<path fill="#758827" d="M72.468,50.531c0.079,0.45,0.272,0.791,0.434,0.761c0.163-0.025,0.231-0.411,0.156-0.857
	c-0.079-0.453-0.27-0.792-0.431-0.764C72.465,49.699,72.395,50.084,72.468,50.531z"/>
<path fill="#758827" d="M74.836,39.592c0.077,0.453,0.269,0.792,0.433,0.763c0.164-0.028,0.234-0.412,0.155-0.858
	c-0.075-0.452-0.27-0.792-0.432-0.763C74.829,38.762,74.759,39.147,74.836,39.592z"/>
<path fill="#758827" d="M72.813,62.104c-0.172,0.427-0.186,0.816-0.033,0.878c0.15,0.063,0.418-0.229,0.586-0.651
	c0.171-0.423,0.188-0.813,0.033-0.877C73.245,61.392,72.985,61.688,72.813,62.104z"/>
<path fill="#758827" d="M80.046,52.716c-0.104,0.444-0.057,0.834,0.105,0.872c0.16,0.034,0.372-0.292,0.475-0.739
	c0.098-0.443,0.051-0.832-0.107-0.868C80.354,51.944,80.144,52.275,80.046,52.716z"/>
<path fill="#758827" d="M59.561,51.127c-0.033,0.455,0.073,0.833,0.239,0.843c0.163,0.014,0.322-0.343,0.358-0.796
	c0.032-0.454-0.071-0.832-0.233-0.843C59.757,50.315,59.595,50.674,59.561,51.127z"/>
<ellipse transform="matrix(-0.9973 -0.0729 0.0729 -0.9973 119.5598 80.1822)" fill="#758827" cx="61.243" cy="37.91" rx="0.298" ry="0.825"/>
<path fill="#758827" d="M51.88,45.062c-0.034,0.455,0.07,0.832,0.235,0.842c0.164,0.013,0.33-0.342,0.36-0.797
	c0.038-0.454-0.068-0.83-0.233-0.842S51.917,44.608,51.88,45.062z"/>
<ellipse transform="matrix(-0.9971 -0.0756 0.0756 -0.9971 112.2209 128.6853)" fill="#758827" cx="58.547" cy="62.218" rx="0.3" ry="0.822"/>
<path fill="#51702B" d="M85.944,43.569c0.189,0.412,0.461,0.694,0.609,0.623c0.152-0.064,0.122-0.458-0.063-0.87
	c-0.186-0.417-0.461-0.696-0.611-0.627C85.727,42.762,85.757,43.153,85.944,43.569z"/>
<path fill="#51702B" d="M81.747,61.314c-0.125,0.437-0.096,0.831,0.06,0.875c0.157,0.044,0.389-0.272,0.513-0.707
	c0.127-0.44,0.102-0.829-0.058-0.874C82.102,60.562,81.873,60.88,81.747,61.314z"/>
<ellipse transform="matrix(-0.9609 -0.2768 0.2768 -0.9609 157.5176 121.5726)" fill="#51702B" cx="87.338" cy="49.671" rx="0.301" ry="0.823"/>
<path fill="#51702B" d="M77.703,32.499c0.415,0.195,0.802,0.231,0.871,0.083c0.072-0.145-0.202-0.425-0.611-0.625
	c-0.41-0.195-0.8-0.232-0.872-0.083C77.021,32.022,77.292,32.304,77.703,32.499z"/>
<path fill="#51702B" d="M59.999,30.874c0.399-0.215,0.665-0.502,0.585-0.652c-0.075-0.143-0.462-0.089-0.867,0.124
	c-0.399,0.21-0.663,0.5-0.589,0.648C59.208,31.137,59.595,31.087,59.999,30.874z"/>
<path fill="#758827" d="M57.937,10.416c0.075,0.452,0.266,0.79,0.43,0.765c0.161-0.027,0.236-0.411,0.161-0.861
	c-0.071-0.448-0.263-0.79-0.426-0.761C57.937,9.582,57.864,9.964,57.937,10.416z"/>
<path fill="#758827" d="M37.696,24.585c0,11.6,9.399,20.999,20.996,20.999c11.598,0,20.997-9.398,20.997-20.999
	c0-11.595-9.399-20.996-20.997-20.996C47.096,3.589,37.696,12.99,37.696,24.585z"/>
<path fill="#859A26" d="M38.13,25.951c0,10.194,8.265,18.458,18.458,18.458c10.196,0,18.461-8.264,18.461-18.458
	c0-10.199-8.265-18.463-18.461-18.463C46.395,7.488,38.13,15.752,38.13,25.951z"/>
<path fill="#758827" d="M56.216,34.124c-0.031,0.454,0.073,0.831,0.236,0.844c0.164,0.016,0.326-0.342,0.36-0.795
	c0.036-0.453-0.071-0.833-0.235-0.845C56.413,33.313,56.252,33.673,56.216,34.124z"/>
<path fill="#758827" d="M56.949,21.173c0.042,0.454,0.213,0.807,0.378,0.79c0.164-0.018,0.261-0.395,0.218-0.85
	c-0.048-0.453-0.216-0.807-0.378-0.789C57,20.341,56.905,20.724,56.949,21.173z"/>
<path fill="#758827" d="M58.747,11.21c0.046,0.454,0.216,0.808,0.381,0.789c0.162-0.014,0.261-0.393,0.213-0.846
	c-0.043-0.453-0.213-0.807-0.378-0.792C58.797,10.379,58.702,10.757,58.747,11.21z"/>
<path fill="#758827" d="M63.007,27.411c0.078,0.45,0.27,0.791,0.434,0.761c0.16-0.027,0.229-0.413,0.154-0.858
	c-0.078-0.452-0.271-0.792-0.432-0.763C63.003,26.579,62.933,26.963,63.007,27.411z"/>
<path fill="#758827" d="M65.372,16.474c0.08,0.451,0.27,0.791,0.435,0.761c0.166-0.026,0.233-0.411,0.153-0.857
	c-0.073-0.451-0.268-0.791-0.429-0.762C65.365,15.641,65.298,16.026,65.372,16.474z"/>
<path fill="#758827" d="M63.352,38.984c-0.173,0.425-0.187,0.814-0.034,0.876c0.152,0.063,0.418-0.229,0.586-0.65
	c0.17-0.422,0.188-0.813,0.032-0.876C63.782,38.272,63.522,38.567,63.352,38.984z"/>
<path fill="#758827" d="M70.584,29.597c-0.104,0.443-0.058,0.834,0.105,0.871c0.159,0.034,0.372-0.292,0.473-0.738
	c0.1-0.445,0.053-0.832-0.106-0.87C70.894,28.825,70.681,29.155,70.584,29.597z"/>
<path fill="#758827" d="M50.097,28.007c-0.033,0.455,0.074,0.832,0.236,0.842c0.166,0.014,0.325-0.342,0.363-0.798
	c0.031-0.453-0.073-0.83-0.234-0.841C50.295,27.196,50.133,27.554,50.097,28.007z"/>
<path fill="#758827" d="M51.481,14.767c-0.033,0.455,0.069,0.834,0.234,0.846c0.164,0.013,0.327-0.346,0.361-0.8
	c0.038-0.452-0.068-0.832-0.233-0.842C51.679,13.958,51.519,14.315,51.481,14.767z"/>
<ellipse transform="matrix(-0.997 -0.0768 0.0768 -0.997 83.618 47.1472)" fill="#758827" cx="42.716" cy="21.965" rx="0.299" ry="0.821"/>
<path fill="#758827" d="M48.786,39.076c-0.035,0.454,0.072,0.83,0.236,0.841c0.164,0.013,0.323-0.342,0.361-0.796
	c0.031-0.454-0.071-0.833-0.234-0.842C48.982,38.265,48.82,38.621,48.786,39.076z"/>
<path fill="#51702B" d="M76.479,20.45c0.193,0.412,0.465,0.693,0.611,0.622c0.152-0.064,0.123-0.457-0.062-0.87
	c-0.188-0.416-0.463-0.696-0.614-0.626C76.265,19.642,76.294,20.033,76.479,20.45z"/>
<path fill="#51702B" d="M72.282,38.195c-0.121,0.436-0.095,0.829,0.062,0.875c0.156,0.044,0.386-0.271,0.512-0.708
	c0.129-0.438,0.102-0.828-0.058-0.873C72.641,37.441,72.41,37.76,72.282,38.195z"/>
<path fill="#51702B" d="M77.585,26.467c-0.121,0.438-0.095,0.829,0.062,0.874c0.159,0.045,0.389-0.268,0.517-0.707
	c0.122-0.435,0.098-0.828-0.06-0.874C77.944,25.712,77.713,26.031,77.585,26.467z"/>
<path fill="#51702B" d="M68.241,9.38c0.414,0.193,0.801,0.231,0.87,0.082c0.071-0.147-0.201-0.425-0.611-0.625
	c-0.409-0.196-0.8-0.233-0.87-0.084C67.557,8.901,67.831,9.183,68.241,9.38z"/>
<path fill="#51702B" d="M50.538,7.755c0.396-0.217,0.663-0.502,0.582-0.651c-0.073-0.145-0.462-0.091-0.865,0.123
	c-0.4,0.209-0.663,0.5-0.59,0.647C49.746,8.018,50.133,7.967,50.538,7.755z"/>
<path fill="#758827" d="M30.782,6.827c0.075,0.452,0.264,0.79,0.426,0.765c0.164-0.028,0.237-0.411,0.164-0.861
	c-0.073-0.449-0.266-0.792-0.428-0.762C30.782,5.993,30.708,6.375,30.782,6.827z"/>
<path fill="#758827" d="M10.539,20.996c0,11.6,9.399,21,20.997,21s20.999-9.4,20.999-21C52.535,9.402,43.134,0,31.536,0
	S10.539,9.402,10.539,20.996z"/>
<path fill="#859A26" d="M10.976,22.362c0,10.194,8.262,18.458,18.459,18.458c10.193,0,18.456-8.264,18.456-18.458
	c0-10.199-8.263-18.463-18.456-18.463C19.237,3.899,10.976,12.163,10.976,22.362z"/>
<path fill="#758827" d="M29.062,30.535c-0.033,0.453,0.067,0.831,0.233,0.844c0.164,0.017,0.327-0.343,0.362-0.796
	c0.035-0.45-0.069-0.832-0.235-0.845C29.257,29.723,29.099,30.085,29.062,30.535z"/>
<path fill="#758827" d="M29.79,17.584c0.047,0.453,0.216,0.806,0.381,0.79c0.165-0.017,0.261-0.395,0.217-0.849
	c-0.046-0.456-0.217-0.808-0.379-0.79C29.843,16.752,29.747,17.135,29.79,17.584z"/>
<path fill="#758827" d="M31.591,7.621c0.048,0.455,0.214,0.808,0.379,0.789c0.162-0.013,0.26-0.392,0.216-0.846
	c-0.043-0.453-0.213-0.806-0.379-0.791C31.644,6.79,31.548,7.17,31.591,7.621z"/>
<path fill="#758827" d="M35.851,23.82c0.074,0.452,0.269,0.792,0.431,0.764c0.165-0.027,0.234-0.413,0.156-0.86
	c-0.076-0.45-0.267-0.792-0.433-0.761C35.844,22.99,35.774,23.374,35.851,23.82z"/>
<path fill="#758827" d="M38.216,12.885c0.079,0.451,0.27,0.792,0.435,0.762c0.163-0.028,0.231-0.412,0.155-0.858
	c-0.076-0.452-0.271-0.792-0.431-0.763C38.21,12.052,38.14,12.437,38.216,12.885z"/>
<path fill="#758827" d="M36.195,35.394c-0.175,0.426-0.187,0.818-0.037,0.878c0.155,0.063,0.419-0.229,0.589-0.651
	c0.17-0.423,0.187-0.813,0.034-0.877C36.627,34.683,36.364,34.979,36.195,35.394z"/>
<path fill="#758827" d="M43.425,26.008c-0.104,0.442-0.056,0.834,0.106,0.871c0.162,0.035,0.375-0.293,0.475-0.74
	c0.103-0.442,0.054-0.831-0.104-0.868C43.735,25.236,43.521,25.566,43.425,26.008z"/>
<path fill="#758827" d="M22.94,24.418c-0.033,0.455,0.072,0.832,0.236,0.842c0.166,0.013,0.326-0.342,0.361-0.796
	c0.034-0.455-0.073-0.833-0.233-0.843C23.136,23.605,22.977,23.964,22.94,24.418z"/>
<path fill="#758827" d="M24.327,11.178c-0.038,0.455,0.068,0.835,0.233,0.845c0.165,0.015,0.323-0.346,0.362-0.799
	c0.033-0.452-0.068-0.832-0.234-0.842C24.524,10.369,24.361,10.727,24.327,11.178z"/>
<path fill="#758827" d="M15.262,18.354c-0.036,0.453,0.07,0.83,0.234,0.841c0.165,0.013,0.327-0.342,0.362-0.795
	c0.035-0.457-0.07-0.833-0.233-0.843C15.459,17.543,15.298,17.9,15.262,18.354z"/>
<path fill="#758827" d="M21.627,35.485c-0.03,0.454,0.071,0.832,0.237,0.843c0.164,0.013,0.326-0.343,0.361-0.798
	c0.034-0.454-0.072-0.832-0.232-0.842C21.824,34.676,21.665,35.031,21.627,35.485z"/>
<path fill="#51702B" d="M49.324,16.86c0.189,0.412,0.464,0.694,0.611,0.622c0.149-0.063,0.123-0.458-0.066-0.868
	c-0.186-0.417-0.458-0.696-0.611-0.626C49.108,16.053,49.139,16.443,49.324,16.86z"/>
<ellipse transform="matrix(-0.9602 -0.2792 0.2792 -0.9602 79.3364 80.6819)" fill="#51702B" cx="45.415" cy="34.69" rx="0.299" ry="0.822"/>
<path fill="#51702B" d="M50.431,22.878c-0.122,0.438-0.098,0.829,0.061,0.875c0.156,0.043,0.388-0.269,0.516-0.708
	c0.126-0.434,0.099-0.828-0.062-0.874C50.786,22.123,50.557,22.442,50.431,22.878z"/>
<path fill="#51702B" d="M41.083,5.791c0.414,0.194,0.803,0.231,0.873,0.083c0.069-0.146-0.202-0.425-0.611-0.624
	c-0.409-0.196-0.803-0.233-0.871-0.085C40.399,5.312,40.677,5.594,41.083,5.791z"/>
<path fill="#51702B" d="M23.379,4.165c0.401-0.215,0.664-0.502,0.588-0.651C23.89,3.37,23.501,3.423,23.1,3.636
	c-0.404,0.209-0.663,0.502-0.591,0.647C22.589,4.428,22.976,4.378,23.379,4.165z"/>
<path fill="#758827" d="M37.696,36.381c0.073,0.451,0.262,0.789,0.424,0.765c0.164-0.026,0.239-0.412,0.164-0.862
	c-0.074-0.448-0.266-0.792-0.428-0.762C37.696,35.547,37.62,35.929,37.696,36.381z"/>
<path fill="#758827" d="M17.452,50.551c0,11.6,9.398,20.997,20.996,20.997c11.596,0,20.999-9.397,20.999-20.997
	c0-11.596-9.403-20.997-20.999-20.997C26.851,29.554,17.452,38.955,17.452,50.551z"/>
<path fill="#859A26" d="M17.888,51.916c0,10.193,8.261,18.458,18.457,18.458s18.458-8.265,18.458-18.458
	c0-10.197-8.262-18.463-18.458-18.463S17.888,41.719,17.888,51.916z"/>
<path fill="#758827" d="M35.973,60.088c-0.033,0.454,0.07,0.832,0.235,0.845c0.164,0.018,0.326-0.343,0.36-0.797
	c0.036-0.452-0.069-0.831-0.232-0.844C36.171,59.277,36.011,59.64,35.973,60.088z"/>
<path fill="#758827" d="M36.704,47.137c0.046,0.455,0.216,0.807,0.379,0.792c0.166-0.02,0.262-0.396,0.216-0.852
	c-0.046-0.454-0.216-0.806-0.376-0.789C36.754,46.305,36.658,46.689,36.704,47.137z"/>
<path fill="#758827" d="M38.503,37.175c0.047,0.455,0.215,0.809,0.379,0.789c0.164-0.013,0.261-0.393,0.215-0.844
	c-0.043-0.456-0.211-0.808-0.377-0.792C38.555,36.343,38.459,36.725,38.503,37.175z"/>
<path fill="#758827" d="M42.764,53.375c0.073,0.451,0.269,0.791,0.431,0.762c0.163-0.026,0.233-0.412,0.157-0.858
	c-0.077-0.452-0.271-0.792-0.433-0.763C42.757,52.543,42.687,52.93,42.764,53.375z"/>
<path fill="#758827" d="M45.128,42.438c0.081,0.452,0.271,0.792,0.436,0.762c0.162-0.025,0.232-0.411,0.153-0.857
	c-0.076-0.452-0.27-0.792-0.429-0.763C45.123,41.606,45.054,41.991,45.128,42.438z"/>
<path fill="#758827" d="M43.105,64.949c-0.171,0.425-0.186,0.816-0.034,0.877c0.154,0.064,0.417-0.228,0.588-0.652
	c0.17-0.421,0.186-0.813,0.034-0.875C43.54,64.237,43.276,64.532,43.105,64.949z"/>
<path fill="#758827" d="M50.338,55.561c-0.104,0.444-0.057,0.835,0.107,0.872c0.159,0.036,0.372-0.292,0.474-0.737
	c0.101-0.445,0.054-0.833-0.106-0.87C50.647,54.791,50.436,55.121,50.338,55.561z"/>
<ellipse transform="matrix(-0.9972 -0.0751 0.0751 -0.9972 56.165 110.1015)" fill="#758827" cx="30.152" cy="53.995" rx="0.299" ry="0.823"/>
<path fill="#758827" d="M31.239,40.732c-0.036,0.455,0.069,0.835,0.232,0.845c0.167,0.013,0.325-0.346,0.362-0.8
	c0.034-0.453-0.069-0.832-0.233-0.842C31.436,39.922,31.275,40.28,31.239,40.732z"/>
<path fill="#758827" d="M22.175,47.908c-0.036,0.454,0.068,0.832,0.234,0.842c0.165,0.014,0.328-0.343,0.359-0.795
	c0.036-0.457-0.066-0.833-0.232-0.843C22.373,47.098,22.209,47.453,22.175,47.908z"/>
<path fill="#758827" d="M28.54,65.04c-0.032,0.454,0.071,0.83,0.236,0.842c0.164,0.013,0.327-0.343,0.362-0.797
	c0.033-0.455-0.072-0.833-0.234-0.842C28.737,64.229,28.578,64.586,28.54,65.04z"/>
<path fill="#51702B" d="M56.237,46.416c0.189,0.412,0.463,0.693,0.611,0.621c0.148-0.063,0.121-0.455-0.065-0.868
	c-0.187-0.417-0.46-0.697-0.612-0.626C56.019,45.607,56.053,45.998,56.237,46.416z"/>
<path fill="#51702B" d="M52.04,64.161c-0.125,0.434-0.098,0.828,0.06,0.874c0.159,0.045,0.386-0.271,0.514-0.707
	c0.13-0.438,0.103-0.828-0.058-0.873C52.397,63.407,52.167,63.725,52.04,64.161z"/>
<path fill="#51702B" d="M57.343,52.432c-0.121,0.438-0.096,0.829,0.061,0.875c0.156,0.046,0.389-0.269,0.517-0.708
	c0.123-0.434,0.099-0.828-0.062-0.873C57.698,51.678,57.47,51.997,57.343,52.432z"/>
<path fill="#51702B" d="M47.997,35.344c0.412,0.195,0.799,0.231,0.871,0.084c0.068-0.147-0.201-0.426-0.61-0.625
	c-0.409-0.196-0.803-0.233-0.872-0.084C47.312,34.867,47.588,35.148,47.997,35.344z"/>
<path fill="#51702B" d="M30.289,33.719c0.403-0.215,0.667-0.501,0.588-0.65c-0.076-0.144-0.464-0.09-0.864,0.122
	c-0.404,0.21-0.664,0.502-0.591,0.648C29.502,33.982,29.886,33.931,30.289,33.719z"/>
</svg>
