<?xml version="1.0" encoding="utf-8"?>
<!-- Generator: Adobe Illustrator 15.1.0, SVG Export Plug-In  -->
<!DOCTYPE svg PUBLIC "-//W3C//DTD SVG 1.1//EN" "http://www.w3.org/Graphics/SVG/1.1/DTD/svg11.dtd" [
	<!ENTITY ns_flows "http://ns.adobe.com/Flows/1.0/">
]>
<svg version="1.1"
	 xmlns="http://www.w3.org/2000/svg" xmlns:xlink="http://www.w3.org/1999/xlink" xmlns:a="http://ns.adobe.com/AdobeSVGViewerExtensions/3.0/"
	 x="0px" y="0px" width="434px" height="492px" viewBox="-58.561 -157.793 434 492"
	 overflow="visible" enable-background="new -58.561 -157.793 434 492" xml:space="preserve">
<defs>
</defs>
<polygon fill="#7D7772" points="126.113,153.334 67.887,119.76 0,158.903 58.225,192.436 "/>
<polygon fill="#7D7772" points="184.178,75.291 242.18,108.932 77.662,203.406 19.434,169.81 "/>
<g enable-background="new    ">
	<defs>
		<polygon id="SVGID_2_" enable-background="new    " points="85.342,128.047 175.207,86.721 322.521,96.056 191.529,196.051 		"/>
	</defs>
	<clipPath id="SVGID_4_">
		<use xlink:href="#SVGID_2_"  overflow="visible"/>
	</clipPath>
	<g clip-path="url(#SVGID_4_)">
		<g>
			<polyline fill="#2C2121" points="181.648,78.763 74.426,85.047 71.139,87.464 75.449,89.35 40.723,114.895 126.113,153.334 
				240.062,151.657 284.764,123.831 281.473,126.252 284.764,123.831 181.648,78.763 			"/>
		</g>
	</g>
</g>
<polygon fill="#FFFFFF" points="67.887,119.76 126.113,153.334 222.912,97.364 164.76,63.789 "/>
<polygon fill="#BCB59B" points="222.912,41.055 222.912,97.364 126.113,153.334 126.113,97.025 "/>
<polygon fill="#CCC5AA" points="67.887,119.76 67.887,63.449 126.113,97.025 126.113,153.334 "/>
<line fill="#C7B8B4" x1="67.73" y1="74.855" x2="126.113" y2="108.564"/>
<rect x="63.214" y="91.585" transform="matrix(0.866 0.5 -0.5 0.866 58.8428 -36.1749)" fill="#8C7576" width="67.415" height="0.25"/>
<line fill="#C7B8B4" x1="67.73" y1="86.118" x2="126.113" y2="119.826"/>
<rect x="63.214" y="102.847" transform="matrix(0.866 0.5 -0.5 0.866 64.4724 -34.6656)" fill="#8C7576" width="67.415" height="0.25"/>
<line fill="#C7B8B4" x1="126.113" y1="131.002" x2="67.73" y2="97.025"/>
<rect x="63.147" y="113.889" transform="matrix(0.8643 0.503 -0.503 0.8643 70.5002 -33.2781)" fill="#8C7576" width="67.55" height="0.249"/>
<line fill="#C7B8B4" x1="67.73" y1="108.534" x2="126.039" y2="142.137"/>
<rect x="63.236" y="125.21" transform="matrix(0.8664 0.4993 -0.4993 0.8664 75.5227 -31.6336)" fill="#8C7576" width="67.298" height="0.25"/>
<line fill="#C7B8B4" x1="67.885" y1="69.242" x2="126.039" y2="102.979"/>
<rect x="63.346" y="85.986" transform="matrix(0.865 0.5018 -0.5018 0.865 56.3008 -37.0289)" fill="#8C7576" width="67.231" height="0.249"/>
<line fill="#C7B8B4" x1="67.885" y1="80.637" x2="126.039" y2="114.372"/>
<rect x="63.346" y="97.38" transform="matrix(0.865 0.5018 -0.5018 0.865 62.0166 -35.4901)" fill="#8C7576" width="67.231" height="0.249"/>
<line fill="#C7B8B4" x1="67.885" y1="91.668" x2="126.039" y2="125.402"/>
<rect x="63.347" y="108.41" transform="matrix(0.865 0.5018 -0.5018 0.865 67.5498 -34.0005)" fill="#8C7576" width="67.23" height="0.249"/>
<line fill="#C7B8B4" x1="67.885" y1="102.957" x2="126.039" y2="136.692"/>
<rect x="63.346" y="119.7" transform="matrix(0.865 0.5018 -0.5018 0.865 73.2165 -32.4767)" fill="#8C7576" width="67.231" height="0.249"/>
<line fill="#C7B8B4" x1="67.885" y1="114.372" x2="126.039" y2="148.107"/>
<rect x="63.346" y="131.115" transform="matrix(0.865 0.5018 -0.5018 0.865 78.9444 -30.9356)" fill="#8C7576" width="67.231" height="0.249"/>
<line fill="#C7B8B4" x1="72.727" y1="66.241" x2="72.652" y2="72.193"/>
<path fill="#8C7576" d="M72.652,72.318C72.651,72.318,72.651,72.318,72.652,72.318c-0.07-0.001-0.126-0.058-0.125-0.126l0.074-5.952
	c0.001-0.069,0.058-0.12,0.127-0.124c0.068,0.001,0.124,0.058,0.123,0.126l-0.074,5.952C72.776,72.263,72.721,72.318,72.652,72.318z
	"/>
<path fill="#8C7576" d="M75.527,79.66c-0.069,0-0.125-0.056-0.125-0.125v-5.859c0-0.069,0.056-0.125,0.125-0.125
	s0.125,0.056,0.125,0.125v5.859C75.652,79.604,75.597,79.66,75.527,79.66z"/>
<line fill="#C7B8B4" x1="72.727" y1="77.783" x2="72.652" y2="83.584"/>
<path fill="#8C7576" d="M72.652,83.709C72.651,83.709,72.651,83.709,72.652,83.709c-0.07-0.001-0.126-0.058-0.125-0.126l0.074-5.801
	c0.001-0.069,0.058-0.118,0.127-0.124c0.068,0.001,0.124,0.058,0.123,0.126l-0.074,5.801C72.776,83.654,72.721,83.709,72.652,83.709
	z"/>
<path fill="#8C7576" d="M75.527,90.863c-0.069,0-0.125-0.056-0.125-0.125v-5.709c0-0.069,0.056-0.125,0.125-0.125
	s0.125,0.056,0.125,0.125v5.709C75.652,90.807,75.597,90.863,75.527,90.863z"/>
<line fill="#C7B8B4" x1="72.727" y1="88.918" x2="72.652" y2="94.323"/>
<path fill="#8C7576" d="M72.652,94.448C72.651,94.448,72.651,94.448,72.652,94.448c-0.07-0.001-0.126-0.058-0.125-0.127l0.074-5.405
	c0.001-0.069,0.058-0.124,0.127-0.123c0.068,0.001,0.124,0.058,0.123,0.127l-0.074,5.405C72.776,94.394,72.721,94.448,72.652,94.448
	z"/>
<path fill="#8C7576" d="M75.533,101.795c-0.069,0-0.125-0.056-0.125-0.125v-5.395c0-0.069,0.056-0.125,0.125-0.125
	s0.125,0.056,0.125,0.125v5.395C75.658,101.739,75.603,101.795,75.533,101.795z"/>
<line fill="#C7B8B4" x1="72.727" y1="99.912" x2="72.652" y2="105.714"/>
<path fill="#8C7576" d="M72.652,105.839C72.651,105.839,72.651,105.839,72.652,105.839c-0.07-0.001-0.126-0.058-0.125-0.126
	l0.074-5.802c0.001-0.07,0.058-0.128,0.127-0.124c0.068,0.001,0.124,0.058,0.123,0.126l-0.074,5.802
	C72.776,105.784,72.721,105.839,72.652,105.839z"/>
<path fill="#8C7576" d="M75.527,113.219c-0.069,0-0.125-0.056-0.125-0.125v-5.709c0-0.069,0.056-0.125,0.125-0.125
	s0.125,0.056,0.125,0.125v5.709C75.652,113.163,75.597,113.219,75.527,113.219z"/>
<line fill="#C7B8B4" x1="72.727" y1="111.357" x2="72.652" y2="117.158"/>
<path fill="#8C7576" d="M72.652,117.283C72.651,117.283,72.651,117.283,72.652,117.283c-0.07-0.001-0.126-0.058-0.125-0.126
	l0.074-5.801c0.001-0.069,0.057-0.124,0.125-0.124c0,0,0.001,0,0.002,0c0.068,0.001,0.124,0.058,0.123,0.126l-0.074,5.801
	C72.776,117.229,72.721,117.283,72.652,117.283z"/>
<path fill="#8C7576" d="M75.527,124.664c-0.069,0-0.125-0.056-0.125-0.125v-5.709c0-0.069,0.056-0.125,0.125-0.125
	s0.125,0.056,0.125,0.125v5.709C75.652,124.608,75.597,124.664,75.527,124.664z"/>
<line fill="#C7B8B4" x1="81.803" y1="71.422" x2="81.729" y2="77.375"/>
<path fill="#8C7576" d="M81.729,77.5c-0.079-0.001-0.126-0.057-0.125-0.126l0.074-5.953c0.001-0.068,0.057-0.124,0.125-0.124
	c0.055-0.005,0.126,0.056,0.125,0.126l-0.074,5.953C81.853,77.445,81.797,77.5,81.729,77.5z"/>
<path fill="#8C7576" d="M84.604,84.842c-0.069,0-0.125-0.056-0.125-0.125v-5.859c0-0.069,0.056-0.125,0.125-0.125
	s0.125,0.056,0.125,0.125v5.859C84.729,84.786,84.673,84.842,84.604,84.842z"/>
<line fill="#C7B8B4" x1="81.803" y1="82.963" x2="81.729" y2="88.766"/>
<path fill="#8C7576" d="M81.729,88.891C81.728,88.891,81.728,88.891,81.729,88.891c-0.07-0.001-0.126-0.058-0.125-0.126l0.074-5.803
	c0.001-0.069,0.057-0.124,0.125-0.124c0.055,0,0.126,0.056,0.125,0.126l-0.074,5.803C81.853,88.836,81.797,88.891,81.729,88.891z"/>
<path fill="#8C7576" d="M84.604,96.044c-0.069,0-0.125-0.056-0.125-0.125v-5.708c0-0.069,0.056-0.125,0.125-0.125
	s0.125,0.056,0.125,0.125v5.708C84.729,95.988,84.673,96.044,84.604,96.044z"/>
<line fill="#C7B8B4" x1="81.803" y1="94.302" x2="81.729" y2="99.709"/>
<path fill="#8C7576" d="M81.729,99.834c-0.079-0.007-0.126-0.057-0.125-0.127l0.074-5.407c0.001-0.068,0.057-0.123,0.125-0.123
	c0.055-0.001,0.126,0.056,0.125,0.127l-0.074,5.407C81.853,99.779,81.797,99.834,81.729,99.834z"/>
<path fill="#8C7576" d="M84.609,106.977c-0.069,0-0.125-0.056-0.125-0.125v-5.395c0-0.069,0.056-0.125,0.125-0.125
	s0.125,0.056,0.125,0.125v5.395C84.734,106.92,84.679,106.977,84.609,106.977z"/>
<line fill="#C7B8B4" x1="81.803" y1="105.304" x2="81.729" y2="110.896"/>
<path fill="#8C7576" d="M81.729,111.021c-0.079,0.005-0.126-0.057-0.125-0.126l0.074-5.592c0.001-0.069,0.064-0.112,0.127-0.124
	c0.068,0.001,0.124,0.058,0.123,0.126l-0.074,5.592C81.853,110.966,81.797,111.021,81.729,111.021z"/>
<path fill="#8C7576" d="M84.604,118.4c-0.069,0-0.125-0.056-0.125-0.125v-5.709c0-0.069,0.056-0.125,0.125-0.125
	s0.125,0.056,0.125,0.125v5.709C84.729,118.344,84.673,118.4,84.604,118.4z"/>
<line fill="#C7B8B4" x1="81.803" y1="116.538" x2="81.729" y2="122.34"/>
<path fill="#8C7576" d="M81.729,122.465c-0.079,0.002-0.126-0.057-0.125-0.126l0.074-5.802c0.001-0.069,0.064-0.114,0.127-0.124
	c0.068,0.001,0.124,0.058,0.123,0.126l-0.074,5.802C81.853,122.41,81.797,122.465,81.729,122.465z"/>
<path fill="#8C7576" d="M84.604,129.845c-0.069,0-0.125-0.056-0.125-0.125v-5.71c0-0.069,0.056-0.125,0.125-0.125
	s0.125,0.056,0.125,0.125v5.71C84.729,129.789,84.673,129.845,84.604,129.845z"/>
<line fill="#C7B8B4" x1="90.719" y1="76.577" x2="90.645" y2="82.529"/>
<path fill="#8C7576" d="M90.645,82.654C90.644,82.654,90.644,82.654,90.645,82.654c-0.07-0.001-0.126-0.058-0.125-0.126l0.074-5.952
	c0.001-0.068,0.057-0.124,0.125-0.124c0,0,0.001,0,0.002,0c0.068,0.001,0.124,0.058,0.123,0.126l-0.074,5.952
	C90.769,82.599,90.713,82.654,90.645,82.654z"/>
<path fill="#8C7576" d="M93.521,89.996c-0.069,0-0.125-0.056-0.125-0.125v-5.858c0-0.069,0.056-0.125,0.125-0.125
	s0.125,0.056,0.125,0.125v5.858C93.646,89.94,93.591,89.996,93.521,89.996z"/>
<line fill="#C7B8B4" x1="90.719" y1="88.119" x2="90.645" y2="93.92"/>
<path fill="#8C7576" d="M90.645,94.045C90.644,94.045,90.644,94.045,90.645,94.045c-0.07-0.001-0.126-0.058-0.125-0.126l0.074-5.801
	c0.001-0.069,0.057-0.124,0.125-0.124c0,0,0.001,0,0.002,0c0.068,0.001,0.124,0.058,0.123,0.126l-0.074,5.801
	C90.769,93.99,90.713,94.045,90.645,94.045z"/>
<path fill="#8C7576" d="M93.521,101.199c-0.069,0-0.125-0.056-0.125-0.125v-5.709c0-0.069,0.056-0.125,0.125-0.125
	s0.125,0.056,0.125,0.125v5.709C93.646,101.143,93.591,101.199,93.521,101.199z"/>
<line fill="#C7B8B4" x1="90.719" y1="99.457" x2="90.645" y2="104.864"/>
<path fill="#8C7576" d="M90.645,104.989C90.644,104.989,90.644,104.989,90.645,104.989c-0.07-0.001-0.126-0.058-0.125-0.127
	l0.074-5.407c0.001-0.068,0.057-0.123,0.125-0.123c0,0,0.001,0,0.002,0c0.068,0.001,0.124,0.058,0.123,0.127l-0.074,5.407
	C90.769,104.935,90.713,104.989,90.645,104.989z"/>
<path fill="#8C7576" d="M93.525,112.131c-0.069,0-0.125-0.056-0.125-0.125v-5.395c0-0.069,0.056-0.125,0.125-0.125
	s0.125,0.056,0.125,0.125v5.395C93.65,112.075,93.595,112.131,93.525,112.131z"/>
<line fill="#C7B8B4" x1="90.719" y1="110.461" x2="90.645" y2="116.05"/>
<path fill="#8C7576" d="M90.645,116.175C90.644,116.175,90.644,116.175,90.645,116.175c-0.07-0.001-0.126-0.058-0.125-0.126
	l0.074-5.589c0.001-0.069,0.057-0.124,0.125-0.124c0.084-0.004,0.125,0.056,0.125,0.126l-0.074,5.589
	C90.769,116.12,90.713,116.175,90.645,116.175z"/>
<path fill="#8C7576" d="M93.521,123.555c-0.069,0-0.125-0.056-0.125-0.125v-5.709c0-0.069,0.056-0.125,0.125-0.125
	s0.125,0.056,0.125,0.125v5.709C93.646,123.499,93.591,123.555,93.521,123.555z"/>
<line fill="#C7B8B4" x1="90.719" y1="121.693" x2="90.645" y2="127.494"/>
<path fill="#8C7576" d="M90.645,127.619C90.644,127.619,90.644,127.619,90.645,127.619c-0.07-0.001-0.126-0.058-0.125-0.126
	l0.074-5.801c0.001-0.069,0.057-0.124,0.125-0.124c0.084-0.002,0.125,0.056,0.125,0.126l-0.074,5.801
	C90.769,127.564,90.713,127.619,90.645,127.619z"/>
<path fill="#8C7576" d="M93.521,135c-0.069,0-0.125-0.056-0.125-0.125v-5.709c0-0.069,0.056-0.125,0.125-0.125
	s0.125,0.056,0.125,0.125v5.709C93.646,134.944,93.591,135,93.521,135z"/>
<line fill="#C7B8B4" x1="99.658" y1="81.746" x2="99.584" y2="87.699"/>
<path fill="#8C7576" d="M99.584,87.824C99.583,87.824,99.583,87.824,99.584,87.824c-0.07-0.001-0.126-0.058-0.125-0.126l0.074-5.953
	c0.001-0.068,0.057-0.124,0.125-0.124c0,0,0.001,0,0.002,0c0.068,0.001,0.124,0.058,0.123,0.126l-0.074,5.953
	C99.708,87.769,99.652,87.824,99.584,87.824z"/>
<path fill="#8C7576" d="M102.459,95.167c-0.069,0-0.125-0.056-0.125-0.125v-5.861c0-0.069,0.056-0.125,0.125-0.125
	s0.125,0.056,0.125,0.125v5.861C102.584,95.111,102.528,95.167,102.459,95.167z"/>
<line fill="#C7B8B4" x1="99.658" y1="93.287" x2="99.584" y2="99.09"/>
<path fill="#8C7576" d="M99.584,99.215C99.583,99.215,99.583,99.215,99.584,99.215c-0.07-0.001-0.126-0.058-0.125-0.126l0.074-5.803
	c0.001-0.069,0.057-0.124,0.125-0.124c0,0,0.001,0,0.002,0c0.068,0.001,0.124,0.058,0.123,0.126l-0.074,5.803
	C99.708,99.16,99.652,99.215,99.584,99.215z"/>
<path fill="#8C7576" d="M102.459,106.368c-0.069,0-0.125-0.056-0.125-0.125v-5.708c0-0.069,0.056-0.125,0.125-0.125
	s0.125,0.056,0.125,0.125v5.708C102.584,106.312,102.528,106.368,102.459,106.368z"/>
<line fill="#C7B8B4" x1="99.658" y1="104.627" x2="99.584" y2="110.033"/>
<path fill="#8C7576" d="M99.584,110.158C99.583,110.158,99.583,110.158,99.584,110.158c-0.07-0.001-0.126-0.058-0.125-0.127
	l0.074-5.406c0.001-0.068,0.057-0.123,0.125-0.123c0,0,0.001,0,0.002,0c0.068,0.001,0.124,0.058,0.123,0.127l-0.074,5.406
	C99.708,110.104,99.652,110.158,99.584,110.158z"/>
<path fill="#8C7576" d="M102.465,117.301c-0.069,0-0.125-0.056-0.125-0.125v-5.395c0-0.069,0.056-0.125,0.125-0.125
	s0.125,0.056,0.125,0.125v5.395C102.59,117.245,102.534,117.301,102.465,117.301z"/>
<line fill="#C7B8B4" x1="99.658" y1="115.629" x2="99.584" y2="121.219"/>
<path fill="#8C7576" d="M99.584,121.344C99.583,121.344,99.583,121.344,99.584,121.344c-0.07-0.001-0.126-0.058-0.125-0.126
	l0.074-5.59c0.001-0.069,0.057-0.124,0.125-0.124c0,0,0.001,0,0.002,0c0.068,0.001,0.124,0.058,0.123,0.126l-0.074,5.59
	C99.708,121.289,99.652,121.344,99.584,121.344z"/>
<path fill="#8C7576" d="M102.459,128.724c-0.069,0-0.125-0.056-0.125-0.125v-5.709c0-0.069,0.056-0.125,0.125-0.125
	s0.125,0.056,0.125,0.125v5.709C102.584,128.667,102.528,128.724,102.459,128.724z"/>
<line fill="#C7B8B4" x1="99.658" y1="126.861" x2="99.584" y2="132.664"/>
<path fill="#8C7576" d="M99.584,132.789C99.583,132.789,99.583,132.789,99.584,132.789c-0.07-0.001-0.126-0.058-0.125-0.126
	l0.074-5.803c0.001-0.069,0.057-0.124,0.125-0.124c0,0,0.001,0,0.002,0c0.068,0.001,0.124,0.058,0.123,0.126l-0.074,5.803
	C99.708,132.734,99.652,132.789,99.584,132.789z"/>
<path fill="#8C7576" d="M102.459,140.169c-0.069,0-0.125-0.056-0.125-0.125v-5.71c0-0.069,0.056-0.125,0.125-0.125
	s0.125,0.056,0.125,0.125v5.71C102.584,140.113,102.528,140.169,102.459,140.169z"/>
<line fill="#C7B8B4" x1="108.639" y1="86.902" x2="108.564" y2="92.855"/>
<path fill="#8C7576" d="M108.564,92.98C108.563,92.98,108.563,92.98,108.564,92.98c-0.07-0.001-0.126-0.058-0.125-0.126l0.074-5.953
	c0.001-0.069,0.062-0.119,0.127-0.124c0.068,0.001,0.124,0.058,0.123,0.126l-0.074,5.953
	C108.688,92.925,108.633,92.98,108.564,92.98z"/>
<path fill="#8C7576" d="M111.439,100.322c-0.069,0-0.125-0.056-0.125-0.125v-5.861c0-0.069,0.056-0.125,0.125-0.125
	s0.125,0.056,0.125,0.125v5.861C111.564,100.266,111.509,100.322,111.439,100.322z"/>
<line fill="#C7B8B4" x1="108.639" y1="98.443" x2="108.564" y2="104.244"/>
<path fill="#8C7576" d="M108.564,104.369c-0.079,0-0.126-0.057-0.125-0.126l0.074-5.801c0.001-0.069,0.062-0.116,0.127-0.124
	c0.068,0.001,0.124,0.058,0.123,0.126l-0.074,5.801C108.688,104.314,108.633,104.369,108.564,104.369z"/>
<path fill="#8C7576" d="M111.439,111.523c-0.069,0-0.125-0.056-0.125-0.125v-5.709c0-0.069,0.056-0.125,0.125-0.125
	s0.125,0.056,0.125,0.125v5.709C111.564,111.467,111.509,111.523,111.439,111.523z"/>
<line fill="#C7B8B4" x1="108.639" y1="109.782" x2="108.564" y2="115.189"/>
<path fill="#8C7576" d="M108.564,115.314C108.563,115.314,108.563,115.314,108.564,115.314c-0.07-0.001-0.126-0.058-0.125-0.127
	l0.074-5.407c0.001-0.069,0.062-0.118,0.127-0.123c0.068,0.001,0.124,0.058,0.123,0.127l-0.074,5.407
	C108.688,115.26,108.633,115.314,108.564,115.314z"/>
<path fill="#8C7576" d="M111.445,122.457c-0.069,0-0.125-0.056-0.125-0.125v-5.396c0-0.069,0.056-0.125,0.125-0.125
	s0.125,0.056,0.125,0.125v5.396C111.57,122.401,111.515,122.457,111.445,122.457z"/>
<line fill="#C7B8B4" x1="108.639" y1="120.785" x2="108.564" y2="126.375"/>
<path fill="#8C7576" d="M108.564,126.5c-0.079-0.011-0.126-0.057-0.125-0.126l0.074-5.59c0.001-0.069,0.057-0.124,0.125-0.124
	c0.055,0.004,0.126,0.056,0.125,0.126l-0.074,5.59C108.688,126.445,108.633,126.5,108.564,126.5z"/>
<path fill="#8C7576" d="M111.439,133.881c-0.069,0-0.125-0.056-0.125-0.125v-5.709c0-0.069,0.056-0.125,0.125-0.125
	s0.125,0.056,0.125,0.125v5.709C111.564,133.825,111.509,133.881,111.439,133.881z"/>
<line fill="#C7B8B4" x1="108.639" y1="132.019" x2="108.564" y2="137.82"/>
<path fill="#8C7576" d="M108.564,137.945C108.563,137.945,108.563,137.945,108.564,137.945c-0.07-0.001-0.126-0.058-0.125-0.126
	l0.074-5.802c0.001-0.069,0.057-0.124,0.125-0.124c0.055,0.004,0.126,0.056,0.125,0.126l-0.074,5.802
	C108.688,137.891,108.633,137.945,108.564,137.945z"/>
<path fill="#8C7576" d="M111.439,145.326c-0.069,0-0.125-0.056-0.125-0.125v-5.711c0-0.069,0.056-0.125,0.125-0.125
	s0.125,0.056,0.125,0.125v5.711C111.564,145.27,111.509,145.326,111.439,145.326z"/>
<line fill="#C7B8B4" x1="117.434" y1="92.07" x2="117.359" y2="98.023"/>
<path fill="#8C7576" d="M117.359,98.148c0,0-0.001,0-0.002,0c-0.068-0.001-0.124-0.058-0.123-0.126l0.074-5.953
	c0.001-0.069,0.072-0.122,0.127-0.124c0.068,0.001,0.124,0.058,0.123,0.126l-0.074,5.953
	C117.483,98.093,117.428,98.148,117.359,98.148z"/>
<path fill="#8C7576" d="M120.234,105.491c-0.069,0-0.125-0.056-0.125-0.125v-5.86c0-0.069,0.056-0.125,0.125-0.125
	s0.125,0.056,0.125,0.125v5.86C120.359,105.435,120.304,105.491,120.234,105.491z"/>
<line fill="#C7B8B4" x1="117.434" y1="103.613" x2="117.359" y2="109.414"/>
<path fill="#8C7576" d="M117.359,109.539c-0.067-0.004-0.126-0.057-0.125-0.126l0.074-5.801c0.001-0.069,0.072-0.12,0.127-0.124
	c0.068,0.001,0.124,0.058,0.123,0.126l-0.074,5.801C117.483,109.484,117.428,109.539,117.359,109.539z"/>
<path fill="#8C7576" d="M120.234,116.693c-0.069,0-0.125-0.056-0.125-0.125v-5.709c0-0.069,0.056-0.125,0.125-0.125
	s0.125,0.056,0.125,0.125v5.709C120.359,116.637,120.304,116.693,120.234,116.693z"/>
<line fill="#C7B8B4" x1="117.434" y1="114.951" x2="117.359" y2="120.359"/>
<path fill="#8C7576" d="M117.359,120.484c0,0-0.001,0-0.002,0c-0.068-0.001-0.124-0.058-0.123-0.127l0.074-5.408
	c0.001-0.069,0.072-0.121,0.127-0.123c0.068,0.001,0.124,0.058,0.123,0.127l-0.074,5.408
	C117.483,120.43,117.428,120.484,117.359,120.484z"/>
<path fill="#8C7576" d="M120.238,127.626c-0.069,0-0.125-0.056-0.125-0.125v-5.396c0-0.069,0.056-0.125,0.125-0.125
	s0.125,0.056,0.125,0.125v5.396C120.363,127.57,120.308,127.626,120.238,127.626z"/>
<line fill="#C7B8B4" x1="117.434" y1="125.955" x2="117.359" y2="131.545"/>
<path fill="#8C7576" d="M117.359,131.67c-0.067-0.015-0.126-0.057-0.125-0.126l0.074-5.59c0.001-0.069,0.057-0.124,0.125-0.124
	c0.066,0,0.126,0.056,0.125,0.126l-0.074,5.59C117.483,131.615,117.428,131.67,117.359,131.67z"/>
<path fill="#8C7576" d="M120.234,139.05c-0.069,0-0.125-0.056-0.125-0.125v-5.71c0-0.069,0.056-0.125,0.125-0.125
	s0.125,0.056,0.125,0.125v5.71C120.359,138.994,120.304,139.05,120.234,139.05z"/>
<line fill="#C7B8B4" x1="117.434" y1="137.188" x2="117.359" y2="142.989"/>
<path fill="#8C7576" d="M117.359,143.114c0,0-0.001,0-0.002,0c-0.068-0.001-0.124-0.058-0.123-0.126l0.074-5.802
	c0.001-0.069,0.057-0.124,0.125-0.124c0.066,0.001,0.126,0.056,0.125,0.126l-0.074,5.802
	C117.483,143.06,117.428,143.114,117.359,143.114z"/>
<path fill="#8C7576" d="M120.234,150.494c-0.069,0-0.125-0.056-0.125-0.125v-5.709c0-0.069,0.056-0.125,0.125-0.125
	s0.125,0.056,0.125,0.125v5.709C120.359,150.438,120.304,150.494,120.234,150.494z"/>
<rect x="155.1" y="57.956" transform="matrix(0.4995 0.8663 -0.8663 0.4995 157.0991 -88.5972)" fill="#A5918E" width="0.25" height="67.413"/>
<rect x="155.1" y="69.217" transform="matrix(0.4995 0.8663 -0.8663 0.4995 166.8549 -82.9609)" fill="#A5918E" width="0.25" height="67.412"/>
<rect x="155.101" y="80.191" transform="matrix(0.5012 0.8653 -0.8653 0.5012 176.0464 -77.4754)" fill="#A5918E" width="0.249" height="67.548"/>
<rect x="155.138" y="91.638" transform="matrix(0.4995 0.8663 -0.8663 0.4995 186.2472 -71.8002)" fill="#A5918E" width="0.25" height="67.296"/>
<rect x="155.061" y="52.448" transform="matrix(0.5012 0.8653 -0.8653 0.5012 151.8811 -91.359)" fill="#A5918E" width="0.249" height="67.23"/>
<rect x="155.061" y="63.841" transform="matrix(0.5012 0.8653 -0.8653 0.5012 161.7404 -85.6758)" fill="#A5918E" width="0.249" height="67.23"/>
<rect x="155.061" y="74.872" transform="matrix(0.5012 0.8653 -0.8653 0.5012 171.2852 -80.1738)" fill="#A5918E" width="0.249" height="67.229"/>
<rect x="155.061" y="86.162" transform="matrix(0.5012 0.8653 -0.8653 0.5012 181.0554 -74.542)" fill="#A5918E" width="0.249" height="67.229"/>
<rect x="155.061" y="97.577" transform="matrix(0.5012 0.8653 -0.8653 0.5012 190.9332 -68.848)" fill="#A5918E" width="0.249" height="67.229"/>
<path fill="#A5918E" d="M179.496,72.271c-0.068,0-0.124-0.055-0.125-0.124l-0.074-5.953c-0.001-0.069,0.055-0.125,0.123-0.126
	c0.076,0.01,0.126,0.054,0.127,0.124l0.074,5.953c0.001,0.069-0.055,0.125-0.123,0.126
	C179.497,72.271,179.497,72.271,179.496,72.271z"/>
<path fill="#A5918E" d="M176.619,79.611c-0.069,0-0.125-0.056-0.125-0.125v-5.858c0-0.069,0.056-0.125,0.125-0.125
	s0.125,0.056,0.125,0.125v5.858C176.744,79.555,176.688,79.611,176.619,79.611z"/>
<path fill="#A5918E" d="M179.496,83.662c-0.068,0-0.124-0.055-0.125-0.124l-0.074-5.803c-0.001-0.069,0.055-0.125,0.123-0.126
	c0.001,0,0.001,0,0.001,0c0.069,0,0.125,0.055,0.126,0.124l0.074,5.803C179.621,83.605,179.579,83.666,179.496,83.662z"/>
<path fill="#A5918E" d="M176.619,90.815c-0.069,0-0.125-0.056-0.125-0.125v-5.709c0-0.069,0.056-0.125,0.125-0.125
	s0.125,0.056,0.125,0.125v5.709C176.744,90.759,176.688,90.815,176.619,90.815z"/>
<path fill="#A5918E" d="M179.496,94.401c-0.068,0-0.124-0.055-0.125-0.123l-0.074-5.408c-0.001-0.069,0.055-0.126,0.123-0.127
	c0.076,0.008,0.126,0.054,0.127,0.123l0.074,5.408c0.001,0.069-0.055,0.126-0.123,0.127
	C179.497,94.401,179.497,94.401,179.496,94.401z"/>
<path fill="#A5918E" d="M176.613,101.748c-0.069,0-0.125-0.056-0.125-0.125v-5.396c0-0.069,0.056-0.125,0.125-0.125
	s0.125,0.056,0.125,0.125v5.396C176.738,101.692,176.683,101.748,176.613,101.748z"/>
<path fill="#A5918E" d="M179.496,105.791c-0.068,0-0.124-0.055-0.125-0.124l-0.074-5.801c-0.001-0.069,0.055-0.125,0.123-0.126
	c0.076,0,0.126,0.054,0.127,0.124l0.074,5.801C179.621,105.734,179.579,105.788,179.496,105.791z"/>
<path fill="#A5918E" d="M176.619,113.172c-0.069,0-0.125-0.056-0.125-0.125v-5.711c0-0.069,0.056-0.125,0.125-0.125
	s0.125,0.056,0.125,0.125v5.711C176.744,113.116,176.688,113.172,176.619,113.172z"/>
<path fill="#A5918E" d="M179.496,117.236c-0.068,0-0.124-0.055-0.125-0.124l-0.074-5.802c-0.001-0.069,0.055-0.125,0.123-0.126
	c0.076-0.003,0.126,0.054,0.127,0.124l0.074,5.802C179.621,117.179,179.579,117.23,179.496,117.236z"/>
<path fill="#A5918E" d="M176.619,124.615c-0.069,0-0.125-0.056-0.125-0.125v-5.708c0-0.069,0.056-0.125,0.125-0.125
	s0.125,0.056,0.125,0.125v5.708C176.744,124.559,176.688,124.615,176.619,124.615z"/>
<path fill="#A5918E" d="M170.42,77.451c-0.068,0-0.124-0.055-0.125-0.124l-0.074-5.953c-0.001-0.07,0.065-0.123,0.125-0.126
	c0.068,0,0.124,0.055,0.125,0.124l0.074,5.953c0.001,0.069-0.055,0.125-0.123,0.126C170.422,77.451,170.421,77.451,170.42,77.451z"
	/>
<path fill="#A5918E" d="M167.543,84.791c-0.069,0-0.125-0.056-0.125-0.125v-5.859c0-0.069,0.056-0.125,0.125-0.125
	s0.125,0.056,0.125,0.125v5.859C167.668,84.735,167.612,84.791,167.543,84.791z"/>
<path fill="#A5918E" d="M170.42,88.842c-0.068,0-0.124-0.055-0.125-0.124l-0.074-5.802c-0.001-0.069,0.055-0.125,0.123-0.126
	c0.069-0.002,0.126,0.054,0.127,0.124l0.074,5.802C170.545,88.785,170.494,88.832,170.42,88.842z"/>
<path fill="#A5918E" d="M167.543,95.995c-0.069,0-0.125-0.056-0.125-0.125v-5.708c0-0.069,0.056-0.125,0.125-0.125
	s0.125,0.056,0.125,0.125v5.708C167.668,95.939,167.612,95.995,167.543,95.995z"/>
<path fill="#A5918E" d="M170.42,99.786c-0.068,0-0.124-0.055-0.125-0.123l-0.074-5.408c-0.001-0.069,0.055-0.126,0.123-0.127
	c0.069-0.003,0.126,0.054,0.127,0.123l0.074,5.408C170.545,99.729,170.494,99.789,170.42,99.786z"/>
<path fill="#A5918E" d="M167.539,106.928c-0.069,0-0.125-0.056-0.125-0.125v-5.396c0-0.069,0.056-0.125,0.125-0.125
	s0.125,0.056,0.125,0.125v5.396C167.664,106.872,167.608,106.928,167.539,106.928z"/>
<path fill="#A5918E" d="M170.42,110.971c-0.068,0-0.124-0.055-0.125-0.124l-0.074-5.589c-0.001-0.07,0.065-0.129,0.125-0.126
	c0.068,0,0.124,0.055,0.125,0.124l0.074,5.589c0.001,0.069-0.055,0.125-0.123,0.126C170.422,110.971,170.421,110.971,170.42,110.971
	z"/>
<path fill="#A5918E" d="M167.543,118.352c-0.069,0-0.125-0.056-0.125-0.125v-5.71c0-0.069,0.056-0.125,0.125-0.125
	s0.125,0.056,0.125,0.125v5.71C167.668,118.295,167.612,118.352,167.543,118.352z"/>
<path fill="#A5918E" d="M170.42,122.417c-0.068,0-0.124-0.055-0.125-0.124l-0.074-5.802c-0.001-0.07,0.065-0.128,0.125-0.126
	c0.068,0,0.124,0.055,0.125,0.124l0.074,5.802c0.001,0.069-0.055,0.125-0.123,0.126C170.422,122.417,170.421,122.417,170.42,122.417
	z"/>
<path fill="#A5918E" d="M167.543,129.796c-0.069,0-0.125-0.056-0.125-0.125v-5.708c0-0.069,0.056-0.125,0.125-0.125
	s0.125,0.056,0.125,0.125v5.708C167.668,129.74,167.612,129.796,167.543,129.796z"/>
<path fill="#A5918E" d="M161.502,82.607c-0.068,0-0.124-0.055-0.125-0.124l-0.074-5.955c-0.001-0.069,0.055-0.125,0.123-0.126
	c0.001,0,0.001,0,0.001,0c0.069,0,0.125,0.055,0.126,0.124l0.074,5.955c0.001,0.069-0.055,0.125-0.123,0.126
	C161.504,82.607,161.503,82.607,161.502,82.607z"/>
<path fill="#A5918E" d="M158.627,89.949c-0.069,0-0.125-0.056-0.125-0.125v-5.86c0-0.069,0.056-0.125,0.125-0.125
	s0.125,0.056,0.125,0.125v5.86C158.752,89.893,158.696,89.949,158.627,89.949z"/>
<path fill="#A5918E" d="M161.502,93.998c-0.068,0-0.124-0.055-0.125-0.124l-0.074-5.803c-0.001-0.069,0.055-0.125,0.123-0.126
	c0.001,0,0.001,0,0.001,0c0.069,0,0.125,0.055,0.126,0.124l0.074,5.803c0.001,0.069-0.055,0.125-0.123,0.126
	C161.504,93.998,161.503,93.998,161.502,93.998z"/>
<path fill="#A5918E" d="M158.627,101.151c-0.069,0-0.125-0.056-0.125-0.125v-5.709c0-0.069,0.056-0.125,0.125-0.125
	s0.125,0.056,0.125,0.125v5.709C158.752,101.095,158.696,101.151,158.627,101.151z"/>
<path fill="#A5918E" d="M161.502,104.941c-0.068,0-0.124-0.055-0.125-0.123l-0.074-5.407c-0.001-0.069,0.055-0.126,0.123-0.127
	c0.001,0,0.001,0,0.001,0c0.069,0,0.125,0.055,0.126,0.123l0.074,5.407c0.001,0.069-0.055,0.126-0.123,0.127
	C161.504,104.941,161.503,104.941,161.502,104.941z"/>
<path fill="#A5918E" d="M158.621,112.084c-0.069,0-0.125-0.056-0.125-0.125v-5.396c0-0.069,0.056-0.125,0.125-0.125
	s0.125,0.056,0.125,0.125v5.396C158.746,112.028,158.69,112.084,158.621,112.084z"/>
<path fill="#A5918E" d="M161.502,116.127c-0.068,0-0.124-0.055-0.125-0.124l-0.074-5.59c-0.001-0.069,0.055-0.125,0.123-0.126
	c0.001,0,0.001,0,0.001,0c0.069,0,0.125,0.055,0.126,0.124l0.074,5.59c0.001,0.069-0.055,0.125-0.123,0.126
	C161.504,116.127,161.503,116.127,161.502,116.127z"/>
<path fill="#A5918E" d="M158.627,123.508c-0.069,0-0.125-0.056-0.125-0.125v-5.709c0-0.069,0.056-0.125,0.125-0.125
	s0.125,0.056,0.125,0.125v5.709C158.752,123.452,158.696,123.508,158.627,123.508z"/>
<path fill="#A5918E" d="M161.502,127.572c-0.068,0-0.124-0.055-0.125-0.124l-0.074-5.803c-0.001-0.069,0.055-0.125,0.123-0.126
	c0.001,0,0.001,0,0.001,0c0.069,0,0.125,0.055,0.126,0.124l0.074,5.803c0.001,0.069-0.055,0.125-0.123,0.126
	C161.504,127.572,161.503,127.572,161.502,127.572z"/>
<path fill="#A5918E" d="M158.627,134.952c-0.069,0-0.125-0.056-0.125-0.125v-5.709c0-0.069,0.056-0.125,0.125-0.125
	s0.125,0.056,0.125,0.125v5.709C158.752,134.896,158.696,134.952,158.627,134.952z"/>
<path fill="#A5918E" d="M152.564,87.775c-0.068,0-0.124-0.055-0.125-0.124l-0.074-5.953c-0.001-0.069,0.055-0.125,0.123-0.126
	c0,0,0.001,0,0.002,0c0.068,0,0.124,0.055,0.125,0.124l0.074,5.953c0.001,0.069-0.055,0.125-0.123,0.126
	C152.565,87.775,152.565,87.775,152.564,87.775z"/>
<path fill="#A5918E" d="M149.689,95.118c-0.069,0-0.125-0.056-0.125-0.125v-5.86c0-0.069,0.056-0.125,0.125-0.125
	s0.125,0.056,0.125,0.125v5.86C149.814,95.062,149.759,95.118,149.689,95.118z"/>
<path fill="#A5918E" d="M152.564,99.166c-0.068,0-0.124-0.055-0.125-0.124l-0.074-5.801c-0.001-0.069,0.055-0.125,0.123-0.126
	c0,0,0.001,0,0.002,0c0.068,0,0.124,0.055,0.125,0.124l0.074,5.801c0.001,0.069-0.055,0.125-0.123,0.126
	C152.565,99.166,152.565,99.166,152.564,99.166z"/>
<path fill="#A5918E" d="M149.689,106.32c-0.069,0-0.125-0.056-0.125-0.125v-5.709c0-0.069,0.056-0.125,0.125-0.125
	s0.125,0.056,0.125,0.125v5.709C149.814,106.264,149.759,106.32,149.689,106.32z"/>
<path fill="#A5918E" d="M152.564,110.111c-0.068,0-0.124-0.055-0.125-0.123l-0.074-5.407c-0.001-0.069,0.055-0.126,0.123-0.127
	c0,0,0.001,0,0.002,0c0.068,0,0.124,0.055,0.125,0.123l0.074,5.407c0.001,0.069-0.055,0.126-0.123,0.127
	C152.565,110.111,152.565,110.111,152.564,110.111z"/>
<path fill="#A5918E" d="M149.684,117.254c-0.069,0-0.125-0.056-0.125-0.125v-5.396c0-0.069,0.056-0.125,0.125-0.125
	s0.125,0.056,0.125,0.125v5.396C149.809,117.198,149.753,117.254,149.684,117.254z"/>
<path fill="#A5918E" d="M152.564,121.297c-0.068,0-0.124-0.055-0.125-0.124l-0.074-5.591c-0.001-0.069,0.055-0.125,0.123-0.126
	c0,0,0.001,0,0.002,0c0.068,0,0.124,0.055,0.125,0.124l0.074,5.591c0.001,0.069-0.055,0.125-0.123,0.126
	C152.565,121.297,152.565,121.297,152.564,121.297z"/>
<path fill="#A5918E" d="M149.689,128.676c-0.069,0-0.125-0.056-0.125-0.125v-5.708c0-0.069,0.056-0.125,0.125-0.125
	s0.125,0.056,0.125,0.125v5.708C149.814,128.62,149.759,128.676,149.689,128.676z"/>
<path fill="#A5918E" d="M152.564,132.74c-0.068,0-0.124-0.055-0.125-0.124l-0.074-5.801c-0.001-0.069,0.055-0.125,0.123-0.126
	c0,0,0.001,0,0.002,0c0.068,0,0.124,0.055,0.125,0.124l0.074,5.801c0.001,0.069-0.055,0.125-0.123,0.126
	C152.565,132.74,152.565,132.74,152.564,132.74z"/>
<path fill="#A5918E" d="M149.689,140.121c-0.069,0-0.125-0.056-0.125-0.125v-5.709c0-0.069,0.056-0.125,0.125-0.125
	s0.125,0.056,0.125,0.125v5.709C149.814,140.065,149.759,140.121,149.689,140.121z"/>
<path fill="#A5918E" d="M143.584,92.932c-0.068,0-0.124-0.055-0.125-0.124l-0.074-5.953c-0.001-0.07,0.063-0.138,0.125-0.126
	c0.068,0,0.124,0.055,0.125,0.124l0.074,5.953C143.71,92.875,143.656,92.923,143.584,92.932z"/>
<path fill="#A5918E" d="M140.707,100.272c-0.069,0-0.125-0.056-0.125-0.125v-5.859c0-0.069,0.056-0.125,0.125-0.125
	s0.125,0.056,0.125,0.125v5.859C140.832,100.216,140.776,100.272,140.707,100.272z"/>
<path fill="#A5918E" d="M143.584,104.321c-0.068,0-0.124-0.055-0.125-0.124l-0.074-5.802c-0.001-0.07,0.063-0.132,0.125-0.126
	c0.068,0,0.124,0.055,0.125,0.124l0.074,5.802c0.001,0.069-0.055,0.125-0.123,0.126H143.584z"/>
<path fill="#A5918E" d="M140.707,111.477c-0.069,0-0.125-0.056-0.125-0.125v-5.711c0-0.069,0.056-0.125,0.125-0.125
	s0.125,0.056,0.125,0.125v5.711C140.832,111.42,140.776,111.477,140.707,111.477z"/>
<path fill="#A5918E" d="M143.584,115.266c-0.068,0-0.124-0.055-0.125-0.123l-0.074-5.407c-0.001-0.071,0.063-0.133,0.125-0.127
	c0.068,0,0.124,0.055,0.125,0.123l0.074,5.407C143.71,115.208,143.656,115.254,143.584,115.266z"/>
<path fill="#A5918E" d="M140.703,122.408c-0.069,0-0.125-0.056-0.125-0.125v-5.396c0-0.069,0.056-0.125,0.125-0.125
	s0.125,0.056,0.125,0.125v5.396C140.828,122.352,140.772,122.408,140.703,122.408z"/>
<path fill="#A5918E" d="M143.584,126.451c-0.068,0-0.124-0.055-0.125-0.124l-0.074-5.59c-0.001-0.069,0.055-0.125,0.123-0.126
	c0.072,0,0.126,0.054,0.127,0.124l0.074,5.59C143.71,126.395,143.656,126.454,143.584,126.451z"/>
<path fill="#A5918E" d="M140.707,133.832c-0.069,0-0.125-0.056-0.125-0.125v-5.711c0-0.069,0.056-0.125,0.125-0.125
	s0.125,0.056,0.125,0.125v5.711C140.832,133.776,140.776,133.832,140.707,133.832z"/>
<path fill="#A5918E" d="M143.584,137.896c-0.068,0-0.124-0.055-0.125-0.124l-0.074-5.803c-0.001-0.069,0.055-0.125,0.123-0.126
	c0.072,0,0.126,0.054,0.127,0.124l0.074,5.803C143.71,137.84,143.656,137.897,143.584,137.896z"/>
<path fill="#A5918E" d="M140.707,145.275c-0.069,0-0.125-0.056-0.125-0.125v-5.709c0-0.069,0.056-0.125,0.125-0.125
	s0.125,0.056,0.125,0.125v5.709C140.832,145.219,140.776,145.275,140.707,145.275z"/>
<path fill="#A5918E" d="M134.789,98.1c-0.068,0-0.124-0.055-0.125-0.124l-0.074-5.953c-0.001-0.07,0.051-0.14,0.125-0.126
	c0.068,0,0.124,0.055,0.125,0.124l0.074,5.953C134.915,98.042,134.849,98.09,134.789,98.1z"/>
<path fill="#A5918E" d="M131.914,105.441c-0.069,0-0.125-0.056-0.125-0.125v-5.859c0-0.069,0.056-0.125,0.125-0.125
	s0.125,0.056,0.125,0.125v5.859C132.039,105.385,131.983,105.441,131.914,105.441z"/>
<path fill="#A5918E" d="M134.789,109.49c-0.068,0-0.124-0.055-0.125-0.124l-0.074-5.801c-0.001-0.07,0.051-0.136,0.125-0.126
	c0.068,0,0.124,0.055,0.125,0.124l0.074,5.801c0.001,0.069-0.055,0.125-0.123,0.126C134.791,109.49,134.79,109.49,134.789,109.49z"
	/>
<path fill="#A5918E" d="M131.914,116.645c-0.069,0-0.125-0.056-0.125-0.125v-5.709c0-0.069,0.056-0.125,0.125-0.125
	s0.125,0.056,0.125,0.125v5.709C132.039,116.588,131.983,116.645,131.914,116.645z"/>
<path fill="#A5918E" d="M134.789,120.436c-0.068,0-0.124-0.055-0.125-0.123l-0.074-5.407c-0.001-0.07,0.051-0.137,0.125-0.127
	c0.068,0,0.124,0.055,0.125,0.123l0.074,5.407c0.001,0.069-0.055,0.126-0.123,0.127C134.791,120.436,134.79,120.436,134.789,120.436
	z"/>
<path fill="#A5918E" d="M131.908,127.578c-0.069,0-0.125-0.056-0.125-0.125v-5.396c0-0.069,0.056-0.125,0.125-0.125
	s0.125,0.056,0.125,0.125v5.396C132.033,127.522,131.978,127.578,131.908,127.578z"/>
<path fill="#A5918E" d="M134.789,131.621c-0.068,0-0.124-0.055-0.125-0.124l-0.074-5.591c-0.001-0.069,0.055-0.125,0.123-0.126
	c0.062-0.004,0.126,0.054,0.127,0.124l0.074,5.591C134.915,131.564,134.849,131.621,134.789,131.621z"/>
<path fill="#A5918E" d="M131.914,139.001c-0.069,0-0.125-0.056-0.125-0.125v-5.71c0-0.069,0.056-0.125,0.125-0.125
	s0.125,0.056,0.125,0.125v5.71C132.039,138.945,131.983,139.001,131.914,139.001z"/>
<path fill="#A5918E" d="M134.789,143.065c-0.068,0-0.124-0.055-0.125-0.124l-0.074-5.802c-0.001-0.069,0.055-0.125,0.123-0.126
	c0.062-0.005,0.126,0.054,0.127,0.124l0.074,5.802C134.915,143.009,134.849,143.063,134.789,143.065z"/>
<path fill="#A5918E" d="M131.914,150.445c-0.069,0-0.125-0.056-0.125-0.125v-5.708c0-0.069,0.056-0.125,0.125-0.125
	s0.125,0.056,0.125,0.125v5.708C132.039,150.389,131.983,150.445,131.914,150.445z"/>
<rect x="202.088" y="40.418" transform="matrix(0.4995 0.8663 -0.8663 0.4995 157.0135 -142.9393)" fill="#A5918E" width="0.25" height="47.998"/>
<rect x="202.088" y="51.681" transform="matrix(0.4995 0.8663 -0.8663 0.4995 166.7706 -137.3023)" fill="#A5918E" width="0.25" height="47.997"/>
<rect x="202.088" y="62.655" transform="matrix(0.5012 0.8653 -0.8653 0.5012 175.9083 -131.7252)" fill="#A5918E" width="0.249" height="48.132"/>
<rect x="202.126" y="74.103" transform="matrix(0.4995 0.8663 -0.8663 0.4995 186.1629 -126.1426)" fill="#A5918E" width="0.25" height="47.88"/>
<rect x="202.048" y="34.913" transform="matrix(0.4995 0.8663 -0.8663 0.4995 152.1429 -145.707)" fill="#A5918E" width="0.25" height="47.81"/>
<rect x="202.048" y="46.308" transform="matrix(0.4995 0.8663 -0.8663 0.4995 162.0142 -140.004)" fill="#A5918E" width="0.25" height="47.81"/>
<rect x="202.048" y="57.338" transform="matrix(0.4995 0.8663 -0.8663 0.4995 171.5703 -134.483)" fill="#A5918E" width="0.25" height="47.81"/>
<rect x="202.048" y="68.627" transform="matrix(0.4995 0.8663 -0.8663 0.4995 181.3502 -128.8328)" fill="#A5918E" width="0.25" height="47.81"/>
<rect x="202.048" y="80.043" transform="matrix(0.4995 0.8663 -0.8663 0.4995 191.2396 -123.1193)" fill="#A5918E" width="0.25" height="47.81"/>
<path fill="#A5918E" d="M216.881,50.478c-0.068,0-0.124-0.055-0.125-0.124l-0.074-5.952c-0.001-0.069,0.055-0.125,0.123-0.126h0.002
	c0.068,0,0.124,0.055,0.125,0.124l0.074,5.952c0.001,0.069-0.055,0.125-0.123,0.126C216.882,50.478,216.881,50.478,216.881,50.478z"
	/>
<path fill="#A5918E" d="M214.006,57.82c-0.069,0-0.125-0.056-0.125-0.125v-5.86c0-0.069,0.056-0.125,0.125-0.125
	s0.125,0.056,0.125,0.125v5.86C214.131,57.764,214.075,57.82,214.006,57.82z"/>
<path fill="#A5918E" d="M216.881,61.867c-0.068,0-0.124-0.055-0.125-0.124l-0.074-5.801c-0.001-0.07,0.069-0.122,0.125-0.126
	c0.068,0,0.124,0.055,0.125,0.124l0.074,5.801C217.006,61.81,216.959,61.855,216.881,61.867z"/>
<path fill="#A5918E" d="M214.006,69.021c-0.069,0-0.125-0.056-0.125-0.125v-5.709c0-0.069,0.056-0.125,0.125-0.125
	s0.125,0.056,0.125,0.125v5.709C214.131,68.965,214.075,69.021,214.006,69.021z"/>
<path fill="#A5918E" d="M216.881,72.812c-0.068,0-0.124-0.055-0.125-0.123l-0.074-5.408c-0.001-0.069,0.055-0.126,0.123-0.127
	c0.063-0.001,0.126,0.054,0.127,0.123l0.074,5.408C217.006,72.756,216.959,72.812,216.881,72.812z"/>
<path fill="#A5918E" d="M214,79.953c-0.069,0-0.125-0.056-0.125-0.125v-5.395c0-0.069,0.056-0.125,0.125-0.125
	s0.125,0.056,0.125,0.125v5.395C214.125,79.897,214.069,79.953,214,79.953z"/>
<path fill="#A5918E" d="M216.881,83.998c-0.068,0-0.124-0.055-0.125-0.124l-0.074-5.59c-0.001-0.07,0.069-0.133,0.125-0.126
	c0.068,0,0.124,0.055,0.125,0.124l0.074,5.59c0.001,0.069-0.055,0.125-0.123,0.126C216.882,83.998,216.882,83.998,216.881,83.998z"
	/>
<path fill="#A5918E" d="M214.006,91.378c-0.069,0-0.125-0.056-0.125-0.125v-5.709c0-0.069,0.056-0.125,0.125-0.125
	s0.125,0.056,0.125,0.125v5.709C214.131,91.322,214.075,91.378,214.006,91.378z"/>
<path fill="#A5918E" d="M216.881,95.442c-0.068,0-0.124-0.055-0.125-0.124l-0.074-5.8c-0.001-0.07,0.069-0.132,0.125-0.126
	c0.068,0,0.124,0.055,0.125,0.124l0.074,5.8c0.001,0.069-0.055,0.125-0.123,0.126C216.882,95.442,216.882,95.442,216.881,95.442z"/>
<path fill="#A5918E" d="M214.006,102.822c-0.069,0-0.125-0.056-0.125-0.125v-5.709c0-0.069,0.056-0.125,0.125-0.125
	s0.125,0.056,0.125,0.125v5.709C214.131,102.766,214.075,102.822,214.006,102.822z"/>
<path fill="#A5918E" d="M207.943,55.647c-0.068,0-0.124-0.055-0.125-0.124l-0.074-5.953c-0.001-0.07,0.061-0.129,0.125-0.126
	c0.068,0,0.124,0.055,0.125,0.124l0.074,5.953C208.069,55.591,208.013,55.648,207.943,55.647z"/>
<path fill="#A5918E" d="M205.066,62.988c-0.069,0-0.125-0.056-0.125-0.125v-5.859c0-0.069,0.056-0.125,0.125-0.125
	s0.125,0.056,0.125,0.125v5.859C205.191,62.932,205.136,62.988,205.066,62.988z"/>
<path fill="#A5918E" d="M207.943,67.037c-0.068,0-0.124-0.055-0.125-0.124l-0.074-5.801c-0.001-0.07,0.061-0.125,0.125-0.126
	c0.068,0,0.124,0.055,0.125,0.124l0.074,5.801c0.001,0.069-0.055,0.125-0.123,0.126C207.945,67.037,207.944,67.037,207.943,67.037z"
	/>
<path fill="#A5918E" d="M205.066,74.191c-0.069,0-0.125-0.056-0.125-0.125v-5.709c0-0.069,0.056-0.125,0.125-0.125
	s0.125,0.056,0.125,0.125v5.709C205.191,74.135,205.136,74.191,205.066,74.191z"/>
<path fill="#A5918E" d="M207.943,77.98c-0.068,0-0.124-0.055-0.125-0.123l-0.074-5.406c-0.001-0.071,0.061-0.125,0.125-0.127
	c0.068,0,0.124,0.055,0.125,0.123l0.074,5.406C208.069,77.924,208.013,77.979,207.943,77.98z"/>
<path fill="#A5918E" d="M205.061,85.124c-0.069,0-0.125-0.056-0.125-0.125v-5.396c0-0.069,0.056-0.125,0.125-0.125
	s0.125,0.056,0.125,0.125v5.396C205.186,85.068,205.13,85.124,205.061,85.124z"/>
<path fill="#A5918E" d="M207.943,89.167c-0.068,0-0.124-0.055-0.125-0.124l-0.074-5.589c-0.001-0.07,0.061-0.136,0.125-0.126
	c0.068,0,0.124,0.055,0.125,0.124l0.074,5.589c0.001,0.069-0.055,0.125-0.123,0.126C207.945,89.167,207.944,89.167,207.943,89.167z"
	/>
<path fill="#A5918E" d="M205.066,96.547c-0.069,0-0.125-0.056-0.125-0.125v-5.709c0-0.069,0.056-0.125,0.125-0.125
	s0.125,0.056,0.125,0.125v5.709C205.191,96.491,205.136,96.547,205.066,96.547z"/>
<path fill="#A5918E" d="M207.943,100.611c-0.068,0-0.124-0.055-0.125-0.124l-0.074-5.802c-0.001-0.07,0.061-0.133,0.125-0.126
	c0.068,0,0.124,0.055,0.125,0.124l0.074,5.802c0.001,0.069-0.055,0.125-0.123,0.126
	C207.945,100.611,207.944,100.611,207.943,100.611z"/>
<path fill="#A5918E" d="M205.066,107.992c-0.069,0-0.125-0.056-0.125-0.125v-5.709c0-0.069,0.056-0.125,0.125-0.125
	s0.125,0.056,0.125,0.125v5.709C205.191,107.936,205.136,107.992,205.066,107.992z"/>
<path fill="#A5918E" d="M198.963,60.803c-0.068,0-0.124-0.055-0.125-0.124l-0.076-5.954c-0.001-0.069,0.055-0.125,0.123-0.126
	c0,0,0.001,0,0.002,0c0.068,0,0.124,0.055,0.125,0.124l0.076,5.954c0.001,0.069-0.055,0.125-0.123,0.126
	C198.964,60.803,198.964,60.803,198.963,60.803z"/>
<path fill="#A5918E" d="M196.086,68.145c-0.069,0-0.125-0.056-0.125-0.125V62.16c0-0.069,0.056-0.125,0.125-0.125
	s0.125,0.056,0.125,0.125v5.859C196.211,68.088,196.155,68.145,196.086,68.145z"/>
<path fill="#A5918E" d="M198.963,72.193c-0.068,0-0.124-0.055-0.125-0.124l-0.076-5.803c-0.001-0.069,0.055-0.125,0.123-0.126
	c0,0,0.001,0,0.002,0c0.068,0,0.124,0.055,0.125,0.124l0.076,5.803c0.001,0.069-0.055,0.125-0.123,0.126
	C198.964,72.193,198.964,72.193,198.963,72.193z"/>
<path fill="#A5918E" d="M196.086,79.347c-0.069,0-0.125-0.056-0.125-0.125v-5.709c0-0.069,0.056-0.125,0.125-0.125
	s0.125,0.056,0.125,0.125v5.709C196.211,79.291,196.155,79.347,196.086,79.347z"/>
<path fill="#A5918E" d="M198.963,83.139c-0.068,0-0.124-0.055-0.125-0.123l-0.076-5.408c-0.001-0.069,0.055-0.126,0.123-0.127
	c0,0,0.001,0,0.002,0c0.068,0,0.124,0.055,0.125,0.123l0.076,5.408c0.001,0.069-0.055,0.126-0.123,0.127
	C198.964,83.139,198.964,83.139,198.963,83.139z"/>
<path fill="#A5918E" d="M196.08,90.279c-0.069,0-0.125-0.056-0.125-0.125v-5.396c0-0.069,0.056-0.125,0.125-0.125
	s0.125,0.056,0.125,0.125v5.396C196.205,90.223,196.149,90.279,196.08,90.279z"/>
<path fill="#A5918E" d="M198.963,94.322c-0.068,0-0.124-0.055-0.125-0.124l-0.076-5.59c-0.001-0.069,0.055-0.125,0.123-0.126
	c0,0,0.001,0,0.002,0c0.068,0,0.124,0.055,0.125,0.124l0.076,5.59c0.001,0.069-0.055,0.125-0.123,0.126
	C198.964,94.322,198.964,94.322,198.963,94.322z"/>
<path fill="#A5918E" d="M196.086,101.703c-0.069,0-0.125-0.056-0.125-0.125v-5.709c0-0.069,0.056-0.125,0.125-0.125
	s0.125,0.056,0.125,0.125v5.709C196.211,101.647,196.155,101.703,196.086,101.703z"/>
<path fill="#A5918E" d="M198.963,105.768c-0.068,0-0.124-0.055-0.125-0.124l-0.076-5.803c-0.001-0.069,0.055-0.125,0.123-0.126
	c0,0,0.001,0,0.002,0c0.068,0,0.124,0.055,0.125,0.124l0.076,5.803c0.001,0.069-0.055,0.125-0.123,0.126
	C198.964,105.768,198.964,105.768,198.963,105.768z"/>
<path fill="#A5918E" d="M196.086,113.147c-0.069,0-0.125-0.056-0.125-0.125v-5.709c0-0.069,0.056-0.125,0.125-0.125
	s0.125,0.056,0.125,0.125v5.709C196.211,113.091,196.155,113.147,196.086,113.147z"/>
<path fill="#A5918E" d="M190.168,65.972c-0.068,0-0.124-0.055-0.125-0.124l-0.074-5.954c-0.001-0.069,0.055-0.125,0.123-0.126
	c0.082,0.001,0.126,0.054,0.127,0.124l0.074,5.954c0.001,0.069-0.055,0.125-0.123,0.126H190.168z"/>
<path fill="#A5918E" d="M187.293,73.314c-0.069,0-0.125-0.056-0.125-0.125v-5.86c0-0.069,0.056-0.125,0.125-0.125
	s0.125,0.056,0.125,0.125v5.86C187.418,73.258,187.362,73.314,187.293,73.314z"/>
<path fill="#A5918E" d="M187.293,84.516c-0.069,0-0.125-0.056-0.125-0.125v-5.709c0-0.069,0.056-0.125,0.125-0.125
	s0.125,0.056,0.125,0.125v5.709C187.418,84.459,187.362,84.516,187.293,84.516z"/>
<path fill="#A5918E" d="M190.168,88.307c-0.068,0-0.124-0.055-0.125-0.123l-0.074-5.408c-0.001-0.069,0.055-0.126,0.123-0.127
	c0.082,0.001,0.126,0.054,0.127,0.123l0.074,5.408c0.001,0.069-0.055,0.126-0.123,0.127H190.168z"/>
<path fill="#A5918E" d="M187.287,95.449c-0.069,0-0.125-0.056-0.125-0.125V89.93c0-0.069,0.056-0.125,0.125-0.125
	s0.125,0.056,0.125,0.125v5.395C187.412,95.393,187.356,95.449,187.287,95.449z"/>
<path fill="#A5918E" d="M190.168,99.492c-0.068,0-0.124-0.055-0.125-0.124l-0.074-5.59c-0.001-0.069,0.055-0.125,0.123-0.126
	c0.001,0,0.001,0,0.001,0c0.069,0,0.125,0.055,0.126,0.124l0.074,5.59c0.001,0.069-0.055,0.125-0.123,0.126H190.168z"/>
<path fill="#A5918E" d="M187.293,106.873c-0.069,0-0.125-0.056-0.125-0.125v-5.711c0-0.069,0.056-0.125,0.125-0.125
	s0.125,0.056,0.125,0.125v5.711C187.418,106.817,187.362,106.873,187.293,106.873z"/>
<path fill="#A5918E" d="M190.168,110.938c-0.068,0-0.124-0.055-0.125-0.124l-0.074-5.803c-0.001-0.069,0.055-0.125,0.123-0.126
	c0.001,0,0.001,0,0.001,0c0.069,0,0.125,0.055,0.126,0.124l0.074,5.803c0.001,0.069-0.055,0.125-0.123,0.126H190.168z"/>
<path fill="#A5918E" d="M187.293,118.316c-0.069,0-0.125-0.056-0.125-0.125v-5.709c0-0.069,0.056-0.125,0.125-0.125
	s0.125,0.056,0.125,0.125v5.709C187.418,118.26,187.362,118.316,187.293,118.316z"/>
<polygon fill="#ABA48B" points="189.812,105.601 189.811,71.615 188.145,72.584 188.146,105.601 133.525,137.409 133.523,138.373 
	"/>
<polygon fill="#E1E1DE" points="188.145,72.584 133.6,104.508 133.525,137.409 188.146,105.601 "/>
<polygon fill="#B8A6A0" points="63.611,64.203 125.051,99.627 227.188,40.571 165.828,5.145 "/>
<polygon fill="#E0DECE" points="63.611,59.059 125.051,94.483 227.188,35.428 165.828,0 "/>
<polygon fill="#655756" points="227.188,35.428 227.188,40.571 125.051,99.627 125.051,94.483 "/>
<polygon fill="#877B78" points="63.611,59.059 63.611,64.203 125.051,99.627 125.051,94.483 "/>
<polygon fill="#D3C8C5" points="215.75,67.927 215.75,100.761 195.59,112.568 195.59,113.137 216.203,101.062 216.203,67.662 "/>
<polygon fill="#ABA48B" points="215.75,67.927 195.59,79.735 195.59,112.568 215.75,100.761 "/>
<polygon fill="#ABA48B" points="215.264,68.375 195.59,79.961 195.59,112.091 215.264,100.504 "/>
<polygon fill="#E9E3C8" points="205.428,74.469 195.59,80.152 195.59,111.967 205.428,106.281 "/>
<polygon fill="#E9E3C8" points="215.264,68.758 205.896,74.166 205.896,105.979 215.264,100.57 "/>
<path fill="#241C1D" d="M204.234,93.848c-0.062,0-0.123-0.015-0.179-0.045c-0.121-0.065-0.196-0.192-0.196-0.33v-2.356
	c0-0.131,0.068-0.252,0.18-0.32l1.193-0.728l0.391,0.641l-1.014,0.618v1.455l0.614-0.399l0.408,0.629l-1.193,0.776
	C204.377,93.827,204.306,93.848,204.234,93.848z"/>
<path fill="#241C1D" d="M206.063,93.006l-0.334-0.671l0.901-0.45v-1.494l-0.556,0.301l-0.357-0.659l1.109-0.602
	c0.115-0.063,0.257-0.061,0.37,0.007c0.114,0.068,0.184,0.19,0.184,0.322v2.355c0,0.142-0.08,0.272-0.208,0.335L206.063,93.006z"/>
<polygon fill="#87802A" points="205.744,70.259 204.83,70.073 204.234,72.193 204.703,72.688 "/>
<circle fill="#FEF372" cx="206.574" cy="72.051" r="1.977"/>
<path fill="#DF443E" d="M199.471,98.797c-0.525,0.909-0.213,1.646,0.695,1.646s2.07-0.737,2.596-1.646s0.213-1.646-0.695-1.646
	C201.156,97.15,199.996,97.888,199.471,98.797z"/>
<path fill="#FFFBE1" d="M195.543,100.871c-0.525,0.908-0.215,1.646,0.695,1.646c0.908,0,2.07-0.738,2.594-1.646
	c0.525-0.908,0.215-1.646-0.693-1.646C197.229,99.226,196.066,99.963,195.543,100.871z"/>
<path fill="#DF443E" d="M191.746,103.135c-0.523,0.91-0.213,1.646,0.695,1.646c0.91,0,2.072-0.736,2.596-1.646
	c0.525-0.908,0.215-1.645-0.695-1.645C193.434,101.49,192.271,102.227,191.746,103.135z"/>
<path fill="#FFFBE1" d="M187.945,105.245c-0.525,0.909-0.213,1.646,0.695,1.646s2.07-0.736,2.596-1.646
	c0.525-0.908,0.213-1.646-0.695-1.646C189.631,103.6,188.471,104.337,187.945,105.245z"/>
<path fill="#DF443E" d="M184.145,107.543c-0.525,0.91-0.215,1.646,0.693,1.646c0.91,0,2.072-0.736,2.598-1.646
	c0.523-0.907,0.213-1.644-0.695-1.644C185.83,105.899,184.67,106.636,184.145,107.543z"/>
<path fill="#FFFBE1" d="M180.342,110.066c-0.523,0.908-0.211,1.645,0.697,1.645s2.07-0.736,2.596-1.645
	c0.523-0.908,0.213-1.645-0.695-1.645C182.029,108.422,180.867,109.158,180.342,110.066z"/>
<path fill="#DF443E" d="M176.414,112.141c-0.525,0.908-0.213,1.646,0.695,1.646s2.07-0.737,2.596-1.646s0.213-1.645-0.695-1.645
	S176.939,111.232,176.414,112.141z"/>
<path fill="#FFFBE1" d="M172.619,114.405c-0.525,0.908-0.213,1.645,0.695,1.645s2.072-0.736,2.596-1.645
	c0.523-0.909,0.213-1.646-0.695-1.646S173.145,113.496,172.619,114.405z"/>
<path fill="#DF443E" d="M168.818,116.514c-0.525,0.91-0.215,1.646,0.693,1.646s2.07-0.736,2.596-1.646
	c0.525-0.907,0.213-1.645-0.695-1.645S169.342,115.606,168.818,116.514z"/>
<path fill="#FFFBE1" d="M165.016,118.814c-0.525,0.908-0.213,1.645,0.695,1.645c0.91,0,2.07-0.736,2.596-1.645
	c0.525-0.91,0.213-1.646-0.695-1.646S165.541,117.904,165.016,118.814z"/>
<path fill="#DF443E" d="M161.215,121.018c-0.523,0.906-0.213,1.645,0.695,1.645c0.91,0,2.07-0.738,2.596-1.645
	c0.525-0.91,0.213-1.647-0.695-1.647C162.9,119.37,161.74,120.107,161.215,121.018z"/>
<path fill="#FFFBE1" d="M157.285,123.091c-0.523,0.909-0.213,1.646,0.695,1.646c0.91,0,2.072-0.737,2.598-1.646
	c0.523-0.908,0.213-1.646-0.695-1.646C158.973,121.445,157.811,122.183,157.285,123.091z"/>
<path fill="#DF443E" d="M153.492,125.355c-0.527,0.908-0.215,1.645,0.695,1.645c0.906,0,2.07-0.736,2.596-1.645
	c0.523-0.91,0.211-1.646-0.697-1.646S154.018,124.445,153.492,125.355z"/>
<path fill="#FFFBE1" d="M149.689,127.466c-0.525,0.909-0.213,1.646,0.695,1.646s2.07-0.737,2.596-1.646
	c0.523-0.909,0.213-1.646-0.695-1.646C151.375,125.819,150.213,126.557,149.689,127.466z"/>
<path fill="#DF443E" d="M145.887,129.764c-0.523,0.908-0.211,1.645,0.697,1.645s2.07-0.736,2.596-1.645s0.213-1.645-0.697-1.645
	C147.574,128.119,146.412,128.855,145.887,129.764z"/>
<polygon fill="#DF443E" points="199.252,99.844 203.018,97.975 203.018,93.255 199.252,93.255 "/>
<polygon fill="#FFFBE1" points="195.305,101.689 199.07,99.822 199.07,95.102 195.305,95.102 "/>
<polygon fill="#DF443E" points="191.51,104.321 195.275,102.453 195.275,97.732 191.51,97.732 "/>
<polygon fill="#FFFBE1" points="187.709,106.43 191.473,104.562 191.473,99.843 187.709,99.843 "/>
<polygon fill="#DF443E" points="183.906,108.611 187.672,106.745 187.672,102.023 183.906,102.023 "/>
<polygon fill="#FFFBE1" points="180.105,110.838 183.871,108.971 183.871,104.251 180.105,104.251 "/>
<polygon fill="#DF443E" points="176.176,113.253 179.941,111.386 179.941,106.666 176.176,106.666 "/>
<polygon fill="#FFFBE1" points="172.383,115.386 176.148,113.519 176.148,108.799 172.383,108.799 "/>
<polygon fill="#DF443E" points="168.58,117.445 172.346,115.578 172.346,110.857 168.58,110.857 "/>
<polygon fill="#FFFBE1" points="164.779,119.861 168.543,117.995 168.543,113.273 164.779,113.273 "/>
<polygon fill="#DF443E" points="160.977,122.108 164.742,120.24 164.742,115.52 160.977,115.52 "/>
<polygon fill="#FFFBE1" points="157.049,123.821 160.814,121.955 160.814,117.234 157.049,117.234 "/>
<polygon fill="#DF443E" points="153.254,126.387 157.02,124.518 157.02,119.797 153.254,119.797 "/>
<polygon fill="#FFFBE1" points="149.451,128.232 153.217,126.365 153.217,121.645 149.451,121.645 "/>
<polygon fill="#DF443E" points="145.65,130.741 149.416,128.875 149.416,124.151 145.65,124.151 "/>
<polygon fill="#DF443E" points="174.281,80.344 187.818,102.077 184.018,104.283 170.49,82.562 "/>
<polygon fill="#FFFBE1" points="162.703,87.123 176.213,108.814 172.33,111.068 158.83,89.391 "/>
<polygon fill="#FFFBE1" points="177.984,78.175 191.529,99.924 187.818,102.077 174.281,80.344 "/>
<polygon fill="#FFFBE1" points="170.49,82.562 184.018,104.283 179.918,106.664 166.398,84.959 "/>
<polygon fill="#DF443E" points="181.789,75.948 195.342,97.711 191.529,99.924 177.984,78.175 "/>
<polygon fill="#DF443E" points="189.266,71.57 203.018,93.255 199.109,95.523 185.549,73.748 "/>
<polygon fill="#FFFBE1" points="185.549,73.748 199.109,95.523 195.342,97.711 181.789,75.948 "/>
<polygon fill="#DF443E" points="166.398,84.959 179.918,106.664 176.213,108.814 162.703,87.123 "/>
<polygon fill="#FFFBE1" points="139.809,100.525 153.268,122.135 149.377,124.394 135.926,102.798 "/>
<polygon fill="#DF443E" points="132.771,104.644 135.926,102.798 149.377,124.394 145.561,126.607 "/>
<polygon fill="#DF443E" points="143.637,98.283 157.105,119.906 153.268,122.135 139.809,100.525 "/>
<polygon fill="#FFFBE1" points="147.309,96.134 160.785,117.77 157.105,119.906 143.637,98.283 "/>
<polygon fill="#DF443E" points="158.83,89.391 172.33,111.068 168.596,113.236 155.102,91.572 "/>
<polygon fill="#FFFBE1" points="155.102,91.572 168.596,113.236 164.717,115.488 151.23,93.838 "/>
<polygon fill="#DF443E" points="151.23,93.838 164.717,115.488 160.785,117.77 147.309,96.134 "/>
<polygon fill="#DF443E" points="195.275,62.646 215.264,51.226 215.264,63.449 195.275,74.869 "/>
<polygon fill="#BA3732" points="212.627,53.801 213.818,53.12 213.818,63.387 197.035,72.975 197.035,72.109 212.627,63.203 "/>
<polygon fill="#FFFBE1" points="212.627,53.801 212.627,63.203 197.035,72.109 197.035,62.709 "/>
<polygon fill="#FFFFFF" points="37.592,139.619 69.377,157.971 66.625,159.56 34.838,141.208 "/>
<polygon fill="#FFFFFF" points="7.311,157.103 39.098,175.453 36.346,177.043 4.559,158.691 "/>
<polygon fill="#FFFFFF" points="67.871,122.138 99.658,140.49 96.904,142.078 65.119,123.727 "/>
</svg>
