<?xml version="1.0" encoding="utf-8"?>
<!-- Generator: Adobe Illustrator 15.1.0, SVG Export Plug-In  -->
<!DOCTYPE svg PUBLIC "-//W3C//DTD SVG 1.1//EN" "http://www.w3.org/Graphics/SVG/1.1/DTD/svg11.dtd" [
	<!ENTITY ns_flows "http://ns.adobe.com/Flows/1.0/">
]>
<svg version="1.1"
	 xmlns="http://www.w3.org/2000/svg" xmlns:xlink="http://www.w3.org/1999/xlink" xmlns:a="http://ns.adobe.com/AdobeSVGViewerExtensions/3.0/"
	 x="0px" y="0px" width="368px" height="305px" viewBox="-0.242 -0.415 368 305"
	 overflow="visible" enable-background="new -0.242 -0.415 368 305" xml:space="preserve">
<defs>
</defs>
<path fill="#2D2221" d="M245.211,266.853l-0.002-0.002l29.273-1.737l0.006,0.003L245.211,266.853 M241.396,262.21l-0.004-0.002
	l23.158-1.375l-0.006,0.004L241.396,262.21 M187.977,259.563l45.195-2.696l-0.307,0.021L187.977,259.563 M240.629,261.278
	l-0.002-0.002l25.367-1.504l-0.002,0.001L240.629,261.278 M239.1,259.419l-0.004-0.004l29.785-1.768l-0.008,0.006L239.1,259.419
	 M238.332,258.485v-0.003l31.996-1.899l-0.006,0.004L238.332,258.485 M261.896,256.1l9.887-0.587l-0.002,0.001L261.896,256.1
	 M288.016,169.54l-135.771,8.121l-1.52,1.118l-2.285,1.683l-52.568,38.676l-8.758,6.443l92.107,40.425l44.887-2.675l0.039-0.029
	l16.783,7.143l3.932-0.273l1.916-1.41l-0.807-0.979l30.527-1.812l4.791,2.039l3.928-0.272l1.918-1.411l-5.332-6.486l31.514-1.879
	l8.689-6.393l0.33-0.02l-12.588-5.52l12.869-9.469l0.727-0.043l1.354-0.995l-0.273,0.02l1.65-1.214l-0.266-0.115l35.939-26.441
	l2.213-0.133l2.357-1.734l1.439-1.059L288.016,169.54"/>
<polygon fill="#706E65" points="255.672,215.456 138.988,283.35 120.002,272.347 236.686,204.452 "/>
<polygon fill="#E9E3C8" points="120.002,272.347 236.686,204.452 236.686,72.809 120.002,140.7 "/>
<polygon fill="#F9F9EC" points="120.098,272.554 0.004,202.71 0.004,70.858 120.098,140.7 "/>
<polygon fill="#FAF9F1" points="120.723,142.704 0.004,72.278 0,68.663 123.852,140.892 "/>
<polygon fill="#D4D4BE" points="120.723,148.368 0,77.712 0.004,72.278 120.723,142.704 "/>
<polygon fill="#EEF0E6" points="120.723,142.718 238.609,74.081 238.609,70.661 120.723,139.325 "/>
<polygon fill="#CCCBB6" points="120.723,148.38 238.609,79.688 238.609,74.081 120.723,142.718 "/>
<polygon fill="#E0E0E0" points="208.824,168.519 204.184,171.224 204.184,223.024 208.824,220.321 "/>
<polygon fill="#E0E0E0" points="164.588,194.068 159.947,196.769 159.947,248.571 164.588,245.866 "/>
<polygon fill="#E0E0E0" points="159.947,194.065 208.824,165.817 208.824,166.757 159.947,195.005 "/>
<polygon fill="#CECCCC" points="158.775,249.278 159.947,248.571 159.947,194.065 158.775,194.771 "/>
<polygon fill="#CECCCC" points="203.012,223.731 204.184,223.024 204.184,170.229 203.012,170.937 "/>
<polygon fill="#E0E0E0" points="157.311,196.56 210.051,166.048 210.051,167.724 157.311,198.231 "/>
<polygon fill="#CECCCC" points="156.422,198.836 157.311,198.231 157.311,196.56 156.422,197.162 "/>
<polygon fill="#B97E31" points="164.588,245.866 203.012,223.734 203.012,171.971 164.588,194.107 "/>
<polygon fill="#9D6926" points="183.801,234.747 184.656,234.197 184.656,182.544 183.801,183.092 "/>
<polygon fill="#DFA445" points="184.229,234.563 185.086,234.015 185.086,182.362 184.229,182.91 "/>
<path fill="#241C1D" d="M180.281,212.597c0.109,0.17,0.887-0.126,1.736-0.668c0.852-0.54,1.451-1.119,1.34-1.291
	c-0.109-0.173-0.887,0.127-1.736,0.666S180.172,212.424,180.281,212.597"/>
<path fill="#241C1D" d="M185.824,209.442c0.109,0.17,0.887-0.125,1.738-0.667c0.85-0.54,1.449-1.118,1.338-1.292
	c-0.109-0.174-0.889,0.128-1.736,0.665C186.314,208.688,185.713,209.269,185.824,209.442"/>
<polygon fill="#9D6926" points="187.982,200.563 198.393,194.52 198.393,224.188 187.982,230.235 "/>
<path fill="#A0946B" d="M197.609,193.011c0,0-0.619-7.973-5.498-4.426c-1.789,1.301-2.824,3.203-3.416,5.102
	c0.57-1.992,1.57-3.956,3.305-5.111c5.836-3.885,6.354,4.15,6.354,4.15l0.137,1.469l-0.732,0.422L197.609,193.011z"/>
<path fill="#A0946B" d="M187.969,200.276l-0.002,0.004v-0.004c0,0-0.002-0.031-0.004-0.096
	C187.967,200.243,187.969,200.276,187.969,200.276"/>
<path fill="#DADAD9" d="M187.932,199.46L187.932,199.46l0.016,0.293l-0.008,0.007c-0.004-0.091-0.006-0.197-0.008-0.312v0.006
	V199.46z"/>
<path fill="#DADAD9" d="M187.93,199.33v0.058c-0.02-1.197,0.059-3.441,0.766-5.701c-0.629,2.191-0.74,4.409-0.746,5.632
	L187.93,199.33z"/>
<path fill="#DADAD9" d="M187.953,199.899c0.002,0.121,0.008,0.216,0.01,0.28c-0.006-0.066-0.012-0.172-0.02-0.302l0.004,0.025
	L187.953,199.899z"/>
<path fill="#DADAD9" d="M187.953,199.899l0.02,0.377h-0.004c0,0-0.002-0.033-0.006-0.097
	C187.961,200.115,187.955,200.021,187.953,199.899"/>
<path fill="#DADAD9" d="M192.111,188.583c4.879-3.545,5.498,4.428,5.498,4.428l0.148,1.607l-0.428,0.243l-0.109-0.823l-0.061,0.035
	c-0.002-0.02-0.006-0.072-0.014-0.155c-0.047-0.534-0.248-2.289-0.881-3.686l0.1-0.19l-0.273-0.402l-0.064,0.123
	c-0.738-1.303-1.943-2.055-3.902-0.665l-0.031-0.352l-0.443,0.315l0.037,0.373c-0.006,0.007-0.01,0.01-0.014,0.012l-0.049,0.04
	l0.006,0.058c-1.441,1.228-2.324,2.854-2.863,4.483l-0.088-0.06l-0.172,0.725l0.029,0.02l-0.016,0.105l0.008,0.005
	c-0.471,1.759-0.572,3.431-0.578,4.495l-0.002,0.001c0.006-1.225,0.117-3.442,0.746-5.632
	C189.287,191.788,190.322,189.884,192.111,188.583"/>
<path fill="#B0DFF8" d="M196.223,190.472c0.582,1.352,0.775,3.006,0.82,3.521c0.004,0.04,0.006,0.069,0.01,0.095l-3.912,2.25
	L196.223,190.472z"/>
<path fill="#B0DFF8" d="M187.951,199.318c0.006-1.065,0.107-2.737,0.578-4.497l3.355,2.237L187.951,199.318z"/>
<path fill="#B0DFF8" d="M188.768,194.025c0.539-1.628,1.424-3.257,2.863-4.481l0.621,6.743L188.768,194.025z"/>
<path fill="#B0DFF8" d="M192.758,195.987l0.074-0.158l-0.609-6.65c1.867-1.279,3.014-0.535,3.727,0.732l-3.189,6.093
	L192.758,195.987z"/>
<polygon fill="#F0F0F2" points="187.93,199.388 187.93,199.33 187.949,199.319 187.949,199.374 "/>
<rect x="187.949" y="199.319" fill="#F0F0F2" width="0.002" height="0.056"/>
<path fill="#F0F0F2" d="M192.977,196.476l0.125-0.071l0.039-0.067l3.912-2.25c0,0.023,0.002,0.035,0.002,0.049l-4.082,2.35
	L192.977,196.476z"/>
<polygon fill="#F0F0F2" points="191.928,197.084 187.951,199.378 187.951,199.318 191.885,197.059 "/>
<path fill="#DADAD9" d="M187.926,199.388h0.004c0,0.021,0,0.041,0.002,0.061L187.926,199.388z"/>
<path fill="#DADAD9" d="M187.932,199.454v-0.006c-0.002-0.02-0.002-0.039-0.002-0.061L187.932,199.454z"/>
<path fill="#DADAD9" d="M187.951,199.753h-0.004l-0.016-0.293l0.016-0.01C187.947,199.562,187.949,199.66,187.951,199.753"/>
<path fill="#DADAD9" d="M187.977,200.276h-0.004l-0.02-0.377l0.006-0.004C187.963,200.052,187.967,200.181,187.977,200.276"/>
<path fill="#DADAD9" d="M187.955,199.749l-0.004,0.004c-0.002-0.093-0.004-0.19-0.004-0.303l0.004-0.002
	C187.951,199.558,187.953,199.659,187.955,199.749"/>
<polygon fill="#DADAD9" points="197.16,194.084 197.16,194.072 197.221,194.036 197.33,194.864 197.236,194.919 "/>
<polygon fill="#DADAD9" points="192.83,196.755 192.912,196.599 197.061,194.211 197.092,194.526 192.846,196.954 "/>
<polygon fill="#DADAD9" points="193.043,197.079 192.869,197.206 192.859,197.093 197.104,194.669 197.133,194.978 193.066,197.331 
	"/>
<path fill="#DADAD9" d="M192.43,197.521l-0.176,0.127l0.014,0.144l-4.291,2.485c-0.01-0.097-0.014-0.227-0.018-0.381l4.453-2.547
	L192.43,197.521z"/>
<path fill="#DADAD9" d="M192.141,197.04l0.143,0.089l0.088-0.223l0,0l0.029,0.305l-4.445,2.538c-0.002-0.09-0.004-0.191-0.004-0.301
	L192.141,197.04z"/>
<path fill="#DADAD9" d="M187.947,199.448l-0.016,0.012l-0.002-0.006v-0.066l0.02-0.013
	C187.949,199.399,187.947,199.425,187.947,199.448"/>
<path fill="#DADAD9" d="M187.947,199.448c0-0.023,0.002-0.049,0.002-0.073h0.002v0.071L187.947,199.448z"/>
<polygon fill="#DADAD9" points="192.098,197.009 192.141,197.04 187.951,199.446 187.951,199.375 191.928,197.087 191.934,197.091 
	"/>
<polygon fill="#DADAD9" points="192.973,196.485 197.055,194.134 197.055,194.157 197.062,194.211 192.914,196.599 "/>
<path fill="#DADAD9" d="M188.545,194.669l-0.008,0.043l-0.029-0.018l0.172-0.729l0.088,0.06c-0.07,0.22-0.141,0.438-0.201,0.659
	L188.545,194.669z"/>
<path fill="#DADAD9" d="M192.258,196.366l0.066,0.027l0.037,0.391l-0.322,0.185l-3.473-2.286c0.061-0.219,0.131-0.438,0.201-0.657
	l3.484,2.262L192.258,196.366z"/>
<polygon fill="#DADAD9" points="192.08,196.997 192.039,196.972 192.361,196.784 192.365,196.836 "/>
<polygon fill="#DADAD9" points="192.283,197.131 192.141,197.04 192.371,196.906 "/>
<polygon fill="#DADAD9" points="192.371,196.906 192.141,197.04 192.098,197.009 192.098,197.009 192.08,196.997 192.365,196.836 
	192.371,196.906 "/>
<path fill="#DADAD9" d="M192.809,196.527l-0.049-0.522l3.189-6.094c0.035,0.061,0.07,0.125,0.102,0.189
	c0.047,0.091,0.094,0.186,0.135,0.281l-3.188,6.033L192.809,196.527z"/>
<polygon fill="#DADAD9" points="192.809,196.527 192.998,196.415 192.959,196.484 192.977,196.476 192.973,196.484 192.812,196.573 
	"/>
<polygon fill="#DADAD9" points="192.914,196.599 192.83,196.755 192.818,196.65 "/>
<polygon fill="#DADAD9" points="192.812,196.573 192.973,196.487 192.914,196.599 192.818,196.652 "/>
<path fill="#A3A3A4" d="M188.529,194.822l-0.008-0.005l0.016-0.105l0.018,0.012C188.545,194.755,188.537,194.79,188.529,194.822"/>
<path fill="#A3A3A4" d="M192.035,196.969l-0.15,0.087l-3.355-2.231c0.008-0.034,0.016-0.069,0.025-0.101L192.035,196.969z"/>
<polygon fill="#A3A3A4" points="191.928,197.084 191.885,197.059 192.035,196.969 192.08,197.001 "/>
<polygon fill="#A3A3A4" points="192.098,197.009 191.934,197.091 191.928,197.087 192.08,196.995 "/>
<path fill="#A3A3A4" d="M188.566,194.683c-0.002,0.015-0.008,0.029-0.012,0.041l-0.018-0.012l0.008-0.043L188.566,194.683z"/>
<path fill="#A3A3A4" d="M188.555,194.724c0.004-0.014,0.01-0.026,0.012-0.039l3.473,2.287h-0.004L188.555,194.724z"/>
<rect x="192.034" y="196.982" transform="matrix(0.8706 0.4921 -0.4921 0.8706 121.7872 -69.0072)" fill="#A3A3A4" width="0.052" height="0.004"/>
<rect x="192.078" y="197.002" transform="matrix(0.7894 0.6139 -0.6139 0.7894 161.4106 -76.4331)" fill="#A3A3A4" width="0.022" height="0"/>
<path fill="#A3A3A4" d="M193.01,196.41l3.178-6.026c0.014,0.029,0.023,0.057,0.035,0.088l-3.082,5.863L193.01,196.41z"/>
<polygon fill="#A3A3A4" points="193.141,196.335 193.102,196.404 192.977,196.476 193.01,196.411 "/>
<polygon fill="#A3A3A4" points="193.01,196.41 192.996,196.417 196.186,190.382 196.188,190.384 "/>
<polygon fill="#A3A3A4" points="192.996,196.417 193.01,196.408 192.977,196.476 192.959,196.485 "/>
<polygon fill="#DADAD9" points="192.268,197.791 192.254,197.646 192.43,197.521 192.445,197.69 "/>
<polygon fill="#DADAD9" points="192.869,197.202 193.043,197.079 193.066,197.332 192.893,197.433 "/>
<path fill="#A3A3A4" d="M197.109,194.056l-0.016,0.008l-0.051-0.557c0,0-0.156-1.763-0.805-3.219l0.027-0.056
	c0.633,1.396,0.834,3.151,0.881,3.686c0.008,0.083,0.012,0.136,0.014,0.155l-0.051,0.031V194.056z"/>
<path fill="#A3A3A4" d="M192.318,196.334l-0.066-0.047l-0.621-6.743c0.02-0.018,0.039-0.039,0.061-0.056L192.318,196.334z"/>
<path fill="#A3A3A4" d="M197.043,193.992c-0.047-0.515-0.238-2.169-0.82-3.521l0.027-0.053l-0.037-0.085l0.025-0.048
	c0.648,1.458,0.805,3.221,0.805,3.221l0.051,0.557l-0.041,0.023C197.049,194.062,197.047,194.032,197.043,193.992"/>
<polygon fill="#A3A3A4" points="197.094,194.063 197.109,194.056 197.109,194.104 197.1,194.11 "/>
<path fill="#A3A3A4" d="M197.055,194.136c0-0.014-0.002-0.025-0.002-0.049l0.041-0.023l0.006,0.047L197.055,194.136z"/>
<polygon fill="#A3A3A4" points="197.236,194.919 197.178,194.952 197.148,194.644 197.15,194.644 197.146,194.493 197.135,194.501 
	197.105,194.187 197.109,194.183 197.109,194.104 197.16,194.074 197.16,194.084 "/>
<polygon fill="#A3A3A4" points="197.061,194.211 197.105,194.187 197.135,194.501 197.092,194.524 "/>
<polygon fill="#A3A3A4" points="197.104,194.669 197.148,194.644 197.178,194.95 197.133,194.978 "/>
<polygon fill="#A3A3A4" points="197.109,194.104 197.109,194.185 197.105,194.187 197.1,194.11 "/>
<polygon fill="#A3A3A4" points="197.055,194.157 197.055,194.136 197.1,194.11 197.104,194.187 197.061,194.209 "/>
<polygon fill="#A3A3A4" points="192.258,196.366 192.252,196.287 192.318,196.335 192.324,196.394 "/>
<path fill="#A3A3A4" d="M196.213,190.334l0.037,0.085l-0.027,0.053c-0.012-0.031-0.021-0.059-0.035-0.088L196.213,190.334z"/>
<path fill="#DADAD9" d="M192.758,195.987l0.002,0.017l-0.186,0.353l0.129,0.23l-0.264,0.15l0.104-0.258l-0.174-0.115l-0.629-6.824
	c0.127-0.105,0.252-0.196,0.371-0.285l0.006-0.003l0.621,6.772L192.758,195.987z"/>
<polygon fill="#DADAD9" points="192.727,196.626 192.412,196.81 192.439,196.737 192.703,196.589 "/>
<polygon fill="#DADAD9" points="192.684,197.194 192.859,197.093 192.869,197.202 192.697,197.331 "/>
<polygon fill="#DADAD9" points="192.578,197.255 192.523,197.285 192.537,197.443 192.43,197.521 192.412,197.349 "/>
<polygon fill="#DADAD9" points="192.814,196.782 192.83,196.755 192.846,196.954 192.4,197.211 192.371,196.909 192.76,196.685 "/>
<polygon fill="#DADAD9" points="192.76,196.685 192.371,196.905 192.41,196.811 192.727,196.626 "/>
<polygon fill="#DADAD9" points="192.369,196.364 192.543,196.479 192.439,196.737 192.361,196.784 192.324,196.394 192.373,196.415 
	"/>
<polygon fill="#DADAD9" points="192.41,196.808 192.365,196.836 192.361,196.786 192.439,196.737 "/>
<polygon fill="#DADAD9" points="192.365,196.836 192.41,196.811 192.371,196.909 "/>
<polygon fill="#DADAD9" points="192.574,196.356 192.758,196.005 192.809,196.527 192.703,196.589 "/>
<polygon fill="#DADAD9" points="192.727,196.626 192.703,196.589 192.809,196.527 192.812,196.573 "/>
<polygon fill="#DADAD9" points="192.76,196.685 192.818,196.652 192.83,196.755 192.814,196.782 "/>
<polygon fill="#DADAD9" points="192.818,196.651 192.76,196.685 192.727,196.626 192.812,196.573 "/>
<polygon fill="#DADAD9" points="192.553,197.625 192.445,197.69 192.43,197.521 192.537,197.443 "/>
<polygon fill="#DADAD9" points="192.717,197.534 192.697,197.327 192.869,197.202 192.893,197.433 "/>
<path fill="#DADAD9" d="M192.111,189.178l0.006,0.074l-0.006,0.003c-0.119,0.089-0.244,0.18-0.371,0.285l0.629,6.824l-0.051-0.03
	l-0.627-6.846c0.139-0.115,0.285-0.229,0.439-0.337l0.002,0.011L192.111,189.178z"/>
<polygon fill="#DADAD9" points="192.373,196.417 192.324,196.394 192.318,196.335 192.369,196.364 "/>
<path fill="#F0F0F2" d="M192.758,195.987l-0.619-6.748c0.029-0.022,0.057-0.035,0.084-0.061l0.609,6.65L192.758,195.987z"/>
<path fill="#F0F0F2" d="M192.758,195.987l-0.02,0.037l-0.621-6.772c0.008-0.007,0.016-0.007,0.016-0.007L192.758,195.987z"/>
<path fill="#A3A3A4" d="M187.938,199.76h0.002c0.002,0.04,0.004,0.079,0.004,0.117L187.938,199.76z"/>
<path fill="#A3A3A4" d="M187.953,199.894v0.006l-0.006,0.004l-0.004-0.026c0-0.038-0.002-0.075-0.004-0.117l0.008-0.007
	L187.953,199.894z"/>
<path fill="#A3A3A4" d="M187.953,199.894l-0.006-0.141h0.004C187.951,199.802,187.951,199.853,187.953,199.894"/>
<path fill="#A3A3A4" d="M187.955,199.749c0,0.053,0.002,0.102,0.004,0.146l-0.006,0.004v-0.006
	c-0.002-0.043-0.002-0.094-0.002-0.141L187.955,199.749z"/>
<polygon fill="#A3A3A4" points="192.846,196.954 197.092,194.526 197.104,194.668 192.859,197.093 "/>
<path fill="#A3A3A4" d="M192.412,197.349l-4.453,2.547c-0.002-0.045-0.004-0.092-0.004-0.145l4.445-2.54L192.412,197.349z"/>
<polygon fill="#A3A3A4" points="197.146,194.493 197.15,194.644 197.148,194.644 197.135,194.5 "/>
<polygon fill="#A3A3A4" points="197.092,194.526 197.135,194.5 197.148,194.644 197.104,194.669 "/>
<polygon fill="#A3A3A4" points="192.859,197.093 192.684,197.194 192.68,197.138 192.574,197.212 192.578,197.255 192.412,197.349 
	192.4,197.209 192.846,196.954 "/>
<polygon fill="#A3A3A4" points="192.641,197.37 192.627,197.231 192.578,197.255 192.684,197.194 192.697,197.331 "/>
<polygon fill="#A3A3A4" points="192.641,197.37 192.697,197.331 192.717,197.534 192.66,197.565 "/>
<polygon fill="#A3A3A4" points="192.574,197.212 192.68,197.138 192.684,197.194 192.578,197.255 "/>
<polygon fill="#F0F0F2" points="192.537,197.444 192.523,197.285 192.578,197.257 192.59,197.403 "/>
<polygon fill="#F0F0F2" points="192.609,197.593 192.553,197.625 192.537,197.447 192.59,197.403 "/>
<polygon fill="#F0F0F2" points="192.641,197.37 192.59,197.403 192.578,197.255 192.627,197.231 "/>
<polygon fill="#F0F0F2" points="192.609,197.593 192.59,197.403 192.641,197.37 192.66,197.567 "/>
<polygon fill="#A3A3A4" points="187.982,200.415 187.977,200.338 187.982,200.409 "/>
<polygon fill="#A3A3A4" points="187.969,200.276 187.973,200.276 187.977,200.335 "/>
<path fill="#A3A3A4" d="M187.977,200.336L187.977,200.336l-0.004-0.06h0.004C187.977,200.298,187.977,200.313,187.977,200.336"/>
<polygon fill="#A3A3A4" points="197.246,195.031 197.236,194.919 197.33,194.862 197.344,194.978 "/>
<polygon fill="#A3A3A4" points="193.066,197.332 197.133,194.977 197.143,195.091 193.072,197.377 "/>
<path fill="#A3A3A4" d="M192.27,197.813l-4.293,2.522c0-0.022,0-0.038,0-0.056l4.291-2.489L192.27,197.813z"/>
<path fill="#A3A3A4" d="M187.977,200.336c0.004,0.028,0.004,0.052,0.006,0.073l-0.006-0.07V200.336L187.977,200.336z"/>
<polygon fill="#A3A3A4" points="192.275,197.877 187.977,200.335 192.27,197.813 "/>
<polygon fill="#A3A3A4" points="192.451,197.775 192.295,197.864 192.291,197.802 192.27,197.813 192.268,197.792 192.445,197.692 
	"/>
<polygon fill="#A3A3A4" points="193.016,197.453 192.898,197.519 192.893,197.433 193.066,197.332 193.072,197.376 193.014,197.414 
	"/>
<polygon fill="#A3A3A4" points="192.295,197.866 192.275,197.877 192.268,197.813 192.291,197.802 "/>
<polygon fill="#A3A3A4" points="197.178,194.952 197.236,194.919 197.246,195.032 197.188,195.065 "/>
<polygon fill="#A3A3A4" points="197.148,195.091 197.148,195.084 197.143,195.091 197.131,194.977 197.174,194.953 197.188,195.065 
	"/>
<polygon fill="#A3A3A4" points="192.717,197.534 192.893,197.433 192.898,197.518 192.723,197.62 "/>
<polygon fill="#A3A3A4" points="192.451,197.775 192.445,197.692 192.553,197.626 192.562,197.712 "/>
<polygon fill="#A3A3A4" points="193.047,197.436 193.074,197.418 193.078,197.46 "/>
<polygon fill="#A3A3A4" points="193.014,197.411 193.072,197.378 193.074,197.418 193.047,197.437 "/>
<polygon fill="#A3A3A4" points="197.143,195.095 197.148,195.091 197.15,195.163 "/>
<polygon fill="#A3A3A4" points="197.143,195.091 197.148,195.084 197.148,195.091 197.143,195.095 "/>
<polygon fill="#A3A3A4" points="193.016,197.453 193.014,197.414 193.029,197.443 "/>
<polygon fill="#A3A3A4" points="193.078,197.458 193.131,197.493 193.131,197.494 193.084,197.524 "/>
<polygon fill="#A3A3A4" points="193.072,197.532 193.029,197.448 193.047,197.437 193.078,197.458 193.084,197.524 "/>
<polygon fill="#A3A3A4" points="193.014,197.411 193.047,197.437 193.029,197.444 "/>
<polygon fill="#A3A3A4" points="192.668,197.651 192.66,197.567 192.717,197.534 192.723,197.623 "/>
<polygon fill="#A3A3A4" points="192.617,197.684 192.562,197.712 192.553,197.625 192.609,197.594 "/>
<polygon fill="#A3A3A4" points="192.668,197.651 192.617,197.684 192.609,197.593 192.66,197.567 "/>
<polygon fill="#9D6926" points="170.863,210.426 181.273,204.382 181.273,234.053 170.863,240.101 "/>
<path fill="#A0946B" d="M180.492,202.875c0,0-0.621-7.974-5.498-4.431c-1.791,1.307-2.824,3.209-3.42,5.104
	c0.572-1.991,1.572-3.954,3.307-5.11c5.838-3.885,6.355,4.15,6.355,4.15l0.133,1.465l-0.729,0.426L180.492,202.875z"/>
<path fill="#A0946B" d="M170.852,210.14l-0.002,0.002v-0.002c0,0-0.004-0.032-0.004-0.097
	C170.85,210.105,170.852,210.14,170.852,210.14"/>
<path fill="#DADAD9" d="M170.811,209.323h0.002l0.014,0.295l-0.006,0.002c-0.004-0.092-0.008-0.193-0.01-0.31v0.007V209.323z"/>
<path fill="#DADAD9" d="M170.811,209.193v0.058c-0.021-1.199,0.059-3.443,0.764-5.704c-0.627,2.192-0.738,4.411-0.744,5.634
	L170.811,209.193z"/>
<path fill="#DADAD9" d="M170.836,209.762c0,0.124,0.006,0.213,0.01,0.28c-0.008-0.067-0.014-0.172-0.02-0.3l0.004,0.024
	L170.836,209.762z"/>
<path fill="#DADAD9" d="M170.836,209.762l0.018,0.378h-0.002c0,0-0.002-0.034-0.006-0.098
	C170.842,209.975,170.836,209.886,170.836,209.762"/>
<path fill="#DADAD9" d="M174.994,198.446c4.877-3.545,5.498,4.429,5.498,4.429l0.148,1.606l-0.428,0.244l-0.113-0.824l-0.057,0.035
	c-0.004-0.021-0.006-0.074-0.012-0.154c-0.051-0.536-0.25-2.288-0.883-3.688l0.1-0.188l-0.275-0.403l-0.062,0.123
	c-0.74-1.302-1.947-2.057-3.904-0.664l-0.031-0.354l-0.439,0.318l0.033,0.373c0,0-0.01,0.006-0.014,0.01l-0.049,0.041l0.008,0.055
	c-1.443,1.228-2.324,2.855-2.865,4.483l-0.088-0.06l-0.17,0.727l0.029,0.021l-0.018,0.104l0.006,0.005
	c-0.467,1.758-0.57,3.43-0.572,4.492l-0.006,0.002c0.006-1.223,0.117-3.441,0.744-5.634
	C172.17,201.651,173.203,199.749,174.994,198.446"/>
<path fill="#B0DFF8" d="M179.105,200.333c0.58,1.354,0.771,3.008,0.818,3.522c0.004,0.04,0.006,0.067,0.008,0.097l-3.908,2.247
	L179.105,200.333z"/>
<path fill="#B0DFF8" d="M170.836,209.181c0.002-1.062,0.105-2.736,0.572-4.496l3.359,2.236L170.836,209.181z"/>
<path fill="#B0DFF8" d="M171.65,203.888c0.539-1.628,1.42-3.256,2.863-4.482l0.617,6.743L171.65,203.888z"/>
<path fill="#B0DFF8" d="M175.639,205.851l0.076-0.159l-0.611-6.648c1.865-1.282,3.014-0.536,3.729,0.729l-3.191,6.094
	L175.639,205.851z"/>
<polygon fill="#F0F0F2" points="170.811,209.323 170.811,209.317 170.812,209.323 "/>
<polygon fill="#F0F0F2" points="170.811,209.251 170.811,209.193 170.83,209.182 170.83,209.237 "/>
<rect x="170.83" y="209.181" fill="#F0F0F2" width="0.006" height="0.057"/>
<path fill="#F0F0F2" d="M175.857,206.339l0.127-0.07l0.039-0.068l3.908-2.25c0.004,0.02,0.004,0.036,0.006,0.047l-4.084,2.351
	L175.857,206.339z"/>
<polygon fill="#F0F0F2" points="174.811,206.948 170.836,209.238 170.836,209.179 174.768,206.923 "/>
<polygon fill="#DADAD9" points="170.809,209.251 170.811,209.251 170.811,209.312 "/>
<path fill="#DADAD9" d="M170.832,209.617h-0.006l-0.014-0.294l0.018-0.01C170.83,209.429,170.832,209.525,170.832,209.617"/>
<path fill="#DADAD9" d="M170.857,210.14h-0.004l-0.018-0.378l0.002-0.004C170.846,209.915,170.85,210.043,170.857,210.14"/>
<path fill="#DADAD9" d="M170.836,209.611l-0.004,0.006c0-0.092-0.002-0.19-0.002-0.304l0.002-0.003
	C170.836,209.421,170.836,209.522,170.836,209.611"/>
<polygon fill="#DADAD9" points="180.043,203.944 180.043,203.937 180.1,203.899 180.213,204.727 180.117,204.784 "/>
<polygon fill="#DADAD9" points="175.709,206.618 175.793,206.46 179.943,204.075 179.971,204.39 175.727,206.815 "/>
<polygon fill="#DADAD9" points="175.926,206.944 175.75,207.069 175.74,206.956 179.984,204.532 180.016,204.841 175.947,207.192 
	"/>
<path fill="#DADAD9" d="M175.309,207.384l-0.174,0.127l0.014,0.145l-4.291,2.484c-0.008-0.098-0.012-0.225-0.02-0.382l4.457-2.547
	L175.309,207.384z"/>
<path fill="#DADAD9" d="M175.023,206.901l0.141,0.093l0.09-0.224l0.027,0.301l-4.445,2.54c0-0.089,0-0.19-0.004-0.301
	L175.023,206.901z"/>
<polygon fill="#DADAD9" points="170.83,209.312 170.812,209.323 170.811,209.317 170.811,209.251 170.83,209.238 "/>
<path fill="#DADAD9" d="M170.83,209.312v-0.073h0.006c0,0.022-0.004,0.05-0.004,0.071L170.83,209.312z"/>
<polygon fill="#DADAD9" points="174.979,206.874 175.023,206.901 170.836,209.31 170.836,209.238 174.811,206.948 174.816,206.952 
	"/>
<path fill="#DADAD9" d="M175.854,206.348l4.084-2.352c0,0.015,0,0.022,0,0.022l0.006,0.057l-4.148,2.385L175.854,206.348z"/>
<path fill="#DADAD9" d="M171.426,204.533l-0.006,0.044l-0.029-0.02l0.17-0.729l0.09,0.059c-0.072,0.219-0.143,0.439-0.203,0.658
	L171.426,204.533z"/>
<path fill="#DADAD9" d="M175.139,206.229l0.068,0.027l0.035,0.391l-0.324,0.187l-3.471-2.288c0.061-0.219,0.131-0.441,0.203-0.658
	l3.48,2.261L175.139,206.229z"/>
<polygon fill="#DADAD9" points="174.963,206.862 174.918,206.835 175.242,206.647 175.248,206.7 "/>
<polygon fill="#DADAD9" points="175.164,206.994 175.023,206.901 175.254,206.771 "/>
<polygon fill="#DADAD9" points="175.254,206.771 175.023,206.901 174.979,206.874 174.963,206.862 175.248,206.7 "/>
<path fill="#DADAD9" d="M178.973,199.503l0.275,0.405l-0.1,0.186c-0.072-0.163-0.152-0.319-0.238-0.466L178.973,199.503z"/>
<path fill="#DADAD9" d="M175.689,206.39l-0.049-0.521l3.191-6.094c0.033,0.062,0.07,0.125,0.1,0.189
	c0.049,0.089,0.094,0.185,0.137,0.279l-3.189,6.036L175.689,206.39z"/>
<polygon fill="#DADAD9" points="175.689,206.39 175.879,206.279 175.842,206.349 175.857,206.339 175.854,206.349 175.693,206.438 
	"/>
<polygon fill="#DADAD9" points="175.795,206.46 175.709,206.618 175.699,206.512 "/>
<polygon fill="#DADAD9" points="175.693,206.438 175.854,206.349 175.795,206.46 175.699,206.515 "/>
<path fill="#A3A3A4" d="M171.408,204.687l-0.006-0.005l0.018-0.106l0.018,0.01C171.426,204.619,171.42,204.652,171.408,204.687"/>
<path fill="#A3A3A4" d="M174.916,206.834l-0.148,0.085l-3.359-2.231c0.012-0.036,0.018-0.068,0.027-0.103L174.916,206.834z"/>
<polygon fill="#A3A3A4" points="174.811,206.948 174.768,206.923 174.916,206.831 174.961,206.862 "/>
<polygon fill="#A3A3A4" points="174.979,206.874 174.816,206.952 174.811,206.948 174.961,206.86 "/>
<path fill="#A3A3A4" d="M171.447,204.546c-0.004,0.016-0.008,0.026-0.012,0.039l-0.016-0.008l0.006-0.045L171.447,204.546z"/>
<path fill="#A3A3A4" d="M171.436,204.585c0.004-0.014,0.008-0.025,0.012-0.039l3.471,2.289h-0.002L171.436,204.585z"/>
<rect x="174.913" y="206.848" transform="matrix(0.8542 0.5199 -0.5199 0.8542 133.0567 -60.8004)" fill="#A3A3A4" width="0.053" height="0.002"/>
<polygon fill="#A3A3A4" points="174.979,206.874 174.961,206.86 174.963,206.86 "/>
<path fill="#A3A3A4" d="M175.893,206.272l3.176-6.027c0.014,0.03,0.025,0.057,0.037,0.09l-3.082,5.864L175.893,206.272z"/>
<polygon fill="#A3A3A4" points="176.023,206.199 175.984,206.269 175.857,206.339 175.893,206.273 "/>
<polygon fill="#A3A3A4" points="175.893,206.272 175.879,206.28 179.066,200.243 179.068,200.245 "/>
<polygon fill="#A3A3A4" points="175.879,206.28 175.893,206.271 175.857,206.339 175.842,206.349 "/>
<polygon fill="#DADAD9" points="175.148,207.655 175.135,207.509 175.309,207.384 175.326,207.556 "/>
<polygon fill="#DADAD9" points="175.75,207.067 175.926,206.944 175.947,207.194 175.771,207.295 "/>
<path fill="#A3A3A4" d="M175.043,198.989c-0.01,0.008-0.02,0.016-0.031,0.022l-0.006-0.048c1.957-1.395,3.164-0.64,3.904,0.662
	l-0.027,0.049C178.166,198.403,176.982,197.608,175.043,198.989"/>
<path fill="#A3A3A4" d="M179.99,203.919l-0.014,0.007l-0.053-0.556c0,0-0.154-1.764-0.803-3.219l0.027-0.058
	c0.633,1.4,0.832,3.152,0.883,3.688c0.006,0.08,0.008,0.133,0.012,0.154l-0.053,0.031V203.919z"/>
<path fill="#A3A3A4" d="M174.514,199.405l-0.008-0.055l0.049-0.039c0.004-0.006,0.008-0.008,0.008-0.008l0.01,0.049
	C174.551,199.37,174.533,199.388,174.514,199.405"/>
<path fill="#A3A3A4" d="M175.199,206.198l-0.068-0.05l-0.617-6.743c0.02-0.016,0.037-0.035,0.059-0.053L175.199,206.198z"/>
<path fill="#A3A3A4" d="M175.104,199.043l-0.008-0.08l-0.082,0.063l-0.002-0.014c0.012-0.008,0.021-0.016,0.031-0.023
	c1.939-1.381,3.123-0.587,3.84,0.686l-0.051,0.1C178.117,198.504,176.969,197.765,175.104,199.043"/>
<path fill="#A3A3A4" d="M179.924,203.855c-0.047-0.515-0.238-2.169-0.818-3.522l0.025-0.051l-0.035-0.084l0.025-0.05
	c0.648,1.458,0.803,3.222,0.803,3.222l0.053,0.557l-0.045,0.025C179.93,203.923,179.928,203.896,179.924,203.855"/>
<polygon fill="#A3A3A4" points="179.977,203.926 179.99,203.919 179.99,203.968 179.98,203.97 "/>
<path fill="#A3A3A4" d="M179.938,203.997c-0.002-0.011-0.002-0.027-0.006-0.047l0.045-0.024l0.004,0.044L179.938,203.997z"/>
<polygon fill="#A3A3A4" points="180.117,204.781 180.057,204.813 180.031,204.505 180.031,204.505 180.029,204.354 180.018,204.362 
	179.986,204.049 179.992,204.047 179.99,203.968 180.043,203.938 180.043,203.944 "/>
<polygon fill="#A3A3A4" points="179.943,204.075 179.986,204.048 180.018,204.363 179.971,204.388 "/>
<polygon fill="#A3A3A4" points="179.984,204.532 180.031,204.505 180.057,204.815 180.016,204.841 "/>
<rect x="179.985" y="203.968" fill="#A3A3A4" width="0.006" height="0.08"/>
<path fill="#A3A3A4" d="M179.938,204.021c0,0,0-0.011,0-0.023l0.043-0.027l0.006,0.078l-0.043,0.024L179.938,204.021z"/>
<polygon fill="#A3A3A4" points="175.139,206.229 175.131,206.148 175.199,206.198 175.207,206.257 "/>
<path fill="#A3A3A4" d="M178.883,199.675l0.027-0.049c0.084,0.148,0.166,0.305,0.238,0.467l-0.027,0.057
	C179.047,199.984,178.969,199.827,178.883,199.675"/>
<path fill="#A3A3A4" d="M179.096,200.193l-0.029,0.05c-0.041-0.095-0.086-0.188-0.135-0.282c-0.029-0.062-0.066-0.124-0.1-0.187
	l0.049-0.098c0.088,0.15,0.164,0.308,0.24,0.472L179.096,200.193L179.096,200.193z"/>
<path fill="#A3A3A4" d="M179.096,200.194l0.035,0.088l-0.025,0.051c-0.012-0.031-0.023-0.058-0.039-0.088L179.096,200.194z"/>
<polyline fill="#A3A3A4" points="179.066,200.243 179.096,200.193 179.096,200.193 179.068,200.245 179.066,200.245 "/>
<path fill="#DADAD9" d="M174.568,199.3l-0.033-0.373l0.439-0.318l0.031,0.354c-0.008,0.005-0.016,0.009-0.023,0.013
	C174.848,199.074,174.711,199.181,174.568,199.3"/>
<path fill="#DADAD9" d="M175.639,205.851l0.002,0.016l-0.184,0.354l0.129,0.23l-0.266,0.148l0.105-0.256l-0.176-0.116l-0.627-6.822
	c0.127-0.104,0.252-0.199,0.371-0.288c0,0,0.002,0,0.004-0.004l0.623,6.777L175.639,205.851z"/>
<polygon fill="#DADAD9" points="175.609,206.489 175.291,206.673 175.32,206.599 175.586,206.452 "/>
<polygon fill="#DADAD9" points="175.564,207.057 175.74,206.956 175.75,207.067 175.578,207.194 "/>
<polygon fill="#DADAD9" points="175.461,207.118 175.404,207.149 175.418,207.308 175.309,207.384 175.295,207.211 "/>
<polygon fill="#DADAD9" points="175.695,206.647 175.709,206.619 175.727,206.815 175.281,207.071 175.254,206.772 175.641,206.546 
	"/>
<polygon fill="#DADAD9" points="175.641,206.546 175.254,206.771 175.291,206.673 175.609,206.489 "/>
<polygon fill="#DADAD9" points="175.25,206.227 175.426,206.343 175.32,206.599 175.242,206.649 175.207,206.257 175.256,206.279 
	"/>
<polygon fill="#DADAD9" points="175.291,206.673 175.248,206.7 175.242,206.649 175.32,206.599 "/>
<polygon fill="#DADAD9" points="175.248,206.7 175.291,206.673 175.254,206.772 "/>
<polygon fill="#DADAD9" points="175.457,206.22 175.641,205.868 175.689,206.39 175.586,206.452 "/>
<polygon fill="#DADAD9" points="175.609,206.489 175.586,206.452 175.689,206.39 175.693,206.438 "/>
<polygon fill="#DADAD9" points="175.641,206.546 175.699,206.515 175.709,206.619 175.695,206.647 "/>
<polygon fill="#DADAD9" points="175.699,206.513 175.641,206.546 175.609,206.489 175.693,206.438 "/>
<polygon fill="#DADAD9" points="175.436,207.487 175.326,207.556 175.309,207.384 175.418,207.308 "/>
<polygon fill="#DADAD9" points="175.596,207.396 175.578,207.19 175.75,207.067 175.771,207.295 "/>
<path fill="#DADAD9" d="M174.572,199.353l-0.004-0.053c0.143-0.119,0.279-0.229,0.414-0.324c0.008-0.004,0.016-0.008,0.023-0.013
	l0.006,0.048C174.859,199.121,174.713,199.236,174.572,199.353"/>
<path fill="#DADAD9" d="M174.992,199.042l0.006,0.072c-0.002,0.004-0.002,0.004-0.002,0.004c-0.121,0.086-0.246,0.182-0.373,0.286
	l0.627,6.822l-0.051-0.028l-0.627-6.846c0.141-0.116,0.287-0.231,0.439-0.34l0.002,0.012L174.992,199.042z"/>
<polygon fill="#DADAD9" points="175.256,206.28 175.207,206.257 175.199,206.198 175.25,206.227 "/>
<path fill="#F0F0F2" d="M175.639,205.851l-0.619-6.747c0.029-0.022,0.057-0.039,0.084-0.061l0.611,6.648L175.639,205.851z"/>
<path fill="#F0F0F2" d="M175.014,199.026l0.082-0.062l0.008,0.079c-0.027,0.021-0.055,0.038-0.084,0.061L175.014,199.026z"/>
<path fill="#F0F0F2" d="M175.639,205.851l-0.018,0.039l-0.623-6.777c0.008-0.003,0.014-0.006,0.021-0.009L175.639,205.851z"/>
<path fill="#F0F0F2" d="M174.998,199.113l-0.006-0.071l0.021-0.015l0.006,0.074C175.012,199.106,175.006,199.109,174.998,199.113"/>
<path fill="#A3A3A4" d="M170.818,209.62h0.002c0.004,0.043,0.004,0.083,0.006,0.121L170.818,209.62z"/>
<path fill="#A3A3A4" d="M170.836,209.758v0.004l-0.006,0.005l-0.004-0.025c-0.002-0.038-0.002-0.077-0.006-0.121l0.006-0.002
	L170.836,209.758z"/>
<path fill="#A3A3A4" d="M170.836,209.758l-0.01-0.14h0.006C170.832,209.664,170.836,209.712,170.836,209.758"/>
<path fill="#A3A3A4" d="M170.836,209.611c0,0.052,0.002,0.101,0.002,0.146l-0.002,0.004v-0.004c0-0.046-0.004-0.095-0.004-0.141
	L170.836,209.611z"/>
<polygon fill="#A3A3A4" points="175.727,206.815 179.971,204.39 179.984,204.53 175.74,206.956 "/>
<path fill="#A3A3A4" d="M175.295,207.211l-4.457,2.547c0-0.046-0.002-0.093-0.002-0.146l4.445-2.54L175.295,207.211z"/>
<polygon fill="#A3A3A4" points="180.029,204.354 180.031,204.505 180.031,204.505 180.018,204.362 "/>
<polygon fill="#A3A3A4" points="179.971,204.39 180.018,204.362 180.031,204.505 179.984,204.532 "/>
<polygon fill="#A3A3A4" points="175.74,206.956 175.564,207.057 175.559,207.001 175.457,207.072 175.461,207.118 175.295,207.211 
	175.281,207.069 175.727,206.817 "/>
<polygon fill="#A3A3A4" points="175.523,207.233 175.51,207.096 175.461,207.117 175.564,207.057 175.578,207.194 "/>
<polygon fill="#A3A3A4" points="175.523,207.233 175.578,207.194 175.596,207.396 175.541,207.429 "/>
<polygon fill="#A3A3A4" points="175.457,207.073 175.559,207.001 175.564,207.057 175.461,207.118 "/>
<polygon fill="#F0F0F2" points="175.418,207.309 175.404,207.149 175.461,207.12 175.473,207.264 "/>
<polygon fill="#F0F0F2" points="175.492,207.458 175.436,207.487 175.418,207.31 175.475,207.267 "/>
<polygon fill="#F0F0F2" points="175.523,207.233 175.473,207.264 175.461,207.117 175.51,207.096 "/>
<polygon fill="#F0F0F2" points="175.492,207.458 175.475,207.267 175.523,207.233 175.541,207.429 "/>
<polygon fill="#A3A3A4" points="170.863,210.276 170.857,210.2 170.863,210.272 "/>
<polygon fill="#A3A3A4" points="170.852,210.14 170.854,210.14 170.857,210.196 "/>
<path fill="#A3A3A4" d="M170.859,210.196h-0.002l-0.004-0.057h0.004C170.857,210.163,170.857,210.178,170.859,210.196"/>
<polygon fill="#A3A3A4" points="180.129,204.895 180.117,204.781 180.213,204.726 180.229,204.841 "/>
<polygon fill="#A3A3A4" points="175.947,207.194 180.016,204.839 180.023,204.951 175.953,207.239 "/>
<path fill="#A3A3A4" d="M175.15,207.677l-4.291,2.52c-0.002-0.019-0.002-0.036-0.002-0.057l4.291-2.484L175.15,207.677z"/>
<path fill="#A3A3A4" d="M170.859,210.196c0.002,0.03,0.002,0.053,0.004,0.078l-0.006-0.074v-0.004H170.859z"/>
<polygon fill="#A3A3A4" points="175.156,207.741 170.859,210.196 175.15,207.677 "/>
<polygon fill="#A3A3A4" points="175.332,207.64 175.178,207.728 175.172,207.666 175.152,207.677 175.148,207.655 175.326,207.556 
	"/>
<polygon fill="#A3A3A4" points="175.898,207.315 175.779,207.382 175.771,207.295 175.947,207.194 175.953,207.237 175.895,207.276 
	"/>
<polygon fill="#A3A3A4" points="175.178,207.729 175.156,207.741 175.15,207.677 175.172,207.666 "/>
<polygon fill="#A3A3A4" points="180.057,204.813 180.117,204.784 180.129,204.895 180.068,204.931 "/>
<polygon fill="#A3A3A4" points="180.031,204.951 180.031,204.947 180.023,204.951 180.016,204.839 180.057,204.817 180.068,204.931 
	"/>
<polygon fill="#A3A3A4" points="175.596,207.396 175.771,207.295 175.779,207.38 175.607,207.483 "/>
<polygon fill="#A3A3A4" points="175.332,207.64 175.326,207.556 175.436,207.49 175.443,207.575 "/>
<polygon fill="#A3A3A4" points="175.93,207.3 175.957,207.28 175.959,207.32 "/>
<polygon fill="#A3A3A4" points="175.895,207.276 175.953,207.242 175.957,207.28 175.93,207.3 "/>
<polygon fill="#A3A3A4" points="180.023,204.958 180.031,204.951 180.031,205.028 "/>
<circle fill="#A3A3A4" cx="180.027" cy="204.951" r="0.004"/>
<polygon fill="#A3A3A4" points="175.898,207.315 175.895,207.276 175.91,207.308 "/>
<polygon fill="#A3A3A4" points="175.959,207.32 176.012,207.357 176.012,207.358 175.965,207.386 "/>
<polygon fill="#A3A3A4" points="175.953,207.394 175.91,207.31 175.93,207.3 175.959,207.32 175.965,207.385 "/>
<polygon fill="#A3A3A4" points="175.895,207.276 175.93,207.3 175.91,207.309 "/>
<polygon fill="#A3A3A4" points="175.551,207.517 175.541,207.429 175.596,207.396 175.607,207.486 "/>
<polygon fill="#A3A3A4" points="175.498,207.543 175.443,207.575 175.436,207.487 175.492,207.458 "/>
<polygon fill="#A3A3A4" points="175.551,207.517 175.498,207.543 175.492,207.458 175.541,207.429 "/>
<polygon fill="#FAF9F1" points="117.889,0 0,68.663 120.723,139.325 238.609,70.661 "/>
<polygon fill="#94958B" points="117.889,2.962 3.047,70.439 120.723,139.325 236.105,72.119 "/>
<polygon fill="#E5E4DD" points="117.889,8.243 7.545,73.079 120.723,139.325 231.803,74.883 "/>
<polygon fill="#FAF9F1" points="119.09,8.243 101.139,18.698 119.52,29.456 137.471,19.003 "/>
<polygon fill="#94958B" points="119.09,8.694 101.604,18.968 119.52,29.456 137.09,19.225 "/>
<polygon fill="#EBECED" points="119.09,9.499 102.289,19.37 119.52,29.456 136.434,19.646 "/>
<polygon fill="#94958B" points="65.83,82.938 83.598,72.601 83.598,52.558 65.83,62.894 "/>
<polygon fill="#D7D9CF" points="65.846,82.971 47.561,72.335 47.561,52.26 65.846,62.894 "/>
<polygon fill="#FAF9F1" points="65.941,63.199 47.561,52.476 47.561,51.926 66.416,62.923 "/>
<polygon fill="#D4D4BE" points="65.941,64.062 47.561,53.304 47.561,52.476 65.941,63.199 "/>
<polygon fill="#EEF0E6" points="65.941,63.2 83.891,52.751 83.891,52.23 65.941,62.685 "/>
<polygon fill="#CCCBB6" points="65.941,64.063 83.891,53.604 83.891,52.751 65.941,63.2 "/>
<polygon fill="#FAF9F1" points="65.51,41.472 47.561,51.926 65.941,62.685 83.891,52.23 "/>
<polygon fill="#94958B" points="65.51,41.922 48.023,52.196 65.941,62.685 83.51,52.452 "/>
<polygon fill="#EBECED" points="65.51,42.726 48.709,52.599 65.941,62.685 82.854,52.873 "/>
<polygon fill="#5A5952" points="130.449,255.229 144.807,246.788 144.807,211.677 130.449,220.116 "/>
<polygon fill="#FCFCFD" points="130.404,253.938 143.564,246.168 143.564,212.396 130.404,220.166 "/>
<polygon fill="#DADAD9" points="130.404,252.831 142.676,245.574 142.676,212.906 130.449,220.116 "/>
<polygon fill="#EBF6FC" points="130.404,252.382 142.363,245.306 142.363,213.087 130.449,220.116 "/>
<polygon fill="#DADAD9" points="136.121,216.691 137.143,216.093 137.143,248.3 136.121,248.956 "/>
<polygon fill="#FCFCFD" points="136.387,216.538 137.41,215.94 137.41,248.634 136.387,249.288 "/>
<polygon fill="#DADAD9" points="130.404,227.968 136.121,224.651 136.121,223.587 130.404,226.899 "/>
<polygon fill="#706E65" points="130.404,253.938 130.449,255.229 144.807,246.788 143.564,246.168 "/>
<polygon fill="#DADAD9" points="137.408,224.05 142.676,220.973 142.676,219.908 137.408,222.984 "/>
<polygon fill="#FCFCFD" points="130.404,228.351 142.676,221.182 142.676,220.116 130.404,227.284 "/>
<polygon fill="#5A5952" points="211.336,209.451 225.695,201.01 225.695,165.898 211.336,174.338 "/>
<polygon fill="#FCFCFD" points="211.291,208.159 224.451,200.39 224.451,166.616 211.291,174.388 "/>
<polygon fill="#DADAD9" points="211.291,207.052 223.561,199.796 223.561,167.128 211.336,174.338 "/>
<polygon fill="#EBF6FC" points="211.291,206.603 223.25,199.528 223.25,167.31 211.336,174.338 "/>
<polygon fill="#DADAD9" points="217.008,170.912 218.029,170.314 218.029,202.522 217.008,203.178 "/>
<polygon fill="#FCFCFD" points="217.273,170.759 218.297,170.161 218.297,202.856 217.273,203.511 "/>
<polygon fill="#DADAD9" points="211.291,182.188 217.008,178.874 217.008,177.809 211.291,181.121 "/>
<polygon fill="#706E65" points="211.291,208.159 211.336,209.451 225.695,201.01 224.451,200.39 "/>
<polygon fill="#DADAD9" points="218.297,178.271 223.562,175.194 223.562,174.129 218.297,177.206 "/>
<polygon fill="#FCFCFD" points="211.291,182.571 223.561,175.403 223.561,174.338 211.291,181.506 "/>
<polygon fill="#BABBB2" points="177.727,208.05 183.535,204.692 183.535,202.024 177.727,205.381 "/>
<polygon fill="#BABBB2" points="177.727,208.05 171.916,204.692 171.916,202.024 177.727,205.381 "/>
<polygon fill="#8F9089" points="177.727,209.853 173.371,207.336 173.371,205.335 177.727,207.853 "/>
<polygon fill="#8F9089" points="177.727,209.853 182.082,207.336 182.082,205.335 177.727,207.853 "/>
<polygon fill="#8F9089" points="177.695,256.967 182.051,254.45 182.051,252.448 177.695,254.964 "/>
<polygon fill="#8F9089" points="177.695,256.967 173.338,254.45 173.338,252.448 177.695,254.964 "/>
<polygon fill="#D7D9CF" points="177.695,258.097 183.502,253.201 182.051,252.448 182.051,253.577 177.695,256.097 "/>
<polygon fill="#D7D9CF" points="177.695,258.097 171.885,253.201 173.338,252.448 173.338,253.577 177.695,256.097 "/>
<polygon fill="#BABBB2" points="177.695,259.226 171.885,255.87 171.885,253.201 177.695,256.557 "/>
<polygon fill="#BABBB2" points="177.695,259.226 183.502,255.87 183.502,253.201 177.695,256.557 "/>
<polygon fill="#71726B" points="182.051,252.448 177.768,249.897 173.338,252.448 177.695,254.964 "/>
<path fill="#FAF9F1" d="M181.391,252.173c0,0-2.043,1.49-3.664,1.525c-1.621,0.033-3.666-1.52-3.666-1.52v-44.472l3.648,2.122
	l3.676-2.122L181.391,252.173z"/>
<polygon fill="#CFCFC7" points="175.516,251.817 175.02,251.817 175.02,208.288 175.516,208.554 "/>
<polygon fill="#CFCFC7" points="176.744,252.472 176.246,252.472 176.246,208.999 176.744,209.267 "/>
<polygon fill="#CFCFC7" points="177.975,252.97 177.479,252.97 177.479,209.695 177.709,209.829 177.975,209.678 "/>
<polygon fill="#CFCFC7" points="178.871,252.466 178.375,252.466 178.375,209.478 178.871,209.201 "/>
<polygon fill="#CFCFC7" points="179.873,251.933 179.375,251.933 179.375,208.866 179.873,208.581 "/>
<polygon fill="#CFCFC7" points="180.848,251.236 180.352,251.236 180.352,208.288 180.848,207.97 "/>
<polygon fill="#BABBB2" points="146.334,225.933 152.143,222.579 152.143,219.908 146.334,223.265 "/>
<polygon fill="#BABBB2" points="146.334,225.933 140.525,222.579 140.525,219.908 146.334,223.265 "/>
<polygon fill="#8F9089" points="146.334,227.739 141.977,225.222 141.977,223.22 146.334,225.737 "/>
<polygon fill="#8F9089" points="146.334,227.739 150.689,225.222 150.689,223.22 146.334,225.737 "/>
<polygon fill="#8F9089" points="146.303,274.853 150.658,272.334 150.658,270.333 146.303,272.853 "/>
<polygon fill="#8F9089" points="146.303,274.853 141.947,272.334 141.947,270.333 146.303,272.853 "/>
<polygon fill="#D7D9CF" points="146.303,275.981 152.111,271.086 150.658,270.333 150.658,271.464 146.303,273.981 "/>
<polygon fill="#D7D9CF" points="146.303,275.981 140.492,271.086 141.947,270.333 141.947,271.464 146.303,273.981 "/>
<polygon fill="#BABBB2" points="146.303,277.11 140.492,273.754 140.492,271.086 146.303,274.442 "/>
<polygon fill="#BABBB2" points="146.303,277.11 152.111,273.754 152.111,271.086 146.303,274.442 "/>
<polygon fill="#71726B" points="150.658,270.333 146.377,267.782 141.947,270.333 146.303,272.853 "/>
<path fill="#FAF9F1" d="M150,270.06c0,0-2.047,1.49-3.666,1.523c-1.621,0.033-3.664-1.52-3.664-1.52v-44.471l3.648,2.123
	l3.676-2.123L150,270.06z"/>
<polygon fill="#CFCFC7" points="144.123,269.705 143.629,269.705 143.629,226.174 144.123,226.438 "/>
<polygon fill="#CFCFC7" points="145.354,270.359 144.855,270.359 144.855,226.886 145.354,227.152 "/>
<polygon fill="#CFCFC7" points="146.582,270.856 146.086,270.856 146.086,227.581 146.318,227.716 146.582,227.562 "/>
<polygon fill="#CFCFC7" points="147.477,270.353 146.982,270.353 146.982,227.364 147.477,227.087 "/>
<polygon fill="#CFCFC7" points="148.48,269.819 147.982,269.819 147.982,226.753 148.48,226.466 "/>
<polygon fill="#CFCFC7" points="149.455,269.121 148.959,269.121 148.959,226.174 149.455,225.856 "/>
<polygon fill="#BABBB2" points="204.273,192.755 210.082,189.396 210.082,186.182 204.273,189.741 "/>
<polygon fill="#BABBB2" points="204.273,192.755 198.465,189.396 198.465,186.729 204.273,189.741 "/>
<polygon fill="#8F9089" points="204.273,194.558 199.918,192.04 199.918,190.04 204.273,192.558 "/>
<polygon fill="#8F9089" points="204.273,194.558 208.631,192.04 208.631,190.04 204.273,192.558 "/>
<polygon fill="#BABBB2" points="231.512,176.841 237.32,173.483 237.32,170.269 231.512,173.829 "/>
<polygon fill="#BABBB2" points="231.512,176.841 225.703,173.483 225.703,170.815 231.512,173.829 "/>
<polygon fill="#8F9089" points="231.512,178.646 227.154,176.127 227.154,174.127 231.512,176.644 "/>
<polygon fill="#8F9089" points="231.512,178.646 235.869,176.127 235.869,174.127 231.512,176.644 "/>
<polygon fill="#8F9089" points="204.242,241.672 208.6,239.153 208.6,237.153 204.242,239.67 "/>
<polygon fill="#8F9089" points="204.242,241.672 199.887,239.153 199.887,237.153 204.242,239.67 "/>
<polygon fill="#D7D9CF" points="204.242,242.802 210.051,237.905 208.6,237.153 208.6,238.283 204.242,240.802 "/>
<polygon fill="#D7D9CF" points="204.242,242.802 198.434,237.905 199.887,237.153 199.887,238.283 204.242,240.802 "/>
<polygon fill="#BABBB2" points="204.242,243.931 198.434,240.574 198.434,237.905 204.242,241.263 "/>
<polygon fill="#BABBB2" points="204.242,243.931 210.051,240.574 210.051,237.905 204.242,241.263 "/>
<polygon fill="#71726B" points="208.6,237.153 204.316,234.603 199.887,237.153 204.242,239.67 "/>
<path fill="#FAF9F1" d="M207.939,236.879c0,0-2.043,1.489-3.666,1.522c-1.621,0.035-3.664-1.518-3.664-1.518v-44.473l3.648,2.123
	l3.676-2.123L207.939,236.879z"/>
<polygon fill="#CFCFC7" points="202.064,236.524 201.568,236.524 201.568,192.993 202.064,193.257 "/>
<polygon fill="#CFCFC7" points="203.293,237.177 202.795,237.177 202.795,193.703 203.293,193.974 "/>
<polygon fill="#CFCFC7" points="204.523,237.676 204.025,237.676 204.025,194.399 204.258,194.534 204.523,194.382 "/>
<polygon fill="#CFCFC7" points="205.418,237.172 204.922,237.172 204.922,194.183 205.418,193.906 "/>
<polygon fill="#CFCFC7" points="206.42,236.638 205.924,236.638 205.924,193.571 206.42,193.284 "/>
<polygon fill="#CFCFC7" points="207.396,235.94 206.898,235.94 206.898,192.993 207.396,192.675 "/>
<polygon fill="#8F9089" points="231.512,225.812 235.867,223.297 235.867,221.296 231.512,223.812 "/>
<polygon fill="#8F9089" points="231.512,225.812 227.156,223.297 227.156,221.296 231.512,223.812 "/>
<polygon fill="#D7D9CF" points="231.512,226.943 237.322,222.047 235.867,221.296 235.867,222.427 231.512,224.944 "/>
<polygon fill="#D7D9CF" points="231.512,226.943 225.703,222.047 227.156,221.296 227.156,222.427 231.512,224.944 "/>
<polygon fill="#BABBB2" points="231.512,228.074 225.703,224.718 225.703,222.047 231.512,225.405 "/>
<polygon fill="#BABBB2" points="231.512,228.074 237.322,224.718 237.322,222.047 231.512,225.405 "/>
<polygon fill="#71726B" points="235.867,221.296 231.586,218.744 227.156,221.296 231.512,223.812 "/>
<path fill="#FAF9F1" d="M235.209,221.02c0,0-2.045,1.49-3.666,1.526c-1.621,0.033-3.664-1.52-3.664-1.52v-44.473l3.648,2.123
	l3.674-2.123L235.209,221.02z"/>
<polygon fill="#CFCFC7" points="229.334,220.666 228.836,220.666 228.836,177.138 229.334,177.399 "/>
<polygon fill="#CFCFC7" points="230.561,221.319 230.064,221.319 230.064,177.847 230.561,178.114 "/>
<polygon fill="#CFCFC7" points="231.791,221.816 231.295,221.816 231.295,178.541 231.527,178.677 231.791,178.524 "/>
<polygon fill="#CFCFC7" points="232.688,221.313 232.189,221.313 232.189,178.325 232.688,178.048 "/>
<polygon fill="#CFCFC7" points="233.689,220.78 233.193,220.78 233.193,177.714 233.689,177.428 "/>
<polygon fill="#CFCFC7" points="234.664,220.084 234.168,220.084 234.168,177.138 234.664,176.817 "/>
<polygon fill="#EBECED" points="176.359,145.251 190.969,153.968 146.332,214.847 131.041,206.131 "/>
<polygon fill="#D4D4BE" points="131.041,206.131 146.332,214.847 146.318,216.491 131.041,207.566 "/>
<polygon fill="#FAF9F1" points="146.318,219.138 128.6,208.97 131.041,207.566 146.318,216.491 "/>
<polygon fill="#EEF0E6" points="146.318,219.138 237.084,166.493 218.076,155.718 233.246,165.926 146.318,216.491 "/>
<polygon fill="#D4D4BE" points="146.318,223.554 128.6,213.343 128.6,208.97 146.318,219.138 "/>
<polygon fill="#CCCBB6" points="146.318,223.554 237.084,170.865 237.084,166.493 146.318,219.138 "/>
<polygon fill="#C6C8CA" points="176.359,145.251 190.969,153.968 233.246,164.438 218.076,155.718 "/>
<polygon fill="#D7D9CF" points="190.969,156.968 149.023,212.798 230.705,165.302 "/>
<polygon fill="#C6C7BC" points="146.318,216.491 149.023,212.798 230.705,165.302 233.246,165.926 "/>
<polygon fill="#B7B8AB" points="146.318,216.491 147.795,215.634 190.969,156.968 190.969,153.92 146.332,214.847 "/>
<polygon fill="#94958B" points="233.246,164.438 190.969,153.92 190.969,156.968 232.041,166.626 233.246,165.926 "/>
<polygon fill="#5A5952" points="31.828,142.497 12.932,131.536 12.932,112.002 31.828,122.964 "/>
<polygon fill="#FCFCFD" points="31.863,141.529 13.863,131.07 13.863,112.542 31.863,123.001 "/>
<polygon fill="#DADAD9" points="31.863,140.698 14.529,130.626 14.529,112.926 31.828,122.964 "/>
<polygon fill="#EBF6FC" points="31.863,140.362 14.762,130.427 14.762,113.06 31.828,122.964 "/>
<polygon fill="#DADAD9" points="19.441,115.762 18.676,115.312 18.676,132.67 19.441,133.16 "/>
<polygon fill="#FCFCFD" points="19.242,115.646 18.477,115.197 18.477,132.919 19.242,133.409 "/>
<polygon fill="#DADAD9" points="26.986,120.149 26.221,119.7 26.221,137.058 26.986,137.548 "/>
<polygon fill="#FCFCFD" points="26.787,120.034 26.021,119.587 26.021,137.308 26.787,137.798 "/>
<polygon fill="#DADAD9" points="31.863,128.895 26.787,125.931 26.787,125.131 31.863,128.096 "/>
<polygon fill="#DADAD9" points="26.021,125.53 19.441,121.729 19.441,120.931 26.021,124.731 "/>
<polygon fill="#FCFCFD" points="31.863,129.136 14.529,119.128 14.529,118.329 31.863,128.335 "/>
<polygon fill="#706E65" points="31.863,141.529 31.828,142.497 12.93,131.536 13.863,131.07 "/>
<polygon fill="#DADAD9" points="18.477,120.351 14.531,118.092 14.531,118.329 18.477,120.587 "/>
<polygon fill="#5A5952" points="65.867,161.601 46.969,150.642 46.969,131.106 65.867,142.068 "/>
<polygon fill="#FCFCFD" points="65.9,160.634 47.902,150.175 47.902,131.647 65.9,142.105 "/>
<polygon fill="#DADAD9" points="65.9,159.803 48.566,149.73 48.566,132.03 65.865,142.067 "/>
<polygon fill="#EBF6FC" points="65.9,159.468 48.801,149.531 48.801,132.165 65.867,142.068 "/>
<polygon fill="#DADAD9" points="53.48,134.866 52.715,134.417 52.715,151.774 53.48,152.265 "/>
<polygon fill="#FCFCFD" points="53.281,134.751 52.514,134.302 52.514,152.024 53.281,152.515 "/>
<polygon fill="#DADAD9" points="61.023,139.254 60.26,138.805 60.26,156.162 61.023,156.652 "/>
<polygon fill="#FCFCFD" points="60.824,139.139 60.059,138.69 60.059,156.413 60.824,156.903 "/>
<polygon fill="#DADAD9" points="65.9,147.999 60.824,145.035 60.824,144.235 65.9,147.2 "/>
<polygon fill="#DADAD9" points="60.059,144.636 53.48,140.833 53.48,140.034 60.059,143.837 "/>
<polygon fill="#FCFCFD" points="65.9,148.24 48.566,138.231 48.566,137.434 65.9,147.439 "/>
<polygon fill="#706E65" points="65.9,160.634 65.865,161.601 46.969,150.642 47.902,150.175 "/>
<polygon fill="#DADAD9" points="52.514,139.456 48.568,137.196 48.568,137.434 52.514,139.691 "/>
<polygon fill="#5A5952" points="100.584,181.147 81.688,170.187 81.688,150.653 100.584,161.614 "/>
<polygon fill="#FCFCFD" points="100.619,180.181 82.619,169.721 82.619,151.193 100.619,161.651 "/>
<polygon fill="#DADAD9" points="100.619,179.35 83.285,169.276 83.285,151.576 100.584,161.614 "/>
<polygon fill="#EBF6FC" points="100.619,179.014 83.518,169.077 83.518,151.712 100.584,161.614 "/>
<polygon fill="#DADAD9" points="88.197,154.413 87.432,153.963 87.432,171.32 88.197,171.811 "/>
<polygon fill="#FCFCFD" points="87.998,154.298 87.232,153.849 87.232,171.569 87.998,172.062 "/>
<polygon fill="#DADAD9" points="95.742,158.8 94.977,158.351 94.977,175.71 95.742,176.198 "/>
<polygon fill="#FCFCFD" points="95.543,158.685 94.777,158.236 94.777,175.958 95.543,176.448 "/>
<polygon fill="#DADAD9" points="100.619,167.544 95.543,164.581 95.543,163.781 100.619,166.746 "/>
<polygon fill="#DADAD9" points="94.777,164.182 88.197,160.38 88.197,159.58 94.777,163.382 "/>
<polygon fill="#FCFCFD" points="100.619,167.786 83.285,157.778 83.285,156.979 100.619,166.985 "/>
<polygon fill="#706E65" points="100.619,180.181 100.584,181.147 81.686,170.187 82.619,169.721 "/>
<polygon fill="#DADAD9" points="87.232,159.001 83.287,156.743 83.287,156.979 87.232,159.237 "/>
<polygon fill="#5A5952" points="211.477,140.206 230.373,129.246 230.373,109.712 211.477,120.674 "/>
<polygon fill="#FCFCFD" points="211.443,139.239 229.441,128.78 229.441,110.253 211.443,120.711 "/>
<polygon fill="#DADAD9" points="211.443,138.409 228.775,128.337 228.775,110.636 211.477,120.674 "/>
<polygon fill="#EBF6FC" points="211.443,138.073 228.543,128.138 228.543,110.771 211.477,120.674 "/>
<polygon fill="#DADAD9" points="223.863,113.472 224.629,113.022 224.629,130.38 223.863,130.87 "/>
<polygon fill="#FCFCFD" points="224.062,113.356 224.828,112.907 224.828,130.63 224.062,131.12 "/>
<polygon fill="#DADAD9" points="216.32,117.859 217.084,117.41 217.084,134.769 216.32,135.257 "/>
<polygon fill="#FCFCFD" points="216.52,117.744 217.285,117.296 217.285,135.019 216.52,135.508 "/>
<polygon fill="#DADAD9" points="211.443,126.604 216.52,123.642 216.52,122.841 211.443,125.806 "/>
<polygon fill="#DADAD9" points="217.285,123.241 223.863,119.438 223.863,118.64 217.285,122.442 "/>
<polygon fill="#FCFCFD" points="211.443,126.845 228.775,116.838 228.775,116.038 211.443,126.045 "/>
<polygon fill="#706E65" points="211.443,139.239 211.477,140.206 230.375,129.246 229.441,128.78 "/>
<polygon fill="#DADAD9" points="224.828,118.062 228.775,115.802 228.775,116.038 224.828,118.297 "/>
<polygon fill="#5A5952" points="131.844,186.3 150.742,175.339 150.742,155.804 131.844,166.767 "/>
<polygon fill="#FCFCFD" points="131.811,185.333 149.809,174.873 149.809,156.345 131.811,166.804 "/>
<polygon fill="#DADAD9" points="131.811,184.502 149.145,174.429 149.145,156.729 131.844,166.767 "/>
<polygon fill="#EBF6FC" points="131.811,184.165 148.91,174.229 148.91,156.863 131.844,166.767 "/>
<polygon fill="#DADAD9" points="144.23,159.565 144.996,159.115 144.996,176.474 144.23,176.962 "/>
<polygon fill="#FCFCFD" points="144.43,159.45 145.195,159 145.195,176.722 144.43,177.213 "/>
<polygon fill="#DADAD9" points="136.688,163.952 137.451,163.503 137.451,180.861 136.688,181.351 "/>
<polygon fill="#FCFCFD" points="136.887,163.837 137.652,163.389 137.652,181.11 136.887,181.601 "/>
<polygon fill="#DADAD9" points="131.811,172.697 136.887,169.733 136.887,168.934 131.811,171.899 "/>
<polygon fill="#DADAD9" points="137.652,169.333 144.23,165.532 144.23,164.733 137.652,168.534 "/>
<polygon fill="#FCFCFD" points="131.811,172.938 149.145,162.931 149.145,162.132 131.811,172.138 "/>
<polygon fill="#706E65" points="131.811,185.333 131.844,186.3 150.742,175.339 149.809,174.873 "/>
<polygon fill="#DADAD9" points="145.195,164.153 149.143,161.896 149.143,162.132 145.195,164.39 "/>
<polygon fill="#EBECED" points="10.609,201.13 30.666,212.596 33.35,211.061 33.35,209.94 10.609,200.011 "/>
<polygon fill="#B4B4AA" points="10.609,200.011 30.666,211.476 33.35,209.94 13.293,198.477 "/>
<polygon fill="#FCFCFD" points="29.07,208.698 14.947,200.841 15.123,165.905 28.861,173.056 "/>
<polygon fill="#DADAD9" points="29.064,207.524 15.893,200.191 15.689,165.717 28.812,173.003 "/>
<polygon fill="#C8E1F0" points="29.062,207.052 16.227,199.903 16.025,165.9 28.812,173.003 "/>
<polygon fill="#DADAD9" points="22.725,169.536 21.629,168.934 21.828,202.923 22.926,203.586 "/>
<polygon fill="#FCFCFD" points="22.439,169.382 21.344,168.778 21.547,203.283 22.643,203.947 "/>
<polygon fill="#DADAD9" points="28.91,181.287 22.773,177.94 22.768,176.815 28.902,180.162 "/>
<polygon fill="#DADAD9" points="21.395,177.337 15.74,174.229 15.732,173.104 21.387,176.212 "/>
<polygon fill="#FCFCFD" points="28.912,181.692 15.742,174.448 15.734,173.323 28.906,180.566 "/>
<polygon fill="#EBECED" points="22.496,163.7 20.92,164.664 29.707,176.649 31.418,175.685 "/>
<polygon fill="#D4D4BE" points="31.418,175.685 29.707,176.649 29.711,176.973 31.418,175.968 "/>
<polygon fill="#FAF9F1" points="29.711,177.495 31.898,176.244 31.418,175.968 29.711,176.973 "/>
<polygon fill="#EEF0E6" points="29.711,177.495 11.842,167.13 14.283,165.759 12.598,167.019 29.711,176.973 "/>
<polygon fill="#D4D4BE" points="29.711,178.364 31.898,177.104 31.898,176.244 29.711,177.495 "/>
<polygon fill="#CCCBB6" points="29.711,178.364 11.842,167.991 11.842,167.13 29.711,177.495 "/>
<polygon fill="#C6C8CA" points="22.496,163.7 20.92,164.664 12.598,166.726 14.283,165.759 "/>
<polygon fill="#D7D9CF" points="20.92,165.255 29.178,176.246 13.098,166.896 "/>
<polygon fill="#C6C7BC" points="29.711,176.973 29.178,176.246 13.098,166.896 12.598,167.019 "/>
<polygon fill="#B7B8AB" points="29.711,176.973 29.42,176.804 20.92,165.255 20.92,164.655 29.707,176.649 "/>
<polygon fill="#94958B" points="12.598,166.726 20.92,164.655 20.92,165.255 12.834,167.155 12.598,167.019 "/>
<polygon fill="#EBECED" points="31.898,209.404 29.711,210.666 29.711,178.364 31.898,177.104 "/>
<polygon fill="#EBECED" points="15.076,200.723 12.936,201.341 12.936,168.661 15.123,169.896 "/>
<polygon fill="#D7D9CF" points="28.617,210.024 29.711,210.666 29.711,178.364 28.617,177.723 "/>
<polygon fill="#D7D9CF" points="11.842,200.716 12.936,201.341 12.936,168.542 11.842,167.901 "/>
<polygon fill="#EBECED" points="44.371,221.077 64.428,232.542 67.111,231.007 67.111,229.886 44.371,219.957 "/>
<polygon fill="#B4B4AA" points="44.371,219.957 64.428,231.421 67.111,229.886 47.053,218.423 "/>
<polygon fill="#FCFCFD" points="62.832,228.644 48.709,220.787 48.885,185.852 62.623,193.002 "/>
<polygon fill="#DADAD9" points="62.826,227.472 49.654,220.138 49.451,185.663 62.574,192.95 "/>
<polygon fill="#C8E1F0" points="62.822,226.998 49.988,219.85 49.787,185.847 62.574,192.95 "/>
<polygon fill="#DADAD9" points="56.484,189.482 55.389,188.88 55.59,222.868 56.686,223.532 "/>
<polygon fill="#FCFCFD" points="56.201,189.327 55.104,188.724 55.309,223.229 56.402,223.894 "/>
<polygon fill="#DADAD9" points="62.67,201.233 56.535,197.888 56.529,196.761 62.664,200.108 "/>
<polygon fill="#DADAD9" points="55.154,197.282 49.5,194.175 49.494,193.05 55.148,196.159 "/>
<polygon fill="#FCFCFD" points="62.674,201.638 49.504,194.394 49.496,193.27 62.666,200.513 "/>
<polygon fill="#EBECED" points="56.256,183.646 54.68,184.61 63.469,196.596 65.18,195.631 "/>
<polygon fill="#D4D4BE" points="65.18,195.631 63.469,196.596 63.473,196.919 65.18,195.913 "/>
<polygon fill="#FAF9F1" points="63.473,197.44 65.658,196.189 65.18,195.913 63.473,196.919 "/>
<polygon fill="#EEF0E6" points="63.473,197.44 45.602,187.076 48.043,185.705 46.357,186.965 63.473,196.919 "/>
<polygon fill="#D4D4BE" points="63.473,198.31 65.658,197.051 65.658,196.189 63.473,197.44 "/>
<polygon fill="#CCCBB6" points="63.473,198.31 45.602,187.937 45.602,187.076 63.473,197.44 "/>
<polygon fill="#C6C8CA" points="56.256,183.646 54.68,184.61 46.357,186.671 48.043,185.705 "/>
<polygon fill="#D7D9CF" points="54.68,185.2 62.939,196.192 46.859,186.841 "/>
<polygon fill="#C6C7BC" points="63.473,196.919 62.939,196.192 46.859,186.841 46.357,186.965 "/>
<polygon fill="#B7B8AB" points="63.473,196.919 63.182,196.749 54.68,185.2 54.68,184.601 63.469,196.596 "/>
<polygon fill="#94958B" points="46.357,186.671 54.68,184.601 54.68,185.2 46.596,187.102 46.357,186.965 "/>
<polygon fill="#EBECED" points="65.658,229.351 63.473,230.612 63.473,198.31 65.658,197.051 "/>
<polygon fill="#EBECED" points="48.838,220.669 46.697,221.286 46.697,188.606 48.885,189.842 "/>
<polygon fill="#D7D9CF" points="62.377,229.97 63.473,230.612 63.473,198.31 62.377,197.669 "/>
<polygon fill="#D7D9CF" points="45.602,220.661 46.697,221.286 46.697,188.488 45.602,187.847 "/>
<polygon fill="#EBECED" points="77.844,239.868 97.902,251.333 100.584,249.798 100.584,248.677 77.844,238.748 "/>
<polygon fill="#B4B4AA" points="77.844,238.748 97.902,250.212 100.584,248.677 80.527,237.213 "/>
<polygon fill="#FCFCFD" points="96.307,247.435 82.184,239.577 82.357,204.643 96.096,211.794 "/>
<polygon fill="#DADAD9" points="96.299,246.262 83.129,238.929 82.926,204.454 96.047,211.741 "/>
<polygon fill="#C8E1F0" points="96.297,245.789 83.463,238.642 83.262,204.638 96.047,211.741 "/>
<polygon fill="#DADAD9" points="89.959,208.274 88.863,207.671 89.064,241.659 90.16,242.323 "/>
<polygon fill="#FCFCFD" points="89.674,208.12 88.578,207.517 88.781,242.02 89.877,242.685 "/>
<polygon fill="#DADAD9" points="96.145,220.024 90.01,216.678 90.002,215.552 96.139,218.899 "/>
<polygon fill="#DADAD9" points="88.629,216.074 82.975,212.968 82.969,211.841 88.623,214.949 "/>
<polygon fill="#FCFCFD" points="96.148,220.429 82.977,213.187 82.969,212.062 96.141,219.303 "/>
<polygon fill="#EBECED" points="89.73,202.437 88.154,203.401 96.943,215.388 98.652,214.421 "/>
<polygon fill="#D4D4BE" points="98.652,214.421 96.943,215.388 96.945,215.71 98.652,214.706 "/>
<polygon fill="#FAF9F1" points="96.945,216.231 99.133,214.98 98.652,214.706 96.945,215.71 "/>
<polygon fill="#EEF0E6" points="96.945,216.231 79.076,205.866 81.518,204.497 79.832,205.757 96.945,215.71 "/>
<polygon fill="#D4D4BE" points="96.945,217.102 99.133,215.841 99.133,214.98 96.945,216.231 "/>
<polygon fill="#CCCBB6" points="96.945,217.102 79.076,206.729 79.076,205.866 96.945,216.231 "/>
<polygon fill="#C6C8CA" points="89.73,202.437 88.154,203.401 79.832,205.463 81.518,204.497 "/>
<polygon fill="#D7D9CF" points="88.154,203.993 96.414,214.983 80.332,205.634 "/>
<polygon fill="#C6C7BC" points="96.945,215.71 96.414,214.983 80.332,205.634 79.832,205.757 "/>
<polygon fill="#B7B8AB" points="96.945,215.71 96.654,215.542 88.154,203.993 88.154,203.392 96.943,215.388 "/>
<polygon fill="#94958B" points="79.832,205.463 88.154,203.392 88.154,203.993 80.068,205.894 79.832,205.757 "/>
<polygon fill="#EBECED" points="99.133,248.142 96.945,249.403 96.945,217.102 99.133,215.841 "/>
<polygon fill="#EBECED" points="82.312,239.46 80.17,240.077 80.17,207.399 82.357,208.633 "/>
<polygon fill="#D7D9CF" points="95.852,248.761 96.945,249.403 96.945,217.102 95.852,216.46 "/>
<polygon fill="#D7D9CF" points="79.076,239.452 80.17,240.077 80.17,207.28 79.076,206.639 "/>
<polygon fill="#A3A677" points="138.988,304.171 0.004,223.532 0.004,202.71 138.988,283.35 "/>
<polygon fill="#8E9268" points="177.975,260.675 138.988,283.35 138.988,304.171 177.975,281.497 "/>
<polygon fill="#8E9268" points="255.387,215.466 216.398,238.14 216.398,258.962 255.387,236.287 "/>
<polygon fill="#BABE89" points="241.391,272.917 238.027,275.011 212.99,240.207 216.354,238.112 241.391,268.359 "/>
<polygon fill="#8E9268" points="238.027,275.011 212.99,260.937 212.99,240.207 238.027,270.454 "/>
<polygon fill="#9EA374" points="241.391,272.917 238.027,275.011 238.027,270.454 241.391,268.359 "/>
<polygon fill="#9EA374" points="212.99,241.921 181.338,260.294 181.338,258.581 212.99,240.207 "/>
<polygon fill="#C5C992" points="212.99,241.919 181.338,260.294 182.826,261.144 214.479,242.769 "/>
<polygon fill="#9EA374" points="214.541,244.446 182.889,262.82 182.889,261.106 214.541,242.733 "/>
<polygon fill="#C5C992" points="214.541,244.444 182.889,262.82 184.377,263.669 216.029,245.294 "/>
<polygon fill="#9EA374" points="214.506,244.5 182.852,262.874 182.852,261.159 214.506,242.787 "/>
<polygon fill="#C5C992" points="214.506,244.499 182.852,262.874 184.34,263.724 215.992,245.349 "/>
<polygon fill="#9EA374" points="216.033,247.052 184.379,265.427 184.379,263.712 216.033,245.339 "/>
<polygon fill="#C5C992" points="216.031,247.052 184.379,265.427 185.867,266.276 217.52,247.901 "/>
<polygon fill="#9EA374" points="217.547,249.617 185.895,267.99 185.895,266.277 217.547,247.903 "/>
<polygon fill="#C5C992" points="217.547,249.615 185.895,267.99 187.383,268.839 219.035,250.465 "/>
<polygon fill="#9EA374" points="219.025,252.181 187.373,270.554 187.373,268.841 219.025,250.467 "/>
<polygon fill="#C5C992" points="219.025,252.179 187.373,270.554 188.861,271.403 220.514,253.028 "/>
<polygon fill="#9EA374" points="220.541,254.733 188.889,273.106 188.889,271.394 220.541,253.021 "/>
<polygon fill="#C5C992" points="220.539,254.731 188.889,273.106 190.375,273.956 222.027,255.581 "/>
<polygon fill="#9EA374" points="222.043,257.298 190.391,275.671 190.391,273.958 222.043,255.584 "/>
<polygon fill="#C5C992" points="222.043,257.296 190.391,275.671 191.879,276.521 223.531,258.146 "/>
<polygon fill="#9EA374" points="223.527,259.851 191.875,278.224 191.875,276.51 223.527,258.136 "/>
<polygon fill="#C5C992" points="223.527,259.848 191.875,278.224 193.363,279.073 225.016,260.698 "/>
<polygon fill="#9EA374" points="225.031,262.399 193.379,280.772 193.379,279.06 225.031,260.686 "/>
<polygon fill="#C5C992" points="225.031,262.397 193.379,280.772 194.865,281.622 226.518,263.247 "/>
<polygon fill="#9EA374" points="226.516,264.958 194.863,283.331 194.863,281.618 226.516,263.243 "/>
<polygon fill="#C5C992" points="226.514,264.956 194.863,283.331 196.352,284.181 228.002,265.806 "/>
<polygon fill="#9EA374" points="228.018,267.507 196.365,285.88 196.365,284.167 228.018,265.793 "/>
<polygon fill="#C5C992" points="228.018,267.505 196.365,285.88 197.854,286.729 229.506,268.354 "/>
<polygon fill="#9EA374" points="229.512,270.074 197.859,288.447 197.859,286.733 229.512,268.36 "/>
<polygon fill="#C5C992" points="229.512,270.071 197.859,288.447 199.348,289.297 231,270.922 "/>
<polygon fill="#BABE89" points="206.375,293.385 203.012,295.479 177.975,260.675 181.338,258.581 206.375,288.827 "/>
<polygon fill="#8E9268" points="203.012,295.479 177.975,281.405 177.975,260.675 203.012,290.923 "/>
<polygon fill="#9EA374" points="206.375,293.385 203.012,295.479 203.012,290.923 206.375,288.827 "/>
<polygon fill="#D7D9CF" points="119.41,49.711 101.125,39.077 101.125,19.001 119.41,29.636 "/>
<polygon fill="#94958B" points="119.41,49.711 137.178,39.374 137.178,19.329 119.41,29.667 "/>
<polygon fill="#FAF9F1" points="119.52,29.972 101.139,19.248 101.139,18.698 119.998,29.696 "/>
<polygon fill="#D4D4BE" points="119.52,30.834 101.139,20.075 101.139,19.248 119.52,29.972 "/>
<polygon fill="#EEF0E6" points="119.52,29.974 137.471,19.523 137.471,19.003 119.52,29.456 "/>
<polygon fill="#CCCBB6" points="119.52,30.836 137.471,20.377 137.471,19.523 119.52,29.974 "/>
<polygon fill="#767B57" points="112.531,45.775 104.406,41.158 104.406,25.939 112.531,30.557 "/>
</svg>
