<?xml version="1.0" encoding="utf-8"?>
<!-- Generator: Adobe Illustrator 15.1.0, SVG Export Plug-In  -->
<!DOCTYPE svg PUBLIC "-//W3C//DTD SVG 1.1//EN" "http://www.w3.org/Graphics/SVG/1.1/DTD/svg11.dtd" [
	<!ENTITY ns_flows "http://ns.adobe.com/Flows/1.0/">
]>
<svg version="1.1"
	 xmlns="http://www.w3.org/2000/svg" xmlns:xlink="http://www.w3.org/1999/xlink" xmlns:a="http://ns.adobe.com/AdobeSVGViewerExtensions/3.0/"
	 x="0px" y="0px" width="472px" height="382px" viewBox="-0.228 -0.035 472 382"
	 overflow="visible" enable-background="new -0.228 -0.035 472 382" xml:space="preserve">
<defs>
</defs>
<path fill="#2D2221" d="M243.927,287.742c-0.687,0.035-1.42,0.105-2.187,0.209c0.898-0.146,1.615-0.242,2.25-0.283L243.927,287.742
	 M166.728,339.912c-0.037-0.018-0.424-0.205-1.206-0.535c-0.727-0.305-1.783-0.734-3.249-1.281c1.354,0.469,2.613,0.938,3.433,1.303
	C166.021,339.537,166.362,339.717,166.728,339.912 M157.522,340.682l-0.022-0.092c-0.068-0.412-0.041-0.869,0.016-1.342l0.217,0.033
	C157.601,339.783,157.537,340.244,157.522,340.682 M238.51,284.998c-0.486,0.127-0.958,0.256-1.453,0.396l-0.117-0.02
	C237.472,285.244,237.991,285.117,238.51,284.998 M156.036,339.615c0-0.203,0.001-0.402,0.031-0.613l0.104,0.016
	C156.117,339.223,156.069,339.42,156.036,339.615 M233.922,286.348c-0.922,0.299-1.859,0.613-2.818,0.951l0.875,0.146h0.011
	c-0.614-0.043-1.18-0.086-1.671-0.127c1.11-0.367,2.21-0.713,3.28-1.027L233.922,286.348 M161.36,337.783
	c-0.724-0.23-1.664-0.506-2.745-0.805c-0.154,0.309-0.28,0.609-0.404,0.904l-0.367-0.064c0.102-0.307,0.217-0.627,0.363-0.961
	l-1.104-0.186c-0.17,0.328-0.317,0.643-0.443,0.949l-0.283-0.049c0.111-0.385,0.253-0.789,0.443-1.203
	C157.991,336.699,159.694,337.23,161.36,337.783 M134.514,331.754c-0.447,0.016-0.88,0.016-1.288-0.004
	c-0.093-0.002-0.17-0.012-0.259-0.014c-0.384-0.025-0.756-0.061-1.104-0.121c-0.734-0.119-1.338-0.328-1.828-0.592
	C131.295,331.238,132.863,331.488,134.514,331.754 M205.735,284.045c-1.646-0.281-3.19-0.555-4.444-0.773
	c0.06,0.014,0.117,0.021,0.176,0.031c0.887-0.014,1.708,0.021,2.42,0.141c0.294,0.051,0.562,0.115,0.817,0.186
	c0.05,0.018,0.096,0.027,0.149,0.047C205.184,283.777,205.473,283.906,205.735,284.045 M304.176,215.002
	c-0.63,0.041-1.305,0.109-2.005,0.201c0.811-0.137,1.471-0.217,2.067-0.27L304.176,215.002 M217.962,267.941l-0.021-0.1
	c-0.067-0.414-0.041-0.873,0.02-1.344l0.215,0.033C218.051,267.027,217.982,267.496,217.962,267.941 M298.969,212.246
	c-0.49,0.131-0.977,0.26-1.47,0.4l-0.117-0.021C297.916,212.494,298.446,212.365,298.969,212.246 M216.48,266.865
	c0.002-0.199,0.009-0.406,0.033-0.611l0.1,0.016C216.561,266.471,216.516,266.67,216.48,266.865 M294.369,213.6
	c-0.928,0.297-1.866,0.611-2.821,0.947l0.877,0.148h-0.004l0.011,0.002c-0.613-0.043-1.173-0.088-1.668-0.123
	c1.114-0.371,2.207-0.713,3.275-1.031L294.369,213.6 M266.178,211.299c-1.883-0.33-3.639-0.637-4.977-0.863l0.021,0.004
	c0.092,0.016,0.205,0.031,0.309,0.051c0.124,0.02,0.248,0.041,0.381,0.066c0.886-0.018,1.705,0.018,2.419,0.139
	c0.294,0.051,0.565,0.113,0.819,0.188c0.046,0.016,0.098,0.029,0.146,0.043C265.626,211.029,265.915,211.158,266.178,211.299
	 M216.166,178.814c-7.465,4.994-11.508,9.375-9.04,9.793c0.144,0.025,0.314,0.029,0.495,0.027c0.1,0.047,0.221,0.092,0.362,0.117
	l11.05,1.859l11.672,1.971l11.511,1.938l11.052,1.863l11.67,1.965l10.456,1.764l11.054,1.865l11.671,1.965l10.915,1.842l2.445,0.408
	l-3.291,3.971c-1.423,0.037-3.02,0.205-4.755,0.496c-2.282,0.381-4.804,0.967-7.487,1.729l-1.051-0.18
	c-0.199-0.035-0.76,0.205-1.246,0.529c-0.292,0.201-0.484,0.379-0.553,0.5c-1.129,0.357-2.293,0.744-3.467,1.16l0.979,0.164
	c-3.978-0.328-11.577-1.225-15.268-1.744c-0.438-0.062-0.924-0.129-1.438-0.213c1.082-3.139-0.021-5.248-3.662-5.861
	c-0.291-0.047-0.614-0.066-0.921-0.1c-0.13-0.025-0.247-0.061-0.38-0.086c-0.247-0.041-0.513-0.064-0.78-0.094
	c-0.21-0.051-0.423-0.104-0.658-0.146c-0.217-0.033-0.476-0.043-0.707-0.07c0.008-0.049,0.004-0.082-0.049-0.094
	c-0.064-0.01-0.178,0.021-0.304,0.057c-1.69-0.123-3.755,0.02-6.105,0.408c-2.068,0.346-4.372,0.891-6.808,1.584l-0.984-0.168
	c-0.18-0.027-0.69,0.188-1.131,0.482c-0.117,0.08-0.204,0.152-0.289,0.221c-0.222-0.037-0.461-0.066-0.704-0.088
	c-0.686-0.107-1.305-0.213-1.826-0.301c-0.243-0.068-0.504-0.123-0.786-0.168c-0.293-0.051-0.604-0.086-0.935-0.111h-0.006
	c-9.488-0.752-31.775,8.525-50.82,21.262c-4.186,2.803-7.867,5.539-11.011,8.139l-3.851-0.648c-0.147-0.025-0.311-0.033-0.497-0.029
	c-0.092-0.049-0.22-0.092-0.361-0.117c-2.471-0.414-10.519,3.297-17.978,8.281c-7.457,4.986-11.51,9.375-9.04,9.791
	c0.144,0.023,0.319,0.027,0.493,0.029c0.104,0.049,0.219,0.092,0.367,0.117l11.051,1.859l11.667,1.969l2.743,0.463
	c0.045,0.432,0.146,0.834,0.334,1.193c0.452,0.855,1.284,1.498,2.55,1.881c-0.013,0.045-0.002,0.078,0.055,0.09l0.199-0.021
	c0.237,0.064,0.466,0.133,0.732,0.178c0.236,0.035,0.48,0.068,0.732,0.09c0.226,0.059,0.454,0.109,0.706,0.154
	c0.706,0.117,1.487,0.176,2.343,0.178c2.377,0.229,5.484-0.113,9.098-0.922l3.073,0.518l11.671,1.971l4.129,0.695l-0.146,0.088
	c-0.486,0.322-0.721,0.617-0.525,0.652l0.561,0.092c-0.352,1.391-0.293,2.59,0.217,3.551c0.489,0.936,1.399,1.648,2.785,2.068
	c-0.011,0.049,0.004,0.082,0.064,0.092l0.166-0.023c0.267,0.076,0.551,0.141,0.855,0.193c0.256,0.043,0.532,0.072,0.808,0.1
	c0.245,0.061,0.493,0.121,0.763,0.166c0.775,0.129,1.64,0.191,2.565,0.195c2.749,0.266,6.364-0.154,10.612-1.152
	c1.671,0.924,3.983,2.176,5.198,2.906c0.464,0.279,1.242,0.773,2.035,1.293c0.605,0.396,1.219,0.803,1.722,1.129
	c0.042,0.035,0.09,0.076,0.137,0.115l-4.83-2.98c-0.419,1.447-0.461,2.711-0.046,3.74c0.617,1.5,2.136,2.52,4.669,2.945
	c1.965,0.332,4.42,0.285,7.263-0.09l-2.186,2.641c-1.479,0.027-3.141,0.195-4.948,0.498c-2.284,0.379-4.804,0.967-7.488,1.727
	l-1.05-0.176c-0.202-0.033-0.763,0.205-1.249,0.529c-0.295,0.197-0.486,0.381-0.551,0.5c-1.135,0.361-2.29,0.742-3.469,1.158
	l0.981,0.164c-3.985-0.32-11.575-1.225-15.274-1.746c-0.432-0.057-0.923-0.125-1.436-0.209c1.078-3.133-0.025-5.242-3.666-5.859
	c-0.289-0.045-0.619-0.062-0.926-0.1c-0.124-0.027-0.243-0.059-0.382-0.082c-0.243-0.041-0.504-0.074-0.767-0.1
	c-0.213-0.055-0.431-0.105-0.665-0.137c-0.222-0.043-0.472-0.051-0.702-0.078c0.01-0.051,0-0.078-0.061-0.092
	c-0.057-0.01-0.167,0.016-0.287,0.053c-1.697-0.127-3.762,0.023-6.107,0.408c-2.076,0.352-4.379,0.895-6.813,1.58l-0.983-0.162
	c-0.181-0.031-0.688,0.186-1.131,0.48c-0.117,0.078-0.21,0.154-0.284,0.221c-0.226-0.039-0.469-0.059-0.712-0.084
	c-0.678-0.115-1.297-0.217-1.822-0.301c-0.241-0.07-0.506-0.127-0.782-0.178l-0.004,0.002c-0.296-0.051-0.604-0.082-0.931-0.107
	l-0.01-0.002c-9.494-0.746-31.773,8.525-50.824,21.268c-18.768,12.555-27.614,23.943-20.723,26.285l0.024,0.008
	c0.328,0.117,0.692,0.213,1.1,0.281l0.004-0.002c0.371,0.066,0.771,0.102,1.192,0.127c0.365,0.064,0.77,0.131,1.195,0.213
	c0.281,0.08,0.572,0.156,0.902,0.209l-0.012,0.006c-0.438,0.299-0.652,0.562-0.472,0.596l0.55,0.092
	c-0.315,1.256-0.298,2.363,0.162,3.229c0.441,0.855,1.282,1.496,2.553,1.877c-0.014,0.047-0.011,0.086,0.047,0.094l0.201-0.025
	c0.238,0.062,0.462,0.139,0.731,0.184c0.236,0.039,0.486,0.062,0.74,0.088c0.222,0.055,0.448,0.113,0.691,0.152
	c0.71,0.123,1.499,0.172,2.348,0.178c3.655,0.35,9.007-0.627,15.35-2.631c0.493,0.088,0.943,0.176,1.347,0.254
	c3.452,0.686,10.156,2.186,13.293,3.072l-1.107-0.188c-0.297,0.568-0.532,1.117-0.728,1.641c-0.108,0.062-0.22,0.127-0.337,0.205
	c-0.482,0.324-0.713,0.615-0.51,0.648l0.56,0.094c-0.356,1.387-0.295,2.59,0.209,3.553c0.497,0.934,1.395,1.648,2.786,2.07
	c-0.006,0.039,0.012,0.074,0.066,0.086l0.164-0.018c0.273,0.068,0.552,0.135,0.856,0.188c0.261,0.045,0.534,0.074,0.808,0.098
	c0.243,0.068,0.5,0.123,0.77,0.17c0.774,0.131,1.637,0.188,2.569,0.195c2.749,0.264,6.355-0.154,10.606-1.154
	c1.666,0.924,3.982,2.174,5.199,2.906c0.459,0.277,1.234,0.781,2.031,1.297c0.61,0.395,1.223,0.797,1.72,1.129
	c0.044,0.041,0.096,0.08,0.146,0.119l-4.837-2.988c-0.417,1.449-0.465,2.719-0.041,3.74c0.612,1.498,2.135,2.52,4.663,2.945
	c12.787,2.154,46.141-11.477,74.504-30.449c6.395-4.277,11.973-8.453,16.653-12.396l5.272,0.795l98.133-42.5l42.566-51.387
	l4.683-5.533l-0.085-0.02l30.471-36.785l1.646,0.318l-0.252,0.172c0.135,0.021,0.358-0.021,0.617-0.096l3.305,0.645l-0.391,0.262
	c0.178,0.029,0.482-0.039,0.852-0.172l0.893,0.176c0.433,0.072,1.577-0.404,2.557-1.053c0.978-0.652,1.423-1.25,0.992-1.32
	l-0.923-0.182c0.081-0.162,0.048-0.27-0.114-0.297l-0.318,0.213l-3.164-0.617c0.154-0.225,0.154-0.373-0.048-0.408l-0.456,0.305
	l-3.008-0.586l0.418-0.508l0.998,0.199l-0.244,0.168c0.137,0.023,0.357-0.02,0.621-0.098l3.3,0.648l-0.391,0.264
	c0.176,0.025,0.474-0.039,0.851-0.176l0.896,0.18c0.431,0.072,1.57-0.398,2.554-1.057c0.979-0.656,1.426-1.246,0.993-1.32
	l-0.923-0.178c0.082-0.164,0.052-0.273-0.115-0.301l-0.317,0.215l-3.158-0.621c0.149-0.219,0.147-0.371-0.052-0.406l-0.463,0.309
	l-2.361-0.463l0.572-0.691l0.948,0.191l-0.249,0.16c0.137,0.029,0.352-0.01,0.617-0.092l3.299,0.643l-0.391,0.266
	c0.176,0.027,0.481-0.033,0.857-0.17l0.895,0.174c0.433,0.07,1.568-0.398,2.555-1.057c0.978-0.654,1.427-1.244,0.994-1.318
	l-0.925-0.18c0.081-0.164,0.048-0.273-0.119-0.299l-0.317,0.213l-3.16-0.617c0.156-0.223,0.154-0.375-0.046-0.408l-0.465,0.309
	l-2.307-0.455l0.411-0.5l0.312,0.059l-0.244,0.166c0.135,0.023,0.351-0.016,0.606-0.092l3.312,0.641l-0.393,0.264
	c0.178,0.027,0.476-0.035,0.849-0.168l0.893,0.174c0.433,0.076,1.577-0.4,2.557-1.055c0.98-0.658,1.432-1.252,0.999-1.322
	l-0.925-0.182c0.084-0.16,0.048-0.27-0.113-0.295l-0.316,0.211L466.946,163c0.152-0.229,0.152-0.377-0.048-0.412l-0.463,0.309
	l-3.479-0.678c0.055-0.139,0.016-0.229-0.133-0.256l-0.261,0.172l-3.494-0.68c0.106-0.18,0.086-0.307-0.1-0.336l-0.369,0.248
	l-3.278-0.645c0.043-0.127,0.005-0.219-0.135-0.242l-0.247,0.166l-3.476-0.676c-0.009-0.072-0.048-0.127-0.147-0.143l-0.122,0.084
	l-3.269-0.635c0.115-0.195,0.104-0.326-0.08-0.354l-0.392,0.26l-1.121-0.219l0.298-0.229c-0.124-0.002-0.323,0.061-0.578,0.172
	l-0.258-0.053c0,0-0.25-0.041-0.745-0.014l0.144-0.16c-0.131,0.027-0.294,0.094-0.482,0.193c-0.209,0.018-0.454,0.055-0.74,0.111
	l0.095-0.123c-0.142,0.033-0.298,0.105-0.462,0.201c-0.209,0.049-0.429,0.1-0.668,0.17l0.094-0.164
	c-0.156,0.043-0.341,0.139-0.521,0.26c-0.032,0.021-0.066,0.043-0.096,0.064l-0.242,0.074c-0.272,0.096-0.535,0.197-0.795,0.305
	l0.043-0.148c-0.128,0.047-0.252,0.107-0.369,0.188c-0.101,0.066-0.204,0.148-0.298,0.238c-0.352,0.164-0.678,0.332-0.967,0.492
	l-24.09-4.061l-74.214,32.143l-5.43-0.916l-10.916-1.84l-11.671-1.965l-11.05-1.863l-10.458-1.764l-11.673-1.967l-11.052-1.863
	l-11.508-1.939l-11.672-1.967l-11.054-1.861c-0.142-0.023-0.309-0.037-0.489-0.029c-0.1-0.051-0.222-0.09-0.366-0.113
	C231.674,170.119,223.625,173.826,216.166,178.814"/>
<rect x="311.943" y="321.857" fill="#949494" width="68.411" height="4.027"/>
<polygon fill="#C2C2C1" points="49.447,246.908 140.669,194.227 140.669,141.547 3.797,167.883 3.797,220.564 "/>
<polygon fill="#9D9E9D" points="49.447,194.227 140.669,141.547 95.02,115.201 3.797,167.883 "/>
<polygon fill="#B4B4B3" points="49.447,194.227 3.797,167.883 3.618,220.764 49.41,247.012 "/>
<polygon fill="#9D9E9D" points="48.181,196.422 144.468,140.816 96.285,113.008 0,168.615 "/>
<polygon fill="#8D887C" points="48.181,196.422 48.181,185.447 36.03,161.352 0,168.615 "/>
<polygon fill="#736E63" points="96.285,113.008 0,168.615 36.03,161.352 104.628,121.734 "/>
<ellipse fill="#CFCFCF" cx="116.424" cy="142.5" rx="5.551" ry="3.24"/>
<rect x="110.873" y="83.686" fill="#CFCFCF" width="8.169" height="58.814"/>
<rect x="119.042" y="83.686" fill="#C4C4C4" width="2.933" height="58.814"/>
<ellipse fill="#878787" cx="116.424" cy="83.686" rx="5.551" ry="3.242"/>
<path fill="#262626" d="M116.423,82.758c-2.077,0-3.829,0.777-4.485,1.857c-0.177-0.293-0.294-0.602-0.294-0.93
	c0-1.543,2.142-2.791,4.779-2.791c2.643,0,4.78,1.248,4.78,2.791c0,0.328-0.115,0.637-0.293,0.93
	C120.252,83.535,118.503,82.758,116.423,82.758z"/>
<path d="M116.423,86.475c-2.077,0-3.829-0.777-4.485-1.859c0.656-1.08,2.408-1.857,4.485-1.857c2.08,0,3.829,0.777,4.487,1.857
	C120.252,85.697,118.503,86.475,116.423,86.475z"/>
<ellipse fill="#CFCFCF" cx="100.89" cy="150.547" rx="5.552" ry="3.24"/>
<rect x="95.338" y="91.732" fill="#CFCFCF" width="8.168" height="58.814"/>
<rect x="103.506" y="91.732" fill="#C4C4C4" width="2.936" height="58.814"/>
<path fill="#878787" d="M95.338,91.732c0,1.787,2.485,3.238,5.55,3.238c3.067,0,5.554-1.451,5.554-3.238
	c0-1.791-2.486-3.242-5.554-3.242C97.823,88.49,95.338,89.941,95.338,91.732z"/>
<path fill="#262626" d="M100.888,90.803c-2.076,0-3.827,0.777-4.487,1.859c-0.176-0.291-0.293-0.604-0.293-0.93
	c0-1.545,2.141-2.791,4.78-2.791s4.78,1.246,4.78,2.791c0,0.326-0.114,0.639-0.295,0.93
	C104.717,91.58,102.967,90.803,100.888,90.803z"/>
<path d="M100.888,94.521c-2.076,0-3.827-0.779-4.487-1.859c0.66-1.082,2.411-1.859,4.487-1.859c2.079,0,3.829,0.777,4.485,1.859
	C104.717,93.742,102.967,94.521,100.888,94.521z"/>
<path fill="#CFCFCF" d="M28.091,204.561c0,1.789,2.483,3.238,5.548,3.238c3.069,0,5.554-1.449,5.554-3.238
	c0-1.791-2.484-3.242-5.554-3.242C30.574,201.318,28.091,202.77,28.091,204.561z"/>
<rect x="28.091" y="145.742" fill="#CFCFCF" width="8.167" height="58.818"/>
<rect x="36.258" y="145.742" fill="#C4C4C4" width="2.935" height="58.818"/>
<path fill="#878787" d="M28.091,145.742c0,1.791,2.483,3.242,5.548,3.242c3.069,0,5.554-1.451,5.554-3.242s-2.484-3.242-5.554-3.242
	C30.574,142.5,28.091,143.951,28.091,145.742z"/>
<path fill="#262626" d="M33.639,144.814c-2.076,0-3.827,0.779-4.485,1.859c-0.179-0.291-0.293-0.604-0.293-0.932
	c0-1.541,2.14-2.791,4.778-2.791c2.643,0,4.78,1.25,4.78,2.791c0,0.328-0.114,0.641-0.293,0.932
	C37.468,145.594,35.719,144.814,33.639,144.814z"/>
<path d="M33.639,148.533c-2.076,0-3.827-0.779-4.485-1.859c0.658-1.08,2.409-1.859,4.485-1.859c2.08,0,3.829,0.779,4.487,1.859
	C37.468,147.754,35.719,148.533,33.639,148.533z"/>
<polygon fill="#DADAD9" points="277.723,248.482 371.668,194.227 371.668,191.527 183.698,194.225 "/>
<polygon fill="#DADAD9" points="277.723,245.781 371.668,191.527 277.643,137.271 183.698,191.527 "/>
<polygon fill="#A9A9A9" points="277.721,246.908 368.944,194.227 368.944,141.547 277.686,194.227 "/>
<polygon fill="#4A4A4A" points="361.44,167.26 362.626,166.586 362.626,177.318 284.073,221.896 284.073,220.963 361.44,177.061 "/>
<polygon fill="#4A4A4A" points="284.073,206.58 361.44,162.676 361.44,152.875 362.626,152.203 362.626,162.936 284.073,207.51 "/>
<polygon fill="#4A4A4A" points="361.44,181.609 362.626,180.939 362.626,191.67 284.073,236.244 284.073,235.312 361.44,191.41 "/>
<polygon fill="#8D887C" points="361.44,167.26 361.44,177.061 284.073,220.963 284.064,211.164 "/>
<polygon fill="#8D887C" points="284.073,206.58 284.064,196.777 361.44,152.875 361.44,162.676 "/>
<polygon fill="#8D887C" points="361.44,181.609 361.44,191.41 284.073,235.312 284.064,225.512 "/>
<polygon fill="#8B8C8B" points="371.668,194.227 371.668,191.527 277.686,245.76 277.723,248.482 "/>
<polygon fill="#5E5D5E" points="277.723,195.691 371.478,141.547 371.478,140.078 277.686,194.227 "/>
<polygon fill="#777566" points="277.723,194.225 371.478,140.078 277.643,85.932 183.889,140.076 "/>
<polygon fill="#ABADAB" points="48.181,185.447 144.468,129.842 104.628,121.734 36.03,161.352 "/>
<polyline fill="#CCCBCB" points="186.426,141.545 186.41,143.904 186.074,194.225 277.7,247.107 277.721,194.227 "/>
<polygon fill="#5D5B5D" points="183.698,191.527 183.698,194.225 277.723,248.482 277.686,245.76 "/>
<polygon fill="#909190" points="277.723,194.225 183.889,140.076 183.889,141.545 277.723,195.691 "/>
<path fill="#F0F0F2" d="M243.371,22.91c0,12.654,15.433,22.916,34.465,22.916c19.033,0,34.464-10.262,34.464-22.916
	C312.3,10.258,296.869,0,277.836,0C258.804,0,243.371,10.258,243.371,22.91z"/>
<path fill="#474747" d="M230.571,129.758c1.103-2.225,2.571-4.33,4.322-6.314l-2.819,11.906l20.397,12.779l71.203-11.406
	l-3.172-13.221c0.894,1.016,1.733,2.055,2.464,3.137c2.762,4.105,4.32,8.65,4.32,13.438c0,6.711-3.024,12.951-8.204,18.16
	c-8.876,8.928-24.1,14.818-41.397,14.818c-27.398,0-49.605-14.764-49.605-32.979C228.08,136.473,228.964,133.006,230.571,129.758z"
	/>
<path fill="#C8C8C8" d="M320.771,124.781c0.039,0.168,0.082,0.361,0.115,0.516c0.566,2.418,2.426,9.637,2.426,9.637l-2.177,5.346
	l-6.074,11.344l-0.965,0.32c-1.59-3.734-3.034-7.508-4.349-11.316c0.422-0.328,0.848-0.639,1.262-0.979
	C316.163,136.213,318.994,130.92,320.771,124.781z"/>
<path fill="#E1E2E2" d="M312.249,21.65c0,0,0.044,15.033,0.051,20.039c0.008,5.109-0.12,15.332,0,20.439
	c0.121,5.09,0.558,15.268,0.96,20.344c0.321,4.076,1.129,12.225,1.801,16.254c0.566,3.395,2.259,10.076,2.995,13.438
	c0.685,3.127,1.937,9.215,2.715,12.617c-1.776,6.139-4.607,11.432-9.762,14.867c-0.414,0.34-0.84,0.65-1.262,0.979
	c-13-37.596-13.435-78.604-14.409-119.1L312.249,21.65z"/>
<path fill="#F0F0F2" d="M233.467,129.783c0.442-1.787,0.868-3.52,1.099-4.518c0.759-3.271,2.108-9.855,2.833-13.133
	c0.794-3.602,2.628-10.752,3.247-14.389c0.645-3.787,1.457-11.441,1.77-15.271c0.411-5.076,0.835-15.254,0.956-20.344
	c0.123-5.107-0.013-15.33,0-20.439c0.014-5.139,0.108-20.553,0.108-20.553l51.858,0.391c0.975,40.496,1.409,81.504,14.409,119.1
	C285.686,159.293,250.072,154.977,233.467,129.783z"/>
<path fill="#DADAD9" d="M309.747,140.627c1.314,3.809,2.759,7.582,4.349,11.316l-32.42,10.854l-38.305-8.08l-11.473-18.67
	c0,0,0.811-3.215,1.568-6.264C250.072,154.977,285.686,159.293,309.747,140.627z"/>
<path fill="#C8C8C8" d="M319.908,127.443c2.574,3.826,4.024,8.057,4.024,12.518c0,6.252-2.816,12.066-7.642,16.918
	c-2.478-5.336-4.641-10.76-6.542-16.256c0.42-0.324,0.846-0.637,1.26-0.975C315.398,136.721,318.104,132.441,319.908,127.443z"/>
<path fill="#E1E2E2" d="M319.908,127.443c-1.805,4.998-4.51,9.277-8.899,12.205c-0.414,0.338-0.84,0.65-1.26,0.975
	c-3.004-8.686-5.347-17.551-7.169-26.555C310.155,117.289,316.203,121.939,319.908,127.443z"/>
<path fill="#F0F0F2" d="M233.831,130.348c6.073-12.258,23.421-21.109,43.892-21.109c9.155,0,17.682,1.775,24.857,4.83
	c1.822,9.004,4.165,17.869,7.169,26.555C285.869,159.156,250.598,155.051,233.831,130.348z"/>
<path fill="#DADAD9" d="M309.749,140.623c1.901,5.496,4.064,10.92,6.542,16.256c-8.269,8.316-22.452,13.805-38.568,13.805
	c-25.521,0-46.213-13.756-46.213-30.723c0-3.357,0.823-6.588,2.321-9.613C250.598,155.051,285.869,159.156,309.749,140.623z"/>
<path fill="#CECECD" d="M307.137,132.954c-0.143,0-0.283-0.067-0.371-0.192c-0.145-0.205-0.096-0.488,0.109-0.633
	c6.984-4.923,10.83-11.338,10.83-18.064c0-0.251,0.203-0.454,0.454-0.454s0.454,0.203,0.454,0.454c0,7.03-3.982,13.71-11.215,18.807
	C307.318,132.928,307.228,132.954,307.137,132.954z"/>
<path fill="#F0F0F2" d="M307.137,132.5c-7.373,5.199-17.82,8.447-29.414,8.447c-22.331,0-40.436-12.037-40.436-26.883"/>
<path fill="#E7E8E7" d="M277.723,141.401c-22.547,0-40.89-12.264-40.89-27.337c0-0.251,0.203-0.454,0.454-0.454
	s0.454,0.203,0.454,0.454c0,14.573,17.936,26.429,39.981,26.429c11.15,0,21.504-2.971,29.152-8.364
	c0.205-0.145,0.488-0.096,0.633,0.109s0.096,0.488-0.109,0.633C299.598,138.372,289.059,141.401,277.723,141.401z"/>
<path fill="#CECECD" d="M300.24,101.163c-0.16,0-0.316-0.086-0.398-0.237c-0.121-0.221-0.039-0.496,0.182-0.616
	c8.123-4.413,12.782-10.914,12.782-17.837c0-0.251,0.203-0.454,0.454-0.454s0.454,0.203,0.454,0.454
	c0,7.266-4.832,14.059-13.257,18.636C300.388,101.146,300.314,101.163,300.24,101.163z"/>
<path fill="#F0F0F2" d="M300.24,100.709c-6.105,3.32-13.903,5.314-22.404,5.314c-19.564,0-35.421-10.545-35.421-23.551"/>
<path fill="#E7E8E7" d="M277.836,106.478c-19.782,0-35.875-10.769-35.875-24.005c0-0.251,0.203-0.454,0.454-0.454
	s0.454,0.203,0.454,0.454c0,12.735,15.686,23.097,34.967,23.097c8.071,0,15.951-1.868,22.188-5.26
	c0.221-0.118,0.496-0.037,0.615,0.183c0.121,0.22,0.039,0.496-0.182,0.616C294.09,104.57,286.056,106.478,277.836,106.478z"/>
<path fill="#CECECD" d="M296.557,61.362c-0.176,0-0.344-0.103-0.417-0.274c-0.1-0.23,0.007-0.497,0.237-0.597
	c9.686-4.176,15.469-11.205,15.469-18.802c0-0.251,0.203-0.454,0.454-0.454s0.454,0.203,0.454,0.454
	c0,7.971-5.988,15.312-16.018,19.636C296.678,61.351,296.617,61.362,296.557,61.362z"/>
<path fill="#F0F0F2" d="M296.557,60.908c-5.394,2.33-11.812,3.695-18.721,3.695c-19.032,0-34.465-10.26-34.465-22.914"/>
<path fill="#E7E8E7" d="M277.836,65.058c-19.254,0-34.919-10.482-34.919-23.368c0-0.251,0.203-0.454,0.454-0.454
	s0.454,0.203,0.454,0.454c0,12.385,15.257,22.46,34.011,22.46c6.59,0,13.001-1.265,18.541-3.658c0.229-0.1,0.497,0.006,0.597,0.237
	c0.1,0.229-0.007,0.497-0.237,0.597C291.084,63.767,284.549,65.058,277.836,65.058z"/>
<ellipse fill="#A7A7A6" cx="277.835" cy="22.914" rx="34.464" ry="22.914"/>
<path fill="#846D48" d="M277.836,7.883c-15.299,0-27.898,7.629-29.711,17.477c-0.149-0.805-0.252-1.615-0.252-2.445
	c0-11.004,13.418-19.922,29.963-19.922c16.548,0,29.963,8.918,29.963,19.922c0,0.83-0.1,1.641-0.25,2.445
	C305.733,15.512,293.137,7.883,277.836,7.883z"/>
<path fill="#565C4B" d="M277.836,42.832c-15.299,0-27.898-7.629-29.711-17.473c1.812-9.848,14.412-17.477,29.711-17.477
	c15.301,0,27.897,7.629,29.713,17.477C305.733,35.203,293.137,42.832,277.836,42.832z"/>
<path fill="#E0E0E0" d="M312.171,37.061c0.063,0.568,0.129,1.137,0.129,1.717c0,8.037-6.239,15.094-15.659,19.184
	c0-1.143,0-2.285,0-3.428C305.368,50.734,311.353,44.379,312.171,37.061z"/>
<path fill="#FFFFFF" d="M243.502,37.061c1.324,11.85,16.172,21.201,34.334,21.201c6.949,0,13.398-1.377,18.805-3.729
	c0,1.143,0,2.285,0,3.428c-5.41,2.35-11.861,3.727-18.805,3.727c-19.032,0-34.465-10.26-34.465-22.91
	C243.371,38.197,243.44,37.629,243.502,37.061z"/>
<path fill="#E4743C" d="M243.502,37.061c-0.062-0.566-0.131-1.135-0.131-1.713c0-1.316-0.317-4.633,0-5.887
	c0.147,0.578,0.854,3.189,1.066,3.752C243.969,34.459,243.649,35.742,243.502,37.061z"/>
<path fill="#E4743C" d="M312.165,29.543c0.323,1.252,0.135,4.488,0.135,5.805c0,0.578-0.065,1.146-0.129,1.713
	c-0.149-1.318-0.467-2.602-0.936-3.848C311.447,32.65,312.02,30.121,312.165,29.543z"/>
<path fill="#E4743C" d="M311.235,33.213c0.469,1.246,0.786,2.529,0.936,3.848c-0.818,7.318-6.803,13.674-15.53,17.473
	c0-2.566,0-5.131,0-7.695C303.794,43.723,309.104,38.891,311.235,33.213z"/>
<path fill="#E4743C" d="M244.438,33.213c3.744,9.963,17.257,17.354,33.398,17.354c6.949,0,13.4-1.375,18.805-3.729
	c0,2.564,0,5.129,0,7.695c-5.406,2.352-11.855,3.729-18.805,3.729c-18.162,0-33.01-9.352-34.334-21.201
	C243.649,35.742,243.969,34.459,244.438,33.213z"/>
<path fill="#FFFFFF" d="M243.547,25.359c0.197,1.322,0.594,2.6,1.117,3.846c-0.317,0.752-0.569,1.516-0.77,2.297
	c-0.317-1.254-0.523-2.535-0.523-3.848C243.371,26.879,243.434,26.113,243.547,25.359z"/>
<path fill="#E0E0E0" d="M312.125,25.359c0.115,0.754,0.175,1.52,0.175,2.295c0,1.312-0.202,2.594-0.522,3.848
	c-0.197-0.781-0.453-1.545-0.768-2.297C311.533,27.959,311.932,26.682,312.125,25.359z"/>
<path fill="#FFFFFF" d="M245.495,30.918c-0.412,0.748-0.765,1.512-1.058,2.295c-0.213-0.562-0.394-1.133-0.543-1.711
	c0.2-0.781,0.452-1.545,0.77-2.297C244.906,29.787,245.187,30.357,245.495,30.918z"/>
<path fill="#E0E0E0" d="M310.176,30.918c0.311-0.561,0.592-1.131,0.834-1.713c0.314,0.752,0.57,1.516,0.768,2.297
	c-0.146,0.578-0.33,1.148-0.542,1.711C310.941,32.43,310.588,31.666,310.176,30.918z"/>
<path fill="#E0E0E0" d="M310.176,30.918c0.412,0.748,0.766,1.512,1.06,2.295c-2.132,5.678-7.441,10.51-14.595,13.625
	c0-1.535,0-3.068,0-4.602C302.805,39.549,307.604,35.596,310.176,30.918z"/>
<path fill="#FFFFFF" d="M245.495,30.918c4.829,8.781,17.466,15.059,32.341,15.059c6.95,0,13.398-1.385,18.805-3.74
	c0,1.533,0,3.066,0,4.602c-5.404,2.354-11.855,3.729-18.805,3.729c-16.142,0-29.654-7.391-33.398-17.354
	C244.73,32.43,245.083,31.666,245.495,30.918z"/>
<path fill="none" d="M274.955,110.646l40.301-10.85c0,0-0.312-1.012-0.926-4.115c1.052,2.316,1.621,4.773,1.621,7.32
	c0,13.996-17.064,25.344-38.115,25.344c-21.05,0-38.116-11.348-38.116-25.344c0-1.891,0.321-3.732,0.914-5.506
	c-0.243,1.533-0.384,2.301-0.384,2.301L274.955,110.646z"/>
<path fill="#919191" d="M242.059,85.562c-0.203,2.57-0.403,4.742-0.573,6.029c-0.35,2.615-0.639,4.555-0.852,5.904
	c-0.593,1.773-0.914,3.615-0.914,5.506c0,13.996,17.066,23.078,38.116,23.078c21.051,0,38.115-9.082,38.115-23.078
	c0-2.547-0.142-3.967-1.191-6.285c-0.289-1.469-0.534-4.635-0.957-7.156c-0.246-1.455-0.215-2.967-0.35-4.791
	c5.951,5.02,8.753,11.348,8.753,18.232c0,16.291-19.865,29.498-44.37,29.498c-24.502,0-44.369-13.207-44.369-29.498
	C233.467,96.477,236.661,90.447,242.059,85.562z"/>
<path fill="#5C5C5C" d="M236.233,90.426h1.44c-1.971,3.283-3.057,6.863-3.057,10.613c0,15.82,19.291,28.643,43.083,28.643
	c23.798,0,43.088-12.822,43.088-28.643c0-3.756-1.11-7.33-3.096-10.613h1.449c1.925,3.297,3.017,6.865,3.017,10.613
	c0,16.324-19.906,29.557-44.458,29.557c-24.55,0-44.458-13.232-44.458-29.557C233.242,97.293,234.32,93.723,236.233,90.426z"/>
<path fill="#5C5C5C" d="M235.178,90.426h1.428c-1.265,2.668-1.988,5.488-1.988,8.371c0,15.818,19.291,28.646,43.083,28.646
	c23.798,0,43.088-12.828,43.088-28.646c0-2.879-0.706-5.703-1.951-8.371h1.415c1.209,2.674,1.906,5.49,1.906,8.371
	c0,16.324-19.906,29.559-44.458,29.559c-24.55,0-44.458-13.234-44.458-29.559C233.242,95.912,233.953,93.1,235.178,90.426z"/>
<ellipse fill="#696969" cx="278.923" cy="131.994" rx="0.853" ry="0.516"/>
<rect x="278.07" y="126.83" fill="#696969" width="1.705" height="5.164"/>
<ellipse fill="#C4C4C4" cx="278.923" cy="126.83" rx="0.853" ry="0.516"/>
<ellipse fill="#696969" cx="290.431" cy="130.717" rx="0.854" ry="0.516"/>
<rect x="289.577" y="125.551" fill="#696969" width="1.708" height="5.166"/>
<ellipse fill="#C4C4C4" cx="290.431" cy="125.551" rx="0.854" ry="0.518"/>
<ellipse fill="#696969" cx="301.176" cy="127.365" rx="0.854" ry="0.516"/>
<rect x="300.322" y="122.199" fill="#696969" width="1.708" height="5.166"/>
<ellipse fill="#C4C4C4" cx="301.176" cy="122.199" rx="0.854" ry="0.516"/>
<ellipse fill="#696969" cx="309.745" cy="122.676" rx="0.852" ry="0.516"/>
<rect x="308.894" y="117.51" fill="#696969" width="1.703" height="5.166"/>
<ellipse fill="#C4C4C4" cx="309.745" cy="117.51" rx="0.852" ry="0.516"/>
<ellipse fill="#696969" cx="317.695" cy="114.596" rx="0.854" ry="0.518"/>
<rect x="316.841" y="109.43" fill="#696969" width="1.708" height="5.166"/>
<ellipse fill="#C4C4C4" cx="317.695" cy="109.43" rx="0.854" ry="0.518"/>
<ellipse fill="#C4C4C4" cx="321.352" cy="97.543" rx="0.854" ry="0.518"/>
<path fill="#C4C4C4" d="M233.242,97.342c0,0.283,0.383,0.514,0.854,0.514c0.47,0,0.854-0.23,0.854-0.514
	c0-0.287-0.384-0.52-0.854-0.52C233.625,96.822,233.242,97.055,233.242,97.342z"/>
<path fill="#696969" d="M267.246,131.232c0,0.285,0.381,0.516,0.852,0.516c0.474,0,0.854-0.23,0.854-0.516s-0.38-0.518-0.854-0.518
	C267.627,130.715,267.246,130.947,267.246,131.232z"/>
<rect x="267.246" y="126.068" fill="#696969" width="1.705" height="5.164"/>
<path fill="#C4C4C4" d="M267.246,126.068c0,0.283,0.381,0.518,0.852,0.518c0.474,0,0.854-0.234,0.854-0.518
	c0-0.287-0.38-0.52-0.854-0.52C267.627,125.549,267.246,125.781,267.246,126.068z"/>
<ellipse fill="#696969" cx="259.31" cy="129.168" rx="0.854" ry="0.516"/>
<rect x="258.456" y="124.002" fill="#696969" width="1.707" height="5.166"/>
<ellipse fill="#C4C4C4" cx="259.31" cy="124.002" rx="0.854" ry="0.516"/>
<ellipse fill="#696969" cx="250.064" cy="125.242" rx="0.853" ry="0.518"/>
<rect x="249.212" y="120.076" fill="#696969" width="1.705" height="5.166"/>
<ellipse fill="#C4C4C4" cx="250.064" cy="120.076" rx="0.853" ry="0.518"/>
<ellipse fill="#696969" cx="240.936" cy="118.258" rx="0.854" ry="0.518"/>
<rect x="240.082" y="113.094" fill="#696969" width="1.707" height="5.164"/>
<ellipse fill="#C4C4C4" cx="240.936" cy="113.094" rx="0.854" ry="0.516"/>
<ellipse fill="#696969" cx="240.082" cy="88.516" rx="0.854" ry="0.516"/>
<rect x="239.229" y="83.35" fill="#696969" width="1.707" height="5.166"/>
<ellipse fill="#C4C4C4" cx="240.082" cy="83.35" rx="0.854" ry="0.518"/>
<ellipse fill="#696969" cx="315.952" cy="88.516" rx="0.853" ry="0.516"/>
<rect x="315.1" y="83.35" fill="#696969" width="1.705" height="5.166"/>
<ellipse fill="#C4C4C4" cx="315.952" cy="83.35" rx="0.853" ry="0.518"/>
<path fill="#5C5C5C" d="M313.457,85.104v-1.582c2.337,2.105,4.24,4.432,5.685,6.904h-1.449
	C316.555,88.547,315.134,86.762,313.457,85.104z"/>
<path fill="#5C5C5C" d="M242.117,83.318v1.572c-1.77,1.719-3.264,3.572-4.443,5.535h-1.44
	C237.715,87.869,239.684,85.475,242.117,83.318z"/>
<path fill="#5C5C5C" d="M242.415,80.9v1.572c-2.456,2.385-4.446,5.08-5.81,7.953h-1.428C236.771,86.939,239.258,83.695,242.415,80.9
	z"/>
<path fill="#5C5C5C" d="M313.26,82.656v-1.58c3.054,2.75,5.449,5.934,6.992,9.35h-1.415C317.529,87.623,315.621,84.99,313.26,82.656
	z"/>
<path fill="none" d="M242.07,31.336c0.178-0.252,0.341-0.51,0.525-0.756v0.141C242.42,30.924,242.241,31.129,242.07,31.336z"/>
<path fill="none" d="M313.386,31.32c0.212,0.307,0.413,0.615,0.608,0.93c-0.2-0.27-0.396-0.539-0.608-0.801V31.32z"/>
<path fill="none" d="M240.975,34.883c0.068-0.119,0.131-0.244,0.205-0.363c0.426-0.707,0.905-1.395,1.416-2.066v0.316
	C242.012,33.457,241.471,34.16,240.975,34.883z"/>
<path fill="none" d="M312.3,43.006c0-0.186,0-0.369,0-0.545c0.26,1.076,0.31,2.113,0.31,3.535
	C312.609,44.98,312.492,43.986,312.3,43.006z"/>
<path fill="#919191" d="M260.144,66.479v1.111c-2.452-0.816-4.755-1.799-6.883-2.92v-0.986
	C255.4,64.76,257.704,65.699,260.144,66.479z"/>
<path fill="#919191" d="M277.703,69.131c0.112,0,0.224-0.006,0.336-0.006v1.213c-0.112,0-0.224,0.002-0.336,0.002
	c-2.737,0-5.406-0.186-7.985-0.539v-1.195C272.299,68.947,274.969,69.131,277.703,69.131z"/>
<path fill="#919191" d="M253.261,62.365c0.729,0.484,1.494,0.945,2.287,1.387c-0.784-0.357-1.544-0.736-2.287-1.127V62.365z"/>
<path fill="#919191" d="M268.163,68.373v1.189c-2.239-0.371-4.396-0.871-6.466-1.486v-1.129
	C263.77,67.537,265.93,68.016,268.163,68.373z"/>
<path fill="#919191" d="M288.543,68.15v1.178c-2.864,0.545-5.855,0.885-8.946,0.982v-1.213
	C282.684,69.004,285.672,68.676,288.543,68.15z"/>
<path fill="#919191" d="M242.596,32.77v0.006c0,0.26,0.348,0.473,0.779,0.473c0.01,0,0.024-0.008,0.024-0.008
	c-0.007,3.471-0.022,6.854-0.028,8.783c0,0.27,0,0.582,0,0.877c-0.206,1.014-0.326,2.045-0.326,3.096
	c0,5.891,3.321,11.266,8.775,15.35c-0.065,0.066-0.115,0.145-0.115,0.23v0.182c-2.582-1.516-4.861-3.248-6.774-5.164v-1.391
	c0-0.262-0.348-0.473-0.777-0.473c-0.307,0-0.565,0.109-0.691,0.264c-2.995-3.52-4.794-7.549-5.036-11.84
	c0.171-2.904,1.062-5.686,2.549-8.271C241.471,34.16,242.012,33.457,242.596,32.77z"/>
<path fill="#919191" d="M243.375,56.941c-0.788-0.938-1.49-1.91-2.106-2.916c0.637,0.861,1.342,1.691,2.106,2.5V56.941z"/>
<path fill="#919191" d="M251.705,63.803c-2.582-1.516-4.861-3.248-6.774-5.164v-0.588c1.957,1.779,4.233,3.396,6.774,4.811V63.803z"
	/>
<path fill="#919191" d="M312.281,33.199c0.101,0.029,0.209,0.049,0.328,0.049c0.255,0,0.47-0.08,0.613-0.197
	c0.343,0.484,0.674,0.971,0.973,1.469c1.625,2.688,2.601,5.596,2.785,8.643c-0.166,2.9-1.037,5.676-2.51,8.26
	c-0.088-0.02-0.176-0.033-0.273-0.033c-0.428,0-0.775,0.211-0.775,0.471v1.221c-1.509,2.176-3.449,4.188-5.754,5.99
	c-0.11-0.182-0.389-0.309-0.725-0.309c-0.048,0-0.087,0.012-0.135,0.014c3.662-3.662,5.801-8.055,5.801-12.779
	c0-1.422-0.05-2.459-0.31-3.535c0-0.143,0-0.303,0-0.438C312.299,40.094,312.289,36.674,312.281,33.199z"/>
<path fill="#919191" d="M301.229,63.102c1.838-1.113,3.492-2.355,4.937-3.709v0.785C304.646,61.24,302.999,62.223,301.229,63.102z"
	/>
<path fill="#919191" d="M298.348,65.375v1.072c-2.569,1.055-5.334,1.918-8.251,2.561v-1.164
	C293.007,67.223,295.768,66.391,298.348,65.375z"/>
<path fill="#919191" d="M279.597,72.451v-1.309c3.087-0.094,6.075-0.42,8.946-0.947v1.088c0,0.262,0.348,0.473,0.776,0.473
	c0.43,0,0.777-0.211,0.777-0.473v-1.393c2.91-0.621,5.671-1.453,8.251-2.471v0.807c0,0.26,0.348,0.471,0.776,0.471
	c0.434,0,0.781-0.211,0.781-0.471v-1.451c2.253-0.984,4.351-2.107,6.26-3.357v0.529c0,0.26,0.348,0.471,0.778,0.471
	c0.432,0,0.779-0.211,0.779-0.471v-1.602c2.274-1.664,4.233-3.518,5.834-5.521c0.137,0.131,0.367,0.223,0.641,0.223
	c0.431,0,0.778-0.211,0.778-0.473v-1.715c2.011-3.104,3.162-6.51,3.275-10.086c0.021,0.41,0.063,0.811,0.063,1.223
	c0,14.588-17.464,26.459-39.25,26.898C279.373,72.83,279.597,72.658,279.597,72.451z"/>
<path fill="#919191" d="M243.375,59.916c0,0.262,0.35,0.473,0.778,0.473c0.35,0,0.634-0.143,0.733-0.336
	c1.967,1.799,4.256,3.428,6.818,4.852v1.387c0,0.26,0.35,0.471,0.779,0.471c0.429,0,0.776-0.211,0.776-0.471v-0.562
	c2.14,1.076,4.443,2.016,6.883,2.795v1.348c0,0.26,0.348,0.469,0.777,0.469c0.429,0,0.776-0.209,0.776-0.469v-0.879
	c2.072,0.592,4.232,1.068,6.466,1.426v1.338c0,0.26,0.348,0.473,0.777,0.473c0.429,0,0.777-0.213,0.777-0.473V70.65
	c2.581,0.344,5.251,0.523,7.985,0.523c0.112,0,0.224-0.002,0.336-0.002v1.279c0,0.219,0.255,0.396,0.592,0.447
	c-0.27,0.004-0.535,0.016-0.805,0.016c-21.766,0-39.512-11.422-40.441-25.738c0.687,4.156,2.795,8.025,5.99,11.395V59.916z"/>
<path fill="#919191" d="M313.422,54.957v0.17c-1.498,2.156-3.421,4.154-5.699,5.947v-0.773
	C309.932,58.688,311.848,56.893,313.422,54.957z"/>
<path fill="#919191" d="M306.165,61.373v0.85c-1.894,1.322-3.989,2.516-6.26,3.551v-1.045
	C302.158,63.748,304.256,62.623,306.165,61.373z"/>
<path fill="#919191" d="M306.165,59.232v0.16c-1.444,1.354-3.099,2.596-4.937,3.709c-0.435,0.215-0.877,0.424-1.323,0.627v-0.217
	c0-0.262-0.348-0.473-0.781-0.473c-0.057,0-0.109,0.014-0.167,0.02c8.297-3.637,13.652-9.578,13.652-17.062
	c0,4.725-2.139,9.117-5.801,12.779C306.447,58.816,306.165,59.002,306.165,59.232z"/>
<path fill="#919191" d="M298.348,63.512v0.893c-2.569,1.053-5.334,1.916-8.251,2.559V66.57c0-0.26-0.348-0.473-0.777-0.473
	c-0.429,0-0.776,0.213-0.776,0.473v0.711c-2.864,0.547-5.855,0.889-8.946,0.984v-0.527c0-0.262-0.346-0.475-0.779-0.475
	c-0.429,0-0.778,0.213-0.778,0.475v0.553c-0.112,0.002-0.224,0.006-0.336,0.006c-2.737,0-5.406-0.188-7.985-0.539v-0.715
	c0-0.262-0.349-0.475-0.777-0.475c-0.43,0-0.777,0.213-0.777,0.475v0.475c-2.239-0.373-4.396-0.873-6.466-1.484v-0.877
	c0-0.168-0.152-0.311-0.372-0.395c4.909,1.49,10.53,2.289,16.501,2.289c7.729,0,14.87-1.342,20.646-3.779
	C298.4,63.344,298.348,63.424,298.348,63.512z"/>
<path fill="#919191" d="M260.144,65.156v0.387c-1.597-0.531-3.134-1.129-4.596-1.791c-0.793-0.441-1.558-0.902-2.287-1.387v-0.789
	c0-0.262-0.348-0.473-0.776-0.473c-0.29,0-0.529,0.1-0.664,0.242c-5.454-4.084-8.775-9.459-8.775-15.35
	c0,8.756,7.324,15.404,18.122,18.719c-0.079-0.016-0.159-0.031-0.246-0.031C260.491,64.684,260.144,64.896,260.144,65.156z"/>
<path fill="#5C5C5C" d="M318.233,43.156c0.022,0.348,0.039,0.695,0.039,1.047c0,0.193-0.017,0.381-0.021,0.57
	c-0.02-0.342-0.02-0.691-0.055-1.031C318.214,43.547,318.223,43.352,318.233,43.156z"/>
<path fill="#5C5C5C" d="M238.714,39.076c0.3-1.559,0.793-3.086,1.49-4.557h0.976c-0.074,0.119-0.137,0.244-0.205,0.363
	C240.055,36.227,239.294,37.625,238.714,39.076z"/>
<path fill="#5C5C5C" d="M315.24,34.52c0.285,0.611,0.541,1.232,0.761,1.861c-0.326-0.633-0.683-1.256-1.078-1.861H315.24z"/>
<path fill="#5C5C5C" d="M237.339,45.996c0,0.395,0.02,0.789,0.046,1.18c-0.161-0.977-0.25-1.967-0.25-2.973
	c0-0.352,0.016-0.703,0.035-1.053c0.037,0.676,0.108,1.348,0.221,2.01C237.376,45.441,237.339,45.715,237.339,45.996z"/>
<path fill="#5C5C5C" d="M298.348,66.447v0.973c-2.58,1.018-5.341,1.85-8.251,2.471v-0.883
	C293.014,68.365,295.778,67.502,298.348,66.447z"/>
<path fill="#5C5C5C" d="M288.543,69.328v0.867c-2.871,0.527-5.859,0.854-8.946,0.947v-0.832
	C282.688,70.213,285.679,69.873,288.543,69.328z"/>
<path fill="#5C5C5C" d="M237.391,45.16c0.524,3.152,1.864,6.139,3.878,8.865c0.616,1.006,1.318,1.979,2.106,2.916v1.629
	c-3.195-3.369-5.304-7.238-5.99-11.395c-0.026-0.391-0.046-0.785-0.046-1.18C237.339,45.715,237.376,45.441,237.391,45.16z"/>
<path fill="#5C5C5C" d="M268.163,69.562v0.855c-2.233-0.357-4.394-0.834-6.466-1.426v-0.916
	C263.767,68.691,265.924,69.191,268.163,69.562z"/>
<path fill="#5C5C5C" d="M244.931,58.639c1.913,1.916,4.192,3.648,6.774,5.164v1.102c-2.562-1.424-4.852-3.053-6.818-4.852
	c0.021-0.043,0.044-0.088,0.044-0.137V58.639z"/>
<path fill="#5C5C5C" d="M260.144,67.59v0.934c-2.439-0.779-4.743-1.719-6.883-2.795V64.67
	C255.389,65.791,257.691,66.773,260.144,67.59z"/>
<path fill="#5C5C5C" d="M306.165,62.223v1.195c-1.909,1.25-4.007,2.373-6.26,3.357v-1.002
	C302.176,64.738,304.271,63.545,306.165,62.223z"/>
<path fill="#5C5C5C" d="M277.703,70.34c0.112,0,0.224-0.002,0.336-0.002v0.834c-0.112,0-0.224,0.002-0.336,0.002
	c-2.734,0-5.404-0.18-7.985-0.523v-0.85C272.297,70.154,274.966,70.34,277.703,70.34z"/>
<path fill="#5C5C5C" d="M313.422,55.127v1.447c0,0.094,0.055,0.178,0.135,0.25c-1.601,2.004-3.56,3.857-5.834,5.521v-1.271
	C310.001,59.281,311.924,57.283,313.422,55.127z"/>
<path fill="#5C5C5C" d="M314.976,52.814c1.82-2.809,2.942-5.865,3.221-9.072c0.035,0.34,0.035,0.689,0.055,1.031
	c-0.113,3.576-1.265,6.982-3.275,10.086V52.814z"/>
<path fill="#5C5C5C" d="M314.923,34.52c0.396,0.605,0.752,1.229,1.078,1.861c0.497,1.414,0.801,2.871,0.932,4.344
	c-0.106,0.082-0.177,0.178-0.177,0.289c0,0.123,0.083,0.234,0.213,0.32c0.014,0.273,0.051,0.547,0.051,0.824
	c0,0.338-0.021,0.67-0.039,1.004c-0.185-3.047-1.16-5.955-2.785-8.643H314.923z"/>
<path fill="#5C5C5C" d="M240.975,34.883c-1.487,2.586-2.378,5.367-2.549,8.271c-0.02-0.332-0.039-0.662-0.039-0.996
	s0.041-0.66,0.061-0.992c0.149-0.084,0.243-0.203,0.243-0.338c0-0.119-0.079-0.227-0.2-0.309c0.048-0.484,0.131-0.965,0.224-1.443
	C239.294,37.625,240.055,36.227,240.975,34.883z"/>
<path fill="#5C5C5C" d="M237.198,41.02c0.05,0.062,0.121,0.115,0.206,0.16c-0.111,0.65-0.195,1.305-0.234,1.971
	c-0.018-0.33-0.035-0.66-0.035-0.992C237.135,41.775,237.176,41.396,237.198,41.02z"/>
<path fill="#5C5C5C" d="M237.539,40.422c-0.135,0.045-0.241,0.111-0.314,0.195c0.201-2.094,0.777-4.139,1.674-6.098h0.963
	C238.773,36.395,237.979,38.369,237.539,40.422z"/>
<path fill="#5C5C5C" d="M318.216,41.229c0.02,0.309,0.057,0.617,0.057,0.93c0,0.334-0.021,0.666-0.039,0.998
	c-0.036-0.602-0.103-1.197-0.198-1.789C318.109,41.33,318.171,41.281,318.216,41.229z"/>
<path fill="#5C5C5C" d="M315.519,34.52h1.012c0.908,2.008,1.478,4.105,1.659,6.254c-0.071-0.074-0.173-0.133-0.293-0.172
	C317.458,38.486,316.647,36.449,315.519,34.52z"/>
<path fill="#5C5C5C" d="M251.705,61.758v1.104c-2.541-1.414-4.817-3.031-6.774-4.811v-1.457
	C246.844,58.51,249.123,60.242,251.705,61.758z"/>
<path fill="#5C5C5C" d="M301.229,63.102c1.771-0.879,3.418-1.861,4.937-2.924v1.195c-1.909,1.25-4.007,2.375-6.26,3.355v-0.865
	C300.355,63.617,300.798,63.365,301.229,63.102z"/>
<path fill="#5C5C5C" d="M314.471,51.422c1.473-2.584,2.344-5.359,2.51-8.26c0.021,0.346,0.039,0.691,0.039,1.041
	c0,2.908-0.726,5.701-2.044,8.312v-0.656C314.976,51.658,314.763,51.488,314.471,51.422z"/>
<path fill="#5C5C5C" d="M307.723,60.301v-1.068c0-0.055-0.021-0.111-0.055-0.162c2.305-1.803,4.245-3.814,5.754-5.99v1.877
	C311.848,56.893,309.932,58.688,307.723,60.301z"/>
<path fill="#5C5C5C" d="M255.548,63.752c1.436,0.795,2.974,1.516,4.596,2.152v0.574c-2.439-0.779-4.743-1.719-6.883-2.795v-1.059
	C254.004,63.016,254.764,63.395,255.548,63.752z"/>
<path fill="#5C5C5C" d="M277.826,69.119c0.07,0,0.142-0.002,0.213-0.002v0.008c-0.112,0-0.224,0.006-0.336,0.006
	c-2.734,0-5.404-0.184-7.985-0.525V68.48C272.32,68.895,275.033,69.119,277.826,69.119z"/>
<path fill="#5C5C5C" d="M298.348,64.664v0.711c-2.58,1.016-5.341,1.848-8.251,2.469v-0.209
	C293.063,66.893,295.831,65.885,298.348,64.664z"/>
<path fill="#5C5C5C" d="M288.543,67.996v0.154c-2.871,0.525-5.859,0.854-8.946,0.947v-0.006
	C282.703,68.986,285.7,68.607,288.543,67.996z"/>
<path fill="#5C5C5C" d="M268.163,68.209v0.164c-2.233-0.357-4.394-0.836-6.466-1.426v-0.465
	C263.742,67.195,265.904,67.775,268.163,68.209z"/>
<path fill="#5C5C5C" d="M238.426,43.154c0.242,4.291,2.041,8.32,5.036,11.84c-0.054,0.064-0.087,0.135-0.087,0.209v1.322
	c-0.765-0.809-1.47-1.639-2.106-2.5c-1.851-3.031-2.882-6.346-2.882-9.822C238.387,43.852,238.405,43.504,238.426,43.154z"/>
<path fill="#5C5C5C" d="M255.548,63.752c1.462,0.662,2.999,1.26,4.596,1.791v0.361C258.521,65.268,256.983,64.547,255.548,63.752z"
	/>
<path fill="#5C5C5C" d="M279.597,69.092v-0.826c3.091-0.096,6.082-0.438,8.946-0.984v0.715
	C285.7,68.607,282.703,68.986,279.597,69.092z"/>
<path fill="#5C5C5C" d="M277.826,69.119c-2.793,0-5.506-0.225-8.108-0.639v-0.723c2.579,0.352,5.248,0.539,7.985,0.539
	c0.112,0,0.224-0.004,0.336-0.006v0.826C277.968,69.117,277.896,69.119,277.826,69.119z"/>
<path fill="#5C5C5C" d="M299.905,63.729c0.446-0.203,0.889-0.412,1.323-0.627c-0.431,0.264-0.873,0.516-1.323,0.762V63.729z"/>
<path fill="#5C5C5C" d="M261.697,66.482v-0.449c2.069,0.611,4.227,1.111,6.466,1.484v0.691
	C265.904,67.775,263.742,67.195,261.697,66.482z"/>
<path fill="#5C5C5C" d="M290.097,67.635v-0.672c2.917-0.643,5.682-1.506,8.251-2.559v0.26
	C295.831,65.885,293.063,66.893,290.097,67.635z"/>
<path fill="#5C5C5C" d="M316.001,36.381c-0.22-0.629-0.476-1.25-0.761-1.861h0.278c1.129,1.93,1.939,3.967,2.378,6.082
	c-0.093-0.029-0.19-0.047-0.3-0.053C317.222,39.113,316.691,37.723,316.001,36.381z"/>
<path fill="#5C5C5C" d="M238.714,39.076c-0.176,0.438-0.323,0.883-0.467,1.328c-0.103-0.027-0.215-0.049-0.335-0.049
	c-0.135,0-0.263,0.029-0.373,0.066c0.439-2.053,1.234-4.027,2.322-5.902h0.343C239.507,35.99,239.014,37.518,238.714,39.076z"/>
<path fill="#5C5C5C" d="M317.84,41.449c0.074-0.02,0.135-0.053,0.195-0.082c0.096,0.592,0.162,1.188,0.198,1.789
	c-0.011,0.195-0.02,0.391-0.037,0.586C318.118,42.965,317.999,42.203,317.84,41.449z"/>
<path fill="#5C5C5C" d="M237.912,41.301c0.02,0,0.04-0.006,0.062-0.008c-0.335,1.262-0.521,2.555-0.583,3.867
	c-0.112-0.662-0.184-1.334-0.221-2.01c0.039-0.666,0.123-1.32,0.234-1.971C237.541,41.252,237.715,41.301,237.912,41.301z"/>
<path fill="#5C5C5C" d="M317.02,44.203c0-0.35-0.018-0.695-0.039-1.041c0.018-0.334,0.039-0.666,0.039-1.004
	c0-0.277-0.037-0.551-0.051-0.824c0.144,0.092,0.342,0.15,0.565,0.15c0.108,0,0.211-0.012,0.306-0.035
	c0.159,0.754,0.278,1.516,0.356,2.293c-0.278,3.207-1.4,6.264-3.221,9.072v-0.299C316.294,49.904,317.02,47.111,317.02,44.203z"/>
<path fill="#5C5C5C" d="M317.597,40.549c-0.021-0.002-0.041-0.01-0.062-0.01c-0.248,0-0.458,0.078-0.602,0.186
	c-0.131-1.473-0.435-2.93-0.932-4.344C316.691,37.723,317.222,39.113,317.597,40.549z"/>
<path fill="#5C5C5C" d="M238.49,40.52c-0.071-0.047-0.15-0.086-0.243-0.115c0.144-0.445,0.291-0.891,0.467-1.328
	C238.621,39.555,238.538,40.035,238.49,40.52z"/>
<path fill="#5C5C5C" d="M238.387,42.158c0,0.334,0.02,0.664,0.039,0.996c-0.021,0.35-0.039,0.697-0.039,1.049
	c0,3.477,1.031,6.791,2.882,9.822c-2.014-2.727-3.354-5.713-3.878-8.865c0.062-1.312,0.248-2.605,0.583-3.867
	c0.183-0.01,0.35-0.055,0.474-0.127C238.428,41.498,238.387,41.824,238.387,42.158z"/>
<path fill="#696969" d="M278.817,72.924c-0.065,0-0.126-0.014-0.187-0.025c0.145,0,0.29-0.002,0.434-0.004
	C278.986,72.908,278.904,72.924,278.817,72.924z"/>
<path fill="#696969" d="M278.039,72.451h1.558c0,0.207-0.224,0.379-0.532,0.443c-0.144,0.002-0.289,0.004-0.434,0.004
	C278.294,72.848,278.039,72.67,278.039,72.451z"/>
<path fill="#696969" d="M279.597,69.098v1.213c-0.515,0.016-1.034,0.021-1.558,0.027v-1.213
	C278.562,69.121,279.082,69.115,279.597,69.098z"/>
<path fill="#696969" d="M279.597,72.451c0-0.262-0.346-0.473-0.779-0.473c-0.429,0-0.778,0.211-0.778,0.473v-1.279
	c0.523-0.004,1.043-0.012,1.558-0.029V72.451z"/>
<path fill="#696969" d="M278.039,67.738c0,0.258,0.35,0.471,0.778,0.471c0.434,0,0.779-0.213,0.779-0.471v0.527
	c-0.515,0.016-1.034,0.021-1.558,0.025V67.738z"/>
<path fill="#696969" d="M279.597,70.311v0.832c-0.515,0.018-1.034,0.025-1.558,0.029v-0.834
	C278.562,70.332,279.082,70.326,279.597,70.311z"/>
<path fill="#696969" d="M279.597,69.092v0.006c-0.515,0.018-1.034,0.023-1.558,0.027v-0.008
	C278.562,69.115,279.082,69.105,279.597,69.092z"/>
<path fill="#696969" d="M278.039,69.117v-0.826c0.523-0.004,1.043-0.01,1.558-0.025v0.826
	C279.082,69.105,278.562,69.115,278.039,69.117z"/>
<path fill="#696969" d="M278.817,71.979c0.434,0,0.779,0.211,0.779,0.473h-1.558C278.039,72.189,278.389,71.979,278.817,71.979z"/>
<path fill="#C4C4C4" d="M278.817,67.264c0.434,0,0.779,0.213,0.779,0.475h-1.558C278.039,67.477,278.389,67.264,278.817,67.264z"/>
<path fill="#C4C4C4" d="M278.817,68.209c-0.429,0-0.778-0.213-0.778-0.471h1.558C279.597,67.996,279.251,68.209,278.817,68.209z"/>
<path fill="#696969" d="M289.319,71.756c-0.429,0-0.776-0.211-0.776-0.473h1.554C290.097,71.545,289.749,71.756,289.319,71.756z"/>
<path fill="#696969" d="M290.097,71.283c0-0.26-0.348-0.471-0.777-0.471c-0.429,0-0.776,0.211-0.776,0.471v-1.088
	c0.521-0.098,1.041-0.197,1.554-0.305V71.283z"/>
<path fill="#696969" d="M290.097,67.844v1.164c-0.515,0.113-1.032,0.221-1.554,0.32V68.15
	C289.064,68.053,289.584,67.953,290.097,67.844z"/>
<path fill="#696969" d="M288.543,66.57c0,0.262,0.348,0.473,0.776,0.473c0.43,0,0.777-0.211,0.777-0.473v0.393
	c-0.515,0.113-1.032,0.219-1.554,0.318V66.57z"/>
<path fill="#696969" d="M290.097,69.008v0.883c-0.513,0.107-1.032,0.207-1.554,0.305v-0.867
	C289.064,69.229,289.582,69.121,290.097,69.008z"/>
<path fill="#696969" d="M290.097,67.635v0.209c-0.513,0.109-1.032,0.209-1.554,0.307v-0.154
	C289.064,67.885,289.586,67.764,290.097,67.635z"/>
<path fill="#696969" d="M288.543,67.996v-0.715c0.521-0.1,1.039-0.205,1.554-0.318v0.672
	C289.586,67.764,289.064,67.885,288.543,67.996z"/>
<path fill="#696969" d="M289.319,70.812c0.43,0,0.777,0.211,0.777,0.471h-1.554C288.543,71.023,288.891,70.812,289.319,70.812z"/>
<path fill="#C4C4C4" d="M289.319,66.098c0.43,0,0.777,0.213,0.777,0.473h-1.554C288.543,66.311,288.891,66.098,289.319,66.098z"/>
<path fill="#C4C4C4" d="M289.319,67.043c-0.429,0-0.776-0.211-0.776-0.473h1.554C290.097,66.832,289.749,67.043,289.319,67.043z"/>
<path fill="#696969" d="M299.124,68.697c-0.429,0-0.776-0.211-0.776-0.471h1.558C299.905,68.486,299.558,68.697,299.124,68.697z"/>
<path fill="#696969" d="M299.905,68.227c0-0.262-0.348-0.473-0.781-0.473c-0.429,0-0.776,0.211-0.776,0.473V67.42
	c0.528-0.207,1.045-0.424,1.558-0.645V68.227z"/>
<path fill="#696969" d="M299.905,64.729v1.045c-0.511,0.232-1.029,0.457-1.558,0.674v-1.072
	C298.876,65.168,299.393,64.951,299.905,64.729z"/>
<path fill="#696969" d="M299.124,63.984c0.104,0,0.201-0.018,0.29-0.037c-0.355,0.154-0.707,0.309-1.066,0.457v-0.893
	C298.348,63.771,298.695,63.984,299.124,63.984z"/>
<path fill="#696969" d="M299.905,63.512v0.217c-0.071,0.031-0.139,0.064-0.208,0.098C299.823,63.744,299.905,63.635,299.905,63.512z
	"/>
<path fill="#696969" d="M299.905,65.773v1.002c-0.513,0.221-1.029,0.438-1.558,0.645v-0.973
	C298.876,66.23,299.395,66.006,299.905,65.773z"/>
<path fill="#696969" d="M299.905,63.863v0.865c-0.513,0.223-1.029,0.439-1.558,0.646v-0.711
	C298.876,64.404,299.397,64.141,299.905,63.863z"/>
<path fill="#696969" d="M298.348,64.664v-0.26c0.359-0.148,0.711-0.303,1.066-0.457c0.109-0.025,0.205-0.068,0.283-0.121
	c0.069-0.033,0.137-0.066,0.208-0.098v0.135C299.397,64.141,298.876,64.404,298.348,64.664z"/>
<path fill="#696969" d="M299.124,67.754c0.434,0,0.781,0.211,0.781,0.473h-1.558C298.348,67.965,298.695,67.754,299.124,67.754z"/>
<path fill="#C4C4C4" d="M298.957,63.059c-0.161,0.072-0.322,0.145-0.485,0.213C298.578,63.164,298.748,63.09,298.957,63.059z"/>
<path fill="#C4C4C4" d="M299.905,63.512h-1.558c0-0.088,0.053-0.168,0.124-0.24c0.163-0.068,0.324-0.141,0.485-0.213
	c0.058-0.006,0.11-0.02,0.167-0.02C299.558,63.039,299.905,63.25,299.905,63.512z"/>
<path fill="#C4C4C4" d="M299.697,63.826c-0.092,0.043-0.189,0.08-0.283,0.121c-0.089,0.02-0.187,0.037-0.29,0.037
	c-0.429,0-0.776-0.213-0.776-0.473h1.558C299.905,63.635,299.823,63.744,299.697,63.826z"/>
<path fill="#C4C4C4" d="M299.414,63.947c0.094-0.041,0.191-0.078,0.283-0.121C299.619,63.879,299.523,63.922,299.414,63.947z"/>
<path fill="#696969" d="M306.943,64.418c-0.431,0-0.778-0.211-0.778-0.471h1.558C307.723,64.207,307.375,64.418,306.943,64.418z"/>
<path fill="#696969" d="M307.723,63.947c0-0.26-0.348-0.473-0.779-0.473c-0.431,0-0.778,0.213-0.778,0.473v-0.529
	c0.532-0.352,1.056-0.707,1.558-1.072V63.947z"/>
<path fill="#696969" d="M306.856,59.693c-0.224,0.164-0.461,0.324-0.691,0.484v-0.785c0.014-0.01,0.028-0.023,0.044-0.035
	C306.289,59.537,306.539,59.67,306.856,59.693z"/>
<path fill="#696969" d="M307.723,60.301v0.773c-0.502,0.393-1.022,0.777-1.558,1.148v-0.85
	C306.697,61.023,307.221,60.668,307.723,60.301z"/>
<path fill="#696969" d="M306.165,59.393v-0.16c0,0.045,0.024,0.084,0.044,0.125C306.193,59.369,306.179,59.383,306.165,59.393z"/>
<path fill="#696969" d="M307.723,61.074v1.271c-0.502,0.365-1.025,0.721-1.558,1.072v-1.195
	C306.7,61.852,307.221,61.467,307.723,61.074z"/>
<path fill="#696969" d="M306.856,59.693c0.028,0.004,0.056,0.01,0.087,0.01c0.432,0,0.779-0.209,0.779-0.471v1.068
	c-0.502,0.367-1.025,0.723-1.558,1.072v-1.195C306.396,60.018,306.633,59.857,306.856,59.693z"/>
<path fill="#696969" d="M306.943,63.475c0.432,0,0.779,0.213,0.779,0.473h-1.558C306.165,63.688,306.513,63.475,306.943,63.475z"/>
<path fill="#C4C4C4" d="M306.339,59.232c0.159-0.15,0.317-0.303,0.47-0.457c0.048-0.002,0.087-0.014,0.135-0.014
	c0.336,0,0.614,0.127,0.725,0.309c-0.069,0.053-0.143,0.109-0.212,0.162H306.339z"/>
<path fill="#C4C4C4" d="M306.339,59.232h-0.174c0-0.23,0.282-0.416,0.644-0.457C306.656,58.93,306.498,59.082,306.339,59.232z"/>
<path fill="#C4C4C4" d="M307.456,59.232c0.069-0.053,0.143-0.109,0.212-0.162c0.033,0.051,0.055,0.107,0.055,0.162H307.456z"/>
<path fill="#C4C4C4" d="M306.209,59.357c0.041-0.041,0.085-0.082,0.13-0.125h1.117c-0.2,0.154-0.394,0.312-0.6,0.461
	C306.539,59.67,306.289,59.537,306.209,59.357z"/>
<path fill="#C4C4C4" d="M306.165,59.232h0.174c-0.045,0.043-0.089,0.084-0.13,0.125C306.189,59.316,306.165,59.277,306.165,59.232z"
	/>
<path fill="#C4C4C4" d="M306.943,59.703c-0.031,0-0.059-0.006-0.087-0.01c0.206-0.148,0.399-0.307,0.6-0.461h0.267
	C307.723,59.494,307.375,59.703,306.943,59.703z"/>
<path fill="#696969" d="M314.976,56.574c0,0.262-0.348,0.473-0.778,0.473c-0.273,0-0.504-0.092-0.641-0.223
	c0.065-0.082,0.127-0.166,0.193-0.25H314.976z"/>
<path fill="#696969" d="M313.422,56.574h0.328c-0.066,0.084-0.128,0.168-0.193,0.25C313.477,56.752,313.422,56.668,313.422,56.574z"
	/>
<path fill="#696969" d="M314.139,54.025c-0.228,0.371-0.467,0.738-0.717,1.102v-0.17C313.668,54.65,313.908,54.336,314.139,54.025z"
	/>
<path fill="#696969" d="M313.947,52.301c-0.167,0.264-0.349,0.521-0.525,0.779v-1.221C313.422,52.068,313.642,52.236,313.947,52.301
	z"/>
<path fill="#696969" d="M314.197,56.102c-0.034,0-0.061,0.01-0.091,0.014c0.306-0.414,0.595-0.83,0.869-1.256v1.715
	C314.976,56.312,314.628,56.102,314.197,56.102z"/>
<path fill="#696969" d="M313.422,56.574v-1.447c0.25-0.363,0.489-0.73,0.717-1.102c0.294-0.398,0.572-0.801,0.837-1.211v2.045
	c-0.274,0.426-0.563,0.842-0.869,1.256C313.722,56.143,313.422,56.332,313.422,56.574z"/>
<path fill="#696969" d="M313.422,53.08c0.177-0.258,0.358-0.516,0.525-0.779c0.077,0.018,0.161,0.031,0.25,0.031
	c0.431,0,0.778-0.211,0.778-0.473v0.656c-0.255,0.51-0.534,1.014-0.837,1.51c-0.23,0.311-0.471,0.625-0.717,0.932V53.08z"/>
<path fill="#696969" d="M314.976,52.516v0.299c-0.265,0.41-0.543,0.812-0.837,1.211C314.441,53.529,314.721,53.025,314.976,52.516z"
	/>
<path fill="#696969" d="M314.106,56.115c0.03-0.004,0.057-0.014,0.091-0.014c0.431,0,0.778,0.211,0.778,0.473h-1.226
	C313.869,56.422,313.989,56.268,314.106,56.115z"/>
<path fill="#696969" d="M314.106,56.115c-0.117,0.152-0.237,0.307-0.356,0.459h-0.328C313.422,56.332,313.722,56.143,314.106,56.115
	z"/>
<path fill="#C4C4C4" d="M313.422,51.859c0-0.26,0.348-0.471,0.775-0.471c0.098,0,0.186,0.014,0.273,0.033
	c-0.086,0.146-0.175,0.293-0.264,0.438H313.422z"/>
<path fill="#C4C4C4" d="M314.976,51.859h-0.769c0.089-0.145,0.178-0.291,0.264-0.438C314.763,51.488,314.976,51.658,314.976,51.859z
	"/>
<path fill="#C4C4C4" d="M313.947,52.301c-0.306-0.064-0.525-0.232-0.525-0.441h0.785C314.121,52.006,314.039,52.154,313.947,52.301z
	"/>
<path fill="#C4C4C4" d="M314.976,51.859c0,0.262-0.348,0.473-0.778,0.473c-0.089,0-0.173-0.014-0.25-0.031
	c0.092-0.146,0.174-0.295,0.26-0.441H314.976z"/>
<path fill="#C4C4C4" d="M318.314,41.014c0,0.078-0.04,0.15-0.099,0.215c-0.006-0.152-0.013-0.305-0.026-0.455
	C318.262,40.846,318.314,40.924,318.314,41.014z"/>
<path fill="#C4C4C4" d="M316.756,41.014c0-0.111,0.07-0.207,0.177-0.289c0.018,0.203,0.025,0.404,0.036,0.609
	C316.839,41.248,316.756,41.137,316.756,41.014z"/>
<path fill="#C4C4C4" d="M317.896,40.602c0.12,0.039,0.222,0.098,0.293,0.172c0.014,0.15,0.021,0.303,0.026,0.455
	c-0.045,0.053-0.106,0.102-0.181,0.139C317.992,41.111,317.949,40.855,317.896,40.602z"/>
<path fill="#C4C4C4" d="M317.896,40.602c0.053,0.254,0.096,0.51,0.139,0.766c-0.061,0.029-0.121,0.062-0.195,0.082
	c-0.066-0.307-0.165-0.6-0.243-0.9C317.706,40.555,317.804,40.572,317.896,40.602z"/>
<path fill="#C4C4C4" d="M316.969,41.334c-0.011-0.205-0.019-0.406-0.036-0.609c0.144-0.107,0.354-0.186,0.602-0.186
	c0.021,0,0.041,0.008,0.062,0.01c0.078,0.301,0.177,0.594,0.243,0.9c-0.095,0.023-0.197,0.035-0.306,0.035
	C317.311,41.484,317.112,41.426,316.969,41.334z"/>
<path fill="#C4C4C4" d="M237.135,40.828c0-0.076,0.035-0.148,0.09-0.211c-0.01,0.135-0.012,0.268-0.026,0.402
	C237.159,40.961,237.135,40.895,237.135,40.828z"/>
<path fill="#C4C4C4" d="M238.69,40.828c0,0.135-0.094,0.254-0.243,0.338c0.015-0.215,0.02-0.432,0.043-0.646
	C238.611,40.602,238.69,40.709,238.69,40.828z"/>
<path fill="#C4C4C4" d="M237.404,41.18c-0.085-0.045-0.156-0.098-0.206-0.16c0.015-0.135,0.017-0.268,0.026-0.402
	c0.073-0.084,0.18-0.15,0.314-0.195C237.486,40.674,237.447,40.928,237.404,41.18z"/>
<path fill="#C4C4C4" d="M237.912,40.355c0.12,0,0.232,0.021,0.335,0.049c-0.096,0.299-0.195,0.59-0.273,0.889
	c-0.021,0.002-0.042,0.008-0.062,0.008c-0.197,0-0.371-0.049-0.508-0.121c0.043-0.252,0.082-0.506,0.135-0.758
	C237.649,40.385,237.777,40.355,237.912,40.355z"/>
<path fill="#C4C4C4" d="M238.49,40.52c-0.023,0.215-0.028,0.432-0.043,0.646c-0.124,0.072-0.291,0.117-0.474,0.127
	c0.078-0.299,0.178-0.59,0.273-0.889C238.34,40.434,238.419,40.473,238.49,40.52z"/>
<path fill="#696969" d="M268.94,72.229c-0.43,0-0.777-0.213-0.777-0.473h1.555C269.718,72.016,269.369,72.229,268.94,72.229z"/>
<path fill="#696969" d="M269.718,71.756c0-0.262-0.349-0.473-0.777-0.473c-0.43,0-0.777,0.211-0.777,0.473v-1.338
	c0.515,0.082,1.029,0.164,1.555,0.232V71.756z"/>
<path fill="#696969" d="M269.718,68.605v1.195c-0.522-0.07-1.04-0.154-1.555-0.238v-1.189
	C268.678,68.455,269.192,68.537,269.718,68.605z"/>
<path fill="#696969" d="M268.163,67.043c0,0.26,0.348,0.469,0.777,0.469c0.429,0,0.777-0.209,0.777-0.469v0.715
	c-0.522-0.072-1.04-0.152-1.555-0.24V67.043z"/>
<path fill="#696969" d="M269.718,69.801v0.85c-0.525-0.068-1.04-0.15-1.555-0.232v-0.855
	C268.678,69.646,269.195,69.73,269.718,69.801z"/>
<path fill="#696969" d="M269.718,68.48v0.125c-0.525-0.068-1.04-0.15-1.555-0.232v-0.164C268.676,68.307,269.192,68.4,269.718,68.48
	z"/>
<path fill="#696969" d="M268.163,68.209v-0.691c0.515,0.088,1.032,0.168,1.555,0.24v0.723
	C269.192,68.4,268.676,68.307,268.163,68.209z"/>
<path fill="#696969" d="M268.94,71.283c0.429,0,0.777,0.211,0.777,0.473h-1.555C268.163,71.494,268.511,71.283,268.94,71.283z"/>
<path fill="#C4C4C4" d="M268.94,66.568c0.429,0,0.777,0.213,0.777,0.475h-1.555C268.163,66.781,268.511,66.568,268.94,66.568z"/>
<path fill="#C4C4C4" d="M268.94,67.512c-0.43,0-0.777-0.209-0.777-0.469h1.555C269.718,67.303,269.369,67.512,268.94,67.512z"/>
<path fill="#696969" d="M260.921,70.34c-0.43,0-0.777-0.209-0.777-0.469h1.554C261.697,70.131,261.35,70.34,260.921,70.34z"/>
<path fill="#696969" d="M261.697,66.947v1.129c-0.523-0.154-1.041-0.318-1.554-0.486v-1.111
	C260.656,66.641,261.174,66.795,261.697,66.947z"/>
<path fill="#696969" d="M261.697,69.871c0-0.262-0.348-0.473-0.776-0.473c-0.43,0-0.777,0.211-0.777,0.473v-1.348
	c0.513,0.164,1.03,0.318,1.554,0.469V69.871z"/>
<path fill="#696969" d="M260.144,65.156c0,0.264,0.348,0.473,0.777,0.473c0.429,0,0.776-0.209,0.776-0.473v0.877
	c-0.523-0.156-1.041-0.32-1.554-0.49V65.156z"/>
<path fill="#696969" d="M261.697,68.076v0.916c-0.523-0.15-1.041-0.305-1.554-0.469V67.59
	C260.656,67.758,261.174,67.922,261.697,68.076z"/>
<path fill="#696969" d="M261.697,66.482v0.465c-0.523-0.152-1.041-0.307-1.554-0.469v-0.574
	C260.652,66.107,261.173,66.299,261.697,66.482z"/>
<path fill="#696969" d="M260.144,65.904v-0.361c0.513,0.17,1.03,0.334,1.554,0.49v0.449
	C261.173,66.299,260.652,66.107,260.144,65.904z"/>
<path fill="#696969" d="M260.921,69.398c0.429,0,0.776,0.211,0.776,0.473h-1.554C260.144,69.609,260.491,69.398,260.921,69.398z"/>
<path fill="#C4C4C4" d="M261.325,64.762c-0.054-0.014-0.106-0.031-0.158-0.047C261.224,64.727,261.275,64.744,261.325,64.762z"/>
<path fill="#C4C4C4" d="M261.697,65.156h-1.554c0-0.26,0.348-0.473,0.777-0.473c0.087,0,0.167,0.016,0.246,0.031
	c0.052,0.016,0.104,0.033,0.158,0.047C261.545,64.846,261.697,64.988,261.697,65.156z"/>
<path fill="#C4C4C4" d="M260.921,65.629c-0.43,0-0.777-0.209-0.777-0.473h1.554C261.697,65.42,261.35,65.629,260.921,65.629z"/>
<path fill="#696969" d="M252.484,66.762c-0.43,0-0.779-0.211-0.779-0.471h1.556C253.261,66.551,252.913,66.762,252.484,66.762z"/>
<path fill="#696969" d="M253.261,63.684v0.986c-0.53-0.279-1.047-0.57-1.556-0.867v-0.941
	C252.214,63.143,252.732,63.418,253.261,63.684z"/>
<path fill="#696969" d="M252.051,61.957c0.126,0.053,0.268,0.09,0.434,0.09c0.096,0,0.186-0.014,0.271-0.035
	c0.168,0.117,0.335,0.238,0.505,0.354v0.26C252.854,62.408,252.45,62.184,252.051,61.957z"/>
<path fill="#696969" d="M251.872,61.854c-0.056-0.033-0.11-0.064-0.167-0.096v-0.182C251.705,61.682,251.774,61.773,251.872,61.854z
	"/>
<path fill="#696969" d="M253.261,66.291c0-0.262-0.348-0.475-0.776-0.475c-0.43,0-0.779,0.213-0.779,0.475v-1.387
	c0.509,0.283,1.027,0.557,1.556,0.824V66.291z"/>
<path fill="#696969" d="M253.261,61.576v0.789c-0.17-0.115-0.337-0.236-0.505-0.354C253.05,61.947,253.261,61.775,253.261,61.576z"
	/>
<path fill="#696969" d="M253.261,64.67v1.059c-0.528-0.268-1.047-0.541-1.556-0.824v-1.102
	C252.214,64.1,252.73,64.391,253.261,64.67z"/>
<path fill="#696969" d="M252.051,61.957c0.399,0.227,0.803,0.451,1.21,0.668v1.059c-0.528-0.266-1.047-0.541-1.556-0.822v-1.104
	c0.057,0.031,0.111,0.062,0.167,0.096C251.925,61.895,251.983,61.93,252.051,61.957z"/>
<path fill="#696969" d="M252.484,65.816c0.429,0,0.776,0.213,0.776,0.475h-1.556C251.705,66.029,252.055,65.816,252.484,65.816z"/>
<path fill="#C4C4C4" d="M251.705,61.576c0-0.086,0.05-0.164,0.115-0.23c0.104,0.076,0.2,0.154,0.307,0.23H251.705z"/>
<path fill="#C4C4C4" d="M253.261,61.576h-1.134c-0.106-0.076-0.202-0.154-0.307-0.23c0.135-0.143,0.374-0.242,0.664-0.242
	C252.913,61.104,253.261,61.314,253.261,61.576z"/>
<path fill="#C4C4C4" d="M252.756,62.012c-0.086,0.021-0.176,0.035-0.271,0.035c-0.166,0-0.308-0.037-0.434-0.09
	c-0.059-0.033-0.119-0.068-0.179-0.104c-0.098-0.08-0.167-0.172-0.167-0.277h0.422C252.331,61.723,252.546,61.869,252.756,62.012z"
	/>
<path fill="#C4C4C4" d="M252.756,62.012c-0.21-0.143-0.425-0.289-0.629-0.436h1.134C253.261,61.775,253.05,61.947,252.756,62.012z"
	/>
<path fill="#C4C4C4" d="M252.051,61.957c-0.067-0.027-0.126-0.062-0.179-0.104C251.932,61.889,251.992,61.924,252.051,61.957z"/>
<path fill="#696969" d="M244.887,60.053c-0.1,0.193-0.384,0.336-0.733,0.336c-0.429,0-0.778-0.211-0.778-0.473h1.366
	C244.789,59.961,244.837,60.01,244.887,60.053z"/>
<path fill="#696969" d="M244.931,59.916c0,0.049-0.022,0.094-0.044,0.137c-0.05-0.043-0.098-0.092-0.146-0.137H244.931z"/>
<path fill="#696969" d="M244.248,59.457c-0.034-0.004-0.062-0.014-0.095-0.014c-0.429,0-0.778,0.213-0.778,0.473V58.57
	C243.658,58.869,243.946,59.164,244.248,59.457z"/>
<path fill="#696969" d="M244.931,58.051v0.588c-0.55-0.551-1.068-1.119-1.556-1.697v-0.416
	C243.868,57.047,244.388,57.555,244.931,58.051z"/>
<path fill="#696969" d="M244.153,55.674c0.43,0,0.777-0.213,0.777-0.471v1.391c-0.306-0.307-0.608-0.617-0.896-0.936
	C244.077,55.662,244.111,55.674,244.153,55.674z"/>
<path fill="#696969" d="M244.931,59.916c0-0.24-0.3-0.43-0.683-0.459c-0.302-0.293-0.59-0.588-0.873-0.887v-1.629
	c0.487,0.578,1.006,1.146,1.556,1.697V59.916z"/>
<path fill="#696969" d="M244.035,55.658c0.287,0.318,0.59,0.629,0.896,0.936v1.457c-0.543-0.496-1.062-1.004-1.556-1.525v-1.322
	C243.375,55.438,243.662,55.623,244.035,55.658z"/>
<path fill="#696969" d="M244.153,59.443c0.032,0,0.061,0.01,0.095,0.014c0.157,0.152,0.326,0.305,0.493,0.459h-1.366
	C243.375,59.656,243.725,59.443,244.153,59.443z"/>
<path fill="#696969" d="M244.248,59.457c0.383,0.029,0.683,0.219,0.683,0.459h-0.189C244.574,59.762,244.405,59.609,244.248,59.457z
	"/>
<path fill="#C4C4C4" d="M244.931,55.203h-1.292c-0.059-0.07-0.12-0.139-0.177-0.209c0.126-0.154,0.385-0.264,0.691-0.264
	C244.583,54.73,244.931,54.941,244.931,55.203z"/>
<path fill="#C4C4C4" d="M243.375,55.203c0-0.074,0.033-0.145,0.087-0.209c0.057,0.07,0.118,0.139,0.177,0.209H243.375z"/>
<path fill="#C4C4C4" d="M244.153,55.674c-0.042,0-0.076-0.012-0.118-0.016c-0.137-0.148-0.265-0.303-0.396-0.455h1.292
	C244.931,55.461,244.583,55.674,244.153,55.674z"/>
<path fill="#C4C4C4" d="M244.035,55.658c-0.373-0.035-0.66-0.221-0.66-0.455h0.264C243.771,55.355,243.898,55.51,244.035,55.658z"/>
<path fill="#696969" d="M242.596,32.775h0.82c0,0.154,0,0.311-0.002,0.465c0,0-0.029,0.008-0.039,0.008
	C242.943,33.248,242.596,33.035,242.596,32.775z"/>
<path fill="#696969" d="M242.596,30.721V30.58c0.265-0.357,0.552-0.703,0.838-1.047c0,0.084,0,0.168-0.002,0.254
	C243.143,30.094,242.867,30.406,242.596,30.721z"/>
<path fill="#696969" d="M242.933,28.439c-0.116,0.131-0.226,0.264-0.337,0.396v-0.775C242.596,28.221,242.734,28.354,242.933,28.439
	z"/>
<path fill="#696969" d="M242.598,32.77h-0.002v-0.316c0.265-0.348,0.539-0.691,0.827-1.033c-0.002,0.129-0.002,0.26-0.002,0.389
	c-0.183,0.193-0.339,0.398-0.515,0.598C242.726,32.492,242.603,32.619,242.598,32.77z"/>
<polygon fill="#696969" points="242.596,32.775 242.596,32.77 242.598,32.77 "/>
<path fill="#696969" d="M242.906,32.406c0.176-0.199,0.332-0.404,0.515-0.598c-0.002,0.166-0.002,0.334-0.002,0.5
	c-0.018,0-0.028-0.006-0.044-0.006C243.195,32.303,243.039,32.346,242.906,32.406z"/>
<path fill="#696969" d="M242.906,32.406c-0.104,0.121-0.206,0.242-0.309,0.363C242.603,32.619,242.726,32.492,242.906,32.406z"/>
<path fill="#696969" d="M242.596,32.775l0.002-0.006c0.103-0.121,0.204-0.242,0.309-0.363c0.133-0.061,0.289-0.104,0.469-0.104
	c0.016,0,0.026,0.006,0.044,0.006c0,0.156-0.003,0.311-0.003,0.467H242.596z"/>
<path fill="#C4C4C4" d="M243.25,28.061h-0.654c0-0.26,0.348-0.473,0.779-0.473c0.024,0,0.046,0.008,0.068,0.01
	c0,0.078,0,0.154,0,0.236C243.375,27.906,243.318,27.986,243.25,28.061z"/>
<path fill="#C4C4C4" d="M242.933,28.439c-0.198-0.086-0.337-0.219-0.337-0.379h0.654C243.139,28.184,243.041,28.314,242.933,28.439z
	"/>
<path fill="#696969" d="M313.019,32.775c0.065,0.092,0.137,0.182,0.204,0.275c-0.144,0.117-0.358,0.197-0.613,0.197
	c-0.119,0-0.228-0.02-0.328-0.049c0-0.139-0.002-0.281-0.002-0.424H313.019z"/>
<path fill="#696969" d="M312.271,30.164c0-0.119,0-0.23,0-0.346c0.393,0.49,0.765,0.99,1.114,1.502v0.129
	C313.035,31.012,312.658,30.586,312.271,30.164z"/>
<path fill="#696969" d="M313.386,28.061v1.396c-0.248-0.312-0.502-0.621-0.769-0.924C313.044,28.527,313.386,28.318,313.386,28.061z
	"/>
<path fill="#696969" d="M312.279,32.354c0-0.182,0-0.361-0.004-0.543c0.135,0.166,0.265,0.334,0.397,0.5
	c-0.024-0.002-0.044-0.008-0.063-0.008C312.488,32.303,312.378,32.322,312.279,32.354z"/>
<path fill="#696969" d="M312.279,32.775c0-0.141,0-0.283,0-0.422c0.099-0.031,0.209-0.051,0.33-0.051
	c0.02,0,0.039,0.006,0.063,0.008c0.115,0.154,0.229,0.309,0.346,0.465H312.279z"/>
<path fill="#C4C4C4" d="M312.265,27.643c0.103-0.033,0.22-0.055,0.345-0.055c0.429,0,0.776,0.213,0.776,0.473h-1.121
	C312.265,27.918,312.265,27.781,312.265,27.643z"/>
<path fill="#C4C4C4" d="M312.617,28.533c-0.122-0.141-0.227-0.285-0.353-0.424c0-0.016,0-0.031,0-0.031l1.121-0.018
	C313.386,28.318,313.044,28.527,312.617,28.533z"/>
<path fill="#5C5C5C" d="M314.923,34.52c-0.462-0.707-0.976-1.395-1.537-2.064v-1.006c0.213,0.262,0.408,0.531,0.608,0.801
	c0.458,0.742,0.884,1.494,1.246,2.27H314.923z"/>
<path fill="#5C5C5C" d="M313.223,33.051c0.096-0.078,0.163-0.172,0.163-0.275v-0.32c0.562,0.67,1.075,1.357,1.537,2.064h-0.728
	C313.896,34.021,313.565,33.535,313.223,33.051z"/>
<path fill="#5C5C5C" d="M313.386,32.775c0,0.104-0.067,0.197-0.163,0.275c-0.067-0.094-0.139-0.184-0.204-0.275H313.386z"/>
<path fill="#5C5C5C" d="M312.271,30.164c0.387,0.422,0.764,0.848,1.114,1.285v1.006c-0.358-0.43-0.713-0.861-1.11-1.273
	C312.275,30.84,312.271,30.498,312.271,30.164z"/>
<path fill="#5C5C5C" d="M312.673,32.311c-0.133-0.166-0.263-0.334-0.397-0.5c0-0.211,0-0.418,0-0.629
	c0.397,0.412,0.752,0.844,1.11,1.273v0.32C313.386,32.529,313.07,32.33,312.673,32.311z"/>
<path fill="#5C5C5C" d="M312.673,32.311c0.397,0.02,0.713,0.219,0.713,0.465h-0.367C312.901,32.619,312.788,32.465,312.673,32.311z"
	/>
<path fill="#5C5C5C" d="M242.596,32.453c-0.511,0.672-0.99,1.359-1.416,2.066h-0.976c0.517-1.096,1.16-2.156,1.866-3.184
	c0.171-0.207,0.35-0.412,0.525-0.615V32.453z"/>
<path fill="#5C5C5C" d="M242.596,30.721c0.271-0.314,0.547-0.627,0.836-0.934c-0.002,0.537-0.006,1.084-0.009,1.633
	c-0.288,0.342-0.562,0.686-0.827,1.033V30.721z"/>
<path fill="#5C5C5C" d="M242.07,31.336c-0.828,1.027-1.572,2.086-2.209,3.184h-0.963c0.915-2.002,2.188-3.904,3.697-5.684v1.744
	C242.411,30.826,242.248,31.084,242.07,31.336z"/>
<path fill="#5C5C5C" d="M243.375,28.533c0.021,0,0.041-0.008,0.065-0.008c-0.002,0.332-0.005,0.666-0.007,1.008
	c-0.286,0.344-0.573,0.689-0.838,1.047v-1.744c0.111-0.133,0.221-0.266,0.337-0.396C243.059,28.494,243.206,28.533,243.375,28.533z"
	/>
<path fill="#5C5C5C" d="M243.25,28.061c0.068-0.074,0.125-0.154,0.193-0.227c0,0.078,0,0.15,0,0.227H243.25z"/>
<path fill="#5C5C5C" d="M243.44,28.525c-0.024,0-0.044,0.008-0.065,0.008c-0.169,0-0.316-0.039-0.442-0.094
	c0.108-0.125,0.206-0.256,0.317-0.379h0.193C243.44,28.213,243.44,28.371,243.44,28.525z"/>
<path fill="#5C5C5C" d="M239.861,34.52c0.637-1.098,1.381-2.156,2.209-3.184c-0.706,1.027-1.35,2.088-1.866,3.184H239.861z"/>
<path fill="#5C5C5C" d="M313.994,32.25c-0.195-0.314-0.396-0.623-0.608-0.93v-1.863c1.271,1.602,2.346,3.291,3.145,5.062h-1.012
	C315.066,33.742,314.545,32.99,313.994,32.25z"/>
<path fill="#5C5C5C" d="M312.271,29.818c-0.002-0.455-0.002-0.904-0.005-1.338c0.104,0.031,0.218,0.053,0.343,0.053h0.008
	c0.267,0.303,0.521,0.611,0.769,0.924v1.863C313.036,30.809,312.664,30.309,312.271,29.818z"/>
<path fill="#5C5C5C" d="M312.617,28.533h-0.005c-0.128,0-0.241-0.021-0.346-0.053c-0.002-0.129-0.002-0.244-0.002-0.371
	C312.391,28.248,312.495,28.393,312.617,28.533z"/>
<path fill="#5C5C5C" d="M313.994,32.25c0.551,0.74,1.072,1.492,1.524,2.27h-0.278C314.878,33.744,314.452,32.992,313.994,32.25z"/>
<path fill="#EBEBEB" d="M243.443,27.834c0-0.082,0-0.158,0-0.236c0.075,0.002,0.146,0.012,0.212,0.025
	C243.584,27.693,243.512,27.764,243.443,27.834z"/>
<path fill="#EBEBEB" d="M312.226,28.061c-0.08-0.09-0.161-0.176-0.245-0.264c0.075-0.064,0.167-0.119,0.284-0.154
	c0,0.139,0,0.275,0,0.418H312.226z"/>
<path fill="#EBEBEB" d="M312.265,28.061c0,0,0,0.033,0,0.049c-0.013-0.016-0.024-0.031-0.039-0.049H312.265z"/>
<polygon fill="#7F8282" points="211.17,365.639 348.023,286.619 347.035,279.588 26.605,260.178 "/>
<polygon fill="#D0D0D0" points="210.182,358.611 347.035,279.588 26.605,208.676 27.678,253.148 "/>
<polygon fill="#7F8282" points="209.111,314.137 345.964,235.115 345.964,229.461 26.605,208.676 "/>
<polygon fill="#727372" points="209.111,308.488 345.964,229.461 163.459,124.002 26.605,203.025 "/>
<polygon fill="#ABADAB" points="209.111,365.639 210.182,358.611 27.678,253.148 26.605,260.178 "/>
<polygon fill="#BBBCBB" points="209.111,314.137 210.182,358.611 347.035,279.588 345.964,235.115 "/>
<polygon fill="#666565" points="211.17,365.639 209.111,365.639 210.182,358.611 "/>
<polygon fill="#9D9E9D" points="209.111,308.488 209.111,314.137 26.605,208.676 26.605,203.025 "/>
<polygon fill="#3A3737" points="26.605,203.078 26.605,167.244 70.233,228.059 "/>
<polygon fill="#3A3737" points="298.846,202.467 298.846,166.633 345.964,229.732 "/>
<polygon fill="#3A3737" points="252.459,175.555 252.459,139.725 298.846,202.467 "/>
<polygon fill="#3A3737" points="207.086,149.301 207.086,113.471 252.459,175.555 "/>
<polygon fill="#3A3737" points="163.459,124.322 163.459,88.49 207.086,149.301 "/>
<polygon fill="#6E6E6E" points="170.019,307.006 195.709,321.857 195.73,322.672 169.132,307.297 168.893,297.463 169.801,297.986 
	"/>
<polygon fill="#6E6E6E" points="170.019,322.971 195.709,337.82 195.73,338.635 169.132,323.262 168.893,313.426 169.801,313.949 
	"/>
<polygon fill="#6E6E6E" points="137.292,287.926 162.982,302.773 163.004,303.586 136.405,288.215 136.168,278.377 137.074,278.902 
	"/>
<polygon fill="#6E6E6E" points="137.292,303.889 162.982,318.736 163.004,319.549 136.405,304.178 136.168,294.34 137.074,294.867 
	"/>
<polygon fill="#6E6E6E" points="103.692,269.002 129.386,283.854 129.405,284.666 102.808,269.291 102.571,259.457 103.477,259.98 
	"/>
<polygon fill="#6E6E6E" points="103.692,284.965 129.386,299.816 129.405,300.631 102.808,285.256 102.571,275.422 103.477,275.945 
	"/>
<polygon fill="#6E6E6E" points="70.968,249.92 96.659,264.766 96.679,265.58 70.082,250.211 69.845,240.373 70.75,240.896 "/>
<polygon fill="#6E6E6E" points="70.968,265.885 96.659,280.73 96.679,281.545 70.082,266.174 69.845,256.336 70.75,256.859 "/>
<polygon fill="#6E6E6E" points="63.933,245.623 63.954,246.436 37.355,231.062 37.118,221.229 38.025,221.752 38.241,230.775 "/>
<polygon fill="#6E6E6E" points="38.241,246.738 63.933,261.586 63.954,262.4 37.355,247.027 37.118,237.191 38.025,237.715 "/>
<polygon fill="#A5A094" points="169.801,297.986 195.494,312.834 195.709,321.857 170.019,307.006 "/>
<polygon fill="#A5A094" points="169.801,313.949 195.494,328.797 195.709,337.82 170.019,322.971 "/>
<polygon fill="#A5A094" points="137.074,278.902 162.768,293.752 162.982,302.773 137.292,287.926 "/>
<polygon fill="#A5A094" points="137.074,294.867 162.768,309.717 162.982,318.736 137.292,303.889 "/>
<polygon fill="#A5A094" points="103.477,259.98 129.166,274.828 129.386,283.854 103.692,269.002 "/>
<polygon fill="#A5A094" points="103.477,275.945 129.166,290.793 129.386,299.816 103.692,284.965 "/>
<polygon fill="#A5A094" points="70.75,240.896 96.441,255.748 96.659,264.766 70.968,249.92 "/>
<polygon fill="#A5A094" points="70.75,256.859 96.441,271.711 96.659,280.73 70.968,265.885 "/>
<polygon fill="#A5A094" points="63.933,245.623 38.241,230.775 38.025,221.752 63.715,236.602 "/>
<polygon fill="#A5A094" points="38.025,237.715 63.715,252.564 63.933,261.586 38.241,246.738 "/>
<path fill="#949494" d="M311.913,325.885c0,11.045,15.321,19.996,34.219,19.996c18.903,0,34.223-8.951,34.223-19.996
	c0-11.043-15.319-19.994-34.223-19.994C327.234,305.891,311.913,314.842,311.913,325.885z"/>
<path fill="#D6D6D6" d="M380.354,258.582v63.275h-0.071c0.018,0.271,0.071,0.539,0.071,0.814c0,5.895-4.398,11.18-11.349,14.84
	v-78.93H380.354z"/>
<path fill="#EDEDED" d="M312.03,321.299v-62.717h56.976v78.93c-6.064,3.193-14.068,5.154-22.874,5.154
	c-18.897,0-34.219-8.953-34.219-19.994C311.913,322.207,311.98,321.754,312.03,321.299z"/>
<path fill="#D1D1D1" d="M346.132,325.112c-19.119,0-34.673-9.175-34.673-20.452h0.908c0,10.776,15.146,19.544,33.765,19.544
	c18.62,0,33.769-8.768,33.769-19.544h0.908C380.809,315.938,365.253,325.112,346.132,325.112z"/>
<path fill="#D1D1D1" d="M346.132,304.093c-19.119,0-34.673-9.174-34.673-20.45h0.908c0,10.775,15.146,19.542,33.765,19.542
	c18.62,0,33.769-8.767,33.769-19.542h0.908C380.809,294.919,365.253,304.093,346.132,304.093z"/>
<path fill="#EBEBEB" d="M311.913,260.178c0,11.043,15.321,19.996,34.219,19.996c18.903,0,34.223-8.953,34.223-19.996
	s-15.319-19.996-34.223-19.996C327.234,240.182,311.913,249.135,311.913,260.178z"/>
<ellipse fill="#9E9E9E" cx="346.134" cy="260.178" rx="35.218" ry="20.578"/>
<path fill="#DEDEDE" d="M310.916,258.582c0,11.365,15.767,20.578,35.216,20.578c19.452,0,35.22-9.213,35.22-20.578
	s-15.768-21.521-35.22-21.521C326.683,237.061,310.916,247.217,310.916,258.582z"/>
<g>
	<defs>
		<path id="SVGID_16_" d="M374.041,276.111h4.848c0,0,2.809,0,4.624,1.732c2.381,2.273,2.313,5.045,2.313,5.045l-1.32,61.861
			c0,1.006-1.258,1.822-2.807,1.822c-1.551,0-2.811-0.816-2.811-1.822l1.324-61.861c0,0,0.083-0.436-0.279-0.779
			c-0.392-0.371-1.045-0.381-1.045-0.381h-4.848c-1.008,0-1.821-1.258-1.821-2.809C372.22,277.367,373.033,276.111,374.041,276.111z
			"/>
	</defs>
	<use xlink:href="#SVGID_16_"  overflow="visible" fill="#B8B8B8"/>
	<clipPath id="SVGID_18_">
		<use xlink:href="#SVGID_16_"  overflow="visible"/>
	</clipPath>
	<g clip-path="url(#SVGID_18_)">
		<g>
			<g>
				<path fill="#D1D1D1" d="M381.714,343.673c-2.017,0-3.597-0.964-3.597-2.194h0.453c0,0.943,1.439,1.739,3.144,1.739
					c1.703,0,3.142-0.796,3.142-1.739h0.455C385.311,342.709,383.73,343.673,381.714,343.673z"/>
			</g>
		</g>
		<g>
			<g>
				<path fill="#D1D1D1" d="M382.125,334.833c-2.017,0-3.596-0.963-3.596-2.192h0.453c0,0.942,1.439,1.737,3.143,1.737
					c1.705,0,3.146-0.795,3.146-1.737h0.453C385.725,333.87,384.144,334.833,382.125,334.833z"/>
			</g>
		</g>
		<g>
			<g>
				<path fill="#D1D1D1" d="M382.017,325.493c-2.018,0-3.599-0.966-3.599-2.198h0.455c0,0.945,1.439,1.743,3.144,1.743
					s3.146-0.798,3.146-1.743h0.453C385.615,324.527,384.035,325.493,382.017,325.493z"/>
			</g>
		</g>
		<g>
			<g>
				<path fill="#D1D1D1" d="M382.379,315.968c-2.018,0-3.598-0.967-3.598-2.2h0.453c0,0.946,1.44,1.745,3.145,1.745
					c1.703,0,3.143-0.799,3.143-1.745h0.453C385.975,315.001,384.396,315.968,382.379,315.968z"/>
			</g>
		</g>
		<g>
			<g>
				<path fill="#D1D1D1" d="M382.379,307.128c-2.018,0-3.598-0.966-3.598-2.198h0.453c0,0.945,1.44,1.743,3.145,1.743
					c1.703,0,3.143-0.798,3.143-1.743h0.453C385.975,306.162,384.396,307.128,382.379,307.128z"/>
			</g>
		</g>
		<g>
			<g>
				<path fill="#D1D1D1" d="M382.379,298.087c-2.018,0-3.598-0.965-3.598-2.196h0.453c0,0.944,1.44,1.741,3.145,1.741
					c1.703,0,3.143-0.797,3.143-1.741h0.453C385.975,297.122,384.396,298.087,382.379,298.087z"/>
			</g>
		</g>
		<g>
			<g>
				<path fill="#D1D1D1" d="M382.982,289.095c-2.018,0-3.598-0.967-3.598-2.2h0.453c0,0.946,1.44,1.745,3.145,1.745
					c1.703,0,3.143-0.799,3.143-1.745h0.453C386.578,288.128,384.999,289.095,382.982,289.095z"/>
			</g>
		</g>
		<g>
			<g>
				<path fill="#D1D1D1" d="M376.936,282.296c-1.232,0-2.199-1.581-2.199-3.599s0.967-3.599,2.199-3.599v0.455
					c-0.945,0-1.744,1.439-1.744,3.144s0.799,3.144,1.744,3.144V282.296z"/>
			</g>
		</g>
		<g>
			<g>
				<path fill="#D1D1D1" d="M379.521,283.628c-0.524-0.765,0.354-2.216,2.043-3.376c1.178-0.808,2.445-1.234,3.229-1.087
					c0.293,0.055,0.52,0.189,0.656,0.391l-0.375,0.256c-0.068-0.101-0.191-0.168-0.364-0.2c-0.667-0.129-1.823,0.284-2.89,1.016
					c-1.524,1.047-2.238,2.287-1.924,2.744L379.521,283.628z"/>
			</g>
		</g>
		<g>
			<g>
				<path fill="#D1D1D1" d="M379.129,282.711c-0.296-0.366-0.252-0.948,0.124-1.64c0.343-0.631,0.93-1.3,1.652-1.883
					c1.597-1.287,3.241-1.716,3.822-0.995l-0.354,0.285c-0.347-0.431-1.741-0.102-3.184,1.063c-0.677,0.546-1.224,1.166-1.538,1.746
					c-0.274,0.505-0.338,0.93-0.17,1.138L379.129,282.711z"/>
			</g>
		</g>
		<g>
			<g>
				<path fill="#D1D1D1" d="M378.505,282.197c-0.706-0.596-0.249-2.23,1.063-3.802c1.318-1.571,2.85-2.31,3.56-1.712l-0.291,0.348
					c-0.427-0.354-1.729,0.237-2.921,1.656c-1.186,1.419-1.541,2.806-1.118,3.162L378.505,282.197z"/>
			</g>
		</g>
		<g>
			<g>
				<path fill="#D1D1D1" d="M379.734,284.398c-0.109-0.219-0.116-0.483-0.021-0.767c0.255-0.76,1.242-1.659,2.516-2.292
					c1.275-0.638,2.588-0.885,3.347-0.63c0.282,0.095,0.489,0.26,0.597,0.478l-0.406,0.203c-0.055-0.109-0.167-0.193-0.335-0.25
					c-0.638-0.212-1.845,0.029-3,0.605c-1.153,0.573-2.071,1.389-2.287,2.03c-0.056,0.169-0.058,0.31-0.003,0.419L379.734,284.398z"
					/>
			</g>
		</g>
		<g>
			<g>
				<path fill="#D1D1D1" d="M379.418,285.033c-0.121-0.918,1.32-1.813,3.352-2.083c2.034-0.264,3.658,0.223,3.781,1.141
					l-0.449,0.061c-0.074-0.551-1.438-0.993-3.273-0.75c-1.834,0.243-3.033,1.024-2.961,1.573L379.418,285.033z"/>
			</g>
		</g>
	</g>
</g>
<g>
	<defs>
		<path id="SVGID_14_" d="M380.846,270.656h4.85c0,0,2.807,0,4.622,1.732c2.383,2.275,2.315,5.047,2.315,5.047l-1.32,61.859
			c0,1.008-1.26,1.826-2.811,1.826c-1.547,0-2.807-0.818-2.807-1.826l1.32-61.859c0,0,0.085-0.438-0.277-0.779
			c-0.393-0.371-1.043-0.381-1.043-0.381h-4.85c-1.006,0-1.824-1.26-1.824-2.809C379.021,271.914,379.84,270.656,380.846,270.656z"
			/>
	</defs>
	<use xlink:href="#SVGID_14_"  overflow="visible" fill="#9E9E9E"/>
	<clipPath id="SVGID_20_">
		<use xlink:href="#SVGID_14_"  overflow="visible"/>
	</clipPath>
	<g clip-path="url(#SVGID_20_)">
		<g>
			<g>
				<path fill="#D1D1D1" d="M388.518,338.22c-2.018,0-3.598-0.964-3.598-2.194h0.453c0,0.943,1.44,1.739,3.145,1.739
					s3.145-0.796,3.145-1.739h0.453C392.115,337.256,390.535,338.22,388.518,338.22z"/>
			</g>
		</g>
		<g>
			<g>
				<path fill="#D1D1D1" d="M388.932,329.38c-2.018,0-3.598-0.964-3.598-2.194h0.453c0,0.943,1.44,1.739,3.145,1.739
					s3.145-0.796,3.145-1.739h0.453C392.529,328.416,390.949,329.38,388.932,329.38z"/>
			</g>
		</g>
		<g>
			<g>
				<path fill="#D1D1D1" d="M388.821,320.04c-2.017,0-3.597-0.967-3.597-2.2h0.454c0,0.946,1.439,1.745,3.143,1.745
					s3.142-0.799,3.142-1.745h0.455C392.418,319.073,390.838,320.04,388.821,320.04z"/>
			</g>
		</g>
		<g>
			<g>
				<path fill="#D1D1D1" d="M389.182,310.515c-2.017,0-3.596-0.966-3.596-2.198h0.453c0,0.945,1.439,1.743,3.143,1.743
					c1.704,0,3.145-0.798,3.145-1.743h0.453C392.779,309.549,391.199,310.515,389.182,310.515z"/>
			</g>
		</g>
		<g>
			<g>
				<path fill="#D1D1D1" d="M389.182,301.675c-2.017,0-3.596-0.966-3.596-2.198h0.453c0,0.945,1.439,1.743,3.143,1.743
					c1.704,0,3.145-0.798,3.145-1.743h0.453C392.779,300.709,391.199,301.675,389.182,301.675z"/>
			</g>
		</g>
		<g>
			<g>
				<path fill="#D1D1D1" d="M389.182,292.636c-2.017,0-3.596-0.966-3.596-2.198h0.453c0,0.945,1.439,1.743,3.143,1.743
					c1.704,0,3.145-0.798,3.145-1.743h0.453C392.779,291.67,391.199,292.636,389.182,292.636z"/>
			</g>
		</g>
		<g>
			<g>
				<path fill="#D1D1D1" d="M389.787,283.64c-2.018,0-3.6-0.966-3.6-2.198h0.455c0,0.945,1.439,1.743,3.145,1.743
					c1.704,0,3.144-0.798,3.144-1.743h0.454C393.385,282.674,391.805,283.64,389.787,283.64z"/>
			</g>
		</g>
		<g>
			<g>
				<path fill="#D1D1D1" d="M383.738,276.843c-1.23,0-2.195-1.58-2.195-3.597c0-2.018,0.965-3.599,2.195-3.599v0.455
					c-0.943,0-1.74,1.439-1.74,3.144c0,1.703,0.797,3.142,1.74,3.142V276.843z"/>
			</g>
		</g>
		<g>
			<g>
				<path fill="#D1D1D1" d="M386.325,278.175c-0.522-0.766,0.357-2.218,2.046-3.378c0.766-0.525,1.574-0.897,2.277-1.045
					c0.77-0.163,1.34-0.037,1.607,0.35l-0.375,0.258c-0.151-0.221-0.577-0.282-1.139-0.163c-0.646,0.136-1.396,0.482-2.113,0.976
					c-1.526,1.048-2.241,2.289-1.929,2.747L386.325,278.175z"/>
			</g>
		</g>
		<g>
			<g>
				<path fill="#D1D1D1" d="M385.934,277.258c-0.153-0.189-0.218-0.447-0.186-0.744c0.085-0.796,0.855-1.887,1.964-2.778
					c1.597-1.288,3.239-1.715,3.82-0.995l-0.354,0.285c-0.346-0.429-1.738-0.099-3.182,1.063c-1.003,0.808-1.726,1.802-1.798,2.473
					c-0.02,0.178,0.011,0.315,0.088,0.411L385.934,277.258z"/>
			</g>
		</g>
		<g>
			<g>
				<path fill="#D1D1D1" d="M385.309,276.742c-0.709-0.597-0.252-2.23,1.066-3.799c0.917-1.093,2.023-1.844,2.819-1.912
					c0.3-0.024,0.554,0.045,0.739,0.201l-0.293,0.348c-0.094-0.079-0.229-0.111-0.407-0.097c-0.671,0.058-1.681,0.762-2.511,1.752
					c-1.189,1.417-1.546,2.802-1.121,3.159L385.309,276.742z"/>
			</g>
		</g>
		<g>
			<g>
				<path fill="#D1D1D1" d="M386.539,278.947c-0.414-0.83,0.657-2.147,2.491-3.062c1.838-0.913,3.534-0.978,3.947-0.15l-0.406,0.203
					c-0.247-0.493-1.679-0.47-3.339,0.354c-1.656,0.827-2.535,1.957-2.287,2.453L386.539,278.947z"/>
			</g>
		</g>
		<g>
			<g>
				<path fill="#D1D1D1" d="M386.225,279.579c-0.033-0.242,0.046-0.494,0.228-0.731c0.487-0.635,1.713-1.165,3.124-1.351
					c0.92-0.121,1.81-0.087,2.504,0.1c0.76,0.204,1.213,0.573,1.273,1.04l-0.449,0.059c-0.035-0.265-0.387-0.511-0.941-0.659
					c-0.638-0.171-1.464-0.204-2.328-0.088c-1.277,0.167-2.411,0.64-2.822,1.176c-0.107,0.141-0.154,0.273-0.139,0.395
					L386.225,279.579z"/>
			</g>
		</g>
	</g>
</g>
<rect x="250.604" y="356.859" fill="#949494" width="68.407" height="4.029"/>
<path fill="#949494" d="M250.569,360.889c0,11.039,15.324,19.994,34.223,19.994c18.899,0,34.219-8.955,34.219-19.994
	c0-11.045-15.319-20-34.219-20C265.894,340.889,250.569,349.844,250.569,360.889z"/>
<path fill="#D6D6D6" d="M319.011,293.58v63.279h-0.069c0.018,0.271,0.069,0.539,0.069,0.811c0,5.898-4.397,11.184-11.349,14.844
	V293.58H319.011z"/>
<path fill="#EDEDED" d="M250.689,356.299V293.58h56.973v78.934c-6.061,3.191-14.066,5.152-22.87,5.152
	c-18.898,0-34.223-8.951-34.223-19.996C250.569,357.209,250.637,356.752,250.689,356.299z"/>
<path fill="#D1D1D1" d="M284.792,360.112c-19.121,0-34.677-9.173-34.677-20.448h0.908c0,10.774,15.148,19.54,33.769,19.54
	c18.618,0,33.765-8.766,33.765-19.54h0.908C319.465,350.939,303.91,360.112,284.792,360.112z"/>
<path fill="#D1D1D1" d="M284.792,339.095c-19.121,0-34.677-9.173-34.677-20.448h0.908c0,10.774,15.148,19.54,33.769,19.54
	c18.618,0,33.765-8.766,33.765-19.54h0.908C319.465,329.922,303.91,339.095,284.792,339.095z"/>
<ellipse fill="#EBEBEB" cx="284.79" cy="295.18" rx="34.221" ry="19.996"/>
<path fill="#9E9E9E" d="M249.572,295.18c0,11.365,15.768,20.576,35.22,20.576c19.449,0,35.218-9.211,35.218-20.576
	c0-11.367-15.769-20.582-35.218-20.582C265.34,274.598,249.572,283.812,249.572,295.18z"/>
<path fill="#DEDEDE" d="M249.572,293.584c0,11.365,15.768,20.576,35.22,20.576c19.449,0,35.218-9.211,35.218-20.576
	c0-11.369-15.769-21.523-35.218-21.523C265.34,272.061,249.572,282.215,249.572,293.584z"/>
<g>
	<defs>
		<path id="SVGID_12_" d="M312.699,311.109h4.848c0,0,2.809,0,4.622,1.732c2.383,2.277,2.315,5.051,2.315,5.051l-1.32,61.857
			c0,1.008-1.258,1.824-2.805,1.824c-1.555,0-2.812-0.816-2.812-1.824l1.322-61.857c0,0,0.084-0.438-0.277-0.781
			c-0.395-0.373-1.045-0.383-1.045-0.383h-4.848c-1.008,0-1.826-1.256-1.826-2.807C310.873,312.369,311.691,311.109,312.699,311.109
			z"/>
	</defs>
	<use xlink:href="#SVGID_12_"  overflow="visible" fill="#B8B8B8"/>
	<clipPath id="SVGID_22_">
		<use xlink:href="#SVGID_12_"  overflow="visible"/>
	</clipPath>
	<g clip-path="url(#SVGID_22_)">
		<g>
			<g>
				<path fill="#D1D1D1" d="M320.371,378.675c-2.017,0-3.596-0.966-3.596-2.198h0.453c0,0.945,1.439,1.743,3.143,1.743
					s3.142-0.798,3.142-1.743h0.454C323.967,377.709,322.388,378.675,320.371,378.675z"/>
			</g>
		</g>
		<g>
			<g>
				<path fill="#D1D1D1" d="M320.783,369.837c-2.017,0-3.596-0.966-3.596-2.198h0.453c0,0.945,1.439,1.743,3.143,1.743
					c1.704,0,3.145-0.798,3.145-1.743h0.453C324.381,368.871,322.801,369.837,320.783,369.837z"/>
			</g>
		</g>
		<g>
			<g>
				<path fill="#D1D1D1" d="M320.675,360.491c-2.017,0-3.597-0.965-3.597-2.196h0.455c0,0.944,1.438,1.741,3.142,1.741
					c1.704,0,3.144-0.797,3.144-1.741h0.455C324.273,359.526,322.692,360.491,320.675,360.491z"/>
			</g>
		</g>
		<g>
			<g>
				<path fill="#D1D1D1" d="M321.037,350.968c-2.018,0-3.598-0.965-3.598-2.196h0.453c0,0.944,1.44,1.741,3.145,1.741
					c1.702,0,3.141-0.797,3.141-1.741h0.453C324.631,350.003,323.053,350.968,321.037,350.968z"/>
			</g>
		</g>
		<g>
			<g>
				<path fill="#D1D1D1" d="M321.037,342.128c-2.018,0-3.598-0.965-3.598-2.196h0.453c0,0.944,1.44,1.741,3.145,1.741
					c1.702,0,3.141-0.797,3.141-1.741h0.453C324.631,341.163,323.053,342.128,321.037,342.128z"/>
			</g>
		</g>
		<g>
			<g>
				<path fill="#D1D1D1" d="M321.037,333.089c-2.018,0-3.598-0.964-3.598-2.194h0.453c0,0.943,1.44,1.739,3.145,1.739
					c1.702,0,3.141-0.796,3.141-1.739h0.453C324.631,332.125,323.053,333.089,321.037,333.089z"/>
			</g>
		</g>
		<g>
			<g>
				<path fill="#D1D1D1" d="M321.64,324.091c-2.018,0-3.599-0.963-3.599-2.192h0.455c0,0.942,1.439,1.737,3.144,1.737
					c1.702,0,3.142-0.795,3.142-1.737h0.453C325.234,323.128,323.656,324.091,321.64,324.091z"/>
			</g>
		</g>
		<g>
			<g>
				<path fill="#D1D1D1" d="M315.594,317.296c-1.232,0-2.199-1.579-2.199-3.595c0-2.018,0.967-3.599,2.199-3.599v0.455
					c-0.945,0-1.744,1.439-1.744,3.144c0,1.702,0.799,3.14,1.744,3.14V317.296z"/>
			</g>
		</g>
		<g>
			<g>
				<path fill="#D1D1D1" d="M318.178,318.627c-0.139-0.201-0.183-0.462-0.129-0.756c0.146-0.786,0.998-1.814,2.172-2.619
					c1.691-1.159,3.363-1.463,3.887-0.699l-0.375,0.258c-0.312-0.456-1.727-0.232-3.254,0.816c-1.062,0.729-1.859,1.664-1.982,2.327
					c-0.032,0.175-0.014,0.314,0.057,0.415L318.178,318.627z"/>
			</g>
		</g>
		<g>
			<g>
				<path fill="#D1D1D1" d="M317.787,317.711c-0.297-0.366-0.252-0.949,0.123-1.641c0.344-0.63,0.931-1.298,1.653-1.882
					c1.595-1.286,3.237-1.711,3.821-0.996l-0.352,0.287c-0.351-0.432-1.744-0.1-3.185,1.062c-0.677,0.547-1.224,1.167-1.539,1.746
					c-0.274,0.504-0.338,0.929-0.169,1.138L317.787,317.711z"/>
			</g>
		</g>
		<g>
			<g>
				<path fill="#D1D1D1" d="M317.162,317.195c-0.709-0.595-0.25-2.229,1.066-3.8c1.32-1.571,2.85-2.307,3.557-1.712l-0.291,0.348
					c-0.422-0.355-1.726,0.237-2.918,1.656c-1.189,1.419-1.545,2.805-1.121,3.16L317.162,317.195z"/>
			</g>
		</g>
		<g>
			<g>
				<path fill="#D1D1D1" d="M318.393,319.402c-0.211-0.422-0.043-0.982,0.473-1.577c0.472-0.544,1.188-1.071,2.021-1.485
					c1.832-0.916,3.526-0.981,3.942-0.152l-0.406,0.203c-0.249-0.495-1.679-0.472-3.334,0.355c-0.779,0.389-1.446,0.877-1.88,1.377
					c-0.377,0.434-0.53,0.837-0.41,1.076L318.393,319.402z"/>
			</g>
		</g>
		<g>
			<g>
				<path fill="#D1D1D1" d="M318.076,320.036c-0.033-0.242,0.045-0.496,0.227-0.733c0.486-0.636,1.713-1.167,3.125-1.353
					c0.92-0.12,1.811-0.086,2.506,0.102c0.76,0.205,1.213,0.575,1.273,1.042l-0.449,0.059c-0.036-0.265-0.388-0.512-0.943-0.661
					c-0.639-0.173-1.465-0.204-2.328-0.09c-1.277,0.167-2.412,0.641-2.822,1.177c-0.108,0.142-0.154,0.275-0.139,0.397
					L318.076,320.036z"/>
			</g>
		</g>
	</g>
</g>
<g>
	<defs>
		<path id="SVGID_10_" d="M319.504,305.656h4.851c0,0,2.806,0,4.62,1.734c2.381,2.275,2.314,5.047,2.314,5.047l-1.318,61.861
			c0,1.006-1.257,1.822-2.811,1.822c-1.549,0-2.806-0.816-2.806-1.822l1.318-61.861c0,0,0.085-0.436-0.276-0.779
			c-0.396-0.371-1.042-0.385-1.042-0.385h-4.851c-1.008,0-1.824-1.256-1.824-2.807S318.496,305.656,319.504,305.656z"/>
	</defs>
	<use xlink:href="#SVGID_10_"  overflow="visible" fill="#9E9E9E"/>
	<clipPath id="SVGID_24_">
		<use xlink:href="#SVGID_10_"  overflow="visible"/>
	</clipPath>
	<g clip-path="url(#SVGID_24_)">
		<g>
			<g>
				<path fill="#D1D1D1" d="M327.176,373.222c-2.019,0-3.6-0.965-3.6-2.196h0.453c0,0.944,1.441,1.741,3.146,1.741
					c1.704,0,3.145-0.797,3.145-1.741h0.453C330.773,372.257,329.193,373.222,327.176,373.222z"/>
			</g>
		</g>
		<g>
			<g>
				<path fill="#D1D1D1" d="M327.589,364.382c-2.018,0-3.599-0.965-3.599-2.196h0.455c0,0.944,1.439,1.741,3.144,1.741
					s3.144-0.797,3.144-1.741h0.453C331.186,363.417,329.605,364.382,327.589,364.382z"/>
			</g>
		</g>
		<g>
			<g>
				<path fill="#D1D1D1" d="M327.479,355.038c-2.017,0-3.596-0.964-3.596-2.194h0.453c0,0.943,1.439,1.739,3.143,1.739
					s3.143-0.796,3.143-1.739h0.455C331.076,354.074,329.496,355.038,327.479,355.038z"/>
			</g>
		</g>
		<g>
			<g>
				<path fill="#D1D1D1" d="M327.84,345.515c-2.018,0-3.598-0.966-3.598-2.198h0.453c0,0.945,1.44,1.743,3.145,1.743
					s3.145-0.798,3.145-1.743h0.453C331.438,344.549,329.857,345.515,327.84,345.515z"/>
			</g>
		</g>
		<g>
			<g>
				<path fill="#D1D1D1" d="M327.84,336.673c-2.018,0-3.598-0.964-3.598-2.194h0.453c0,0.943,1.44,1.739,3.145,1.739
					s3.145-0.796,3.145-1.739h0.453C331.438,335.709,329.857,336.673,327.84,336.673z"/>
			</g>
		</g>
		<g>
			<g>
				<path fill="#D1D1D1" d="M327.84,327.636c-2.018,0-3.598-0.965-3.598-2.196h0.453c0,0.944,1.44,1.741,3.145,1.741
					s3.145-0.797,3.145-1.741h0.453C331.438,326.671,329.857,327.636,327.84,327.636z"/>
			</g>
		</g>
		<g>
			<g>
				<path fill="#D1D1D1" d="M328.446,318.642c-2.019,0-3.601-0.966-3.601-2.198h0.455c0,0.945,1.44,1.743,3.146,1.743
					c1.703,0,3.142-0.798,3.142-1.743h0.455C332.043,317.676,330.463,318.642,328.446,318.642z"/>
			</g>
		</g>
		<g>
			<g>
				<path fill="#D1D1D1" d="M322.396,311.843c-1.231,0-2.194-1.58-2.194-3.597c0-2.018,0.963-3.599,2.194-3.599v0.455
					c-0.943,0-1.741,1.439-1.741,3.144c0,1.703,0.798,3.142,1.741,3.142V311.843z"/>
			</g>
		</g>
		<g>
			<g>
				<path fill="#D1D1D1" d="M324.983,313.176c-0.138-0.202-0.183-0.465-0.128-0.759c0.148-0.787,1-1.814,2.172-2.616
					c1.691-1.159,3.36-1.46,3.887-0.699l-0.375,0.258c-0.312-0.453-1.727-0.232-3.254,0.816c-1.062,0.726-1.858,1.66-1.982,2.324
					c-0.033,0.176-0.014,0.316,0.056,0.419L324.983,313.176z"/>
			</g>
		</g>
		<g>
			<g>
				<path fill="#D1D1D1" d="M324.591,312.26c-0.579-0.72,0.185-2.236,1.778-3.526c1.596-1.285,3.238-1.715,3.82-0.995l-0.354,0.285
					c-0.348-0.426-1.74-0.097-3.182,1.063c-1.439,1.165-2.057,2.457-1.71,2.888L324.591,312.26z"/>
			</g>
		</g>
		<g>
			<g>
				<path fill="#D1D1D1" d="M323.971,311.743c-0.189-0.156-0.303-0.396-0.329-0.693c-0.071-0.795,0.474-2.015,1.391-3.107
					c1.32-1.568,2.853-2.305,3.56-1.712l-0.291,0.348c-0.424-0.35-1.729,0.238-2.921,1.656c-0.829,0.989-1.347,2.104-1.286,2.775
					c0.016,0.176,0.072,0.306,0.166,0.384L323.971,311.743z"/>
			</g>
		</g>
		<g>
			<g>
				<path fill="#D1D1D1" d="M325.196,313.947c-0.413-0.831,0.657-2.146,2.491-3.059c1.834-0.916,3.531-0.981,3.949-0.153
					l-0.406,0.205c-0.25-0.497-1.683-0.474-3.34,0.354c-1.656,0.824-2.535,1.952-2.288,2.449L325.196,313.947z"/>
			</g>
		</g>
		<g>
			<g>
				<path fill="#D1D1D1" d="M324.881,314.582c-0.121-0.922,1.32-1.817,3.352-2.085c1.411-0.187,2.733,0.008,3.367,0.495
					c0.237,0.182,0.379,0.406,0.41,0.648l-0.449,0.059c-0.017-0.122-0.096-0.238-0.237-0.347c-0.535-0.411-1.755-0.576-3.032-0.404
					c-1.834,0.24-3.032,1.023-2.961,1.575L324.881,314.582z"/>
			</g>
		</g>
	</g>
</g>
<g>
	<defs>
		<polygon id="SVGID_8_" points="70.233,228.059 26.605,167.244 163.459,88.49 206.244,148.129 		"/>
	</defs>
	<use xlink:href="#SVGID_8_"  overflow="visible" fill="#4F4F4F"/>
	<clipPath id="SVGID_26_">
		<use xlink:href="#SVGID_8_"  overflow="visible"/>
	</clipPath>
	<g clip-path="url(#SVGID_26_)">
		<g>
			<g>
				
					<rect x="113.798" y="8.785" transform="matrix(0.4997 0.8662 -0.8662 0.4997 168.1285 -35.3963)" fill="#303030" width="1.817" height="238.134"/>
			</g>
		</g>
		<g>
			<g>
				
					<rect x="121.731" y="16.716" transform="matrix(0.4997 0.8662 -0.8662 0.4997 178.9676 -38.2998)" fill="#303030" width="1.817" height="238.135"/>
			</g>
		</g>
		<g>
			<g>
				
					<rect x="129.474" y="24.46" transform="matrix(0.4997 0.8662 -0.8662 0.4997 189.5481 -41.1327)" fill="#303030" width="1.817" height="238.133"/>
			</g>
		</g>
		<g>
			<g>
				
					<rect x="136.928" y="31.913" transform="matrix(0.4997 0.8662 -0.8662 0.4997 199.7347 -43.8597)" fill="#303030" width="1.817" height="238.136"/>
			</g>
		</g>
		<g>
			<g>
				
					<rect x="144.592" y="39.578" transform="matrix(0.4997 0.8662 -0.8662 0.4997 210.2065 -46.6646)" fill="#303030" width="1.817" height="238.134"/>
			</g>
		</g>
		<g>
			<g>
				
					<rect x="153.648" y="48.636" transform="matrix(0.4997 0.8662 -0.8662 0.4997 222.5833 -49.9766)" fill="#303030" width="1.817" height="238.134"/>
			</g>
		</g>
		<g>
			<g>
				
					<rect x="161.982" y="56.969" transform="matrix(0.4997 0.8662 -0.8662 0.4997 233.9713 -53.0261)" fill="#303030" width="1.817" height="238.137"/>
			</g>
		</g>
	</g>
</g>
<polygon fill="#3A3737" points="70.233,228.059 70.233,192.225 115.604,254.312 "/>
<g>
	<defs>
		<polygon id="SVGID_6_" points="250.917,173.449 115.604,254.312 70.233,192.225 207.086,113.471 		"/>
	</defs>
	<use xlink:href="#SVGID_6_"  overflow="visible" fill="#5E5D5E"/>
	<clipPath id="SVGID_28_">
		<use xlink:href="#SVGID_6_"  overflow="visible"/>
	</clipPath>
	<g clip-path="url(#SVGID_28_)">
		<g>
			<g>
				
					<rect x="148.504" y="38.449" transform="matrix(0.4997 0.8662 -0.8662 0.4997 211.1872 -50.6165)" fill="#1C1C1C" width="1.817" height="238.138"/>
			</g>
		</g>
		<g>
			<g>
				
					<rect x="156.436" y="46.383" transform="matrix(0.4997 0.8662 -0.8662 0.4997 222.0266 -53.5187)" fill="#1C1C1C" width="1.817" height="238.134"/>
			</g>
		</g>
		<g>
			<g>
				
					<rect x="164.178" y="54.124" transform="matrix(0.4997 0.8662 -0.8662 0.4997 232.6052 -56.3521)" fill="#1C1C1C" width="1.817" height="238.135"/>
			</g>
		</g>
		<g>
			<g>
				
					<rect x="171.634" y="61.582" transform="matrix(0.4997 0.8662 -0.8662 0.4997 242.7945 -59.0799)" fill="#1C1C1C" width="1.817" height="238.134"/>
			</g>
		</g>
		<g>
			<g>
				
					<rect x="179.296" y="69.244" transform="matrix(0.4997 0.8662 -0.8662 0.4997 253.2653 -61.883)" fill="#1C1C1C" width="1.817" height="238.134"/>
			</g>
		</g>
		<g>
			<g>
				
					<rect x="188.353" y="78.301" transform="matrix(0.4997 0.8662 -0.8662 0.4997 265.6417 -65.1964)" fill="#1C1C1C" width="1.817" height="238.137"/>
			</g>
		</g>
		<g>
			<g>
				
					<rect x="196.688" y="86.635" transform="matrix(0.4997 0.8662 -0.8662 0.4997 277.0294 -68.2472)" fill="#1C1C1C" width="1.817" height="238.134"/>
			</g>
		</g>
	</g>
</g>
<g>
	<defs>
		<polygon id="SVGID_4_" points="298.846,202.467 161.992,281.223 115.604,218.479 252.459,139.725 		"/>
	</defs>
	<use xlink:href="#SVGID_4_"  overflow="visible" fill="#242424"/>
	<clipPath id="SVGID_30_">
		<use xlink:href="#SVGID_4_"  overflow="visible"/>
	</clipPath>
	<g clip-path="url(#SVGID_30_)">
		<g>
			<g>
				
					<rect x="198.809" y="63.42" transform="matrix(0.4997 0.8662 -0.8662 0.4997 257.983 -81.6979)" fill="#1A1A1A" width="1.817" height="238.137"/>
			</g>
		</g>
		<g>
			<g>
				
					<rect x="206.741" y="71.352" transform="matrix(0.4997 0.8662 -0.8662 0.4997 268.8214 -84.6001)" fill="#1A1A1A" width="1.817" height="238.135"/>
			</g>
		</g>
		<g>
			<g>
				
					<rect x="214.483" y="79.095" transform="matrix(0.4997 0.8662 -0.8662 0.4997 279.4008 -87.433)" fill="#1A1A1A" width="1.817" height="238.134"/>
			</g>
		</g>
		<g>
			<g>
				
					<rect x="221.94" y="86.549" transform="matrix(0.4997 0.8662 -0.8662 0.4997 289.588 -90.1631)" fill="#1A1A1A" width="1.817" height="238.135"/>
			</g>
		</g>
		<g>
			<g>
				
					<rect x="229.601" y="94.214" transform="matrix(0.4997 0.8662 -0.8662 0.4997 300.06 -92.9644)" fill="#1A1A1A" width="1.817" height="238.134"/>
			</g>
		</g>
		<g>
			<g>
				
					<rect x="238.66" y="103.269" transform="matrix(0.4997 0.8662 -0.8662 0.4997 312.4357 -96.2805)" fill="#1A1A1A" width="1.817" height="238.136"/>
			</g>
		</g>
		<g>
			<g>
				
					<rect x="246.993" y="111.604" transform="matrix(0.4997 0.8662 -0.8662 0.4997 323.8242 -99.3286)" fill="#1A1A1A" width="1.817" height="238.135"/>
			</g>
		</g>
	</g>
</g>
<polygon fill="#3A3737" points="115.604,254.312 115.604,218.479 161.992,281.223 "/>
<polygon fill="#3A3737" points="161.992,281.223 161.992,245.389 209.111,308.488 "/>
<g>
	<defs>
		<polygon id="SVGID_2_" points="298.846,166.633 161.992,245.389 209.111,308.488 345.964,229.732 		"/>
	</defs>
	<use xlink:href="#SVGID_2_"  overflow="visible" fill="#1A1A1A"/>
	<clipPath id="SVGID_32_">
		<use xlink:href="#SVGID_2_"  overflow="visible"/>
	</clipPath>
	<g clip-path="url(#SVGID_32_)">
		<g>
			<g>
				
					<rect x="236.293" y="96.026" transform="matrix(0.4997 0.8662 -0.8662 0.4997 304.9772 -97.855)" fill="#141414" width="1.817" height="238.134"/>
			</g>
		</g>
		<g>
			<g>
				
					<rect x="244.225" y="103.959" transform="matrix(0.4997 0.8662 -0.8662 0.4997 315.8163 -100.7568)" fill="#141414" width="1.817" height="238.134"/>
			</g>
		</g>
		<g>
			<g>
				
					<rect x="251.968" y="111.7" transform="matrix(0.4997 0.8662 -0.8662 0.4997 326.3954 -103.591)" fill="#141414" width="1.817" height="238.133"/>
			</g>
		</g>
		<g>
			<g>
				
					<rect x="259.422" y="119.154" transform="matrix(0.4997 0.8662 -0.8662 0.4997 336.582 -106.3181)" fill="#141414" width="1.817" height="238.134"/>
			</g>
		</g>
		<g>
			<g>
				
					<rect x="267.087" y="126.819" transform="matrix(0.4997 0.8662 -0.8662 0.4997 347.0549 -109.1228)" fill="#141414" width="1.817" height="238.134"/>
			</g>
		</g>
		<g>
			<g>
				
					<rect x="276.143" y="135.876" transform="matrix(0.4997 0.8662 -0.8662 0.4997 359.431 -112.4358)" fill="#141414" width="1.817" height="238.135"/>
			</g>
		</g>
		<g>
			<g>
				
					<rect x="284.476" y="144.207" transform="matrix(0.4997 0.8662 -0.8662 0.4997 370.8178 -115.4849)" fill="#141414" width="1.817" height="238.138"/>
			</g>
		</g>
	</g>
</g>
<ellipse fill="#EBEBEB" cx="346.134" cy="256.859" rx="33.884" ry="19.801"/>
<path fill="#CCCCCC" d="M340.586,262.771c0,4.24,5.878,7.672,13.129,7.672c7.254,0,13.132-3.432,13.132-7.672
	c0-4.236-5.878-9.037-13.132-9.037C346.464,253.734,340.586,258.535,340.586,262.771z"/>
<ellipse fill="#D9D9D9" cx="353.716" cy="261.406" rx="13.13" ry="7.674"/>
<path fill="#EBEBEB" d="M250.906,291.863c0,10.934,15.17,19.797,33.886,19.797c18.711,0,33.882-8.863,33.882-19.797
	c0-10.938-15.171-19.803-33.882-19.803C266.076,272.061,250.906,280.926,250.906,291.863z"/>
<path fill="#CCCCCC" d="M279.244,297.773c0,4.238,5.876,7.67,13.129,7.67c7.252,0,13.132-3.432,13.132-7.67
	s-5.88-9.039-13.132-9.039C285.12,288.734,279.244,293.535,279.244,297.773z"/>
<path fill="#D9D9D9" d="M279.244,296.408c0,4.238,5.876,7.672,13.129,7.672c7.252,0,13.132-3.434,13.132-7.672
	c0-4.24-5.88-7.674-13.132-7.674C285.12,288.734,279.244,292.168,279.244,296.408z"/>
</svg>
