<?xml version="1.0" encoding="utf-8"?>
<!-- Generator: Adobe Illustrator 15.1.0, SVG Export Plug-In  -->
<!DOCTYPE svg PUBLIC "-//W3C//DTD SVG 1.1//EN" "http://www.w3.org/Graphics/SVG/1.1/DTD/svg11.dtd" [
	<!ENTITY ns_flows "http://ns.adobe.com/Flows/1.0/">
]>
<svg version="1.1"
	 xmlns="http://www.w3.org/2000/svg" xmlns:xlink="http://www.w3.org/1999/xlink" xmlns:a="http://ns.adobe.com/AdobeSVGViewerExtensions/3.0/"
	 x="0px" y="0px" width="450px" height="307px" viewBox="-0.467 -0.244 450 307"
	 overflow="visible" enable-background="new -0.467 -0.244 450 307" xml:space="preserve">
<defs>
</defs>
<path fill="#2D2221" d="M352.789,139.538c-1.646-0.201-3.168-0.255-4.102-0.147c-0.586,0.024-1.037,0.094-1.293,0.205
	c-0.438,0.014-0.912,0.046-1.42,0.086c-3.736,0.242-9.492,1.323-11.756,2.1c-2.152,0.733-3.893,2.247-5.449,3.664l-28.061,1.651
	c1.314-1.727,4.367-4.354,3.689-5.716c-0.555-1.131-4.168-3.262-7.156-3.802c0.074-0.24-0.674-0.457-1.908-0.61
	c-0.039-0.005-0.082-0.009-0.123-0.015c-0.234-0.043-0.506-0.085-0.807-0.12c-0.148-0.019-0.307-0.037-0.473-0.054
	c-0.314-0.077-0.723-0.144-1.201-0.2c-0.037-0.007-0.072-0.011-0.111-0.016c-0.236-0.042-0.506-0.085-0.803-0.122
	c-1.012-0.122-2.355-0.201-3.854-0.207c-3.299-0.011-6.08,0.338-6.217,0.774c-3.301,0.521-8.182,2.621-9.424,3.744
	c-1.469,1.34-0.064,3.926,0.244,5.657c-1.451,0.18-3.072,0.461-4.615,0.782c-2.594,0.513-5.092,1.158-6.35,1.658
	c-0.434,0.173-0.83,0.384-1.213,0.621l-150.645,8.876l-0.412-0.183l-0.307,0.227l-0.064,0.001l0.037,0.017l-32.611,23.993
	l53.732,23.44l-0.184,0.134l53.801,23.471l18.492,77.058l246.793-115.001l-95.242-41.417c3.045-1.167,6.277-2.438,7.145-3.397
	c1.025-1.142,0.76-3.661-1.08-4.6c0.482-0.274-0.211-0.702-1.641-1.105c-0.354-0.387-1.842-0.869-3.924-1.227
	C353.779,139.671,353.279,139.597,352.789,139.538"/>
<polygon fill="#FFFFFF" points="283.227,259.801 202.229,306.505 0.248,189.537 81.145,142.832 "/>
<polygon fill="#CCC5AA" points="364.176,135.143 202.229,228.172 0.248,111.203 162.096,18.175 "/>
<polygon fill="#BCB59B" points="19.537,115.589 15.176,113.072 162.422,27.742 349.568,135.257 345.207,137.775 162.422,32.779 "/>
<polygon fill="#F0EDEB" points="19.537,115.589 162.422,32.779 345.207,137.775 202.229,220.587 "/>
<polygon fill="#BCB59B" points="0.248,111.203 0.248,189.537 202.229,306.505 202.229,228.172 "/>
<polygon fill="#ABA48B" points="283.227,259.801 283.227,181.467 202.229,228.172 202.229,306.505 "/>
<line fill="#C7B8B4" x1="283.443" y1="197.335" x2="202.229" y2="244.225"/>
<rect x="242.622" y="173.891" transform="matrix(0.501 0.8654 -0.8654 0.501 312.2354 -99.9952)" fill="#FFFFFF" width="0.429" height="93.779"/>
<line fill="#C7B8B4" x1="283.443" y1="213" x2="202.229" y2="259.892"/>
<rect x="242.622" y="189.556" transform="matrix(0.501 0.8654 -0.8654 0.501 325.7932 -92.1785)" fill="#FFFFFF" width="0.429" height="93.78"/>
<line fill="#C7B8B4" x1="202.229" y1="275.44" x2="283.443" y2="228.172"/>
<rect x="242.622" y="204.822" transform="matrix(0.502 0.8649 -0.8649 0.502 338.7014 -84.6243)" fill="#FFFFFF" width="0.428" height="93.968"/>
<line fill="#C7B8B4" x1="283.443" y1="244.184" x2="202.332" y2="290.928"/>
<rect x="242.674" y="220.747" transform="matrix(0.4993 0.8664 -0.8664 0.4993 353.4214 -76.4832)" fill="#FFFFFF" width="0.428" height="93.617"/>
<line fill="#C7B8B4" x1="283.229" y1="189.527" x2="202.332" y2="236.455"/>
<rect x="242.566" y="166.229" transform="matrix(0.502 0.8649 -0.8649 0.502 305.1041 -103.9052)" fill="#FFFFFF" width="0.428" height="93.522"/>
<line fill="#C7B8B4" x1="283.229" y1="205.376" x2="202.332" y2="252.304"/>
<rect x="242.566" y="182.079" transform="matrix(0.502 0.8649 -0.8649 0.502 318.8116 -96.0125)" fill="#FFFFFF" width="0.428" height="93.522"/>
<line fill="#C7B8B4" x1="283.229" y1="220.721" x2="202.332" y2="267.649"/>
<rect x="242.566" y="197.424" transform="matrix(0.502 0.8649 -0.8649 0.502 332.0826 -88.3713)" fill="#FFFFFF" width="0.428" height="93.522"/>
<line fill="#C7B8B4" x1="283.229" y1="236.426" x2="202.332" y2="283.356"/>
<rect x="242.566" y="213.129" transform="matrix(0.502 0.8649 -0.8649 0.502 345.666 -80.55)" fill="#FFFFFF" width="0.428" height="93.523"/>
<line fill="#C7B8B4" x1="283.229" y1="252.304" x2="202.332" y2="299.234"/>
<rect x="242.566" y="229.007" transform="matrix(0.502 0.8649 -0.8649 0.502 359.3981 -72.6432)" fill="#FFFFFF" width="0.428" height="93.523"/>
<line fill="#C7B8B4" x1="276.494" y1="185.349" x2="276.596" y2="193.63"/>
<path fill="#FFFFFF" d="M276.596,193.845c-0.117,0-0.213-0.094-0.214-0.212l-0.102-8.281c-0.002-0.118,0.093-0.215,0.211-0.217
	c0.001,0,0.002,0,0.003,0c0.117,0,0.213,0.094,0.214,0.212l0.102,8.281c0.002,0.118-0.093,0.215-0.211,0.217
	C276.598,193.845,276.597,193.845,276.596,193.845z"/>
<path fill="#FFFFFF" d="M272.596,204.057c-0.118,0-0.214-0.096-0.214-0.214v-8.148c0-0.118,0.096-0.214,0.214-0.214
	s0.214,0.096,0.214,0.214v8.148C272.81,203.96,272.714,204.057,272.596,204.057z"/>
<line fill="#C7B8B4" x1="276.494" y1="201.407" x2="276.596" y2="209.477"/>
<path fill="#FFFFFF" d="M276.596,209.691c-0.117,0-0.213-0.094-0.214-0.211l-0.102-8.07c-0.002-0.119,0.093-0.216,0.211-0.217
	c0.001,0,0.002,0,0.003,0c0.117,0,0.213,0.094,0.214,0.211l0.102,8.07c0.002,0.119-0.093,0.216-0.211,0.217
	C276.598,209.691,276.597,209.691,276.596,209.691z"/>
<path fill="#FFFFFF" d="M272.596,219.644c-0.118,0-0.214-0.096-0.214-0.214v-7.942c0-0.118,0.096-0.214,0.214-0.214
	s0.214,0.096,0.214,0.214v7.942C272.81,219.547,272.714,219.644,272.596,219.644z"/>
<line fill="#C7B8B4" x1="276.494" y1="216.894" x2="276.596" y2="224.417"/>
<path fill="#FFFFFF" d="M276.596,224.631c-0.117,0-0.213-0.094-0.214-0.211l-0.102-7.522c-0.002-0.118,0.093-0.215,0.211-0.217
	c0.001,0,0.002,0,0.003,0c0.117,0,0.213,0.094,0.214,0.211l0.102,7.522c0.002,0.118-0.093,0.215-0.211,0.217
	C276.598,224.631,276.597,224.631,276.596,224.631z"/>
<path fill="#FFFFFF" d="M272.588,234.85c-0.118,0-0.214-0.096-0.214-0.214v-7.505c0-0.118,0.096-0.214,0.214-0.214
	s0.214,0.096,0.214,0.214v7.505C272.802,234.753,272.706,234.85,272.588,234.85z"/>
<line fill="#C7B8B4" x1="276.494" y1="232.19" x2="276.596" y2="240.261"/>
<path fill="#FFFFFF" d="M276.596,240.476c-0.117,0-0.213-0.094-0.214-0.211l-0.102-8.071c-0.002-0.119,0.093-0.216,0.211-0.217
	c0.001,0,0.002,0,0.003,0c0.117,0,0.213,0.094,0.214,0.211l0.102,8.071c0.002,0.119-0.093,0.216-0.211,0.217
	C276.598,240.476,276.597,240.476,276.596,240.476z"/>
<path fill="#FFFFFF" d="M272.596,250.743c-0.118,0-0.214-0.096-0.214-0.214v-7.942c0-0.118,0.096-0.214,0.214-0.214
	s0.214,0.096,0.214,0.214v7.942C272.81,250.647,272.714,250.743,272.596,250.743z"/>
<line fill="#C7B8B4" x1="276.494" y1="248.113" x2="276.596" y2="256.18"/>
<path fill="#FFFFFF" d="M276.596,256.395c-0.117,0-0.213-0.094-0.214-0.211l-0.102-8.067c-0.002-0.119,0.093-0.216,0.211-0.217
	c0.001,0,0.002,0,0.003,0c0.117,0,0.213,0.094,0.214,0.211l0.102,8.067c0.002,0.119-0.093,0.216-0.211,0.217
	C276.598,256.395,276.597,256.395,276.596,256.395z"/>
<path fill="#FFFFFF" d="M272.596,266.661c-0.118,0-0.214-0.096-0.214-0.214v-7.941c0-0.118,0.096-0.214,0.214-0.214
	s0.214,0.096,0.214,0.214v7.941C272.81,266.565,272.714,266.661,272.596,266.661z"/>
<line fill="#C7B8B4" x1="263.867" y1="192.557" x2="263.971" y2="200.837"/>
<path fill="#FFFFFF" d="M263.971,201.052c-0.117,0-0.213-0.094-0.214-0.212l-0.104-8.28c-0.002-0.118,0.093-0.215,0.211-0.217h0.003
	c0.117,0,0.213,0.094,0.214,0.212l0.104,8.28c0.002,0.118-0.093,0.215-0.211,0.217H263.971z"/>
<path fill="#FFFFFF" d="M259.971,211.264c-0.118,0-0.214-0.096-0.214-0.214v-8.151c0-0.118,0.096-0.214,0.214-0.214
	s0.214,0.096,0.214,0.214v8.151C260.185,211.167,260.089,211.264,259.971,211.264z"/>
<line fill="#C7B8B4" x1="263.867" y1="208.612" x2="263.971" y2="216.681"/>
<path fill="#FFFFFF" d="M263.971,216.896c-0.117,0-0.213-0.094-0.214-0.211l-0.104-8.069c-0.002-0.119,0.093-0.215,0.211-0.217
	h0.003c0.117,0,0.213,0.094,0.214,0.211l0.104,8.069c0.002,0.119-0.093,0.215-0.211,0.217H263.971z"/>
<path fill="#FFFFFF" d="M259.971,226.848c-0.118,0-0.214-0.096-0.214-0.214v-7.94c0-0.118,0.096-0.214,0.214-0.214
	s0.214,0.096,0.214,0.214v7.94C260.185,226.751,260.089,226.848,259.971,226.848z"/>
<line fill="#C7B8B4" x1="263.867" y1="224.386" x2="263.971" y2="231.907"/>
<path fill="#FFFFFF" d="M263.971,232.121c-0.117,0-0.213-0.094-0.214-0.211l-0.104-7.521c-0.002-0.118,0.093-0.215,0.211-0.217
	h0.003c0.117,0,0.213,0.094,0.214,0.211l0.104,7.521c0.002,0.118-0.093,0.215-0.211,0.217H263.971z"/>
<path fill="#FFFFFF" d="M259.963,242.057c-0.118,0-0.214-0.096-0.214-0.214v-7.505c0-0.118,0.096-0.214,0.214-0.214
	s0.214,0.096,0.214,0.214v7.505C260.177,241.96,260.081,242.057,259.963,242.057z"/>
<line fill="#C7B8B4" x1="263.867" y1="239.691" x2="263.971" y2="247.467"/>
<path fill="#FFFFFF" d="M263.971,247.682c-0.117,0-0.213-0.094-0.214-0.211l-0.104-7.776c-0.002-0.118,0.093-0.215,0.211-0.217
	h0.003c0.117,0,0.213,0.094,0.214,0.211l0.104,7.776c0.002,0.118-0.093,0.215-0.211,0.217H263.971z"/>
<path fill="#FFFFFF" d="M259.971,257.947c-0.118,0-0.214-0.096-0.214-0.214v-7.942c0-0.118,0.096-0.214,0.214-0.214
	s0.214,0.096,0.214,0.214v7.942C260.185,257.851,260.089,257.947,259.971,257.947z"/>
<line fill="#C7B8B4" x1="263.867" y1="255.317" x2="263.971" y2="263.389"/>
<path fill="#FFFFFF" d="M263.971,263.604c-0.117,0-0.213-0.094-0.214-0.211l-0.104-8.072c-0.002-0.119,0.093-0.215,0.211-0.217
	h0.003c0.117,0,0.213,0.094,0.214,0.211l0.104,8.072c0.002,0.119-0.093,0.215-0.211,0.217H263.971z"/>
<path fill="#FFFFFF" d="M259.971,273.869c-0.118,0-0.214-0.096-0.214-0.214v-7.942c0-0.118,0.096-0.214,0.214-0.214
	s0.214,0.096,0.214,0.214v7.942C260.185,273.773,260.089,273.869,259.971,273.869z"/>
<line fill="#C7B8B4" x1="251.465" y1="199.729" x2="251.566" y2="208.01"/>
<path fill="#FFFFFF" d="M251.566,208.225c-0.117,0-0.213-0.094-0.214-0.212l-0.102-8.281c-0.002-0.118,0.093-0.215,0.211-0.217
	h0.003c0.117,0,0.213,0.094,0.214,0.212l0.102,8.281c0.002,0.118-0.093,0.215-0.211,0.217H251.566z"/>
<path fill="#FFFFFF" d="M247.566,218.438c-0.118,0-0.214-0.096-0.214-0.214v-8.152c0-0.118,0.096-0.214,0.214-0.214
	s0.214,0.096,0.214,0.214v8.152C247.78,218.341,247.685,218.438,247.566,218.438z"/>
<line fill="#C7B8B4" x1="251.465" y1="215.784" x2="251.566" y2="223.854"/>
<path fill="#FFFFFF" d="M251.566,224.068c-0.117,0-0.213-0.094-0.214-0.211l-0.102-8.07c-0.002-0.119,0.093-0.216,0.211-0.217h0.003
	c0.117,0,0.213,0.094,0.214,0.211l0.102,8.07c0.002,0.119-0.093,0.216-0.211,0.217H251.566z"/>
<path fill="#FFFFFF" d="M247.566,234.019c-0.118,0-0.214-0.096-0.214-0.214v-7.94c0-0.118,0.096-0.214,0.214-0.214
	s0.214,0.096,0.214,0.214v7.94C247.78,233.922,247.685,234.019,247.566,234.019z"/>
<line fill="#C7B8B4" x1="251.465" y1="231.557" x2="251.566" y2="239.08"/>
<path fill="#FFFFFF" d="M251.566,239.294c-0.117,0-0.213-0.094-0.214-0.211l-0.102-7.522c-0.002-0.118,0.093-0.215,0.211-0.217
	h0.003c0.117,0,0.213,0.094,0.214,0.211l0.102,7.522c0.002,0.118-0.093,0.215-0.211,0.217H251.566z"/>
<path fill="#FFFFFF" d="M247.561,249.229c-0.118,0-0.214-0.096-0.214-0.214v-7.505c0-0.118,0.096-0.214,0.214-0.214
	s0.214,0.096,0.214,0.214v7.505C247.774,249.132,247.679,249.229,247.561,249.229z"/>
<line fill="#C7B8B4" x1="251.465" y1="246.862" x2="251.566" y2="254.638"/>
<path fill="#FFFFFF" d="M251.566,254.853c-0.117,0-0.213-0.094-0.214-0.211l-0.102-7.776c-0.002-0.118,0.093-0.215,0.211-0.217
	h0.003c0.117,0,0.213,0.094,0.214,0.211l0.102,7.776c0.002,0.118-0.093,0.215-0.211,0.217H251.566z"/>
<path fill="#FFFFFF" d="M247.566,265.12c-0.118,0-0.214-0.096-0.214-0.214v-7.942c0-0.118,0.096-0.214,0.214-0.214
	s0.214,0.096,0.214,0.214v7.942C247.78,265.024,247.685,265.12,247.566,265.12z"/>
<line fill="#C7B8B4" x1="251.465" y1="262.49" x2="251.566" y2="270.559"/>
<path fill="#FFFFFF" d="M251.566,270.773c-0.117,0-0.213-0.094-0.214-0.211l-0.102-8.069c-0.002-0.119,0.093-0.216,0.211-0.217
	c0.145,0.004,0.216,0.093,0.217,0.211l0.102,8.069c0.002,0.119-0.093,0.216-0.211,0.217H251.566z"/>
<path fill="#FFFFFF" d="M247.566,281.042c-0.118,0-0.214-0.096-0.214-0.214v-7.942c0-0.118,0.096-0.214,0.214-0.214
	s0.214,0.096,0.214,0.214v7.942C247.78,280.946,247.685,281.042,247.566,281.042z"/>
<line fill="#C7B8B4" x1="239.029" y1="206.917" x2="239.135" y2="215.2"/>
<path fill="#FFFFFF" d="M239.135,215.414c-0.117,0-0.213-0.094-0.214-0.211l-0.105-8.283c-0.002-0.119,0.093-0.215,0.211-0.217
	h0.003c0.117,0,0.213,0.094,0.214,0.211l0.105,8.283c0.002,0.119-0.093,0.215-0.211,0.217
	C239.138,215.414,239.136,215.414,239.135,215.414z"/>
<path fill="#FFFFFF" d="M235.133,225.628c-0.118,0-0.214-0.096-0.214-0.214v-8.152c0-0.118,0.096-0.214,0.214-0.214
	s0.214,0.096,0.214,0.214v8.152C235.347,225.532,235.251,225.628,235.133,225.628z"/>
<line fill="#C7B8B4" x1="239.029" y1="222.974" x2="239.135" y2="231.045"/>
<path fill="#FFFFFF" d="M239.135,231.26c-0.117,0-0.213-0.094-0.214-0.211l-0.105-8.071c-0.002-0.118,0.093-0.215,0.211-0.217h0.003
	c0.117,0,0.213,0.094,0.214,0.211l0.105,8.071c0.002,0.118-0.093,0.215-0.211,0.217C239.138,231.26,239.136,231.26,239.135,231.26z"
	/>
<path fill="#FFFFFF" d="M235.133,241.21c-0.118,0-0.214-0.096-0.214-0.214v-7.94c0-0.118,0.096-0.214,0.214-0.214
	s0.214,0.096,0.214,0.214v7.94C235.347,241.114,235.251,241.21,235.133,241.21z"/>
<line fill="#C7B8B4" x1="239.029" y1="238.747" x2="239.135" y2="246.271"/>
<path fill="#FFFFFF" d="M239.135,246.485c-0.117,0-0.213-0.094-0.214-0.211l-0.105-7.524c-0.002-0.118,0.093-0.215,0.211-0.217
	h0.003c0.117,0,0.213,0.094,0.214,0.211l0.105,7.524c0.002,0.118-0.093,0.215-0.211,0.217
	C239.138,246.485,239.136,246.485,239.135,246.485z"/>
<path fill="#FFFFFF" d="M235.125,256.418c-0.118,0-0.214-0.096-0.214-0.214v-7.505c0-0.118,0.096-0.214,0.214-0.214
	s0.214,0.096,0.214,0.214v7.505C235.339,256.322,235.243,256.418,235.125,256.418z"/>
<line fill="#C7B8B4" x1="239.029" y1="254.054" x2="239.135" y2="261.832"/>
<path fill="#FFFFFF" d="M239.135,262.046c-0.117,0-0.213-0.094-0.214-0.211l-0.105-7.777c-0.002-0.118,0.093-0.215,0.211-0.217
	h0.003c0.117,0,0.213,0.094,0.214,0.211l0.105,7.777c0.002,0.118-0.093,0.215-0.211,0.217
	C239.138,262.046,239.136,262.046,239.135,262.046z"/>
<path fill="#FFFFFF" d="M235.133,272.31c-0.118,0-0.214-0.096-0.214-0.214v-7.94c0-0.118,0.096-0.214,0.214-0.214
	s0.214,0.096,0.214,0.214v7.94C235.347,272.213,235.251,272.31,235.133,272.31z"/>
<line fill="#C7B8B4" x1="239.029" y1="269.679" x2="239.135" y2="277.752"/>
<path fill="#FFFFFF" d="M239.135,277.967c-0.117,0-0.213-0.094-0.214-0.211l-0.105-8.073c-0.002-0.118,0.093-0.215,0.211-0.217
	h0.003c0.117,0,0.213,0.094,0.214,0.211l0.105,8.073c0.002,0.118-0.093,0.215-0.211,0.217
	C239.138,277.967,239.136,277.967,239.135,277.967z"/>
<path fill="#FFFFFF" d="M235.133,288.231c-0.118,0-0.214-0.096-0.214-0.214v-7.942c0-0.118,0.096-0.214,0.214-0.214
	s0.214,0.096,0.214,0.214v7.942C235.347,288.135,235.251,288.231,235.133,288.231z"/>
<line fill="#C7B8B4" x1="226.535" y1="214.089" x2="226.639" y2="222.374"/>
<path fill="#FFFFFF" d="M226.639,222.588c-0.117,0-0.213-0.094-0.214-0.212l-0.104-8.284c-0.002-0.118,0.093-0.215,0.211-0.217
	h0.003c0.117,0,0.213,0.094,0.214,0.212l0.104,8.284c0.002,0.118-0.093,0.215-0.211,0.217H226.639z"/>
<path fill="#FFFFFF" d="M222.639,232.801c-0.118,0-0.214-0.096-0.214-0.214v-8.153c0-0.118,0.096-0.214,0.214-0.214
	s0.214,0.096,0.214,0.214v8.153C222.853,232.705,222.757,232.801,222.639,232.801z"/>
<line fill="#C7B8B4" x1="226.535" y1="230.145" x2="226.639" y2="238.216"/>
<path fill="#FFFFFF" d="M226.639,238.431c-0.117,0-0.213-0.094-0.214-0.211l-0.104-8.071c-0.002-0.119,0.093-0.215,0.211-0.217
	h0.003c0.117,0,0.213,0.094,0.214,0.211l0.104,8.071c0.002,0.119-0.093,0.215-0.211,0.217H226.639z"/>
<path fill="#FFFFFF" d="M222.639,248.383c-0.118,0-0.214-0.096-0.214-0.214v-7.942c0-0.118,0.096-0.214,0.214-0.214
	s0.214,0.096,0.214,0.214v7.942C222.853,248.287,222.757,248.383,222.639,248.383z"/>
<line fill="#C7B8B4" x1="226.535" y1="245.919" x2="226.639" y2="253.442"/>
<path fill="#FFFFFF" d="M226.639,253.656c-0.117,0-0.213-0.094-0.214-0.211l-0.104-7.522c-0.002-0.118,0.093-0.215,0.211-0.217
	h0.003c0.117,0,0.213,0.094,0.214,0.211l0.104,7.522c0.002,0.118-0.093,0.215-0.211,0.217H226.639z"/>
<path fill="#FFFFFF" d="M222.633,263.591c-0.118,0-0.214-0.096-0.214-0.214v-7.505c0-0.118,0.096-0.214,0.214-0.214
	s0.214,0.096,0.214,0.214v7.505C222.847,263.495,222.751,263.591,222.633,263.591z"/>
<line fill="#C7B8B4" x1="226.535" y1="261.227" x2="226.639" y2="269.001"/>
<path fill="#FFFFFF" d="M226.639,269.216c-0.117,0-0.213-0.094-0.214-0.211l-0.104-7.774c-0.002-0.118,0.093-0.215,0.211-0.217
	h0.003c0.117,0,0.213,0.094,0.214,0.211l0.104,7.774c0.002,0.118-0.093,0.215-0.211,0.217H226.639z"/>
<path fill="#FFFFFF" d="M222.639,279.482c-0.118,0-0.214-0.096-0.214-0.214v-7.941c0-0.118,0.096-0.214,0.214-0.214
	s0.214,0.096,0.214,0.214v7.941C222.853,279.386,222.757,279.482,222.639,279.482z"/>
<line fill="#C7B8B4" x1="226.535" y1="276.851" x2="226.639" y2="284.923"/>
<path fill="#FFFFFF" d="M226.639,285.138c-0.117,0-0.213-0.094-0.214-0.211l-0.104-8.072c-0.002-0.119,0.093-0.215,0.211-0.217
	c0.142,0,0.216,0.093,0.217,0.211l0.104,8.072c0.002,0.119-0.093,0.215-0.211,0.217H226.639z"/>
<path fill="#FFFFFF" d="M222.639,295.402c-0.118,0-0.214-0.096-0.214-0.214v-7.94c0-0.118,0.096-0.214,0.214-0.214
	s0.214,0.096,0.214,0.214v7.94C222.853,295.306,222.757,295.402,222.639,295.402z"/>
<line fill="#C7B8B4" x1="214.303" y1="221.281" x2="214.404" y2="229.561"/>
<path fill="#FFFFFF" d="M214.404,229.775c-0.117,0-0.213-0.094-0.214-0.212l-0.102-8.28c-0.002-0.118,0.093-0.215,0.211-0.217h0.003
	c0.117,0,0.213,0.094,0.214,0.212l0.102,8.28c0.002,0.118-0.093,0.215-0.211,0.217H214.404z"/>
<path fill="#FFFFFF" d="M210.406,239.99c-0.118,0-0.214-0.096-0.214-0.214v-8.151c0-0.118,0.096-0.214,0.214-0.214
	s0.214,0.096,0.214,0.214v8.151C210.62,239.894,210.524,239.99,210.406,239.99z"/>
<line fill="#C7B8B4" x1="214.303" y1="237.338" x2="214.404" y2="245.41"/>
<path fill="#FFFFFF" d="M214.404,245.624c-0.117,0-0.213-0.094-0.214-0.211l-0.102-8.071c-0.002-0.119,0.093-0.216,0.211-0.217
	h0.003c0.117,0,0.213,0.094,0.214,0.211l0.102,8.071c0.002,0.119-0.093,0.216-0.211,0.217H214.404z"/>
<path fill="#FFFFFF" d="M210.406,255.574c-0.118,0-0.214-0.096-0.214-0.214v-7.942c0-0.118,0.096-0.214,0.214-0.214
	s0.214,0.096,0.214,0.214v7.942C210.62,255.478,210.524,255.574,210.406,255.574z"/>
<line fill="#C7B8B4" x1="214.303" y1="253.109" x2="214.404" y2="260.632"/>
<path fill="#FFFFFF" d="M214.404,260.847c-0.117,0-0.213-0.094-0.214-0.211l-0.102-7.523c-0.002-0.118,0.093-0.215,0.211-0.217
	h0.003c0.117,0,0.213,0.094,0.214,0.211l0.102,7.523c0.002,0.118-0.093,0.215-0.211,0.217H214.404z"/>
<path fill="#FFFFFF" d="M210.398,270.782c-0.118,0-0.214-0.096-0.214-0.214v-7.505c0-0.118,0.096-0.214,0.214-0.214
	s0.214,0.096,0.214,0.214v7.505C210.612,270.686,210.517,270.782,210.398,270.782z"/>
<line fill="#C7B8B4" x1="214.303" y1="268.417" x2="214.404" y2="276.191"/>
<path fill="#FFFFFF" d="M214.404,276.405c-0.117,0-0.213-0.094-0.214-0.211l-0.102-7.774c-0.002-0.118,0.093-0.215,0.211-0.217
	h0.003c0.117,0,0.213,0.094,0.214,0.211l0.102,7.774c0.002,0.118-0.093,0.215-0.211,0.217H214.404z"/>
<path fill="#FFFFFF" d="M210.406,286.674c-0.118,0-0.214-0.096-0.214-0.214v-7.942c0-0.118,0.096-0.214,0.214-0.214
	s0.214,0.096,0.214,0.214v7.942C210.62,286.578,210.524,286.674,210.406,286.674z"/>
<line fill="#C7B8B4" x1="214.303" y1="284.043" x2="214.404" y2="292.113"/>
<path fill="#FFFFFF" d="M214.404,292.327c-0.117,0-0.213-0.094-0.214-0.211l-0.102-8.069c-0.002-0.119,0.093-0.216,0.211-0.217
	h0.003c0.117,0,0.213,0.094,0.214,0.211l0.102,8.069c0.002,0.119-0.093,0.216-0.211,0.217H214.404z"/>
<path fill="#FFFFFF" d="M210.406,302.593c-0.118,0-0.214-0.096-0.214-0.214v-7.94c0-0.118,0.096-0.214,0.214-0.214
	s0.214,0.096,0.214,0.214v7.94C210.62,302.497,210.524,302.593,210.406,302.593z"/>
<polygon fill="#ABA48B" points="364.123,212.719 364.123,134.389 283.125,181.092 283.125,259.426 "/>
<line fill="#C7B8B4" x1="364.34" y1="150.256" x2="283.125" y2="197.146"/>
<rect x="323.518" y="126.812" transform="matrix(0.501 0.8654 -0.8654 0.501 311.8563 -193.496)" fill="#FFFFFF" width="0.429" height="93.779"/>
<line fill="#C7B8B4" x1="364.34" y1="165.922" x2="283.125" y2="212.813"/>
<rect x="323.518" y="142.478" transform="matrix(0.501 0.8654 -0.8654 0.501 325.4145 -185.679)" fill="#FFFFFF" width="0.429" height="93.779"/>
<line fill="#C7B8B4" x1="283.125" y1="228.362" x2="364.34" y2="181.092"/>
<rect x="323.518" y="157.742" transform="matrix(0.502 0.8649 -0.8649 0.502 338.2693 -178.032)" fill="#FFFFFF" width="0.428" height="93.969"/>
<line fill="#C7B8B4" x1="364.34" y1="197.106" x2="283.229" y2="243.85"/>
<rect x="323.57" y="173.669" transform="matrix(0.4993 0.8664 -0.8664 0.4993 353.1349 -170.1436)" fill="#FFFFFF" width="0.428" height="93.617"/>
<line fill="#C7B8B4" x1="364.125" y1="142.449" x2="283.229" y2="189.376"/>
<rect x="323.463" y="119.151" transform="matrix(0.502 0.8649 -0.8649 0.502 304.6728 -197.3125)" fill="#FFFFFF" width="0.428" height="93.522"/>
<line fill="#C7B8B4" x1="364.125" y1="158.297" x2="283.229" y2="205.227"/>
<rect x="323.463" y="135" transform="matrix(0.502 0.8649 -0.8649 0.502 318.3804 -189.4198)" fill="#FFFFFF" width="0.428" height="93.523"/>
<line fill="#C7B8B4" x1="364.125" y1="173.642" x2="283.229" y2="220.57"/>
<rect x="323.463" y="150.345" transform="matrix(0.502 0.8649 -0.8649 0.502 331.6505 -181.779)" fill="#FFFFFF" width="0.428" height="93.522"/>
<line fill="#C7B8B4" x1="364.125" y1="189.346" x2="283.229" y2="236.277"/>
<rect x="323.463" y="166.05" transform="matrix(0.502 0.8649 -0.8649 0.502 345.2335 -173.958)" fill="#FFFFFF" width="0.428" height="93.524"/>
<line fill="#C7B8B4" x1="364.125" y1="205.227" x2="283.229" y2="252.155"/>
<rect x="323.463" y="181.93" transform="matrix(0.502 0.8649 -0.8649 0.502 358.9668 -166.0505)" fill="#FFFFFF" width="0.428" height="93.522"/>
<line fill="#C7B8B4" x1="357.391" y1="138.271" x2="357.494" y2="146.552"/>
<path fill="#FFFFFF" d="M357.494,146.767c-0.117,0-0.213-0.094-0.214-0.212l-0.104-8.281c-0.002-0.118,0.093-0.215,0.211-0.217
	c0.001,0,0.002,0,0.003,0c0.117,0,0.213,0.094,0.214,0.212l0.104,8.281c0.002,0.118-0.093,0.215-0.211,0.217H357.494z"/>
<path fill="#FFFFFF" d="M353.492,156.979c-0.118,0-0.214-0.096-0.214-0.214v-8.15c0-0.118,0.096-0.214,0.214-0.214
	s0.214,0.096,0.214,0.214v8.15C353.706,156.883,353.61,156.979,353.492,156.979z"/>
<line fill="#C7B8B4" x1="357.391" y1="154.328" x2="357.494" y2="162.399"/>
<path fill="#FFFFFF" d="M357.494,162.613c-0.117,0-0.213-0.094-0.214-0.211l-0.104-8.071c-0.002-0.119,0.093-0.215,0.211-0.217
	c0.094-0.013,0.216,0.093,0.217,0.211l0.104,8.071c0.002,0.119-0.093,0.215-0.211,0.217H357.494z"/>
<path fill="#FFFFFF" d="M353.492,172.563c-0.118,0-0.214-0.096-0.214-0.214v-7.94c0-0.118,0.096-0.214,0.214-0.214
	s0.214,0.096,0.214,0.214v7.94C353.706,172.467,353.61,172.563,353.492,172.563z"/>
<line fill="#C7B8B4" x1="357.391" y1="169.816" x2="357.494" y2="177.336"/>
<path fill="#FFFFFF" d="M357.494,177.551c-0.117,0-0.213-0.094-0.214-0.211l-0.104-7.521c-0.002-0.118,0.093-0.215,0.211-0.217
	c0.001,0,0.002,0,0.003,0c0.117,0,0.213,0.094,0.214,0.211l0.104,7.521c0.002,0.118-0.093,0.215-0.211,0.217H357.494z"/>
<path fill="#FFFFFF" d="M353.486,187.772c-0.118,0-0.214-0.096-0.214-0.214v-7.506c0-0.118,0.096-0.214,0.214-0.214
	s0.214,0.096,0.214,0.214v7.506C353.7,187.676,353.604,187.772,353.486,187.772z"/>
<line fill="#C7B8B4" x1="357.391" y1="185.113" x2="357.494" y2="193.182"/>
<path fill="#FFFFFF" d="M357.494,193.396c-0.117,0-0.213-0.094-0.214-0.211l-0.104-8.069c-0.002-0.119,0.093-0.215,0.211-0.217
	c0.001,0,0.002,0,0.003,0c0.117,0,0.213,0.094,0.214,0.211l0.104,8.069c0.002,0.119-0.093,0.215-0.211,0.217H357.494z"/>
<path fill="#FFFFFF" d="M353.492,203.663c-0.118,0-0.214-0.096-0.214-0.214v-7.942c0-0.118,0.096-0.214,0.214-0.214
	s0.214,0.096,0.214,0.214v7.942C353.706,203.567,353.61,203.663,353.492,203.663z"/>
<line fill="#C7B8B4" x1="357.391" y1="201.033" x2="357.494" y2="209.104"/>
<path fill="#FFFFFF" d="M357.494,209.318c-0.117,0-0.213-0.094-0.214-0.211l-0.104-8.071c-0.002-0.119,0.093-0.215,0.211-0.217
	c0.001,0,0.002,0,0.003,0c0.117,0,0.213,0.094,0.214,0.211l0.104,8.071c0.002,0.119-0.093,0.215-0.211,0.217H357.494z"/>
<path fill="#FFFFFF" d="M353.492,219.583c-0.118,0-0.214-0.096-0.214-0.214v-7.94c0-0.118,0.096-0.214,0.214-0.214
	s0.214,0.096,0.214,0.214v7.94C353.706,219.487,353.61,219.583,353.492,219.583z"/>
<line fill="#C7B8B4" x1="344.766" y1="145.478" x2="344.869" y2="153.759"/>
<path fill="#FFFFFF" d="M344.869,153.974c-0.117,0-0.213-0.094-0.214-0.212l-0.104-8.281c-0.002-0.118,0.093-0.215,0.211-0.217
	h0.003c0.117,0,0.213,0.094,0.214,0.212l0.104,8.281c0.002,0.118-0.093,0.215-0.211,0.217
	C344.871,153.974,344.87,153.974,344.869,153.974z"/>
<path fill="#FFFFFF" d="M340.869,164.186c-0.118,0-0.214-0.096-0.214-0.214v-8.151c0-0.118,0.096-0.214,0.214-0.214
	s0.214,0.096,0.214,0.214v8.151C341.083,164.089,340.987,164.186,340.869,164.186z"/>
<line fill="#C7B8B4" x1="344.766" y1="161.534" x2="344.869" y2="169.603"/>
<path fill="#FFFFFF" d="M344.869,169.817c-0.117,0-0.213-0.094-0.214-0.211l-0.104-8.069c-0.002-0.119,0.093-0.215,0.211-0.217
	h0.003c0.117,0,0.213,0.094,0.214,0.211l0.104,8.069c0.002,0.119-0.093,0.215-0.211,0.217
	C344.871,169.817,344.87,169.817,344.869,169.817z"/>
<path fill="#FFFFFF" d="M340.869,179.771c-0.118,0-0.214-0.096-0.214-0.214v-7.942c0-0.118,0.096-0.214,0.214-0.214
	s0.214,0.096,0.214,0.214v7.942C341.083,179.674,340.987,179.771,340.869,179.771z"/>
<line fill="#C7B8B4" x1="344.766" y1="177.306" x2="344.869" y2="184.828"/>
<path fill="#FFFFFF" d="M344.869,185.042c-0.117,0-0.213-0.094-0.214-0.211l-0.104-7.521c-0.002-0.118,0.093-0.215,0.211-0.217
	h0.003c0.117,0,0.213,0.094,0.214,0.211l0.104,7.521c0.002,0.118-0.093,0.215-0.211,0.217
	C344.871,185.042,344.87,185.042,344.869,185.042z"/>
<path fill="#FFFFFF" d="M340.859,194.979c-0.118,0-0.214-0.096-0.214-0.214v-7.505c0-0.118,0.096-0.214,0.214-0.214
	s0.214,0.096,0.214,0.214v7.505C341.073,194.883,340.978,194.979,340.859,194.979z"/>
<line fill="#C7B8B4" x1="344.766" y1="192.612" x2="344.869" y2="200.389"/>
<path fill="#FFFFFF" d="M344.869,200.604c-0.117,0-0.213-0.094-0.214-0.211l-0.104-7.777c-0.002-0.118,0.093-0.215,0.211-0.217
	h0.003c0.117,0,0.213,0.094,0.214,0.211l0.104,7.777c0.002,0.118-0.093,0.215-0.211,0.217
	C344.871,200.604,344.87,200.604,344.869,200.604z"/>
<path fill="#FFFFFF" d="M340.869,210.869c-0.118,0-0.214-0.096-0.214-0.214v-7.941c0-0.118,0.096-0.214,0.214-0.214
	s0.214,0.096,0.214,0.214v7.941C341.083,210.773,340.987,210.869,340.869,210.869z"/>
<line fill="#C7B8B4" x1="344.766" y1="208.239" x2="344.869" y2="216.31"/>
<path fill="#FFFFFF" d="M344.869,216.524c-0.117,0-0.213-0.094-0.214-0.211l-0.104-8.071c-0.002-0.119,0.093-0.215,0.211-0.217
	h0.003c0.117,0,0.213,0.094,0.214,0.211l0.104,8.071c0.002,0.119-0.093,0.215-0.211,0.217
	C344.871,216.524,344.87,216.524,344.869,216.524z"/>
<path fill="#FFFFFF" d="M340.869,226.791c-0.118,0-0.214-0.096-0.214-0.214v-7.94c0-0.118,0.096-0.214,0.214-0.214
	s0.214,0.096,0.214,0.214v7.94C341.083,226.695,340.987,226.791,340.869,226.791z"/>
<line fill="#C7B8B4" x1="332.361" y1="152.648" x2="332.465" y2="160.929"/>
<path fill="#FFFFFF" d="M332.465,161.144c-0.117,0-0.213-0.094-0.214-0.212l-0.104-8.281c-0.002-0.118,0.093-0.215,0.211-0.217
	h0.003c0.117,0,0.213,0.094,0.214,0.212l0.104,8.281c0.002,0.118-0.093,0.215-0.211,0.217
	C332.467,161.144,332.466,161.144,332.465,161.144z"/>
<path fill="#FFFFFF" d="M328.463,171.358c-0.118,0-0.214-0.096-0.214-0.214v-8.151c0-0.118,0.096-0.214,0.214-0.214
	s0.214,0.096,0.214,0.214v8.151C328.677,171.262,328.581,171.358,328.463,171.358z"/>
<line fill="#C7B8B4" x1="332.361" y1="168.707" x2="332.465" y2="176.776"/>
<path fill="#FFFFFF" d="M332.465,176.99c-0.117,0-0.213-0.094-0.214-0.211l-0.104-8.069c-0.002-0.119,0.093-0.215,0.211-0.217h0.003
	c0.117,0,0.213,0.094,0.214,0.211l0.104,8.069c0.002,0.119-0.093,0.215-0.211,0.217C332.467,176.99,332.466,176.99,332.465,176.99z"
	/>
<path fill="#FFFFFF" d="M328.463,186.944c-0.118,0-0.214-0.096-0.214-0.214v-7.942c0-0.118,0.096-0.214,0.214-0.214
	s0.214,0.096,0.214,0.214v7.942C328.677,186.848,328.581,186.944,328.463,186.944z"/>
<line fill="#C7B8B4" x1="332.361" y1="184.479" x2="332.465" y2="192.001"/>
<path fill="#FFFFFF" d="M332.465,192.216c-0.117,0-0.213-0.094-0.214-0.211l-0.104-7.522c-0.002-0.118,0.093-0.215,0.211-0.217
	h0.003c0.117,0,0.213,0.094,0.214,0.211l0.104,7.522c0.002,0.118-0.093,0.215-0.211,0.217
	C332.467,192.216,332.466,192.216,332.465,192.216z"/>
<path fill="#FFFFFF" d="M328.455,202.15c-0.118,0-0.214-0.096-0.214-0.214v-7.505c0-0.118,0.096-0.214,0.214-0.214
	s0.214,0.096,0.214,0.214v7.505C328.669,202.054,328.573,202.15,328.455,202.15z"/>
<line fill="#C7B8B4" x1="332.361" y1="199.785" x2="332.465" y2="207.559"/>
<path fill="#FFFFFF" d="M332.465,207.773c-0.117,0-0.213-0.094-0.214-0.211l-0.104-7.774c-0.002-0.118,0.093-0.215,0.211-0.217
	h0.003c0.117,0,0.213,0.094,0.214,0.211l0.104,7.774c0.002,0.118-0.093,0.215-0.211,0.217
	C332.467,207.773,332.466,207.773,332.465,207.773z"/>
<path fill="#FFFFFF" d="M328.463,218.042c-0.118,0-0.214-0.096-0.214-0.214v-7.942c0-0.118,0.096-0.214,0.214-0.214
	s0.214,0.096,0.214,0.214v7.942C328.677,217.946,328.581,218.042,328.463,218.042z"/>
<line fill="#C7B8B4" x1="332.361" y1="215.412" x2="332.465" y2="223.481"/>
<path fill="#FFFFFF" d="M332.465,223.695c-0.117,0-0.213-0.094-0.214-0.211l-0.104-8.069c-0.002-0.119,0.093-0.215,0.211-0.217
	h0.003c0.117,0,0.213,0.094,0.214,0.211l0.104,8.069c0.002,0.119-0.093,0.215-0.211,0.217
	C332.467,223.695,332.466,223.695,332.465,223.695z"/>
<path fill="#FFFFFF" d="M328.463,233.963c-0.118,0-0.214-0.096-0.214-0.214v-7.941c0-0.118,0.096-0.214,0.214-0.214
	s0.214,0.096,0.214,0.214v7.941C328.677,233.867,328.581,233.963,328.463,233.963z"/>
<line fill="#C7B8B4" x1="319.928" y1="159.839" x2="320.029" y2="168.123"/>
<path fill="#FFFFFF" d="M320.029,168.337c-0.117,0-0.213-0.094-0.214-0.212l-0.102-8.283c-0.002-0.118,0.093-0.215,0.211-0.217
	c0.001,0,0.002,0,0.003,0c0.117,0,0.213,0.094,0.214,0.212l0.102,8.283c0.002,0.118-0.093,0.215-0.211,0.217
	C320.031,168.337,320.03,168.337,320.029,168.337z"/>
<path fill="#FFFFFF" d="M316.029,178.55c-0.118,0-0.214-0.096-0.214-0.214v-8.151c0-0.118,0.096-0.214,0.214-0.214
	s0.214,0.096,0.214,0.214v8.151C316.243,178.454,316.147,178.55,316.029,178.55z"/>
<line fill="#C7B8B4" x1="319.928" y1="175.897" x2="320.029" y2="183.964"/>
<path fill="#FFFFFF" d="M320.029,184.179c-0.117,0-0.213-0.094-0.214-0.211l-0.102-8.067c-0.002-0.119,0.093-0.216,0.211-0.217
	c0.001,0,0.002,0,0.003,0c0.117,0,0.213,0.094,0.214,0.211l0.102,8.067c0.002,0.119-0.093,0.216-0.211,0.217
	C320.031,184.179,320.03,184.179,320.029,184.179z"/>
<path fill="#FFFFFF" d="M316.029,194.132c-0.118,0-0.214-0.096-0.214-0.214v-7.94c0-0.118,0.096-0.214,0.214-0.214
	s0.214,0.096,0.214,0.214v7.94C316.243,194.036,316.147,194.132,316.029,194.132z"/>
<line fill="#C7B8B4" x1="319.928" y1="191.67" x2="320.029" y2="199.192"/>
<path fill="#FFFFFF" d="M320.029,199.406c-0.117,0-0.213-0.094-0.214-0.211l-0.102-7.521c-0.002-0.118,0.093-0.215,0.211-0.217
	c0.001,0,0.002,0,0.003,0c0.117,0,0.213,0.094,0.214,0.211l0.102,7.521c0.002,0.118-0.093,0.215-0.211,0.217
	C320.031,199.406,320.03,199.406,320.029,199.406z"/>
<path fill="#FFFFFF" d="M316.023,209.342c-0.118,0-0.214-0.096-0.214-0.214v-7.504c0-0.118,0.096-0.214,0.214-0.214
	s0.214,0.096,0.214,0.214v7.504C316.237,209.246,316.142,209.342,316.023,209.342z"/>
<line fill="#C7B8B4" x1="319.928" y1="206.976" x2="320.029" y2="214.752"/>
<path fill="#FFFFFF" d="M320.029,214.967c-0.117,0-0.213-0.094-0.214-0.211l-0.102-7.776c-0.002-0.118,0.093-0.215,0.211-0.217
	c0.001,0,0.002,0,0.003,0c0.117,0,0.213,0.094,0.214,0.211l0.102,7.776c0.002,0.118-0.093,0.215-0.211,0.217
	C320.031,214.967,320.03,214.967,320.029,214.967z"/>
<path fill="#FFFFFF" d="M316.029,225.233c-0.118,0-0.214-0.096-0.214-0.214v-7.942c0-0.118,0.096-0.214,0.214-0.214
	s0.214,0.096,0.214,0.214v7.942C316.243,225.137,316.147,225.233,316.029,225.233z"/>
<line fill="#C7B8B4" x1="319.928" y1="222.601" x2="320.029" y2="230.671"/>
<path fill="#FFFFFF" d="M320.029,230.886c-0.117,0-0.213-0.094-0.214-0.211l-0.102-8.07c-0.002-0.119,0.093-0.216,0.211-0.217
	c0.099,0.013,0.216,0.094,0.217,0.211l0.102,8.07c0.002,0.119-0.093,0.216-0.211,0.217
	C320.031,230.886,320.03,230.886,320.029,230.886z"/>
<path fill="#FFFFFF" d="M316.029,241.152c-0.118,0-0.214-0.096-0.214-0.214v-7.942c0-0.118,0.096-0.214,0.214-0.214
	s0.214,0.096,0.214,0.214v7.942C316.243,241.056,316.147,241.152,316.029,241.152z"/>
<line fill="#C7B8B4" x1="307.434" y1="167.012" x2="307.537" y2="175.293"/>
<path fill="#FFFFFF" d="M307.537,175.508c-0.117,0-0.213-0.094-0.214-0.212l-0.104-8.281c-0.002-0.118,0.093-0.215,0.211-0.217
	h0.003c0.117,0,0.213,0.094,0.214,0.212l0.104,8.281c0.002,0.118-0.093,0.215-0.211,0.217
	C307.539,175.508,307.538,175.508,307.537,175.508z"/>
<path fill="#FFFFFF" d="M303.535,185.719c-0.118,0-0.214-0.096-0.214-0.214v-8.149c0-0.118,0.096-0.214,0.214-0.214
	s0.214,0.096,0.214,0.214v8.149C303.749,185.623,303.653,185.719,303.535,185.719z"/>
<line fill="#C7B8B4" x1="307.434" y1="183.068" x2="307.537" y2="191.139"/>
<path fill="#FFFFFF" d="M307.537,191.354c-0.117,0-0.213-0.094-0.214-0.211l-0.104-8.071c-0.002-0.119,0.093-0.215,0.211-0.217
	h0.003c0.117,0,0.213,0.094,0.214,0.211l0.104,8.071c0.002,0.119-0.093,0.215-0.211,0.217
	C307.539,191.354,307.538,191.354,307.537,191.354z"/>
<path fill="#FFFFFF" d="M303.535,201.306c-0.118,0-0.214-0.096-0.214-0.214v-7.942c0-0.118,0.096-0.214,0.214-0.214
	s0.214,0.096,0.214,0.214v7.942C303.749,201.209,303.653,201.306,303.535,201.306z"/>
<line fill="#C7B8B4" x1="307.434" y1="198.84" x2="307.537" y2="206.364"/>
<path fill="#FFFFFF" d="M307.537,206.578c-0.117,0-0.213-0.094-0.214-0.211l-0.104-7.523c-0.002-0.118,0.093-0.215,0.211-0.217
	h0.003c0.117,0,0.213,0.094,0.214,0.211l0.104,7.523c0.002,0.118-0.093,0.215-0.211,0.217
	C307.539,206.578,307.538,206.578,307.537,206.578z"/>
<path fill="#FFFFFF" d="M303.529,216.515c-0.118,0-0.214-0.096-0.214-0.214v-7.508c0-0.118,0.096-0.214,0.214-0.214
	s0.214,0.096,0.214,0.214v7.508C303.743,216.418,303.647,216.515,303.529,216.515z"/>
<line fill="#C7B8B4" x1="307.434" y1="214.145" x2="307.537" y2="221.923"/>
<path fill="#FFFFFF" d="M307.537,222.138c-0.117,0-0.213-0.094-0.214-0.211l-0.104-7.778c-0.002-0.118,0.093-0.215,0.211-0.217
	h0.003c0.117,0,0.213,0.094,0.214,0.211l0.104,7.778c0.002,0.118-0.093,0.215-0.211,0.217
	C307.539,222.138,307.538,222.138,307.537,222.138z"/>
<path fill="#FFFFFF" d="M303.535,232.404c-0.118,0-0.214-0.096-0.214-0.214v-7.941c0-0.118,0.096-0.214,0.214-0.214
	s0.214,0.096,0.214,0.214v7.941C303.749,232.308,303.653,232.404,303.535,232.404z"/>
<line fill="#C7B8B4" x1="307.434" y1="229.774" x2="307.537" y2="237.843"/>
<path fill="#FFFFFF" d="M307.537,238.058c-0.117,0-0.213-0.094-0.214-0.211l-0.104-8.069c-0.002-0.119,0.093-0.215,0.211-0.217
	h0.003c0.117,0,0.213,0.094,0.214,0.211l0.104,8.069c0.002,0.119-0.093,0.215-0.211,0.217
	C307.539,238.058,307.538,238.058,307.537,238.058z"/>
<path fill="#FFFFFF" d="M303.535,248.327c-0.118,0-0.214-0.096-0.214-0.214v-7.943c0-0.118,0.096-0.214,0.214-0.214
	s0.214,0.096,0.214,0.214v7.943C303.749,248.231,303.653,248.327,303.535,248.327z"/>
<line fill="#C7B8B4" x1="295.201" y1="174.203" x2="295.305" y2="182.485"/>
<path fill="#FFFFFF" d="M295.305,182.699c-0.117,0-0.213-0.094-0.214-0.212l-0.104-8.282c-0.002-0.118,0.093-0.215,0.211-0.217
	c0.129,0.023,0.216,0.093,0.217,0.212l0.104,8.282c0.002,0.118-0.093,0.215-0.211,0.217H295.305z"/>
<path fill="#FFFFFF" d="M291.303,192.911c-0.118,0-0.214-0.096-0.214-0.214v-8.151c0-0.118,0.096-0.214,0.214-0.214
	s0.214,0.096,0.214,0.214v8.151C291.517,192.815,291.421,192.911,291.303,192.911z"/>
<line fill="#C7B8B4" x1="295.201" y1="190.258" x2="295.305" y2="198.331"/>
<path fill="#FFFFFF" d="M295.305,198.545c-0.117,0-0.213-0.094-0.214-0.211l-0.104-8.072c-0.002-0.119,0.093-0.215,0.211-0.217
	h0.003c0.117,0,0.213,0.094,0.214,0.211l0.104,8.072c0.002,0.119-0.093,0.215-0.211,0.217H295.305z"/>
<path fill="#FFFFFF" d="M291.303,208.495c-0.118,0-0.214-0.096-0.214-0.214v-7.942c0-0.118,0.096-0.214,0.214-0.214
	s0.214,0.096,0.214,0.214v7.942C291.517,208.399,291.421,208.495,291.303,208.495z"/>
<line fill="#C7B8B4" x1="295.201" y1="206.032" x2="295.305" y2="213.554"/>
<path fill="#FFFFFF" d="M295.305,213.769c-0.117,0-0.213-0.094-0.214-0.211l-0.104-7.522c-0.002-0.118,0.093-0.215,0.211-0.217
	h0.003c0.117,0,0.213,0.094,0.214,0.211l0.104,7.522c0.002,0.118-0.093,0.215-0.211,0.217H295.305z"/>
<path fill="#FFFFFF" d="M291.295,223.704c-0.118,0-0.214-0.096-0.214-0.214v-7.506c0-0.118,0.096-0.214,0.214-0.214
	s0.214,0.096,0.214,0.214v7.506C291.509,223.608,291.413,223.704,291.295,223.704z"/>
<line fill="#C7B8B4" x1="295.201" y1="221.338" x2="295.305" y2="229.115"/>
<path fill="#FFFFFF" d="M295.305,229.329c-0.117,0-0.213-0.094-0.214-0.211l-0.104-7.776c-0.002-0.118,0.093-0.215,0.211-0.217
	h0.003c0.117,0,0.213,0.094,0.214,0.211l0.104,7.776c0.002,0.118-0.093,0.215-0.211,0.217H295.305z"/>
<path fill="#FFFFFF" d="M291.303,239.594c-0.118,0-0.214-0.096-0.214-0.214v-7.941c0-0.118,0.096-0.214,0.214-0.214
	s0.214,0.096,0.214,0.214v7.941C291.517,239.498,291.421,239.594,291.303,239.594z"/>
<line fill="#C7B8B4" x1="295.201" y1="236.963" x2="295.305" y2="245.037"/>
<path fill="#FFFFFF" d="M295.305,245.251c-0.117,0-0.213-0.094-0.214-0.211l-0.104-8.073c-0.002-0.119,0.093-0.215,0.211-0.217
	c0.129,0.007,0.216,0.094,0.217,0.211l0.104,8.073c0.002,0.119-0.093,0.215-0.211,0.217H295.305z"/>
<path fill="#FFFFFF" d="M291.303,255.515c-0.118,0-0.214-0.096-0.214-0.214v-7.94c0-0.118,0.096-0.214,0.214-0.214
	s0.214,0.096,0.214,0.214v7.94C291.517,255.418,291.421,255.515,291.303,255.515z"/>
<rect x="47.517" y="181.389" transform="matrix(0.866 0.5 -0.5 0.866 103.4482 -22.873)" fill="#FFFFFF" width="93.778" height="0.429"/>
<rect x="47.517" y="197.055" transform="matrix(0.866 0.5 -0.5 0.866 111.2811 -20.7742)" fill="#FFFFFF" width="93.778" height="0.429"/>
<rect x="47.423" y="212.415" transform="matrix(0.8643 0.503 -0.503 0.8643 119.7647 -18.6296)" fill="#FFFFFF" width="93.967" height="0.428"/>
<rect x="47.546" y="228.166" transform="matrix(0.8664 0.4993 -0.4993 0.8664 126.6362 -16.6054)" fill="#FFFFFF" width="93.615" height="0.428"/>
<rect x="47.702" y="173.6" transform="matrix(0.865 0.5018 -0.5018 0.865 99.979 -23.933)" fill="#FFFFFF" width="93.521" height="0.428"/>
<rect x="47.702" y="189.45" transform="matrix(0.865 0.5018 -0.5018 0.865 107.9288 -21.7932)" fill="#FFFFFF" width="93.52" height="0.428"/>
<rect x="47.702" y="204.795" transform="matrix(0.865 0.5018 -0.5018 0.865 115.6312 -19.721)" fill="#FFFFFF" width="93.52" height="0.428"/>
<rect x="47.702" y="220.501" transform="matrix(0.865 0.5018 -0.5018 0.865 123.5103 -17.6007)" fill="#FFFFFF" width="93.52" height="0.428"/>
<rect x="47.702" y="236.38" transform="matrix(0.865 0.5018 -0.5018 0.865 131.483 -15.456)" fill="#FFFFFF" width="93.521" height="0.428"/>
<path fill="#FFFFFF" d="M60.645,154.669c-0.001,0-0.002,0-0.003,0c-0.118-0.002-0.213-0.099-0.211-0.217l0.105-8.28
	c0.001-0.117,0.097-0.211,0.214-0.211h0.003c0.118,0.002,0.213,0.099,0.211,0.217l-0.105,8.28
	C60.857,154.575,60.762,154.669,60.645,154.669z"/>
<path fill="#FFFFFF" d="M64.646,164.882c-0.118,0-0.214-0.096-0.214-0.214v-8.149c0-0.118,0.096-0.214,0.214-0.214
	s0.214,0.096,0.214,0.214v8.149C64.86,164.786,64.765,164.882,64.646,164.882z"/>
<path fill="#FFFFFF" d="M60.645,170.513c-0.001,0-0.002,0-0.003,0c-0.118-0.002-0.213-0.099-0.211-0.217l0.105-8.068
	c0.001-0.117,0.097-0.211,0.214-0.211h0.003c0.118,0.002,0.213,0.099,0.211,0.217l-0.105,8.068
	C60.857,170.418,60.762,170.513,60.645,170.513z"/>
<path fill="#FFFFFF" d="M64.646,180.467c-0.118,0-0.214-0.096-0.214-0.214v-7.942c0-0.118,0.096-0.214,0.214-0.214
	s0.214,0.096,0.214,0.214v7.942C64.86,180.371,64.765,180.467,64.646,180.467z"/>
<path fill="#FFFFFF" d="M60.645,185.452c-0.001,0-0.002,0-0.003,0c-0.118-0.002-0.213-0.099-0.211-0.217l0.105-7.52
	c0.001-0.117,0.097-0.211,0.214-0.211h0.003c0.118,0.002,0.213,0.099,0.211,0.217l-0.105,7.52
	C60.857,185.358,60.762,185.452,60.645,185.452z"/>
<path fill="#FFFFFF" d="M64.654,195.674c-0.118,0-0.214-0.096-0.214-0.214v-7.506c0-0.118,0.096-0.214,0.214-0.214
	s0.214,0.096,0.214,0.214v7.506C64.868,195.578,64.772,195.674,64.654,195.674z"/>
<path fill="#FFFFFF" d="M60.645,201.3c-0.001,0-0.002,0-0.003,0c-0.118-0.002-0.213-0.099-0.211-0.217l0.105-8.072
	c0.001-0.117,0.097-0.211,0.214-0.211h0.003c0.118,0.002,0.213,0.099,0.211,0.217l-0.105,8.072
	C60.857,201.206,60.762,201.3,60.645,201.3z"/>
<path fill="#FFFFFF" d="M64.646,211.565c-0.118,0-0.214-0.096-0.214-0.214v-7.942c0-0.118,0.096-0.214,0.214-0.214
	s0.214,0.096,0.214,0.214v7.942C64.86,211.469,64.765,211.565,64.646,211.565z"/>
<path fill="#FFFFFF" d="M60.645,217.219c-0.001,0-0.002,0-0.003,0c-0.118-0.002-0.213-0.099-0.211-0.217l0.105-8.069
	c0.001-0.117,0.097-0.211,0.214-0.211h0.003c0.118,0.002,0.213,0.099,0.211,0.217l-0.105,8.069
	C60.857,217.125,60.762,217.219,60.645,217.219z"/>
<path fill="#FFFFFF" d="M64.646,227.487c-0.118,0-0.214-0.096-0.214-0.214v-7.942c0-0.118,0.096-0.214,0.214-0.214
	s0.214,0.096,0.214,0.214v7.942C64.86,227.391,64.765,227.487,64.646,227.487z"/>
<path fill="#FFFFFF" d="M73.27,161.875h-0.003c-0.118-0.002-0.213-0.099-0.211-0.217l0.105-8.281
	c0.001-0.117,0.097-0.211,0.214-0.211c0.001,0,0.002,0,0.003,0c0.118,0.002,0.213,0.099,0.211,0.217l-0.105,8.281
	C73.482,161.781,73.387,161.875,73.27,161.875z"/>
<path fill="#FFFFFF" d="M77.273,172.088c-0.118,0-0.214-0.096-0.214-0.214v-8.151c0-0.118,0.096-0.214,0.214-0.214
	s0.214,0.096,0.214,0.214v8.151C77.487,171.992,77.392,172.088,77.273,172.088z"/>
<path fill="#FFFFFF" d="M73.27,177.723h-0.003c-0.118-0.002-0.213-0.099-0.211-0.217l0.105-8.072
	c0.001-0.117,0.097-0.211,0.214-0.211c0.001,0,0.002,0,0.003,0c0.118,0.002,0.213,0.099,0.211,0.217l-0.105,8.072
	C73.482,177.628,73.387,177.723,73.27,177.723z"/>
<path fill="#FFFFFF" d="M77.273,187.673c-0.118,0-0.214-0.096-0.214-0.214v-7.942c0-0.118,0.096-0.214,0.214-0.214
	s0.214,0.096,0.214,0.214v7.942C77.487,187.577,77.392,187.673,77.273,187.673z"/>
<path fill="#FFFFFF" d="M73.27,192.945h-0.003c-0.118-0.002-0.213-0.099-0.211-0.217l0.105-7.521
	c0.001-0.117,0.097-0.211,0.214-0.211c0.001,0,0.002,0,0.003,0c0.118,0.002,0.213,0.099,0.211,0.217l-0.105,7.521
	C73.482,192.851,73.387,192.945,73.27,192.945z"/>
<path fill="#FFFFFF" d="M77.279,202.882c-0.118,0-0.214-0.096-0.214-0.214v-7.507c0-0.118,0.096-0.214,0.214-0.214
	s0.214,0.096,0.214,0.214v7.507C77.493,202.786,77.397,202.882,77.279,202.882z"/>
<path fill="#FFFFFF" d="M73.27,208.505h-0.003c-0.118-0.002-0.213-0.099-0.211-0.217l0.105-7.776
	c0.001-0.117,0.097-0.211,0.214-0.211c0.001,0,0.002,0,0.003,0c0.118,0.002,0.213,0.099,0.211,0.217l-0.105,7.776
	C73.482,208.411,73.387,208.505,73.27,208.505z"/>
<path fill="#FFFFFF" d="M77.273,218.773c-0.118,0-0.214-0.096-0.214-0.214v-7.941c0-0.118,0.096-0.214,0.214-0.214
	s0.214,0.096,0.214,0.214v7.941C77.487,218.677,77.392,218.773,77.273,218.773z"/>
<path fill="#FFFFFF" d="M73.27,224.427h-0.003c-0.118-0.002-0.213-0.099-0.211-0.217l0.105-8.071
	c0.001-0.117,0.097-0.211,0.214-0.211c0.001,0,0.002,0,0.003,0c0.118,0.002,0.213,0.099,0.211,0.217l-0.105,8.071
	C73.482,224.333,73.387,224.427,73.27,224.427z"/>
<path fill="#FFFFFF" d="M77.273,234.694c-0.118,0-0.214-0.096-0.214-0.214v-7.943c0-0.118,0.096-0.214,0.214-0.214
	s0.214,0.096,0.214,0.214v7.943C77.487,234.598,77.392,234.694,77.273,234.694z"/>
<path fill="#FFFFFF" d="M85.674,169.047c-0.001,0-0.002,0-0.003,0c-0.118-0.002-0.213-0.099-0.211-0.217l0.105-8.281
	c0.001-0.117,0.097-0.211,0.214-0.211c0.001,0,0.002,0,0.003,0c0.118,0.002,0.213,0.099,0.211,0.217l-0.105,8.281
	C85.887,168.953,85.791,169.047,85.674,169.047z"/>
<path fill="#FFFFFF" d="M89.676,179.261c-0.118,0-0.214-0.096-0.214-0.214v-8.149c0-0.118,0.096-0.214,0.214-0.214
	s0.214,0.096,0.214,0.214v8.149C89.89,179.165,89.794,179.261,89.676,179.261z"/>
<path fill="#FFFFFF" d="M85.674,184.893c-0.001,0-0.002,0-0.003,0c-0.118-0.002-0.213-0.099-0.211-0.217l0.105-8.071
	c0.001-0.117,0.097-0.211,0.214-0.211c0.001,0,0.002,0,0.003,0c0.118,0.002,0.213,0.099,0.211,0.217l-0.105,8.071
	C85.887,184.798,85.791,184.893,85.674,184.893z"/>
<path fill="#FFFFFF" d="M89.676,194.844c-0.118,0-0.214-0.096-0.214-0.214v-7.94c0-0.118,0.096-0.214,0.214-0.214
	s0.214,0.096,0.214,0.214v7.94C89.89,194.748,89.794,194.844,89.676,194.844z"/>
<path fill="#FFFFFF" d="M85.674,200.118c-0.001,0-0.002,0-0.003,0c-0.118-0.002-0.213-0.099-0.211-0.217l0.105-7.523
	c0.001-0.117,0.097-0.211,0.214-0.211c0.001,0,0.002,0,0.003,0c0.118,0.002,0.213,0.099,0.211,0.217l-0.105,7.523
	C85.887,200.024,85.791,200.118,85.674,200.118z"/>
<path fill="#FFFFFF" d="M89.684,210.051c-0.118,0-0.214-0.096-0.214-0.214v-7.506c0-0.118,0.096-0.214,0.214-0.214
	s0.214,0.096,0.214,0.214v7.506C89.897,209.955,89.802,210.051,89.684,210.051z"/>
<path fill="#FFFFFF" d="M85.674,215.678c-0.001,0-0.002,0-0.003,0c-0.118-0.002-0.213-0.099-0.211-0.217l0.105-7.776
	c0.001-0.117,0.097-0.211,0.214-0.211c0.001,0,0.002,0,0.003,0c0.118,0.002,0.213,0.099,0.211,0.217l-0.105,7.776
	C85.887,215.583,85.791,215.678,85.674,215.678z"/>
<path fill="#FFFFFF" d="M89.676,225.944c-0.118,0-0.214-0.096-0.214-0.214v-7.944c0-0.118,0.096-0.214,0.214-0.214
	s0.214,0.096,0.214,0.214v7.944C89.89,225.848,89.794,225.944,89.676,225.944z"/>
<path fill="#FFFFFF" d="M85.674,231.598c-0.001,0-0.002,0-0.003,0c-0.118-0.002-0.213-0.099-0.211-0.217l0.105-8.069
	c0.001-0.117,0.097-0.211,0.214-0.211c0.001,0,0.002,0,0.003,0c0.118,0.002,0.213,0.099,0.211,0.217l-0.105,8.069
	C85.887,231.503,85.791,231.598,85.674,231.598z"/>
<path fill="#FFFFFF" d="M89.676,241.864c-0.118,0-0.214-0.096-0.214-0.214v-7.94c0-0.118,0.096-0.214,0.214-0.214
	s0.214,0.096,0.214,0.214v7.94C89.89,241.768,89.794,241.864,89.676,241.864z"/>
<path fill="#FFFFFF" d="M98.109,176.239h-0.003c-0.118-0.001-0.213-0.099-0.211-0.217l0.102-8.282
	c0.001-0.118,0.097-0.212,0.214-0.212c0.001,0,0.002,0,0.003,0c0.118,0.001,0.213,0.099,0.211,0.217l-0.102,8.282
	C98.322,176.145,98.227,176.239,98.109,176.239z"/>
<path fill="#FFFFFF" d="M102.109,186.452c-0.118,0-0.214-0.096-0.214-0.214v-8.151c0-0.118,0.096-0.214,0.214-0.214
	s0.214,0.096,0.214,0.214v8.151C102.323,186.356,102.228,186.452,102.109,186.452z"/>
<path fill="#FFFFFF" d="M98.109,192.083h-0.003c-0.118-0.001-0.213-0.099-0.211-0.217l0.102-8.068
	c0.001-0.117,0.097-0.211,0.214-0.211c0.001,0,0.002,0,0.003,0c0.118,0.001,0.213,0.099,0.211,0.217l-0.102,8.068
	C98.322,191.989,98.227,192.083,98.109,192.083z"/>
<path fill="#FFFFFF" d="M102.109,202.037c-0.118,0-0.214-0.096-0.214-0.214v-7.942c0-0.118,0.096-0.214,0.214-0.214
	s0.214,0.096,0.214,0.214v7.942C102.323,201.941,102.228,202.037,102.109,202.037z"/>
<path fill="#FFFFFF" d="M98.109,207.31h-0.003c-0.118-0.002-0.213-0.099-0.211-0.217l0.102-7.523
	c0.001-0.117,0.097-0.211,0.214-0.211c0.001,0,0.002,0,0.003,0c0.118,0.002,0.213,0.099,0.211,0.217l-0.102,7.523
	C98.322,207.215,98.227,207.31,98.109,207.31z"/>
<path fill="#FFFFFF" d="M102.117,217.244c-0.118,0-0.214-0.096-0.214-0.214v-7.506c0-0.118,0.096-0.214,0.214-0.214
	s0.214,0.096,0.214,0.214v7.506C102.331,217.148,102.235,217.244,102.117,217.244z"/>
<path fill="#FFFFFF" d="M98.109,222.867h-0.003c-0.118-0.002-0.213-0.099-0.211-0.217l0.102-7.774
	c0.001-0.117,0.097-0.211,0.214-0.211c0.001,0,0.002,0,0.003,0c0.118,0.002,0.213,0.099,0.211,0.217l-0.102,7.774
	C98.322,222.773,98.227,222.867,98.109,222.867z"/>
<path fill="#FFFFFF" d="M102.109,233.136c-0.118,0-0.214-0.096-0.214-0.214v-7.942c0-0.118,0.096-0.214,0.214-0.214
	s0.214,0.096,0.214,0.214v7.942C102.323,233.04,102.228,233.136,102.109,233.136z"/>
<path fill="#FFFFFF" d="M98.109,238.789h-0.003c-0.118-0.001-0.213-0.099-0.211-0.217l0.102-8.07
	c0.001-0.117,0.097-0.211,0.214-0.211c0.001,0,0.002,0,0.003,0c0.118,0.001,0.213,0.099,0.211,0.217l-0.102,8.07
	C98.322,238.695,98.227,238.789,98.109,238.789z"/>
<path fill="#FFFFFF" d="M102.109,249.057c-0.118,0-0.214-0.096-0.214-0.214V240.9c0-0.118,0.096-0.214,0.214-0.214
	s0.214,0.096,0.214,0.214v7.942C102.323,248.96,102.228,249.057,102.109,249.057z"/>
<path fill="#FFFFFF" d="M110.602,183.41h-0.003c-0.118-0.001-0.213-0.099-0.211-0.217l0.104-8.28
	c0.001-0.118,0.097-0.212,0.214-0.212c0.001,0,0.002,0,0.003,0c0.118,0.001,0.213,0.099,0.211,0.217l-0.104,8.28
	C110.814,183.316,110.719,183.41,110.602,183.41z"/>
<path fill="#FFFFFF" d="M114.604,193.623c-0.118,0-0.214-0.096-0.214-0.214v-8.152c0-0.118,0.096-0.214,0.214-0.214
	s0.214,0.096,0.214,0.214v8.152C114.817,193.527,114.722,193.623,114.604,193.623z"/>
<path fill="#FFFFFF" d="M110.602,199.257h-0.003c-0.118-0.002-0.213-0.099-0.211-0.217l0.104-8.073
	c0.001-0.117,0.097-0.211,0.214-0.211c0.001,0,0.002,0,0.003,0c0.118,0.002,0.213,0.099,0.211,0.217l-0.104,8.073
	C110.814,199.163,110.719,199.257,110.602,199.257z"/>
<path fill="#FFFFFF" d="M114.604,209.206c-0.118,0-0.214-0.096-0.214-0.214v-7.94c0-0.118,0.096-0.214,0.214-0.214
	s0.214,0.096,0.214,0.214v7.94C114.817,209.11,114.722,209.206,114.604,209.206z"/>
<path fill="#FFFFFF" d="M110.602,214.479h-0.003c-0.118-0.002-0.213-0.099-0.211-0.217l0.104-7.521
	c0.001-0.117,0.097-0.211,0.214-0.211c0.001,0,0.002,0,0.003,0c0.118,0.002,0.213,0.099,0.211,0.217l-0.104,7.521
	C110.814,214.385,110.719,214.479,110.602,214.479z"/>
<path fill="#FFFFFF" d="M114.609,224.415c-0.118,0-0.214-0.096-0.214-0.214v-7.506c0-0.118,0.096-0.214,0.214-0.214
	s0.214,0.096,0.214,0.214v7.506C114.823,224.319,114.728,224.415,114.609,224.415z"/>
<path fill="#FFFFFF" d="M110.602,230.04h-0.003c-0.118-0.002-0.213-0.099-0.211-0.217l0.104-7.775
	c0.001-0.117,0.097-0.211,0.214-0.211c0.001,0,0.002,0,0.003,0c0.118,0.002,0.213,0.099,0.211,0.217l-0.104,7.775
	C110.814,229.946,110.719,230.04,110.602,230.04z"/>
<path fill="#FFFFFF" d="M114.604,240.307c-0.118,0-0.214-0.096-0.214-0.214v-7.94c0-0.118,0.096-0.214,0.214-0.214
	s0.214,0.096,0.214,0.214v7.94C114.817,240.21,114.722,240.307,114.604,240.307z"/>
<path fill="#FFFFFF" d="M110.602,245.962h-0.003c-0.118-0.002-0.213-0.099-0.211-0.217l0.104-8.071
	c0.001-0.117,0.097-0.211,0.214-0.211c0.001,0,0.002,0,0.003,0c0.118,0.002,0.213,0.099,0.211,0.217l-0.104,8.071
	C110.814,245.868,110.719,245.962,110.602,245.962z"/>
<path fill="#FFFFFF" d="M114.604,256.228c-0.118,0-0.214-0.096-0.214-0.214v-7.942c0-0.118,0.096-0.214,0.214-0.214
	s0.214,0.096,0.214,0.214v7.942C114.817,256.131,114.722,256.228,114.604,256.228z"/>
<path fill="#FFFFFF" d="M122.836,190.601c-0.001,0-0.002,0-0.003,0c-0.118-0.001-0.213-0.099-0.211-0.217l0.104-8.28
	c0.001-0.119,0.097-0.224,0.217-0.212c0.118,0.001,0.213,0.099,0.211,0.217l-0.104,8.28
	C123.049,190.506,122.953,190.601,122.836,190.601z"/>
<path fill="#FFFFFF" d="M126.838,200.814c-0.118,0-0.214-0.096-0.214-0.214v-8.152c0-0.118,0.096-0.214,0.214-0.214
	s0.214,0.096,0.214,0.214v8.152C127.052,200.718,126.956,200.814,126.838,200.814z"/>
<path fill="#FFFFFF" d="M122.836,206.447c-0.001,0-0.002,0-0.003,0c-0.118-0.002-0.213-0.099-0.211-0.217l0.104-8.072
	c0.001-0.119,0.097-0.208,0.217-0.211c0.118,0.002,0.213,0.099,0.211,0.217l-0.104,8.072
	C123.049,206.353,122.953,206.447,122.836,206.447z"/>
<path fill="#FFFFFF" d="M126.838,216.399c-0.118,0-0.214-0.096-0.214-0.214v-7.942c0-0.118,0.096-0.214,0.214-0.214
	s0.214,0.096,0.214,0.214v7.942C127.052,216.303,126.956,216.399,126.838,216.399z"/>
<path fill="#FFFFFF" d="M122.836,221.671c-0.001,0-0.002,0-0.003,0c-0.118-0.002-0.213-0.099-0.211-0.217l0.104-7.521
	c0.001-0.119,0.097-0.208,0.217-0.211c0.118,0.002,0.213,0.099,0.211,0.217l-0.104,7.521
	C123.049,221.577,122.953,221.671,122.836,221.671z"/>
<path fill="#FFFFFF" d="M126.844,231.605c-0.118,0-0.214-0.096-0.214-0.214v-7.505c0-0.118,0.096-0.214,0.214-0.214
	s0.214,0.096,0.214,0.214v7.505C127.058,231.509,126.962,231.605,126.844,231.605z"/>
<path fill="#FFFFFF" d="M122.836,237.231c-0.001,0-0.002,0-0.003,0c-0.118-0.002-0.213-0.099-0.211-0.217l0.104-7.777
	c0.001-0.119,0.097-0.209,0.217-0.211c0.118,0.002,0.213,0.099,0.211,0.217l-0.104,7.777
	C123.049,237.137,122.953,237.231,122.836,237.231z"/>
<path fill="#FFFFFF" d="M126.838,247.498c-0.118,0-0.214-0.096-0.214-0.214v-7.942c0-0.118,0.096-0.214,0.214-0.214
	s0.214,0.096,0.214,0.214v7.942C127.052,247.402,126.956,247.498,126.838,247.498z"/>
<path fill="#FFFFFF" d="M122.836,253.15c-0.001,0-0.002,0-0.003,0c-0.118-0.002-0.213-0.099-0.211-0.217l0.104-8.068
	c0.001-0.118,0.097-0.24,0.217-0.211c0.118,0.002,0.213,0.099,0.211,0.217l-0.104,8.068
	C123.049,253.056,122.953,253.15,122.836,253.15z"/>
<path fill="#FFFFFF" d="M126.838,263.419c-0.118,0-0.214-0.096-0.214-0.214v-7.942c0-0.118,0.096-0.214,0.214-0.214
	s0.214,0.096,0.214,0.214v7.942C127.052,263.323,126.956,263.419,126.838,263.419z"/>
<rect x="129.476" y="224.311" transform="matrix(0.8668 0.4987 -0.4987 0.8668 134.4344 -54.1638)" fill="#FFFFFF" width="78.227" height="0.428"/>
<rect x="129.477" y="239.978" transform="matrix(0.8668 0.4987 -0.4987 0.8668 142.2419 -52.0758)" fill="#FFFFFF" width="78.226" height="0.428"/>
<rect x="129.383" y="255.337" transform="matrix(0.8647 0.5023 -0.5023 0.8647 151.1613 -50.1042)" fill="#FFFFFF" width="78.413" height="0.428"/>
<rect x="129.507" y="271.087" transform="matrix(0.8673 0.4978 -0.4978 0.8673 157.4373 -47.8946)" fill="#FFFFFF" width="78.061" height="0.428"/>
<rect x="129.66" y="216.521" transform="matrix(0.8655 0.5009 -0.5009 0.8655 131.2326 -55.3226)" fill="#FFFFFF" width="77.969" height="0.429"/>
<rect x="129.66" y="232.372" transform="matrix(0.8655 0.5009 -0.5009 0.8655 139.1687 -53.1908)" fill="#FFFFFF" width="77.969" height="0.429"/>
<rect x="129.66" y="247.715" transform="matrix(0.8655 0.5008 -0.5008 0.8655 146.8502 -51.1273)" fill="#FFFFFF" width="77.968" height="0.429"/>
<rect x="129.661" y="263.42" transform="matrix(0.8655 0.5008 -0.5008 0.8655 154.7092 -49.0153)" fill="#FFFFFF" width="77.967" height="0.429"/>
<rect x="129.66" y="279.3" transform="matrix(0.8655 0.5008 -0.5008 0.8655 162.6693 -46.8804)" fill="#FFFFFF" width="77.968" height="0.429"/>
<path fill="#FFFFFF" d="M141.533,201.53h-0.003c-0.118-0.001-0.213-0.099-0.211-0.217l0.104-8.28
	c0.001-0.118,0.097-0.212,0.214-0.212h0.003c0.118,0.001,0.213,0.099,0.211,0.217l-0.104,8.28
	C141.746,201.436,141.65,201.53,141.533,201.53z"/>
<path fill="#FFFFFF" d="M145.535,211.742c-0.118,0-0.214-0.096-0.214-0.214v-8.151c0-0.118,0.096-0.214,0.214-0.214
	s0.214,0.096,0.214,0.214v8.151C145.749,211.646,145.653,211.742,145.535,211.742z"/>
<path fill="#FFFFFF" d="M141.533,217.376h-0.003c-0.118-0.002-0.213-0.099-0.211-0.217l0.104-8.073
	c0.001-0.117,0.097-0.211,0.214-0.211h0.003c0.118,0.002,0.213,0.099,0.211,0.217l-0.104,8.073
	C141.746,217.282,141.65,217.376,141.533,217.376z"/>
<path fill="#FFFFFF" d="M145.535,227.326c-0.118,0-0.214-0.096-0.214-0.214v-7.94c0-0.118,0.096-0.214,0.214-0.214
	s0.214,0.096,0.214,0.214v7.94C145.749,227.23,145.653,227.326,145.535,227.326z"/>
<path fill="#FFFFFF" d="M141.533,232.315h-0.003c-0.118-0.002-0.213-0.099-0.211-0.217l0.104-7.521
	c0.001-0.117,0.097-0.211,0.214-0.211h0.003c0.118,0.002,0.213,0.099,0.211,0.217l-0.104,7.521
	C141.746,232.221,141.65,232.315,141.533,232.315z"/>
<path fill="#FFFFFF" d="M145.543,242.535c-0.118,0-0.214-0.096-0.214-0.214v-7.506c0-0.118,0.096-0.214,0.214-0.214
	s0.214,0.096,0.214,0.214v7.506C145.757,242.439,145.661,242.535,145.543,242.535z"/>
<path fill="#FFFFFF" d="M141.533,248.162h-0.003c-0.118-0.002-0.213-0.099-0.211-0.217l0.104-8.073
	c0.001-0.117,0.097-0.211,0.214-0.211h0.003c0.118,0.002,0.213,0.099,0.211,0.217l-0.104,8.073
	C141.746,248.068,141.65,248.162,141.533,248.162z"/>
<path fill="#FFFFFF" d="M145.535,258.427c-0.118,0-0.214-0.096-0.214-0.214v-7.942c0-0.118,0.096-0.214,0.214-0.214
	s0.214,0.096,0.214,0.214v7.942C145.749,258.331,145.653,258.427,145.535,258.427z"/>
<path fill="#FFFFFF" d="M141.533,264.082h-0.003c-0.118-0.002-0.213-0.099-0.211-0.217l0.104-8.071
	c0.001-0.117,0.097-0.211,0.214-0.211h0.003c0.118,0.002,0.213,0.099,0.211,0.217l-0.104,8.071
	C141.746,263.988,141.65,264.082,141.533,264.082z"/>
<path fill="#FFFFFF" d="M145.535,274.348c-0.118,0-0.214-0.096-0.214-0.214v-7.942c0-0.118,0.096-0.214,0.214-0.214
	s0.214,0.096,0.214,0.214v7.942C145.749,274.251,145.653,274.348,145.535,274.348z"/>
<path fill="#FFFFFF" d="M154.16,208.737c-0.001,0-0.002,0-0.003,0c-0.118-0.001-0.213-0.099-0.211-0.217l0.104-8.281
	c0.001-0.119,0.086-0.221,0.217-0.212c0.118,0.001,0.213,0.099,0.211,0.217l-0.104,8.281
	C154.373,208.643,154.277,208.737,154.16,208.737z"/>
<path fill="#FFFFFF" d="M158.158,218.949c-0.118,0-0.214-0.096-0.214-0.214v-8.151c0-0.118,0.096-0.214,0.214-0.214
	s0.214,0.096,0.214,0.214v8.151C158.372,218.853,158.276,218.949,158.158,218.949z"/>
<path fill="#FFFFFF" d="M154.16,224.581c-0.001,0-0.002,0-0.003,0c-0.118-0.002-0.213-0.099-0.211-0.217l0.104-8.068
	c0.001-0.119,0.086-0.207,0.217-0.211c0.118,0.002,0.213,0.099,0.211,0.217l-0.104,8.068
	C154.373,224.487,154.277,224.581,154.16,224.581z"/>
<path fill="#FFFFFF" d="M158.158,234.534c-0.118,0-0.214-0.096-0.214-0.214v-7.942c0-0.118,0.096-0.214,0.214-0.214
	s0.214,0.096,0.214,0.214v7.942C158.372,234.438,158.276,234.534,158.158,234.534z"/>
<path fill="#FFFFFF" d="M154.16,239.804c-0.001,0-0.002,0-0.003,0c-0.118-0.002-0.213-0.099-0.211-0.217l0.104-7.519
	c0.001-0.118,0.086-0.205,0.217-0.211c0.118,0.002,0.213,0.099,0.211,0.217l-0.104,7.519
	C154.373,239.709,154.277,239.804,154.16,239.804z"/>
<path fill="#FFFFFF" d="M158.166,249.742c-0.118,0-0.214-0.096-0.214-0.214v-7.505c0-0.118,0.096-0.214,0.214-0.214
	s0.214,0.096,0.214,0.214v7.505C158.38,249.646,158.284,249.742,158.166,249.742z"/>
<path fill="#FFFFFF" d="M154.16,255.366c-0.001,0-0.002,0-0.003,0c-0.118-0.002-0.213-0.099-0.211-0.217l0.104-7.777
	c0.001-0.118,0.086-0.206,0.217-0.211c0.118,0.002,0.213,0.099,0.211,0.217l-0.104,7.777
	C154.373,255.272,154.277,255.366,154.16,255.366z"/>
<path fill="#FFFFFF" d="M158.158,265.635c-0.118,0-0.214-0.096-0.214-0.214v-7.942c0-0.118,0.096-0.214,0.214-0.214
	s0.214,0.096,0.214,0.214v7.942C158.372,265.539,158.276,265.635,158.158,265.635z"/>
<path fill="#FFFFFF" d="M154.16,271.287c-0.001,0-0.002,0-0.003,0c-0.118-0.002-0.213-0.099-0.211-0.217l0.104-8.07
	c0.001-0.118,0.086-0.236,0.217-0.211c0.118,0.002,0.213,0.099,0.211,0.217l-0.104,8.07
	C154.373,271.193,154.277,271.287,154.16,271.287z"/>
<path fill="#FFFFFF" d="M158.158,281.554c-0.118,0-0.214-0.096-0.214-0.214v-7.942c0-0.118,0.096-0.214,0.214-0.214
	s0.214,0.096,0.214,0.214v7.942C158.372,281.458,158.276,281.554,158.158,281.554z"/>
<path fill="#FFFFFF" d="M166.564,215.909c-0.001,0-0.002,0-0.003,0c-0.118-0.001-0.213-0.099-0.211-0.217l0.102-8.282
	c0.001-0.118,0.097-0.212,0.214-0.212h0.003c0.118,0.001,0.213,0.099,0.211,0.217l-0.102,8.282
	C166.777,215.815,166.682,215.909,166.564,215.909z"/>
<path fill="#FFFFFF" d="M170.564,226.122c-0.118,0-0.214-0.096-0.214-0.214v-8.152c0-0.118,0.096-0.214,0.214-0.214
	s0.214,0.096,0.214,0.214v8.152C170.778,226.026,170.683,226.122,170.564,226.122z"/>
<path fill="#FFFFFF" d="M166.564,231.755c-0.001,0-0.002,0-0.003,0c-0.118-0.001-0.213-0.099-0.211-0.217l0.102-8.071
	c0.001-0.119,0.091-0.229,0.217-0.211c0.118,0.001,0.213,0.099,0.211,0.217l-0.102,8.071
	C166.777,231.661,166.682,231.755,166.564,231.755z"/>
<path fill="#FFFFFF" d="M170.564,241.705c-0.118,0-0.214-0.096-0.214-0.214v-7.94c0-0.118,0.096-0.214,0.214-0.214
	s0.214,0.096,0.214,0.214v7.94C170.778,241.609,170.683,241.705,170.564,241.705z"/>
<path fill="#FFFFFF" d="M166.564,246.979c-0.001,0-0.002,0-0.003,0c-0.118-0.002-0.213-0.099-0.211-0.217l0.102-7.522
	c0.001-0.119,0.091-0.227,0.217-0.211c0.118,0.002,0.213,0.099,0.211,0.217l-0.102,7.522
	C166.777,246.884,166.682,246.979,166.564,246.979z"/>
<path fill="#FFFFFF" d="M170.572,256.914c-0.118,0-0.214-0.096-0.214-0.214v-7.506c0-0.118,0.096-0.214,0.214-0.214
	s0.214,0.096,0.214,0.214v7.506C170.786,256.818,170.69,256.914,170.572,256.914z"/>
<path fill="#FFFFFF" d="M166.564,262.538c-0.001,0-0.002,0-0.003,0c-0.118-0.002-0.213-0.099-0.211-0.217l0.102-7.776
	c0.001-0.118,0.091-0.23,0.217-0.211c0.118,0.002,0.213,0.099,0.211,0.217l-0.102,7.776
	C166.777,262.444,166.682,262.538,166.564,262.538z"/>
<path fill="#FFFFFF" d="M170.564,272.806c-0.118,0-0.214-0.096-0.214-0.214v-7.941c0-0.118,0.096-0.214,0.214-0.214
	s0.214,0.096,0.214,0.214v7.941C170.778,272.709,170.683,272.806,170.564,272.806z"/>
<path fill="#FFFFFF" d="M166.564,278.459c-0.001,0-0.002,0-0.003,0c-0.118-0.001-0.213-0.099-0.211-0.217l0.102-8.069
	c0.001-0.117,0.097-0.211,0.214-0.211h0.003c0.118,0.001,0.213,0.099,0.211,0.217l-0.102,8.069
	C166.777,278.365,166.682,278.459,166.564,278.459z"/>
<path fill="#FFFFFF" d="M170.564,288.727c-0.118,0-0.214-0.096-0.214-0.214v-7.944c0-0.118,0.096-0.214,0.214-0.214
	s0.214,0.096,0.214,0.214v7.944C170.778,288.63,170.683,288.727,170.564,288.727z"/>
<path fill="#FFFFFF" d="M178.998,223.1c-0.001,0-0.002,0-0.003,0c-0.118-0.001-0.213-0.099-0.211-0.217l0.104-8.281
	c0.001-0.118,0.097-0.212,0.214-0.212c0.001,0,0.002,0,0.003,0c0.118,0.001,0.213,0.099,0.211,0.217l-0.104,8.281
	C179.211,223.005,179.115,223.1,178.998,223.1z"/>
<path fill="#FFFFFF" d="M182.998,233.312c-0.118,0-0.214-0.096-0.214-0.214v-8.151c0-0.118,0.096-0.214,0.214-0.214
	s0.214,0.096,0.214,0.214v8.151C183.212,233.216,183.116,233.312,182.998,233.312z"/>
<path fill="#FFFFFF" d="M178.998,238.944c-0.001,0-0.002,0-0.003,0c-0.118-0.002-0.213-0.099-0.211-0.217l0.104-8.071
	c0.001-0.117,0.097-0.211,0.214-0.211c0.001,0,0.002,0,0.003,0c0.118,0.002,0.213,0.099,0.211,0.217l-0.104,8.071
	C179.211,238.85,179.115,238.944,178.998,238.944z"/>
<path fill="#FFFFFF" d="M182.998,248.898c-0.118,0-0.214-0.096-0.214-0.214v-7.942c0-0.118,0.096-0.214,0.214-0.214
	s0.214,0.096,0.214,0.214v7.942C183.212,248.802,183.116,248.898,182.998,248.898z"/>
<path fill="#FFFFFF" d="M178.998,254.168c-0.001,0-0.002,0-0.003,0c-0.118-0.002-0.213-0.099-0.211-0.217l0.104-7.521
	c0.001-0.117,0.097-0.211,0.214-0.211c0.001,0,0.002,0,0.003,0c0.118,0.002,0.213,0.099,0.211,0.217l-0.104,7.521
	C179.211,254.074,179.115,254.168,178.998,254.168z"/>
<path fill="#FFFFFF" d="M183.004,264.104c-0.118,0-0.214-0.096-0.214-0.214v-7.505c0-0.118,0.096-0.214,0.214-0.214
	s0.214,0.096,0.214,0.214v7.505C183.218,264.008,183.122,264.104,183.004,264.104z"/>
<path fill="#FFFFFF" d="M178.998,269.729c-0.001,0-0.002,0-0.003,0c-0.118-0.002-0.213-0.099-0.211-0.217l0.104-7.776
	c0.001-0.117,0.097-0.211,0.214-0.211c0.001,0,0.002,0,0.003,0c0.118,0.002,0.213,0.099,0.211,0.217l-0.104,7.776
	C179.211,269.635,179.115,269.729,178.998,269.729z"/>
<path fill="#FFFFFF" d="M182.998,279.996c-0.118,0-0.214-0.096-0.214-0.214v-7.942c0-0.118,0.096-0.214,0.214-0.214
	s0.214,0.096,0.214,0.214v7.942C183.212,279.9,183.116,279.996,182.998,279.996z"/>
<path fill="#FFFFFF" d="M178.998,285.649c-0.001,0-0.002,0-0.003,0c-0.118-0.002-0.213-0.099-0.211-0.217l0.104-8.069
	c0.001-0.117,0.097-0.211,0.214-0.211c0.001,0,0.002,0,0.003,0c0.118,0.002,0.213,0.099,0.211,0.217l-0.104,8.069
	C179.211,285.555,179.115,285.649,178.998,285.649z"/>
<path fill="#FFFFFF" d="M182.998,295.917c-0.118,0-0.214-0.096-0.214-0.214v-7.941c0-0.118,0.096-0.214,0.214-0.214
	s0.214,0.096,0.214,0.214v7.941C183.212,295.821,183.116,295.917,182.998,295.917z"/>
<path fill="#FFFFFF" d="M191.492,230.271c-0.001,0-0.002,0-0.003,0c-0.118-0.001-0.213-0.099-0.211-0.217l0.104-8.282
	c0.001-0.118,0.097-0.212,0.214-0.212c0.001,0,0.002,0,0.003,0c0.118,0.001,0.213,0.099,0.211,0.217l-0.104,8.282
	C191.705,230.177,191.609,230.271,191.492,230.271z"/>
<path fill="#FFFFFF" d="M195.49,240.483c-0.118,0-0.214-0.096-0.214-0.214v-8.151c0-0.118,0.096-0.214,0.214-0.214
	s0.214,0.096,0.214,0.214v8.151C195.704,240.387,195.608,240.483,195.49,240.483z"/>
<path fill="#FFFFFF" d="M191.492,246.115c-0.001,0-0.002,0-0.003,0c-0.118-0.002-0.213-0.099-0.211-0.217l0.104-8.067
	c0.001-0.118,0.094-0.236,0.217-0.211c0.118,0.002,0.213,0.099,0.211,0.217l-0.104,8.067
	C191.705,246.021,191.609,246.115,191.492,246.115z"/>
<path fill="#FFFFFF" d="M195.49,256.068c-0.118,0-0.214-0.096-0.214-0.214v-7.942c0-0.118,0.096-0.214,0.214-0.214
	s0.214,0.096,0.214,0.214v7.942C195.704,255.972,195.608,256.068,195.49,256.068z"/>
<path fill="#FFFFFF" d="M191.492,261.341c-0.001,0-0.002,0-0.003,0c-0.118-0.002-0.213-0.099-0.211-0.217l0.104-7.522
	c0.001-0.118,0.094-0.232,0.217-0.211c0.118,0.002,0.213,0.099,0.211,0.217l-0.104,7.522
	C191.705,261.247,191.609,261.341,191.492,261.341z"/>
<path fill="#FFFFFF" d="M195.5,271.276c-0.118,0-0.214-0.096-0.214-0.214v-7.507c0-0.118,0.096-0.214,0.214-0.214
	s0.214,0.096,0.214,0.214v7.507C195.714,271.18,195.618,271.276,195.5,271.276z"/>
<path fill="#FFFFFF" d="M191.492,276.901c-0.001,0-0.002,0-0.003,0c-0.118-0.002-0.213-0.099-0.211-0.217l0.104-7.776
	c0.001-0.118,0.094-0.236,0.217-0.211c0.118,0.002,0.213,0.099,0.211,0.217l-0.104,7.776
	C191.705,276.807,191.609,276.901,191.492,276.901z"/>
<path fill="#FFFFFF" d="M195.49,287.169c-0.118,0-0.214-0.096-0.214-0.214v-7.942c0-0.118,0.096-0.214,0.214-0.214
	s0.214,0.096,0.214,0.214v7.942C195.704,287.073,195.608,287.169,195.49,287.169z"/>
<path fill="#FFFFFF" d="M191.492,292.822c-0.001,0-0.002,0-0.003,0c-0.118-0.002-0.213-0.099-0.211-0.217l0.104-8.071
	c0.001-0.118,0.094-0.206,0.217-0.211c0.118,0.002,0.213,0.099,0.211,0.217l-0.104,8.071
	C191.705,292.728,191.609,292.822,191.492,292.822z"/>
<path fill="#FFFFFF" d="M195.49,303.089c-0.118,0-0.214-0.096-0.214-0.214v-7.94c0-0.118,0.096-0.214,0.214-0.214
	s0.214,0.096,0.214,0.214v7.94C195.704,302.993,195.608,303.089,195.49,303.089z"/>
<rect x="-4.341" y="143.49" transform="matrix(0.8668 0.4987 -0.4987 0.8668 75.541 4.6635)" fill="#FFFFFF" width="66.768" height="0.428"/>
<rect x="-4.342" y="159.157" transform="matrix(0.8667 0.4988 -0.4988 0.8667 83.3603 6.7531)" fill="#FFFFFF" width="66.769" height="0.428"/>
<rect x="-4.436" y="174.516" transform="matrix(0.8643 0.503 -0.503 0.8643 91.8282 9.1036)" fill="#FFFFFF" width="66.958" height="0.428"/>
<rect x="-4.311" y="190.266" transform="matrix(0.8673 0.4978 -0.4978 0.8673 98.6602 10.8438)" fill="#FFFFFF" width="66.603" height="0.428"/>
<rect x="-4.157" y="135.7" transform="matrix(0.8653 0.5013 -0.5013 0.8653 72.0466 3.7222)" fill="#FFFFFF" width="66.509" height="0.429"/>
<rect x="-4.157" y="151.551" transform="matrix(0.8653 0.5013 -0.5013 0.8653 79.9938 5.8579)" fill="#FFFFFF" width="66.51" height="0.429"/>
<rect x="-4.157" y="166.894" transform="matrix(0.8653 0.5013 -0.5013 0.8653 87.6823 7.9239)" fill="#FFFFFF" width="66.509" height="0.429"/>
<rect x="-4.158" y="182.601" transform="matrix(0.8653 0.5013 -0.5013 0.8653 95.5598 10.0412)" fill="#FFFFFF" width="66.51" height="0.429"/>
<rect x="-4.157" y="198.479" transform="matrix(0.8653 0.5013 -0.5013 0.8653 103.5169 12.1793)" fill="#FFFFFF" width="66.51" height="0.429"/>
<path fill="#FFFFFF" d="M8.639,124.353c-0.001,0-0.002,0-0.002,0c-0.119-0.001-0.214-0.099-0.212-0.217l0.104-8.281
	c0.001-0.118,0.097-0.212,0.214-0.212h0.003c0.118,0.001,0.213,0.099,0.211,0.217l-0.104,8.281
	C8.852,124.258,8.756,124.353,8.639,124.353z"/>
<path fill="#FFFFFF" d="M12.639,134.565c-0.118,0-0.214-0.096-0.214-0.214v-8.15c0-0.118,0.096-0.214,0.214-0.214
	s0.214,0.096,0.214,0.214v8.15C12.853,134.469,12.757,134.565,12.639,134.565z"/>
<path fill="#FFFFFF" d="M8.639,140.198c-0.001,0-0.002,0-0.002,0c-0.119-0.002-0.214-0.099-0.212-0.217l0.104-8.071
	c0.001-0.117,0.097-0.211,0.214-0.211h0.003c0.118,0.002,0.213,0.099,0.211,0.217l-0.104,8.071
	C8.852,140.104,8.756,140.198,8.639,140.198z"/>
<path fill="#FFFFFF" d="M12.639,150.149c-0.118,0-0.214-0.096-0.214-0.214v-7.941c0-0.118,0.096-0.214,0.214-0.214
	s0.214,0.096,0.214,0.214v7.941C12.853,150.053,12.757,150.149,12.639,150.149z"/>
<path fill="#FFFFFF" d="M8.639,155.422c-0.001,0-0.002,0-0.002,0c-0.119-0.002-0.214-0.099-0.212-0.217l0.104-7.521
	c0.001-0.117,0.097-0.211,0.214-0.211h0.003c0.118,0.002,0.213,0.099,0.211,0.217l-0.104,7.521
	C8.852,155.328,8.756,155.422,8.639,155.422z"/>
<path fill="#FFFFFF" d="M12.646,165.358c-0.118,0-0.214-0.096-0.214-0.214v-7.507c0-0.118,0.096-0.214,0.214-0.214
	s0.214,0.096,0.214,0.214v7.507C12.86,165.262,12.765,165.358,12.646,165.358z"/>
<path fill="#FFFFFF" d="M8.639,170.982c-0.001,0-0.002,0-0.002,0c-0.119-0.002-0.214-0.099-0.212-0.217l0.104-7.777
	c0.001-0.117,0.097-0.211,0.214-0.211h0.003c0.118,0.002,0.213,0.099,0.211,0.217l-0.104,7.777
	C8.852,170.888,8.756,170.982,8.639,170.982z"/>
<path fill="#FFFFFF" d="M12.639,181.25c-0.118,0-0.214-0.096-0.214-0.214v-7.942c0-0.118,0.096-0.214,0.214-0.214
	s0.214,0.096,0.214,0.214v7.942C12.853,181.154,12.757,181.25,12.639,181.25z"/>
<path fill="#FFFFFF" d="M8.639,186.903c-0.001,0-0.002,0-0.002,0c-0.119-0.002-0.214-0.099-0.212-0.217l0.104-8.069
	c0.001-0.117,0.097-0.211,0.214-0.211h0.003c0.118,0.002,0.213,0.099,0.211,0.217l-0.104,8.069
	C8.852,186.809,8.756,186.903,8.639,186.903z"/>
<path fill="#FFFFFF" d="M12.639,197.172c-0.118,0-0.214-0.096-0.214-0.214v-7.942c0-0.118,0.096-0.214,0.214-0.214
	s0.214,0.096,0.214,0.214v7.942C12.853,197.076,12.757,197.172,12.639,197.172z"/>
<path fill="#FFFFFF" d="M21.072,131.545c-0.001,0-0.002,0-0.003,0c-0.118-0.001-0.213-0.099-0.211-0.217l0.104-8.282
	c0.001-0.118,0.097-0.212,0.214-0.212h0.003c0.118,0.001,0.213,0.099,0.211,0.217l-0.104,8.282
	C21.285,131.451,21.189,131.545,21.072,131.545z"/>
<path fill="#FFFFFF" d="M25.072,141.758c-0.118,0-0.214-0.096-0.214-0.214v-8.153c0-0.118,0.096-0.214,0.214-0.214
	s0.214,0.096,0.214,0.214v8.153C25.286,141.662,25.19,141.758,25.072,141.758z"/>
<path fill="#FFFFFF" d="M21.072,147.388c-0.001,0-0.002,0-0.003,0c-0.118-0.002-0.213-0.099-0.211-0.217l0.104-8.069
	c0.001-0.117,0.097-0.211,0.214-0.211h0.003c0.118,0.002,0.213,0.099,0.211,0.217l-0.104,8.069
	C21.285,147.293,21.189,147.388,21.072,147.388z"/>
<path fill="#FFFFFF" d="M25.072,157.34c-0.118,0-0.214-0.096-0.214-0.214v-7.941c0-0.118,0.096-0.214,0.214-0.214
	s0.214,0.096,0.214,0.214v7.941C25.286,157.244,25.19,157.34,25.072,157.34z"/>
<path fill="#FFFFFF" d="M21.072,162.613c-0.001,0-0.002,0-0.003,0c-0.118-0.002-0.213-0.099-0.211-0.217l0.104-7.522
	c0.001-0.117,0.097-0.211,0.214-0.211h0.003c0.118,0.002,0.213,0.099,0.211,0.217l-0.104,7.522
	C21.285,162.519,21.189,162.613,21.072,162.613z"/>
<path fill="#FFFFFF" d="M25.08,172.548c-0.118,0-0.214-0.096-0.214-0.214v-7.506c0-0.118,0.096-0.214,0.214-0.214
	s0.214,0.096,0.214,0.214v7.506C25.294,172.452,25.198,172.548,25.08,172.548z"/>
<path fill="#FFFFFF" d="M21.072,178.175c-0.001,0-0.002,0-0.003,0c-0.118-0.002-0.213-0.099-0.211-0.217l0.104-7.776
	c0.001-0.117,0.097-0.211,0.214-0.211h0.003c0.118,0.002,0.213,0.099,0.211,0.217l-0.104,7.776
	C21.285,178.081,21.189,178.175,21.072,178.175z"/>
<path fill="#FFFFFF" d="M25.072,188.441c-0.118,0-0.214-0.096-0.214-0.214v-7.944c0-0.118,0.096-0.214,0.214-0.214
	s0.214,0.096,0.214,0.214v7.944C25.286,188.345,25.19,188.441,25.072,188.441z"/>
<path fill="#FFFFFF" d="M21.072,194.095c-0.001,0-0.002,0-0.003,0c-0.118-0.002-0.213-0.099-0.211-0.217l0.104-8.071
	c0.001-0.118,0.121-0.204,0.217-0.211c0.118,0.002,0.213,0.099,0.211,0.217l-0.104,8.071C21.285,194,21.189,194.095,21.072,194.095z
	"/>
<path fill="#FFFFFF" d="M25.072,204.359c-0.118,0-0.214-0.096-0.214-0.214v-7.94c0-0.118,0.096-0.214,0.214-0.214
	s0.214,0.096,0.214,0.214v7.94C25.286,204.263,25.19,204.359,25.072,204.359z"/>
<path fill="#FFFFFF" d="M33.566,138.718c-0.001,0-0.002,0-0.003,0c-0.118-0.001-0.213-0.099-0.211-0.217l0.104-8.284
	c0.001-0.118,0.097-0.212,0.214-0.212h0.003c0.118,0.001,0.213,0.099,0.211,0.217l-0.104,8.284
	C33.779,138.624,33.684,138.718,33.566,138.718z"/>
<path fill="#FFFFFF" d="M37.566,148.928c-0.118,0-0.214-0.096-0.214-0.214v-8.15c0-0.118,0.096-0.214,0.214-0.214
	s0.214,0.096,0.214,0.214v8.15C37.78,148.832,37.685,148.928,37.566,148.928z"/>
<path fill="#FFFFFF" d="M33.566,154.561c-0.001,0-0.002,0-0.003,0c-0.118-0.002-0.213-0.099-0.211-0.217l0.104-8.069
	c0.001-0.117,0.097-0.211,0.214-0.211h0.003c0.118,0.002,0.213,0.099,0.211,0.217l-0.104,8.069
	C33.779,154.466,33.684,154.561,33.566,154.561z"/>
<path fill="#FFFFFF" d="M37.566,164.512c-0.118,0-0.214-0.096-0.214-0.214v-7.941c0-0.118,0.096-0.214,0.214-0.214
	s0.214,0.096,0.214,0.214v7.941C37.78,164.416,37.685,164.512,37.566,164.512z"/>
<path fill="#FFFFFF" d="M33.566,169.785c-0.001,0-0.002,0-0.003,0c-0.118-0.002-0.213-0.099-0.211-0.217l0.104-7.522
	c0.001-0.117,0.097-0.211,0.214-0.211h0.003c0.118,0.002,0.213,0.099,0.211,0.217l-0.104,7.522
	C33.779,169.691,33.684,169.785,33.566,169.785z"/>
<path fill="#FFFFFF" d="M37.572,179.723c-0.118,0-0.214-0.096-0.214-0.214v-7.507c0-0.118,0.096-0.214,0.214-0.214
	s0.214,0.096,0.214,0.214v7.507C37.786,179.626,37.69,179.723,37.572,179.723z"/>
<path fill="#FFFFFF" d="M33.566,185.344c-0.001,0-0.002,0-0.003,0c-0.118-0.002-0.213-0.099-0.211-0.217l0.104-7.774
	c0.001-0.117,0.097-0.211,0.214-0.211h0.003c0.118,0.002,0.213,0.099,0.211,0.217l-0.104,7.774
	C33.779,185.25,33.684,185.344,33.566,185.344z"/>
<path fill="#FFFFFF" d="M37.566,195.612c-0.118,0-0.214-0.096-0.214-0.214v-7.942c0-0.118,0.096-0.214,0.214-0.214
	s0.214,0.096,0.214,0.214v7.942C37.78,195.516,37.685,195.612,37.566,195.612z"/>
<path fill="#FFFFFF" d="M33.566,201.266c-0.001,0-0.002,0-0.003,0c-0.118-0.002-0.213-0.099-0.211-0.217l0.104-8.071
	c0.001-0.117,0.097-0.211,0.214-0.211h0.003c0.118,0.002,0.213,0.099,0.211,0.217l-0.104,8.071
	C33.779,201.171,33.684,201.266,33.566,201.266z"/>
<path fill="#FFFFFF" d="M37.566,211.533c-0.118,0-0.214-0.096-0.214-0.214v-7.944c0-0.118,0.096-0.214,0.214-0.214
	s0.214,0.096,0.214,0.214v7.944C37.78,211.437,37.685,211.533,37.566,211.533z"/>
<path fill="#FFFFFF" d="M45.797,145.907h-0.003c-0.118-0.001-0.213-0.099-0.211-0.217l0.104-8.282
	c0.001-0.118,0.097-0.212,0.214-0.212h0.003c0.118,0.001,0.213,0.099,0.211,0.217l-0.104,8.282
	C46.01,145.813,45.914,145.907,45.797,145.907z"/>
<path fill="#FFFFFF" d="M49.801,156.12c-0.118,0-0.214-0.096-0.214-0.214v-8.152c0-0.118,0.096-0.214,0.214-0.214
	s0.214,0.096,0.214,0.214v8.152C50.015,156.024,49.919,156.12,49.801,156.12z"/>
<path fill="#FFFFFF" d="M45.797,161.753h-0.003c-0.118-0.002-0.213-0.099-0.211-0.217l0.104-8.073
	c0.001-0.118,0.093-0.237,0.217-0.211c0.118,0.002,0.213,0.099,0.211,0.217l-0.104,8.073
	C46.01,161.659,45.914,161.753,45.797,161.753z"/>
<path fill="#FFFFFF" d="M49.801,171.703c-0.118,0-0.214-0.096-0.214-0.214v-7.942c0-0.118,0.096-0.214,0.214-0.214
	s0.214,0.096,0.214,0.214v7.942C50.015,171.607,49.919,171.703,49.801,171.703z"/>
<path fill="#FFFFFF" d="M45.797,176.977h-0.003c-0.118-0.002-0.213-0.099-0.211-0.217l0.104-7.523
	c0.001-0.118,0.093-0.236,0.217-0.211c0.118,0.002,0.213,0.099,0.211,0.217l-0.104,7.523
	C46.01,176.882,45.914,176.977,45.797,176.977z"/>
<path fill="#FFFFFF" d="M49.807,186.912c-0.118,0-0.214-0.096-0.214-0.214v-7.506c0-0.118,0.096-0.214,0.214-0.214
	s0.214,0.096,0.214,0.214v7.506C50.021,186.816,49.925,186.912,49.807,186.912z"/>
<path fill="#FFFFFF" d="M45.797,192.535h-0.003c-0.118-0.002-0.213-0.099-0.211-0.217l0.104-7.775
	c0.001-0.117,0.097-0.211,0.214-0.211h0.003c0.118,0.002,0.213,0.099,0.211,0.217l-0.104,7.775
	C46.01,192.441,45.914,192.535,45.797,192.535z"/>
<path fill="#FFFFFF" d="M49.801,202.802c-0.118,0-0.214-0.096-0.214-0.214v-7.94c0-0.118,0.096-0.214,0.214-0.214
	s0.214,0.096,0.214,0.214v7.94C50.015,202.706,49.919,202.802,49.801,202.802z"/>
<path fill="#FFFFFF" d="M45.797,208.459h-0.003c-0.118-0.002-0.213-0.099-0.211-0.217l0.104-8.073
	c0.001-0.119,0.093-0.209,0.217-0.211c0.118,0.002,0.213,0.099,0.211,0.217l-0.104,8.073
	C46.01,208.365,45.914,208.459,45.797,208.459z"/>
<path fill="#FFFFFF" d="M49.801,218.723c-0.118,0-0.214-0.096-0.214-0.214v-7.942c0-0.118,0.096-0.214,0.214-0.214
	s0.214,0.096,0.214,0.214v7.942C50.015,218.626,49.919,218.723,49.801,218.723z"/>
<polygon fill="#BCB59B" points="86.354,239.125 86.844,192.164 89.291,193.618 88.799,240.539 "/>
<polygon fill="#E9E3C8" points="113.418,254.776 88.799,237.751 89.291,193.618 113.951,208.278 "/>
<polygon fill="#CCC5AA" points="10.146,179.736 10.148,148.478 12.467,149.824 12.465,179.736 77.678,217.387 77.68,218.726 "/>
<polygon fill="#FFFBE1" points="12.467,149.824 77.576,187.638 77.678,217.387 12.465,179.736 "/>
<polygon fill="#CCC5AA" points="124.4,245.814 124.402,214.557 126.719,215.904 126.717,245.814 191.93,283.464 191.936,284.804 "/>
<polygon fill="#FFFBE1" points="126.719,215.904 191.83,253.716 191.93,283.464 126.717,245.814 "/>
<polygon fill="#ABA48B" points="86.354,239.125 88.799,237.751 113.434,252.093 113.418,254.776 "/>
<polygon fill="#F5F0D4" points="113.434,248.774 91.836,236.131 92.088,198.505 113.918,211.171 "/>
<polygon fill="#FFFFFF" points="113.682,229.57 111.713,228.74 111.713,232.992 113.623,234.012 "/>
<polygon fill="#D9ECD5" points="105.822,222.303 99.225,219.297 98.635,223.411 104.643,225.536 "/>
<polygon fill="#241C1D" points="105.621,222.376 103.591,216.808 99.339,219.479 99.11,219.116 103.812,216.164 106.023,222.23 "/>
<polygon fill="#958581" points="162.043,204.9 175.629,197.27 53.799,127.434 41.504,135.096 "/>
<polygon fill="#DF443E" points="175.629,166.199 162.043,173.83 162.043,204.9 175.629,197.27 "/>
<polygon fill="#DF443E" points="189.074,243.757 191.93,242.508 124.4,203.441 121.543,204.688 "/>
<polygon fill="#E9504B" points="188.973,254.963 189.074,243.757 121.543,204.688 121.545,215.805 "/>
<polygon fill="#DF443E" points="188.973,254.963 191.83,253.716 191.93,242.508 189.074,243.757 "/>
<polygon fill="#DF443E" points="74.826,177.546 77.68,176.298 10.15,137.232 7.295,138.478 "/>
<polygon fill="#E9504B" points="74.727,188.753 74.826,177.546 7.295,138.478 7.297,149.594 "/>
<polygon fill="#DF443E" points="74.727,188.753 77.582,187.506 77.68,176.298 74.826,177.546 "/>
<polygon fill="#CCC5AA" points="273.148,144.816 270.354,143.137 296.801,127.945 323.783,143.137 320.934,144.816 296.801,131.225 
	"/>
<polygon fill="#FFFBE1" points="273.148,144.816 296.801,131.225 320.934,144.816 296.801,158.989 "/>
<polygon fill="#B4B4B3" points="256.225,103.752 242.727,111.767 215.906,96.157 229.369,88.381 "/>
<polygon fill="#B4B4B3" points="256.225,90.795 242.727,98.808 215.906,83.2 229.369,75.424 "/>
<polygon fill="#DCDCDC" points="256.225,103.752 256.225,90.795 242.727,98.808 242.727,111.767 "/>
<polygon fill="#91928F" points="215.906,83.2 215.906,96.157 242.727,111.767 242.727,98.808 "/>
<path fill="#737373" d="M242.727,88.499c-3.287,0-6.008,1.363-6.527,3.148c-0.059-0.199-0.096-0.404-0.096-0.617
	c0-2.081,2.965-3.77,6.623-3.77c3.656,0,6.623,1.688,6.623,3.77c0,0.213-0.039,0.418-0.096,0.617
	C248.734,89.862,246.014,88.499,242.727,88.499z"/>
<path fill="#474747" d="M242.727,94.801c-3.287,0-6.008-1.365-6.527-3.154c0.52-1.785,3.24-3.148,6.527-3.148
	s6.008,1.363,6.527,3.148C248.734,93.436,246.014,94.801,242.727,94.801z"/>
<path fill="#737373" d="M229.369,80.666c-3.285,0-6.004,1.363-6.525,3.151c-0.057-0.202-0.096-0.406-0.096-0.617
	c0-2.083,2.965-3.771,6.621-3.771c3.66,0,6.625,1.688,6.625,3.771c0,0.211-0.039,0.415-0.098,0.617
	C235.377,82.029,232.658,80.666,229.369,80.666z"/>
<path fill="#474747" d="M229.369,86.967c-3.285,0-6.004-1.363-6.525-3.15c0.521-1.788,3.24-3.151,6.525-3.151
	c3.289,0,6.008,1.363,6.527,3.151C235.377,85.604,232.658,86.967,229.369,86.967z"/>
<rect x="216.999" y="93.531" transform="matrix(0.8645 0.5026 -0.5026 0.8645 78.3766 -101.9644)" fill="#474747" width="22.62" height="1.714"/>
<rect x="216.999" y="97.952" transform="matrix(0.8645 0.5026 -0.5026 0.8645 80.5987 -101.3654)" fill="#474747" width="22.62" height="1.714"/>
<path fill="#474747" d="M253.871,110.721c-0.036,0-0.072-0.001-0.108-0.003c-0.944-0.059-1.662-0.873-1.604-1.817
	c0.137-2.189-0.406-3.106-0.781-3.169c0.071,0.012,0.116,0.004,0.116,0.004l-0.059-3.426c0.266-0.013,1.539,0.035,2.66,1.208
	c1.142,1.194,1.641,3.078,1.483,5.598C255.522,110.022,254.769,110.721,253.871,110.721z"/>
<path fill="#474747" d="M250.762,112.088c-0.036,0-0.072-0.001-0.108-0.003c-0.944-0.059-1.662-0.873-1.604-1.817
	c0.153-2.452-0.528-3.124-0.779-3.167c0.074,0.012,0.117,0.004,0.117,0.004l-0.064-3.426c0.265-0.017,1.541,0.033,2.662,1.205
	c1.143,1.193,1.642,3.077,1.484,5.598C252.413,111.389,251.659,112.088,250.762,112.088z"/>
<ellipse transform="matrix(-0.7071 0.7071 -0.7071 -0.7071 687.1063 -14.6058)" fill="#898988" cx="346.578" cy="135.001" rx="2.505" ry="1.38"/>
<polygon fill="#898988" points="348.35,133.23 346.051,128.392 339.258,135.184 344.807,136.773 "/>
<ellipse transform="matrix(-0.7072 0.7071 -0.7071 -0.7072 678.1464 -17.2928)" fill="#5E5C56" cx="342.654" cy="131.788" rx="4.803" ry="2.649"/>
<ellipse transform="matrix(-0.7071 0.7071 -0.7071 -0.7071 678.1321 -17.3163)" fill="#F8C100" cx="342.652" cy="131.788" rx="3.87" ry="2.134"/>
<path fill="#898988" d="M164.092,33.819c0.008,0.786-1.107,0.492-2.494,0.506c-1.381,0.013-2.51,0.328-2.516-0.457
	c-0.008-0.787,1.109-1.434,2.492-1.449C162.957,32.406,164.084,33.031,164.092,33.819z"/>
<polygon fill="#898988" points="159.082,33.868 157.24,28.682 166.846,28.588 164.092,33.819 "/>
<path fill="#5E5C56" d="M166.846,29.449c0.014,1.509-2.148,2.16-4.801,2.184c-2.652,0.024-4.791-0.585-4.805-2.09
	c-0.014-1.508,1.93-3.415,4.58-3.44C164.475,26.078,166.832,27.943,166.846,29.449z"/>
<path fill="#F8C100" d="M165.912,29.458c0.01,1.215-1.736,1.624-3.873,1.642c-2.137,0.023-3.855-0.352-3.867-1.567
	c-0.01-1.215,1.518-2.88,3.654-2.899C163.963,26.613,165.9,28.245,165.912,29.458z"/>
<path fill="#898988" d="M204.541,218.768c0.006,0.788-1.107,0.493-2.492,0.507c-1.383,0.014-2.512,0.328-2.518-0.458
	c-0.006-0.787,1.107-1.435,2.492-1.447C203.406,217.356,204.533,217.982,204.541,218.768z"/>
<polygon fill="#898988" points="199.531,218.817 197.688,213.633 207.295,213.542 204.541,218.768 "/>
<path fill="#96968C" d="M207.295,214.399c0.016,1.51-2.148,2.159-4.801,2.183c-2.652,0.024-4.791-0.582-4.807-2.088
	c-0.012-1.51,1.932-3.417,4.582-3.44C204.924,211.027,207.281,212.894,207.295,214.399z"/>
<path fill="#999999" d="M206.361,214.41c0.012,1.215-1.734,1.621-3.873,1.642c-2.137,0.021-3.855-0.354-3.867-1.568
	c-0.01-1.214,1.518-2.879,3.654-2.901C204.414,211.562,206.35,213.193,206.361,214.41z"/>
<g enable-background="new    ">
	<defs>
		<polygon id="SVGID_2_" enable-background="new    " points="295.635,139.067 225.133,87.197 99.738,102.594 170.24,154.462 		"/>
	</defs>
	<clipPath id="SVGID_4_">
		<use xlink:href="#SVGID_2_"  overflow="visible"/>
	</clipPath>
	<g clip-path="url(#SVGID_4_)">
		<g>
			<path fill="#2D2221" d="M143.398,97.234c1.639-0.2,3.152-0.252,4.082-0.145c0.588,0.026,1.039,0.093,1.291,0.206
				c0.439,0.016,0.91,0.042,1.42,0.085c3.738,0.243,9.492,1.324,11.762,2.101c3.561,1.215,6.018,4.601,8.355,6.087
				c0.609,0.385,1.412,0.92,2.314,1.485l4.998,2.62c3.242,1.123,10.078,2.29,16.111,3.431c1.729-1.104,3.162-2.157,3.562-3.005
				l-0.77-3.356c-0.23-0.473-0.455-0.902-0.611-1.231c-0.76-1.618-4.926-4.862-4.15-6.434c0.561-1.128,4.174-3.26,7.154-3.8
				c-0.066-0.241,0.682-0.459,1.908-0.608c0.041-0.006,0.082-0.009,0.123-0.016c0.242-0.045,0.514-0.085,0.814-0.122
				c0.15-0.017,0.307-0.037,0.471-0.054c0.303-0.07,0.686-0.138,1.139-0.194c0.057-0.005,0.117-0.013,0.176-0.02
				c0.234-0.045,0.506-0.086,0.805-0.121c1.01-0.123,2.354-0.203,3.846-0.207c3.307-0.013,6.088,0.335,6.223,0.771
				c3.299,0.521,8.182,2.622,9.418,3.746c1.477,1.34,0.062,3.925-0.238,5.656c1.451,0.181,3.064,0.464,4.613,0.785
				c2.596,0.511,5.096,1.156,6.352,1.655c3.264,1.303,4.855,4.718,6.822,6.256c0.506,0.397,1.172,0.948,1.936,1.536l4.342,2.729
				c4.793,1.94,18.979,4.258,23.994,6.137c3.342,1.252,8.4,4.186,10.191,5.719c2.076,1.788,4.498,7.41,4.498,7.41
				c1.176,0.798-0.312,1.857-3.615,2.895c-2.633,1.104-7.561,2.256-13.762,3.101c-0.533,0.072-1.068,0.14-1.598,0.206
				c-8.574,1.053-16.707,1.156-20.26,0.315c-1.027-0.177-1.791-0.411-2.223-0.704c0,0-6.668-2.352-11.355-4.248
				c-1.527,4.799-10.561,9.001-25.018,10.776c-1.43,0.174-2.869,0.321-4.332,0.44c-20.828,1.718-44.086-2.115-53.555-9.08
				c-7.516-5.53-4.213-11.478,6.92-15.276c-0.562-0.461-1.018-0.888-1.293-1.241c-1.877-2.363,0.627-7.246-1.551-9.594l-5.145-3.04
				c-0.822-0.406-1.592-0.777-2.166-1.063c-2.816-1.404-10.727-3.847-12.156-5.433c-1.029-1.142-0.766-3.661,1.082-4.6
				c-0.49-0.273,0.213-0.705,1.643-1.106c0.354-0.387,1.832-0.868,3.922-1.226C142.395,97.371,142.902,97.295,143.398,97.234"/>
		</g>
	</g>
</g>
<polygon fill="#FFFBE1" points="41.504,104.022 41.504,135.096 162.043,204.9 162.043,173.83 "/>
<path fill="#241C1D" d="M148.074,116.154c0.564,4.785,10.689,7.527,22.613,6.118c11.922-1.407,21.127-6.426,20.562-11.215
	c-0.562-4.787-10.689-7.53-22.611-6.122C156.717,106.342,147.508,111.367,148.074,116.154z"/>
<ellipse transform="matrix(-0.9931 0.1174 -0.1174 -0.9931 312.3008 -13.3965)" fill="#ABA48B" cx="156.545" cy="2.499" rx="6.01" ry="2.414"/>
<path fill="#241C1D" d="M191.25,111.057c0,0,3.529-16.761,3.381-22.427c-0.129-4.856-1.975-14.58-3.906-19.036
	c-2.908-6.694-14.254-17.01-16.873-23.821c-1.252-3.257-1.424-10.374-1.635-13.856c-0.299-4.919,1.723-15.122-0.082-19.704
	c-1.297-3.3-6.295-9.19-9.621-10.419c-2.818-1.04-9.439-0.259-11.938,1.411c-2.949,1.969-6.438,8.862-6.932,12.371
	c-0.686,4.879,3.654,14.332,4.512,19.18c0.604,3.436,2.096,10.398,1.637,13.857c-0.961,7.234-9.596,19.907-10.861,27.097
	c-0.842,4.784-0.371,14.67,0.635,19.422c1.174,5.548,8.508,21.022,8.508,21.022L191.25,111.057z"/>
<path fill="#241C1D" d="M145.508,117.624c0.564,4.791,10.688,7.53,22.609,6.123c11.924-1.409,21.133-6.43,20.566-11.219
	c-0.566-4.786-10.689-7.529-22.611-6.12C154.148,107.815,144.941,112.838,145.508,117.624z"/>
<ellipse transform="matrix(-0.9931 0.1174 -0.1174 -0.9931 307.3539 -10.1693)" fill="#ABA48B" cx="153.977" cy="3.97" rx="6.012" ry="2.413"/>
<path fill="#CCC5AA" d="M188.684,112.528c0,0,3.525-16.758,3.377-22.427c-0.125-4.855-1.973-14.579-3.904-19.035
	c-2.904-6.695-14.254-17.009-16.873-23.822c-1.25-3.255-1.422-10.375-1.635-13.854c-0.301-4.917,1.723-15.122-0.082-19.705
	c-1.295-3.301-6.295-9.187-9.619-10.42c-2.82-1.039-9.439-0.258-11.941,1.412c-2.947,1.968-6.436,8.861-6.93,12.37
	c-0.686,4.878,3.656,14.33,4.512,19.182c0.604,3.437,2.094,10.398,1.635,13.857c-0.959,7.234-9.592,19.908-10.857,27.095
	c-0.842,4.784-0.373,14.668,0.635,19.425c1.174,5.546,8.508,21.019,8.508,21.019L188.684,112.528z"/>
<path fill="#241C1D" d="M147.223,50.085c0,0,7.521,2.615,15.143,1.715s11.486-6.027,11.486-6.027l-1.365-8.956
	c0,0-3.379,4.652-11.232,5.564c-7.852,0.917-14.99-2.469-14.99-2.469L147.223,50.085z"/>
<path fill="#D2D1C7" d="M148.568,116.474c0.564,4.788,10.688,7.526,22.609,6.117c11.926-1.408,21.133-6.428,20.564-11.215
	c-0.562-4.79-10.688-7.528-22.609-6.122C157.211,106.662,148.004,111.687,148.568,116.474z"/>
<ellipse transform="matrix(-0.9931 0.1172 -0.1172 -0.9931 313.3241 -12.7877)" fill="#D2D1C7" cx="157.038" cy="2.819" rx="6.011" ry="2.412"/>
<path fill="#D2D1C7" d="M191.742,111.376c0,0,3.529-16.758,3.383-22.427c-0.131-4.856-1.975-14.581-3.908-19.036
	c-2.906-6.696-14.252-17.009-16.873-23.822c-1.25-3.256-1.422-10.371-1.635-13.854c-0.299-4.916,1.725-15.122-0.08-19.707
	c-1.299-3.298-6.297-9.189-9.621-10.415c-2.82-1.042-9.438-0.261-11.939,1.409c-2.947,1.969-6.436,8.859-6.932,12.371
	c-0.686,4.879,3.658,14.332,4.512,19.183c0.605,3.435,2.096,10.396,1.637,13.856c-0.959,7.233-9.594,19.904-10.859,27.092
	c-0.842,4.786-0.371,14.671,0.633,19.427c1.176,5.546,8.51,21.021,8.51,21.021L191.742,111.376z"/>
<path fill="#FFFFF8" d="M146.002,117.945c0.564,4.787,10.688,7.526,22.609,6.121c11.924-1.409,21.131-6.432,20.566-11.219
	c-0.566-4.788-10.691-7.53-22.613-6.122C154.643,108.136,145.436,113.157,146.002,117.945z"/>
<ellipse transform="matrix(-0.9931 0.1172 -0.1172 -0.9931 308.3775 -9.5554)" fill="#FFFFF8" cx="154.47" cy="4.29" rx="6.011" ry="2.415"/>
<path fill="#FFFFF8" d="M189.178,112.847c0,0,3.527-16.759,3.379-22.427c-0.129-4.855-1.973-14.58-3.908-19.036
	c-2.906-6.696-14.252-17.011-16.871-23.82c-1.252-3.258-1.424-10.376-1.637-13.857c-0.297-4.919,1.725-15.119-0.08-19.702
	c-1.299-3.302-6.295-9.19-9.621-10.419C157.621,2.544,151,3.325,148.5,4.995c-2.947,1.969-6.436,8.862-6.93,12.371
	c-0.688,4.88,3.658,14.332,4.51,19.182c0.607,3.438,2.094,10.399,1.639,13.855c-0.961,7.236-9.596,19.911-10.859,27.099
	c-0.844,4.784-0.371,14.668,0.635,19.42c1.172,5.548,8.508,21.023,8.508,21.023L189.178,112.847z"/>
<path fill="#A51419" d="M147.719,50.403c0,0,7.518,2.615,15.141,1.717c7.619-0.9,11.484-6.028,11.484-6.028l-1.363-8.955
	c0,0-3.379,4.652-11.232,5.565c-7.854,0.915-14.99-2.47-14.99-2.47L147.719,50.403z"/>
<path fill="#241C1D" d="M161.299,113.939c-1.588,4.552,6.318,11.445,17.652,15.397c11.338,3.948,21.814,3.461,23.4-1.093
	c1.586-4.548-6.316-11.444-17.654-15.395C173.359,108.897,162.885,109.39,161.299,113.939z"/>
<ellipse transform="matrix(-0.9443 -0.3291 0.3291 -0.9443 420.017 101.994)" fill="#CCC5AA" cx="218.642" cy="15.445" rx="6.01" ry="2.415"/>
<path fill="#CCC5AA" d="M202.352,128.244c0,0,10.504-13.522,12.85-18.686c2.01-4.422,4.605-13.974,4.816-18.826
	c0.318-7.292-5.375-21.529-4.75-28.805c0.303-3.473,3.262-9.948,4.594-13.173c1.883-4.552,8.166-12.844,8.551-17.753
	c0.275-3.536-1.643-11.02-4.096-13.578c-2.08-2.168-8.375-4.364-11.35-3.956c-3.514,0.481-9.666,5.152-11.646,8.091
	c-2.754,4.088-2.982,14.488-4.338,19.223c-0.961,3.354-2.664,10.268-4.588,13.176c-4.029,6.087-17.34,13.705-21.623,19.612
	c-2.85,3.936-6.752,13.031-7.926,17.745c-1.371,5.502-1.547,22.625-1.547,22.625L202.352,128.244z"/>
<ellipse transform="matrix(-0.9443 -0.3291 0.3291 -0.9443 319.4727 295.8636)" fill="#241C1D" cx="184.777" cy="120.893" rx="21.736" ry="8.727"/>
<path fill="#CCC5AA" d="M215.916,13.266c-0.438,1.262,1.748,3.168,4.885,4.258c3.133,1.095,6.029,0.959,6.469-0.299
	c0.438-1.26-1.746-3.166-4.881-4.261C219.254,11.875,216.355,12.008,215.916,13.266z"/>
<path fill="#241C1D" d="M205.303,128.046c0,0,10.506-13.524,12.852-18.688c2.01-4.424,4.607-13.976,4.818-18.827
	c0.316-7.292-5.375-21.53-4.75-28.802c0.303-3.477,3.26-9.952,4.592-13.174c1.885-4.552,8.164-12.844,8.549-17.754
	c0.277-3.535-1.643-11.018-4.094-13.577c-2.08-2.172-8.373-4.365-11.354-3.959c-3.51,0.482-9.662,5.153-11.643,8.095
	c-2.752,4.086-2.982,14.484-4.338,19.223c-0.959,3.352-2.664,10.265-4.59,13.175c-4.027,6.085-17.338,13.702-21.621,19.612
	c-2.85,3.933-6.752,13.028-7.928,17.743c-1.371,5.501-1.545,22.625-1.545,22.625L205.303,128.046z"/>
<path fill="#BCB59B" d="M192.395,53.957c0,0,5.617,5.643,12.863,8.167c7.248,2.524,12.965-0.394,12.965-0.394l2.691-8.649
	c0,0-5.074,2.703-12.537,0.09c-7.461-2.613-12.398-8.778-12.398-8.778L192.395,53.957z"/>
<ellipse transform="matrix(-0.9443 -0.3291 0.3291 -0.9443 321.588 296.0918)" fill="#D2D1C7" cx="185.853" cy="120.83" rx="21.739" ry="8.728"/>
<ellipse transform="matrix(-0.9443 -0.3289 0.3289 -0.9443 427.9499 102.766)" fill="#D2D1C7" cx="222.668" cy="15.183" rx="6.01" ry="2.414"/>
<path fill="#D2D1C7" d="M206.381,127.984c0,0,10.502-13.527,12.848-18.688c2.01-4.424,4.607-13.973,4.818-18.826
	c0.316-7.292-5.375-21.531-4.75-28.803c0.301-3.474,3.26-9.953,4.594-13.172c1.881-4.555,8.164-12.845,8.547-17.756
	c0.277-3.535-1.639-11.02-4.094-13.579c-2.078-2.168-8.373-4.362-11.352-3.954c-3.51,0.48-9.664,5.152-11.643,8.092
	c-2.754,4.086-2.984,14.486-4.338,19.221c-0.961,3.353-2.666,10.268-4.592,13.178c-4.025,6.085-17.336,13.703-21.619,19.609
	c-2.852,3.935-6.752,13.031-7.93,17.745c-1.369,5.501-1.547,22.625-1.547,22.625L206.381,127.984z"/>
<ellipse transform="matrix(-0.9443 -0.3291 0.3291 -0.9443 315.7864 295.5037)" fill="#FFFFF8" cx="182.899" cy="121.029" rx="21.737" ry="8.729"/>
<path fill="#FFFFF8" d="M214.043,13.406c-0.441,1.26,1.744,3.165,4.879,4.256c3.133,1.094,6.031,0.957,6.469-0.302
	c0.439-1.256-1.746-3.163-4.879-4.258C217.375,12.011,214.479,12.146,214.043,13.406z"/>
<path fill="#FFFFF8" d="M203.426,128.182c0,0,10.504-13.524,12.85-18.688c2.012-4.423,4.607-13.973,4.82-18.826
	c0.316-7.291-5.377-21.531-4.75-28.801c0.299-3.477,3.258-9.952,4.592-13.178c1.883-4.55,8.164-12.842,8.547-17.752
	c0.277-3.533-1.641-11.017-4.094-13.578c-2.078-2.17-8.371-4.361-11.348-3.954c-3.514,0.479-9.666,5.151-11.646,8.091
	c-2.756,4.086-2.984,14.485-4.338,19.221c-0.961,3.354-2.666,10.267-4.592,13.178c-4.027,6.085-17.338,13.703-21.619,19.61
	c-2.852,3.936-6.752,13.03-7.928,17.743c-1.371,5.503-1.547,22.628-1.547,22.628L203.426,128.182z"/>
<path fill="#A51419" d="M193.467,53.895c0,0,5.619,5.64,12.867,8.166c7.246,2.525,12.963-0.395,12.963-0.395l2.693-8.648
	c0,0-5.074,2.702-12.537,0.091c-7.461-2.615-12.4-8.784-12.4-8.784L193.467,53.895z"/>
<path fill="#241C1D" d="M198.887,157.666c0.156,4.818,10.014,8.404,22.01,8.011c12.002-0.395,21.602-4.616,21.443-9.435
	c-0.16-4.82-10.014-8.407-22.014-8.016C208.328,148.621,198.729,152.847,198.887,157.666z"/>
<ellipse transform="matrix(-0.9995 0.0327 -0.0327 -0.9995 435.2449 83.1602)" fill="#BCB59B" cx="216.943" cy="45.134" rx="6.011" ry="2.413"/>
<path fill="#BCB59B" d="M242.34,156.242c0,0,4.932-16.402,5.264-22.061c0.283-4.852-0.732-14.696-2.283-19.301
	c-2.326-6.917-12.762-18.153-14.795-25.162c-0.971-3.352-0.541-10.461-0.457-13.945c0.117-4.924,2.998-14.923,1.59-19.642
	c-1.018-3.396-5.498-9.688-8.707-11.193c-2.723-1.277-9.385-1.058-12.016,0.393c-3.104,1.715-7.164,8.285-7.953,11.741
	c-1.096,4.804,2.432,14.59,2.871,19.497c0.312,3.471,1.207,10.538,0.457,13.942c-1.568,7.127-11.242,19.025-13.111,26.078
	c-1.244,4.697-1.611,14.587-1.012,19.411c0.701,5.625,6.699,21.665,6.699,21.665L242.34,156.242z"/>
<ellipse transform="matrix(-0.9995 0.0328 -0.0328 -0.9995 440.9285 309.1731)" fill="#241C1D" cx="217.929" cy="158.203" rx="21.737" ry="8.728"/>
<path fill="#BCB59B" d="M208.254,46.582c0.043,1.33,2.768,2.324,6.084,2.215c3.32-0.109,5.975-1.278,5.93-2.611
	c-0.043-1.33-2.77-2.322-6.086-2.217C210.863,44.079,208.209,45.25,208.254,46.582z"/>
<path fill="#CCC5AA" d="M239.654,157.49c0,0,4.934-16.4,5.266-22.063c0.283-4.847-0.732-14.691-2.283-19.296
	c-2.326-6.918-12.762-18.155-14.795-25.165c-0.971-3.349-0.539-10.457-0.457-13.942c0.119-4.926,2.998-14.921,1.588-19.642
	c-1.016-3.396-5.496-9.688-8.705-11.196c-2.721-1.276-9.385-1.056-12.014,0.396c-3.105,1.713-7.166,8.283-7.957,11.74
	c-1.096,4.802,2.434,14.588,2.873,19.494c0.312,3.475,1.209,10.537,0.459,13.943c-1.57,7.13-11.244,19.028-13.113,26.081
	c-1.246,4.696-1.611,14.586-1.012,19.406c0.701,5.628,6.699,21.669,6.699,21.669L239.654,157.49z"/>
<path fill="#BCB59B" d="M203.629,91.759c0,0,7.273,3.242,14.943,2.992c7.666-0.254,11.953-5.033,11.953-5.033l-0.602-9.039
	c0,0-3.762,4.348-11.664,4.594c-7.9,0.249-14.727-3.729-14.727-3.729L203.629,91.759z"/>
<ellipse transform="matrix(-0.9995 0.0328 -0.0328 -0.9995 447.3048 307.9244)" fill="#D2D1C7" cx="221.129" cy="157.628" rx="21.738" ry="8.731"/>
<path fill="#D2D1C7" d="M211.449,46.009c0.047,1.331,2.771,2.326,6.088,2.216c3.32-0.109,5.975-1.278,5.93-2.61
	c-0.043-1.332-2.77-2.322-6.086-2.214C214.062,43.508,211.406,44.677,211.449,46.009z"/>
<path fill="#D2D1C7" d="M242.855,156.916c0,0,4.932-16.398,5.264-22.057c0.281-4.854-0.732-14.696-2.283-19.301
	c-2.324-6.917-12.76-18.153-14.793-25.164c-0.973-3.35-0.541-10.459-0.459-13.943c0.117-4.925,2.996-14.92,1.588-19.643
	c-1.016-3.396-5.496-9.688-8.705-11.193c-2.721-1.275-9.385-1.056-12.018,0.395c-3.102,1.714-7.162,8.284-7.951,11.74
	c-1.096,4.804,2.432,14.588,2.873,19.495c0.311,3.474,1.207,10.539,0.457,13.942c-1.57,7.129-11.244,19.026-13.113,26.083
	c-1.244,4.695-1.611,14.584-1.012,19.406c0.701,5.627,6.699,21.664,6.699,21.664L242.855,156.916z"/>
<path fill="#FFFFF8" d="M196.721,159.591c0.156,4.818,10.012,8.406,22.01,8.011c12-0.394,21.598-4.617,21.441-9.438
	c-0.158-4.814-10.014-8.403-22.014-8.011C206.16,150.546,196.561,154.775,196.721,159.591z"/>
<ellipse transform="matrix(-0.9995 0.0328 -0.0328 -0.9995 430.9834 87.0503)" fill="#FFFFF8" cx="214.777" cy="47.062" rx="6.011" ry="2.413"/>
<path fill="#FFFFF8" d="M240.172,158.164c0,0,4.932-16.396,5.264-22.055c0.281-4.854-0.732-14.698-2.281-19.303
	c-2.326-6.915-12.764-18.152-14.797-25.162c-0.969-3.35-0.539-10.459-0.457-13.944c0.119-4.925,2.996-14.921,1.59-19.643
	c-1.018-3.395-5.496-9.687-8.705-11.192c-2.723-1.277-9.385-1.058-12.016,0.395c-3.107,1.713-7.164,8.283-7.955,11.74
	c-1.098,4.802,2.432,14.589,2.873,19.496c0.311,3.471,1.207,10.536,0.459,13.943c-1.57,7.127-11.246,19.024-13.115,26.077
	c-1.246,4.699-1.613,14.589-1.01,19.41c0.699,5.625,6.699,21.665,6.699,21.665L240.172,158.164z"/>
<path fill="#A51419" d="M204.146,92.439c0,0,7.271,3.24,14.939,2.988c7.67-0.25,11.957-5.033,11.957-5.033l-0.604-9.038
	c0,0-3.76,4.349-11.664,4.596c-7.9,0.246-14.729-3.729-14.729-3.729L204.146,92.439z"/>
<path fill="#15242E" d="M174.941,143.106c10.566-21.132,3.963-44.907-14.527-58.112c-3.033-2.526-6.26-5.244-9.752-7.492
	c0.918-0.056,1.842-0.098,2.775-0.098c24.086,0,43.611,19.525,43.611,43.61c0,24.084-19.525,43.61-43.611,43.61
	c-1.574,0-3.125-0.087-4.656-0.25C159.91,161.008,169.732,153.524,174.941,143.106z"/>
<path fill="#1E3442" d="M109.83,121.014c0-23.151,18.041-42.078,40.832-43.513c3.492,2.248,6.719,4.966,9.752,7.492
	c18.49,13.205,25.094,36.98,14.527,58.112c-5.209,10.418-15.031,17.902-26.16,21.269C126.887,162.046,109.83,143.526,109.83,121.014
	z"/>
<ellipse fill="#050000" cx="149.211" cy="98.649" rx="5.951" ry="3.747"/>
<path fill="#050000" d="M152.312,88.711c0,2.067,2.664,3.742,5.953,3.742c3.287,0,5.953-1.675,5.953-3.742
	c0-2.07-2.666-3.747-5.953-3.747C154.977,84.964,152.312,86.641,152.312,88.711z"/>
<ellipse fill="#050000" cx="140.2" cy="86.936" rx="5.952" ry="3.744"/>
<polygon fill="#E9504B" points="116.238,154.639 156.141,177.306 155.99,201.624 162.043,204.9 162.043,173.83 121.994,150.635 
	81.357,127.434 41.504,104.022 41.504,135.096 47.787,139.005 47.787,114.981 86.617,136.89 "/>
<polygon fill="#DF443E" points="162.043,173.83 175.629,166.199 53.799,96.363 41.504,104.022 "/>
</svg>
