<?xml version="1.0" encoding="utf-8"?>
<!-- Generator: Adobe Illustrator 15.1.0, SVG Export Plug-In  -->
<!DOCTYPE svg PUBLIC "-//W3C//DTD SVG 1.1//EN" "http://www.w3.org/Graphics/SVG/1.1/DTD/svg11.dtd" [
	<!ENTITY ns_flows "http://ns.adobe.com/Flows/1.0/">
]>
<svg version="1.1"
	 xmlns="http://www.w3.org/2000/svg" xmlns:xlink="http://www.w3.org/1999/xlink" xmlns:a="http://ns.adobe.com/AdobeSVGViewerExtensions/3.0/"
	 x="0px" y="0px" width="344px" height="204px" viewBox="-0.562 -0.748 344 204"
	 overflow="visible" enable-background="new -0.562 -0.748 344 204" xml:space="preserve">
<defs>
</defs>
<polygon fill="#221B1A" points="257.155,99.007 342.874,49.507 342.874,53.679 257.155,103.173 "/>
<polygon fill="#221B1A" points="257.432,198.143 343.15,148.642 343.15,152.813 257.432,202.311 "/>
<polygon fill="#221B1A" points="257.422,202.318 0,53.702 0,49.53 257.422,198.152 "/>
<polygon fill="#55534F" points="343.167,148.646 257.432,198.145 0.016,49.526 85.744,0.029 "/>
<polygon fill="#FFFFFF" points="41.024,25.854 44.782,23.68 66.348,36.12 62.587,38.29 "/>
<polygon fill="#FFFFFF" points="83.97,50.642 87.728,48.468 109.294,60.903 105.531,63.077 "/>
<polygon fill="#FFFFFF" points="152.093,85.591 148.332,87.763 126.913,75.407 130.671,73.235 "/>
<polygon fill="#FFFFFF" points="261.083,196.041 257.436,198.141 0.016,49.53 3.679,47.423 "/>
<polygon fill="#FFFFFF" points="343.167,148.646 339.5,150.755 81.983,2.205 85.744,0.029 "/>
<polygon fill="#FFFFFF" points="169.696,100.161 173.454,97.987 195.02,110.429 191.259,112.599 "/>
<polygon fill="#FFFFFF" points="212.673,124.948 216.431,122.774 237.997,135.212 234.234,137.386 "/>
<polygon fill="#FFFFFF" points="280.548,159.977 276.788,162.148 255.616,149.716 259.374,147.544 "/>
<polygon fill="#55534F" points="163.738,53.935 257.146,0 342.874,49.497 249.474,103.433 "/>
<polygon fill="#FFFFFF" points="257.146,0 167.785,51.606 171.452,53.716 260.902,2.193 "/>
<polygon fill="#FFFFFF" points="339.208,47.411 249.773,98.929 253.517,101.101 342.874,49.501 "/>
<polygon fill="#FFFFFF" points="301.85,25.809 298.092,23.635 276.526,36.075 280.287,38.245 "/>
<polygon fill="#FFFFFF" points="258.873,50.597 255.115,48.423 233.549,60.858 237.312,63.032 "/>
<polygon fill="#FFFFFF" points="180.271,53.606 190.754,47.524 223.326,66.378 213.021,72.364 "/>
</svg>
