<?xml version="1.0" encoding="utf-8"?>
<!-- Generator: Adobe Illustrator 15.1.0, SVG Export Plug-In  -->
<!DOCTYPE svg PUBLIC "-//W3C//DTD SVG 1.1//EN" "http://www.w3.org/Graphics/SVG/1.1/DTD/svg11.dtd" [
	<!ENTITY ns_flows "http://ns.adobe.com/Flows/1.0/">
]>
<svg version="1.1"
	 xmlns="http://www.w3.org/2000/svg" xmlns:xlink="http://www.w3.org/1999/xlink" xmlns:a="http://ns.adobe.com/AdobeSVGViewerExtensions/3.0/"
	 x="0px" y="0px" width="344px" height="203px" viewBox="-0.503 -0.209 344 203"
	 overflow="visible" enable-background="new -0.503 -0.209 344 203" xml:space="preserve">
<defs>
</defs>
<polygon fill="#221B1A" points="86.012,99.004 0.293,49.504 0.293,53.676 86.012,103.17 "/>
<polygon fill="#221B1A" points="85.736,198.139 0.018,148.639 0.018,152.811 85.736,202.307 "/>
<polygon fill="#221B1A" points="85.745,202.314 343.167,53.699 343.167,49.527 85.745,198.148 "/>
<polygon fill="#55534F" points="0,148.643 85.735,198.141 343.151,49.523 257.423,0.029 "/>
<polygon fill="#FFFFFF" points="302.299,25.977 298.541,23.803 276.976,36.242 280.736,38.412 "/>
<polygon fill="#FFFFFF" points="259.322,50.764 255.564,48.59 233.998,61.025 237.761,63.199 "/>
<polygon fill="#FFFFFF" points="191.199,85.713 194.96,87.885 216.379,75.529 212.621,73.357 "/>
<polygon fill="#FFFFFF" points="82.075,196.041 85.731,198.137 343.152,49.527 339.5,47.424 "/>
<polygon fill="#FFFFFF" points="0,148.643 3.753,150.828 261.194,2.209 257.423,0.029 "/>
<polygon fill="#FFFFFF" points="173.596,100.283 169.838,98.109 148.272,110.551 152.033,112.721 "/>
<polygon fill="#FFFFFF" points="130.619,125.07 126.861,122.896 105.295,135.334 109.058,137.508 "/>
<polygon fill="#FFFFFF" points="62.496,160.02 66.257,162.191 87.676,149.838 83.918,147.666 "/>
<polygon fill="#55534F" points="179.429,53.932 86.021,0 0.293,49.494 93.693,103.43 "/>
<polygon fill="#FFFFFF" points="86.021,0 175.382,51.604 171.715,53.713 82.275,2.184 "/>
<polygon fill="#FFFFFF" points="3.97,47.398 93.394,98.926 89.65,101.098 0.293,49.498 "/>
<polygon fill="#FFFFFF" points="41.317,25.807 45.075,23.633 66.641,36.072 62.88,38.242 "/>
<polygon fill="#FFFFFF" points="84.294,50.594 88.052,48.42 109.618,60.855 105.855,63.029 "/>
<polygon fill="#FFFFFF" points="124.771,75.354 114.287,69.271 81.717,88.125 92.02,94.111 "/>
</svg>
